<svg width="40" height="40" viewBox="0 0 40 40" fill="none" xmlns="http://www.w3.org/2000/svg">
    <path d="M7.75 4C7.75 2.20508 9.20508 0.75 11 0.75H27C27.1212 0.75 27.2375 0.798159 27.3232 0.883885L38.1161 11.6768C38.2018 11.7625 38.25 11.8788 38.25 12V36C38.25 37.7949 36.7949 39.25 35 39.25H11C9.20507 39.25 7.75 37.7949 7.75 36V4Z" fill="white" stroke="#D0D5DD" stroke-width="1.5"/>
    <path d="M27 0.5V8C27 10.2091 28.7909 12 31 12H38.5" stroke="#D0D5DD" stroke-width="1.5"/>
    <rect x="1" y="18" width="26" height="16" rx="2" fill="#BA24D5"/>
    <path d="M5.28729 30L8.3022 24.0341V23.9844H4.79013V22.7273H9.89311V24.0021L6.87464 30H5.28729ZM10.9114 30V29.0874L14.5407 23.995H10.9043V22.7273H16.4725V23.6399L12.8397 28.7322H16.4796V30H10.9114Z" fill="white"/>
    <path d="M17.6594 30V22.7273H20.5288C21.078 22.7273 21.5468 22.8255 21.935 23.022C22.3256 23.2161 22.6228 23.492 22.8263 23.8494C23.0323 24.2045 23.1353 24.6224 23.1353 25.103C23.1353 25.5859 23.0311 26.0014 22.8228 26.3494C22.6145 26.6951 22.3126 26.9602 21.9173 27.1449C21.5243 27.3295 21.0484 27.4219 20.4897 27.4219H18.5685V26.1861H20.2411C20.5347 26.1861 20.7785 26.1458 20.9727 26.0653C21.1668 25.9848 21.3112 25.8641 21.4059 25.7031C21.503 25.5421 21.5515 25.3421 21.5515 25.103C21.5515 24.8615 21.503 24.6579 21.4059 24.4922C21.3112 24.3265 21.1656 24.201 20.9691 24.1158C20.775 24.0282 20.5299 23.9844 20.234 23.9844H19.1971V30H17.6594ZM21.587 26.6903L23.3945 30H21.6971L19.9286 26.6903H21.587Z" fill="#BA24D5"/>
</svg>
