<svg width="41" height="40" viewBox="0 0 41 40" fill="none" xmlns="http://www.w3.org/2000/svg">
    <path d="M8.75 4C8.75 2.20508 10.2051 0.75 12 0.75H28C28.1212 0.75 28.2375 0.798159 28.3232 0.883885L39.1161 11.6768C39.2018 11.7625 39.25 11.8788 39.25 12V36C39.25 37.7949 37.7949 39.25 36 39.25H12C10.2051 39.25 8.75 37.7949 8.75 36V4Z" fill="white" stroke="#D0D5DD" stroke-width="1.5"/>
    <path d="M28 0.5V8C28 10.2091 29.7909 12 32 12H39.5" stroke="#D0D5DD" stroke-width="1.5"/>
    <rect x="0.5" y="18" width="29" height="16" rx="2" fill="#0E9384"/>
    <path d="M5.81632 30H4.16859L6.67924 22.7273H8.66078L11.1679 30H9.52015L7.69842 24.3892H7.6416L5.81632 30ZM5.71333 27.1413H9.60538V28.3416H5.71333V27.1413ZM13.2968 30H11.6491L14.1597 22.7273H16.1412L18.6483 30H17.0006L15.1789 24.3892H15.1221L13.2968 30ZM13.1938 27.1413H17.0858V28.3416H13.1938V27.1413ZM25.5988 25.2734H24.0434C24.015 25.0722 23.957 24.8935 23.8694 24.7372C23.7818 24.5786 23.6694 24.4437 23.532 24.3324C23.3947 24.2211 23.2361 24.1359 23.0562 24.0767C22.8786 24.0175 22.6857 23.9879 22.4774 23.9879C22.1009 23.9879 21.7731 24.0814 21.4937 24.2685C21.2143 24.4531 20.9977 24.723 20.8438 25.0781C20.69 25.4309 20.613 25.8594 20.613 26.3636C20.613 26.8821 20.69 27.3177 20.8438 27.6705C21.0001 28.0232 21.2179 28.2895 21.4972 28.4695C21.7766 28.6494 22.0998 28.7393 22.4667 28.7393C22.6727 28.7393 22.8633 28.7121 23.0384 28.6577C23.216 28.6032 23.3734 28.5239 23.5107 28.4197C23.6481 28.3132 23.7617 28.1842 23.8517 28.0327C23.944 27.8812 24.0079 27.7083 24.0434 27.5142L25.5988 27.5213C25.5586 27.8551 25.4579 28.1771 25.297 28.4872C25.1383 28.795 24.9241 29.0708 24.6542 29.3146C24.3867 29.5561 24.0671 29.7479 23.6954 29.8899C23.3261 30.0296 22.9082 30.0994 22.4419 30.0994C21.7932 30.0994 21.2132 29.9527 20.7018 29.6591C20.1928 29.3655 19.7903 28.9406 19.4944 28.3842C19.2008 27.8279 19.0541 27.1544 19.0541 26.3636C19.0541 25.5705 19.2032 24.8958 19.5015 24.3395C19.7998 23.7831 20.2046 23.3594 20.716 23.0682C21.2274 22.7746 21.8026 22.6278 22.4419 22.6278C22.8633 22.6278 23.2539 22.687 23.6137 22.8054C23.9759 22.9238 24.2967 23.0966 24.5761 23.3239C24.8554 23.5488 25.0827 23.8246 25.2579 24.1513C25.4355 24.478 25.5491 24.852 25.5988 25.2734Z" fill="white"/>
</svg>
