<svg width="24" height="24" viewBox="-2 -2 24 24" fill="none"
     xmlns="http://www.w3.org/2000/svg">
    <path
            d="M14.1667 1.66667V10.8333M18.3333 8.16667V4.33334C18.3333 3.39992 18.3333 2.93321 18.1517 2.57669C17.9919 2.26308 17.7369 2.00812 17.4233 1.84833C17.0668 1.66667 16.6001 1.66667 15.6667 1.66667H6.76501C5.54711 1.66667 4.93816 1.66667 4.44632 1.88953C4.01284 2.08595 3.64442 2.40202 3.38437 2.8006C3.08931 3.25283 2.99672 3.8547 2.81153 5.05844L2.37563 7.89178C2.13137 9.47943 2.00925 10.2733 2.24484 10.8909C2.45162 11.4331 2.84054 11.8864 3.34494 12.1732C3.91961 12.5 4.72278 12.5 6.32912 12.5H7C7.46671 12.5 7.70007 12.5 7.87833 12.5908C8.03513 12.6707 8.16261 12.7982 8.24251 12.955C8.33334 13.1333 8.33334 13.3666 8.33334 13.8333V16.2785C8.33334 17.4133 9.25333 18.3333 10.3882 18.3333C10.6589 18.3333 10.9042 18.1739 11.0141 17.9266L13.8148 11.6252C13.9421 11.3385 14.0058 11.1952 14.1065 11.0902C14.1955 10.9973 14.3048 10.9263 14.4258 10.8827C14.5627 10.8333 14.7195 10.8333 15.0332 10.8333H15.6667C16.6001 10.8333 17.0668 10.8333 17.4233 10.6517C17.7369 10.4919 17.9919 10.2369 18.1517 9.92332C18.3333 9.5668 18.3333 9.10009 18.3333 8.16667Z"
            stroke="#667085" stroke-width="1.66667" stroke-linecap="round"
            stroke-linejoin="round"/>
</svg>
