<svg t="1732848635421" class="icon" viewBox="0 0 1024 1024" version="1.1" xmlns="http://www.w3.org/2000/svg"
     p-id="21720" width="200" height="200">
    <path d="M374.4 512.9c0.4 13.4-9.2 25.4-23.2 27.9C183.8 571.4 104.7 659.7 106.7 812c0.2 15.3-12.4 27.8-28 28-15.7 0.2-28.6-12-28.8-27.3-1.9-148.2 65.2-249.6 197.3-300.5-56.2-34.3-93.7-97-93.7-168.3 0-107.9 85.9-196 192.5-196 15.7 0 28.4 12.4 28.4 27.7s-12.7 27.7-28.4 27.7c-74.6 0-135.7 62.7-135.7 140.7S271.4 484.6 346 484.6c15.7 0 28.4 12.4 28.4 27.7v0.6zM816 759.4V687c0-15.7 12.7-28.4 28.4-28.4s28.4 12.7 28.4 28.4v72.4h72.7c15.3 0 27.6 12.4 27.6 27.7 0 15.3-12.4 27.6-27.6 27.6h-72.7v72.4c0 15.7-12.7 28.4-28.4 28.4S816 902.8 816 887.1v-72.4h-72.7c-15.3 0-27.6-12.4-27.6-27.6 0-15.3 12.4-27.7 27.6-27.7H816z m-98.4 145.1c-187.8 0.3-423.7 0.6-431.9 0.6-13.5 0-24.5-10.9-24.5-24.2l-0.1-8.4h-0.6c-0.3-6.1-0.5-11.2-0.5-16.3 0-141.6 88.2-267 224.6-319.5l15.3-5.9-13.6-8.7C420.9 480 381.9 409.5 381.9 333.9c0-124.8 105.1-226.3 234.4-226.3s234.4 101.5 234.4 226.3c0 75.7-39 146.1-104.4 188.2l-13.6 8.7 15.3 5.9c46.9 18 88.1 44.6 121.9 77.5-9.9-1.7-20-2.5-30-2.5-96.8 0-175.3 76.4-175.3 170.7 0 47.9 20.3 91.1 53 122.1z m0 0"
          p-id="21721" fill="#1296db"></path>
</svg>
