<svg width="24" height="24" viewBox="-2 -2 24 24" fill="none" xmlns="http://www.w3.org/2000/svg">
    <path d="M5.83332 18.3333V9.16667M1.66666 10.8333V16.6667C1.66666 17.5871 2.41285 18.3333 3.33332 18.3333H14.5219C15.7558 18.3333 16.8052 17.4331 16.9928 16.2135L17.8902 10.3801C18.1232 8.86575 16.9515 7.50001 15.4193 7.50001H12.5C12.0398 7.50001 11.6667 7.12691 11.6667 6.66667V3.72154C11.6667 2.58667 10.7467 1.66667 9.61179 1.66667C9.3411 1.66667 9.09581 1.82608 8.98587 2.07344L6.05327 8.67179C5.91952 8.97273 5.62109 9.16667 5.29176 9.16667H3.33332C2.41285 9.16667 1.66666 9.91286 1.66666 10.8333Z" stroke="#667085" stroke-width="1.66667" stroke-linecap="round" stroke-linejoin="round"/>
</svg>
