<svg width="24" height="24" viewBox="-2 -2 24 24" fill="none" xmlns="http://www.w3.org/2000/svg">
    <path d="M13.1665 1.66675V10.8334M17.3332 8.16675V4.33341C17.3332 3.39999 17.3332 2.93328 17.1516 2.57676C16.9918 2.26316 16.7368 2.00819 16.4232 1.8484C16.0667 1.66675 15.6 1.66675 14.6665 1.66675H5.76489C4.54699 1.66675 3.93804 1.66675 3.4462 1.88961C3.01271 2.08603 2.6443 2.4021 2.38425 2.80068C2.08919 3.25291 1.99659 3.85478 1.8114 5.05852L1.37551 7.89185C1.13125 9.47951 1.00912 10.2733 1.24472 10.891C1.4515 11.4332 1.84042 11.8865 2.34482 12.1733C2.91949 12.5001 3.72266 12.5001 5.32899 12.5001H5.99988C6.46659 12.5001 6.69995 12.5001 6.87821 12.5909C7.03501 12.6708 7.16249 12.7983 7.24239 12.9551C7.33321 13.1333 7.33321 13.3667 7.33321 13.8334V16.2785C7.33321 17.4134 8.25321 18.3334 9.38808 18.3334C9.65877 18.3334 9.90406 18.174 10.014 17.9266L12.8146 11.6252C12.942 11.3386 13.0057 11.1953 13.1064 11.0902C13.1954 10.9974 13.3047 10.9263 13.4257 10.8827C13.5626 10.8334 13.7194 10.8334 14.033 10.8334H14.6665C15.6 10.8334 16.0667 10.8334 16.4232 10.6518C16.7368 10.492 16.9918 10.237 17.1516 9.9234C17.3332 9.56688 17.3332 9.10017 17.3332 8.16675Z" stroke="#F04438" stroke-width="1.66667" stroke-linecap="round" stroke-linejoin="round"/>
</svg>
