<svg width="40" height="40" viewBox="0 0 40 40" fill="none" xmlns="http://www.w3.org/2000/svg">
    <path d="M7.75 4C7.75 2.20508 9.20508 0.75 11 0.75H27C27.1212 0.75 27.2375 0.798159 27.3232 0.883885L38.1161 11.6768C38.2018 11.7625 38.25 11.8788 38.25 12V36C38.25 37.7949 36.7949 39.25 35 39.25H11C9.20507 39.25 7.75 37.7949 7.75 36V4Z" fill="white" stroke="#D0D5DD" stroke-width="1.5"/>
    <path d="M27 0.5V8C27 10.2091 28.7909 12 31 12H38.5" stroke="#D0D5DD" stroke-width="1.5"/>
    <rect y="18" width="28" height="16" rx="2" fill="#0E9384"/>
    <path d="M4.89444 30H3.24672L5.75737 22.7273H7.7389L10.246 30H8.59828L6.77654 24.3892H6.71973L4.89444 30ZM4.79146 27.1413H8.68351V28.3416H4.79146V27.1413ZM12.659 22.7273V30H11.1214V22.7273H12.659ZM13.9241 30V22.7273H18.7394V23.995H15.4617V25.728H18.4198V26.9957H15.4617V30H13.9241ZM19.7737 30V22.7273H24.589V23.995H21.3113V25.728H24.2694V26.9957H21.3113V30H19.7737Z" fill="white"/>
</svg>
