<svg width="41" height="40" viewBox="0 0 41 40" fill="none" xmlns="http://www.w3.org/2000/svg">
    <path d="M8.75 4C8.75 2.20508 10.2051 0.75 12 0.75H28C28.1212 0.75 28.2375 0.798159 28.3232 0.883885L39.1161 11.6768C39.2018 11.7625 39.25 11.8788 39.25 12V36C39.25 37.7949 37.7949 39.25 36 39.25H12C10.2051 39.25 8.75 37.7949 8.75 36V4Z" fill="white" stroke="#D0D5DD" stroke-width="1.5"/>
    <path d="M28 0.5V8C28 10.2091 29.7909 12 32 12H39.5" stroke="#D0D5DD" stroke-width="1.5"/>
    <rect y="18" width="30" height="16" rx="2" fill="#0E9384"/>
    <path d="M5.28897 30H3.64125L6.1519 22.7273H8.13343L10.6405 30H8.99281L7.17108 24.3892H7.11426L5.28897 30ZM5.18599 27.1413H9.07804V28.3416H5.18599V27.1413ZM11.5159 22.7273H13.4122L15.415 27.6136H15.5003L17.5031 22.7273H19.3994V30H17.9079V25.2663H17.8476L15.9655 29.9645H14.9498L13.0677 25.2486H13.0074V30H11.5159V22.7273ZM20.6663 30V22.7273H23.5356C24.0848 22.7273 24.5536 22.8255 24.9419 23.022C25.3325 23.2161 25.6296 23.492 25.8332 23.8494C26.0392 24.2045 26.1421 24.6224 26.1421 25.103C26.1421 25.5859 26.038 26.0014 25.8296 26.3494C25.6213 26.6951 25.3195 26.9602 24.9241 27.1449C24.5311 27.3295 24.0552 27.4219 23.4965 27.4219H21.5754V26.1861H23.248C23.5415 26.1861 23.7854 26.1458 23.9795 26.0653C24.1736 25.9848 24.318 25.8641 24.4127 25.7031C24.5098 25.5421 24.5583 25.3421 24.5583 25.103C24.5583 24.8615 24.5098 24.6579 24.4127 24.4922C24.318 24.3265 24.1724 24.201 23.9759 24.1158C23.7818 24.0282 23.5368 23.9844 23.2409 23.9844H22.2039V30H20.6663ZM24.5938 26.6903L26.4014 30H24.7039L22.9355 26.6903H24.5938Z" fill="white"/>
</svg>
