<svg width="40" height="40" viewBox="0 0 40 40" fill="none" xmlns="http://www.w3.org/2000/svg">
    <path d="M12.4325 22.9387L20.0575 27.2913L27.6825 22.9387H27.7962V31.8975L20.0575 36.25L12.3175 31.8975V22.9387H12.4325ZM20.0575 18.5875L25.8825 21.865L20.0575 25.1712L14.2313 21.865L20.0562 18.5875H20.0575ZM28.51 3.75L36.25 8.215V17.0613L28.7675 21.4125V12.4538L21.0275 8.1025L28.51 3.75ZM11.6038 3.75L19.115 8.1025L11.375 12.4538V21.385L3.75 17.0325V8.215L11.6038 3.75ZM19.3438 10.1087V17.0613L13.2887 20.48V13.5287L19.3438 10.1087ZM20.7713 10.1087L26.825 13.5287V20.4525L20.7713 17.0613V10.1087Z" fill="#0FB71B"/>
</svg>
