<svg width="20" height="20" viewBox="0 0 20 20" fill="none" xmlns="http://www.w3.org/2000/svg">
    <g clip-path="url(#clip0_3530_44634)">
        <path d="M2.55309 9.43362e-06C2.42061 -0.000571823 2.28939 0.0257134 2.16735 0.0772767C2.04532 0.12884 1.93501 0.20461 1.84309 0.300009C1.65609 0.500009 1.53809 0.750009 1.53809 1.00001V19C1.53809 19.25 1.64009 19.517 1.84309 19.7C1.93577 19.7944 2.04623 19.8695 2.16809 19.921C2.28995 19.9725 2.4208 19.9993 2.55309 20H17.4461C17.7001 20 17.9701 19.9 18.1561 19.7C18.2509 19.6094 18.3266 19.5009 18.379 19.3807C18.4314 19.2605 18.4593 19.1311 18.4611 19V5.66701L12.7061 9.43362e-06H2.55309Z" fill="#A9662D"/>
        <path d="M18.462 5.667H13.724C13.5916 5.66718 13.4605 5.64071 13.3385 5.58917C13.2165 5.53763 13.1062 5.46207 13.014 5.367C12.9178 5.27747 12.841 5.16916 12.7884 5.04875C12.7357 4.92834 12.7084 4.79841 12.708 4.667V0L18.462 5.667Z" fill="#D18E55"/>
        <path d="M10.3831 0H11.5951V1.615H10.3831V0ZM9.17212 1.615H10.3841V3.23H9.17212V1.615ZM10.3831 3.231H11.5951V4.846H10.3831V3.231ZM9.17212 4.846H10.3841V6.461H9.17212V4.846ZM10.3831 6.462H11.5951V8.077H10.3831V6.462ZM9.17212 8.885H11.5951V13.327H9.17212V8.885Z" fill="white"/>
        <path d="M9.98193 11.3086H10.7899V12.9236H9.98193V11.3086Z" fill="#8B572A"/>
    </g>
    <defs>
        <clipPath id="clip0_3530_44634">
            <rect width="20" height="20" fill="white"/>
        </clipPath>
    </defs>
</svg>
