<svg width="40" height="40" viewBox="0 0 40 40" fill="none" xmlns="http://www.w3.org/2000/svg">
    <path d="M7.75 4C7.75 2.20508 9.20508 0.75 11 0.75H27C27.1212 0.75 27.2375 0.798159 27.3232 0.883885L38.1161 11.6768C38.2018 11.7625 38.25 11.8788 38.25 12V36C38.25 37.7949 36.7949 39.25 35 39.25H11C9.20507 39.25 7.75 37.7949 7.75 36V4Z" fill="white" stroke="#D0D5DD" stroke-width="1.5"/>
    <path d="M27 0.5V8C27 10.2091 28.7909 12 31 12H38.5" stroke="#D0D5DD" stroke-width="1.5"/>
    <rect x="4" y="18" width="23" height="16" rx="2" fill="#155EEF"/>
    <path d="M8.95792 30H7.31019L9.82085 22.7273H11.8024L14.3095 30H12.6618L10.84 24.3892H10.7832L8.95792 30ZM8.85494 27.1413H12.747V28.3416H8.85494V27.1413ZM15.5906 22.7273L17.3484 28.2528H17.4158L19.1772 22.7273H20.8817L18.3746 30H16.3931L13.8825 22.7273H15.5906ZM23.2947 22.7273V30H21.7571V22.7273H23.2947Z" fill="white"/>
</svg>
