<svg width="40" height="40" viewBox="0 0 40 40" fill="none" xmlns="http://www.w3.org/2000/svg">
    <path d="M7.75 4C7.75 2.20508 9.20508 0.75 11 0.75H27C27.1212 0.75 27.2375 0.798159 27.3232 0.883885L38.1161 11.6768C38.2018 11.7625 38.25 11.8788 38.25 12V36C38.25 37.7949 36.7949 39.25 35 39.25H11C9.20507 39.25 7.75 37.7949 7.75 36V4Z" fill="white" stroke="#D0D5DD" stroke-width="1.5"/>
    <path d="M27 0.5V8C27 10.2091 28.7909 12 31 12H38.5" stroke="#D0D5DD" stroke-width="1.5"/>
    <rect x="1" y="18" width="26" height="16" rx="2" fill="#444CE7"/>
    <path d="M4.6907 30V22.7273H7.60263C8.13767 22.7273 8.58393 22.8066 8.94141 22.9652C9.29889 23.1238 9.56759 23.344 9.74751 23.6257C9.92744 23.9051 10.0174 24.227 10.0174 24.5916C10.0174 24.8757 9.96058 25.1255 9.84695 25.3409C9.73331 25.554 9.57706 25.7292 9.3782 25.8665C9.1817 26.0014 8.95679 26.0973 8.70348 26.1541V26.2251C8.98047 26.237 9.2397 26.3151 9.48118 26.4595C9.72502 26.6039 9.9227 26.8063 10.0742 27.0668C10.2257 27.3248 10.3015 27.6326 10.3015 27.9901C10.3015 28.3759 10.2056 28.7204 10.0138 29.0234C9.82446 29.3241 9.54392 29.562 9.17223 29.7372C8.80054 29.9124 8.34245 30 7.79794 30H4.6907ZM6.22834 28.7429H7.48189C7.91039 28.7429 8.22289 28.6612 8.41939 28.4979C8.61589 28.3321 8.71413 28.112 8.71413 27.8374C8.71413 27.6361 8.6656 27.4586 8.56854 27.3047C8.47147 27.1508 8.33298 27.0301 8.15305 26.9425C7.9755 26.8549 7.76361 26.8111 7.5174 26.8111H6.22834V28.7429ZM6.22834 25.7706H7.36825C7.57895 25.7706 7.76598 25.7339 7.92933 25.6605C8.09505 25.5848 8.22526 25.4782 8.31996 25.3409C8.41702 25.2036 8.46555 25.0391 8.46555 24.8473C8.46555 24.5845 8.37204 24.3726 8.18501 24.2116C8.00036 24.0507 7.73757 23.9702 7.39666 23.9702H6.22834V25.7706ZM12.5556 30H10.9078L13.4185 22.7273H15.4L17.9071 30H16.2594L14.4377 24.3892H14.3809L12.5556 30ZM12.4526 27.1413H16.3446V28.3416H12.4526V27.1413ZM17.6168 23.995V22.7273H23.5898V23.995H21.3633V30H19.8434V23.995H17.6168Z" fill="white"/>
</svg>
