<?xml version="1.0" encoding="UTF-8"?>
<svg id="_图层_1" data-name="图层 1" xmlns="http://www.w3.org/2000/svg" viewBox="0 0 147.15 188.66">
	<defs>
		<style>
			.cls-1 {
			fill: #0059f5;
			}

			.cls-2 {
			fill: #5cfbff;
			}
		</style>
	</defs>
	<path class="cls-2" d="M147.15,105.02c0,11.6-9.4,21-21,21s-21.01-9.4-21.01-21-9.4-21.01-21-21.01-21-9.4-21-21,9.4-21,21-21,21-9.41,21-21.01S114.55,0,126.15,0s21,9.4,21,21-9.4,21.01-21,21.01-21.01,9.4-21.01,21,9.41,21,21.01,21,21,9.41,21,21.01Z"/>
	<path class="cls-1" d="M100.81,113.05c0,13.92-11.28,25.21-25.2,25.21s-25.2,11.28-25.2,25.2-11.29,25.2-25.21,25.2S0,177.38,0,163.46s11.28-25.2,25.2-25.2,25.21-11.29,25.21-25.21-11.29-25.2-25.21-25.2S0,76.57,0,62.65s11.28-25.21,25.2-25.21,25.21,11.29,25.21,25.21,11.28,25.2,25.2,25.2,25.2,11.28,25.2,25.2Z"/>
</svg>
