<?xml version="1.0" encoding="UTF-8"?>
<svg id="_图层_1" data-name="图层 1" xmlns="http://www.w3.org/2000/svg" viewBox="0 0 505.24 188.66">
  <defs>
    <style>
      .cls-1 {
        fill: #0059f5;
      }

      .cls-2 {
        fill: #5cfbff;
      }
    </style>
  </defs>
  <g>
    <path class="cls-2" d="M147.15,105.02c0,11.6-9.4,21-21,21s-21.01-9.4-21.01-21-9.4-21.01-21-21.01-21-9.4-21-21,9.4-21,21-21,21-9.41,21-21.01S114.55,0,126.15,0s21,9.4,21,21-9.4,21.01-21,21.01-21.01,9.4-21.01,21,9.41,21,21.01,21,21,9.41,21,21.01Z"/>
    <path class="cls-1" d="M100.81,113.05c0,13.92-11.28,25.21-25.2,25.21s-25.2,11.28-25.2,25.2-11.29,25.2-25.21,25.2S0,177.38,0,163.46s11.28-25.2,25.2-25.2,25.21-11.29,25.21-25.21-11.29-25.2-25.21-25.2S0,76.57,0,62.65s11.28-25.21,25.2-25.21,25.21,11.29,25.21,25.21,11.28,25.2,25.2,25.2,25.2,11.28,25.2,25.2Z"/>
  </g>
  <g>
    <path class="cls-1" d="M150.05,151.22l25.75-41.52c.38-.61,.38-1.37,.01-1.99l-22.71-37.74h13.87l11.71,19.87c.63,1.04,1.79,3.18,3.5,6.44l.83,1.61c.59-1.15,1.25-2.37,1.97-3.66,.72-1.29,1.54-2.72,2.47-4.27l12.38-19.98h13.54l-23.15,37.53c-.37,.61-.38,1.37-.01,1.98l24.99,41.74h-14.6l-13.6-23.03-.22-.39c-1.48-2.78-2.85-5.38-4.11-7.82-.63,1.26-1.31,2.56-2.05,3.91-.74,1.35-1.54,2.73-2.39,4.13l-14.21,23.2h-13.99Z"/>
    <path class="cls-1" d="M224.58,151.22V69.97h13.21v81.25h-13.21Z"/>
    <path class="cls-1" d="M441.92,151.22v-37.18l-27.36-44.07h13.87l17.04,27.58c.41,.7,.92,1.63,1.53,2.77,.02,.05,.05,.09,.07,.14,.73,1.39,2.7,1.35,3.4-.05,0-.01,.01-.02,.02-.03,.57-1.15,1.17-2.2,1.8-3.16l17.48-27.25h13.21l-27.97,44.07v37.18h-13.1Z"/>
    <path class="cls-1" d="M492.04,151.22V69.97h13.21v81.25h-13.21Z"/>
    <path class="cls-1" d="M310.44,151.22l-9.21-20.92h-32.19l-9.44,20.92h-13.87l37.62-80.76c.68-1.47,2.77-1.47,3.45,0l37.57,80.76h-13.93Zm-36.52-31.91h22.64l-8.32-18.54c-.48-1.18-.98-2.54-1.5-4.08-.52-1.53-1.04-3.25-1.55-5.13-.44,1.78-.92,3.43-1.42,4.97-.5,1.54-1.01,2.95-1.53,4.25l-8.32,18.54Z"/>
    <path class="cls-1" d="M373.82,67.93c-21.12-1.57-39.29,12.21-44.54,31.33-.45,1.64,.03,3.41,1.23,4.61l4.28,4.28c1.35,1.35,1.35,3.55,0,4.9l-4.28,4.28c-1.21,1.21-1.68,2.97-1.23,4.61,4.97,18.12,21.57,31.44,41.27,31.44,24.64,0,44.41-20.82,42.69-45.83-1.45-21.01-18.41-38.07-39.42-39.63Zm-3.26,72.97c-16.74,0-30.3-13.57-30.3-30.3s13.57-30.3,30.3-30.3,30.3,13.57,30.3,30.3-13.57,30.3-30.3,30.3Z"/>
  </g>
</svg>