<svg id="图层_1" data-name="图层 1" xmlns="http://www.w3.org/2000/svg" xmlns:xlink="http://www.w3.org/1999/xlink" viewBox="0 0 372.27899 107.78181"><defs><style>.cls-1{fill:#082846;}.cls-2{fill:#196796;}.cls-3{fill:#092745;}.cls-4{fill:url(#linear-gradient);}.cls-5{fill:url(#linear-gradient-2);}.cls-6{fill:url(#linear-gradient-3);}.cls-7{fill:url(#linear-gradient-4);}.cls-8{fill:url(#linear-gradient-5);}.cls-9{fill:url(#linear-gradient-6);}</style><linearGradient id="linear-gradient" x1="48.70252" y1="31.31152" x2="109.24751" y2="31.31152" gradientUnits="userSpaceOnUse"><stop offset="0" stop-color="#787973"/><stop offset="0.88202" stop-color="#fff"/></linearGradient><linearGradient id="linear-gradient-2" x1="32.0089" y1="10.21179" x2="140.16799" y2="59.27379" gradientUnits="userSpaceOnUse"><stop offset="0" stop-color="#082947"/><stop offset="0.05839" stop-color="#073258"/><stop offset="0.12444" stop-color="#063963"/><stop offset="0.19448" stop-color="#063b67"/><stop offset="0.4303" stop-color="#1d7eb0"/><stop offset="0.44843" stop-color="#2186b8"/><stop offset="0.48615" stop-color="#2690c3"/><stop offset="0.52727" stop-color="#2893c7"/><stop offset="0.54462" stop-color="#268fc3"/><stop offset="0.64075" stop-color="#1f7fb1"/><stop offset="0.70909" stop-color="#1d79aa"/><stop offset="0.90303" stop-color="#024274"/></linearGradient><linearGradient id="linear-gradient-3" x1="48.20726" y1="31.01052" x2="108.7522" y2="31.01052" gradientUnits="userSpaceOnUse"><stop offset="0" stop-color="#aeb1b2"/><stop offset="0.88202" stop-color="#fff"/></linearGradient><linearGradient id="linear-gradient-4" x1="-228.91121" y1="-428.39939" x2="-168.36618" y2="-428.39939" gradientTransform="translate(-117.92428 -351.92916) rotate(180)" xlink:href="#linear-gradient"/><linearGradient id="linear-gradient-5" x1="-244.99034" y1="-449.22038" x2="-140.11289" y2="-401.64696" gradientTransform="translate(-117.92428 -351.92916) rotate(180)" xlink:href="#linear-gradient-2"/><linearGradient id="linear-gradient-6" x1="-229.40646" y1="-428.70044" x2="-168.86148" y2="-428.70044" gradientTransform="translate(-117.92428 -351.92916) rotate(180)" xlink:href="#linear-gradient-3"/></defs><title>中亦科技logo</title><path class="cls-1" d="M264.88139,38.394h-4.9268s3.1902,24.0838,3.5954,24.9458a1.99854,1.99854,0,0,0,1.2661,1.2248h4.8595s-3.1146-23.745-3.1509-24.0206A2.44807,2.44807,0,0,0,264.88139,38.394Z" transform="translate(0.3534)"/><polygon class="cls-1" points="252.163 33.375 252.163 31.244 245.327 31.244 245.327 33.375 227.036 33.375 227.036 36.438 271.162 36.438 271.162 33.375 252.163 33.375"/><path class="cls-1" d="M239.8215,38.61362v27.4565h5.617c.4651,0,.7749-.2828.7749-.5502V37.81372h-5.7692C240.1137,37.81372,239.8215,38.10182,239.8215,38.61362Z" transform="translate(0.3534)"/><path class="cls-1" d="M251.43549,38.61362v27.4565h5.6159c.4662,0,.7771-.2828.7771-.5502V37.81372h-5.77118C251.72769,37.81372,251.43549,38.10182,251.43549,38.61362Z" transform="translate(0.3534)"/><path class="cls-2" d="M231.5781,40.544c-.0207.1513-.9625,7.3285-1.8111,13.8002l7.3637-8.3833c.5762-4.2306,1.0175-7.5669,1.0175-7.5669h-4.92789A2.44622,2.44622,0,0,0,231.5781,40.544Z" transform="translate(0.3534)"/><path class="cls-1" d="M228.4262,64.56462h4.8615a1.99336,1.99336,0,0,0,1.2641-1.2248c.2404-.5076,1.4412-9.0515,2.3924-16.0019l-7.3576,8.3719C228.9598,60.49672,228.4262,64.56462,228.4262,64.56462Z" transform="translate(0.3534)"/><path class="cls-1" d="M219.1445,34.44222H205.7059v3.0794h8.6569c1.1978,0,.9978,1.5542.9978,1.5542v17.291a2.57728,2.57728,0,0,1-1.5759,2.18H203.3622V31.12142h-6.1267v3.3208H182.3132c-2.9322,0-3.1084,3.1954-3.1084,3.1954v21.2656a2.79348,2.79348,0,0,0,1.4009,2.01,8.59289,8.59289,0,0,0,2.3054.484h12.5838v-2.7779H186.237c-1.1988,0-.9999-2.1593-.9999-2.1593V39.16912a1.39829,1.39829,0,0,1,1.2745-1.575h10.7239v28.5982h6.1267v-5.0988h13.59811l5.03779-5.0189v-19.441C221.9981,34.44222,219.1445,34.44222,219.1445,34.44222Z" transform="translate(0.3534)"/><path class="cls-1" d="M302.18469,42.209h-4.9631s3.4669,6.4365,4.3994,8.2612c.114.2196.3855.6827.4684.7905a4.42755,4.42755,0,0,0,.7833.8123,2.03759,2.03759,0,0,0,.9532.3015h4.1383s-3.5498-7.0591-4.12788-8.5242a2.89086,2.89086,0,0,0-1.15012-1.5252A1.50778,1.50778,0,0,0,302.18469,42.209Z" transform="translate(0.3534)"/><path class="cls-1" d="M278.36659,45.42622l-1.0662,19.2783h3.06392a1.30009,1.30009,0,0,0,.99878-.5668l1.5314-20.3972h-3.4628A2.2559,2.2559,0,0,0,278.36659,45.42622Z" transform="translate(0.3534)"/><path class="cls-1" d="M315.72269,56.04762V31.01052h-4.0616c-.9325,0-1.032,1.0651-1.032,1.0651v23.972h-9.723a1.90153,1.90153,0,0,1-1.7967-.9988l-4.8485-9.634a1.26184,1.26184,0,0,0-.8227-.487h-3.9187v-3.6969h6.7266v-2.5634h-6.7266v-4.5631h8.647a1.10454,1.10454,0,0,1,.9305.4373c.974,1.6081,2.5406,4.1073,3.4504,5.3785a2.08677,2.08677,0,0,0,1.4567.801h3.9601s-4.101-7.2322-4.731-8.5232a1.59079,1.59079,0,0,0-1.4215-.6735h-24.477v2.5799h7.4881v4.5631h-7.4881v2.5634h7.4881v24.0393h4.8967V48.38952c.2663-.0663,1.032,1.3646,1.032,1.3646s4.0803,8.0477,4.444,8.4932a2.22019,2.22019,0,0,0,1.9391.8631h13.4282v7.1928s3.39652-.0341,4.0617,0a1.40564,1.40564,0,0,0,1.0982-.6662v-6.5597h4.1301v-3.0297Z" transform="translate(0.3534)"/><path class="cls-1" d="M337.66489,31.79382h-5.0615v2.9624h-5.7256v2.7964h5.7256v10.7271l-5.6593,1.3937V53.735l5.6593-1.5594v10.1821c0,.633-.4952.5988-.4952.5988h-5.1641v2.6308h9.2226c1.36562,0,1.4982-1.632,1.4982-1.632V50.782l4.0285-1.1086v-3.6307l-4.0285.9916v-9.4817h4.6606v-2.7964h-4.6606Z" transform="translate(0.3534)"/><path class="cls-1" d="M361.73631,58.296a.3926.3926,0,0,1,0-.5658l8.65778-7.0591V45.077c0-.8982-1.0319-.9988-1.0319-.9988h-7.1597c-.831,0-1.0319-.9656-1.0319-.9656v-5.56h9.2235v-2.1633h-9.2235v-4.129h-6.0594v4.129h-9.2236v2.1633h9.2236v5.56s-.20088.9656-1.03188.9656h-7.15972s-1.032.1006-1.032.9988v5.5941l8.6579,7.0591a.39253.39253,0,0,1,0,.5658c-.2838.2828-10.1893,7.7576-10.1893,7.7576h6.8923l6.8924-5.161,6.8923,5.161h6.8924S362.02019,58.57882,361.73631,58.296Zm-11.18612-9.6391v-2.0816h15.1814v2.0816s-6.1028,5.9547-7.0747,6.1266c-.1388.0042-.3171.0083-.516.0125-.1989-.0042-.3751-.0083-.516-.0125C356.65309,54.61162,350.55019,48.65692,350.55019,48.65692Z" transform="translate(0.3534)"/><path class="cls-3" d="M191.5337,82.241l2.1677.5492a7.29781,7.29781,0,0,1-2.4525,4.0761,6.76394,6.76394,0,0,1-4.3342,1.405,7.7962,7.7962,0,0,1-4.31339-1.0797,6.7455,6.7455,0,0,1-2.52821-3.1271,11.15038,11.15038,0,0,1-.8662-4.3952,9.66808,9.66808,0,0,1,.9781-4.4698,6.71234,6.71234,0,0,1,2.7851-2.896,8.14111,8.14111,0,0,1,3.9777-.9906,6.72135,6.72135,0,0,1,4.1383,1.2526,6.51271,6.51271,0,0,1,2.3376,3.5239l-2.1376.5036a5.061,5.061,0,0,0-1.6547-2.6069,4.41145,4.41145,0,0,0-2.7282-.8154,5.29418,5.29418,0,0,0-3.1611.9056,4.78653,4.78653,0,0,0-1.7843,2.4327,9.79865,9.79865,0,0,0-.5129,3.1489,10.01037,10.01037,0,0,0,.6083,3.6524,4.53548,4.53548,0,0,0,1.89711,2.3313,5.30674,5.30674,0,0,0,2.78409.7719,4.6648,4.6648,0,0,0,3.0887-1.0517A5.384,5.384,0,0,0,191.5337,82.241Z" transform="translate(0.3534)"/><path class="cls-3" d="M196.1176,87.99152V71.59272h2.0132v5.8842a4.499,4.499,0,0,1,3.5581-1.633,4.78965,4.78965,0,0,1,2.2919.5201,3.04068,3.04068,0,0,1,1.3926,1.4361,6.63148,6.63148,0,0,1,.4206,2.6629v7.5285h-2.0132V80.463a3.11153,3.11153,0,0,0-.6548-2.1977,2.43268,2.43268,0,0,0-1.8516-.6879,3.26194,3.26194,0,0,0-1.6837.4642,2.614,2.614,0,0,0-1.1231,1.2588,5.74739,5.74739,0,0,0-.3368,2.1925v6.4986Z" transform="translate(0.3534)"/><path class="cls-3" d="M208.86931,73.90842v-2.3157h2.01419v2.3157Zm0,14.0831V76.11222h2.01419v11.8793Z" transform="translate(0.3534)"/><path class="cls-3" d="M213.9484,87.99152V76.11222h1.8121v1.6879a4.27263,4.27263,0,0,1,3.7819-1.9562,4.96714,4.96714,0,0,1,1.9738.3855,3.10623,3.10623,0,0,1,1.348,1.0123,3.924,3.924,0,0,1,.6269,1.4878,11.76963,11.76963,0,0,1,.1109,1.9572v7.3048h-2.0142v-7.2259a5.4027,5.4027,0,0,0-.2342-1.8402,1.93765,1.93765,0,0,0-.8342-.973,2.64593,2.64593,0,0,0-1.4039-.3637,3.2558,3.2558,0,0,0-2.2194.8166,4.02782,4.02782,0,0,0-.9346,3.098v6.4882Z" transform="translate(0.3534)"/><path class="cls-3" d="M234.4409,86.52652a7.48917,7.48917,0,0,1-2.154,1.3406,6.212,6.212,0,0,1-2.2205.3927,4.31908,4.31908,0,0,1-3.0079-.9563,3.15687,3.15687,0,0,1-1.0517-2.4442,3.25237,3.25237,0,0,1,.3968-1.5936,3.28925,3.28925,0,0,1,1.0403-1.1584,4.87937,4.87937,0,0,1,1.4485-.66,14.43707,14.43707,0,0,1,1.7895-.3015,18.482,18.482,0,0,0,3.5902-.6932c.00721-.2756.0113-.4517.0113-.5264a2.22057,2.22057,0,0,0-.5698-1.7334,3.37159,3.37159,0,0,0-2.2929-.6828,3.5638,3.5638,0,0,0-2.0972.4974,3.03944,3.03944,0,0,0-1.001,1.7624l-1.9685-.2683a4.87212,4.87212,0,0,1,.8827-2.0413,3.872,3.872,0,0,1,1.778-1.1977,7.94006,7.94006,0,0,1,2.696-.4186,7.1117,7.1117,0,0,1,2.4723.3575,3.26561,3.26561,0,0,1,1.3987.9003,3.18953,3.18953,0,0,1,.6269,1.3699,11.45621,11.45621,0,0,1,.1005,1.8577v2.6846a28.78564,28.78564,0,0,0,.1274,3.5519,4.469,4.469,0,0,0,.51081,1.4257H234.844A4.28006,4.28006,0,0,1,234.4409,86.52652Zm-.1688-4.4969a14.79372,14.79372,0,0,1-3.2877.7606,7.501,7.501,0,0,0-1.7552.402,1.75162,1.75162,0,0,0-.7958.6548,1.78012,1.78012,0,0,0,.3316,2.2981,2.61479,2.61479,0,0,0,1.7832.5367,4.14344,4.14344,0,0,0,2.0692-.5088,3.12639,3.12639,0,0,0,1.3303-1.3915,4.86678,4.86678,0,0,0,.3244-2.0142Z" transform="translate(0.3534)"/><path class="cls-3" d="M246.0964,87.99152V71.59272h11.85639v1.9355H248.266v5.0221h9.07131v1.9231H248.266V86.056h10.06709v1.9355Z" transform="translate(0.3534)"/><path class="cls-3" d="M265.46889,86.19062l.2912,1.7781a7.4833,7.4833,0,0,1-1.5211.1782,3.4257,3.4257,0,0,1-1.6993-.3461,1.92637,1.92637,0,0,1-.8506-.9118,7.18022,7.18022,0,0,1-.2466-2.3768v-6.8343h-1.4764v-1.5657h1.4764v-2.9415l2.00182-1.2081v4.1496h2.02458v1.5657h-2.02458v6.9462a3.481,3.481,0,0,0,.10678,1.1076.8319.8319,0,0,0,.347.3906,1.33066,1.33066,0,0,0,.687.1461A6.56453,6.56453,0,0,0,265.46889,86.19062Z" transform="translate(0.3534)"/><path class="cls-3" d="M275.56909,84.16612l2.0816.2569a5.07736,5.07736,0,0,1-1.8236,2.8297,6.17479,6.17479,0,0,1-7.5326-.5979,6.26668,6.26668,0,0,1-1.5284-4.5029,6.56231,6.56231,0,0,1,1.5438-4.6523,5.22472,5.22472,0,0,1,4.0047-1.6557,5.0842,5.0842,0,0,1,3.8928,1.6205,6.44673,6.44673,0,0,1,1.5096,4.5652c0,.1181-.0042.2984-.0114.5367h-8.8579a4.54568,4.54568,0,0,0,1.10662,2.9965,3.29467,3.29467,0,0,0,2.48358,1.0413,3.08742,3.08742,0,0,0,1.891-.5813A3.86551,3.86551,0,0,0,275.56909,84.16612Zm-6.6106-3.2555h6.6334a4.00751,4.00751,0,0,0-.76158-2.2485,3.08275,3.08275,0,0,0-2.49292-1.1625,3.19512,3.19512,0,0,0-2.3323.9284A3.67334,3.67334,0,0,0,268.95849,80.91062Z" transform="translate(0.3534)"/><path class="cls-3" d="M280.18919,87.99152V71.59272h2.0142v9.351l4.7642-4.8315h2.6069l-4.5414,4.4067,5.0004,7.4726h-2.4847l-3.9248-6.0738-1.4206,1.3636v4.7102Z" transform="translate(0.3534)"/><path class="cls-3" d="M297.51589,82.72282l2.04742-.1793a4.47247,4.47247,0,0,0,.67758,2.0195,3.69032,3.69032,0,0,0,1.6495,1.2754,6.261,6.261,0,0,0,2.5157.4859,6.05765,6.05765,0,0,0,2.1946-.3688,3.04385,3.04385,0,0,0,1.4133-1.0123,2.35453,2.35453,0,0,0,.4641-1.404,2.13325,2.13325,0,0,0-.4476-1.348,3.318,3.318,0,0,0-1.4754-.9677,29.44523,29.44523,0,0,0-2.9199-.7999,14.91438,14.91438,0,0,1-3.1663-1.0236,4.41785,4.41785,0,0,1-1.7491-1.5263,3.73334,3.73334,0,0,1-.5781-2.0411,4.18325,4.18325,0,0,1,.70462-2.322,4.37143,4.37143,0,0,1,2.05768-1.6382,7.82362,7.82362,0,0,1,3.009-.5595,8.20912,8.20912,0,0,1,3.2161.5875,4.6292,4.6292,0,0,1,2.1427,1.7283,4.964,4.964,0,0,1,.8061,2.584l-2.0805.1565a3.35991,3.35991,0,0,0-1.1356-2.3489,4.41762,4.41762,0,0,0-2.8577-.7947,4.57831,4.57831,0,0,0-2.8679.7222,2.16293,2.16293,0,0,0-.9015,1.7396,1.864,1.864,0,0,0,.6362,1.4537,8.64939,8.64939,0,0,0,3.2741,1.1688,21.89954,21.89954,0,0,1,3.6285,1.0455,4.97723,4.97723,0,0,1,2.11382,1.6722,4.06658,4.06658,0,0,1,.68178,2.3324,4.46279,4.46279,0,0,1-.7482,2.4671,4.93231,4.93231,0,0,1-2.153,1.7997,7.50234,7.50234,0,0,1-3.1602.6445,9.441,9.441,0,0,1-3.7301-.6497,5.21993,5.21993,0,0,1-2.36028-1.951A5.53923,5.53923,0,0,1,297.51589,82.72282Z" transform="translate(0.3534)"/><path class="cls-3" d="M321.40909,84.16612l2.0805.2569a5.08322,5.08322,0,0,1-1.8236,2.8297,5.48655,5.48655,0,0,1-3.4006,1.0071,5.43162,5.43162,0,0,1-4.132-1.605,6.26668,6.26668,0,0,1-1.5273-4.5029,6.55731,6.55731,0,0,1,1.5438-4.6523,5.21777,5.21777,0,0,1,4.0036-1.6557,5.08349,5.08349,0,0,1,3.8917,1.6205,6.447,6.447,0,0,1,1.5107,4.5652c0,.1181-.0042.2984-.0103.5367h-8.8589a4.5406,4.5406,0,0,0,1.1065,2.9965,3.29416,3.29416,0,0,0,2.4826,1.0413,3.08856,3.08856,0,0,0,1.892-.5813A3.8819,3.8819,0,0,0,321.40909,84.16612Zm-6.6126-3.2555h6.6354a4.03088,4.03088,0,0,0-.7627-2.2485,3.08267,3.08267,0,0,0-2.49288-1.1625,3.196,3.196,0,0,0-2.33332.9284A3.6774,3.6774,0,0,0,314.79649,80.91062Z" transform="translate(0.3534)"/><path class="cls-3" d="M325.995,87.99152V76.11222h1.8111V77.912a4.95633,4.95633,0,0,1,1.2806-1.6661,2.244,2.244,0,0,1,1.2911-.402,3.92059,3.92059,0,0,1,2.0702.6486l-.6942,1.8671a2.87728,2.87728,0,0,0-1.4754-.4352,1.92408,1.92408,0,0,0-1.1854.3969,2.15287,2.15287,0,0,0-.7501,1.1014,7.83841,7.83841,0,0,0-.3358,2.3489v6.2199Z" transform="translate(0.3534)"/><path class="cls-3" d="M336.94589,87.99152l-4.51858-11.8793h2.12508l2.5488,7.1131q.41355,1.1532.7605,2.3955.2706-.94185.7503-2.2608l2.6399-7.2478h2.0703l-4.49688,11.8793Z" transform="translate(0.3534)"/><path class="cls-3" d="M345.11059,73.90842v-2.3157h2.012v2.3157Zm0,14.0831V76.11222h2.012v11.8793Z" transform="translate(0.3534)"/><path class="cls-3" d="M357.93989,83.63972l1.979.257a5.13361,5.13361,0,0,1-1.6599,3.2058,4.84227,4.84227,0,0,1-3.2824,1.1573,5.10106,5.10106,0,0,1-3.9207-1.5946,6.46411,6.46411,0,0,1-1.4817-4.5692,8.27463,8.27463,0,0,1,.6362-3.3665,4.45417,4.45417,0,0,1,1.9417-2.1644,5.75571,5.75571,0,0,1,2.8349-.7212,4.92838,4.92838,0,0,1,3.16632.9781,4.49143,4.49143,0,0,1,1.57708,2.78l-1.9563.3015a3.25561,3.25561,0,0,0-.9905-1.8008,2.568,2.568,0,0,0-1.7179-.6031,3.11828,3.11828,0,0,0-2.4701,1.0901,5.16334,5.16334,0,0,0-.95328,3.4502,5.35265,5.35265,0,0,0,.918,3.4794,2.98441,2.98441,0,0,0,2.39348,1.0848,2.823,2.823,0,0,0,1.9811-.7274A3.60574,3.60574,0,0,0,357.93989,83.63972Z" transform="translate(0.3534)"/><path class="cls-3" d="M369.77459,84.16612l2.0805.2569a5.06939,5.06939,0,0,1-1.8215,2.8297,6.178,6.178,0,0,1-7.5348-.5979,6.27628,6.27628,0,0,1-1.5272-4.5029,6.56643,6.56643,0,0,1,1.5439-4.6523,5.22512,5.22512,0,0,1,4.0057-1.6557,5.08342,5.08342,0,0,1,3.8916,1.6205,6.44712,6.44712,0,0,1,1.5107,4.5652c0,.1181-.00418.2984-.0125.5367h-8.85668a4.54947,4.54947,0,0,0,1.10448,2.9965,3.29814,3.29814,0,0,0,2.4846,1.0413,3.08217,3.08217,0,0,0,1.88992-.5813A3.853,3.853,0,0,0,369.77459,84.16612Zm-6.6105-3.2555h6.63322a4.01348,4.01348,0,0,0-.76052-2.2485,3.0854,3.0854,0,0,0-2.4929-1.1625,3.19636,3.19636,0,0,0-2.3334.9284A3.67779,3.67779,0,0,0,363.16409,80.91062Z" transform="translate(0.3534)"/><path class="cls-4" d="M80.3644,35.377s-2.9178-7.5151,5.0397-10.8752c8.5739-2.379,16.7159,2.0831,21.6105,5.7567-11.33209-9.6038-27.9703-19.9781-46.0125-18.6654-6.8529,1.2377-10.8762,3.9788-12.1579,9.1952a16.10143,16.10143,0,0,0,.26531,5.7469,10.22337,10.22337,0,0,0,2.16549,4.7745,36.97392,36.97392,0,0,0,11.9714,9.8816c6.9929,3.7399,22.7378,7.6487,45.4043,9.8852.1492.015.3564.0378.59681.0663-1.47331-.3077-3.06911-.6387-4.83351-.9999C82.3983,45.63372,80.3644,35.377,80.3644,35.377Z" transform="translate(0.3534)"/><path class="cls-5" d="M121.5138,45.15552S93.3087,8.90492,60.5069,11.29212c-6.8529,1.2377-10.8762,3.9788-12.1579,9.1952a16.1,16.1,0,0,0,.2652,5.7469,10.2245,10.2245,0,0,0,2.1655,4.7745,36.97461,36.97461,0,0,0,11.9715,9.8816c6.9928,3.7399,22.7378,7.6487,45.4042,9.8852,1.3884.1372,7.0027.905,11.0292,1.2956,13.1566,1.2756,40.8576,3.2317,40.8576,3.2317S87.0432,61.575,48.6049,43.55942c-23.058-11.4312-22.797-24.8651-21.00239-31.243a15.74461,15.74461,0,0,1,1.95829-4.185,19.73805,19.73805,0,0,1,2.094-2.2241C36.7163,1.78412,49.9301-4.416,75.9784,4.749c0,0,16.6403,5.1283,29.2935,17.6717A78.271,78.271,0,0,1,121.5138,45.15552Z" transform="translate(0.3534)"/><path class="cls-6" d="M79.8691,35.076s-2.9178-7.5151,5.0397-10.8752c8.5739-2.3789,16.7159,2.0831,21.6105,5.7567-11.3321-9.6038-27.9703-19.9781-46.0124-18.6654-6.8529,1.2377-10.8762,3.9788-12.1579,9.1952a16.1,16.1,0,0,0,.2652,5.7469,10.2245,10.2245,0,0,0,2.1655,4.7745,36.97461,36.97461,0,0,0,11.9715,9.8816c6.9928,3.7399,22.7378,7.6487,45.4042,9.8852.1493.015.3565.0378.5968.0663-1.4733-.3077-3.0689-.6388-4.8335-.9999C81.903,45.33262,79.8691,35.076,79.8691,35.076Z" transform="translate(0.3534)"/><path class="cls-7" d="M79.3251,72.40472s2.9178,7.5151-5.0397,10.8753c-8.5741,2.3789-16.71589-2.0832-21.6106-5.7568,11.3322,9.6038,27.9703,19.9782,46.0124,18.6654,6.853-1.2377,10.87631-3.9788,12.158-9.1951a16.1,16.1,0,0,0-.2652-5.7469,10.2251,10.2251,0,0,0-2.16549-4.7745A36.97579,36.97579,0,0,0,96.443,66.59052c-6.9929-3.7399-22.7379-7.6488-45.4043-9.8852-.14919-.0151-.3564-.0379-.5968-.0664,1.4734.3077,3.069.6388,4.83361.9999C77.2912,62.14812,79.3251,72.40472,79.3251,72.40472Z" transform="translate(0.3534)"/><path class="cls-8" d="M38.1762,62.62632s28.2045,36.2505,61.00631,33.8633c6.853-1.2377,10.87629-3.9787,12.158-9.1951a16.1017,16.1017,0,0,0-.26531-5.7469,10.22345,10.22345,0,0,0-2.1655-4.7745,36.97392,36.97392,0,0,0-11.9714-9.8816c-6.9929-3.7399-22.7379-7.6488-45.4043-9.8852-1.3884-.1373-7.0022-.9051-11.0286-1.2957-13.1568-1.2755-40.8588-3.2317-40.8588-3.2317s72.9996-6.2722,111.438,11.7434c23.0575,11.4312,22.7964,24.8651,21.0018,31.243a15.71315,15.71315,0,0,1-1.9583,4.185,19.80533,19.80533,0,0,1-2.093,2.2241c-5.0625,4.1232-18.2758,10.3234-44.324,1.1584,0,0-16.6403-5.1284-29.2935-17.6718A78.2751,78.2751,0,0,1,38.1762,62.62632Z" transform="translate(0.3534)"/><path class="cls-9" d="M79.8204,72.70572s2.9177,7.5151-5.0398,10.8753c-8.574,2.3788-16.7159-2.0832-21.6106-5.7568,11.3322,9.6038,27.9704,19.9782,46.01251,18.6654,6.853-1.2377,10.87629-3.9787,12.158-9.1951a16.1017,16.1017,0,0,0-.26531-5.7469,10.22345,10.22345,0,0,0-2.1655-4.7745,36.97392,36.97392,0,0,0-11.9714-9.8816c-6.9929-3.7399-22.7379-7.6488-45.4043-9.8852-.1492-.0151-.3564-.0379-.5968-.0663,1.4734.3076,3.069.6387,4.8336.9998C77.7864,62.44912,79.8204,72.70572,79.8204,72.70572Z" transform="translate(0.3534)"/></svg>