<svg width="41" height="40" viewBox="0 0 41 40" fill="none" xmlns="http://www.w3.org/2000/svg">
    <path d="M8.75 4C8.75 2.20508 10.2051 0.75 12 0.75H28C28.1212 0.75 28.2375 0.798159 28.3232 0.883885L39.1161 11.6768C39.2018 11.7625 39.25 11.8788 39.25 12V36C39.25 37.7949 37.7949 39.25 36 39.25H12C10.2051 39.25 8.75 37.7949 8.75 36V4Z" fill="white" stroke="#D0D5DD" stroke-width="1.5"/>
    <path d="M28 0.5V8C28 10.2091 29.7909 12 32 12H39.5" stroke="#D0D5DD" stroke-width="1.5"/>
    <rect y="18" width="30" height="16" rx="2" fill="#444CE7"/>
    <path d="M10.0763 25.2734H8.52095C8.49254 25.0722 8.43454 24.8935 8.34695 24.7372C8.25935 24.5786 8.1469 24.4437 8.00959 24.3324C7.87228 24.2211 7.71366 24.1359 7.53374 24.0767C7.35618 24.0175 7.16323 23.9879 6.9549 23.9879C6.57848 23.9879 6.25059 24.0814 5.97124 24.2685C5.69188 24.4531 5.47526 24.723 5.32138 25.0781C5.1675 25.4309 5.09055 25.8594 5.09055 26.3636C5.09055 26.8821 5.1675 27.3177 5.32138 27.6705C5.47763 28.0232 5.69543 28.2895 5.97479 28.4695C6.25414 28.6494 6.5773 28.7393 6.94425 28.7393C7.15021 28.7393 7.34079 28.7121 7.51598 28.6577C7.69354 28.6032 7.85097 28.5239 7.98828 28.4197C8.12559 28.3132 8.23923 28.1842 8.32919 28.0327C8.42152 27.8812 8.48544 27.7083 8.52095 27.5142L10.0763 27.5213C10.0361 27.8551 9.93549 28.1771 9.7745 28.4872C9.61589 28.795 9.40163 29.0708 9.13175 29.3146C8.86423 29.5561 8.54463 29.7479 8.17294 29.8899C7.80362 30.0296 7.38577 30.0994 6.91939 30.0994C6.27071 30.0994 5.6907 29.9527 5.17933 29.6591C4.67034 29.3655 4.26787 28.9406 3.97195 28.3842C3.67839 27.8279 3.53161 27.1544 3.53161 26.3636C3.53161 25.5705 3.68075 24.8958 3.97905 24.3395C4.27734 23.7831 4.68217 23.3594 5.19354 23.0682C5.7049 22.7746 6.28018 22.6278 6.91939 22.6278C7.34079 22.6278 7.73142 22.687 8.09126 22.8054C8.45348 22.9238 8.77427 23.0966 9.05362 23.3239C9.33298 23.5488 9.56025 23.8246 9.73544 24.1513C9.913 24.478 10.0266 24.852 10.0763 25.2734ZM11.179 22.7273H13.0753L15.0781 27.6136H15.1634L17.1662 22.7273H19.0625V30H17.571V25.2663H17.5107L15.6286 29.9645H14.6129L12.7308 25.2486H12.6705V30H11.179V22.7273ZM22.9075 30H20.3294V22.7273H22.9288C23.6603 22.7273 24.2901 22.8729 24.818 23.1641C25.3459 23.4529 25.752 23.8684 26.036 24.4105C26.3225 24.9527 26.4657 25.6013 26.4657 26.3565C26.4657 27.1141 26.3225 27.7652 26.036 28.3097C25.752 28.8542 25.3436 29.272 24.8109 29.5632C24.2806 29.8544 23.6461 30 22.9075 30ZM21.867 28.6825H22.8436C23.2981 28.6825 23.6805 28.602 23.9906 28.4411C24.3031 28.2777 24.5375 28.0256 24.6937 27.6847C24.8523 27.3414 24.9316 26.8987 24.9316 26.3565C24.9316 25.8191 24.8523 25.38 24.6937 25.0391C24.5375 24.6982 24.3043 24.4472 23.9941 24.2862C23.684 24.1252 23.3017 24.0447 22.8471 24.0447H21.867V28.6825Z" fill="white"/>
</svg>
