<svg width="20" height="20" viewBox="0 0 20 20" fill="none" xmlns="http://www.w3.org/2000/svg">
    <path d="M3 0H13.991L19 5.021V18C19 18.5304 18.7893 19.0391 18.4142 19.4142C18.0391 19.7893 17.5304 20 17 20H3C2.46957 20 1.96086 19.7893 1.58579 19.4142C1.21071 19.0391 1 18.5304 1 18V2C1 1.46957 1.21071 0.960859 1.58579 0.585786C1.96086 0.210714 2.46957 0 3 0Z" fill="#4D4D4D"/>
    <path d="M15.0969 5C14.8045 4.99762 14.5249 4.8793 14.3196 4.671C14.1143 4.4627 14.0001 4.18146 14.0019 3.889L13.9919 0L19 5.021L15.0969 5Z" fill="#B0B1B3"/>
    <path d="M14.8299 11.0902L12.7869 9.16118C12.6725 9.07035 12.5294 9.02344 12.3834 9.02895C12.2374 9.03445 12.0982 9.09199 11.9909 9.19118C11.9395 9.2385 11.8979 9.2955 11.8685 9.35892C11.8391 9.42233 11.8225 9.49092 11.8196 9.56076C11.8167 9.6306 11.8276 9.70032 11.8517 9.76594C11.8758 9.83156 11.9126 9.89179 11.9599 9.94319L13.5849 11.4832L11.9539 13.0252C11.8729 13.0889 11.8119 13.1748 11.7784 13.2723C11.7448 13.3699 11.7402 13.475 11.7649 13.5752C11.8169 13.7782 11.9849 13.9352 12.1979 13.9852C12.4129 14.0332 12.6379 13.9652 12.781 13.8062L14.8229 11.8772C14.8777 11.8274 14.9217 11.767 14.9522 11.6996C14.9826 11.6321 14.9989 11.5592 14.9999 11.4852C15.0002 11.4112 14.9853 11.3379 14.956 11.27C14.9268 11.202 14.8839 11.1408 14.8299 11.0902ZM8.04494 9.16118C7.93218 9.05752 7.7846 9 7.63144 9C7.47828 9 7.3307 9.05752 7.21795 9.16118L5.16994 11.0912C5.1164 11.1411 5.0737 11.2014 5.04451 11.2685C5.01531 11.3356 5.00024 11.408 5.00024 11.4812C5.00024 11.5544 5.01531 11.6268 5.04451 11.6939C5.0737 11.761 5.1164 11.8213 5.16994 11.8712L7.21193 13.8012C7.44494 13.9892 7.79193 13.9762 8.00795 13.7712C8.05938 13.7239 8.10099 13.6669 8.13038 13.6035C8.15978 13.54 8.17639 13.4715 8.17927 13.4016C8.18215 13.3318 8.17124 13.2621 8.14716 13.1965C8.12308 13.1308 8.08631 13.0706 8.03894 13.0192L6.41894 11.4842L8.04494 9.94319C8.0988 9.89329 8.14176 9.83281 8.17115 9.76552C8.20054 9.69824 8.2157 9.62561 8.2157 9.55219C8.2157 9.47877 8.20054 9.40615 8.17115 9.33886C8.14176 9.27158 8.0988 9.21109 8.04494 9.1612V9.16118ZM10.8199 9.04018C10.6734 8.98852 10.5127 8.99387 10.3699 9.05518C10.3009 9.08441 10.2383 9.12702 10.1857 9.18057C10.1332 9.23412 10.0918 9.29754 10.0639 9.36717L8.55494 13.2142C8.51197 13.3063 8.49638 13.4088 8.51003 13.5095C8.52368 13.6102 8.56599 13.7048 8.63193 13.7822C8.7009 13.8622 8.78963 13.9228 8.88928 13.9579C8.98894 13.993 9.09604 14.0013 9.19994 13.9822C9.3027 13.9656 9.39907 13.9215 9.47882 13.8546C9.55857 13.7877 9.61874 13.7005 9.65295 13.6022L11.161 9.75518C11.1882 9.68741 11.201 9.6147 11.1986 9.5417C11.1962 9.4687 11.1786 9.397 11.1469 9.33118C11.0804 9.19517 10.9629 9.09094 10.8199 9.04118V9.04018Z" fill="white"/>
</svg>
