<svg width="44" height="40" viewBox="0 0 44 40" fill="none" xmlns="http://www.w3.org/2000/svg">
    <path d="M11.75 4C11.75 2.20508 13.2051 0.75 15 0.75H31C31.1212 0.75 31.2375 0.798159 31.3232 0.883885L42.1161 11.6768C42.2018 11.7625 42.25 11.8788 42.25 12V36C42.25 37.7949 40.7949 39.25 39 39.25H15C13.2051 39.25 11.75 37.7949 11.75 36V4Z" fill="white" stroke="#D0D5DD" stroke-width="1.5"/>
    <path d="M31 0.5V8C31 10.2091 32.7909 12 35 12H42.5" stroke="#D0D5DD" stroke-width="1.5"/>
    <rect x="0.5" y="18" width="35" height="16" rx="2" fill="#444CE7"/>
    <path d="M10.7765 25.2734H9.22115C9.19274 25.0722 9.13474 24.8935 9.04714 24.7372C8.95955 24.5786 8.84709 24.4437 8.70978 24.3324C8.57247 24.2211 8.41386 24.1359 8.23393 24.0767C8.05637 24.0175 7.86343 23.9879 7.6551 23.9879C7.27868 23.9879 6.95079 24.0814 6.67143 24.2685C6.39208 24.4531 6.17546 24.723 6.02157 25.0781C5.86769 25.4309 5.79075 25.8594 5.79075 26.3636C5.79075 26.8821 5.86769 27.3177 6.02157 27.6705C6.17782 28.0232 6.39563 28.2895 6.67498 28.4695C6.95434 28.6494 7.27749 28.7393 7.64444 28.7393C7.85041 28.7393 8.04099 28.7121 8.21618 28.6577C8.39373 28.6032 8.55117 28.5239 8.68848 28.4197C8.82579 28.3132 8.93942 28.1842 9.02939 28.0327C9.12172 27.8812 9.18564 27.7083 9.22115 27.5142L10.7765 27.5213C10.7363 27.8551 10.6357 28.1771 10.4747 28.4872C10.3161 28.795 10.1018 29.0708 9.83194 29.3146C9.56442 29.5561 9.24482 29.7479 8.87314 29.8899C8.50382 30.0296 8.08597 30.0994 7.61958 30.0994C6.97091 30.0994 6.39089 29.9527 5.87953 29.6591C5.37053 29.3655 4.96807 28.9406 4.67214 28.3842C4.37858 27.8279 4.2318 27.1544 4.2318 26.3636C4.2318 25.5705 4.38095 24.8958 4.67924 24.3395C4.97754 23.7831 5.38237 23.3594 5.89373 23.0682C6.4051 22.7746 6.98038 22.6278 7.61958 22.6278C8.04099 22.6278 8.43161 22.687 8.79146 22.8054C9.15368 22.9238 9.47446 23.0966 9.75382 23.3239C10.0332 23.5488 10.2604 23.8246 10.4356 24.1513C10.6132 24.478 10.7268 24.852 10.7765 25.2734ZM18.5624 26.3636C18.5624 27.1567 18.4121 27.8314 18.1114 28.3878C17.8131 28.9441 17.4059 29.3691 16.8898 29.6626C16.3761 29.9538 15.7984 30.0994 15.1569 30.0994C14.5106 30.0994 13.9305 29.9527 13.4168 29.6591C12.9031 29.3655 12.4971 28.9406 12.1988 28.3842C11.9005 27.8279 11.7513 27.1544 11.7513 26.3636C11.7513 25.5705 11.9005 24.8958 12.1988 24.3395C12.4971 23.7831 12.9031 23.3594 13.4168 23.0682C13.9305 22.7746 14.5106 22.6278 15.1569 22.6278C15.7984 22.6278 16.3761 22.7746 16.8898 23.0682C17.4059 23.3594 17.8131 23.7831 18.1114 24.3395C18.4121 24.8958 18.5624 25.5705 18.5624 26.3636ZM17.0035 26.3636C17.0035 25.8499 16.9265 25.4167 16.7726 25.0639C16.6211 24.7112 16.4069 24.4437 16.1299 24.2614C15.8529 24.0791 15.5286 23.9879 15.1569 23.9879C14.7852 23.9879 14.4608 24.0791 14.1839 24.2614C13.9069 24.4437 13.6914 24.7112 13.5376 25.0639C13.386 25.4167 13.3103 25.8499 13.3103 26.3636C13.3103 26.8774 13.386 27.3106 13.5376 27.6634C13.6914 28.0161 13.9069 28.2836 14.1839 28.4659C14.4608 28.6482 14.7852 28.7393 15.1569 28.7393C15.5286 28.7393 15.8529 28.6482 16.1299 28.4659C16.4069 28.2836 16.6211 28.0161 16.7726 27.6634C16.9265 27.3106 17.0035 26.8774 17.0035 26.3636ZM25.7845 22.7273V30H24.4564L21.2923 25.4226H21.2391V30H19.7014V22.7273H21.0509L24.1901 27.3011H24.254V22.7273H25.7845ZM27.055 30V22.7273H31.8703V23.995H28.5926V25.728H31.5507V26.9957H28.5926V30H27.055Z" fill="white"/>
</svg>
