<svg width="40" height="40" viewBox="0 0 40 40" fill="none" xmlns="http://www.w3.org/2000/svg">
    <path d="M7.75 4C7.75 2.20508 9.20508 0.75 11 0.75H27C27.1212 0.75 27.2375 0.798159 27.3232 0.883885L38.1161 11.6768C38.2018 11.7625 38.25 11.8788 38.25 12V36C38.25 37.7949 36.7949 39.25 35 39.25H11C9.20507 39.25 7.75 37.7949 7.75 36V4Z" fill="white" stroke="#D0D5DD" stroke-width="1.5"/>
    <path d="M27 0.5V8C27 10.2091 28.7909 12 31 12H38.5" stroke="#D0D5DD" stroke-width="1.5"/>
    <rect x="0.5" y="18" width="27" height="16" rx="2" fill="#444CE7"/>
    <path d="M10.8146 25.2734H9.25923C9.23082 25.0722 9.17282 24.8935 9.08523 24.7372C8.99763 24.5786 8.88518 24.4437 8.74787 24.3324C8.61056 24.2211 8.45194 24.1359 8.27202 24.0767C8.09446 24.0175 7.90152 23.9879 7.69318 23.9879C7.31676 23.9879 6.98887 24.0814 6.70952 24.2685C6.43016 24.4531 6.21354 24.723 6.05966 25.0781C5.90578 25.4309 5.82884 25.8594 5.82884 26.3636C5.82884 26.8821 5.90578 27.3177 6.05966 27.6705C6.21591 28.0232 6.43371 28.2895 6.71307 28.4695C6.99242 28.6494 7.31558 28.7393 7.68253 28.7393C7.88849 28.7393 8.07907 28.7121 8.25426 28.6577C8.43182 28.6032 8.58925 28.5239 8.72656 28.4197C8.86387 28.3132 8.97751 28.1842 9.06747 28.0327C9.1598 27.8812 9.22372 27.7083 9.25923 27.5142L10.8146 27.5213C10.7744 27.8551 10.6738 28.1771 10.5128 28.4872C10.3542 28.795 10.1399 29.0708 9.87003 29.3146C9.60251 29.5561 9.28291 29.7479 8.91122 29.8899C8.5419 30.0296 8.12405 30.0994 7.65767 30.0994C7.009 30.0994 6.42898 29.9527 5.91761 29.6591C5.40862 29.3655 5.00616 28.9406 4.71023 28.3842C4.41667 27.8279 4.26989 27.1544 4.26989 26.3636C4.26989 25.5705 4.41903 24.8958 4.71733 24.3395C5.01563 23.7831 5.42045 23.3594 5.93182 23.0682C6.44318 22.7746 7.01847 22.6278 7.65767 22.6278C8.07907 22.6278 8.4697 22.687 8.82955 22.8054C9.19176 22.9238 9.51255 23.0966 9.7919 23.3239C10.0713 23.5488 10.2985 23.8246 10.4737 24.1513C10.6513 24.478 10.7649 24.852 10.8146 25.2734ZM11.9173 30V22.7273H14.7866C15.3382 22.7273 15.8081 22.8326 16.1964 23.0433C16.5846 23.2517 16.8806 23.5417 17.0842 23.9134C17.2901 24.2827 17.3931 24.7088 17.3931 25.1918C17.3931 25.6747 17.2889 26.1009 17.0806 26.4702C16.8723 26.8395 16.5704 27.1271 16.1751 27.3331C15.7821 27.5391 15.3062 27.642 14.7475 27.642H12.9187V26.4098H14.4989C14.7949 26.4098 15.0387 26.3589 15.2305 26.2571C15.4246 26.1529 15.569 26.0097 15.6637 25.8274C15.7608 25.6428 15.8093 25.4309 15.8093 25.1918C15.8093 24.9503 15.7608 24.7396 15.6637 24.5597C15.569 24.3774 15.4246 24.2365 15.2305 24.1371C15.0363 24.0353 14.7901 23.9844 14.4918 23.9844H13.4549V30H11.9173ZM18.3919 30V22.7273H21.2612C21.8128 22.7273 22.2827 22.8326 22.671 23.0433C23.0592 23.2517 23.3552 23.5417 23.5588 23.9134C23.7647 24.2827 23.8677 24.7088 23.8677 25.1918C23.8677 25.6747 23.7636 26.1009 23.5552 26.4702C23.3469 26.8395 23.045 27.1271 22.6497 27.3331C22.2567 27.5391 21.7808 27.642 21.2221 27.642H19.3933V26.4098H20.9735C21.2695 26.4098 21.5133 26.3589 21.7051 26.2571C21.8992 26.1529 22.0436 26.0097 22.1383 25.8274C22.2354 25.6428 22.2839 25.4309 22.2839 25.1918C22.2839 24.9503 22.2354 24.7396 22.1383 24.5597C22.0436 24.3774 21.8992 24.2365 21.7051 24.1371C21.5109 24.0353 21.2647 23.9844 20.9664 23.9844H19.9295V30H18.3919Z" fill="white"/>
</svg>
