<svg width="20" height="20" viewBox="0 0 20 20" fill="none" xmlns="http://www.w3.org/2000/svg">
    <path d="M7.49996 1.66669V3.33335M12.5 1.66669V3.33335M7.49996 16.6667V18.3334M12.5 16.6667V18.3334M16.6666 7.50002H18.3333M16.6666 11.6667H18.3333M1.66663 7.50002H3.33329M1.66663 11.6667H3.33329M7.33329 16.6667H12.6666C14.0668 16.6667 14.7668 16.6667 15.3016 16.3942C15.772 16.1545 16.1545 15.7721 16.3941 15.3017C16.6666 14.7669 16.6666 14.0668 16.6666 12.6667V7.33335C16.6666 5.93322 16.6666 5.23316 16.3941 4.69838C16.1545 4.22797 15.772 3.84552 15.3016 3.60584C14.7668 3.33335 14.0668 3.33335 12.6666 3.33335H7.33329C5.93316 3.33335 5.2331 3.33335 4.69832 3.60584C4.22791 3.84552 3.84546 4.22797 3.60578 4.69838C3.33329 5.23316 3.33329 5.93322 3.33329 7.33335V12.6667C3.33329 14.0668 3.33329 14.7669 3.60578 15.3017C3.84546 15.7721 4.22791 16.1545 4.69832 16.3942C5.2331 16.6667 5.93316 16.6667 7.33329 16.6667ZM8.83329 12.5H11.1666C11.6333 12.5 11.8667 12.5 12.045 12.4092C12.2018 12.3293 12.3292 12.2018 12.4091 12.045C12.5 11.8668 12.5 11.6334 12.5 11.1667V8.83335C12.5 8.36664 12.5 8.13329 12.4091 7.95503C12.3292 7.79823 12.2018 7.67074 12.045 7.59085C11.8667 7.50002 11.6333 7.50002 11.1666 7.50002H8.83329C8.36658 7.50002 8.13323 7.50002 7.95497 7.59085C7.79817 7.67074 7.67068 7.79823 7.59079 7.95503C7.49996 8.13329 7.49996 8.36664 7.49996 8.83335V11.1667C7.49996 11.6334 7.49996 11.8668 7.59079 12.045C7.67068 12.2018 7.79817 12.3293 7.95497 12.4092C8.13323 12.5 8.36658 12.5 8.83329 12.5Z" stroke="#344054" stroke-width="1.66667" stroke-linecap="round" stroke-linejoin="round"/>
</svg>
