<svg width="43" height="40" viewBox="0 0 43 40" fill="none" xmlns="http://www.w3.org/2000/svg">
    <path d="M38 39.25H14C12.2051 39.25 10.75 37.7949 10.75 36V4C10.75 2.20508 12.2051 0.75 14 0.75H30C30.1212 0.75 30.2375 0.798159 30.3232 0.883883L41.1161 11.6768C41.2018 11.7625 41.25 11.8788 41.25 12V36C41.25 37.7949 39.7949 39.25 38 39.25Z" fill="white" stroke="#D0D5DD" stroke-width="1.5"/>
    <path d="M30 0.5V8C30 10.2091 31.7909 12 34 12H41.5" stroke="#D0D5DD" stroke-width="1.5"/>
    <rect y="18" width="34" height="16" rx="2" fill="#0E9384"/>
    <path d="M6.63113 30H4.053V22.7273H6.65243C7.38397 22.7273 8.0137 22.8729 8.54164 23.1641C9.06957 23.4529 9.47559 23.8684 9.75968 24.4105C10.0461 24.9527 10.1894 25.6013 10.1894 26.3565C10.1894 27.1141 10.0461 27.7652 9.75968 28.3097C9.47559 28.8542 9.06721 29.272 8.53453 29.5632C8.00423 29.8544 7.36976 30 6.63113 30ZM5.59064 28.6825H6.56721C7.02175 28.6825 7.40409 28.602 7.71422 28.4411C8.02672 28.2777 8.2611 28.0256 8.41735 27.6847C8.57596 27.3414 8.65527 26.8987 8.65527 26.3565C8.65527 25.8191 8.57596 25.38 8.41735 25.0391C8.2611 24.6982 8.02791 24.4472 7.71777 24.2862C7.40764 24.1252 7.0253 24.0447 6.57076 24.0447H5.59064V28.6825ZM11.3284 30V22.7273H14.2403C14.7754 22.7273 15.2216 22.8066 15.5791 22.9652C15.9366 23.1238 16.2053 23.344 16.3852 23.6257C16.5651 23.9051 16.6551 24.227 16.6551 24.5916C16.6551 24.8757 16.5983 25.1255 16.4846 25.3409C16.371 25.554 16.2148 25.7292 16.0159 25.8665C15.8194 26.0014 15.5945 26.0973 15.3412 26.1541V26.2251C15.6182 26.237 15.8774 26.3151 16.1189 26.4595C16.3627 26.6039 16.5604 26.8063 16.7119 27.0668C16.8634 27.3248 16.9392 27.6326 16.9392 27.9901C16.9392 28.3759 16.8433 28.7204 16.6515 29.0234C16.4622 29.3241 16.1816 29.562 15.8099 29.7372C15.4382 29.9124 14.9801 30 14.4356 30H11.3284ZM12.866 28.7429H14.1196C14.5481 28.7429 14.8606 28.6612 15.0571 28.4979C15.2536 28.3321 15.3518 28.112 15.3518 27.8374C15.3518 27.6361 15.3033 27.4586 15.2062 27.3047C15.1092 27.1508 14.9707 27.0301 14.7907 26.9425C14.6132 26.8549 14.4013 26.8111 14.1551 26.8111H12.866V28.7429ZM12.866 25.7706H14.0059C14.2166 25.7706 14.4037 25.7339 14.567 25.6605C14.7327 25.5848 14.863 25.4782 14.9577 25.3409C15.0547 25.2036 15.1032 25.0391 15.1032 24.8473C15.1032 24.5845 15.0097 24.3726 14.8227 24.2116C14.6381 24.0507 14.3753 23.9702 14.0344 23.9702H12.866V25.7706ZM17.6627 23.995V22.7273H23.6357V23.995H21.4092V30H19.8893V23.995H17.6627Z" fill="white"/>
    <path d="M24.9843 30H23.3366L25.8472 22.7273H27.8287L30.3358 30H28.6881L26.8664 24.3892H26.8096L24.9843 30ZM24.8813 27.1413H28.7733V28.3416H24.8813V27.1413Z" fill="#0E9384"/>
</svg>
