<svg width="40" height="40" viewBox="0 0 40 40" fill="none" xmlns="http://www.w3.org/2000/svg">
    <path d="M7.75 4C7.75 2.20508 9.20508 0.75 11 0.75H27C27.1212 0.75 27.2375 0.798159 27.3232 0.883885L38.1161 11.6768C38.2018 11.7625 38.25 11.8788 38.25 12V36C38.25 37.7949 36.7949 39.25 35 39.25H11C9.20507 39.25 7.75 37.7949 7.75 36V4Z" fill="white" stroke="#D0D5DD" stroke-width="1.5"/>
    <path d="M27 0.5V8C27 10.2091 28.7909 12 31 12H38.5" stroke="#D0D5DD" stroke-width="1.5"/>
    <rect x="0.5" y="18" width="27" height="16" rx="2" fill="#B3B8DB"/>
    <path d="M7.20534 30H4.62722V22.7273H7.22665C7.95819 22.7273 8.58792 22.8729 9.11586 23.1641C9.64379 23.4529 10.0498 23.8684 10.3339 24.4105C10.6204 24.9527 10.7636 25.6013 10.7636 26.3565C10.7636 27.1141 10.6204 27.7652 10.3339 28.3097C10.0498 28.8542 9.64142 29.272 9.10875 29.5632C8.57845 29.8544 7.94398 30 7.20534 30ZM6.16486 28.6825H7.14142C7.59597 28.6825 7.97831 28.602 8.28844 28.4411C8.60094 28.2777 8.83532 28.0256 8.99157 27.6847C9.15018 27.3414 9.22949 26.8987 9.22949 26.3565C9.22949 25.8191 9.15018 25.38 8.99157 25.0391C8.83532 24.6982 8.60212 24.4472 8.29199 24.2862C7.98186 24.1252 7.59952 24.0447 7.14498 24.0447H6.16486V28.6825ZM11.9026 30V22.7273H16.8032V23.995H13.4403V25.728H16.551V26.9957H13.4403V28.7322H16.8174V30H11.9026ZM18.0257 30V22.7273H20.9376C21.4726 22.7273 21.9189 22.8066 22.2764 22.9652C22.6338 23.1238 22.9026 23.344 23.0825 23.6257C23.2624 23.9051 23.3524 24.227 23.3524 24.5916C23.3524 24.8757 23.2955 25.1255 23.1819 25.3409C23.0683 25.554 22.912 25.7292 22.7132 25.8665C22.5167 26.0014 22.2918 26.0973 22.0384 26.1541V26.2251C22.3154 26.237 22.5747 26.3151 22.8161 26.4595C23.06 26.6039 23.2577 26.8063 23.4092 27.0668C23.5607 27.3248 23.6365 27.6326 23.6365 27.9901C23.6365 28.3759 23.5406 28.7204 23.3488 29.0234C23.1594 29.3241 22.8789 29.562 22.5072 29.7372C22.1355 29.9124 21.6774 30 21.1329 30H18.0257ZM19.5633 28.7429H20.8169C21.2454 28.7429 21.5579 28.6612 21.7544 28.4979C21.9508 28.3321 22.0491 28.112 22.0491 27.8374C22.0491 27.6361 22.0006 27.4586 21.9035 27.3047C21.8064 27.1508 21.6679 27.0301 21.488 26.9425C21.3105 26.8549 21.0986 26.8111 20.8524 26.8111H19.5633V28.7429ZM19.5633 25.7706H20.7032C20.9139 25.7706 21.1009 25.7339 21.2643 25.6605C21.43 25.5848 21.5602 25.4782 21.6549 25.3409C21.752 25.2036 21.8005 25.0391 21.8005 24.8473C21.8005 24.5845 21.707 24.3726 21.52 24.2116C21.3353 24.0507 21.0725 23.9702 20.7316 23.9702H19.5633V25.7706Z" fill="white"/>
</svg>
