<svg t="1732774461342" class="icon" viewBox="0 0 1024 1024" version="1.1" xmlns="http://www.w3.org/2000/svg"
     p-id="19278" width="200" height="200">
    <path d="M256 234.666667a21.333333 21.333333 0 0 0-21.333333 21.333333v469.333333a21.333333 21.333333 0 0 0 21.333333 21.333334h512a21.333333 21.333333 0 0 0 21.333333-21.333334V341.333333a21.333333 21.333333 0 0 0-21.333333-21.333333h-281.002667a64 64 0 0 1-45.226666-18.773333L381.397333 240.938667a21.333333 21.333333 0 0 0-15.061333-6.229334H256z m0-42.666667h110.336a64 64 0 0 1 45.226667 18.773333l60.373333 60.330667a21.333333 21.333333 0 0 0 15.061333 6.229333H768A64 64 0 0 1 832 341.333333v384a64 64 0 0 1-64 64H256A64 64 0 0 1 192 725.333333V256A64 64 0 0 1 256 192z"
          fill="#1296db" p-id="19279"></path>
    <path d="M469.333333 597.333333l213.333334 0 0 42.666667-213.333334 0 0-42.666667Z" fill="#1296db"
          p-id="19280"></path>
</svg>
