<svg width="40" height="40" viewBox="0 0 40 40" fill="none" xmlns="http://www.w3.org/2000/svg">
    <path d="M7.75 4C7.75 2.20508 9.20508 0.75 11 0.75H27C27.1212 0.75 27.2375 0.798159 27.3232 0.883885L38.1161 11.6768C38.2018 11.7625 38.25 11.8788 38.25 12V36C38.25 37.7949 36.7949 39.25 35 39.25H11C9.20507 39.25 7.75 37.7949 7.75 36V4Z" fill="white" stroke="#D0D5DD" stroke-width="1.5"/>
    <path d="M27 0.5V8C27 10.2091 28.7909 12 31 12H38.5" stroke="#D0D5DD" stroke-width="1.5"/>
    <rect x="0.5" y="18" width="29" height="16" rx="2" fill="#1570EF"/>
    <path d="M6.90163 30H4.32351V22.7273H6.92294C7.65447 22.7273 8.28421 22.8729 8.81214 23.1641C9.34008 23.4529 9.74609 23.8684 10.0302 24.4105C10.3166 24.9527 10.4599 25.6013 10.4599 26.3565C10.4599 27.1141 10.3166 27.7652 10.0302 28.3097C9.74609 28.8542 9.33771 29.272 8.80504 29.5632C8.27474 29.8544 7.64027 30 6.90163 30ZM5.86115 28.6825H6.83771C7.29226 28.6825 7.6746 28.602 7.98473 28.4411C8.29723 28.2777 8.53161 28.0256 8.68786 27.6847C8.84647 27.3414 8.92578 26.8987 8.92578 26.3565C8.92578 25.8191 8.84647 25.38 8.68786 25.0391C8.53161 24.6982 8.29841 24.4472 7.98828 24.2862C7.67815 24.1252 7.29581 24.0447 6.84126 24.0447H5.86115V28.6825ZM18.2821 26.3636C18.2821 27.1567 18.1318 27.8314 17.8311 28.3878C17.5328 28.9441 17.1257 29.3691 16.6096 29.6626C16.0958 29.9538 15.5182 30.0994 14.8766 30.0994C14.2303 30.0994 13.6503 29.9527 13.1365 29.6591C12.6228 29.3655 12.2168 28.9406 11.9185 28.3842C11.6202 27.8279 11.4711 27.1544 11.4711 26.3636C11.4711 25.5705 11.6202 24.8958 11.9185 24.3395C12.2168 23.7831 12.6228 23.3594 13.1365 23.0682C13.6503 22.7746 14.2303 22.6278 14.8766 22.6278C15.5182 22.6278 16.0958 22.7746 16.6096 23.0682C17.1257 23.3594 17.5328 23.7831 17.8311 24.3395C18.1318 24.8958 18.2821 25.5705 18.2821 26.3636ZM16.7232 26.3636C16.7232 25.8499 16.6462 25.4167 16.4924 25.0639C16.3408 24.7112 16.1266 24.4437 15.8496 24.2614C15.5726 24.0791 15.2483 23.9879 14.8766 23.9879C14.5049 23.9879 14.1806 24.0791 13.9036 24.2614C13.6266 24.4437 13.4112 24.7112 13.2573 25.0639C13.1058 25.4167 13.03 25.8499 13.03 26.3636C13.03 26.8774 13.1058 27.3106 13.2573 27.6634C13.4112 28.0161 13.6266 28.2836 13.9036 28.4659C14.1806 28.6482 14.5049 28.7393 14.8766 28.7393C15.2483 28.7393 15.5726 28.6482 15.8496 28.4659C16.1266 28.2836 16.3408 28.0161 16.4924 27.6634C16.6462 27.3106 16.7232 26.8774 16.7232 26.3636ZM25.8381 25.2734H24.2827C24.2543 25.0722 24.1963 24.8935 24.1087 24.7372C24.0211 24.5786 23.9086 24.4437 23.7713 24.3324C23.634 24.2211 23.4754 24.1359 23.2955 24.0767C23.1179 24.0175 22.925 23.9879 22.7166 23.9879C22.3402 23.9879 22.0123 24.0814 21.733 24.2685C21.4536 24.4531 21.237 24.723 21.0831 25.0781C20.9292 25.4309 20.8523 25.8594 20.8523 26.3636C20.8523 26.8821 20.9292 27.3177 21.0831 27.6705C21.2393 28.0232 21.4571 28.2895 21.7365 28.4695C22.0159 28.6494 22.339 28.7393 22.706 28.7393C22.9119 28.7393 23.1025 28.7121 23.2777 28.6577C23.4553 28.6032 23.6127 28.5239 23.75 28.4197C23.8873 28.3132 24.0009 28.1842 24.0909 28.0327C24.1832 27.8812 24.2472 27.7083 24.2827 27.5142L25.8381 27.5213C25.7978 27.8551 25.6972 28.1771 25.5362 28.4872C25.3776 28.795 25.1634 29.0708 24.8935 29.3146C24.6259 29.5561 24.3063 29.7479 23.9347 29.8899C23.5653 30.0296 23.1475 30.0994 22.6811 30.0994C22.0324 30.0994 21.4524 29.9527 20.9411 29.6591C20.4321 29.3655 20.0296 28.9406 19.7337 28.3842C19.4401 27.8279 19.2933 27.1544 19.2933 26.3636C19.2933 25.5705 19.4425 24.8958 19.7408 24.3395C20.0391 23.7831 20.4439 23.3594 20.9553 23.0682C21.4666 22.7746 22.0419 22.6278 22.6811 22.6278C23.1025 22.6278 23.4931 22.687 23.853 22.8054C24.2152 22.9238 24.536 23.0966 24.8153 23.3239C25.0947 23.5488 25.322 23.8246 25.4972 24.1513C25.6747 24.478 25.7884 24.852 25.8381 25.2734Z" fill="white"/>
</svg>
