<svg width="16" height="4" viewBox="0 0 16 4" fill="none" xmlns="http://www.w3.org/2000/svg">
    <path d="M7.99999 2.83329C8.46023 2.83329 8.83333 2.4602 8.83333 1.99996C8.83333 1.53972 8.46023 1.16663 7.99999 1.16663C7.53976 1.16663 7.16666 1.53972 7.16666 1.99996C7.16666 2.4602 7.53976 2.83329 7.99999 2.83329Z" stroke="#175CD3" stroke-width="1.66667" stroke-linecap="round" stroke-linejoin="round"/>
    <path d="M13.8333 2.83329C14.2936 2.83329 14.6667 2.4602 14.6667 1.99996C14.6667 1.53972 14.2936 1.16663 13.8333 1.16663C13.3731 1.16663 13 1.53972 13 1.99996C13 2.4602 13.3731 2.83329 13.8333 2.83329Z" stroke="#175CD3" stroke-width="1.66667" stroke-linecap="round" stroke-linejoin="round"/>
    <path d="M2.16666 2.83329C2.6269 2.83329 2.99999 2.4602 2.99999 1.99996C2.99999 1.53972 2.6269 1.16663 2.16666 1.16663C1.70642 1.16663 1.33333 1.53972 1.33333 1.99996C1.33333 2.4602 1.70642 2.83329 2.16666 2.83329Z" stroke="#175CD3" stroke-width="1.66667" stroke-linecap="round" stroke-linejoin="round"/>
</svg>
