<svg width="24" height="24" viewBox="0 0 24 24" fill="none" xmlns="http://www.w3.org/2000/svg">
    <path d="M17 10.3333L13.6667 7M4.08331 19.9167L6.90362 19.6033C7.24819 19.565 7.42048 19.5459 7.58152 19.4937C7.72439 19.4475 7.86035 19.3821 7.98572 19.2995C8.12702 19.2063 8.2496 19.0837 8.49475 18.8386L19.5 7.83334C20.4205 6.91286 20.4205 5.42048 19.5 4.5C18.5795 3.57953 17.0871 3.57953 16.1667 4.5L5.16142 15.5052C4.91627 15.7504 4.79369 15.873 4.70051 16.0143C4.61784 16.1396 4.55249 16.2756 4.50624 16.4185C4.45411 16.5795 4.43497 16.7518 4.39668 17.0964L4.08331 19.9167Z" stroke="#667085" stroke-width="1.66667" stroke-linecap="round" stroke-linejoin="round"/>
</svg>
