<?xml version="1.0" standalone="no"?><!DOCTYPE svg PUBLIC "-//W3C//DTD SVG 1.1//EN"
        "http://www.w3.org/Graphics/SVG/1.1/DTD/svg11.dtd">
<svg t="1735120556889" class="icon" viewBox="0 0 1024 1024" version="1.1" xmlns="http://www.w3.org/2000/svg"
     p-id="16946" width="24" height="24" xmlns:xlink="http://www.w3.org/1999/xlink">
    <path d="M672.755991 570.748052a257.381168 257.381168 0 0 0 26.442044-86.544578c51.32265-18.916428 58.387513-83.447301 55.623001-111.681157-4.914688-48.404554-36.885755-55.853377-36.885755-55.853378V204.987782c-48.63493-216.246256-258.533048-204.778652-258.533048-204.778652h-18.430078s-209.898118-11.467605-258.174686 204.778652v111.681157s-30.716798 7.448823-36.885754 55.853378c-2.764512 28.157065 4.300352 93.071897 55.315833 111.681157 0 0 28.899387 128.447409 129.087343 167.534534v74.462638s-224.974946 24.829412-313.490519 167.534534a81.911461 81.911461 0 0 0-10.469308 81.015554 80.631594 80.631594 0 0 0 64.582067 49.274863h487.449983a335.7346 335.7346 0 0 1 114.34328-453.251948z"
          fill="#1B6EBD" p-id="16947"></path>
    <path d="M812.440629 597.881223a211.101193 211.101193 0 1 0 0.998296 0z m121.868895 137.483267l-125.631703 182.380987c-7.295239 7.346434-14.564882 14.718466-21.860121 14.718466a27.005185 27.005185 0 0 1-21.117798-9.88057l-72.875603-73.054784a21.706537 21.706537 0 0 1 0-29.180958l18.097313-18.276495a23.037598 23.037598 0 0 1 29.411334 0l40.213408 40.085421 94.991697-142.039592a24.957398 24.957398 0 0 1 29.155361-7.346434l22.116094 14.462492a52.576919 52.576919 0 0 1 10.802074 14.718466 20.81063 20.81063 0 0 1-3.302056 13.413001z"
          fill="#FF9800" p-id="16948"></path>
</svg>
