<svg width="40" height="40" viewBox="0 0 40 40" fill="none" xmlns="http://www.w3.org/2000/svg">
    <path d="M28.8511 15.8854C28.7586 15.8904 28.7361 15.8479 28.7261 15.7604C28.7161 15.6679 28.7211 15.5579 28.6761 15.4854C28.5886 15.3479 28.6136 15.1854 28.5386 15.0429C28.4963 14.9674 28.4667 14.8855 28.4511 14.8004C28.4461 14.7504 28.4586 14.6804 28.4236 14.6529C28.3436 14.5954 28.3736 14.5029 28.3236 14.4279C28.2686 14.3479 28.2661 14.2304 28.2236 14.1329C28.1811 14.0304 28.1286 13.9204 28.1186 13.8079C28.1136 13.7529 28.0511 13.7504 28.0536 13.6954C28.0586 13.6029 27.9911 13.5279 27.9686 13.4404C27.9386 13.3229 27.8736 13.2104 27.8286 13.0954C27.7936 13.0029 27.7561 12.9079 27.7136 12.8254C27.6511 12.7004 27.5987 12.5729 27.5262 12.4504C27.4562 12.3429 27.4362 12.2029 27.3612 12.0854C27.2992 11.9877 27.2457 11.8848 27.2012 11.7779C27.1287 11.6079 27.0237 11.4604 26.9412 11.2979C26.8618 11.137 26.7759 10.9794 26.6837 10.8254C26.5962 10.6779 26.5187 10.523 26.4162 10.3805C26.3762 10.323 26.3112 10.2655 26.3012 10.2005C26.2862 10.1055 26.2137 10.038 26.1687 9.98296C26.1062 9.90796 26.1037 9.77546 25.9812 9.74796C25.9812 9.74796 25.9762 9.73546 25.9787 9.73046C25.9887 9.63046 25.8487 9.60296 25.8612 9.50046C25.7537 9.46296 25.7837 9.30547 25.6612 9.27547C25.6612 9.27547 25.6562 9.26547 25.6587 9.26047C25.6687 9.16047 25.5712 9.10547 25.5287 9.04047C25.4733 8.95671 25.4105 8.87807 25.3412 8.80547C25.3087 8.77047 25.2537 8.74047 25.2412 8.69797C25.1987 8.54797 25.0562 8.47298 24.9837 8.34298C24.9162 8.22298 24.7987 8.14298 24.7062 8.04298C24.6171 7.93722 24.5063 7.85194 24.3812 7.79298C24.2637 7.74798 24.1712 7.65299 24.0312 7.64549C23.8862 7.63799 23.7487 7.55299 23.5962 7.55799C23.5962 7.52549 23.5862 7.50049 23.5462 7.50049H8.39389C8.35389 7.50049 8.34389 7.52549 8.34389 7.55799C8.24389 7.55049 8.18889 7.63299 8.1564 7.69299C8.0814 7.82548 8.18889 8.06798 8.33389 8.12548C8.39389 8.14798 8.42639 8.19048 8.46889 8.23048C8.49139 8.25298 8.51139 8.28798 8.54389 8.28298C8.60389 8.27798 8.63139 8.32048 8.64889 8.35548C8.67139 8.40298 8.71389 8.42048 8.74889 8.43798C8.85483 8.49316 8.95246 8.56301 9.03888 8.64547C9.16888 8.76547 9.31388 8.86297 9.45388 8.96547C9.57138 9.05047 9.66638 9.16297 9.79387 9.23297C9.89137 9.28297 9.94387 9.39546 10.0364 9.44046C10.1664 9.50546 10.2389 9.63046 10.3639 9.69546C10.4414 9.73546 10.5014 9.80046 10.5564 9.86546C10.6064 9.92296 10.6964 9.92546 10.7364 9.98296C10.8539 10.158 11.0539 10.238 11.1914 10.3955C11.3264 10.5479 11.5164 10.6404 11.6564 10.8004C11.8214 10.9929 12.0463 11.1304 12.2263 11.3104C12.3513 11.4354 12.4788 11.5529 12.6063 11.6729C12.7063 11.7654 12.8063 11.8579 12.9013 11.9554C12.9713 12.0254 13.0613 12.0804 13.1263 12.1429C13.2888 12.3004 13.4763 12.4404 13.5888 12.6429L13.6138 12.6729C13.7388 12.7904 13.8638 12.9079 13.9838 13.0279C14.1338 13.1779 14.2788 13.3379 14.4413 13.4804C14.5083 13.5302 14.5644 13.5932 14.6063 13.6654C14.6388 13.7404 14.6963 13.7904 14.7463 13.8379C14.8838 13.9729 15.0338 14.0979 15.1313 14.2679C15.1713 14.3379 15.2538 14.3629 15.2963 14.4304C15.3513 14.5154 15.4338 14.5754 15.4888 14.6654C15.5688 14.7979 15.7063 14.8904 15.7988 15.0279C15.8888 15.1629 16.0088 15.2929 16.1238 15.4079C16.2538 15.5379 16.3438 15.6979 16.4813 15.8154C16.5538 15.8754 16.5613 15.9904 16.6538 16.0279C16.7013 16.0479 16.7163 16.0879 16.7288 16.1204C16.7788 16.2279 16.8713 16.3029 16.9288 16.4029C16.9863 16.5029 17.0838 16.5654 17.1488 16.6629C17.2688 16.8479 17.4063 17.0254 17.5563 17.1879C17.6038 17.2429 17.5988 17.3279 17.6688 17.3554C17.7738 17.3979 17.7913 17.5104 17.8463 17.5854C17.9163 17.6829 18.0113 17.7654 18.0638 17.8729C18.1188 17.9879 18.2138 18.0729 18.2738 18.1779C18.3288 18.2729 18.3988 18.3579 18.4563 18.4529C18.4988 18.5254 18.5388 18.6078 18.6013 18.6703C18.6688 18.7378 18.6888 18.8403 18.7663 18.9028C18.8363 18.9603 18.8513 19.0528 18.9163 19.1178C18.9838 19.1928 19.0113 19.3028 19.0863 19.3753C19.1513 19.4378 19.1838 19.5228 19.2288 19.5953C19.2613 19.6453 19.3288 19.6753 19.3363 19.7428C19.3438 19.8178 19.4013 19.8628 19.4388 19.9178C19.4963 20.0028 19.5713 20.0878 19.6038 20.1678C19.6638 20.3178 19.7662 20.4328 19.8387 20.5678C19.9237 20.7178 20.0287 20.8678 20.1137 21.0228C20.1787 21.1353 20.2437 21.2478 20.3137 21.3528C20.3437 21.4053 20.3387 21.4753 20.3962 21.5153C20.4662 21.5653 20.4812 21.6503 20.5212 21.7203C20.5562 21.7828 20.5812 21.8578 20.6312 21.9003C20.6712 21.9353 20.6712 21.9678 20.6787 22.0078C20.7387 22.0328 20.7687 21.9853 20.8037 21.9528L21.0837 21.6753L21.6612 21.1053C21.8262 20.9428 21.9787 20.7703 22.1487 20.6128C22.4487 20.3378 22.7237 20.0428 23.0237 19.7653C23.2187 19.5828 23.3937 19.3828 23.6087 19.2203C23.7962 19.0753 23.9537 18.8953 24.1237 18.7278L24.5012 18.3529C24.6312 18.2229 24.8012 18.1379 24.9212 17.9979C24.9309 17.9842 24.9438 17.973 24.9587 17.9654C25.0837 17.9154 25.1712 17.8129 25.2762 17.7354C25.3987 17.6479 25.5212 17.5604 25.6412 17.4679C25.7012 17.4204 25.7787 17.3979 25.8312 17.3454C25.9812 17.1954 26.1812 17.1279 26.3562 17.0229C26.5412 16.9129 26.7312 16.8054 26.9262 16.7129C27.0637 16.6479 27.1862 16.5429 27.3362 16.5129C27.5087 16.4779 27.6362 16.3604 27.7986 16.3104C27.8486 16.2954 27.9111 16.2904 27.9561 16.2554C28.0511 16.1804 28.1786 16.1804 28.2861 16.1304C28.3361 16.1054 28.3911 16.0729 28.4486 16.0654C28.5786 16.0479 28.6936 15.9879 28.8186 15.9554C28.8536 15.9479 28.8811 15.9279 28.8511 15.8854Z" fill="#00D6B9"/>
    <path d="M32.4512 25.0452C32.4137 25.0202 32.3912 25.0527 32.3687 25.0752C32.3012 25.1352 32.2537 25.2152 32.1962 25.2852L31.9087 25.6202C31.7112 25.8377 31.4987 26.0452 31.2837 26.2402C31.1162 26.3927 30.9287 26.5227 30.7488 26.6602C30.6813 26.7102 30.6138 26.7652 30.5438 26.8102C30.4688 26.8627 30.4013 26.9327 30.3188 26.9677C30.1613 27.0352 30.0213 27.1327 29.8763 27.2177C29.6214 27.3576 29.3575 27.4804 29.0863 27.5852C28.9338 27.6477 28.7838 27.7152 28.6263 27.7652C28.5013 27.8052 28.3788 27.8577 28.2513 27.8902C28.2088 27.9002 28.1638 27.8952 28.1238 27.9102C27.9988 27.9577 27.8663 27.9852 27.7363 28.0177C27.6238 28.0477 27.5013 28.0227 27.4038 28.0677C27.2538 28.1377 27.0838 28.0727 26.9438 28.1677C26.7263 28.1652 26.5088 28.1902 26.2913 28.2077C25.9063 28.2377 25.5213 28.1827 25.1363 28.1727C24.9613 28.1677 24.7963 28.0802 24.6188 28.1052C24.6088 28.1052 24.5988 28.1027 24.5913 28.0952C24.5338 28.0502 24.4663 28.0527 24.4013 28.0527C24.2663 28.0527 24.1363 28.0227 24.0088 27.9977C23.8838 27.9727 23.7563 27.9252 23.6338 27.8827C23.5613 27.8577 23.4838 27.8727 23.4188 27.8402C23.3238 27.7945 23.2228 27.7625 23.1188 27.7452C22.8788 27.6952 22.6564 27.5952 22.4139 27.5552C22.2539 27.5277 22.1139 27.4377 21.9539 27.4052C21.8414 27.3802 21.7314 27.3402 21.6239 27.3052C21.4864 27.2602 21.3489 27.2127 21.2089 27.1777C20.9864 27.1177 20.7814 27.0227 20.5639 26.9527C20.3039 26.8677 20.0514 26.7652 19.7914 26.6777C19.6389 26.6277 19.5014 26.5352 19.3364 26.5102C19.2656 26.498 19.1977 26.4726 19.1364 26.4352C19.0139 26.3652 18.8764 26.3402 18.7514 26.2802C18.6464 26.2302 18.5289 26.2052 18.4264 26.1552C18.2564 26.0677 18.0589 26.0402 17.9039 25.9177C17.8939 25.9102 17.8789 25.9077 17.8664 25.9077C17.7414 25.8952 17.6289 25.8377 17.5214 25.7827C17.2839 25.6677 17.0289 25.5902 16.7964 25.4627C16.6114 25.3602 16.4064 25.3027 16.2214 25.2027C16.1789 25.1927 16.1414 25.2002 16.0964 25.1777C16.0189 25.1402 15.9464 25.0777 15.8664 25.0577C15.7139 25.0152 15.5989 24.9052 15.4489 24.8602C15.3639 24.8352 15.2989 24.7602 15.2189 24.7402C15.1189 24.7152 15.0364 24.6652 14.9564 24.6202C14.8239 24.5452 14.6814 24.4952 14.549 24.4127C14.4765 24.3677 14.3815 24.3527 14.319 24.3002C14.224 24.2202 14.0765 24.2252 14.0115 24.1052C13.8515 24.0927 13.744 23.9702 13.6065 23.9127C13.444 23.8452 13.2965 23.7427 13.1415 23.6552C13.0765 23.6177 13.0165 23.5502 12.954 23.5377C12.784 23.5027 12.669 23.3827 12.529 23.3077C12.3654 23.2218 12.2068 23.1267 12.054 23.0227C12.029 23.0077 11.9915 23.0102 11.974 22.9902C11.874 22.8777 11.7315 22.8202 11.609 22.7452C11.4872 22.6735 11.3664 22.6001 11.2465 22.5252C11.099 22.4327 10.9465 22.3402 10.8065 22.2402C10.714 22.1727 10.5965 22.1327 10.5165 22.0552C10.4565 22.0002 10.384 21.9802 10.324 21.9302C10.214 21.8402 10.0865 21.7677 9.96651 21.6852C9.91151 21.6477 9.83901 21.6128 9.80151 21.5728C9.72901 21.4928 9.63151 21.4528 9.55401 21.3878C9.43902 21.2903 9.29402 21.2228 9.17902 21.1203C9.11152 21.0603 9.01152 21.0503 8.96152 20.9653C8.94402 20.9328 8.91152 20.9103 8.86652 20.8978C8.79152 20.8778 8.73902 20.8153 8.67653 20.7728C8.58403 20.7103 8.50153 20.6253 8.40653 20.5603C8.29153 20.4828 8.19153 20.3803 8.07403 20.3103C7.94653 20.2328 7.85653 20.1128 7.72904 20.0403C7.65154 19.9928 7.60404 19.9053 7.52904 19.8703C7.39404 19.8103 7.31404 19.6928 7.19154 19.6203C7.09654 19.5603 7.03155 19.4478 6.93155 19.3953C6.81405 19.3328 6.74405 19.2228 6.63905 19.1503C6.60905 19.1278 6.57405 19.1253 6.54655 19.0903C6.47905 19.0078 6.38655 18.9478 6.30905 18.8753C6.22656 18.8003 6.12406 18.7503 6.04906 18.6603C5.98906 18.5953 5.92406 18.5078 5.84906 18.4778C5.73406 18.4353 5.68406 18.3328 5.59406 18.2678C5.48156 18.1878 5.39907 18.0728 5.28907 17.9853C5.21907 17.9303 5.13907 17.8853 5.08407 17.8153C5.00157 17.7103 4.89657 17.6228 4.80157 17.5328C4.67657 17.4103 4.55658 17.2828 4.42658 17.1653C4.32658 17.0753 4.23408 16.9753 4.13158 16.8853C4.03658 16.8003 3.95158 16.7053 3.85659 16.6203C3.73159 16.5053 3.61659 16.3753 3.49659 16.2528C3.37909 16.1278 3.25159 16.0128 3.13659 15.8853C3.0366 15.7728 2.9366 15.6353 2.7416 15.6778C2.6466 15.6978 2.6016 15.7578 2.5666 15.8353C2.4691 15.8453 2.5091 15.9203 2.5091 15.9628V30.1201C2.5091 30.1776 2.5141 30.2326 2.5116 30.2876C2.5116 30.3301 2.5266 30.3501 2.5666 30.3526C2.5416 30.4826 2.6291 30.5876 2.6491 30.7076C2.6616 30.7926 2.7166 30.8651 2.7491 30.9451C2.7966 31.0551 2.8891 31.1476 2.9541 31.2526C3.01259 31.3415 3.0872 31.4187 3.17409 31.4801C3.26409 31.5451 3.35659 31.6151 3.45409 31.6726C3.56909 31.7376 3.67909 31.8201 3.78659 31.8951C3.81909 31.9151 3.85659 31.9201 3.89158 31.9526C3.99158 32.0426 4.11908 32.1101 4.24158 32.1726C4.32408 32.2151 4.40158 32.2726 4.49158 32.3101C4.69157 32.3926 4.86157 32.5426 5.06657 32.6226C5.18157 32.6651 5.26907 32.7476 5.38657 32.7826C5.41407 32.7926 5.44657 32.7951 5.46906 32.8101C5.63406 32.9251 5.82156 32.9901 5.99906 33.0801C6.03656 33.1001 6.08406 33.1001 6.11406 33.1251C6.20888 33.1993 6.32048 33.2491 6.43905 33.2701C6.45905 33.2751 6.47905 33.2776 6.50155 33.2951C6.55155 33.3326 6.61405 33.3601 6.67155 33.3926C6.73655 33.4301 6.82155 33.4076 6.88155 33.4726C6.90405 33.4976 6.95655 33.5301 6.99905 33.5376C7.17404 33.5701 7.33654 33.6526 7.49904 33.7176C7.54904 33.7376 7.61404 33.7176 7.64904 33.7551C7.71404 33.8226 7.80654 33.8201 7.88154 33.8551C7.99153 33.9026 8.10653 33.9401 8.22903 33.9701C8.28153 33.9826 8.35403 33.9726 8.38653 34.0076C8.44903 34.0776 8.54403 34.0826 8.61153 34.1001C8.79152 34.1426 8.96652 34.2001 9.14152 34.2601C9.28152 34.3101 9.43901 34.3201 9.58651 34.3651C9.71151 34.4001 9.83651 34.4401 9.96151 34.4626C10.019 34.4726 10.104 34.4501 10.1365 34.4801C10.2315 34.5751 10.3615 34.5201 10.469 34.5726C10.574 34.6226 10.719 34.6426 10.854 34.6326C10.879 34.6301 10.9165 34.6251 10.929 34.6376C11.029 34.7376 11.184 34.6376 11.279 34.7401C11.504 34.7601 11.729 34.7701 11.949 34.8351C12.0915 34.8776 12.249 34.8551 12.399 34.8901C12.5815 34.9326 12.779 34.9201 12.969 34.9401C13.094 34.9501 13.2165 34.9451 13.339 34.9476C13.339 34.9876 13.3615 35.0026 13.4015 35.0001H16.1014C16.1414 35.0001 16.1639 34.9876 16.1639 34.9476C16.4639 34.9626 16.7589 34.8926 17.0564 34.9026H17.2214C17.2614 34.9051 17.2839 34.8901 17.2814 34.8476C17.4157 34.8398 17.5493 34.8231 17.6814 34.7976C17.8914 34.7551 18.1114 34.7651 18.3214 34.6976C18.4264 34.6626 18.5464 34.6676 18.6589 34.6401C18.7889 34.6101 18.9264 34.5751 19.0689 34.5851C19.0839 34.5851 19.1089 34.5851 19.1164 34.5776C19.1864 34.4851 19.3039 34.5276 19.3964 34.4851C19.4988 34.4411 19.6101 34.4214 19.7214 34.4276C19.7364 34.4276 19.7564 34.4276 19.7714 34.4201C19.8696 34.3637 19.9787 34.3287 20.0914 34.3176C20.2426 34.2953 20.3909 34.2567 20.5339 34.2026C20.6403 34.164 20.7499 34.1347 20.8614 34.1151C20.8864 34.1101 20.9139 34.1101 20.9264 34.0951C20.9889 34.0301 21.0814 34.0276 21.1514 34.0076C21.2964 33.9701 21.4339 33.9151 21.5764 33.8726C21.6239 33.8601 21.6789 33.8751 21.7189 33.8476C21.8291 33.7699 21.9557 33.7186 22.0889 33.6976C22.1114 33.6951 22.1314 33.6926 22.1514 33.6776C22.2164 33.6376 22.2764 33.5901 22.3589 33.5801C22.4739 33.5676 22.5839 33.5101 22.6839 33.4601C22.7689 33.4176 22.8638 33.3851 22.9513 33.3401C23.0188 33.3051 23.0913 33.2626 23.1738 33.2476C23.2913 33.2276 23.3688 33.1251 23.4888 33.1001C23.5789 33.0778 23.665 33.0416 23.7438 32.9926C23.8713 32.9201 24.0038 32.8601 24.1338 32.7976C24.2163 32.7551 24.3113 32.7201 24.3788 32.6701C24.4809 32.5995 24.5898 32.5392 24.7038 32.4901C24.8488 32.4251 24.9763 32.3326 25.1213 32.2701C25.2463 32.2126 25.3588 32.1201 25.4838 32.0501C25.5463 32.0151 25.6038 31.9601 25.6638 31.9301C25.7323 31.8941 25.799 31.8549 25.8638 31.8126C25.9488 31.7551 26.0488 31.7201 26.1213 31.6476C26.1863 31.5826 26.2738 31.5601 26.3413 31.5001C26.4213 31.4326 26.5288 31.4001 26.6038 31.3251C26.6288 31.3001 26.6438 31.2751 26.6788 31.2751C26.6981 31.273 26.7166 31.2662 26.7328 31.2553C26.7489 31.2444 26.7621 31.2298 26.7713 31.2126C26.795 31.1746 26.8299 31.1448 26.8713 31.1276C26.9888 31.0851 27.0513 30.9726 27.1613 30.9176C27.2288 30.8851 27.2863 30.8226 27.3488 30.7776C27.4563 30.7026 27.5588 30.6226 27.6613 30.5426C27.7188 30.4976 27.7688 30.4201 27.8263 30.4026C27.9513 30.3626 27.9888 30.2276 28.1063 30.1776C28.1465 30.1574 28.1829 30.1303 28.2138 30.0976C28.3038 29.9976 28.4138 29.9176 28.5138 29.8201C28.5763 29.7551 28.6613 29.7251 28.7213 29.6551C28.7921 29.5689 28.8708 29.4894 28.9563 29.4177C29.0313 29.3577 29.1013 29.2877 29.1663 29.2177L29.5413 28.8452C29.6663 28.7252 29.7838 28.6027 29.9088 28.4852C29.983 28.4136 30.0499 28.3349 30.1088 28.2502C30.1731 28.1616 30.2488 28.0817 30.3338 28.0127C30.3988 27.9602 30.4188 27.8802 30.4788 27.8252C30.5681 27.7523 30.6449 27.6653 30.7062 27.5677C30.7737 27.4527 30.8887 27.3802 30.9512 27.2627C30.9962 27.1777 31.0837 27.1227 31.1362 27.0377C31.1887 26.9477 31.2612 26.8677 31.3287 26.7877C31.4037 26.6977 31.4887 26.6027 31.5387 26.5027C31.5912 26.3952 31.6862 26.3277 31.7387 26.2202C31.7935 26.1215 31.858 26.0286 31.9312 25.9427C31.9812 25.8802 32.0112 25.8102 32.0537 25.7452C32.1187 25.6452 32.1887 25.5477 32.2587 25.4502C32.2862 25.4077 32.2912 25.3627 32.3287 25.3202C32.3962 25.2502 32.4712 25.1652 32.4537 25.0502" fill="#3370FF"/>
    <path d="M37.4509 16.5329C37.4359 16.5154 37.4209 16.5154 37.4009 16.5104C37.3459 16.4929 37.2834 16.4804 37.2334 16.4504C37.1785 16.4114 37.1199 16.3779 37.0584 16.3504C36.9659 16.3129 36.8584 16.3004 36.7809 16.2454C36.6734 16.1629 36.5384 16.1654 36.4234 16.1054C36.3421 16.0612 36.2544 16.03 36.1634 16.0129C36.0934 16.0004 36.0209 15.9679 35.9534 15.9479C35.8609 15.9179 35.7634 15.8854 35.6684 15.8604C35.5193 15.824 35.3716 15.7814 35.226 15.7329C35.1257 15.6939 35.0185 15.676 34.911 15.6804C34.886 15.5779 34.8035 15.6379 34.746 15.6254C34.671 15.6254 34.601 15.5879 34.531 15.5754C34.3035 15.5354 34.071 15.5279 33.841 15.4754C33.6585 15.4354 33.461 15.4579 33.271 15.4304C33.1585 15.4154 33.046 15.4254 32.931 15.4229C32.931 15.3779 32.9085 15.3679 32.8685 15.3679H31.771C31.731 15.3679 31.7085 15.3804 31.7085 15.4229C31.4285 15.4079 31.1535 15.4704 30.8735 15.4679H30.7085C30.6685 15.4654 30.651 15.4829 30.6485 15.5204C30.4885 15.5054 30.3385 15.5754 30.1785 15.5654C30.1688 15.5652 30.1593 15.5678 30.151 15.5729C30.0285 15.6579 29.8785 15.6279 29.746 15.6729C29.641 15.7079 29.5135 15.7029 29.4135 15.7404C29.3335 15.7679 29.2435 15.7904 29.1635 15.8229C29.0653 15.8666 28.9585 15.8879 28.851 15.8854C28.8535 15.9054 28.8585 15.9304 28.831 15.9329C28.7685 15.9379 28.711 15.9704 28.656 15.9829C28.491 16.0254 28.336 16.0879 28.176 16.1429C28.036 16.1929 27.906 16.2679 27.7685 16.3004C27.6111 16.3379 27.501 16.4629 27.3361 16.4829C27.2848 16.4861 27.2355 16.5034 27.1936 16.5329C27.1485 16.5724 27.0969 16.6037 27.0411 16.6254C26.9526 16.6547 26.8685 16.6959 26.7911 16.7479C26.6761 16.8229 26.5511 16.8729 26.4411 16.9479C26.3986 16.9779 26.3286 16.9654 26.3086 16.9979C26.2286 17.1379 26.0636 17.1404 25.9511 17.2279C25.8311 17.3204 25.6886 17.3904 25.5686 17.4804C25.4686 17.5554 25.3636 17.6254 25.2686 17.7054C25.1436 17.8129 25.0086 17.9104 24.8761 18.0054C24.8061 18.0554 24.7636 18.1479 24.6911 18.1704C24.5761 18.2104 24.5161 18.3054 24.4411 18.3754C24.3661 18.4504 24.2811 18.5279 24.2061 18.6079C24.0911 18.7254 23.9686 18.8354 23.8486 18.9504C23.7586 19.0354 23.6811 19.1429 23.5811 19.2079C23.4311 19.3079 23.3211 19.4404 23.1961 19.5579C23.0711 19.6754 22.9461 19.7979 22.8261 19.9204C22.6861 20.0629 22.5311 20.1904 22.3986 20.3379C22.2836 20.4679 22.1511 20.5804 22.0286 20.7004C21.9036 20.8229 21.7861 20.9529 21.6536 21.0703C21.5251 21.1883 21.4016 21.3118 21.2836 21.4403C21.1886 21.5403 21.0886 21.6378 20.9886 21.7328C20.8886 21.8278 20.8036 21.9403 20.6786 22.0078C20.6661 22.0678 20.6161 22.0928 20.5711 22.1228C20.4411 22.2053 20.3386 22.3178 20.2261 22.4228C20.1511 22.4903 20.0911 22.5803 20.0061 22.6278C19.8661 22.7028 19.7661 22.8278 19.6411 22.9178C19.4912 23.0278 19.3362 23.1403 19.2037 23.2728C19.1387 23.3353 19.0387 23.3453 18.9962 23.4278C18.9612 23.4978 18.8712 23.4828 18.8287 23.5378C18.7412 23.6553 18.5987 23.7028 18.4937 23.7978C18.4312 23.8553 18.3437 23.9028 18.2687 23.9478C18.2212 23.9728 18.1687 23.9903 18.1287 24.0278C18.0307 24.1156 17.9224 24.1911 17.8062 24.2528C17.7562 24.2828 17.6887 24.3028 17.6512 24.3453C17.5812 24.4203 17.4837 24.4553 17.4037 24.5203C17.3241 24.587 17.2347 24.641 17.1387 24.6803C17.0137 24.7278 16.9187 24.8153 16.8037 24.8728C16.6487 24.9478 16.5037 25.0403 16.3512 25.1153C16.3112 25.1353 16.2437 25.1478 16.2212 25.2028C16.2212 25.2378 16.2362 25.2478 16.2662 25.2653C16.3337 25.3053 16.4087 25.3153 16.4762 25.3428C16.5862 25.3928 16.6912 25.4553 16.8012 25.5003C16.9062 25.5428 16.9937 25.6153 17.1187 25.6253C17.1755 25.6357 17.2283 25.6617 17.2712 25.7003C17.3462 25.7653 17.4412 25.7903 17.5212 25.8203C17.5912 25.8453 17.6587 25.8903 17.7387 25.9053C17.7887 25.9153 17.8562 25.9128 17.8962 25.9428C17.9662 25.9978 18.0462 26.0278 18.1212 26.0728C18.1712 26.1028 18.2387 26.0628 18.2687 26.1078C18.3112 26.1703 18.3887 26.1803 18.4362 26.1978C18.5787 26.2478 18.7112 26.3053 18.8512 26.3628C18.9712 26.4128 19.0937 26.4478 19.2112 26.5128C19.3087 26.5653 19.4387 26.5678 19.5512 26.6153C19.5936 26.6353 19.6161 26.6753 19.6636 26.6803C19.7719 26.687 19.8771 26.7187 19.9711 26.7728C20.0011 26.7928 20.0336 26.8278 20.0711 26.8353C20.1811 26.8578 20.2886 26.8853 20.3961 26.9303C20.4961 26.9703 20.6011 27.0153 20.7061 27.0303C20.7636 27.0378 20.7761 27.0953 20.8311 27.0953C20.9286 27.0953 21.0061 27.1578 21.0986 27.1778C21.2236 27.2078 21.3461 27.2528 21.4686 27.2903C21.4961 27.2978 21.5436 27.2853 21.5561 27.3003C21.6311 27.4003 21.7561 27.3503 21.8561 27.4003C21.9636 27.4553 22.1061 27.4803 22.2311 27.5228C22.3436 27.5628 22.4561 27.6053 22.5761 27.6103C22.5961 27.6103 22.6136 27.6153 22.6311 27.6278C22.7111 27.6778 22.8036 27.7053 22.8961 27.7278C22.94 27.7368 22.9842 27.7443 23.0286 27.7503C23.1086 27.7628 23.1736 27.8178 23.2511 27.8228C23.3661 27.8278 23.4636 27.8978 23.5836 27.9028C23.6286 27.9053 23.7036 27.8978 23.7411 27.9353C23.8186 28.0128 23.9286 28.0078 24.0161 28.0303C24.2061 28.0803 24.4086 28.0678 24.6036 28.1328C24.7161 28.1728 24.8436 28.1578 24.9686 28.1878C25.1686 28.2328 25.3861 28.2178 25.5986 28.2303C25.9911 28.2553 26.3861 28.2453 26.7761 28.2003C26.8761 28.1878 26.9686 28.1828 27.0661 28.1578C27.2054 28.1219 27.3476 28.0985 27.4911 28.0878C27.6135 28.0778 27.726 28.0253 27.851 28.0378C27.8599 28.0376 27.8686 28.035 27.876 28.0303C27.9835 27.9628 28.1085 27.9628 28.221 27.9253C28.301 27.9003 28.396 27.9028 28.4635 27.8628C28.5336 27.8203 28.6106 27.7907 28.691 27.7753C28.816 27.7553 28.9035 27.6503 29.031 27.6603C29.036 27.6603 29.041 27.6528 29.046 27.6503C29.131 27.5853 29.236 27.5503 29.331 27.5178C29.4343 27.4823 29.5353 27.4406 29.6335 27.3928C29.7635 27.3278 29.8885 27.2428 30.016 27.1678C30.0535 27.1453 30.1085 27.1778 30.136 27.1178C30.156 27.0678 30.2035 27.0428 30.261 27.0303C30.326 27.0128 30.401 26.9878 30.4285 26.9128C30.441 26.8803 30.466 26.8778 30.491 26.8803C30.5081 26.8808 30.5251 26.8766 30.5401 26.8682C30.555 26.8599 30.5674 26.8476 30.576 26.8328C30.656 26.7128 30.7935 26.6578 30.9035 26.5778C31.0185 26.4978 31.1085 26.3903 31.2285 26.3178C31.371 26.2353 31.4735 26.1028 31.5885 25.9878C31.686 25.8878 31.7785 25.7853 31.881 25.6953C31.961 25.6253 31.9985 25.5303 32.0785 25.4603C32.1335 25.4103 32.221 25.3603 32.2435 25.2853C32.2785 25.1678 32.3735 25.1203 32.4535 25.0478C32.4822 24.9869 32.5241 24.9331 32.576 24.8903L32.606 24.8428C32.6485 24.8178 32.626 24.7553 32.671 24.7278C32.751 24.6753 32.781 24.5778 32.816 24.5028C32.871 24.3878 32.9385 24.2753 33.0035 24.1678C33.0735 24.0503 33.116 23.9203 33.2035 23.8103C33.2685 23.7253 33.311 23.6128 33.3585 23.5128C33.4435 23.3378 33.531 23.1653 33.6235 22.9953C33.6785 22.8953 33.731 22.7903 33.7785 22.6853C33.826 22.5753 33.8885 22.4728 33.9385 22.3678C33.9885 22.2578 34.0585 22.1578 34.0985 22.0503C34.1485 21.9178 34.2235 21.8053 34.281 21.6778C34.2985 21.6328 34.2935 21.5778 34.326 21.5453C34.3903 21.4751 34.4381 21.3914 34.466 21.3003C34.516 21.1678 34.6285 21.0653 34.641 20.9178L34.651 20.9128C34.701 20.8753 34.7185 20.8129 34.746 20.7604C34.791 20.6779 34.811 20.5804 34.866 20.5054C34.951 20.3854 35.001 20.2504 35.066 20.1229C35.1085 20.0429 35.141 19.9529 35.186 19.8804C35.261 19.7629 35.311 19.6304 35.381 19.5129C35.431 19.4296 35.4729 19.3417 35.506 19.2504C35.5285 19.1904 35.5709 19.1304 35.6084 19.0754C35.6759 18.9704 35.7234 18.8504 35.8109 18.7579C35.8484 18.7179 35.8459 18.6629 35.8909 18.6179C35.9659 18.5429 36.0059 18.4429 36.0659 18.3554C36.1109 18.2904 36.1409 18.2104 36.1934 18.1604C36.2934 18.0654 36.3684 17.9479 36.4359 17.8404C36.5034 17.7329 36.5909 17.6354 36.6684 17.5429C36.7959 17.3879 36.9334 17.2354 37.0734 17.0854C37.2003 16.9506 37.327 16.8156 37.4534 16.6804C37.5284 16.6029 37.5084 16.5854 37.4534 16.5304" fill="#133C9A"/>
</svg>
