<svg width="40" height="40" viewBox="0 0 40 40" fill="none" xmlns="http://www.w3.org/2000/svg">
    <path d="M7.75 4C7.75 2.20508 9.20508 0.75 11 0.75H27C27.1212 0.75 27.2375 0.798159 27.3232 0.883885L38.1161 11.6768C38.2018 11.7625 38.25 11.8788 38.25 12V36C38.25 37.7949 36.7949 39.25 35 39.25H11C9.20507 39.25 7.75 37.7949 7.75 36V4Z" fill="white" stroke="#D0D5DD" stroke-width="1.5"/>
    <path d="M27 0.5V8C27 10.2091 28.7909 12 31 12H38.5" stroke="#D0D5DD" stroke-width="1.5"/>
    <rect x="0.5" y="18" width="27" height="16" rx="2" fill="#0C111D"/>
    <path d="M4.40749 30V22.7273H9.22283V23.995H5.94513V25.728H8.90323V26.9957H5.94513V30H4.40749ZM11.7947 22.7273V30H10.2571V22.7273H11.7947ZM13.0598 30V22.7273H14.5975V28.7322H17.7154V30H13.0598ZM18.7337 30V22.7273H23.6342V23.995H20.2713V25.728H23.3821V26.9957H20.2713V28.7322H23.6484V30H18.7337Z" fill="white"/>
</svg>
