<svg width="10" height="12" viewBox="0 0 10 12" fill="none" xmlns="http://www.w3.org/2000/svg">
    <path d="M6 1.13477V3.20004C6 3.48006 6 3.62007 6.0545 3.72703C6.10243 3.82111 6.17892 3.8976 6.273 3.94554C6.37996 4.00004 6.51997 4.00004 6.8 4.00004H8.86527M3 7.5V9M7 6.5V9M5 5.25V9M9 4.99411V8.6C9 9.44008 9 9.86012 8.83651 10.181C8.6927 10.4632 8.46323 10.6927 8.18099 10.8365C7.86012 11 7.44008 11 6.6 11H3.4C2.55992 11 2.13988 11 1.81901 10.8365C1.53677 10.6927 1.3073 10.4632 1.16349 10.181C1 9.86012 1 9.44008 1 8.6V3.4C1 2.55992 1 2.13988 1.16349 1.81901C1.3073 1.53677 1.53677 1.3073 1.81901 1.16349C2.13988 1 2.55992 1 3.4 1H5.00589C5.37277 1 5.55622 1 5.72885 1.04145C5.8819 1.07819 6.02822 1.1388 6.16243 1.22104C6.3138 1.3138 6.44352 1.44352 6.70294 1.70294L8.29706 3.29706C8.55648 3.55648 8.6862 3.6862 8.77896 3.83757C8.8612 3.97178 8.92181 4.1181 8.95855 4.27115C9 4.44378 9 4.62723 9 4.99411Z" stroke="#667085" stroke-linecap="round" stroke-linejoin="round"/>
</svg>
