<svg width="43" height="40" viewBox="0 0 43 40" fill="none" xmlns="http://www.w3.org/2000/svg">
    <path d="M10.75 4C10.75 2.20508 12.2051 0.75 14 0.75H30C30.1212 0.75 30.2375 0.798159 30.3232 0.883885L41.1161 11.6768C41.2018 11.7625 41.25 11.8788 41.25 12V36C41.25 37.7949 39.7949 39.25 38 39.25H14C12.2051 39.25 10.75 37.7949 10.75 36V4Z" fill="white" stroke="#D0D5DD" stroke-width="1.5"/>
    <path d="M30 0.5V8C30 10.2091 31.7909 12 34 12H41.5" stroke="#D0D5DD" stroke-width="1.5"/>
    <rect x="0.5" y="18" width="33" height="16" rx="2" fill="#0E9384"/>
    <path d="M4.44851 30V22.7273H9.26385V23.995H5.98615V25.728H8.94425V26.9957H5.98615V30H4.44851ZM10.2981 30V22.7273H11.8358V28.7322H14.9537V30H10.2981ZM17.411 30H15.7633L18.274 22.7273H20.2555L22.7626 30H21.1149L19.2931 24.3892H19.2363L17.411 30ZM17.3081 27.1413H21.2001V28.3416H17.3081V27.1413ZM29.7131 25.2734H28.1577C28.1293 25.0722 28.0713 24.8935 27.9837 24.7372C27.8961 24.5786 27.7836 24.4437 27.6463 24.3324C27.509 24.2211 27.3504 24.1359 27.1705 24.0767C26.9929 24.0175 26.8 23.9879 26.5916 23.9879C26.2152 23.9879 25.8873 24.0814 25.608 24.2685C25.3286 24.4531 25.112 24.723 24.9581 25.0781C24.8042 25.4309 24.7273 25.8594 24.7273 26.3636C24.7273 26.8821 24.8042 27.3177 24.9581 27.6705C25.1143 28.0232 25.3321 28.2895 25.6115 28.4695C25.8909 28.6494 26.214 28.7393 26.581 28.7393C26.7869 28.7393 26.9775 28.7121 27.1527 28.6577C27.3303 28.6032 27.4877 28.5239 27.625 28.4197C27.7623 28.3132 27.8759 28.1842 27.9659 28.0327C28.0582 27.8812 28.1222 27.7083 28.1577 27.5142L29.7131 27.5213C29.6728 27.8551 29.5722 28.1771 29.4112 28.4872C29.2526 28.795 29.0384 29.0708 28.7685 29.3146C28.5009 29.5561 28.1813 29.7479 27.8097 29.8899C27.4403 30.0296 27.0225 30.0994 26.5561 30.0994C25.9074 30.0994 25.3274 29.9527 24.8161 29.6591C24.3071 29.3655 23.9046 28.9406 23.6087 28.3842C23.3151 27.8279 23.1683 27.1544 23.1683 26.3636C23.1683 25.5705 23.3175 24.8958 23.6158 24.3395C23.9141 23.7831 24.3189 23.3594 24.8303 23.0682C25.3416 22.7746 25.9169 22.6278 26.5561 22.6278C26.9775 22.6278 27.3681 22.687 27.728 22.8054C28.0902 22.9238 28.411 23.0966 28.6903 23.3239C28.9697 23.5488 29.197 23.8246 29.3722 24.1513C29.5497 24.478 29.6634 24.852 29.7131 25.2734Z" fill="white"/>
</svg>
