<svg width="41" height="40" viewBox="0 0 41 40" fill="none" xmlns="http://www.w3.org/2000/svg">
    <path d="M8.75 4C8.75 2.20508 10.2051 0.75 12 0.75H28C28.1212 0.75 28.2375 0.798159 28.3232 0.883885L39.1161 11.6768C39.2018 11.7625 39.25 11.8788 39.25 12V36C39.25 37.7949 37.7949 39.25 36 39.25H12C10.2051 39.25 8.75 37.7949 8.75 36V4Z" fill="white" stroke="#D0D5DD" stroke-width="1.5"/>
    <path d="M28 0.5V8C28 10.2091 29.7909 12 32 12H39.5" stroke="#D0D5DD" stroke-width="1.5"/>
    <rect x="0.5" y="18" width="29" height="16" rx="2" fill="#444CE7"/>
    <path d="M4.23074 30V22.7273H5.76838V25.728H8.88983V22.7273H10.4239V30H8.88983V26.9957H5.76838V30H4.23074Z" fill="white"/>
    <path d="M18.1086 25.2734H16.5532C16.5248 25.0722 16.4668 24.8935 16.3792 24.7372C16.2916 24.5786 16.1791 24.4437 16.0418 24.3324C15.9045 24.2211 15.7459 24.1359 15.566 24.0767C15.3884 24.0175 15.1955 23.9879 14.9871 23.9879C14.6107 23.9879 14.2828 24.0814 14.0035 24.2685C13.7241 24.4531 13.5075 24.723 13.3536 25.0781C13.1997 25.4309 13.1228 25.8594 13.1228 26.3636C13.1228 26.8821 13.1997 27.3177 13.3536 27.6705C13.5099 28.0232 13.7277 28.2895 14.007 28.4695C14.2864 28.6494 14.6095 28.7393 14.9765 28.7393C15.1824 28.7393 15.373 28.7121 15.5482 28.6577C15.7258 28.6032 15.8832 28.5239 16.0205 28.4197C16.1578 28.3132 16.2715 28.1842 16.3614 28.0327C16.4537 27.8812 16.5177 27.7083 16.5532 27.5142L18.1086 27.5213C18.0683 27.8551 17.9677 28.1771 17.8067 28.4872C17.6481 28.795 17.4339 29.0708 17.164 29.3146C16.8965 29.5561 16.5769 29.7479 16.2052 29.8899C15.8358 30.0296 15.418 30.0994 14.9516 30.0994C14.3029 30.0994 13.7229 29.9527 13.2116 29.6591C12.7026 29.3655 12.3001 28.9406 12.0042 28.3842C11.7106 27.8279 11.5638 27.1544 11.5638 26.3636C11.5638 25.5705 11.713 24.8958 12.0113 24.3395C12.3096 23.7831 12.7144 23.3594 13.2258 23.0682C13.7371 22.7746 14.3124 22.6278 14.9516 22.6278C15.373 22.6278 15.7636 22.687 16.1235 22.8054C16.4857 22.9238 16.8065 23.0966 17.0858 23.3239C17.3652 23.5488 17.5925 23.8246 17.7677 24.1513C17.9452 24.478 18.0589 24.852 18.1086 25.2734ZM25.8944 26.3636C25.8944 27.1567 25.7441 27.8314 25.4434 28.3878C25.1452 28.9441 24.738 29.3691 24.2219 29.6626C23.7081 29.9538 23.1305 30.0994 22.4889 30.0994C21.8426 30.0994 21.2626 29.9527 20.7488 29.6591C20.2351 29.3655 19.8291 28.9406 19.5308 28.3842C19.2325 27.8279 19.0834 27.1544 19.0834 26.3636C19.0834 25.5705 19.2325 24.8958 19.5308 24.3395C19.8291 23.7831 20.2351 23.3594 20.7488 23.0682C21.2626 22.7746 21.8426 22.6278 22.4889 22.6278C23.1305 22.6278 23.7081 22.7746 24.2219 23.0682C24.738 23.3594 25.1452 23.7831 25.4434 24.3395C25.7441 24.8958 25.8944 25.5705 25.8944 26.3636ZM24.3355 26.3636C24.3355 25.8499 24.2586 25.4167 24.1047 25.0639C23.9532 24.7112 23.7389 24.4437 23.4619 24.2614C23.1849 24.0791 22.8606 23.9879 22.4889 23.9879C22.1172 23.9879 21.7929 24.0791 21.5159 24.2614C21.2389 24.4437 21.0235 24.7112 20.8696 25.0639C20.7181 25.4167 20.6423 25.8499 20.6423 26.3636C20.6423 26.8774 20.7181 27.3106 20.8696 27.6634C21.0235 28.0161 21.2389 28.2836 21.5159 28.4659C21.7929 28.6482 22.1172 28.7393 22.4889 28.7393C22.8606 28.7393 23.1849 28.6482 23.4619 28.4659C23.7389 28.2836 23.9532 28.0161 24.1047 27.6634C24.2586 27.3106 24.3355 26.8774 24.3355 26.3636Z" fill="#444CE7"/>
</svg>
