<svg width="28" height="28" viewBox="0 0 28 28" fill="none" xmlns="http://www.w3.org/2000/svg">
    <g clip-path="url(#clip0_7051_87034)">
        <path d="M2 0.5H26C27.3333 0.5 28 1.16667 28 2.5V10.5C28 11.8333 27.3333 12.5 26 12.5H2C0.666667 12.5 0 11.8333 0 10.5V2.5C0 1.16667 0.666667 0.5 2 0.5Z" fill="#FFCA00"/>
        <path d="M5 5.5H13C13.0653 5.5 13.1303 5.50667 13.195 5.52C13.2597 5.532 13.3223 5.55067 13.383 5.576C13.443 5.60133 13.5007 5.63233 13.556 5.669C13.61 5.705 13.6603 5.74633 13.707 5.793C13.7537 5.83967 13.795 5.89 13.831 5.944C13.8677 5.99867 13.8987 6.05633 13.924 6.117C13.9493 6.17767 13.9683 6.24033 13.981 6.305C13.9937 6.36967 14 6.43467 14 6.5C14 6.56533 13.9933 6.63033 13.98 6.695C13.968 6.75967 13.9493 6.82233 13.924 6.883C13.8987 6.943 13.8677 7.00067 13.831 7.056C13.795 7.11 13.7537 7.16033 13.707 7.207C13.6603 7.25367 13.61 7.295 13.556 7.331C13.5013 7.36767 13.4437 7.39867 13.383 7.424C13.3223 7.44933 13.2597 7.46833 13.195 7.481C13.1303 7.49367 13.0653 7.5 13 7.5H5C4.93467 7.5 4.86967 7.49333 4.805 7.48C4.74033 7.468 4.67767 7.44933 4.617 7.424C4.557 7.39867 4.49933 7.36767 4.444 7.331C4.39 7.295 4.33967 7.25367 4.293 7.207C4.24633 7.16033 4.205 7.11 4.169 7.056C4.13233 7.00133 4.10133 6.94367 4.076 6.883C4.05067 6.82233 4.03167 6.75967 4.019 6.695C4.00633 6.63033 4 6.56533 4 6.5C4 6.43467 4.00667 6.36967 4.02 6.305C4.032 6.24033 4.05067 6.17767 4.076 6.117C4.10133 6.057 4.13233 5.99933 4.169 5.944C4.205 5.89 4.24633 5.83967 4.293 5.793C4.33967 5.74633 4.39 5.705 4.444 5.669C4.49867 5.63233 4.55633 5.60133 4.617 5.576C4.67767 5.55067 4.74033 5.53167 4.805 5.519C4.86967 5.50633 4.93467 5.5 5 5.5Z" fill="#573439"/>
        <path d="M2 15.5H26C27.3333 15.5 28 16.1667 28 17.5V25.5C28 26.8333 27.3333 27.5 26 27.5H2C0.666667 27.5 0 26.8333 0 25.5V17.5C0 16.1667 0.666667 15.5 2 15.5Z" fill="#FFCA00"/>
        <path d="M15 20.5H23C23.0653 20.5 23.1303 20.5067 23.195 20.52C23.2597 20.532 23.3223 20.5507 23.383 20.576C23.443 20.6013 23.5007 20.6323 23.556 20.669C23.61 20.705 23.6603 20.7463 23.707 20.793C23.7537 20.8397 23.795 20.89 23.831 20.944C23.8677 20.9987 23.8987 21.0563 23.924 21.117C23.9493 21.1777 23.9683 21.2403 23.981 21.305C23.9937 21.3697 24 21.4347 24 21.5C24 21.5653 23.9933 21.6303 23.98 21.695C23.968 21.7597 23.9493 21.8223 23.924 21.883C23.8987 21.943 23.8677 22.0007 23.831 22.056C23.795 22.11 23.7537 22.1603 23.707 22.207C23.6603 22.2537 23.61 22.295 23.556 22.331C23.5013 22.3677 23.4437 22.3987 23.383 22.424C23.3223 22.4493 23.2597 22.4683 23.195 22.481C23.1303 22.4937 23.0653 22.5 23 22.5H15C14.9347 22.5 14.8697 22.4933 14.805 22.48C14.7403 22.468 14.6777 22.4493 14.617 22.424C14.557 22.3987 14.4993 22.3677 14.444 22.331C14.39 22.295 14.3397 22.2537 14.293 22.207C14.2463 22.1603 14.205 22.11 14.169 22.056C14.1323 22.0013 14.1013 21.9437 14.076 21.883C14.0507 21.8223 14.0317 21.7597 14.019 21.695C14.0063 21.6303 14 21.5653 14 21.5C14 21.4347 14.0067 21.3697 14.02 21.305C14.032 21.2403 14.0507 21.1777 14.076 21.117C14.1013 21.057 14.1323 20.9993 14.169 20.944C14.205 20.89 14.2463 20.8397 14.293 20.793C14.3397 20.7463 14.39 20.705 14.444 20.669C14.4987 20.6323 14.5563 20.6013 14.617 20.576C14.6777 20.5507 14.7403 20.5317 14.805 20.519C14.8697 20.5063 14.9347 20.5 15 20.5Z" fill="#573439"/>
    </g>
    <defs>
        <clipPath id="clip0_7051_87034">
            <rect width="28" height="28" fill="white"/>
        </clipPath>
    </defs>
</svg>
