<svg width="40" height="40" viewBox="0 0 40 40" fill="none" xmlns="http://www.w3.org/2000/svg">
    <path d="M7.75 4C7.75 2.20508 9.20508 0.75 11 0.75H27C27.1212 0.75 27.2375 0.798159 27.3232 0.883885L38.1161 11.6768C38.2018 11.7625 38.25 11.8788 38.25 12V36C38.25 37.7949 36.7949 39.25 35 39.25H11C9.20507 39.25 7.75 37.7949 7.75 36V4Z" fill="white" stroke="#D0D5DD" stroke-width="1.5"/>
    <path d="M27 0.5V8C27 10.2091 28.7909 12 31 12H38.5" stroke="#D0D5DD" stroke-width="1.5"/>
    <rect y="18" width="28" height="16" rx="2" fill="#444CE7"/>
    <path d="M3.8655 30V22.7273H5.40314V25.728H8.52459V22.7273H10.0587V30H8.52459V26.9957H5.40314V30H3.8655ZM15.2718 24.8189C15.2433 24.5324 15.1214 24.3099 14.906 24.1513C14.6905 23.9927 14.3982 23.9134 14.0289 23.9134C13.7779 23.9134 13.566 23.9489 13.3932 24.0199C13.2204 24.0885 13.0878 24.1844 12.9955 24.3075C12.9055 24.4306 12.8605 24.5703 12.8605 24.7266C12.8558 24.8568 12.883 24.9704 12.9422 25.0675C13.0038 25.1645 13.0878 25.2486 13.1943 25.3196C13.3009 25.3883 13.424 25.4486 13.5637 25.5007C13.7033 25.5504 13.8525 25.593 14.0111 25.6286L14.6645 25.7848C14.9817 25.8558 15.2729 25.9505 15.5381 26.0689C15.8032 26.1873 16.0329 26.3329 16.227 26.5057C16.4211 26.6785 16.5715 26.8821 16.678 27.1165C16.7869 27.3509 16.8425 27.6196 16.8449 27.9226C16.8425 28.3677 16.7289 28.7536 16.504 29.0803C16.2815 29.4046 15.9595 29.6567 15.5381 29.8366C15.1191 30.0142 14.6136 30.103 14.0218 30.103C13.4346 30.103 12.9233 30.013 12.4877 29.8331C12.0544 29.6532 11.7159 29.3868 11.472 29.0341C11.2306 28.679 11.1039 28.2398 11.0921 27.7166H12.58C12.5966 27.9605 12.6664 28.1641 12.7895 28.3274C12.915 28.4884 13.0819 28.6103 13.2902 28.6932C13.5009 28.7737 13.7388 28.8139 14.004 28.8139C14.2644 28.8139 14.4905 28.776 14.6823 28.7003C14.8764 28.6245 15.0267 28.5192 15.1333 28.3842C15.2398 28.2493 15.2931 28.0942 15.2931 27.919C15.2931 27.7557 15.2445 27.6184 15.1475 27.5071C15.0528 27.3958 14.9131 27.3011 14.7284 27.223C14.5461 27.1449 14.3224 27.0739 14.0573 27.0099L13.2654 26.8111C12.6522 26.6619 12.1681 26.4287 11.8129 26.1115C11.4578 25.7943 11.2815 25.367 11.2838 24.8295C11.2815 24.3892 11.3986 24.0045 11.6354 23.6754C11.8745 23.3464 12.2024 23.0895 12.6191 22.9048C13.0357 22.7202 13.5092 22.6278 14.0395 22.6278C14.5793 22.6278 15.0504 22.7202 15.4529 22.9048C15.8577 23.0895 16.1726 23.3464 16.3975 23.6754C16.6224 24.0045 16.7384 24.3857 16.7455 24.8189H15.2718Z" fill="white"/>
    <path d="M24.2961 25.2734H22.7407C22.7123 25.0722 22.6543 24.8935 22.5667 24.7372C22.4791 24.5786 22.3666 24.4437 22.2293 24.3324C22.092 24.2211 21.9334 24.1359 21.7535 24.0767C21.5759 24.0175 21.383 23.9879 21.1746 23.9879C20.7982 23.9879 20.4703 24.0814 20.191 24.2685C19.9116 24.4531 19.695 24.723 19.5411 25.0781C19.3872 25.4309 19.3103 25.8594 19.3103 26.3636C19.3103 26.8821 19.3872 27.3177 19.5411 27.6705C19.6974 28.0232 19.9152 28.2895 20.1945 28.4695C20.4739 28.6494 20.797 28.7393 21.164 28.7393C21.3699 28.7393 21.5605 28.7121 21.7357 28.6577C21.9133 28.6032 22.0707 28.5239 22.208 28.4197C22.3453 28.3132 22.459 28.1842 22.5489 28.0327C22.6412 27.8812 22.7052 27.7083 22.7407 27.5142L24.2961 27.5213C24.2558 27.8551 24.1552 28.1771 23.9942 28.4872C23.8356 28.795 23.6214 29.0708 23.3515 29.3146C23.084 29.5561 22.7644 29.7479 22.3927 29.8899C22.0233 30.0296 21.6055 30.0994 21.1391 30.0994C20.4904 30.0994 19.9104 29.9527 19.3991 29.6591C18.8901 29.3655 18.4876 28.9406 18.1917 28.3842C17.8981 27.8279 17.7513 27.1544 17.7513 26.3636C17.7513 25.5705 17.9005 24.8958 18.1988 24.3395C18.4971 23.7831 18.9019 23.3594 19.4133 23.0682C19.9246 22.7746 20.4999 22.6278 21.1391 22.6278C21.5605 22.6278 21.9511 22.687 22.311 22.8054C22.6732 22.9238 22.994 23.0966 23.2733 23.3239C23.5527 23.5488 23.78 23.8246 23.9552 24.1513C24.1327 24.478 24.2464 24.852 24.2961 25.2734Z" fill="#444CE7"/>
</svg>
