<svg width="44" height="40" viewBox="0 0 44 40" fill="none" xmlns="http://www.w3.org/2000/svg">
    <path d="M39 39.25H15C13.2051 39.25 11.75 37.7949 11.75 36V4C11.75 2.20508 13.2051 0.75 15 0.75H31C31.1212 0.75 31.2375 0.798159 31.3232 0.883883L42.1161 11.6768C42.2018 11.7625 42.25 11.8788 42.25 12V36C42.25 37.7949 40.7949 39.25 39 39.25Z" fill="white" stroke="#D0D5DD" stroke-width="1.5"/>
    <path d="M31 0.5V8C31 10.2091 32.7909 12 35 12H42.5" stroke="#D0D5DD" stroke-width="1.5"/>
    <rect x="0.5" y="18" width="35" height="16" rx="2" fill="#088AB2"/>
    <path d="M4.14968 30V22.7273H5.68732V25.728H8.80877V22.7273H10.3429V30H8.80877V26.9957H5.68732V30H4.14968ZM11.3336 23.995V22.7273H17.3066V23.995H15.0801V30H13.5602V23.995H11.3336ZM18.2903 22.7273H20.1866L22.1895 27.6136H22.2747L24.2775 22.7273H26.1738V30H24.6824V25.2663H24.622L22.7399 29.9645H21.7243L19.8422 25.2486H19.7818V30H18.2903V22.7273ZM27.4407 30V22.7273H28.9783V28.7322H32.0962V30H27.4407Z" fill="white"/>
</svg>
