<svg width="40" height="40" viewBox="0 0 40 40" fill="none" xmlns="http://www.w3.org/2000/svg">
    <path d="M7.75 4C7.75 2.20508 9.20508 0.75 11 0.75H27C27.1212 0.75 27.2375 0.798159 27.3232 0.883885L38.1161 11.6768C38.2018 11.7625 38.25 11.8788 38.25 12V36C38.25 37.7949 36.7949 39.25 35 39.25H11C9.20507 39.25 7.75 37.7949 7.75 36V4Z" fill="white" stroke="#D0D5DD" stroke-width="1.5"/>
    <path d="M27 0.5V8C27 10.2091 28.7909 12 31 12H38.5" stroke="#D0D5DD" stroke-width="1.5"/>
    <rect x="4.5" y="18" width="19" height="16" rx="2" fill="#444CE7"/>
    <path d="M9.69025 22.7273V30H8.15261V22.7273H9.69025ZM17.0384 22.7273V30H15.7103L12.5463 25.4226H12.493V30H10.9553V22.7273H12.3048L15.444 27.3011H15.5079V22.7273H17.0384ZM19.8465 22.7273V30H18.3089V22.7273H19.8465Z" fill="white"/>
</svg>
