<svg t="1736651714345" class="icon" viewBox="0 0 1024 1024" version="1.1" xmlns="http://www.w3.org/2000/svg" p-id="9062"
     width="32" height="32">
    <path d="M512 308.5m-138.8 0a138.8 138.8 0 1 0 277.6 0 138.8 138.8 0 1 0-277.6 0Z" fill="#FFFFFF"
          p-id="9063"></path>
    <path d="M671.8 153.4c-88.2-88.3-231.3-88.3-319.6 0-42.4 42.4-66.2 99.9-66.2 159.8 1.9 37.4 11 74.1 26.7 108.1 16.6 38.6 36.3 75.8 59.1 111.1 20.2 32 43 62.3 68.2 90.5 29.1 31.5 51.4 45.9 72 45.9s42.8-14.1 72-45.9c25.2-28.2 48-58.5 68.2-90.5 22.8-35.3 42.6-72.5 59.1-111.1 15.8-34 24.9-70.7 26.7-108.1 0.3-60-23.6-117.5-66.2-159.8zM512 417.7C450.5 417.7 400.7 367.9 400.7 306.4s49.8-111.3 111.3-111.3 111.3 49.8 111.3 111.3c0 61.4-49.8 111.3-111.3 111.3z m0 381.6H166.4c-55.5-1.3-99.5-47.4-98.2-103 1.3-53.7 44.5-96.9 98.2-98.2H305.7c17.6-0.5 32.2 13.3 32.8 30.8s-13.3 32.2-30.8 32.8H166.4c-20.4 1.1-36.1 18.6-34.9 39 1 18.8 16.1 33.9 34.9 34.9h345.6c17.6-0.5 32.2 13.3 32.8 30.8 0.5 17.6-13.3 32.2-30.8 32.8-0.7 0.2-1.4 0.2-2 0.1z"
          fill="#1296db" p-id="9064"></path>
    <path d="M857.6 936.8H626.5c-17.6 0.5-32.2-13.3-32.8-30.8-0.5-17.6 13.3-32.2 30.8-32.8h233c20.4-1.1 36.1-18.6 34.9-39-1-18.8-16.1-33.9-34.9-34.9H328.7c-17.6 0.5-32.2-13.3-32.8-30.8-0.5-17.6 13.3-32.2 30.8-32.8h530.8c55.5 1.3 99.5 47.4 98.2 103-1.2 53.6-44.4 96.8-98.1 98.1z"
          fill="#1296db" p-id="9065"></path>
</svg>