<svg width="40" height="40" viewBox="0 0 40 40" fill="none" xmlns="http://www.w3.org/2000/svg">
    <path d="M7.75 4C7.75 2.20508 9.20508 0.75 11 0.75H27C27.1212 0.75 27.2375 0.798159 27.3232 0.883885L38.1161 11.6768C38.2018 11.7625 38.25 11.8788 38.25 12V36C38.25 37.7949 36.7949 39.25 35 39.25H11C9.20507 39.25 7.75 37.7949 7.75 36V4Z" fill="white" stroke="#D0D5DD" stroke-width="1.5"/>
    <path d="M27 0.5V8C27 10.2091 28.7909 12 31 12H38.5" stroke="#D0D5DD" stroke-width="1.5"/>
    <rect x="3" y="18" width="22" height="16" rx="2" fill="#B3B8DB"/>
    <path d="M8.21076 22.7273V30H6.67312V22.7273H8.21076ZM9.47585 30V22.7273H12.3452C12.8968 22.7273 13.3667 22.8326 13.755 23.0433C14.1432 23.2517 14.4392 23.5417 14.6428 23.9134C14.8487 24.2827 14.9517 24.7088 14.9517 25.1918C14.9517 25.6747 14.8475 26.1009 14.6392 26.4702C14.4309 26.8395 14.129 27.1271 13.7337 27.3331C13.3407 27.5391 12.8648 27.642 12.3061 27.642H10.4773V26.4098H12.0575C12.3535 26.4098 12.5973 26.3589 12.7891 26.2571C12.9832 26.1529 13.1276 26.0097 13.2223 25.8274C13.3194 25.6428 13.3679 25.4309 13.3679 25.1918C13.3679 24.9503 13.3194 24.7396 13.2223 24.5597C13.1276 24.3774 12.9832 24.2365 12.7891 24.1371C12.5949 24.0353 12.3487 23.9844 12.0504 23.9844H11.0135V30H9.47585ZM16.3642 30H14.7164L17.2271 22.7273H19.2086L21.7157 30H20.068L18.2463 24.3892H18.1895L16.3642 30ZM16.2612 27.1413H20.1532V28.3416H16.2612V27.1413Z" fill="white"/>
</svg>
