<svg width="40" height="40" viewBox="0 0 40 40" fill="none" xmlns="http://www.w3.org/2000/svg">
    <path d="M7.75 4C7.75 2.20508 9.20508 0.75 11 0.75H27C27.1212 0.75 27.2375 0.798159 27.3232 0.883885L38.1161 11.6768C38.2018 11.7625 38.25 11.8788 38.25 12V36C38.25 37.7949 36.7949 39.25 35 39.25H11C9.20507 39.25 7.75 37.7949 7.75 36V4Z" fill="white" stroke="#D0D5DD" stroke-width="1.5"/>
    <path d="M27 0.5V8C27 10.2091 28.7909 12 31 12H38.5" stroke="#D0D5DD" stroke-width="1.5"/>
    <rect x="2" y="18" width="24" height="16" rx="2" fill="#B3B8DB"/>
    <path d="M7.58088 22.7273V30H6.04324V22.7273H7.58088ZM12.7913 24.8189C12.7629 24.5324 12.641 24.3099 12.4255 24.1513C12.2101 23.9927 11.9177 23.9134 11.5484 23.9134C11.2974 23.9134 11.0856 23.9489 10.9127 24.0199C10.7399 24.0885 10.6073 24.1844 10.515 24.3075C10.425 24.4306 10.3801 24.5703 10.3801 24.7266C10.3753 24.8568 10.4026 24.9704 10.4617 25.0675C10.5233 25.1645 10.6073 25.2486 10.7139 25.3196C10.8204 25.3883 10.9435 25.4486 11.0832 25.5007C11.2229 25.5504 11.372 25.593 11.5306 25.6286L12.184 25.7848C12.5013 25.8558 12.7925 25.9505 13.0576 26.0689C13.3228 26.1873 13.5524 26.3329 13.7465 26.5057C13.9407 26.6785 14.091 26.8821 14.1975 27.1165C14.3064 27.3509 14.3621 27.6196 14.3644 27.9226C14.3621 28.3677 14.2484 28.7536 14.0235 29.0803C13.801 29.4046 13.479 29.6567 13.0576 29.8366C12.6386 30.0142 12.1331 30.103 11.5413 30.103C10.9542 30.103 10.4428 30.013 10.0072 29.8331C9.57395 29.6532 9.23541 29.3868 8.99157 29.0341C8.75009 28.679 8.62343 28.2398 8.61159 27.7166H10.0995C10.1161 27.9605 10.1859 28.1641 10.309 28.3274C10.4345 28.4884 10.6014 28.6103 10.8097 28.6932C11.0204 28.7737 11.2584 28.8139 11.5235 28.8139C11.7839 28.8139 12.01 28.776 12.2018 28.7003C12.3959 28.6245 12.5463 28.5192 12.6528 28.3842C12.7593 28.2493 12.8126 28.0942 12.8126 27.919C12.8126 27.7557 12.7641 27.6184 12.667 27.5071C12.5723 27.3958 12.4326 27.3011 12.248 27.223C12.0657 27.1449 11.8419 27.0739 11.5768 27.0099L10.7849 26.8111C10.1717 26.6619 9.68759 26.4287 9.33248 26.1115C8.97736 25.7943 8.80099 25.367 8.80336 24.8295C8.80099 24.3892 8.91818 24.0045 9.15492 23.6754C9.39403 23.3464 9.72192 23.0895 10.1386 22.9048C10.5552 22.7202 11.0287 22.6278 11.559 22.6278C12.0988 22.6278 12.5699 22.7202 12.9724 22.9048C13.3772 23.0895 13.6921 23.3464 13.917 23.6754C14.1419 24.0045 14.2579 24.3857 14.265 24.8189H12.7913ZM22.0819 26.3636C22.0819 27.1567 21.9316 27.8314 21.6309 28.3878C21.3327 28.9441 20.9255 29.3691 20.4094 29.6626C19.8956 29.9538 19.318 30.0994 18.6764 30.0994C18.0301 30.0994 17.4501 29.9527 16.9363 29.6591C16.4226 29.3655 16.0166 28.9406 15.7183 28.3842C15.42 27.8279 15.2709 27.1544 15.2709 26.3636C15.2709 25.5705 15.42 24.8958 15.7183 24.3395C16.0166 23.7831 16.4226 23.3594 16.9363 23.0682C17.4501 22.7746 18.0301 22.6278 18.6764 22.6278C19.318 22.6278 19.8956 22.7746 20.4094 23.0682C20.9255 23.3594 21.3327 23.7831 21.6309 24.3395C21.9316 24.8958 22.0819 25.5705 22.0819 26.3636ZM20.523 26.3636C20.523 25.8499 20.4461 25.4167 20.2922 25.0639C20.1407 24.7112 19.9264 24.4437 19.6494 24.2614C19.3724 24.0791 19.0481 23.9879 18.6764 23.9879C18.3047 23.9879 17.9804 24.0791 17.7034 24.2614C17.4264 24.4437 17.211 24.7112 17.0571 25.0639C16.9056 25.4167 16.8298 25.8499 16.8298 26.3636C16.8298 26.8774 16.9056 27.3106 17.0571 27.6634C17.211 28.0161 17.4264 28.2836 17.7034 28.4659C17.9804 28.6482 18.3047 28.7393 18.6764 28.7393C19.0481 28.7393 19.3724 28.6482 19.6494 28.4659C19.9264 28.2836 20.1407 28.0161 20.2922 27.6634C20.4461 27.3106 20.523 26.8774 20.523 26.3636Z" fill="white"/>
</svg>
