<svg width="40" height="40" viewBox="0 0 40 40" fill="none" xmlns="http://www.w3.org/2000/svg">
    <path d="M7.75 4C7.75 2.20508 9.20508 0.75 11 0.75H27C27.1212 0.75 27.2375 0.798159 27.3232 0.883885L38.1161 11.6768C38.2018 11.7625 38.25 11.8788 38.25 12V36C38.25 37.7949 36.7949 39.25 35 39.25H11C9.20507 39.25 7.75 37.7949 7.75 36V4Z" fill="white" stroke="#D0D5DD" stroke-width="1.5"/>
    <path d="M27 0.5V8C27 10.2091 28.7909 12 31 12H38.5" stroke="#D0D5DD" stroke-width="1.5"/>
    <rect x="1" y="18" width="26" height="16" rx="2" fill="#444CE7"/>
    <path d="M7.84189 22.7273H9.36177V27.7983C9.36177 28.267 9.25642 28.6742 9.04572 29.0199C8.83739 29.3655 8.54738 29.6319 8.17569 29.8189C7.80401 30.0059 7.37195 30.0994 6.87953 30.0994C6.44155 30.0994 6.04383 30.0225 5.68635 29.8686C5.33123 29.7124 5.04951 29.4756 4.84118 29.1584C4.63284 28.8388 4.52986 28.4375 4.53223 27.9545H6.06277C6.0675 28.1463 6.10656 28.3108 6.17995 28.4482C6.25571 28.5831 6.35869 28.6873 6.4889 28.7607C6.62148 28.8317 6.77773 28.8672 6.95765 28.8672C7.14705 28.8672 7.30685 28.8269 7.43706 28.7464C7.56963 28.6636 7.67025 28.5429 7.7389 28.3842C7.80756 28.2256 7.84189 28.0303 7.84189 27.7983V22.7273ZM14.5784 24.8189C14.55 24.5324 14.4281 24.3099 14.2126 24.1513C13.9972 23.9927 13.7048 23.9134 13.3355 23.9134C13.0845 23.9134 12.8727 23.9489 12.6998 24.0199C12.527 24.0885 12.3944 24.1844 12.3021 24.3075C12.2122 24.4306 12.1672 24.5703 12.1672 24.7266C12.1624 24.8568 12.1897 24.9704 12.2488 25.0675C12.3104 25.1645 12.3944 25.2486 12.501 25.3196C12.6075 25.3883 12.7306 25.4486 12.8703 25.5007C13.01 25.5504 13.1591 25.593 13.3177 25.6286L13.9711 25.7848C14.2884 25.8558 14.5796 25.9505 14.8447 26.0689C15.1099 26.1873 15.3395 26.3329 15.5336 26.5057C15.7278 26.6785 15.8781 26.8821 15.9846 27.1165C16.0935 27.3509 16.1492 27.6196 16.1515 27.9226C16.1492 28.3677 16.0355 28.7536 15.8106 29.0803C15.5881 29.4046 15.2661 29.6567 14.8447 29.8366C14.4257 30.0142 13.9202 30.103 13.3284 30.103C12.7413 30.103 12.2299 30.013 11.7943 29.8331C11.3611 29.6532 11.0225 29.3868 10.7787 29.0341C10.5372 28.679 10.4105 28.2398 10.3987 27.7166H11.8866C11.9032 27.9605 11.973 28.1641 12.0961 28.3274C12.2216 28.4884 12.3885 28.6103 12.5969 28.6932C12.8076 28.7737 13.0455 28.8139 13.3106 28.8139C13.5711 28.8139 13.7971 28.776 13.9889 28.7003C14.183 28.6245 14.3334 28.5192 14.4399 28.3842C14.5464 28.2493 14.5997 28.0942 14.5997 27.919C14.5997 27.7557 14.5512 27.6184 14.4541 27.5071C14.3594 27.3958 14.2197 27.3011 14.0351 27.223C13.8528 27.1449 13.6291 27.0739 13.3639 27.0099L12.572 26.8111C11.9588 26.6619 11.4747 26.4287 11.1196 26.1115C10.7645 25.7943 10.5881 25.367 10.5905 24.8295C10.5881 24.3892 10.7053 24.0045 10.942 23.6754C11.1811 23.3464 11.509 23.0895 11.9257 22.9048C12.3424 22.7202 12.8158 22.6278 13.3461 22.6278C13.8859 22.6278 14.357 22.7202 14.7595 22.9048C15.1643 23.0895 15.4792 23.3464 15.7041 23.6754C15.929 24.0045 16.045 24.3857 16.0521 24.8189H14.5784ZM18.6276 22.7273L20.0942 25.206H20.151L21.6247 22.7273H23.3612L21.1418 26.3636L23.411 30H21.6425L20.151 27.5178H20.0942L18.6027 30H16.8414L19.1176 26.3636L16.884 22.7273H18.6276Z" fill="white"/>
</svg>
