<svg width="48" height="48" viewBox="0 0 48 48" fill="none" xmlns="http://www.w3.org/2000/svg">
    <g clip-path="url(#clip0_1254_16902)">
        <path d="M23.9485 47.9437C10.7462 47.9437 0 37.2021 0 23.9998C0 10.7975 10.7462 0.0512695 23.9485 0.0512695C37.1509 0.0512695 47.8971 10.7928 47.8971 23.9998C47.8924 37.2021 37.1509 47.9437 23.9485 47.9437ZM23.9485 1.26764C11.4105 1.26764 1.21637 11.4618 1.21637 23.9998C1.21637 36.5331 11.4152 46.732 23.9485 46.732C36.4819 46.732 46.6807 36.5331 46.6807 23.9998C46.6807 11.4618 36.4819 1.26764 23.9485 1.26764Z" fill="#4E5BA6"/>
        <path d="M16.6316 12.0703H11.3544C10.8258 12.0703 10.386 12.4305 10.386 12.8703V35.7428C10.386 36.1873 10.8117 36.5428 11.3544 36.5428H16.6176C17.1462 36.5428 17.586 36.1826 17.586 35.7428V12.889C17.586 12.4493 17.1603 12.0703 16.6316 12.0703ZM13.8901 34.7183C12.6971 34.7183 11.7427 33.7639 11.7427 32.5709C11.7427 31.3779 12.6971 30.4235 13.8901 30.4235C15.0831 30.4235 16.0374 31.3779 16.0374 32.5709C16.0374 33.7639 15.0831 34.7183 13.8901 34.7183ZM16.4117 27.9159C16.4117 28.0516 16.3088 28.1545 16.1731 28.1545H11.7474C11.6117 28.1545 11.5088 28.0516 11.5088 27.9159V14.8867C11.5088 14.751 11.6117 14.6481 11.7474 14.6481H16.1591C16.2948 14.6481 16.3977 14.751 16.3977 14.8867V27.9159H16.4117Z" fill="#4E5BA6"/>
        <path d="M12.1169 32.5709C12.1169 33.5487 12.9076 34.344 13.89 34.344C14.8725 34.344 15.6631 33.5487 15.6631 32.5709C15.6631 31.5931 14.8725 30.7978 13.89 30.7978C12.9076 30.7978 12.1169 31.5931 12.1169 32.5709ZM15.593 15.6727H12.393C12.2573 15.6727 12.1357 15.7943 12.1357 15.93V17.1557C12.1357 17.2914 12.2526 17.413 12.393 17.413H15.6117C15.7474 17.413 15.869 17.2914 15.869 17.1557V15.944C15.8456 15.7896 15.7474 15.6727 15.593 15.6727ZM15.593 24.0937H12.393C12.3228 24.0937 12.2573 24.1452 12.2573 24.2294V24.4867C12.2573 24.5569 12.3088 24.6224 12.393 24.6224H15.6117C15.6819 24.6224 15.7474 24.5709 15.7474 24.4867V24.2341C15.7286 24.1452 15.6585 24.0937 15.593 24.0937ZM15.593 25.3241H12.393C12.3228 25.3241 12.2573 25.3756 12.2573 25.4598V25.7171C12.2573 25.7873 12.3088 25.8528 12.393 25.8528H15.6117C15.6819 25.8528 15.7474 25.8013 15.7474 25.7171V25.4598C15.7286 25.3756 15.6585 25.3241 15.593 25.3241ZM15.593 26.5358H12.393C12.3228 26.5358 12.2573 26.5873 12.2573 26.6715V26.9288C12.2573 26.999 12.3088 27.0645 12.393 27.0645H15.6117C15.6819 27.0645 15.7474 27.013 15.7474 26.9288V26.6715C15.7286 26.6013 15.6585 26.5358 15.593 26.5358ZM25.1462 12.0703H19.883C19.3544 12.0703 18.9146 12.4305 18.9146 12.8703V35.7428C18.9146 36.1873 19.3403 36.5428 19.883 36.5428H25.1462C25.6748 36.5428 26.1146 36.1826 26.1146 35.7428V12.889C26.1146 12.4493 25.6702 12.0703 25.1462 12.0703ZM22.4047 34.7183C21.2117 34.7183 20.2573 33.7639 20.2573 32.5709C20.2573 31.3779 21.2117 30.4235 22.4047 30.4235C23.5976 30.4235 24.552 31.3779 24.552 32.5709C24.552 33.7639 23.593 34.7183 22.4047 34.7183ZM24.9216 27.9159C24.9216 28.0516 24.8187 28.1545 24.683 28.1545H20.2573C20.1216 28.1545 20.0187 28.0516 20.0187 27.9159V14.8867C20.0187 14.751 20.1216 14.6481 20.2573 14.6481H24.683C24.8187 14.6481 24.9216 14.751 24.9216 14.8867V27.9159Z" fill="#4E5BA6"/>
        <path d="M20.6316 32.5707C20.6316 33.5484 21.4222 34.3437 22.4047 34.3437C23.3871 34.3437 24.1778 33.5484 24.1778 32.5707C24.1778 31.5929 23.3871 30.7976 22.4047 30.7976C21.4222 30.7976 20.6316 31.5929 20.6316 32.5707ZM24.1216 15.6724H20.9029C20.7673 15.6724 20.6456 15.794 20.6456 15.9297V17.1554C20.6456 17.2911 20.7626 17.4128 20.9029 17.4128H24.1216C24.2573 17.4128 24.379 17.2911 24.379 17.1554V15.9437C24.379 15.7894 24.2573 15.6724 24.1216 15.6724ZM24.1216 24.0935H20.9029C20.8328 24.0935 20.7673 24.1449 20.7673 24.2291V24.4864C20.7673 24.5566 20.8187 24.6221 20.9029 24.6221H24.1216C24.1918 24.6221 24.2573 24.5707 24.2573 24.4864V24.2338C24.2433 24.1449 24.1918 24.0935 24.1216 24.0935ZM24.1216 25.3239H20.9029C20.8328 25.3239 20.7673 25.3753 20.7673 25.4595V25.7169C20.7673 25.787 20.8187 25.8525 20.9029 25.8525H24.1216C24.1918 25.8525 24.2573 25.8011 24.2573 25.7169V25.4595C24.2433 25.3753 24.1918 25.3239 24.1216 25.3239ZM24.1216 26.5356H20.9029C20.8328 26.5356 20.7673 26.587 20.7673 26.6712V26.9285C20.7673 26.9987 20.8187 27.0642 20.9029 27.0642H24.1216C24.1918 27.0642 24.2573 27.0128 24.2573 26.9285V26.6712C24.2433 26.6011 24.1918 26.5356 24.1216 26.5356ZM39.5322 34.1052L33.6234 12.0233C33.5064 11.5976 32.9918 11.359 32.4819 11.4946L27.3918 12.8607C26.8819 12.9964 26.5591 13.4595 26.676 13.8853L32.5848 35.9718C32.7018 36.3976 33.2164 36.6361 33.7263 36.5005L38.8164 35.1344C39.3263 34.994 39.6491 34.5309 39.5322 34.1052ZM31.9392 28.2712C31.8035 28.304 31.6678 28.2198 31.6304 28.1028L28.262 15.5321C28.2293 15.3964 28.3135 15.2607 28.4304 15.2233L32.6877 14.0818C32.8234 14.049 32.9591 14.1145 32.9965 14.2502L36.3696 26.8209C36.4024 26.9566 36.3181 27.0923 36.2012 27.1297L31.9392 28.2712ZM35.7006 34.0724C34.5591 34.3812 33.3848 33.6981 33.0807 32.5566C32.7719 31.4151 33.455 30.2361 34.5965 29.9321C35.738 29.6233 36.9123 30.3063 37.2164 31.4478C37.5252 32.5894 36.8421 33.7636 35.7006 34.0724Z" fill="#4E5BA6"/>
        <path d="M33.3708 31.9906C33.3708 32.9684 34.1614 33.7637 35.1439 33.7637C36.1217 33.7637 36.917 32.9684 36.917 31.9906C36.917 31.0129 36.1263 30.2175 35.1439 30.2175C34.1614 30.2175 33.3708 31.0129 33.3708 31.9906ZM33.062 16.5895L32.7392 15.4105C32.7065 15.2748 32.5708 15.1906 32.4304 15.2234L29.3334 16.0608C29.1977 16.0936 29.1135 16.2292 29.1462 16.3696L29.469 17.5485C29.5018 17.6842 29.6375 17.7684 29.7778 17.7357L32.8749 16.8982C33.0106 16.8655 33.0948 16.7298 33.062 16.5895ZM34.8351 23.7052L34.7649 23.4479C34.7462 23.3778 34.6807 23.345 34.6106 23.3637L31.4948 24.2012C31.4246 24.2199 31.3918 24.2854 31.4106 24.3555L31.4807 24.6129C31.4994 24.683 31.5649 24.7158 31.6351 24.6971L34.7322 23.8596C34.7977 23.8409 34.8492 23.7707 34.8351 23.7052ZM35.1392 24.8795L35.069 24.6222C35.0503 24.552 34.9848 24.5193 34.9146 24.538L31.8176 25.3754C31.7474 25.3941 31.7146 25.4596 31.7334 25.5298L31.8035 25.7871C31.8223 25.8573 31.8877 25.89 31.9579 25.8713L35.055 25.0339C35.1205 25.0152 35.1579 24.9497 35.1392 24.8795ZM35.462 26.0585L35.3918 25.8012C35.3731 25.731 35.3076 25.6982 35.2375 25.7169L32.1404 26.5544C32.0702 26.5731 32.0375 26.6386 32.0562 26.7088L32.1263 26.9661C32.1451 27.0362 32.2106 27.069 32.2807 27.0503L35.3778 26.2129C35.4293 26.1941 35.4807 26.124 35.462 26.0585Z" fill="#4E5BA6"/>
    </g>
    <defs>
        <clipPath id="clip0_1254_16902">
            <rect width="48" height="48" fill="white"/>
        </clipPath>
    </defs>
</svg>
