<svg width="14" height="14" viewBox="0 0 14 14" fill="none" xmlns="http://www.w3.org/2000/svg">
    <path d="M7.58334 4.08333L6.93261 2.78187C6.74532 2.4073 6.65168 2.22001 6.51197 2.08318C6.38843 1.96218 6.23953 1.87015 6.07605 1.81376C5.89118 1.75 5.68179 1.75 5.26301 1.75H3.03334C2.37994 1.75 2.05325 1.75 1.80368 1.87716C1.58416 1.98901 1.40568 2.16749 1.29383 2.38701C1.16667 2.63657 1.16667 2.96327 1.16667 3.61667V4.08333M1.16667 4.08333H10.0333C11.0134 4.08333 11.5035 4.08333 11.8778 4.27407C12.2071 4.44185 12.4748 4.70957 12.6426 5.03885C12.8333 5.4132 12.8333 5.90324 12.8333 6.88333V9.45C12.8333 10.4301 12.8333 10.9201 12.6426 11.2945C12.4748 11.6238 12.2071 11.8915 11.8778 12.0593C11.5035 12.25 11.0134 12.25 10.0333 12.25H3.96667C2.98658 12.25 2.49653 12.25 2.12219 12.0593C1.7929 11.8915 1.52519 11.6238 1.35741 11.2945C1.16667 10.9201 1.16667 10.4301 1.16667 9.45V4.08333Z"
          stroke="#667085" stroke-linecap="round" stroke-linejoin="round"/>
</svg>
