<svg t="1754034846911" class="icon" viewBox="0 0 1024 1024" version="1.1" xmlns="http://www.w3.org/2000/svg" p-id="5549"
     width="200" height="200">
    <path d="M950.707228 786.042423L823.955406 659.290601c-11.320836-11.31879-32.8205-12.743232-38.947034 2.045589-1.638313 3.952009-2.045589 15.069207-2.045589 15.069207v85.653799H353.893564c-57.099463 0-103.552447-46.454008-103.552447-103.551424 0-57.099463 46.454008-103.553471 103.552447-103.553471h46.981011v0.001023h342.200756c106.150622 0 192.511525-86.360903 192.511525-192.511525 0-106.151645-86.360903-192.511525-192.511525-192.511525H362.198717C343.132476 107.739816 285.176506 62.388932 216.822722 62.388932c-83.825151 0-152.020322 68.196195-152.020322 152.020323 0 83.825151 68.196195 152.020322 152.020322 152.020322 68.353784 0 126.309754-45.349861 145.375995-107.541295h380.877637c57.099463 0 103.552447 46.454008 103.552448 103.552447 0 57.099463-46.454008 103.552447-103.552448 103.552448H353.893564c-106.151645 0-192.511525 86.360903-192.511525 192.512548 0 106.150622 86.360903 192.510502 192.511525 192.510502h429.069219v81.272002s-0.01228 12.440333 2.045589 17.405415c6.125511 14.788821 27.626197 15.409968 38.947034 4.090155L950.706205 827.031976c11.319813-11.317767 11.319813-29.671787 0.001023-40.989553z m-733.884506-508.570901c-34.771945 0-63.061244-28.290323-63.061244-63.061244s28.2893-63.061244 63.061244-63.061245c34.771945 0 63.061244 28.2893 63.061245 63.061245s-28.2893 63.061244-63.061245 63.061244z"
          fill="" p-id="5550"></path>
</svg>