<svg width="149" height="52" viewBox="0 0 149 52" fill="none" xmlns="http://www.w3.org/2000/svg">
    <g clip-path="url(#clip0_23_668)">
        <path d="M9.53834 3.60996C9.70914 3.19932 10.2909 3.19932 10.4617 3.60996L12.5278 8.57744C12.5998 8.75056 12.7626 8.86885 12.9495 8.88383L18.3123 9.31376C18.7556 9.3493 18.9354 9.90256 18.5976 10.1919L14.5117 13.6919C14.3693 13.8139 14.3071 14.0053 14.3506 14.1876L15.5989 19.4208C15.7021 19.8534 15.2315 20.1954 14.8519 19.9635L10.2606 17.1592C10.1006 17.0615 9.89938 17.0615 9.73937 17.1592L5.14806 19.9635C4.76851 20.1954 4.29788 19.8534 4.40108 19.4208L5.64939 14.1876C5.69289 14.0053 5.6307 13.8139 5.48831 13.6919L1.40241 10.1919C1.06464 9.90256 1.24441 9.3493 1.68773 9.31376L7.05054 8.88383C7.23744 8.86885 7.40024 8.75056 7.47225 8.57744L9.53834 3.60996Z" fill="#F2F4F7"/>
        <g clip-path="url(#clip1_23_668)">
            <path d="M9.53834 3.60996C9.70914 3.19932 10.2909 3.19932 10.4617 3.60996L12.5278 8.57744C12.5998 8.75056 12.7626 8.86885 12.9495 8.88383L18.3123 9.31376C18.7556 9.3493 18.9354 9.90256 18.5976 10.1919L14.5117 13.6919C14.3693 13.8139 14.3071 14.0053 14.3506 14.1876L15.5989 19.4208C15.7021 19.8534 15.2315 20.1954 14.8519 19.9635L10.2606 17.1592C10.1006 17.0615 9.89938 17.0615 9.73937 17.1592L5.14806 19.9635C4.76851 20.1954 4.29788 19.8534 4.40108 19.4208L5.64939 14.1876C5.69289 14.0053 5.6307 13.8139 5.48831 13.6919L1.40241 10.1919C1.06464 9.90256 1.24441 9.3493 1.68773 9.31376L7.05054 8.88383C7.23744 8.86885 7.40024 8.75056 7.47225 8.57744L9.53834 3.60996Z" fill="#FEC84B"/>
        </g>
    </g>
    <g clip-path="url(#clip2_23_668)">
        <path d="M33.5383 3.60996C33.7091 3.19932 34.2909 3.19932 34.4617 3.60996L36.5278 8.57744C36.5998 8.75056 36.7626 8.86885 36.9495 8.88383L42.3123 9.31376C42.7556 9.3493 42.9354 9.90256 42.5976 10.1919L38.5117 13.6919C38.3693 13.8139 38.3071 14.0053 38.3506 14.1876L39.5989 19.4208C39.7021 19.8534 39.2315 20.1954 38.8519 19.9635L34.2606 17.1592C34.1006 17.0615 33.8994 17.0615 33.7394 17.1592L29.1481 19.9635C28.7685 20.1954 28.2979 19.8534 28.4011 19.4208L29.6494 14.1876C29.6929 14.0053 29.6307 13.8139 29.4883 13.6919L25.4024 10.1919C25.0646 9.90256 25.2444 9.3493 25.6877 9.31376L31.0505 8.88383C31.2374 8.86885 31.4002 8.75056 31.4722 8.57744L33.5383 3.60996Z" fill="#F2F4F7"/>
        <g clip-path="url(#clip3_23_668)">
            <path d="M33.5383 3.60996C33.7091 3.19932 34.2909 3.19932 34.4617 3.60996L36.5278 8.57744C36.5998 8.75056 36.7626 8.86885 36.9495 8.88383L42.3123 9.31376C42.7556 9.3493 42.9354 9.90256 42.5976 10.1919L38.5117 13.6919C38.3693 13.8139 38.3071 14.0053 38.3506 14.1876L39.5989 19.4208C39.7021 19.8534 39.2315 20.1954 38.8519 19.9635L34.2606 17.1592C34.1006 17.0615 33.8994 17.0615 33.7394 17.1592L29.1481 19.9635C28.7685 20.1954 28.2979 19.8534 28.4011 19.4208L29.6494 14.1876C29.6929 14.0053 29.6307 13.8139 29.4883 13.6919L25.4024 10.1919C25.0646 9.90256 25.2444 9.3493 25.6877 9.31376L31.0505 8.88383C31.2374 8.86885 31.4002 8.75056 31.4722 8.57744L33.5383 3.60996Z" fill="#FEC84B"/>
        </g>
    </g>
    <g clip-path="url(#clip4_23_668)">
        <path d="M57.5383 3.60996C57.7091 3.19932 58.2909 3.19932 58.4617 3.60996L60.5278 8.57744C60.5998 8.75056 60.7626 8.86885 60.9495 8.88383L66.3123 9.31376C66.7556 9.3493 66.9354 9.90256 66.5976 10.1919L62.5117 13.6919C62.3693 13.8139 62.3071 14.0053 62.3506 14.1876L63.5989 19.4208C63.7021 19.8534 63.2315 20.1954 62.8519 19.9635L58.2606 17.1592C58.1006 17.0615 57.8994 17.0615 57.7394 17.1592L53.1481 19.9635C52.7685 20.1954 52.2979 19.8534 52.4011 19.4208L53.6494 14.1876C53.6929 14.0053 53.6307 13.8139 53.4883 13.6919L49.4024 10.1919C49.0646 9.90256 49.2444 9.3493 49.6877 9.31376L55.0505 8.88383C55.2374 8.86885 55.4002 8.75056 55.4722 8.57744L57.5383 3.60996Z" fill="#F2F4F7"/>
        <g clip-path="url(#clip5_23_668)">
            <path d="M57.5383 3.60996C57.7091 3.19932 58.2909 3.19932 58.4617 3.60996L60.5278 8.57744C60.5998 8.75056 60.7626 8.86885 60.9495 8.88383L66.3123 9.31376C66.7556 9.3493 66.9354 9.90256 66.5976 10.1919L62.5117 13.6919C62.3693 13.8139 62.3071 14.0053 62.3506 14.1876L63.5989 19.4208C63.7021 19.8534 63.2315 20.1954 62.8519 19.9635L58.2606 17.1592C58.1006 17.0615 57.8994 17.0615 57.7394 17.1592L53.1481 19.9635C52.7685 20.1954 52.2979 19.8534 52.4011 19.4208L53.6494 14.1876C53.6929 14.0053 53.6307 13.8139 53.4883 13.6919L49.4024 10.1919C49.0646 9.90256 49.2444 9.3493 49.6877 9.31376L55.0505 8.88383C55.2374 8.86885 55.4002 8.75056 55.4722 8.57744L57.5383 3.60996Z" fill="#FEC84B"/>
        </g>
    </g>
    <g clip-path="url(#clip6_23_668)">
        <path d="M81.5383 3.60996C81.7091 3.19932 82.2909 3.19932 82.4617 3.60996L84.5278 8.57744C84.5998 8.75056 84.7626 8.86885 84.9495 8.88383L90.3123 9.31376C90.7556 9.3493 90.9354 9.90256 90.5976 10.1919L86.5117 13.6919C86.3693 13.8139 86.3071 14.0053 86.3506 14.1876L87.5989 19.4208C87.7021 19.8534 87.2315 20.1954 86.8519 19.9635L82.2606 17.1592C82.1006 17.0615 81.8994 17.0615 81.7394 17.1592L77.1481 19.9635C76.7685 20.1954 76.2979 19.8534 76.4011 19.4208L77.6494 14.1876C77.6929 14.0053 77.6307 13.8139 77.4883 13.6919L73.4024 10.1919C73.0646 9.90256 73.2444 9.3493 73.6877 9.31376L79.0505 8.88383C79.2374 8.86885 79.4002 8.75056 79.4722 8.57744L81.5383 3.60996Z" fill="#F2F4F7"/>
        <g clip-path="url(#clip7_23_668)">
            <path d="M81.5383 3.60996C81.7091 3.19932 82.2909 3.19932 82.4617 3.60996L84.5278 8.57744C84.5998 8.75056 84.7626 8.86885 84.9495 8.88383L90.3123 9.31376C90.7556 9.3493 90.9354 9.90256 90.5976 10.1919L86.5117 13.6919C86.3693 13.8139 86.3071 14.0053 86.3506 14.1876L87.5989 19.4208C87.7021 19.8534 87.2315 20.1954 86.8519 19.9635L82.2606 17.1592C82.1006 17.0615 81.8994 17.0615 81.7394 17.1592L77.1481 19.9635C76.7685 20.1954 76.2979 19.8534 76.4011 19.4208L77.6494 14.1876C77.6929 14.0053 77.6307 13.8139 77.4883 13.6919L73.4024 10.1919C73.0646 9.90256 73.2444 9.3493 73.6877 9.31376L79.0505 8.88383C79.2374 8.86885 79.4002 8.75056 79.4722 8.57744L81.5383 3.60996Z" fill="#FEC84B"/>
        </g>
    </g>
    <g clip-path="url(#clip8_23_668)">
        <path d="M105.538 3.60996C105.709 3.19932 106.291 3.19932 106.462 3.60996L108.528 8.57744C108.6 8.75056 108.763 8.86885 108.949 8.88383L114.312 9.31376C114.756 9.3493 114.935 9.90256 114.598 10.1919L110.512 13.6919C110.369 13.8139 110.307 14.0053 110.351 14.1876L111.599 19.4208C111.702 19.8534 111.231 20.1954 110.852 19.9635L106.261 17.1592C106.101 17.0615 105.899 17.0615 105.739 17.1592L101.148 19.9635C100.769 20.1954 100.298 19.8534 100.401 19.4208L101.649 14.1876C101.693 14.0053 101.631 13.8139 101.488 13.6919L97.4024 10.1919C97.0646 9.90256 97.2444 9.3493 97.6877 9.31376L103.051 8.88383C103.237 8.86885 103.4 8.75056 103.472 8.57744L105.538 3.60996Z" fill="#F2F4F7"/>
        <g clip-path="url(#clip9_23_668)">
            <path d="M105.538 3.60996C105.709 3.19932 106.291 3.19932 106.462 3.60996L108.528 8.57744C108.6 8.75056 108.763 8.86885 108.949 8.88383L114.312 9.31376C114.756 9.3493 114.935 9.90256 114.598 10.1919L110.512 13.6919C110.369 13.8139 110.307 14.0053 110.351 14.1876L111.599 19.4208C111.702 19.8534 111.231 20.1954 110.852 19.9635L106.261 17.1592C106.101 17.0615 105.899 17.0615 105.739 17.1592L101.148 19.9635C100.769 20.1954 100.298 19.8534 100.401 19.4208L101.649 14.1876C101.693 14.0053 101.631 13.8139 101.488 13.6919L97.4024 10.1919C97.0646 9.90256 97.2444 9.3493 97.6877 9.31376L103.051 8.88383C103.237 8.86885 103.4 8.75056 103.472 8.57744L105.538 3.60996Z" fill="#FEC84B"/>
        </g>
    </g>
    <path d="M129.08 18.1591C128.322 18.1591 127.644 18.017 127.045 17.733C126.447 17.4451 125.972 17.0511 125.619 16.5511C125.271 16.0511 125.085 15.4792 125.062 14.8352H127.108C127.146 15.3125 127.352 15.7027 127.727 16.0057C128.102 16.3049 128.553 16.4545 129.08 16.4545C129.492 16.4545 129.86 16.3598 130.182 16.1705C130.504 15.9811 130.758 15.7178 130.943 15.3807C131.129 15.0436 131.22 14.6591 131.216 14.2273C131.22 13.7879 131.127 13.3977 130.938 13.0568C130.748 12.7159 130.489 12.4489 130.159 12.2557C129.83 12.0587 129.451 11.9602 129.023 11.9602C128.674 11.9564 128.331 12.0208 127.994 12.1534C127.657 12.286 127.39 12.4602 127.193 12.6761L125.29 12.3636L125.898 6.36364H132.648V8.125H127.642L127.307 11.2102H127.375C127.591 10.9564 127.896 10.7462 128.29 10.5795C128.684 10.4091 129.116 10.3239 129.585 10.3239C130.29 10.3239 130.919 10.4905 131.472 10.8239C132.025 11.1534 132.46 11.608 132.778 12.1875C133.097 12.767 133.256 13.4299 133.256 14.1761C133.256 14.9451 133.078 15.6307 132.722 16.233C132.369 16.8314 131.879 17.303 131.25 17.6477C130.625 17.9886 129.902 18.1591 129.08 18.1591ZM136.058 18.125C135.714 18.125 135.418 18.0038 135.172 17.7614C134.926 17.5189 134.804 17.2235 134.808 16.875C134.804 16.5341 134.926 16.2424 135.172 16C135.418 15.7576 135.714 15.6364 136.058 15.6364C136.392 15.6364 136.681 15.7576 136.928 16C137.178 16.2424 137.304 16.5341 137.308 16.875C137.304 17.1061 137.244 17.3163 137.126 17.5057C137.013 17.6951 136.861 17.8466 136.672 17.9602C136.486 18.0701 136.282 18.125 136.058 18.125ZM143.257 18.2216C142.321 18.2216 141.518 17.9848 140.848 17.5114C140.181 17.0341 139.668 16.3466 139.308 15.4489C138.952 14.5473 138.774 13.4621 138.774 12.1932C138.778 10.9242 138.958 9.8447 139.314 8.95455C139.674 8.06061 140.187 7.37879 140.854 6.90909C141.524 6.43939 142.325 6.20455 143.257 6.20455C144.189 6.20455 144.99 6.43939 145.661 6.90909C146.331 7.37879 146.844 8.06061 147.2 8.95455C147.56 9.84848 147.74 10.928 147.74 12.1932C147.74 13.4659 147.56 14.553 147.2 15.4545C146.844 16.3523 146.331 17.0379 145.661 17.5114C144.994 17.9848 144.193 18.2216 143.257 18.2216ZM143.257 16.4432C143.984 16.4432 144.558 16.0852 144.979 15.3693C145.403 14.6496 145.615 13.5909 145.615 12.1932C145.615 11.2689 145.518 10.4924 145.325 9.86364C145.132 9.23485 144.859 8.76136 144.507 8.44318C144.155 8.12121 143.738 7.96023 143.257 7.96023C142.534 7.96023 141.962 8.32008 141.541 9.03977C141.121 9.75568 140.909 10.8068 140.905 12.1932C140.901 13.1212 140.994 13.9015 141.183 14.5341C141.376 15.1667 141.649 15.6439 142.001 15.9659C142.354 16.2841 142.772 16.4432 143.257 16.4432Z" fill="white"/>
    <path d="M5.29545 37.2727V38.6364H0.363636V37.2727H5.29545ZM1.71591 46V36.2614C1.71591 35.7159 1.83523 35.2633 2.07386 34.9034C2.3125 34.5398 2.62879 34.2689 3.02273 34.0909C3.41667 33.9091 3.8447 33.8182 4.30682 33.8182C4.64773 33.8182 4.93939 33.8466 5.18182 33.9034C5.42424 33.9564 5.60417 34.0057 5.72159 34.0511L5.32386 35.4261C5.24432 35.4034 5.14205 35.3769 5.01705 35.3466C4.89205 35.3125 4.74053 35.2955 4.5625 35.2955C4.14962 35.2955 3.85417 35.3977 3.67614 35.6023C3.50189 35.8068 3.41477 36.1023 3.41477 36.4886V46H1.71591ZM7.0483 46V37.2727H8.69034V38.6591H8.78125C8.94034 38.1894 9.22064 37.8201 9.62216 37.5511C10.0275 37.2784 10.4858 37.142 10.9972 37.142C11.1032 37.142 11.2282 37.1458 11.3722 37.1534C11.5199 37.161 11.6354 37.1705 11.7188 37.1818V38.8068C11.6506 38.7879 11.5294 38.767 11.3551 38.7443C11.1809 38.7178 11.0066 38.7045 10.8324 38.7045C10.4309 38.7045 10.0729 38.7898 9.75852 38.9602C9.44792 39.1269 9.2017 39.3598 9.01989 39.6591C8.83807 39.9545 8.74716 40.2917 8.74716 40.6705V46H7.0483ZM16.5526 46.1761C15.7344 46.1761 15.0204 45.9886 14.4105 45.6136C13.8007 45.2386 13.3272 44.714 12.9901 44.0398C12.6529 43.3655 12.4844 42.5777 12.4844 41.6761C12.4844 40.7708 12.6529 39.9792 12.9901 39.3011C13.3272 38.6231 13.8007 38.0966 14.4105 37.7216C15.0204 37.3466 15.7344 37.1591 16.5526 37.1591C17.3707 37.1591 18.0848 37.3466 18.6946 37.7216C19.3045 38.0966 19.7779 38.6231 20.1151 39.3011C20.4522 39.9792 20.6207 40.7708 20.6207 41.6761C20.6207 42.5777 20.4522 43.3655 20.1151 44.0398C19.7779 44.714 19.3045 45.2386 18.6946 45.6136C18.0848 45.9886 17.3707 46.1761 16.5526 46.1761ZM16.5582 44.75C17.0885 44.75 17.5279 44.6098 17.8764 44.3295C18.2249 44.0492 18.4825 43.6761 18.6491 43.2102C18.8196 42.7443 18.9048 42.2311 18.9048 41.6705C18.9048 41.1136 18.8196 40.6023 18.6491 40.1364C18.4825 39.6667 18.2249 39.2898 17.8764 39.0057C17.5279 38.7216 17.0885 38.5795 16.5582 38.5795C16.0241 38.5795 15.581 38.7216 15.2287 39.0057C14.8802 39.2898 14.6207 39.6667 14.4503 40.1364C14.2836 40.6023 14.2003 41.1136 14.2003 41.6705C14.2003 42.2311 14.2836 42.7443 14.4503 43.2102C14.6207 43.6761 14.8802 44.0492 15.2287 44.3295C15.581 44.6098 16.0241 44.75 16.5582 44.75ZM22.517 46V37.2727H24.1477V38.6932H24.2557C24.4375 38.2121 24.7348 37.8371 25.1477 37.5682C25.5606 37.2955 26.0549 37.1591 26.6307 37.1591C27.214 37.1591 27.7027 37.2955 28.0966 37.5682C28.4943 37.8409 28.7879 38.2159 28.9773 38.6932H29.0682C29.2765 38.2273 29.608 37.8561 30.0625 37.5795C30.517 37.2992 31.0587 37.1591 31.6875 37.1591C32.4792 37.1591 33.125 37.4072 33.625 37.9034C34.1288 38.3996 34.3807 39.1477 34.3807 40.1477V46H32.6818V40.3068C32.6818 39.7159 32.5208 39.2879 32.1989 39.0227C31.8769 38.7576 31.4924 38.625 31.0455 38.625C30.4924 38.625 30.0625 38.7955 29.7557 39.1364C29.4489 39.4735 29.2955 39.9072 29.2955 40.4375V46H27.6023V40.1989C27.6023 39.7254 27.4545 39.3447 27.1591 39.0568C26.8636 38.7689 26.4792 38.625 26.0057 38.625C25.6837 38.625 25.3864 38.7102 25.1136 38.8807C24.8447 39.0473 24.6269 39.2803 24.4602 39.5795C24.2973 39.8788 24.2159 40.2254 24.2159 40.6193V46H22.517ZM40.8693 46V44.7273L44.8068 40.6477C45.2273 40.2045 45.5739 39.8163 45.8466 39.483C46.1231 39.1458 46.3295 38.8258 46.4659 38.5227C46.6023 38.2197 46.6705 37.8977 46.6705 37.5568C46.6705 37.1705 46.5795 36.8371 46.3977 36.5568C46.2159 36.2727 45.9678 36.0549 45.6534 35.9034C45.339 35.7481 44.9848 35.6705 44.5909 35.6705C44.1742 35.6705 43.8106 35.7557 43.5 35.9261C43.1894 36.0966 42.9508 36.3371 42.7841 36.6477C42.6174 36.9583 42.5341 37.322 42.5341 37.7386H40.858C40.858 37.0303 41.0208 36.411 41.3466 35.8807C41.6723 35.3504 42.1193 34.9394 42.6875 34.6477C43.2557 34.3523 43.9015 34.2045 44.625 34.2045C45.3561 34.2045 46 34.3504 46.5568 34.642C47.1174 34.9299 47.5549 35.3239 47.8693 35.8239C48.1837 36.3201 48.3409 36.8807 48.3409 37.5057C48.3409 37.9375 48.2595 38.3598 48.0966 38.7727C47.9375 39.1856 47.6591 39.6458 47.2614 40.1534C46.8636 40.6572 46.3106 41.2689 45.6023 41.9886L43.2898 44.4091V44.4943H48.5284V46H40.8693ZM54.733 46.1932C53.8352 46.1894 53.0682 45.9527 52.4318 45.483C51.7955 45.0133 51.3087 44.3295 50.9716 43.4318C50.6345 42.5341 50.4659 41.4527 50.4659 40.1875C50.4659 38.9261 50.6345 37.8485 50.9716 36.9545C51.3125 36.0606 51.8011 35.3788 52.4375 34.9091C53.0777 34.4394 53.8428 34.2045 54.733 34.2045C55.6231 34.2045 56.3864 34.4413 57.0227 34.9148C57.6591 35.3845 58.1458 36.0663 58.483 36.9602C58.8239 37.8504 58.9943 38.9261 58.9943 40.1875C58.9943 41.4564 58.8258 42.5398 58.4886 43.4375C58.1515 44.3314 57.6648 45.0152 57.0284 45.4886C56.392 45.9583 55.6269 46.1932 54.733 46.1932ZM54.733 44.6761C55.5208 44.6761 56.1364 44.2917 56.5795 43.5227C57.0265 42.7538 57.25 41.642 57.25 40.1875C57.25 39.2216 57.1477 38.4053 56.9432 37.7386C56.7424 37.0682 56.4527 36.5606 56.0739 36.2159C55.6989 35.8674 55.2519 35.6932 54.733 35.6932C53.9489 35.6932 53.3333 36.0795 52.8864 36.8523C52.4394 37.625 52.214 38.7367 52.2102 40.1875C52.2102 41.1572 52.3106 41.9773 52.5114 42.6477C52.7159 43.3144 53.0057 43.8201 53.3807 44.1648C53.7557 44.5057 54.2064 44.6761 54.733 44.6761ZM65.0611 46.1932C64.1634 46.1894 63.3963 45.9527 62.7599 45.483C62.1236 45.0133 61.6368 44.3295 61.2997 43.4318C60.9626 42.5341 60.794 41.4527 60.794 40.1875C60.794 38.9261 60.9626 37.8485 61.2997 36.9545C61.6406 36.0606 62.1293 35.3788 62.7656 34.9091C63.4058 34.4394 64.1709 34.2045 65.0611 34.2045C65.9512 34.2045 66.7145 34.4413 67.3509 34.9148C67.9872 35.3845 68.474 36.0663 68.8111 36.9602C69.152 37.8504 69.3224 38.9261 69.3224 40.1875C69.3224 41.4564 69.1539 42.5398 68.8168 43.4375C68.4796 44.3314 67.9929 45.0152 67.3565 45.4886C66.7202 45.9583 65.955 46.1932 65.0611 46.1932ZM65.0611 44.6761C65.849 44.6761 66.4645 44.2917 66.9077 43.5227C67.3546 42.7538 67.5781 41.642 67.5781 40.1875C67.5781 39.2216 67.4759 38.4053 67.2713 37.7386C67.0705 37.0682 66.7808 36.5606 66.402 36.2159C66.027 35.8674 65.58 35.6932 65.0611 35.6932C64.277 35.6932 63.6615 36.0795 63.2145 36.8523C62.7675 37.625 62.5421 38.7367 62.5384 40.1875C62.5384 41.1572 62.6387 41.9773 62.8395 42.6477C63.044 43.3144 63.3338 43.8201 63.7088 44.1648C64.0838 44.5057 64.5346 44.6761 65.0611 44.6761ZM74.7812 44.0455V36.3636H76.3097V44.0455H74.7812ZM71.7074 40.9659V39.4432H79.3892V40.9659H71.7074ZM86.2514 46V37.2727H87.8935V38.6591H87.9844C88.1435 38.1894 88.4238 37.8201 88.8253 37.5511C89.2306 37.2784 89.6889 37.142 90.2003 37.142C90.3063 37.142 90.4313 37.1458 90.5753 37.1534C90.723 37.161 90.8385 37.1705 90.9219 37.1818V38.8068C90.8537 38.7879 90.7325 38.767 90.5582 38.7443C90.384 38.7178 90.2098 38.7045 90.0355 38.7045C89.634 38.7045 89.276 38.7898 88.9616 38.9602C88.651 39.1269 88.4048 39.3598 88.223 39.6591C88.0412 39.9545 87.9503 40.2917 87.9503 40.6705V46H86.2514ZM95.8409 46.1761C94.9811 46.1761 94.2405 45.9924 93.6193 45.625C93.0019 45.2538 92.5246 44.733 92.1875 44.0625C91.8542 43.3883 91.6875 42.5985 91.6875 41.6932C91.6875 40.7992 91.8542 40.0114 92.1875 39.3295C92.5246 38.6477 92.9943 38.1155 93.5966 37.733C94.2027 37.3504 94.911 37.1591 95.7216 37.1591C96.214 37.1591 96.6913 37.2405 97.1534 37.4034C97.6155 37.5663 98.0303 37.822 98.3977 38.1705C98.7652 38.5189 99.0549 38.9716 99.267 39.5284C99.4792 40.0814 99.5852 40.7538 99.5852 41.5455V42.1477H92.6477V40.875H97.9205C97.9205 40.428 97.8295 40.0322 97.6477 39.6875C97.4659 39.339 97.2102 39.0644 96.8807 38.8636C96.5549 38.6629 96.1723 38.5625 95.733 38.5625C95.2557 38.5625 94.839 38.6799 94.483 38.9148C94.1307 39.1458 93.858 39.4489 93.6648 39.8239C93.4754 40.1951 93.3807 40.5985 93.3807 41.0341V42.0284C93.3807 42.6117 93.483 43.108 93.6875 43.517C93.8958 43.9261 94.1856 44.2386 94.5568 44.4545C94.928 44.6667 95.3617 44.7727 95.858 44.7727C96.1799 44.7727 96.4735 44.7273 96.7386 44.6364C97.0038 44.5417 97.233 44.4015 97.4261 44.2159C97.6193 44.0303 97.767 43.8011 97.8693 43.5284L99.4773 43.8182C99.3485 44.2917 99.1174 44.7064 98.7841 45.0625C98.4545 45.4148 98.0398 45.6894 97.5398 45.8864C97.0436 46.0795 96.4773 46.1761 95.8409 46.1761ZM108.686 37.2727L105.521 46H103.703L100.533 37.2727H102.357L104.567 43.9886H104.658L106.862 37.2727H108.686ZM110.283 46V37.2727H111.982V46H110.283ZM111.141 35.9261C110.845 35.9261 110.591 35.8277 110.379 35.6307C110.171 35.4299 110.067 35.1913 110.067 34.9148C110.067 34.6345 110.171 34.3958 110.379 34.1989C110.591 33.9981 110.845 33.8977 111.141 33.8977C111.436 33.8977 111.688 33.9981 111.896 34.1989C112.108 34.3958 112.214 34.6345 112.214 34.9148C112.214 35.1913 112.108 35.4299 111.896 35.6307C111.688 35.8277 111.436 35.9261 111.141 35.9261ZM118.028 46.1761C117.169 46.1761 116.428 45.9924 115.807 45.625C115.189 45.2538 114.712 44.733 114.375 44.0625C114.042 43.3883 113.875 42.5985 113.875 41.6932C113.875 40.7992 114.042 40.0114 114.375 39.3295C114.712 38.6477 115.182 38.1155 115.784 37.733C116.39 37.3504 117.098 37.1591 117.909 37.1591C118.402 37.1591 118.879 37.2405 119.341 37.4034C119.803 37.5663 120.218 37.822 120.585 38.1705C120.953 38.5189 121.242 38.9716 121.455 39.5284C121.667 40.0814 121.773 40.7538 121.773 41.5455V42.1477H114.835V40.875H120.108C120.108 40.428 120.017 40.0322 119.835 39.6875C119.653 39.339 119.398 39.0644 119.068 38.8636C118.742 38.6629 118.36 38.5625 117.92 38.5625C117.443 38.5625 117.027 38.6799 116.67 38.9148C116.318 39.1458 116.045 39.4489 115.852 39.8239C115.663 40.1951 115.568 40.5985 115.568 41.0341V42.0284C115.568 42.6117 115.67 43.108 115.875 43.517C116.083 43.9261 116.373 44.2386 116.744 44.4545C117.116 44.6667 117.549 44.7727 118.045 44.7727C118.367 44.7727 118.661 44.7273 118.926 44.6364C119.191 44.5417 119.42 44.4015 119.614 44.2159C119.807 44.0303 119.955 43.8011 120.057 43.5284L121.665 43.8182C121.536 44.2917 121.305 44.7064 120.972 45.0625C120.642 45.4148 120.227 45.6894 119.727 45.8864C119.231 46.0795 118.665 46.1761 118.028 46.1761ZM125.534 46L122.966 37.2727H124.722L126.432 43.6818H126.517L128.233 37.2727H129.989L131.693 43.6534H131.778L133.477 37.2727H135.233L132.67 46H130.938L129.165 39.6989H129.034L127.261 46H125.534ZM143.385 39.4034L141.845 39.6761C141.781 39.4792 141.679 39.2917 141.538 39.1136C141.402 38.9356 141.216 38.7898 140.982 38.6761C140.747 38.5625 140.453 38.5057 140.101 38.5057C139.62 38.5057 139.218 38.6136 138.896 38.8295C138.574 39.0417 138.413 39.3163 138.413 39.6534C138.413 39.9451 138.521 40.1799 138.737 40.358C138.953 40.536 139.302 40.6818 139.783 40.7955L141.169 41.1136C141.972 41.2992 142.571 41.5852 142.964 41.9716C143.358 42.358 143.555 42.8598 143.555 43.4773C143.555 44 143.404 44.4659 143.101 44.875C142.802 45.2803 142.383 45.5985 141.845 45.8295C141.311 46.0606 140.692 46.1761 139.987 46.1761C139.01 46.1761 138.213 45.9678 137.595 45.5511C136.978 45.1307 136.599 44.5341 136.459 43.7614L138.101 43.5114C138.203 43.9394 138.413 44.2633 138.732 44.483C139.05 44.6989 139.464 44.8068 139.976 44.8068C140.533 44.8068 140.978 44.6913 141.311 44.4602C141.644 44.2254 141.811 43.9394 141.811 43.6023C141.811 43.3295 141.709 43.1004 141.504 42.9148C141.304 42.7292 140.995 42.589 140.578 42.4943L139.101 42.1705C138.286 41.9848 137.684 41.6894 137.294 41.2841C136.908 40.8788 136.714 40.3655 136.714 39.7443C136.714 39.2292 136.858 38.7784 137.146 38.392C137.434 38.0057 137.832 37.7045 138.339 37.4886C138.847 37.2689 139.429 37.1591 140.084 37.1591C141.027 37.1591 141.769 37.3636 142.311 37.7727C142.853 38.178 143.211 38.7216 143.385 39.4034Z" fill="#B2DDFF"/>
    <defs>
        <clipPath id="clip0_23_668">
            <rect width="20" height="20" fill="white" transform="translate(0 2)"/>
        </clipPath>
        <clipPath id="clip1_23_668">
            <rect width="20" height="20" fill="white" transform="translate(0 2)"/>
        </clipPath>
        <clipPath id="clip2_23_668">
            <rect width="20" height="20" fill="white" transform="translate(24 2)"/>
        </clipPath>
        <clipPath id="clip3_23_668">
            <rect width="20" height="20" fill="white" transform="translate(24 2)"/>
        </clipPath>
        <clipPath id="clip4_23_668">
            <rect width="20" height="20" fill="white" transform="translate(48 2)"/>
        </clipPath>
        <clipPath id="clip5_23_668">
            <rect width="20" height="20" fill="white" transform="translate(48 2)"/>
        </clipPath>
        <clipPath id="clip6_23_668">
            <rect width="20" height="20" fill="white" transform="translate(72 2)"/>
        </clipPath>
        <clipPath id="clip7_23_668">
            <rect width="20" height="20" fill="white" transform="translate(72 2)"/>
        </clipPath>
        <clipPath id="clip8_23_668">
            <rect width="20" height="20" fill="white" transform="translate(96 2)"/>
        </clipPath>
        <clipPath id="clip9_23_668">
            <rect width="20" height="20" fill="white" transform="translate(96 2)"/>
        </clipPath>
    </defs>
</svg>
