<svg width="37" height="36" viewBox="0 0 37 36" fill="none" xmlns="http://www.w3.org/2000/svg">
    <path d="M26.6086 16.6627C26.5123 16.3766 26.306 16.1455 26.0309 16.0162C25.7558 15.8869 25.4504 15.8732 25.1671 15.9777C24.6003 16.1896 24.3087 16.803 24.5041 17.378C25.1395 19.2377 25.4119 21.0974 25.2743 22.6187C25.1478 23.9915 24.6856 24.9571 24.0391 25.2019L24.0226 25.2102C23.3734 25.4413 22.3913 25.0259 21.3981 24.096C20.2702 23.0451 19.2276 21.455 18.4655 19.6284C18.4545 19.6008 18.4435 19.5761 18.4298 19.5486C18.2152 18.9874 17.6045 18.6985 17.0295 18.8938C16.7434 18.9929 16.5151 19.1964 16.3858 19.4715C16.2565 19.7466 16.2455 20.052 16.3527 20.3354C16.5068 20.748 16.6966 21.1332 16.8809 21.5073L17.1616 22.074L17.2633 22.2501L17.2688 22.2473C19.046 25.4853 21.4807 27.4853 23.6567 27.4853C24.0446 27.4853 24.4188 27.422 24.7764 27.2927L24.8342 27.2707C26.3362 26.6985 27.2798 25.1167 27.4889 22.814C27.654 20.9984 27.3431 18.8113 26.6086 16.6627Z" fill="url(#paint0_linear_4966_2694)"/>
    <path d="M18.5948 27.5185C16.2922 25.7826 14.7764 22.5666 14.2317 21.2682C14.0033 20.7235 13.3871 20.4511 12.8314 20.6519C12.5425 20.7565 12.3142 20.9655 12.1904 21.2461C12.0666 21.5268 12.0611 21.8376 12.1794 22.121C12.7846 23.5818 14.4903 27.2049 17.2551 29.2902C17.4449 29.436 17.6842 29.513 17.9236 29.513C17.9896 29.513 18.0529 29.5075 18.1161 29.4965C18.4188 29.4442 18.6884 29.2627 18.8562 29.0041C19.1698 28.5199 19.0542 27.8651 18.5948 27.5185Z" fill="url(#paint1_linear_4966_2694)"/>
    <path d="M12.9194 18.6216C12.284 16.7619 12.0116 14.8994 12.1519 13.3809C12.2785 12.0109 12.7379 11.0452 13.3816 10.7977L13.4036 10.7894C14.0501 10.5556 15.0322 10.9737 16.0254 11.9036C17.1533 12.9572 18.1987 14.5473 18.9635 16.3822C18.9745 16.407 18.9855 16.4318 18.9937 16.4428C19.2056 17.0095 19.8218 17.2983 20.394 17.1003C20.6801 17.0012 20.9084 16.7977 21.0377 16.5226C21.167 16.2474 21.178 15.9421 21.0708 15.6587C20.9167 15.2488 20.7269 14.8609 20.5426 14.4868L20.372 14.1402L20.3197 14.0549C18.2152 10.0356 15.0597 7.83205 12.6471 8.69587L12.5893 8.71787C11.0873 9.29009 10.1437 10.8719 9.93458 13.1745C9.76676 14.9957 10.0804 17.1828 10.8122 19.3341C10.9084 19.6202 11.1148 19.8513 11.3899 19.9806C11.5412 20.0521 11.7007 20.0879 11.8658 20.0879C11.9979 20.0879 12.1272 20.0631 12.2537 20.0191C12.8232 19.81 13.1148 19.1966 12.9194 18.6216Z" fill="url(#paint2_linear_4966_2694)"/>
    <path d="M18.8314 8.48137C21.134 10.2173 22.6499 13.4332 23.1946 14.7317C23.3679 15.1444 23.7695 15.414 24.2179 15.414C24.3445 15.414 24.4738 15.392 24.5948 15.348C24.8837 15.2434 25.1093 15.0316 25.2358 14.751C25.3596 14.4704 25.3651 14.1595 25.2468 13.8761C24.6416 12.4154 22.936 8.79224 20.1712 6.70696C19.9236 6.51989 19.61 6.44561 19.3074 6.50063C19.0047 6.55565 18.7351 6.73447 18.5673 6.99307C18.2537 7.48 18.3693 8.13474 18.8314 8.48137Z" fill="url(#paint3_linear_4966_2694)"/>
    <path d="M18.8727 36C8.94699 36 0.872711 27.9257 0.872711 18C0.872711 8.07428 8.94699 0 18.8727 0C28.7984 0 36.8727 8.07428 36.8727 18C36.8727 27.9257 28.7984 36 18.8727 36ZM18.8727 1.92022C10.0061 1.92022 2.79293 9.13342 2.79293 18C2.79293 26.8666 10.0061 34.0798 18.8727 34.0798C27.7393 34.0798 34.9525 26.8666 34.9525 18C34.9525 9.13342 27.7393 1.92022 18.8727 1.92022Z" fill="url(#paint4_linear_4966_2694)"/>
    <defs>
        <linearGradient id="paint0_linear_4966_2694" x1="16.2788" y1="21.6992" x2="27.5307" y2="21.6992" gradientUnits="userSpaceOnUse">
            <stop offset="0.00558659" stop-color="#C4F5F7"/>
            <stop offset="0.2703" stop-color="#9CECEE"/>
            <stop offset="0.5958" stop-color="#71E2E4"/>
            <stop offset="0.8501" stop-color="#56DCDE"/>
            <stop offset="1" stop-color="#4CDADC"/>
        </linearGradient>
        <linearGradient id="paint1_linear_4966_2694" x1="12.0925" y1="25.0491" x2="19.0335" y2="25.0491" gradientUnits="userSpaceOnUse">
            <stop stop-color="#20ABF2"/>
            <stop offset="0.1204" stop-color="#1E9FF3"/>
            <stop offset="0.3381" stop-color="#187FF4"/>
            <stop offset="0.6281" stop-color="#0F4CF7"/>
            <stop offset="0.9762" stop-color="#0305FB"/>
            <stop offset="1" stop-color="#0200FB"/>
        </linearGradient>
        <linearGradient id="paint2_linear_4966_2694" x1="9.89408" y1="14.3024" x2="21.1458" y2="14.3024" gradientUnits="userSpaceOnUse">
            <stop stop-color="#20ABF2"/>
            <stop offset="0.1204" stop-color="#1E9FF3"/>
            <stop offset="0.3381" stop-color="#187FF4"/>
            <stop offset="0.6281" stop-color="#0F4CF7"/>
            <stop offset="0.9762" stop-color="#0305FB"/>
            <stop offset="1" stop-color="#0200FB"/>
        </linearGradient>
        <linearGradient id="paint3_linear_4966_2694" x1="18.3916" y1="10.95" x2="25.3325" y2="10.95" gradientUnits="userSpaceOnUse">
            <stop offset="0.00558659" stop-color="#C4F5F7"/>
            <stop offset="0.2703" stop-color="#9CECEE"/>
            <stop offset="0.5958" stop-color="#71E2E4"/>
            <stop offset="0.8501" stop-color="#56DCDE"/>
            <stop offset="1" stop-color="#4CDADC"/>
        </linearGradient>
        <linearGradient id="paint4_linear_4966_2694" x1="0.871061" y1="17.9997" x2="36.8724" y2="17.9997" gradientUnits="userSpaceOnUse">
            <stop stop-color="#20ABF2"/>
            <stop offset="0.1204" stop-color="#1E9FF3"/>
            <stop offset="0.3381" stop-color="#187FF4"/>
            <stop offset="0.6281" stop-color="#0F4CF7"/>
            <stop offset="0.9762" stop-color="#0305FB"/>
            <stop offset="1" stop-color="#0200FB"/>
        </linearGradient>
    </defs>
</svg>
