<svg width="42" height="40" viewBox="0 0 42 40" fill="none" xmlns="http://www.w3.org/2000/svg">
    <path d="M9.75 4C9.75 2.20508 11.2051 0.75 13 0.75H29C29.1212 0.75 29.2375 0.798159 29.3232 0.883885L40.1161 11.6768C40.2018 11.7625 40.25 11.8788 40.25 12V36C40.25 37.7949 38.7949 39.25 37 39.25H13C11.2051 39.25 9.75 37.7949 9.75 36V4Z" fill="white" stroke="#D0D5DD" stroke-width="1.5"/>
    <path d="M29 0.5V8C29 10.2091 30.7909 12 33 12H40.5" stroke="#D0D5DD" stroke-width="1.5"/>
    <rect x="0.5" y="18" width="31" height="16" rx="2" fill="#444CE7"/>
    <path d="M4.38601 22.7273H6.28232L8.28516 27.6136H8.37038L10.3732 22.7273H12.2695V30H10.7781V25.2663H10.7177L8.83558 29.9645H7.81996L5.93786 25.2486H5.87749V30H4.38601V22.7273Z" fill="white"/>
    <path d="M19.9533 25.2734H18.3979C18.3695 25.0722 18.3115 24.8935 18.2239 24.7372C18.1363 24.5786 18.0239 24.4437 17.8865 24.3324C17.7492 24.2211 17.5906 24.1359 17.4107 24.0767C17.2331 24.0175 17.0402 23.9879 16.8319 23.9879C16.4554 23.9879 16.1275 24.0814 15.8482 24.2685C15.5688 24.4531 15.3522 24.723 15.1983 25.0781C15.0444 25.4309 14.9675 25.8594 14.9675 26.3636C14.9675 26.8821 15.0444 27.3177 15.1983 27.6705C15.3546 28.0232 15.5724 28.2895 15.8517 28.4695C16.1311 28.6494 16.4542 28.7393 16.8212 28.7393C17.0272 28.7393 17.2177 28.7121 17.3929 28.6577C17.5705 28.6032 17.7279 28.5239 17.8652 28.4197C18.0025 28.3132 18.1162 28.1842 18.2061 28.0327C18.2985 27.8812 18.3624 27.7083 18.3979 27.5142L19.9533 27.5213C19.9131 27.8551 19.8124 28.1771 19.6515 28.4872C19.4928 28.795 19.2786 29.0708 19.0087 29.3146C18.7412 29.5561 18.4216 29.7479 18.0499 29.8899C17.6806 30.0296 17.2627 30.0994 16.7963 30.0994C16.1477 30.0994 15.5676 29.9527 15.0563 29.6591C14.5473 29.3655 14.1448 28.9406 13.8489 28.3842C13.5553 27.8279 13.4086 27.1544 13.4086 26.3636C13.4086 25.5705 13.5577 24.8958 13.856 24.3395C14.1543 23.7831 14.5591 23.3594 15.0705 23.0682C15.5819 22.7746 16.1571 22.6278 16.7963 22.6278C17.2177 22.6278 17.6084 22.687 17.9682 22.8054C18.3304 22.9238 18.6512 23.0966 18.9306 23.3239C19.2099 23.5488 19.4372 23.8246 19.6124 24.1513C19.79 24.478 19.9036 24.852 19.9533 25.2734ZM27.7392 26.3636C27.7392 27.1567 27.5888 27.8314 27.2882 28.3878C26.9899 28.9441 26.5827 29.3691 26.0666 29.6626C25.5529 29.9538 24.9752 30.0994 24.3336 30.0994C23.6873 30.0994 23.1073 29.9527 22.5936 29.6591C22.0798 29.3655 21.6738 28.9406 21.3755 28.3842C21.0772 27.8279 20.9281 27.1544 20.9281 26.3636C20.9281 25.5705 21.0772 24.8958 21.3755 24.3395C21.6738 23.7831 22.0798 23.3594 22.5936 23.0682C23.1073 22.7746 23.6873 22.6278 24.3336 22.6278C24.9752 22.6278 25.5529 22.7746 26.0666 23.0682C26.5827 23.3594 26.9899 23.7831 27.2882 24.3395C27.5888 24.8958 27.7392 25.5705 27.7392 26.3636ZM26.1802 26.3636C26.1802 25.8499 26.1033 25.4167 25.9494 25.0639C25.7979 24.7112 25.5836 24.4437 25.3066 24.2614C25.0297 24.0791 24.7053 23.9879 24.3336 23.9879C23.9619 23.9879 23.6376 24.0791 23.3606 24.2614C23.0836 24.4437 22.8682 24.7112 22.7143 25.0639C22.5628 25.4167 22.487 25.8499 22.487 26.3636C22.487 26.8774 22.5628 27.3106 22.7143 27.6634C22.8682 28.0161 23.0836 28.2836 23.3606 28.4659C23.6376 28.6482 23.9619 28.7393 24.3336 28.7393C24.7053 28.7393 25.0297 28.6482 25.3066 28.4659C25.5836 28.2836 25.7979 28.0161 25.9494 27.6634C26.1033 27.3106 26.1802 26.8774 26.1802 26.3636Z" fill="#444CE7"/>
</svg>
