<svg width="41" height="40" viewBox="0 0 41 40" fill="none" xmlns="http://www.w3.org/2000/svg">
    <path d="M8.75 4C8.75 2.20508 10.2051 0.75 12 0.75H28C28.1212 0.75 28.2375 0.798159 28.3232 0.883885L39.1161 11.6768C39.2018 11.7625 39.25 11.8788 39.25 12V36C39.25 37.7949 37.7949 39.25 36 39.25H12C10.2051 39.25 8.75 37.7949 8.75 36V4Z" fill="white" stroke="#D0D5DD" stroke-width="1.5"/>
    <path d="M28 0.5V8C28 10.2091 29.7909 12 32 12H39.5" stroke="#D0D5DD" stroke-width="1.5"/>
    <rect y="18" width="30" height="16" rx="2" fill="#0E9384"/>
    <path d="M3.928 22.7273H5.82431L7.82715 27.6136H7.91238L9.91522 22.7273H11.8115V30H10.32V25.2663H10.2597L8.37757 29.9645H7.36195L5.47985 25.2486H5.41948V30H3.928V22.7273ZM12.9257 28.7216V27.5107L15.9619 22.7273H17.0059V24.4034H16.3881L14.474 27.4325V27.4893H18.7886V28.7216H12.9257ZM16.4165 30V28.3523L16.4449 27.8161V22.7273H17.8866V30H16.4165ZM21.1093 30H19.4616L21.9722 22.7273H23.9537L26.4608 30H24.8131L22.9914 24.3892H22.9346L21.1093 30ZM21.0063 27.1413H24.8983V28.3416H21.0063V27.1413Z" fill="white"/>
</svg>
