<svg width="40" height="40" viewBox="0 0 40 40" fill="none" xmlns="http://www.w3.org/2000/svg">
    <path d="M7.75 4C7.75 2.20508 9.20508 0.75 11 0.75H27C27.1212 0.75 27.2375 0.798159 27.3232 0.883885L38.1161 11.6768C38.2018 11.7625 38.25 11.8788 38.25 12V36C38.25 37.7949 36.7949 39.25 35 39.25H11C9.20507 39.25 7.75 37.7949 7.75 36V4Z" fill="white" stroke="#D0D5DD" stroke-width="1.5"/>
    <path d="M27 0.5V8C27 10.2091 28.7909 12 31 12H38.5" stroke="#D0D5DD" stroke-width="1.5"/>
    <rect x="2.5" y="18" width="23" height="16" rx="2" fill="#444CE7"/>
    <path d="M6.41921 22.7273H8.31552L10.3184 27.6136H10.4036L12.4064 22.7273H14.3027V30H12.8113V25.2663H12.7509L10.8688 29.9645H9.85316L7.97106 25.2486H7.91069V30H6.41921V22.7273ZM18.1477 30H15.5696V22.7273H18.169C18.9006 22.7273 19.5303 22.8729 20.0582 23.1641C20.5862 23.4529 20.9922 23.8684 21.2763 24.4105C21.5627 24.9527 21.706 25.6013 21.706 26.3565C21.706 27.1141 21.5627 27.7652 21.2763 28.3097C20.9922 28.8542 20.5838 29.272 20.0511 29.5632C19.5208 29.8544 18.8864 30 18.1477 30ZM17.1072 28.6825H18.0838C18.5384 28.6825 18.9207 28.602 19.2308 28.4411C19.5433 28.2777 19.7777 28.0256 19.9339 27.6847C20.0926 27.3414 20.1719 26.8987 20.1719 26.3565C20.1719 25.8191 20.0926 25.38 19.9339 25.0391C19.7777 24.6982 19.5445 24.4472 19.2344 24.2862C18.9242 24.1252 18.5419 24.0447 18.0874 24.0447H17.1072V28.6825Z" fill="white"/>
</svg>
