<svg width="56" height="56" viewBox="0 0 56 56" fill="none" xmlns="http://www.w3.org/2000/svg">
    <circle cx="28" cy="28" r="24.5" fill="#1570EF"/>
    <path d="M41.8625 18.0568C40.4673 17.2221 38.8931 16.0511 37.4376 17.5477C35.6289 20.1161 32.3087 23.5741 34.0029 26.9341C34.6869 28.2236 35.8174 29.1857 36.7259 30.3068C37.259 30.855 37.5403 31.5688 37.4376 32.3432C37.3139 33.3932 36.4784 34.2205 35.4573 34.3477C34.0958 34.5068 32.9199 33.3932 32.9199 32.025C32.7962 31.2932 32.9818 29.6386 31.7441 29.4477C30.9396 29.3205 29.9185 30.625 29.3924 32.3432C28.9715 33.762 29.2068 34.9692 29.2068 36.3841C29.2068 37.9 28.1093 39.2628 26.4838 39.0886C25.4008 38.9614 24.4725 38.0705 24.3178 36.9568C24.182 36.0724 24.5629 35.1736 25.0914 34.475C25.6174 33.6796 26.4219 32.4705 26.8242 31.3568C27.2574 30.1796 27.8934 29.241 27.0717 28.6205C26.25 28 22.7631 33.1911 20.8522 32.8523C19.9858 32.6932 19.305 31.9614 19.1503 31.1023C18.9028 29.7977 19.7382 28.6523 20.8831 28.4296C22.2269 28.1857 26.2096 26.6876 25.7721 25.0568C25.3745 23.6667 21.9575 26.242 20.8522 26.1386C19.8001 26.1068 18.9646 25.1841 18.9337 24.1023C18.9337 22.8921 19.9001 22.0341 21.0688 22.0341C22.4382 22.0341 23.7921 22.6119 25.1842 22.2886C28.7524 21.4964 30.0886 18.3142 31.8679 15.4796C32.7033 14.1432 32.3011 12.3296 30.9396 11.5341C29.269 10.6036 27.5415 10.0508 25.7412 11.1205L14.1066 18.0568C12.9617 18.725 12.25 19.9977 12.25 21.3659V34.6659C12.25 36.0341 12.9617 37.3068 14.1066 37.975L25.7721 44.8796C27.1336 45.7068 28.8355 45.7068 30.2279 44.8796L41.8934 37.975C43.0383 37.3068 43.75 36.0341 43.75 34.6659V21.3659C43.7191 19.9977 43.0074 18.725 41.8625 18.0568Z"
          fill="white"/>
</svg>
