<svg t="1728571858726" class="icon" viewBox="0 0 1024 1024" version="1.1" xmlns="http://www.w3.org/2000/svg" p-id="4441"
     width="200" height="200">
    <path d="M924.65 675.88h-95.97v-21.87h95.97c7.13 0 12.92-5.22 12.92-11.64V178.52c0-6.42-5.79-11.64-12.92-11.64H219.16c-7.11 0-12.9 5.22-12.9 11.64v105.87h-21.87V178.52c0-18.48 15.59-33.51 34.77-33.51h705.49c19.18 0 34.8 15.04 34.8 33.51v463.85c-0.01 18.47-15.62 33.51-34.8 33.51z"
          p-id="4442" fill="#1296db"></path>
    <path d="M443.49 890.35c-6.15 0-11.92-2.37-16.21-6.68l-1.45-1.79L380 811c-4.64-4.25-10.96-6.66-17.52-6.66H99.33c-19.18 0-34.77-15.04-34.77-33.52V306.97c0-18.48 15.59-33.51 34.77-33.51h705.49c19.18 0 34.8 15.04 34.8 33.51v463.85c0 18.49-15.61 33.52-34.8 33.52H523.37c-6.66 0-13.05 2.48-17.71 6.84l-45.78 72.33c-4.27 4.38-10.04 6.8-16.26 6.84-0.03-0.01-0.07 0-0.13 0zM99.33 295.32c-7.11 0-12.9 5.22-12.9 11.64v463.85c0 6.43 5.79 11.65 12.9 11.65h263.16c12.67 0 24.97 5.03 33.75 13.79l1.45 1.8 45.2 69.92 46.37-71.35c8.78-9 21.23-14.16 34.11-14.16h281.44c7.13 0 12.92-5.22 12.92-11.65V306.97c0-6.42-5.79-11.64-12.92-11.64H99.33z"
          p-id="4443" fill="#1296db"></path>
    <path d="M252.37 419.25h376.6v21.87h-376.6zM252.37 514.35h376.6v21.87h-376.6zM252.37 609.45h376.6v21.87h-376.6z"
          p-id="4444" fill="#1296db"></path>
</svg>