<svg width="43" height="40" viewBox="0 0 43 40" fill="none" xmlns="http://www.w3.org/2000/svg">
    <path d="M10.75 4C10.75 2.20508 12.2051 0.75 14 0.75H30C30.1212 0.75 30.2375 0.798159 30.3232 0.883885L41.1161 11.6768C41.2018 11.7625 41.25 11.8788 41.25 12V36C41.25 37.7949 39.7949 39.25 38 39.25H14C12.2051 39.25 10.75 37.7949 10.75 36V4Z" fill="white" stroke="#D0D5DD" stroke-width="1.5"/>
    <path d="M30 0.5V8C30 10.2091 31.7909 12 34 12H41.5" stroke="#D0D5DD" stroke-width="1.5"/>
    <rect x="0.5" y="18" width="36" height="16" rx="2" fill="#155EEF"/>
    <path d="M4.45437 22.7273H6.35067L8.35352 27.6136H8.43874L10.4416 22.7273H12.3379V30H10.8464V25.2663H10.786L8.90394 29.9645H7.88832L6.00621 25.2486H5.94585V30H4.45437V22.7273ZM13.6048 30V22.7273H16.4741C17.0257 22.7273 17.4956 22.8326 17.8839 23.0433C18.2721 23.2517 18.5681 23.5417 18.7717 23.9134C18.9776 24.2827 19.0806 24.7088 19.0806 25.1918C19.0806 25.6747 18.9764 26.1009 18.7681 26.4702C18.5598 26.8395 18.2579 27.1271 17.8626 27.3331C17.4696 27.5391 16.9937 27.642 16.435 27.642H14.6062V26.4098H16.1864C16.4824 26.4098 16.7262 26.3589 16.918 26.2571C17.1121 26.1529 17.2565 26.0097 17.3512 25.8274C17.4483 25.6428 17.4968 25.4309 17.4968 25.1918C17.4968 24.9503 17.4483 24.7396 17.3512 24.5597C17.2565 24.3774 17.1121 24.2365 16.918 24.1371C16.7238 24.0353 16.4776 23.9844 16.1793 23.9844H15.1424V30H13.6048ZM20.0794 30V22.7273H24.9799V23.995H21.617V25.728H24.7278V26.9957H21.617V28.7322H24.9941V30H20.0794ZM31.0249 25.0781C30.9751 24.9053 30.9053 24.7526 30.8153 24.62C30.7254 24.4851 30.6153 24.3714 30.4851 24.2791C30.3572 24.1844 30.2105 24.1122 30.0447 24.0625C29.8814 24.0128 29.7003 23.9879 29.5014 23.9879C29.1297 23.9879 28.803 24.0803 28.5213 24.2649C28.242 24.4496 28.0241 24.7183 27.8679 25.071C27.7116 25.4214 27.6335 25.8499 27.6335 26.3565C27.6335 26.8632 27.7105 27.294 27.8643 27.6491C28.0182 28.0043 28.236 28.2753 28.5178 28.4624C28.7995 28.647 29.1321 28.7393 29.5156 28.7393C29.8636 28.7393 30.1607 28.6778 30.407 28.5547C30.6555 28.4292 30.8449 28.2528 30.9751 28.0256C31.1077 27.7983 31.174 27.5296 31.174 27.2195L31.4865 27.2656H29.6115V26.108H32.6548V27.0241C32.6548 27.6634 32.5199 28.2126 32.25 28.6719C31.9801 29.1288 31.6084 29.4815 31.1349 29.7301C30.6615 29.9763 30.1193 30.0994 29.5085 30.0994C28.8267 30.0994 28.2277 29.9491 27.7116 29.6484C27.1955 29.3454 26.7931 28.9157 26.5043 28.3594C26.2178 27.8007 26.0746 27.1378 26.0746 26.3707C26.0746 25.7812 26.1598 25.2557 26.3303 24.794C26.5031 24.33 26.7446 23.937 27.0547 23.6151C27.3648 23.2931 27.7259 23.0481 28.1378 22.88C28.5497 22.7119 28.996 22.6278 29.4766 22.6278C29.8885 22.6278 30.272 22.6882 30.6271 22.8089C30.9822 22.9273 31.2971 23.0954 31.5717 23.3132C31.8487 23.531 32.0748 23.7902 32.25 24.0909C32.4252 24.3892 32.5376 24.7183 32.5874 25.0781H31.0249Z" fill="white"/>
</svg>
