<svg width="40" height="40" viewBox="0 0 40 40" fill="none" xmlns="http://www.w3.org/2000/svg">
    <path d="M7.75 4C7.75 2.20508 9.20508 0.75 11 0.75H27C27.1212 0.75 27.2375 0.798159 27.3232 0.883885L38.1161 11.6768C38.2018 11.7625 38.25 11.8788 38.25 12V36C38.25 37.7949 36.7949 39.25 35 39.25H11C9.20507 39.25 7.75 37.7949 7.75 36V4Z" fill="white" stroke="#D0D5DD" stroke-width="1.5"/>
    <path d="M27 0.5V8C27 10.2091 28.7909 12 31 12H38.5" stroke="#D0D5DD" stroke-width="1.5"/>
    <rect x="0.5" y="18" width="30" height="16" rx="2" fill="#155EEF"/>
    <path d="M4.51589 22.7273H6.4122L8.41504 27.6136H8.50027L10.5031 22.7273H12.3994V30H10.9079V25.2663H10.8476L8.96547 29.9645H7.94984L6.06774 25.2486H6.00737V30H4.51589V22.7273ZM13.6663 30V22.7273H16.5356C17.0872 22.7273 17.5571 22.8326 17.9454 23.0433C18.3337 23.2517 18.6296 23.5417 18.8332 23.9134C19.0392 24.2827 19.1421 24.7088 19.1421 25.1918C19.1421 25.6747 19.038 26.1009 18.8296 26.4702C18.6213 26.8395 18.3195 27.1271 17.9241 27.3331C17.5311 27.5391 17.0552 27.642 16.4965 27.642H14.6677V26.4098H16.248C16.5439 26.4098 16.7877 26.3589 16.9795 26.2571C17.1736 26.1529 17.318 26.0097 17.4127 25.8274C17.5098 25.6428 17.5583 25.4309 17.5583 25.1918C17.5583 24.9503 17.5098 24.7396 17.4127 24.5597C17.318 24.3774 17.1736 24.2365 16.9795 24.1371C16.7854 24.0353 16.5392 23.9844 16.2409 23.9844H15.2039V30H13.6663ZM24.9633 25.0781C24.9136 24.9053 24.8438 24.7526 24.7538 24.62C24.6639 24.4851 24.5538 24.3714 24.4236 24.2791C24.2957 24.1844 24.1489 24.1122 23.9832 24.0625C23.8199 24.0128 23.6388 23.9879 23.4399 23.9879C23.0682 23.9879 22.7415 24.0803 22.4598 24.2649C22.1804 24.4496 21.9626 24.7183 21.8064 25.071C21.6501 25.4214 21.572 25.8499 21.572 26.3565C21.572 26.8632 21.6489 27.294 21.8028 27.6491C21.9567 28.0043 22.1745 28.2753 22.4562 28.4624C22.738 28.647 23.0706 28.7393 23.4541 28.7393C23.8021 28.7393 24.0992 28.6778 24.3454 28.5547C24.594 28.4292 24.7834 28.2528 24.9136 28.0256C25.0462 27.7983 25.1125 27.5296 25.1125 27.2195L25.425 27.2656H23.55V26.108H26.5933V27.0241C26.5933 27.6634 26.4584 28.2126 26.1885 28.6719C25.9186 29.1288 25.5469 29.4815 25.0734 29.7301C24.5999 29.9763 24.0578 30.0994 23.447 30.0994C22.7652 30.0994 22.1662 29.9491 21.6501 29.6484C21.134 29.3454 20.7316 28.9157 20.4427 28.3594C20.1563 27.8007 20.0131 27.1378 20.0131 26.3707C20.0131 25.7812 20.0983 25.2557 20.2687 24.794C20.4416 24.33 20.683 23.937 20.9932 23.6151C21.3033 23.2931 21.6643 23.0481 22.0763 22.88C22.4882 22.7119 22.9345 22.6278 23.415 22.6278C23.827 22.6278 24.2105 22.6882 24.5656 22.8089C24.9207 22.9273 25.2356 23.0954 25.5102 23.3132C25.7872 23.531 26.0133 23.7902 26.1885 24.0909C26.3637 24.3892 26.4761 24.7183 26.5258 25.0781H24.9633Z" fill="white"/>
</svg>
