<svg width="20" height="18" viewBox="0 0 20 18" fill="none" xmlns="http://www.w3.org/2000/svg">
    <path d="M1.66666 2.83333C1.66666 2.36662 1.66666 2.13327 1.75748 1.95501C1.83738 1.79821 1.96486 1.67072 2.12166 1.59083C2.29992 1.5 2.53328 1.5 2.99999 1.5H17C17.4667 1.5 17.7001 1.5 17.8783 1.59083C18.0351 1.67072 18.1626 1.79821 18.2425 1.95501C18.3333 2.13327 18.3333 2.36662 18.3333 2.83333V3.39116C18.3333 3.61516 18.3333 3.72716 18.306 3.8313C18.2817 3.92359 18.2418 4.01103 18.1879 4.0898C18.1271 4.17869 18.0425 4.25204 17.8732 4.39875L12.5434 9.01792C12.3741 9.16462 12.2895 9.23797 12.2287 9.32687C12.1749 9.40564 12.135 9.49308 12.1107 9.58536C12.0833 9.68951 12.0833 9.80151 12.0833 10.0255V14.382C12.0833 14.5449 12.0833 14.6264 12.057 14.6969C12.0338 14.7591 11.996 14.8149 11.9469 14.8596C11.8912 14.9102 11.8156 14.9404 11.6643 15.001L8.83092 16.1343C8.52463 16.2568 8.37149 16.3181 8.24855 16.2925C8.14104 16.2702 8.0467 16.2063 7.98603 16.1148C7.91666 16.0101 7.91666 15.8452 7.91666 15.5153V10.0255C7.91666 9.80151 7.91666 9.68951 7.88929 9.58536C7.86503 9.49308 7.8251 9.40564 7.77125 9.32687C7.71047 9.23797 7.62584 9.16462 7.45656 9.01792L2.12675 4.39875C1.95748 4.25204 1.87284 4.17869 1.81207 4.0898C1.75821 4.01103 1.71828 3.92359 1.69403 3.8313C1.66666 3.72716 1.66666 3.61516 1.66666 3.39116V2.83333Z" stroke="#667085" stroke-width="1.66667" stroke-linecap="round" stroke-linejoin="round"/>
</svg>
