<svg t="1732849979134" class="icon" viewBox="0 0 1024 1024" version="1.1" xmlns="http://www.w3.org/2000/svg"
     p-id="24884" width="200" height="200">
    <path d="M509.952 584.192c-93.184 0-175.104 28.16-236.032 81.408-65.536 56.832-104.448 140.8-111.104 241.664v2.048l0.512 2.048c3.584 20.992 17.408 38.912 37.376 47.616l3.072 1.536h612.864c2.56 0 5.12-0.512 7.68-1.024h1.024c23.04-6.144 37.888-29.184 33.792-53.248-10.752-198.656-144.384-322.048-349.184-322.048z m306.688 340.992H210.944c-6.656-4.096-11.264-10.24-12.8-17.92 13.312-177.664 132.608-287.744 312.32-287.744 186.88 0 304.128 108.544 313.344 289.792l0.512 2.048c0.512 5.632-2.048 11.776-7.68 13.824zM510.976 535.552h2.56c107.008-0.512 192.512-88.064 192-194.56 0-107.52-87.04-194.56-194.56-194.56s-194.56 87.04-194.56 194.56 87.04 194.56 194.56 194.56z m0-353.792h2.048c87.552 0.512 157.696 71.68 157.184 159.232 0 88.064-71.168 159.232-159.232 159.232-88.064 0-159.232-71.168-159.232-159.232 0-88.064 71.168-159.232 159.232-159.232zM935.936 159.232H865.28V88.576c0-12.8-10.752-23.552-23.552-23.552-12.8 0-23.552 10.752-23.552 23.552v70.656h-80.384c-12.8 0-23.552 10.752-23.552 23.552 0 12.8 10.752 23.552 23.552 23.552h80.384V286.72c0 12.8 10.752 23.552 23.552 23.552 12.8 0 23.552-10.752 23.552-23.552V206.848h70.656c12.8 0 23.552-10.752 23.552-23.552 0.512-13.312-10.24-24.064-23.552-24.064z"
          p-id="24885" fill="#ffffff"></path>
</svg>
