<svg t="1746973610970" class="icon" viewBox="0 0 1024 1024" version="1.1" xmlns="http://www.w3.org/2000/svg"
     p-id="35024" width="200" height="200">
    <path d="M944.77 801.134c0 21.789-17.685 39.453-39.499 39.453H110.267c-21.815 0-39.499-17.664-39.499-39.453V363.125c0-21.789 27.553-49.325 49.369-49.325H895.4c21.813 0 49.369 27.536 49.369 49.325v438.009z"
          fill="#FFFFFF" p-id="35025"></path>
    <path d="M905.271 850.587H110.267c-27.293 0-49.499-22.185-49.499-49.453V363.125c0-27.167 32.182-59.325 59.369-59.325H895.4c27.188 0 59.369 32.157 59.369 59.325v438.008c0.001 27.269-22.205 49.454-49.498 49.454zM120.137 323.801c-16.189 0-39.369 23.154-39.369 39.325v438.008c0 16.24 13.233 29.453 29.499 29.453h795.004c16.266 0 29.499-13.213 29.499-29.453V363.125c0-16.171-23.18-39.325-39.369-39.325H120.137z"
          fill="#323333" p-id="35026"></path>
    <path d="M811.519 840.587V586.195c0-21.791-27.553-49.325-49.369-49.325H253.386c-21.813 0-49.369 27.534-49.369 49.325v254.392h607.502z"
          fill="#FFFFFF" p-id="35027"></path>
    <path d="M821.519 850.587H194.017V586.195c0-27.168 32.181-59.325 59.369-59.325H762.15c27.188 0 59.369 32.157 59.369 59.325v264.392z m-607.502-20h587.502V586.195c0-16.171-23.18-39.325-39.369-39.325H253.386c-16.189 0-39.369 23.154-39.369 39.325v244.392z"
          fill="#323333" p-id="35028"></path>
    <path d="M770.084 786.313V600.181c0-18.817-23.795-42.597-42.634-42.597H288.085c-18.838 0-42.634 23.779-42.634 42.597v186.132h524.633z"
          fill="#3D71B7" p-id="35029"></path>
    <path d="M391.324 625.515c0 17.433-14.133 31.566-31.566 31.566-17.434 0-31.567-14.134-31.567-31.566V438.087c0-17.433 14.133-31.566 31.567-31.566 17.433 0 31.566 14.133 31.566 31.566v187.428z"
          fill="#D53260" p-id="35030"></path>
    <path d="M359.758 667.081c-22.92 0-41.567-18.646-41.567-41.566V438.087c0-22.92 18.647-41.566 41.567-41.566s41.566 18.646 41.566 41.566v187.428c0 22.92-18.646 41.566-41.566 41.566z m0-250.56c-11.892 0-21.567 9.675-21.567 21.566v187.428c0 11.892 9.675 21.566 21.567 21.566s21.566-9.675 21.566-21.566V438.087c0-11.892-9.675-21.566-21.566-21.566z"
          fill="#323333" p-id="35031"></path>
    <path d="M693.181 625.515c0 17.433-14.134 31.566-31.566 31.566-17.435 0-31.567-14.134-31.567-31.566V438.087c0-17.433 14.133-31.566 31.567-31.566 17.433 0 31.566 14.133 31.566 31.566v187.428z"
          fill="#D53260" p-id="35032"></path>
    <path d="M661.614 667.081c-22.92 0-41.567-18.646-41.567-41.566V438.087c0-22.92 18.647-41.566 41.567-41.566s41.566 18.646 41.566 41.566v187.428c0.001 22.92-18.646 41.566-41.566 41.566z m0-250.56c-11.893 0-21.567 9.675-21.567 21.566v187.428c0 11.892 9.675 21.566 21.567 21.566s21.566-9.675 21.566-21.566V438.087c0.001-11.892-9.674-21.566-21.566-21.566z"
          fill="#323333" p-id="35033"></path>
    <path d="M363.725 200.777h292.077v19.729H363.725z" fill="#3D71B7" p-id="35034"></path>
    <path d="M363.725 261.929h292.077v19.729H363.725z" fill="#3D71B7" p-id="35035"></path>
    <path d="M213.869 830.705h587.724v19.729H213.869z" fill="#D53260" p-id="35036"></path>
    <path d="M675.514 323.336h-329.24V207.792c0-27.271 22.187-49.458 49.458-49.458h230.323c27.271 0 49.458 22.187 49.458 49.458v115.544z m-309.24-20h289.239v-95.544c0-16.244-13.215-29.458-29.458-29.458H395.732c-16.243 0-29.458 13.215-29.458 29.458v95.544z"
          fill="#323333" p-id="35037"></path>
</svg>