<svg t="1744603002260" class="icon" viewBox="0 0 1181 1024" version="1.1" xmlns="http://www.w3.org/2000/svg" p-id="2421"
     width="200" height="200">
    <path d="M698.840615 54.980923H551.857231a110.198154 110.198154 0 0 0-108.150154 112.246154c1.102769 59.392 48.836923 108.228923 108.150154 108.228923h147.062154c60.967385 0 109.489231-51.436308 108.228923-112.246154A110.276923 110.276923 0 0 0 698.840615 54.980923z m0 368.246154H551.857231A110.198154 110.198154 0 0 0 443.707077 535.630769c1.102769 59.313231 48.836923 105.944615 108.150154 108.150154h147.062154c60.967385-2.205538 109.489231-51.436308 108.228923-112.246154a110.276923 110.276923 0 0 0-108.307693-108.307692z m0 367.143385H551.857231c-60.888615 2.205538-109.410462 51.436308-108.150154 112.246153a110.276923 110.276923 0 0 0 108.150154 108.228923h147.062154a110.276923 110.276923 0 0 0 108.228923-112.403692 109.961846 109.961846 0 0 0-108.307693-107.913846v-0.157538z m-404.716307 73.412923A146.510769 146.510769 0 0 1 147.298462 716.8a145.723077 145.723077 0 0 1 43.086769-103.896615 146.510769 146.510769 0 0 1 104.132923-42.929231h73.334154v-73.885539h-73.255385a220.790154 220.790154 0 0 0-220.868923 220.553847c0 121.777231 98.934154 220.553846 220.317538 220.553846v73.491692l110.276924-110.276923-110.434462-110.276923v73.491692h0.236308v0.157539z m662.212923-734.916923h-73.412923v73.806769h73.412923a146.747077 146.747077 0 0 1 147.062154 146.589538c0 39.305846-15.675077 76.091077-43.323077 103.975385-27.569231 27.569231-65.772308 43.008-104.369231 42.850461v-73.412923l-110.276923 110.276923 110.276923 110.276923v-73.491692a221.026462 221.026462 0 0 0 220.790154-220.475077 220.081231 220.081231 0 0 0-220.16-220.396307z"
          fill="#1296db" p-id="2422"></path>
</svg>
