<svg t="1746974079180" class="icon" viewBox="0 0 1024 1024" version="1.1" xmlns="http://www.w3.org/2000/svg"
     p-id="60230" width="200" height="200">
    <path d="M313.1392 344.8832l-32.768 32.768c-123.904 123.904-119.04 312.3712 0.2048 431.616s307.712 124.1088 431.616 0.2048l32.768-32.768"
          fill="#EBEBFF" p-id="60231"></path>
    <path d="M496.5888 923.5456c-83.6608 0-167.2704-32.6144-232.4992-97.792-130.304-130.304-130.4064-334.3872-0.2048-464.5888l32.768-32.768 32.9728 32.9728-32.768 32.768c-54.9376 54.9376-84.8896 126.2592-84.2752 200.8576 0.6144 73.6768 30.5664 143.9232 84.4288 197.7344 53.8624 53.8624 124.1088 83.8656 197.7344 84.4288h2.2528c73.7792 0 144.2304-29.8496 198.656-84.2752l32.768-32.768 32.9728 32.9728-32.768 32.768c-65.0752 65.0752-148.5824 97.5872-232.1408 97.5872z"
          fill="#6E6E96" p-id="60232"></path>
    <path d="M517.5808 316.7744l191.8976-191.9488c14.8992-14.848 39.2192-14.848 54.0672 0l21.6064 21.6064c14.848 14.848 14.848 39.2192 0 54.0672l-191.8976 191.9488"
          fill="#FFDB70" p-id="60233"></path>
    <path d="M609.792 408.9856l-32.9728-32.9728 191.8976-191.9488c5.7344-5.7344 5.7344-15.36 0-21.0944l-21.6064-21.6064c-5.7344-5.7344-15.36-5.7344-21.0944 0l-191.8976 191.8976-32.9728-32.9728 191.8976-191.9488c24.0128-24.0128 63.0784-24.0128 87.04 0l21.6064 21.6064c24.0128 24.0128 24.0128 63.0272 0 87.04L609.792 408.9344z"
          fill="#6E6E96" p-id="60234"></path>
    <path d="M693.2992 492.4928l191.8976-191.8976c14.848-14.848 39.168-14.848 54.0672 0l21.6064 21.6064c14.848 14.848 14.848 39.2192 0 54.0672l-191.8976 191.8976"
          fill="#FFDB70" p-id="60235"></path>
    <path d="M785.5104 584.6528l-32.9728-32.9728 191.8976-191.8976c2.7648-2.816 4.352-6.6048 4.3008-10.5472 0-3.9424-1.536-7.7312-4.3008-10.5472l-21.6064-21.6064c-2.7648-2.7648-6.5024-4.3008-10.5472-4.3008s-7.7312 1.536-10.5472 4.3008l-191.9488 191.9488-32.9728-32.9728 191.8976-191.8976c11.5712-11.5712 27.0336-17.9712 43.52-17.9712s31.9488 6.4 43.52 17.9712l21.6064 21.6064c11.5712 11.5712 17.9712 27.0336 17.9712 43.52s-6.4 31.9488-17.9712 43.52l-191.8976 191.8976z"
          fill="#6E6E96" p-id="60236"></path>
    <path d="M861.5936 794.5728c-23.7568 23.808-62.72 23.808-86.4768 0L291.2256 310.6816c-23.808-23.808-23.808-62.72 0-86.4768l12.8512-12.8512c23.808-23.808 62.72-23.808 86.4768 0l483.8912 483.8912c23.7568 23.7568 23.7568 62.72 0 86.4768l-12.8512 12.8512z"
          fill="#EBEBFF" p-id="60237"></path>
    <path d="M818.3296 835.7376c-22.6304 0-43.8272-8.7552-59.7504-24.6784L274.688 327.168c-32.9216-32.9216-32.9216-86.528 0-119.5008l12.8512-12.8512c15.9232-15.9232 37.12-24.6784 59.7504-24.6784s43.8272 8.7552 59.7504 24.6784l483.8912 483.8912c32.9216 32.9216 32.9216 86.528 0 119.4496l-12.8512 12.8512c-15.872 15.872-37.12 24.6784-59.7504 24.6784z m-471.04-618.9056c-10.1376 0-19.6608 3.8912-26.7264 11.008l-12.8512 12.8512c-14.7456 14.7456-14.7456 38.7584 0 53.504l483.8912 483.8912c7.1168 7.1168 16.5888 11.008 26.7776 11.008s19.6608-3.8912 26.7264-11.008l12.8512-12.8512c14.7456-14.7456 14.7456-38.7584 0-53.504L374.0672 227.84c-7.1168-7.1168-16.5888-11.008-26.7776-11.008z"
          fill="#6E6E96" p-id="60238"></path>
    <path d="M497.1008 884.3264h-2.6112c-85.9648-0.7168-167.7824-35.5328-230.3488-98.0992-62.5664-62.5664-97.4336-144.384-98.0992-230.3488-0.7168-87.1936 34.048-170.3936 97.9456-234.24l32.768-32.768 32.9728 32.9728-32.768 32.768c-54.9376 54.9376-84.8896 126.2592-84.2752 200.8576 0.6144 73.6768 30.5664 143.872 84.4288 197.7344 53.8624 53.8624 124.1088 83.8656 197.7344 84.48 74.5984 0.8192 145.92-29.2864 200.8576-84.224l32.768-32.768 32.9728 32.9728-32.768 32.768c-63.232 63.232-145.3568 97.9456-231.6288 97.9456z"
          fill="#6E6E96" opacity=".15" p-id="60239"></path>
    <path d="M818.3296 782.6944c-22.6304 0-43.8272-8.7552-59.7504-24.6784l-483.8912-483.84 32.9728-32.9728 483.8912 483.8912c7.1168 7.1168 16.5888 11.008 26.7264 11.008s19.6608-3.8912 26.7776-11.008l12.8512-12.8512 32.9728 32.9728-12.8512 12.8512c-15.872 15.9232-37.12 24.6784-59.7504 24.6784zM946.432 307.712l32.9728 32.9728-218.9312 218.9312-32.9728-32.9728 218.9312-218.9312zM771.1744 128.3072l32.9728 32.9728-229.7856 229.7856-32.9728-32.9728 229.7856-229.7856zM305.0496 361.1136l389.9904 389.9904-32.9728 32.9728-389.9904-389.9392 32.9728-32.9728z"
          fill="#6E6E96" opacity=".15" p-id="60240"></path>
    <path d="M61.184 933.632h-1.024a23.32672 23.32672 0 0 1 0.0512-46.6432h0.9216c124.5696 0 200.5504-91.4944 201.2672-92.416a23.3216 23.3216 0 0 1 32.768-3.4304 23.26528 23.26528 0 0 1 3.4816 32.7168c-3.6352 4.5056-90.1632 109.7216-237.568 109.7216z"
          fill="#6E6E96" p-id="60241"></path>
</svg>