<svg t="1746973462806" class="icon" viewBox="0 0 1050 1024" version="1.1" xmlns="http://www.w3.org/2000/svg"
     p-id="26828" width="200" height="200">
    <path d="M875.28 275.356a4698.264 4698.264 0 0 1 32.216 740.068l-775.944-85.668c57.592-286.68 83.432-579.776 76.896-874L611.924 11.212c85.144 83.196 173.08 171.064 263.356 264.144z"
          fill="#F0F0F0" p-id="26829"></path>
    <path d="M640.12 285.78a12704.568 12704.568 0 0 1 261.796 280.32 4689.592 4689.592 0 0 0-26.636-290.748c-78.384 3.48-156.772 6.952-235.16 10.428z"
          opacity=".12" p-id="26830"></path>
    <path d="M529.196 200.848l-225.3 14.852c-0.1-12.964-0.264-25.924-0.488-38.892l222.844-16.924c1.048 13.652 2.028 27.308 2.944 40.964z"
          opacity=".4" p-id="26831"></path>
    <path d="M793.424 837.552l-526.54-40.16c1.74-12.808 3.416-25.628 5.036-38.452l522.228 35.08c-0.172 14.504-0.412 29.016-0.724 43.532zM479.28 712.672l-200.572-10.752c1.436-12.848 2.812-25.704 4.128-38.564 66.284 2.94 132.568 5.888 198.848 8.832-0.736 13.496-1.54 26.992-2.404 40.484zM481.032 612.104l-192.76-5.916c1.136-12.88 2.208-25.768 3.22-38.66l191.028 4.084c-0.436 13.5-0.928 26.996-1.488 40.492zM484.008 511.628l-188.424-1.412c0.832-12.912 1.6-25.824 2.308-38.744l186.648-0.368c-0.116 13.512-0.292 27.02-0.532 40.524zM658.564 408.308l-357.932 5.752c0.524-12.932 0.992-25.868 1.396-38.808l354.392-9.1c0.78 14.044 1.496 28.096 2.144 42.156zM541.584 308.216l-238.168 9.536c0.22-12.948 0.384-25.904 0.484-38.856L539.6 267.148c0.728 13.684 1.388 27.376 1.984 41.068z"
          opacity=".12" p-id="26832"></path>
    <path d="M611.924 11.212a4429.268 4429.268 0 0 1 28.196 274.572l235.16-10.424c-90.276-93.084-178.212-180.952-263.356-264.148z"
          fill="#666666" p-id="26833"></path>
    <path d="M603.004 714.188l-75.088-3.94a4326.604 4326.604 0 0 0 5.612-178.04l72.232 0.876a4389.08 4389.08 0 0 1-2.756 181.104z"
          fill="#FF78C9" p-id="26834"></path>
    <path d="M700.72 719.316l-75.084-3.94c2.488-80.264 2.788-160.56 0.904-240.788l71.28-0.08a4495.52 4495.52 0 0 1 2.9 244.808z"
          fill="#81C5E8" p-id="26835"></path>
    <path d="M796.208 724.328l-75.084-3.94c0.564-49.736 0.296-99.456-0.784-149.148l72.804 1.468c1.852 50.5 2.876 101.044 3.064 151.62z"
          fill="#85CC85" p-id="26836"></path>
</svg>