<svg t="1753625694262" class="icon" viewBox="0 0 1024 1024" version="1.1" xmlns="http://www.w3.org/2000/svg" p-id="13181" width="200" height="200"><path d="M894.976 820.736v84.48H527.36v-84.48h367.616z" fill="#64829D" p-id="13182"></path><path d="M899.072 764.928H523.264c-28.672 0-52.224 25.088-52.224 56.32v84.48c0 31.232 23.552 56.32 52.224 56.32h375.808c28.672 0 52.224-25.088 52.224-56.32v-84.48c0-31.232-23.552-56.32-52.224-56.32z" fill="#FFC107" p-id="13183"></path><path d="M374.272 596.48h-112.64V512H373.76v84.48z" p-id="13184"></path><path d="M894.976 512v84.48H527.36V512h367.616z" fill="#13C2C2" p-id="13185"></path><path d="M519.168 455.68c-26.624 0-48.128 25.088-48.128 56.32v84.48c0 31.232 21.504 56.32 48.128 56.32h384c26.624 0 48.128-25.088 48.128-56.32V512c0-31.232-21.504-56.32-48.128-56.32h-384z" fill="#28C286" p-id="13186"></path><path d="M877.056 62.464H269.312c-46.592 0-84.48 37.888-84.48 83.968V258.56c0 46.592 37.888 84.48 84.48 84.48h607.744c46.592 0 84.48-37.888 84.48-84.48V146.944c0-46.592-37.888-84.48-84.48-84.48z" fill="#706EE6" p-id="13187"></path><path d="M905.216 146.944v112.128c0 15.36-12.8 28.16-28.16 28.16H269.312c-15.36 0-28.16-12.8-28.16-28.16V146.944c0-15.36 12.8-28.16 28.16-28.16h607.744c15.872 0 28.16 12.8 28.16 28.16z m-691.2 38.4c-44.544-0.512-88.576-0.512-133.12-0.512-10.24 0.512-17.92 5.12-18.432 19.456V865.28c0 12.8 11.264 23.552 25.088 23.552 1.024 0 2.56 0 3.584-0.512h152.576v-47.104h-130.56V571.392h131.072v-47.104H113.152v-281.6c0-3.584 0-4.608 0.512-9.728h100.352v-47.616z" fill="#706EE6" p-id="13188"></path><path d="M374.272 455.68h-112.64a56.158 56.158 0 0 0-56.32 56.32v84.48a56.158 56.158 0 0 0 56.32 56.32H373.76a56.158 56.158 0 0 0 56.32-56.32V512c0-31.232-25.088-56.32-55.808-56.32z" fill="#28C286" p-id="13189"></path><path d="M374.272 764.928h-112.64a56.158 56.158 0 0 0-56.32 56.32v84.48a56.158 56.158 0 0 0 56.32 56.32H373.76a56.158 56.158 0 0 0 56.32-56.32v-84.48c0-31.232-25.088-56.32-55.808-56.32z" fill="#FFC107" p-id="13190"></path><path d="M374.272 820.736v84.48h-112.64v-84.48h112.64z" fill="#FFC107" p-id="13191"></path></svg>