<svg t="1744605017706" class="icon" viewBox="0 0 1024 1024" version="1.1" xmlns="http://www.w3.org/2000/svg"
     p-id="16451" width="200" height="200">
    <path d="M299.46 128.5c104.03 0 188.34 85.92 188.34 191.79 0 105.87-84.31 191.79-188.34 191.79-103.95 0-188.26-85.92-188.26-191.79 0-105.86 84.31-191.79 188.26-191.79z m392.61 162.35c97.72 26.99 164.82 116.65 163.15 218.02 2.28 101.44-65.12 191.28-163.15 217.48-1.61 2.69-4.3 4.48-7.3 4.97l-3.07 0.05c-17.36 1.46-33.03-10.46-36.24-27.59a36.263 36.263 0 0 1 4.34-27.43 36.242 36.242 0 0 1 22.47-16.32l1.65-0.33c61.72-18.3 104.2-74.05 106.26-137.56l-0.06-11.28c2.1-67.73-41.4-128.49-106.2-148.33-19.68-3.77-32.58-22.78-28.82-42.46 0-0.54 0.21-1.11 0.36-1.62 5.45-20.36 26.16-32.62 46.61-27.6z m113.92-143.31c133.99 71.85 217.61 211.57 217.61 363.61s-83.62 291.76-217.61 363.61a50.206 50.206 0 0 1-18.03 5.02c-13.93-0.52-26.67-8.04-33.75-20.04a35.56 35.56 0 0 1-3.02-27.06 35.588 35.588 0 0 1 17.02-21.26l1.53-0.78c108.71-60.43 176.13-175.04 176.13-299.42S878.45 272.23 769.74 211.8a35.515 35.515 0 0 1-18.03-20.4 35.504 35.504 0 0 1 1.69-27.17l0.81-1.53c10.45-18.08 33.25-24.75 51.78-15.16zM598.32 751.17v114.59c0 16.57-13.2 30-29.46 30H30.06c-7.89-0.06-15.43-3.26-20.95-8.89S0.52 873.65 0.6 865.76V751.09c0-97.05 77.26-175.76 172.62-175.76h252.49c95.36 0.08 172.61 78.79 172.61 175.84z"
          fill="#1296db" p-id="16452"></path>
</svg>
