<svg t="1747113495408" class="icon" viewBox="0 0 1024 1024" version="1.1" xmlns="http://www.w3.org/2000/svg"
     p-id="15323" width="200" height="200">
    <path d="M907.2 907.2H116.8V116.8h789.6v790.4z m-758.4-32h725.6V148.8H148.8v726.4z" fill="#3B566B"
          p-id="15324"></path>
    <path d="M509.6 474.4c-19.2 0-35.2 16-35.2 35.2 0 19.2 16 35.2 35.2 35.2s35.2-16 35.2-35.2c0-20-15.2-35.2-35.2-35.2z m166.4 32c-0.8-10.4-3.2-20-8-28.8-1.6-3.2-4.8-5.6-9.6-5.6l-22.4 1.6c-2.4-9.6-6.4-19.2-11.2-28l17.6-20c2.4-3.2 3.2-7.2 1.6-10.4-4.8-9.6-10.4-17.6-18.4-24-7.2-6.4-16-12-25.6-15.2-4-1.6-8 0-10.4 2.4L576 395.2c-8.8-4.8-17.6-8.8-27.2-12l-1.6-27.2c0-4-3.2-7.2-6.4-8.8-8.8-3.2-18.4-4.8-28-4H512c-9.6-0.8-19.2 0.8-28 4-4 1.6-6.4 4.8-6.4 8.8l-1.6 28c-9.6 2.4-18.4 6.4-27.2 12l-15.2-16.8c-2.4-3.2-6.4-4-10.4-2.4-9.6 3.2-18.4 8.8-25.6 15.2-7.2 6.4-13.6 14.4-18.4 24-1.6 3.2-0.8 8 1.6 10.4l17.6 20c-4.8 8.8-8.8 17.6-11.2 28l-22.4-2.4c-4 0-7.2 1.6-9.6 5.6-4.8 9.6-7.2 19.2-8 28.8-0.8 9.6 0.8 20 4 29.6 1.6 4 4.8 6.4 8.8 6.4l27.2 1.6c2.4 9.6 6.4 18.4 12 27.2l-16.8 15.2c-3.2 2.4-4 6.4-2.4 10.4 3.2 9.6 8 18.4 15.2 25.6 6.4 7.2 14.4 13.6 24 18.4 3.2 1.6 8 0.8 10.4-1.6l20-17.6c8.8 4.8 17.6 8.8 28 11.2l-1.6 22.4c0 4 1.6 7.2 5.6 9.6 8.8 4.8 19.2 7.2 28.8 8h3.2c10.4-0.8 20-3.2 28.8-8 3.2-1.6 5.6-5.6 5.6-9.6l-1.6-22.4c9.6-2.4 19.2-6.4 28-11.2l20 17.6c3.2 2.4 7.2 3.2 10.4 1.6 8.8-4.8 16.8-10.4 24-18.4 6.4-7.2 12-16 15.2-25.6 1.6-4 0-8-2.4-10.4l-16.8-15.2c4.8-8.8 8.8-17.6 12-27.2l27.2-1.6c4 0 7.2-3.2 8.8-6.4 2.4-9.6 4-20 3.2-29.6z m-165.6 73.6c-39.2 0-70.4-32-70.4-71.2s31.2-71.2 70.4-71.2 70.4 32 70.4 71.2-31.2 71.2-70.4 71.2z"
          fill="#3B566B" p-id="15325"></path>
    <path d="M495.2 138.4H528v224h-32.8zM495.2 642.4H528v234.4h-32.8z" fill="#3B566B" p-id="15326"></path>
    <path d="M344 46.4h332.8v164.8H344z" fill="#1E81CD" p-id="15327"></path>
    <path d="M40 805.6h231.2v164.8H40z" fill="#4EB96F" p-id="15328"></path>
    <path d="M132 504m-92 0a92 92 0 1 0 184 0 92 92 0 1 0-184 0Z" fill="#EE5350" p-id="15329"></path>
    <path d="M887.2 504m-92 0a92 92 0 1 0 184 0 92 92 0 1 0-184 0Z" fill="#EE5350" p-id="15330"></path>
    <path d="M512.8 888m-92 0a92 92 0 1 0 184 0 92 92 0 1 0-184 0Z" fill="#1E81CD" p-id="15331"></path>
    <path d="M759.2 805.6h231.2v164.8H759.2z" fill="#FFC109" p-id="15332"></path>
</svg>
