<svg t="1746973537744" class="icon" viewBox="0 0 1024 1024" version="1.1" xmlns="http://www.w3.org/2000/svg"
     p-id="30237" width="200" height="200">
    <path d="M935.936 212.992v622.592c0 46.08-37.376 82.944-82.944 83.456H230.4c-69.632 0-125.952-56.32-125.952-125.952V212.992c0-69.632 56.32-125.952 125.952-125.952h580.096c69.12 0 125.44 56.32 125.44 125.952z"
          fill="#81B5E5" p-id="30238"></path>
    <path d="M738.816 919.04h-508.928c-69.632 0-125.952-56.32-125.952-125.952v-432.128c8.192-0.512 16.384-0.512 25.088-0.512 10.24 0 19.968 0 29.696 0.512 294.4 14.336 534.528 236.032 576 522.752 2.048 11.776 3.072 23.552 4.096 35.328z"
          fill="#FFFFFF" opacity=".2" p-id="30239"></path>
    <path d="M935.936 212.992v622.592c0 11.264-2.048 22.528-6.656 32.768-48.128 11.264-97.28 16.896-146.432 16.896-15.872 0-31.744-0.512-47.616-1.536-290.816-21.504-527.36-240.128-576-522.752-14.848-85.504-11.776-173.056 8.192-257.536 18.944-11.264 40.96-16.896 62.976-16.896h580.096c69.12 0.512 125.44 56.832 125.44 126.464z"
          fill="#FFFFFF" opacity=".14" p-id="30240"></path>
    <path d="M848.384 855.04h-130.56v-21.504h130.56v-130.56h22.016v152.064h-22.016z m0-673.792h-130.56v-21.504h152.576v152.064h-22.016v-130.56z m-652.8 651.776h130.56v21.504h-152.576v-152.064h22.016v130.56z m0-673.28h130.56v21.504h-130.56v130.56h-22.016v-152.064h22.016z"
          fill="#BD4AEB" p-id="30241"></path>
    <path d="M310.784 550.912h444.928c25.6 0 46.592 19.968 46.592 45.056v134.656c0 24.576-20.992 45.056-46.592 45.056h-444.928c-25.6 0-46.592-19.968-46.592-45.056v-134.656c0-24.576 20.992-45.056 46.592-45.056z"
          fill="#D9EEFF" p-id="30242"></path>
    <path d="M287.232 282.112h117.248c12.8 0 23.552 10.24 23.552 22.528v403.456c0 12.288-10.752 22.528-23.552 22.528h-117.248c-12.8 0-23.552-10.24-23.552-22.528v-403.456c0.512-12.288 10.752-22.528 23.552-22.528z"
          fill="#0E3D80" p-id="30243"></path>
    <path d="M474.624 282.112h117.248c12.8 0 23.552 10.24 23.552 22.528v403.456c0 12.288-10.752 22.528-23.552 22.528h-117.248c-12.8 0-23.552-10.24-23.552-22.528v-403.456c0-12.288 10.752-22.528 23.552-22.528z"
          fill="#0090FF" p-id="30244"></path>
    <path d="M662.016 282.112h117.248c12.8 0 23.552 10.24 23.552 22.528v403.456c0 12.288-10.752 22.528-23.552 22.528h-117.248c-12.8 0-23.552-10.24-23.552-22.528v-403.456c0-12.288 10.752-22.528 23.552-22.528z"
          fill="#FFC15B" p-id="30245"></path>
    <path d="M299.008 315.904h93.696v45.056h-93.696v-45.056z m374.784 0h93.696v45.056h-93.696v-45.056zM299.008 382.976h93.696v22.528h-93.696v-22.528z m374.784 0h93.696v22.528h-93.696v-22.528z m-374.784 45.056h93.696v22.528h-93.696v-22.528z m374.784 0h93.696v22.528h-93.696v-22.528z"
          fill="#FFFFFF" p-id="30246"></path>
    <path d="M532.992 387.584c1.024 0 2.56 0 2.56 1.024l32.768 28.16V282.112h-70.144v134.656l32.768-28.16s1.024-1.024 2.048-1.024z"
          fill="#73C2FF" p-id="30247"></path>
</svg>