<svg width="24" height="24" viewBox="0 0 24 24" fill="none" xmlns="http://www.w3.org/2000/svg">
    <path d="M15.222 22.0825H6.95765C5.23443 22.0825 3.83765 20.6857 3.83765 18.9625V5.24646C3.83765 3.52327 5.23443 2.12646 6.95765 2.12646H17.6796C19.4028 2.12646 20.7996 3.52327 20.7996 5.24646V14.6521L15.222 22.0825Z" fill="#FFD05C"/>
    <path d="M16.1617 7.79061H8.54166C8.01127 7.79061 7.58167 7.361 7.58167 6.83061C7.58167 6.30021 8.01127 5.87061 8.54166 5.87061H16.1617C16.6921 5.87061 17.1217 6.30021 17.1217 6.83061C17.1217 7.361 16.6921 7.79061 16.1617 7.79061ZM16.1617 11.777H8.54166C8.01127 11.777 7.58167 11.3474 7.58167 10.817C7.58167 10.2866 8.01127 9.85702 8.54166 9.85702H16.1617C16.6921 9.85702 17.1217 10.2866 17.1217 10.817C17.1217 11.3474 16.6921 11.777 16.1617 11.777ZM13.2289 15.7634H8.54166C8.01127 15.7634 7.58167 15.3338 7.58167 14.8034C7.58167 14.273 8.01127 13.8434 8.54166 13.8434H13.2289C13.7593 13.8434 14.1889 14.273 14.1889 14.8034C14.1889 15.3338 13.7593 15.7634 13.2289 15.7634Z" fill="white"/>
    <path d="M17.4288 14.6497C16.2096 14.6497 15.2208 15.6384 15.2208 16.8577V22.0824H15.2232L20.7996 14.6509V14.6484H17.4288V14.6497Z" fill="#FCA235"/>
</svg>
