<svg width="41" height="40" viewBox="0 0 41 40" fill="none" xmlns="http://www.w3.org/2000/svg">
    <path d="M8.75 4C8.75 2.20508 10.2051 0.75 12 0.75H28C28.1212 0.75 28.2375 0.798159 28.3232 0.883885L39.1161 11.6768C39.2018 11.7625 39.25 11.8788 39.25 12V36C39.25 37.7949 37.7949 39.25 36 39.25H12C10.2051 39.25 8.75 37.7949 8.75 36V4Z" fill="white" stroke="#D0D5DD" stroke-width="1.5"/>
    <path d="M28 0.5V8C28 10.2091 29.7909 12 32 12H39.5" stroke="#D0D5DD" stroke-width="1.5"/>
    <rect y="18" width="30" height="16" rx="2" fill="#0E9384"/>
    <path d="M10.7968 26.3636C10.7968 27.1567 10.6465 27.8314 10.3458 28.3878C10.0475 28.9441 9.6403 29.3691 9.1242 29.6626C8.61047 29.9538 8.03282 30.0994 7.39125 30.0994C6.74494 30.0994 6.16492 29.9527 5.65119 29.6591C5.13746 29.3655 4.73145 28.9406 4.43315 28.3842C4.13485 27.8279 3.98571 27.1544 3.98571 26.3636C3.98571 25.5705 4.13485 24.8958 4.43315 24.3395C4.73145 23.7831 5.13746 23.3594 5.65119 23.0682C6.16492 22.7746 6.74494 22.6278 7.39125 22.6278C8.03282 22.6278 8.61047 22.7746 9.1242 23.0682C9.6403 23.3594 10.0475 23.7831 10.3458 24.3395C10.6465 24.8958 10.7968 25.5705 10.7968 26.3636ZM9.23784 26.3636C9.23784 25.8499 9.1609 25.4167 9.00701 25.0639C8.8555 24.7112 8.64125 24.4437 8.36426 24.2614C8.08727 24.0791 7.76293 23.9879 7.39125 23.9879C7.01956 23.9879 6.69522 24.0791 6.41824 24.2614C6.14125 24.4437 5.92581 24.7112 5.77193 25.0639C5.62041 25.4167 5.54466 25.8499 5.54466 26.3636C5.54466 26.8774 5.62041 27.3106 5.77193 27.6634C5.92581 28.0161 6.14125 28.2836 6.41824 28.4659C6.69522 28.6482 7.01956 28.7393 7.39125 28.7393C7.76293 28.7393 8.08727 28.6482 8.36426 28.4659C8.64125 28.2836 8.8555 28.0161 9.00701 27.6634C9.1609 27.3106 9.23784 26.8774 9.23784 26.3636ZM16.7583 25.0781C16.7085 24.9053 16.6387 24.7526 16.5487 24.62C16.4588 24.4851 16.3487 24.3714 16.2185 24.2791C16.0906 24.1844 15.9439 24.1122 15.7781 24.0625C15.6148 24.0128 15.4337 23.9879 15.2348 23.9879C14.8631 23.9879 14.5364 24.0803 14.2547 24.2649C13.9753 24.4496 13.7575 24.7183 13.6013 25.071C13.445 25.4214 13.3669 25.8499 13.3669 26.3565C13.3669 26.8632 13.4439 27.294 13.5977 27.6491C13.7516 28.0043 13.9694 28.2753 14.2512 28.4624C14.5329 28.647 14.8655 28.7393 15.249 28.7393C15.597 28.7393 15.8941 28.6778 16.1404 28.5547C16.3889 28.4292 16.5783 28.2528 16.7085 28.0256C16.8411 27.7983 16.9074 27.5296 16.9074 27.2195L17.2199 27.2656H15.3449V26.108H18.3882V27.0241C18.3882 27.6634 18.2533 28.2126 17.9834 28.6719C17.7135 29.1288 17.3418 29.4815 16.8683 29.7301C16.3949 29.9763 15.8527 30.0994 15.2419 30.0994C14.5601 30.0994 13.9611 29.9491 13.445 29.6484C12.9289 29.3454 12.5265 28.9157 12.2377 28.3594C11.9512 27.8007 11.808 27.1378 11.808 26.3707C11.808 25.7812 11.8932 25.2557 12.0637 24.794C12.2365 24.33 12.478 23.937 12.7881 23.6151C13.0982 23.2931 13.4593 23.0481 13.8712 22.88C14.2831 22.7119 14.7294 22.6278 15.21 22.6278C15.6219 22.6278 16.0054 22.6882 16.3605 22.8089C16.7156 22.9273 17.0305 23.0954 17.3051 23.3132C17.5821 23.531 17.8082 23.7902 17.9834 24.0909C18.1586 24.3892 18.271 24.7183 18.3208 25.0781H16.7583ZM24.3657 25.0781C24.316 24.9053 24.2461 24.7526 24.1562 24.62C24.0662 24.4851 23.9561 24.3714 23.8259 24.2791C23.6981 24.1844 23.5513 24.1122 23.3856 24.0625C23.2222 24.0128 23.0411 23.9879 22.8422 23.9879C22.4706 23.9879 22.1439 24.0803 21.8621 24.2649C21.5828 24.4496 21.365 24.7183 21.2087 25.071C21.0525 25.4214 20.9743 25.8499 20.9743 26.3565C20.9743 26.8632 21.0513 27.294 21.2052 27.6491C21.359 28.0043 21.5769 28.2753 21.8586 28.4624C22.1403 28.647 22.4729 28.7393 22.8564 28.7393C23.2045 28.7393 23.5016 28.6778 23.7478 28.5547C23.9964 28.4292 24.1858 28.2528 24.316 28.0256C24.4485 27.7983 24.5148 27.5296 24.5148 27.2195L24.8273 27.2656H22.9523V26.108H25.9957V27.0241C25.9957 27.6634 25.8607 28.2126 25.5908 28.6719C25.3209 29.1288 24.9492 29.4815 24.4758 29.7301C24.0023 29.9763 23.4601 30.0994 22.8493 30.0994C22.1675 30.0994 21.5686 29.9491 21.0525 29.6484C20.5364 29.3454 20.1339 28.9157 19.8451 28.3594C19.5586 27.8007 19.4154 27.1378 19.4154 26.3707C19.4154 25.7812 19.5006 25.2557 19.6711 24.794C19.8439 24.33 20.0854 23.937 20.3955 23.6151C20.7056 23.2931 21.0667 23.0481 21.4786 22.88C21.8905 22.7119 22.3368 22.6278 22.8174 22.6278C23.2293 22.6278 23.6128 22.6882 23.968 22.8089C24.3231 22.9273 24.6379 23.0954 24.9126 23.3132C25.1895 23.531 25.4156 23.7902 25.5908 24.0909C25.766 24.3892 25.8785 24.7183 25.9282 25.0781H24.3657Z" fill="white"/>
</svg>
