<svg width="20" height="20" viewBox="0 0 20 20" fill="none" xmlns="http://www.w3.org/2000/svg">
    <g clip-path="url(#clip0_2480_18413)">
        <path d="M10 0C15.5238 0 20 4.47625 20 10C20 15.5238 15.5212 20 10 20C4.47875 20 0 15.5212 0 10C0 4.47875 4.47625 0 10 0Z" fill="#475467"/>
        <path d="M8.2475 11.6296L6.035 9.51089C5.88611 9.3684 5.68797 9.28887 5.48188 9.28887C5.27579 9.28887 5.07765 9.3684 4.92875 9.51089C4.85721 9.57939 4.80028 9.66166 4.76138 9.75275C4.72249 9.84383 4.70244 9.94185 4.70244 10.0409C4.70244 10.1399 4.72249 10.238 4.76138 10.329C4.80028 10.4201 4.85721 10.5024 4.92875 10.5709L7.46188 12.9971C7.67339 13.1997 7.95495 13.3128 8.24782 13.3128C8.54069 13.3128 8.82225 13.1997 9.03375 12.9971L9.35438 12.6903L15.0719 7.21402C15.1433 7.14553 15.2002 7.0633 15.239 6.97227C15.2778 6.88124 15.2979 6.7833 15.2979 6.68433C15.2979 6.58536 15.2778 6.48742 15.239 6.39639C15.2002 6.30536 15.1433 6.22313 15.0719 6.15464C14.923 6.01215 14.7248 5.93262 14.5188 5.93262C14.3127 5.93262 14.1145 6.01215 13.9656 6.15464L8.2475 11.6296Z" fill="white"/>
    </g>
    <defs>
        <clipPath id="clip0_2480_18413">
            <rect width="20" height="20" fill="white"/>
        </clipPath>
    </defs>
</svg>
