<svg width="28" height="28" viewBox="0 0 28 28" fill="none" xmlns="http://www.w3.org/2000/svg">
    <g clip-path="url(#clip0_7051_87003)">
        <path d="M0 14C0 21.7322 6.2678 28 14 28C21.7322 28 28 21.7322 28 14C28 6.2678 21.7322 0 14 0C6.2678 0 0 6.2678 0 14Z" fill="#B2DB48"/>
        <path d="M6.90619 8.24185C6.90619 7.50405 7.50679 6.90625 8.24179 6.90625H12.3284C13.0648 6.90625 13.6626 7.50685 13.6626 8.24185V12.3284C13.6622 12.6824 13.5213 13.0218 13.2709 13.272C13.0205 13.5221 12.681 13.6627 12.327 13.6627H8.24179C7.88757 13.6627 7.54785 13.5219 7.29738 13.2715C7.0469 13.021 6.90619 12.6813 6.90619 12.3271V8.24185ZM6.90619 16.0455C6.90619 15.3091 7.50679 14.7113 8.24179 14.7113H12.3284C13.0648 14.7113 13.6626 15.3105 13.6626 16.0455V20.132C13.6622 20.486 13.5213 20.8254 13.2709 21.0756C13.0205 21.3257 12.681 21.4663 12.327 21.4663H8.24179C7.88781 21.4663 7.54831 21.3257 7.29787 21.0756C7.04744 20.8254 6.90656 20.486 6.90619 20.132V16.0455ZM14.7112 8.24185C14.7112 7.50405 15.3104 6.90625 16.0454 6.90625H20.132C20.8698 6.90625 21.4662 7.50685 21.4662 8.24185V12.3284C21.4658 12.6822 21.3251 13.0213 21.075 13.2715C20.8249 13.5216 20.4857 13.6623 20.132 13.6627H16.0454C15.6914 13.6623 15.3521 13.5214 15.1019 13.271C14.8517 13.0205 14.7112 12.681 14.7112 12.3271V8.24185ZM14.7112 16.0455C14.7112 15.3091 15.3104 14.7113 16.0454 14.7113H20.132C20.8698 14.7113 21.4662 15.3105 21.4662 16.0455V20.132C21.4658 20.4858 21.3251 20.8249 21.075 21.0751C20.8249 21.3252 20.4857 21.4659 20.132 21.4663H16.0454C15.6917 21.4659 15.3525 21.3252 15.1024 21.0751C14.8522 20.8249 14.7116 20.4858 14.7112 20.132V16.0455Z" fill="white"/>
    </g>
    <defs>
        <clipPath id="clip0_7051_87003">
            <rect width="28" height="28" fill="white"/>
        </clipPath>
    </defs>
</svg>
