<svg width="40" height="40" viewBox="0 0 40 40" fill="none" xmlns="http://www.w3.org/2000/svg">
    <path d="M35 39.25H11C9.20507 39.25 7.75 37.7949 7.75 36V4C7.75 2.20508 9.20508 0.75 11 0.75H27C27.1212 0.75 27.2375 0.798159 27.3232 0.883883L38.1161 11.6768C38.2018 11.7625 38.25 11.8788 38.25 12V36C38.25 37.7949 36.7949 39.25 35 39.25Z" fill="white" stroke="#D0D5DD" stroke-width="1.5"/>
    <path d="M27 0.5V8C27 10.2091 28.7909 12 31 12H38.5" stroke="#D0D5DD" stroke-width="1.5"/>
    <rect x="2" y="18" width="26" height="16" rx="2" fill="#1570EF"/>
    <path d="M12.3935 26.3636C12.3935 27.1567 12.2431 27.8314 11.9425 28.3878C11.6442 28.9441 11.237 29.3691 10.7209 29.6626C10.2071 29.9538 9.6295 30.0994 8.98793 30.0994C8.34162 30.0994 7.7616 29.9527 7.24787 29.6591C6.73414 29.3655 6.32813 28.9406 6.02983 28.3842C5.73153 27.8279 5.58239 27.1544 5.58239 26.3636C5.58239 25.5705 5.73153 24.8958 6.02983 24.3395C6.32813 23.7831 6.73414 23.3594 7.24787 23.0682C7.7616 22.7746 8.34162 22.6278 8.98793 22.6278C9.6295 22.6278 10.2071 22.7746 10.7209 23.0682C11.237 23.3594 11.6442 23.7831 11.9425 24.3395C12.2431 24.8958 12.3935 25.5705 12.3935 26.3636ZM10.8345 26.3636C10.8345 25.8499 10.7576 25.4167 10.6037 25.0639C10.4522 24.7112 10.2379 24.4437 9.96094 24.2614C9.68395 24.0791 9.35961 23.9879 8.98793 23.9879C8.61624 23.9879 8.2919 24.0791 8.01491 24.2614C7.73793 24.4437 7.52249 24.7112 7.36861 25.0639C7.21709 25.4167 7.14134 25.8499 7.14134 26.3636C7.14134 26.8774 7.21709 27.3106 7.36861 27.6634C7.52249 28.0161 7.73793 28.2836 8.01491 28.4659C8.2919 28.6482 8.61624 28.7393 8.98793 28.7393C9.35961 28.7393 9.68395 28.6482 9.96094 28.4659C10.2379 28.2836 10.4522 28.0161 10.6037 27.6634C10.7576 27.3106 10.8345 26.8774 10.8345 26.3636ZM12.9235 23.995V22.7273H18.8965V23.995H16.6699V30H15.15V23.995H12.9235ZM19.8801 30V22.7273H21.4178V28.7322H24.5357V30H19.8801Z" fill="white"/>
</svg>
