<svg t="1754704386437" class="icon" viewBox="0 0 1024 1024" version="1.1" xmlns="http://www.w3.org/2000/svg"
     p-id="12799" width="200" height="200">
    <path d="M874.667 768H149.333C102.4 768 64 729.6 64 682.667V211.2c0-46.933 38.4-85.333 85.333-85.333L874.667 128C921.6 128 960 166.4 960 213.333V684.8c0 46.933-38.4 83.2-85.333 83.2z m-53.334 170.667H202.667C179.2 938.667 160 919.467 160 896s19.2-42.667 42.667-42.667h618.666C844.8 853.333 864 872.533 864 896s-19.2 42.667-42.667 42.667z"
          fill="#2C2C2C" p-id="12800"></path>
    <path d="M162.133 514.133a25.6 25.6 0 1 0 51.2 0 25.6 25.6 0 1 0-51.2 0zM744.533 531.2H279.467c-8.534 0-14.934-6.4-14.934-14.933v-2.134c0-8.533 6.4-14.933 14.934-14.933h465.066c8.534 0 14.934 6.4 14.934 14.933v2.134c0 8.533-6.4 14.933-14.934 14.933zM162.133 266.667a25.6 25.6 0 1 0 51.2 0 25.6 25.6 0 1 0-51.2 0zM842.667 283.733h-563.2c-8.534 0-17.067-8.533-17.067-17.066s8.533-17.067 17.067-17.067h561.066c8.534 0 17.067 8.533 17.067 17.067 2.133 8.533-6.4 17.066-14.933 17.066zM808.533 390.4a25.6 25.6 0 1 0 51.2 0 25.6 25.6 0 1 0-51.2 0z"
          fill="#FFFFFF" p-id="12801"></path>
    <path d="M742.4 407.467H181.333c-8.533 0-17.066-8.534-17.066-17.067s8.533-17.067 17.066-17.067H742.4c8.533 0 17.067 8.534 17.067 17.067s-6.4 17.067-17.067 17.067z m76.8 89.6c-55.467 0-100.267 44.8-100.267 100.266S763.733 697.6 819.2 697.6s100.267-44.8 100.267-100.267-44.8-100.266-100.267-100.266z"
          fill="#FFFFFF" p-id="12802"></path>
    <path d="M832 529.067h-25.6c-4.267 0-6.4 2.133-8.533 6.4l-2.134 14.933c-2.133 2.133-4.266 2.133-6.4 4.267l-12.8-4.267H774.4c-2.133 0-6.4 2.133-6.4 4.267L755.2 576c-2.133 4.267-2.133 8.533 2.133 10.667L768 595.2v8.533l-10.667 8.534c-2.133 2.133-4.266 6.4-2.133 10.666l12.8 21.334c2.133 2.133 4.267 4.266 6.4 4.266h2.133l12.8-8.533c2.134 2.133 4.267 2.133 6.4 4.267l2.134 12.8c0 4.266 4.266 6.4 8.533 6.4H832c4.267 0 6.4-2.134 8.533-6.4l2.134-14.934c2.133-2.133 4.266-2.133 6.4-4.266l12.8 4.266H864c2.133 0 6.4-2.133 6.4-4.266l12.8-21.334c2.133-4.266 2.133-8.533-2.133-10.666l-10.667-8.534V588.8l10.667-8.533c2.133-2.134 4.266-6.4 2.133-10.667l-12.8-21.333c-2.133-2.134-4.267-4.267-6.4-4.267h-2.133l-12.8 10.667c-2.134-2.134-4.267-2.134-6.4-4.267l-2.134-12.8c0-4.267-4.266-8.533-8.533-8.533z"
          fill="#2C2C2C" p-id="12803"></path>
    <path d="M819.2 567.467c-14.933 0-27.733 12.8-27.733 27.733s12.8 27.733 27.733 27.733 27.733-12.8 27.733-27.733c2.134-14.933-10.666-27.733-27.733-27.733z"
          fill="#FFFFFF" p-id="12804"></path>
</svg>