<svg width="14" height="18" viewBox="0 0 14 18" fill="none" xmlns="http://www.w3.org/2000/svg">
    <path d="M1.16669 3.15803C1.16669 2.34873 1.16669 1.94407 1.33543 1.72101C1.48243 1.52669 1.70712 1.40644 1.95035 1.39192C2.22955 1.37525 2.56624 1.59971 3.23962 2.04863L12.0026 7.89061C12.559 8.26154 12.8372 8.44701 12.9341 8.68078C13.0189 8.88516 13.0189 9.11485 12.9341 9.31923C12.8372 9.553 12.559 9.73847 12.0026 10.1094L3.23962 15.9514C2.56624 16.4003 2.22955 16.6248 1.95035 16.6081C1.70712 16.5936 1.48243 16.4733 1.33543 16.279C1.16669 16.0559 1.16669 15.6513 1.16669 14.842V3.15803Z" stroke="white" stroke-width="1.66667" stroke-linecap="round" stroke-linejoin="round"/>
</svg>
