<svg width="28" height="28" viewBox="0 0 28 28" fill="none" xmlns="http://www.w3.org/2000/svg">
    <path d="M18.6667 9.33423L2.33337 25.6676M21 17.5009H10.5M7.70004 22.1676H15.5602C15.8455 22.1676 15.9882 22.1676 16.1225 22.1353C16.2415 22.1067 16.3553 22.0596 16.4597 21.9956C16.5774 21.9235 16.6783 21.8226 16.8801 21.6208L22.75 15.7509C23.0288 15.4721 23.1682 15.3327 23.2804 15.2093C25.7073 12.5394 25.7073 8.46235 23.2804 5.79249C23.1682 5.66908 23.0288 5.52969 22.75 5.2509C22.4713 4.97211 22.3319 4.83271 22.2084 4.72053C19.5386 2.29368 15.4615 2.29368 12.7916 4.72053C12.6682 4.83271 12.5288 4.9721 12.25 5.25089L6.38011 11.1208C6.17833 11.3226 6.07744 11.4235 6.00529 11.5412C5.94133 11.6456 5.89419 11.7594 5.86561 11.8785C5.83337 12.0127 5.83337 12.1554 5.83337 12.4408V20.3009C5.83337 20.9543 5.83337 21.281 5.96053 21.5306C6.07239 21.7501 6.25086 21.9286 6.47039 22.0404C6.71995 22.1676 7.04665 22.1676 7.70004 22.1676Z" stroke="#667085" stroke-width="1.33" stroke-linecap="round" stroke-linejoin="round"/>
</svg>
