<svg width="41" height="40" viewBox="0 0 41 40" fill="none" xmlns="http://www.w3.org/2000/svg">
    <path d="M8.75 4C8.75 2.20508 10.2051 0.75 12 0.75H28C28.1212 0.75 28.2375 0.798159 28.3232 0.883885L39.1161 11.6768C39.2018 11.7625 39.25 11.8788 39.25 12V36C39.25 37.7949 37.7949 39.25 36 39.25H12C10.2051 39.25 8.75 37.7949 8.75 36V4Z" fill="white" stroke="#D0D5DD" stroke-width="1.5"/>
    <path d="M28 0.5V8C28 10.2091 29.7909 12 32 12H39.5" stroke="#D0D5DD" stroke-width="1.5"/>
    <rect x="0.5" y="18" width="29" height="16" rx="2" fill="#444CE7"/>
    <path d="M4.29022 32.0455V24.5455H5.78169V25.4616H5.84917C5.91545 25.3149 6.01133 25.1657 6.13681 25.0142C6.26465 24.8603 6.43037 24.7325 6.63397 24.6307C6.83993 24.5265 7.09561 24.4744 7.40101 24.4744C7.79874 24.4744 8.16569 24.5786 8.50186 24.7869C8.83804 24.9929 9.10674 25.3042 9.30797 25.7209C9.5092 26.1352 9.60982 26.6548 9.60982 27.2798C9.60982 27.8883 9.51157 28.402 9.31507 28.821C9.12095 29.2377 8.85579 29.5537 8.51962 29.7692C8.18581 29.9822 7.81176 30.0888 7.39746 30.0888C7.1039 30.0888 6.85414 30.0402 6.64817 29.9432C6.44457 29.8461 6.27767 29.7242 6.14746 29.5774C6.01725 29.4283 5.91782 29.2779 5.84917 29.1264H5.803V32.0455H4.29022ZM5.77104 27.2727C5.77104 27.5971 5.81602 27.88 5.90598 28.1214C5.99595 28.3629 6.12615 28.5511 6.29661 28.6861C6.46706 28.8187 6.67421 28.8849 6.91806 28.8849C7.16427 28.8849 7.3726 28.8175 7.54306 28.6825C7.71351 28.5452 7.84254 28.3558 7.93013 28.1143C8.02009 27.8705 8.06507 27.59 8.06507 27.2727C8.06507 26.9579 8.02128 26.6809 7.93368 26.4418C7.84609 26.2027 7.71706 26.0156 7.54661 25.8807C7.37615 25.7457 7.16664 25.6783 6.91806 25.6783C6.67185 25.6783 6.46351 25.7434 6.29306 25.8736C6.12497 26.0038 5.99595 26.1884 5.90598 26.4276C5.81602 26.6667 5.77104 26.9484 5.77104 27.2727ZM10.6183 30V24.5455H12.085V25.4972H12.1418C12.2412 25.1586 12.4081 24.9029 12.6425 24.7301C12.8769 24.5549 13.1468 24.4673 13.4521 24.4673C13.5279 24.4673 13.6096 24.4721 13.6972 24.4815C13.7848 24.491 13.8617 24.504 13.928 24.5206V25.8629C13.857 25.8416 13.7587 25.8227 13.6333 25.8061C13.5078 25.7895 13.393 25.7812 13.2888 25.7812C13.0663 25.7812 12.8674 25.8298 12.6922 25.9268C12.5194 26.0215 12.3821 26.1541 12.2803 26.3246C12.1808 26.495 12.1311 26.6915 12.1311 26.9141V30H10.6183ZM16.9207 30.1065C16.3691 30.1065 15.8921 29.9893 15.4896 29.755C15.0895 29.5182 14.7806 29.1892 14.5628 28.7678C14.345 28.344 14.2361 27.8527 14.2361 27.294C14.2361 26.7306 14.345 26.2382 14.5628 25.8168C14.7806 25.393 15.0895 25.0639 15.4896 24.8295C15.8921 24.5928 16.3691 24.4744 16.9207 24.4744C17.4723 24.4744 17.9482 24.5928 18.3483 24.8295C18.7507 25.0639 19.0609 25.393 19.2787 25.8168C19.4965 26.2382 19.6054 26.7306 19.6054 27.294C19.6054 27.8527 19.4965 28.344 19.2787 28.7678C19.0609 29.1892 18.7507 29.5182 18.3483 29.755C17.9482 29.9893 17.4723 30.1065 16.9207 30.1065ZM16.9278 28.9347C17.1788 28.9347 17.3883 28.8636 17.5564 28.7216C17.7245 28.5772 17.8511 28.3807 17.9363 28.1321C18.0239 27.8835 18.0677 27.6006 18.0677 27.2834C18.0677 26.9661 18.0239 26.6832 17.9363 26.4347C17.8511 26.1861 17.7245 25.9896 17.5564 25.8452C17.3883 25.7008 17.1788 25.6286 16.9278 25.6286C16.6745 25.6286 16.4614 25.7008 16.2886 25.8452C16.1182 25.9896 15.9891 26.1861 15.9015 26.4347C15.8163 26.6832 15.7737 26.9661 15.7737 27.2834C15.7737 27.6006 15.8163 27.8835 15.9015 28.1321C15.9891 28.3807 16.1182 28.5772 16.2886 28.7216C16.4614 28.8636 16.6745 28.9347 16.9278 28.9347ZM20.589 32.0455V24.5455H22.0805V25.4616H22.148C22.2143 25.3149 22.3102 25.1657 22.4356 25.0142C22.5635 24.8603 22.7292 24.7325 22.9328 24.6307C23.1388 24.5265 23.3944 24.4744 23.6998 24.4744C24.0976 24.4744 24.4645 24.5786 24.8007 24.7869C25.1369 24.9929 25.4056 25.3042 25.6068 25.7209C25.808 26.1352 25.9086 26.6548 25.9086 27.2798C25.9086 27.8883 25.8104 28.402 25.6139 28.821C25.4198 29.2377 25.1546 29.5537 24.8184 29.7692C24.4846 29.9822 24.1106 30.0888 23.6963 30.0888C23.4027 30.0888 23.153 30.0402 22.947 29.9432C22.7434 29.8461 22.5765 29.7242 22.4463 29.5774C22.3161 29.4283 22.2166 29.2779 22.148 29.1264H22.1018V32.0455H20.589ZM22.0699 27.2727C22.0699 27.5971 22.1148 27.88 22.2048 28.1214C22.2948 28.3629 22.425 28.5511 22.5954 28.6861C22.7659 28.8187 22.973 28.8849 23.2169 28.8849C23.4631 28.8849 23.6714 28.8175 23.8419 28.6825C24.0123 28.5452 24.1414 28.3558 24.229 28.1143C24.3189 27.8705 24.3639 27.59 24.3639 27.2727C24.3639 26.9579 24.3201 26.6809 24.2325 26.4418C24.1449 26.2027 24.0159 26.0156 23.8454 25.8807C23.675 25.7457 23.4655 25.6783 23.2169 25.6783C22.9707 25.6783 22.7623 25.7434 22.5919 25.8736C22.4238 26.0038 22.2948 26.1884 22.2048 26.4276C22.1148 26.6667 22.0699 26.9484 22.0699 27.2727Z" fill="white"/>
</svg>
