<svg width="40" height="40" viewBox="0 0 40 40" fill="none" xmlns="http://www.w3.org/2000/svg">
    <path d="M22.8713 30.9981C20.3717 31.9979 17.7055 32.1646 15.0392 31.9979C13.8727 31.8313 12.7063 31.6647 11.5398 31.3314C11.3731 31.3314 11.2065 31.3314 11.0399 31.498C9.54011 32.1646 8.04036 32.9978 6.70724 33.6643C6.20732 33.9976 5.7074 33.9976 5.20749 33.6643C4.70757 33.3311 4.70757 32.8311 4.70757 32.1646C5.04085 30.9981 5.04085 29.8316 5.20749 28.6651C5.20749 28.4985 5.04085 28.3319 5.04085 28.1652C3.37445 26.4988 2.04133 24.8324 1.0415 22.6661C-0.624898 18.6668 -0.291619 14.6674 2.04133 11.0014C4.37429 7.00201 8.04036 4.83569 12.373 3.83586C16.7056 2.83602 20.8716 3.33594 24.871 5.33561C28.537 7.16865 31.2033 10.0015 32.3697 14.0009C32.8696 15.5006 33.0363 17.0004 32.8696 18.5001C32.0364 17.6669 31.0366 17.5003 30.0368 18.0002C30.0368 17.0004 30.0368 16.0005 29.7035 15.0007C29.0369 12.6678 27.7038 10.8347 26.0374 9.33496C23.2046 7.00201 19.7051 6.00217 16.0391 6.00217C12.2063 6.33545 8.87356 7.66857 6.20732 10.3348C4.04101 12.5011 2.87453 15.1673 3.04117 18.3335C3.20781 20.9997 4.37429 23.166 6.04068 24.9991L7.3738 26.3322C8.04036 26.8321 8.207 27.332 7.87372 27.9986C7.70708 28.6651 7.54044 29.4983 7.3738 30.1649C7.3738 30.3315 7.20716 30.4982 7.3738 30.4982C7.54044 30.6648 7.70708 30.4982 7.70708 30.4982C8.54028 29.9983 9.54011 29.4983 10.3733 28.8318C10.8732 28.4985 11.3731 28.4985 12.0397 28.6651C14.8726 29.4983 17.8721 29.4983 20.705 28.6651C20.8716 28.6651 21.0382 28.4985 21.0382 28.8318C21.3715 29.8316 21.8714 30.4982 22.8713 30.9981Z" fill="#0082EF"/>
    <path d="M39.5353 27.6655C39.5353 28.8319 38.7021 29.6651 37.7023 29.8318C36.0359 30.1651 34.7028 30.8316 33.5363 31.9981C33.203 32.3314 33.0364 32.3314 32.7031 32.1647C32.5365 31.9981 32.5365 31.6648 32.7031 31.3315C33.8696 30.1651 34.5361 28.6653 34.8694 27.1656C35.0361 25.9991 36.2025 25.3325 37.369 25.3325C38.7021 25.4992 39.5353 26.499 39.5353 27.6655Z" fill="#0081EE"/>
    <path d="M31.0367 36.6641C29.8702 36.6641 28.8704 35.8309 28.7037 34.831C28.5371 33.1646 27.7039 31.8315 26.5374 30.8317C26.3708 30.665 26.2041 30.4984 26.3708 30.1651C26.5374 29.6652 26.8707 29.6652 27.204 29.8318C27.5373 29.9985 27.7039 30.3318 27.8705 30.4984C28.8704 31.3316 30.0369 31.8315 31.2033 31.9982C32.3698 32.1648 33.203 33.3313 33.0364 34.4977C33.203 35.6642 32.2032 36.6641 31.0367 36.6641Z" fill="#FA6202"/>
    <path d="M22.2046 27.9987C22.2046 26.8323 22.8711 25.9991 24.0376 25.6658C25.704 25.3325 27.0371 24.6659 28.2036 23.4995C28.5369 23.1662 28.8702 23.1662 29.0368 23.4995C29.2034 23.6661 29.2035 23.9994 28.8702 24.3327C27.8703 25.3325 27.2038 26.499 26.8705 27.9987C26.8705 28.1654 26.8705 28.4987 26.7039 28.6653C26.3706 29.8318 25.3707 30.4983 24.2043 30.3317C23.0378 30.1651 22.2046 29.1652 22.2046 27.9987Z" fill="#FECD00"/>
    <path d="M33.7027 22.1662C34.2026 23.1661 34.7025 23.9993 35.3691 24.6658C35.7024 24.9991 35.7024 25.3324 35.5357 25.499C35.3691 25.8323 35.0358 25.8323 34.7025 25.499C33.8693 24.4992 32.7029 23.8326 31.5364 23.4994C31.2031 23.3327 30.8698 23.3327 30.5365 23.3327C29.87 23.1661 29.2034 22.8328 29.0368 21.9996C28.7035 21.1664 28.7035 20.3332 29.3701 19.6667C30.0366 18.8335 30.8698 18.6668 31.703 18.8335C32.5362 19.1667 33.2028 19.6667 33.3694 20.6665C33.3694 21.1664 33.5361 21.6663 33.7027 22.1662Z" fill="#2CBD00"/>
</svg>
