<svg width="40" height="40" viewBox="0 0 40 40" fill="none" xmlns="http://www.w3.org/2000/svg">
    <path d="M7.75 4C7.75 2.20508 9.20508 0.75 11 0.75H27C27.1212 0.75 27.2375 0.798159 27.3232 0.883885L38.1161 11.6768C38.2018 11.7625 38.25 11.8788 38.25 12V36C38.25 37.7949 36.7949 39.25 35 39.25H11C9.20507 39.25 7.75 37.7949 7.75 36V4Z" fill="white" stroke="#D0D5DD" stroke-width="1.5"/>
    <path d="M27 0.5V8C27 10.2091 28.7909 12 31 12H38.5" stroke="#D0D5DD" stroke-width="1.5"/>
    <rect y="18" width="28" height="16" rx="2" fill="#444CE7"/>
    <path d="M3.67995 30V22.7273H6.54927C7.09851 22.7273 7.56726 22.8255 7.95552 23.022C8.34615 23.2161 8.64326 23.492 8.84686 23.8494C9.05282 24.2045 9.15581 24.6224 9.15581 25.103C9.15581 25.5859 9.05164 26.0014 8.84331 26.3494C8.63497 26.6951 8.33313 26.9602 7.93777 27.1449C7.54477 27.3295 7.06892 27.4219 6.51021 27.4219H4.58904V26.1861H6.26163C6.55519 26.1861 6.79904 26.1458 6.99316 26.0653C7.18729 25.9848 7.33171 25.8641 7.4264 25.7031C7.52347 25.5421 7.572 25.3421 7.572 25.103C7.572 24.8615 7.52347 24.6579 7.4264 24.4922C7.33171 24.3265 7.18611 24.201 6.98961 24.1158C6.79548 24.0282 6.55046 23.9844 6.25453 23.9844H5.2176V30H3.67995ZM7.60751 26.6903L9.41504 30H7.7176L5.94913 26.6903H7.60751Z" fill="white"/>
    <path d="M16.6594 25.2734H15.104C15.0756 25.0722 15.0175 24.8935 14.93 24.7372C14.8424 24.5786 14.7299 24.4437 14.5926 24.3324C14.4553 24.2211 14.2967 24.1359 14.1167 24.0767C13.9392 24.0175 13.7462 23.9879 13.5379 23.9879C13.1615 23.9879 12.8336 24.0814 12.5542 24.2685C12.2749 24.4531 12.0583 24.723 11.9044 25.0781C11.7505 25.4309 11.6736 25.8594 11.6736 26.3636C11.6736 26.8821 11.7505 27.3177 11.9044 27.6705C12.0606 28.0232 12.2784 28.2895 12.5578 28.4695C12.8372 28.6494 13.1603 28.7393 13.5273 28.7393C13.7332 28.7393 13.9238 28.7121 14.099 28.6577C14.2765 28.6032 14.434 28.5239 14.5713 28.4197C14.7086 28.3132 14.8222 28.1842 14.9122 28.0327C15.0045 27.8812 15.0684 27.7083 15.104 27.5142L16.6594 27.5213C16.6191 27.8551 16.5185 28.1771 16.3575 28.4872C16.1989 28.795 15.9846 29.0708 15.7148 29.3146C15.4472 29.5561 15.1276 29.7479 14.7559 29.8899C14.3866 30.0296 13.9688 30.0994 13.5024 30.0994C12.8537 30.0994 12.2737 29.9527 11.7623 29.6591C11.2533 29.3655 10.8509 28.9406 10.555 28.3842C10.2614 27.8279 10.1146 27.1544 10.1146 26.3636C10.1146 25.5705 10.2638 24.8958 10.5621 24.3395C10.8604 23.7831 11.2652 23.3594 11.7765 23.0682C12.2879 22.7746 12.8632 22.6278 13.5024 22.6278C13.9238 22.6278 14.3144 22.687 14.6743 22.8054C15.0365 22.9238 15.3573 23.0966 15.6366 23.3239C15.916 23.5488 16.1433 23.8246 16.3184 24.1513C16.496 24.478 16.6096 24.852 16.6594 25.2734ZM24.4452 26.3636C24.4452 27.1567 24.2949 27.8314 23.9942 28.3878C23.6959 28.9441 23.2887 29.3691 22.7726 29.6626C22.2589 29.9538 21.6813 30.0994 21.0397 30.0994C20.3934 30.0994 19.8134 29.9527 19.2996 29.6591C18.7859 29.3655 18.3799 28.9406 18.0816 28.3842C17.7833 27.8279 17.6341 27.1544 17.6341 26.3636C17.6341 25.5705 17.7833 24.8958 18.0816 24.3395C18.3799 23.7831 18.7859 23.3594 19.2996 23.0682C19.8134 22.7746 20.3934 22.6278 21.0397 22.6278C21.6813 22.6278 22.2589 22.7746 22.7726 23.0682C23.2887 23.3594 23.6959 23.7831 23.9942 24.3395C24.2949 24.8958 24.4452 25.5705 24.4452 26.3636ZM22.8863 26.3636C22.8863 25.8499 22.8093 25.4167 22.6555 25.0639C22.5039 24.7112 22.2897 24.4437 22.0127 24.2614C21.7357 24.0791 21.4114 23.9879 21.0397 23.9879C20.668 23.9879 20.3437 24.0791 20.0667 24.2614C19.7897 24.4437 19.5742 24.7112 19.4204 25.0639C19.2689 25.4167 19.1931 25.8499 19.1931 26.3636C19.1931 26.8774 19.2689 27.3106 19.4204 27.6634C19.5742 28.0161 19.7897 28.2836 20.0667 28.4659C20.3437 28.6482 20.668 28.7393 21.0397 28.7393C21.4114 28.7393 21.7357 28.6482 22.0127 28.4659C22.2897 28.2836 22.5039 28.0161 22.6555 27.6634C22.8093 27.3106 22.8863 26.8774 22.8863 26.3636Z" fill="#444CE7"/>
</svg>
