<svg width="40" height="40" viewBox="0 0 40 40" fill="none" xmlns="http://www.w3.org/2000/svg">
    <path d="M7.75 4C7.75 2.20508 9.20508 0.75 11 0.75H27C27.1212 0.75 27.2375 0.798159 27.3232 0.883885L38.1161 11.6768C38.2018 11.7625 38.25 11.8788 38.25 12V36C38.25 37.7949 36.7949 39.25 35 39.25H11C9.20507 39.25 7.75 37.7949 7.75 36V4Z" fill="white" stroke="#D0D5DD" stroke-width="1.5"/>
    <path d="M27 0.5V8C27 10.2091 28.7909 12 31 12H38.5" stroke="#D0D5DD" stroke-width="1.5"/>
    <rect x="0.5" y="18" width="27" height="16" rx="2" fill="#BA24D5"/>
    <path d="M4.32937 30V22.7273H7.19869C7.74793 22.7273 8.21668 22.8255 8.60494 23.022C8.99556 23.2161 9.29267 23.492 9.49627 23.8494C9.70224 24.2045 9.80522 24.6224 9.80522 25.103C9.80522 25.5859 9.70105 26.0014 9.49272 26.3494C9.28439 26.6951 8.98254 26.9602 8.58718 27.1449C8.19419 27.3295 7.71834 27.4219 7.15962 27.4219H5.23846V26.1861H6.91104C7.2046 26.1861 7.44845 26.1458 7.64258 26.0653C7.83671 25.9848 7.98112 25.8641 8.07582 25.7031C8.17288 25.5421 8.22141 25.3421 8.22141 25.103C8.22141 24.8615 8.17288 24.6579 8.07582 24.4922C7.98112 24.3265 7.83552 24.201 7.63903 24.1158C7.4449 24.0282 7.19987 23.9844 6.90394 23.9844H5.86701V30H4.32937ZM8.25692 26.6903L10.0645 30H8.36701L6.59854 26.6903H8.25692ZM12.1454 30H10.4977L13.0083 22.7273H14.9899L17.497 30H15.8493L14.0275 24.3892H13.9707L12.1454 30ZM12.0424 27.1413H15.9345V28.3416H12.0424V27.1413ZM18.3723 30V22.7273H21.2417C21.7909 22.7273 22.2596 22.8255 22.6479 23.022C23.0385 23.2161 23.3356 23.492 23.5392 23.8494C23.7452 24.2045 23.8482 24.6224 23.8482 25.103C23.8482 25.5859 23.744 26.0014 23.5357 26.3494C23.3274 26.6951 23.0255 26.9602 22.6301 27.1449C22.2372 27.3295 21.7613 27.4219 21.2026 27.4219H19.2814V26.1861H20.954C21.2476 26.1861 21.4914 26.1458 21.6855 26.0653C21.8797 25.9848 22.0241 25.8641 22.1188 25.7031C22.2158 25.5421 22.2644 25.3421 22.2644 25.103C22.2644 24.8615 22.2158 24.6579 22.1188 24.4922C22.0241 24.3265 21.8785 24.201 21.682 24.1158C21.4879 24.0282 21.2428 23.9844 20.9469 23.9844H19.91V30H18.3723ZM22.2999 26.6903L24.1074 30H22.41L20.6415 26.6903H22.2999Z" fill="white"/>
</svg>
