<svg width="20" height="20" viewBox="0 0 20 20" fill="none" xmlns="http://www.w3.org/2000/svg">
    <path d="M3.23325 2.5H9.12992C9.47159 2.5 9.80492 2.60917 10.0791 2.81167L11.1666 3.6125C11.3042 3.71385 11.4707 3.76846 11.6416 3.76833H17.0816C17.3968 3.76833 17.7088 3.83041 18 3.95102C18.2912 4.07163 18.5558 4.24842 18.7786 4.47128C19.0015 4.69414 19.1783 4.95871 19.2989 5.24989C19.4195 5.54107 19.4816 5.85316 19.4816 6.16833V16.3167C19.4816 16.6318 19.4195 16.9439 19.2989 17.2351C19.1783 17.5263 19.0015 17.7909 18.7786 18.0137C18.5558 18.2366 18.2912 18.4134 18 18.534C17.7088 18.6546 17.3968 18.7167 17.0816 18.7167H3.23325C2.59673 18.7167 1.98628 18.4638 1.5362 18.0137C1.08611 17.5636 0.833252 16.9532 0.833252 16.3167V4.9C0.833252 4.26348 1.08611 3.65303 1.5362 3.20294C1.98628 2.75286 2.59673 2.5 3.23325 2.5Z" fill="#FFBA12"/>
    <path d="M4.05508 4.93164H16.2601C17.1434 4.93164 17.8601 5.64831 17.8601 6.53164V17.0941H2.45508V6.53164C2.45508 5.64831 3.17174 4.93164 4.05508 4.93164Z" fill="#FFF0D3"/>
    <path d="M0.833252 6.14844H19.4816V16.3168C19.4816 16.9533 19.2287 17.5637 18.7786 18.0138C18.3286 18.4639 17.7181 18.7168 17.0816 18.7168H3.23325C2.59673 18.7168 1.98628 18.4639 1.5362 18.0138C1.08611 17.5637 0.833252 16.9533 0.833252 16.3168V6.1501V6.14844Z" fill="#FFD54B"/>
    <path d="M10.4166 8.33398C13.4721 8.33398 14.9999 9.86176 14.9999 12.9173C14.9999 15.9729 13.4721 17.5007 10.4166 17.5007C7.36103 17.5007 5.83325 15.9729 5.83325 12.9173C5.83325 9.86176 7.36103 8.33398 10.4166 8.33398Z" fill="#FBB018"/>
    <path d="M10.4167 9.49414C10.5142 9.49411 10.6086 9.52828 10.6835 9.59072C10.7585 9.65315 10.8091 9.73988 10.8267 9.83581L10.8333 9.91081V13.1491L12.5567 14.715C12.6289 14.7805 12.6758 14.8692 12.6894 14.9657C12.7029 15.0622 12.6822 15.1605 12.6308 15.2433L12.585 15.3033C12.5195 15.3755 12.4308 15.4225 12.3343 15.436C12.2377 15.4496 12.1395 15.4289 12.0567 15.3775L11.9967 15.3316L10.1367 13.6425C10.0676 13.5799 10.0216 13.496 10.0058 13.4041L10 13.3341V9.91081C10 9.8003 10.0439 9.69432 10.122 9.61618C10.2002 9.53804 10.3062 9.49414 10.4167 9.49414Z" fill="#FFD54B"/>
</svg>
