<svg width="20" height="20" viewBox="0 0 20 20" fill="none" xmlns="http://www.w3.org/2000/svg">
    <g clip-path="url(#clip0_3530_44491)">
        <path d="M6.31555 0.753906L1.58984 4.45229V0.753906H6.31555Z" fill="#F6AB66"/>
        <path d="M15.4588 0.753906L1.58984 11.7463V4.45229L6.31555 0.753906H15.4588Z" fill="#F6AB66"/>
        <path d="M19.1572 5.06869L1.58984 19.0403V11.7463L15.4588 0.753906H19.1572V5.06869Z" fill="#FBA455"/>
        <path d="M19.1572 12.2597L10.5276 19.2455H1.58984V19.04L19.1572 5.06836V12.2597Z" fill="#FF9C43"/>
        <path d="M10.5276 19.2456L19.1571 12.2598V19.2456H10.5276Z" fill="#FF9C43"/>
        <path d="M10.0139 10.6163H13.5068C13.9177 10.6163 14.3287 10.9245 14.3287 11.3355C14.3287 11.7464 14.0205 12.0546 13.5068 12.0546H9.29476C8.88383 12.0546 8.4729 11.7464 8.4729 11.3355V6.60975C8.4729 6.19882 8.7811 5.89062 9.29476 5.89062C9.70569 5.89062 10.1166 6.19882 10.1166 6.60975V10.6163H10.0139Z" fill="#EA7336"/>
        <path d="M10.0139 10.6163H13.5068C13.9177 10.6163 14.3287 10.9245 14.3287 11.3355C14.3287 11.7464 14.0205 12.0546 13.5068 12.0546H9.29476C8.88383 12.0546 8.4729 11.7464 8.4729 11.3355V6.60975C8.4729 6.19882 8.7811 5.89062 9.29476 5.89062C9.70569 5.89062 10.1166 6.19882 10.1166 6.60975V10.6163H10.0139Z" fill="white"/>
    </g>
    <defs>
        <clipPath id="clip0_3530_44491">
            <rect width="20" height="20" fill="white"/>
        </clipPath>
    </defs>
</svg>
