<svg width="24" height="24" viewBox="0 0 24 24" fill="none" xmlns="http://www.w3.org/2000/svg">
    <path d="M13.8572 1C14.4772 1 15.0112 1.424 15.1592 2.015L15.1852 2.144L15.5492 4.588L13.5712 4.883L13.2902 3H9.70917L9.42917 4.883L7.45117 4.588L7.81517 2.144C7.8592 1.84816 8.0008 1.57551 8.21748 1.36934C8.43416 1.16316 8.71351 1.03528 9.01117 1.006L9.14317 1H13.8572Z" fill="#ADC6FF"/>
    <path d="M19.9999 3.73438C20.2547 3.73466 20.4999 3.83225 20.6852 4.00722C20.8706 4.18219 20.9821 4.42133 20.997 4.67577C21.012 4.93021 20.9292 5.18075 20.7656 5.37621C20.602 5.57166 20.37 5.69727 20.1169 5.72738L19.9999 5.73437H2.99987C2.74499 5.73409 2.49984 5.6365 2.3145 5.46153C2.12916 5.28656 2.01763 5.04742 2.0027 4.79298C1.98776 4.53854 2.07054 4.288 2.23413 4.09254C2.39772 3.89709 2.62977 3.77148 2.88287 3.74137L2.99987 3.73438H19.9999ZM19.2049 6.96937H3.79487L4.79987 20.8034C4.84333 21.4001 5.11105 21.9583 5.54924 22.3656C5.98742 22.773 6.56357 22.9994 7.16187 22.9994H15.8379C17.0789 22.9994 18.1099 22.0414 18.1999 20.8034L19.2049 6.96937Z" fill="#ADC6FF"/>
    <path d="M5.94482 8.9707H17.0538L16.2038 20.6607C16.1968 20.753 16.1552 20.8393 16.0874 20.9023C16.0195 20.9653 15.9304 21.0005 15.8378 21.0007H7.16182L7.09182 20.9937C7.01253 20.9783 6.94048 20.9373 6.88681 20.877C6.83314 20.8166 6.80081 20.7403 6.79482 20.6597L5.94482 8.9707Z" fill="#ADC6FF"/>
    <path d="M8.12012 12.8563C8.1204 12.6014 8.218 12.3563 8.39297 12.1709C8.56793 11.9856 8.80707 11.8741 9.06151 11.8591C9.31595 11.8442 9.5665 11.927 9.76195 12.0906C9.9574 12.2542 10.083 12.4862 10.1131 12.7393L10.1201 12.8563V17.9563C10.1198 18.2112 10.0222 18.4563 9.84727 18.6417C9.6723 18.827 9.43316 18.9385 9.17872 18.9535C8.92428 18.9684 8.67374 18.8856 8.47828 18.722C8.28283 18.5585 8.15722 18.3264 8.12712 18.0733L8.12012 17.9563V12.8563ZM12.8801 12.8563C12.8804 12.6014 12.978 12.3563 13.153 12.1709C13.3279 11.9856 13.5671 11.8741 13.8215 11.8591C14.076 11.8442 14.3265 11.927 14.5219 12.0906C14.7174 12.2542 14.843 12.4862 14.8731 12.7393L14.8801 12.8563V17.9563C14.8798 18.2112 14.7822 18.4563 14.6073 18.6417C14.4323 18.827 14.1932 18.9385 13.9387 18.9535C13.6843 18.9684 13.4337 18.8856 13.2383 18.722C13.0428 18.5585 12.9172 18.3264 12.8871 18.0733L12.8801 17.9563V12.8563Z" fill="#2F54EB"/>
</svg>
