<svg t="1736652782923" class="icon" viewBox="0 0 1024 1024" version="1.1" xmlns="http://www.w3.org/2000/svg"
     p-id="48644" width="32" height="32">
    <path d="M853.34 745.17l-52.26-51.58a65.77 65.77 0 0 0 4.94-25.1c0-36.94-30.35-66.91-67.8-66.91a68.49 68.49 0 0 0-32.48 8.15l38.69 38.19a6.46 6.46 0 0 1 0 9.25l-17.68 17.45a6.69 6.69 0 0 1-9.38 0l-38.68-38.16a65.94 65.94 0 0 0-8.25 32c0 36.94 30.34 66.91 67.8 66.91a68.28 68.28 0 0 0 29-6.43l51.26 50.58a24.38 24.38 0 0 0 34.08 0l0.76-0.74a23.68 23.68 0 0 0 0-33.66z m0 0"
          p-id="48645" fill="#1296db"></path>
    <path d="M761.77 898.91c-113 0-205-92-205-205s92-205 205-205 205 92 205 205-91.97 205-205 205z m0-360c-85.47 0-155 69.53-155 155s69.53 155 155 155 155-69.53 155-155-69.54-155-155-155z"
          p-id="48646" fill="#1296db"></path>
    <path d="M555.92 846.66H156.71v-149h348.5v-1.95a249.9 249.9 0 0 1 10.5-71.85V533.1c23.5-4.1 45.22-13.09 63-26.29 26.83-19.95 42.22-48.29 42.22-77.75s-15.39-57.79-42.22-77.74c-18.9-14.05-42.27-23.32-67.5-27V204.1h221L780.55 447a249.08 249.08 0 0 1 53.25 11.36l-53.45-268a45.13 45.13 0 0 0-44.13-36.2H237.48a45 45 0 0 0-44.29 37.06l-86.09 480.3 1.88 0.34a36.83 36.83 0 0 0-2.27 12.78v175a37 37 0 0 0 37 37h462.77a251.11 251.11 0 0 1-50.56-49.98z m15-417.6c0 30.67-38.8 56.58-84.72 56.58s-84.72-25.91-84.72-56.58 38.8-56.57 84.72-56.57 84.68 25.91 84.68 56.57z m-329.21-225h219.45V324.3c-25.24 3.7-48.61 13-67.5 27-26.83 19.95-42.22 48.29-42.22 77.74s15.39 57.8 42.22 77.75c20 14.88 45.06 24.4 72 27.61v113.24H162.18z"
          p-id="48647" fill="#1296db"></path>
    <path d="M510.92 748.53H277a25 25 0 0 0 0 50h251a247.45 247.45 0 0 1-17.08-50z" p-id="48648" fill="#1296db"></path>
</svg>