<svg width="41" height="40" viewBox="0 0 41 40" fill="none" xmlns="http://www.w3.org/2000/svg">
    <path d="M8.75 4C8.75 2.20508 10.2051 0.75 12 0.75H28C28.1212 0.75 28.2375 0.798159 28.3232 0.883885L39.1161 11.6768C39.2018 11.7625 39.25 11.8788 39.25 12V36C39.25 37.7949 37.7949 39.25 36 39.25H12C10.2051 39.25 8.75 37.7949 8.75 36V4Z" fill="white" stroke="#D0D5DD" stroke-width="1.5"/>
    <path d="M28 0.5V8C28 10.2091 29.7909 12 32 12H39.5" stroke="#D0D5DD" stroke-width="1.5"/>
    <rect x="0.5" y="18" width="29" height="16" rx="2" fill="#B3B8DB"/>
    <path d="M4.53835 30V22.7273H7.40767C7.95691 22.7273 8.42566 22.8255 8.81392 23.022C9.20455 23.2161 9.50166 23.492 9.70526 23.8494C9.91122 24.2045 10.0142 24.6224 10.0142 25.103C10.0142 25.5859 9.91004 26.0014 9.7017 26.3494C9.49337 26.6951 9.19152 26.9602 8.79616 27.1449C8.40317 27.3295 7.92732 27.4219 7.36861 27.4219H5.44744V26.1861H7.12003C7.41359 26.1861 7.65743 26.1458 7.85156 26.0653C8.04569 25.9848 8.1901 25.8641 8.2848 25.7031C8.38187 25.5421 8.4304 25.3421 8.4304 25.103C8.4304 24.8615 8.38187 24.6579 8.2848 24.4922C8.1901 24.3265 8.04451 24.201 7.84801 24.1158C7.65388 24.0282 7.40885 23.9844 7.11293 23.9844H6.07599V30H4.53835ZM8.46591 26.6903L10.2734 30H8.57599L6.80753 26.6903H8.46591ZM11.1009 30V22.7273H13.9702C14.5218 22.7273 14.9917 22.8326 15.38 23.0433C15.7682 23.2517 16.0642 23.5417 16.2678 23.9134C16.4737 24.2827 16.5767 24.7088 16.5767 25.1918C16.5767 25.6747 16.4725 26.1009 16.2642 26.4702C16.0559 26.8395 15.754 27.1271 15.3587 27.3331C14.9657 27.5391 14.4898 27.642 13.9311 27.642H12.1023V26.4098H13.6825C13.9785 26.4098 14.2223 26.3589 14.4141 26.2571C14.6082 26.1529 14.7526 26.0097 14.8473 25.8274C14.9444 25.6428 14.9929 25.4309 14.9929 25.1918C14.9929 24.9503 14.9444 24.7396 14.8473 24.5597C14.7526 24.3774 14.6082 24.2365 14.4141 24.1371C14.2199 24.0353 13.9737 23.9844 13.6754 23.9844H12.6385V30H11.1009ZM17.5755 22.7273H19.4718L21.4746 27.6136H21.5598L23.5627 22.7273H25.459V30H23.9675V25.2663H23.9071L22.025 29.9645H21.0094L19.1273 25.2486H19.0669V30H17.5755V22.7273Z" fill="white"/>
</svg>
