<svg width="24" height="24" viewBox="0 0 24 24" fill="none" xmlns="http://www.w3.org/2000/svg">
    <g clip-path="url(#clip0_9222_30511)">
        <path d="M0 12C0 15.1826 1.26428 18.2348 3.51472 20.4853C5.76516 22.7357 8.8174 24 12 24C15.1826 24 18.2348 22.7357 20.4853 20.4853C22.7357 18.2348 24 15.1826 24 12C24 8.8174 22.7357 5.76516 20.4853 3.51472C18.2348 1.26428 15.1826 0 12 0C8.8174 0 5.76516 1.26428 3.51472 3.51472C1.26428 5.76516 0 8.8174 0 12Z" fill="white"/>
        <path d="M12 0C5.38333 0 0 5.38333 0 12C0 18.6167 5.38333 24 12 24C18.6167 24 24 18.6167 24 12C24 5.38333 18.6167 0 12 0ZM1.6 12C1.6 9.492 2.49267 7.18867 3.97667 5.39067C4.132 5.564 4.25933 5.794 4.31867 6.09933C4.44333 6.754 3.98533 8.90267 4.56867 9.37467C5.458 10.0947 6.83533 9.48933 7.54333 9.92467C8.26067 10.3647 10.048 12.4173 10.746 12C11.9193 11.3 9.908 8.532 9.82133 7.78333C9.69333 6.67467 10.3933 5.37467 11.6707 5.84667C12.472 6.14333 12.6387 7.21133 13.3873 7.25533C14.136 7.29933 13.7867 4.94867 13.7833 4.57C13.7753 3.50933 14.8207 2.75467 15.9333 2.37467C19.7227 3.92867 22.4 7.65667 22.4 12C22.4013 13.6827 21.9917 15.3403 21.2067 16.8287C21.12 15.8973 20.8933 14.8607 20.3267 14.5433C19.226 13.9273 18.0013 14.5167 17.1133 13.5307C16.7453 13.124 17.2073 11.304 16.1013 10.8667C13.9513 10.0167 12.2093 11.77 11.6813 13.1787C11.4607 13.768 11.3833 14.4887 11.488 15.1913C11.51 17.4493 10.3413 17.4513 10.7847 18.3567C11.2707 19.3487 13.0067 18.9967 12.6687 21.0733C12.6213 21.38 12.4727 21.6613 12.2467 21.8733C12.0453 22.0067 11.84 22.1347 11.6307 22.2567C11.5141 22.3025 11.3948 22.3408 11.2733 22.3713C5.87733 21.998 1.6 17.4907 1.6 12Z" fill="#3576EA"/>
    </g>
    <defs>
        <clipPath id="clip0_9222_30511">
            <rect width="24" height="24" fill="white"/>
        </clipPath>
    </defs>
</svg>
