
<svg width="19" height="20" viewBox="0 0 19 20" fill="none" xmlns="http://www.w3.org/2000/svg">
    <path d="M9.30013 12.5C10.6808 12.5 11.8001 11.3807 11.8001 9.99996C11.8001 8.61925 10.6808 7.49996 9.30013 7.49996C7.91942 7.49996 6.80013 8.61925 6.80013 9.99996C6.80013 11.3807 7.91942 12.5 9.30013 12.5Z" stroke="#475467" stroke-width="1.66667" stroke-linecap="round" stroke-linejoin="round"/>
    <path d="M14.9062 12.2727C14.8053 12.5012 14.7753 12.7547 14.8198 13.0004C14.8644 13.2462 14.9815 13.4729 15.1562 13.6515L15.2016 13.6969C15.3425 13.8376 15.4543 14.0048 15.5305 14.1887C15.6068 14.3726 15.646 14.5698 15.646 14.7689C15.646 14.968 15.6068 15.1652 15.5305 15.3491C15.4543 15.533 15.3425 15.7002 15.2016 15.8409C15.0609 15.9817 14.8938 16.0935 14.7099 16.1697C14.526 16.246 14.3288 16.2852 14.1297 16.2852C13.9306 16.2852 13.7334 16.246 13.5495 16.1697C13.3655 16.0935 13.1984 15.9817 13.0577 15.8409L13.0123 15.7954C12.8337 15.6208 12.6069 15.5036 12.3612 15.459C12.1154 15.4145 11.862 15.4446 11.6335 15.5454C11.4094 15.6414 11.2183 15.8009 11.0837 16.0042C10.9491 16.2074 10.8769 16.4456 10.8759 16.6894V16.8181C10.8759 17.22 10.7163 17.6054 10.4321 17.8895C10.148 18.1737 9.76258 18.3333 9.36074 18.3333C8.95889 18.3333 8.57351 18.1737 8.28936 17.8895C8.00522 17.6054 7.84558 17.22 7.84558 16.8181V16.75C7.83972 16.4992 7.75855 16.256 7.61264 16.052C7.46672 15.848 7.26281 15.6926 7.0274 15.606C6.79891 15.5052 6.54544 15.4751 6.29968 15.5197C6.05393 15.5642 5.82716 15.6814 5.64862 15.856L5.60316 15.9015C5.46244 16.0423 5.29534 16.1541 5.1114 16.2304C4.92747 16.3066 4.73031 16.3458 4.53119 16.3458C4.33208 16.3458 4.13491 16.3066 3.95098 16.2304C3.76704 16.1541 3.59994 16.0423 3.45922 15.9015C3.31835 15.7608 3.20659 15.5937 3.13034 15.4097C3.05409 15.2258 3.01485 15.0286 3.01485 14.8295C3.01485 14.6304 3.05409 14.4332 3.13034 14.2493C3.20659 14.0654 3.31835 13.8983 3.45922 13.7575L3.50468 13.7121C3.67932 13.5335 3.79648 13.3068 3.84104 13.061C3.8856 12.8153 3.85552 12.5618 3.75468 12.3333C3.65864 12.1092 3.49919 11.9181 3.29594 11.7835C3.09269 11.6489 2.85451 11.5767 2.61074 11.5757H2.48195C2.08011 11.5757 1.69472 11.4161 1.41057 11.1319C1.12643 10.8478 0.966797 10.4624 0.966797 10.0606C0.966797 9.65872 1.12643 9.27334 1.41057 8.98919C1.69472 8.70505 2.08011 8.54541 2.48195 8.54541H2.55013C2.80088 8.53955 3.04407 8.45838 3.24808 8.31247C3.4521 8.16655 3.60749 7.96264 3.69407 7.72723C3.79491 7.49874 3.825 7.24527 3.78044 6.99951C3.73588 6.75376 3.61872 6.52699 3.44407 6.34844L3.39862 6.30299C3.25774 6.16227 3.14599 5.99517 3.06974 5.81123C2.99349 5.6273 2.95424 5.43013 2.95424 5.23102C2.95424 5.03191 2.99349 4.83474 3.06974 4.65081C3.14599 4.46687 3.25774 4.29977 3.39862 4.15905C3.53933 4.01818 3.70644 3.90642 3.89037 3.83017C4.07431 3.75392 4.27147 3.71468 4.47058 3.71468C4.6697 3.71468 4.86686 3.75392 5.0508 3.83017C5.23473 3.90642 5.40184 4.01818 5.54255 4.15905L5.58801 4.2045C5.76655 4.37915 5.99332 4.49631 6.23908 4.54087C6.48483 4.58543 6.7383 4.55535 6.9668 4.4545H7.0274C7.25147 4.35847 7.44257 4.19902 7.57717 3.99577C7.71177 3.79252 7.78401 3.55434 7.78498 3.31057V3.18178C7.78498 2.77993 7.94461 2.39455 8.22876 2.1104C8.5129 1.82626 8.89829 1.66663 9.30013 1.66663C9.70197 1.66663 10.0874 1.82626 10.3715 2.1104C10.6557 2.39455 10.8153 2.77993 10.8153 3.18178V3.24996C10.8163 3.49374 10.8885 3.73191 11.0231 3.93516C11.1577 4.13841 11.3488 4.29787 11.5729 4.3939C11.8014 4.49474 12.0548 4.52483 12.3006 4.48027C12.5463 4.43571 12.7731 4.31855 12.9516 4.1439L12.9971 4.09844C13.1378 3.95757 13.3049 3.84581 13.4889 3.76957C13.6728 3.69332 13.87 3.65407 14.0691 3.65407C14.2682 3.65407 14.4653 3.69332 14.6493 3.76957C14.8332 3.84581 15.0003 3.95757 15.141 4.09844C15.2819 4.23916 15.3937 4.40627 15.4699 4.5902C15.5462 4.77414 15.5854 4.9713 15.5854 5.17041C15.5854 5.36953 15.5462 5.56669 15.4699 5.75063C15.3937 5.93456 15.2819 6.10167 15.141 6.24238L15.0956 6.28784C14.9209 6.46638 14.8038 6.69315 14.7592 6.93891C14.7147 7.18466 14.7447 7.43813 14.8456 7.66663V7.72723C14.9416 7.9513 15.1011 8.1424 15.3043 8.277C15.5076 8.4116 15.7457 8.48384 15.9895 8.48481H16.1183C16.5202 8.48481 16.9055 8.64444 17.1897 8.92859C17.4738 9.21273 17.6335 9.59812 17.6335 9.99996C17.6335 10.4018 17.4738 10.7872 17.1897 11.0713C16.9055 11.3555 16.5202 11.5151 16.1183 11.5151H16.0501C15.8064 11.5161 15.5682 11.5883 15.3649 11.7229C15.1617 11.8575 15.0022 12.0486 14.9062 12.2727Z" stroke="#475467" stroke-width="1.66667" stroke-linecap="round" stroke-linejoin="round"/>
</svg>
