<svg width="24" height="24" viewBox="0 0 24 24" fill="none" xmlns="http://www.w3.org/2000/svg">
    <path d="M20.475 5.25H12.3L10.05 2.55C9.89998 2.4 9.67498 2.25 9.44998 2.25H3.44998C2.47498 2.25 1.72498 3 1.72498 3.975V19.95C1.72498 20.925 2.47498 21.675 3.44998 21.675H20.475C21.45 21.675 22.2 20.925 22.2 19.95V6.975C22.275 6 21.45 5.25 20.475 5.25ZM13.5 11.55C13.2 11.25 13.2 10.8 13.5 10.5C13.8 10.2 14.25 10.2 14.55 10.5L17.025 12.975C17.325 13.275 17.325 13.725 17.025 14.025L14.55 16.5C14.4 16.65 14.175 16.725 14.025 16.725C13.8 16.725 13.65 16.65 13.5 16.5C13.2 16.2 13.2 15.75 13.5 15.45L15.45 13.5L13.5 11.55ZM10.5 15.45C10.8 15.75 10.8 16.2 10.5 16.5C10.35 16.65 10.2 16.725 9.97498 16.725C9.74998 16.725 9.59998 16.65 9.44998 16.5L6.97498 14.025C6.82498 13.875 6.74998 13.725 6.74998 13.5C6.74998 13.275 6.82498 13.125 6.97498 12.975L9.44998 10.5C9.74998 10.2 10.2 10.2 10.5 10.5C10.8 10.8 10.8 11.25 10.5 11.55L8.54998 13.5L10.5 15.45Z" fill="#F0B828"/>
</svg>
