<svg width="14" height="14" viewBox="0 0 14 14" fill="none" xmlns="http://www.w3.org/2000/svg">
    <path d="M12.8609 7.40513C13.0237 7.26563 13.105 7.19589 13.1348 7.11289C13.161 7.04004 13.161 6.96035 13.1348 6.8875C13.105 6.8045 13.0237 6.73476 12.8609 6.59526L7.21375 1.75484C6.9336 1.51471 6.79353 1.39465 6.67493 1.3917C6.57186 1.38915 6.47341 1.43443 6.40828 1.51435C6.33333 1.6063 6.33333 1.7908 6.33333 2.15978V5.02328C4.91021 5.27225 3.60773 5.99337 2.63981 7.07611C1.58455 8.25654 1.00082 9.78416 1 11.3675V11.7755C1.69956 10.9328 2.573 10.2512 3.56051 9.77748C4.43113 9.35981 5.37228 9.11241 6.33333 9.04721V11.8406C6.33333 12.2096 6.33333 12.3941 6.40828 12.486C6.47341 12.566 6.57186 12.6112 6.67493 12.6087C6.79353 12.6057 6.9336 12.4857 7.21375 12.2455L12.8609 7.40513Z" stroke="#2E90FA" stroke-width="1.66667" stroke-linecap="round" stroke-linejoin="round"/>
</svg>
