<svg width="24" height="24" viewBox="0 0 24 24" fill="none" xmlns="http://www.w3.org/2000/svg">
    <path d="M18.7752 22.2304H5.53923C3.73683 22.2304 2.27643 20.77 2.27643 18.9676V6.06163C2.27643 4.25923 3.73683 2.79883 5.53923 2.79883H18.7752C20.5776 2.79883 22.038 4.25923 22.038 6.06163V18.9676C22.038 20.7688 20.5776 22.2304 18.7752 22.2304Z" fill="#A5ADF6"/>
    <path d="M15.0696 11.1416H9.14042C7.75322 11.1416 6.62762 10.0172 6.62762 8.62885V2.88205C6.62762 2.25565 7.13522 1.74805 7.76162 1.74805H16.4484C17.0748 1.74805 17.5824 2.25565 17.5824 2.88205V8.62885C17.5812 10.0172 16.4568 11.1416 15.0696 11.1416Z" fill="#A5ADF6"/>
    <path d="M6.62762 2.85883V8.68123C6.62762 10.0408 7.72922 11.1424 9.08882 11.1424H15.1212C16.4808 11.1424 17.5824 10.0408 17.5824 8.68123V2.85883C17.5824 2.83843 17.58 2.81923 17.5788 2.79883H6.63123C6.63003 2.81803 6.62762 2.83843 6.62762 2.85883Z" fill="#635DF7"/>
    <path d="M13.98 8.95073C13.4496 8.95073 13.02 8.52113 13.02 7.99073V5.97953C13.02 5.44913 13.4496 5.01953 13.98 5.01953C14.5104 5.01953 14.94 5.44913 14.94 5.97953V7.99073C14.94 8.52113 14.5104 8.95073 13.98 8.95073ZM16.0776 19.5599H8.244C7.7136 19.5599 7.284 19.1303 7.284 18.5999C7.284 18.0695 7.7136 17.6399 8.244 17.6399H16.0764C16.6068 17.6399 17.0364 18.0695 17.0364 18.5999C17.0364 19.1303 16.6068 19.5599 16.0776 19.5599Z" fill="white"/>
</svg>
