<svg width="40" height="40" viewBox="0 0 40 40" fill="none" xmlns="http://www.w3.org/2000/svg">
    <path d="M7.75 4C7.75 2.20508 9.20508 0.75 11 0.75H27C27.1212 0.75 27.2375 0.798159 27.3232 0.883885L38.1161 11.6768C38.2018 11.7625 38.25 11.8788 38.25 12V36C38.25 37.7949 36.7949 39.25 35 39.25H11C9.20507 39.25 7.75 37.7949 7.75 36V4Z" fill="white" stroke="#D0D5DD" stroke-width="1.5"/>
    <path d="M27 0.5V8C27 10.2091 28.7909 12 31 12H38.5" stroke="#D0D5DD" stroke-width="1.5"/>
    <rect y="18" width="28" height="16" rx="2" fill="#3E4784"/>
    <path d="M7.96218 24.8189C7.93377 24.5324 7.81185 24.3099 7.59641 24.1513C7.38098 23.9927 7.0886 23.9134 6.71928 23.9134C6.46834 23.9134 6.25645 23.9489 6.08363 24.0199C5.91081 24.0885 5.77823 24.1844 5.6859 24.3075C5.59594 24.4306 5.55096 24.5703 5.55096 24.7266C5.54622 24.8568 5.57345 24.9704 5.63263 25.0675C5.69419 25.1645 5.77823 25.2486 5.88477 25.3196C5.9913 25.3883 6.11441 25.4486 6.25408 25.5007C6.39376 25.5504 6.54291 25.593 6.70153 25.6286L7.35494 25.7848C7.67217 25.8558 7.96336 25.9505 8.22852 26.0689C8.49367 26.1873 8.72331 26.3329 8.91744 26.5057C9.11156 26.6785 9.2619 26.8821 9.36843 27.1165C9.47733 27.3509 9.53297 27.6196 9.53533 27.9226C9.53297 28.3677 9.41933 28.7536 9.19442 29.0803C8.97189 29.4046 8.64992 29.6567 8.22852 29.8366C7.80948 30.0142 7.30404 30.103 6.71218 30.103C6.12506 30.103 5.6137 30.013 5.17809 29.8331C4.74485 29.6532 4.40631 29.3868 4.16246 29.0341C3.92099 28.679 3.79433 28.2398 3.78249 27.7166H5.27042C5.28699 27.9605 5.35683 28.1641 5.47994 28.3274C5.60541 28.4884 5.77231 28.6103 5.98065 28.6932C6.19135 28.7737 6.42927 28.8139 6.69442 28.8139C6.95484 28.8139 7.18093 28.776 7.37269 28.7003C7.56682 28.6245 7.71715 28.5192 7.82369 28.3842C7.93022 28.2493 7.98349 28.0942 7.98349 27.919C7.98349 27.7557 7.93496 27.6184 7.83789 27.5071C7.74319 27.3958 7.60352 27.3011 7.41886 27.223C7.23656 27.1449 7.01284 27.0739 6.74769 27.0099L5.95579 26.8111C5.34263 26.6619 4.85849 26.4287 4.50337 26.1115C4.14826 25.7943 3.97189 25.367 3.97425 24.8295C3.97189 24.3892 4.08907 24.0045 4.32582 23.6754C4.56493 23.3464 4.89281 23.0895 5.30948 22.9048C5.72615 22.7202 6.19963 22.6278 6.72994 22.6278C7.26971 22.6278 7.74083 22.7202 8.14329 22.9048C8.54812 23.0895 8.86299 23.3464 9.08789 23.6754C9.3128 24.0045 9.4288 24.3857 9.4359 24.8189H7.96218ZM11.8835 22.7273L13.6413 28.2528H13.7088L15.4702 22.7273H17.1747L14.6676 30H12.6861L10.1754 22.7273H11.8835ZM22.4624 25.0781C22.4126 24.9053 22.3428 24.7526 22.2528 24.62C22.1629 24.4851 22.0528 24.3714 21.9226 24.2791C21.7947 24.1844 21.648 24.1122 21.4822 24.0625C21.3189 24.0128 21.1378 23.9879 20.9389 23.9879C20.5672 23.9879 20.2405 24.0803 19.9588 24.2649C19.6795 24.4496 19.4616 24.7183 19.3054 25.071C19.1491 25.4214 19.071 25.8499 19.071 26.3565C19.071 26.8632 19.148 27.294 19.3018 27.6491C19.4557 28.0043 19.6735 28.2753 19.9553 28.4624C20.237 28.647 20.5696 28.7393 20.9531 28.7393C21.3011 28.7393 21.5982 28.6778 21.8445 28.5547C22.093 28.4292 22.2824 28.2528 22.4126 28.0256C22.5452 27.7983 22.6115 27.5296 22.6115 27.2195L22.924 27.2656H21.049V26.108H24.0923V27.0241C24.0923 27.6634 23.9574 28.2126 23.6875 28.6719C23.4176 29.1288 23.0459 29.4815 22.5724 29.7301C22.099 29.9763 21.5568 30.0994 20.946 30.0994C20.2642 30.0994 19.6652 29.9491 19.1491 29.6484C18.633 29.3454 18.2306 28.9157 17.9418 28.3594C17.6553 27.8007 17.5121 27.1378 17.5121 26.3707C17.5121 25.7812 17.5973 25.2557 17.7678 24.794C17.9406 24.33 18.1821 23.937 18.4922 23.6151C18.8023 23.2931 19.1634 23.0481 19.5753 22.88C19.9872 22.7119 20.4335 22.6278 20.9141 22.6278C21.326 22.6278 21.7095 22.6882 22.0646 22.8089C22.4197 22.9273 22.7346 23.0954 23.0092 23.3132C23.2862 23.531 23.5123 23.7902 23.6875 24.0909C23.8627 24.3892 23.9751 24.7183 24.0249 25.0781H22.4624Z" fill="white"/>
</svg>
