<svg width="42" height="40" viewBox="0 0 42 40" fill="none" xmlns="http://www.w3.org/2000/svg">
    <path d="M9.75 4C9.75 2.20508 11.2051 0.75 13 0.75H29C29.1212 0.75 29.2375 0.798159 29.3232 0.883885L40.1161 11.6768C40.2018 11.7625 40.25 11.8788 40.25 12V36C40.25 37.7949 38.7949 39.25 37 39.25H13C11.2051 39.25 9.75 37.7949 9.75 36V4Z" fill="white" stroke="#D0D5DD" stroke-width="1.5"/>
    <path d="M29 0.5V8C29 10.2091 30.7909 12 33 12H40.5" stroke="#D0D5DD" stroke-width="1.5"/>
    <rect x="0.5" y="18" width="31" height="16" rx="2" fill="#444CE7"/>
    <path d="M8.84712 26.1009L7.46218 26.1861C7.43851 26.0677 7.38761 25.9612 7.30948 25.8665C7.23136 25.7694 7.12837 25.6925 7.00053 25.6357C6.87506 25.5765 6.72473 25.5469 6.54954 25.5469C6.31516 25.5469 6.11748 25.5966 5.9565 25.696C5.79551 25.7931 5.71502 25.9233 5.71502 26.0866C5.71502 26.2169 5.7671 26.3269 5.87127 26.4169C5.97544 26.5069 6.15418 26.5791 6.40749 26.6335L7.39471 26.8324C7.92501 26.9413 8.32037 27.1165 8.58079 27.358C8.84121 27.5994 8.97141 27.9167 8.97141 28.3097C8.97141 28.6671 8.86606 28.9808 8.65536 29.2507C8.44703 29.5206 8.16057 29.7313 7.79599 29.8828C7.43377 30.032 7.01592 30.1065 6.54244 30.1065C5.82037 30.1065 5.24509 29.9562 4.81658 29.6555C4.39045 29.3525 4.14068 28.9406 4.06729 28.4197L5.55522 28.3416C5.6002 28.5618 5.7091 28.7299 5.88192 28.8459C6.05475 28.9595 6.2761 29.0163 6.54599 29.0163C6.81114 29.0163 7.02421 28.9654 7.18519 28.8636C7.34854 28.7595 7.4314 28.6257 7.43377 28.4624C7.4314 28.325 7.3734 28.2126 7.25977 28.125C7.14613 28.035 6.97094 27.9664 6.7342 27.919L5.7896 27.7308C5.25692 27.6243 4.86038 27.4396 4.59996 27.1768C4.34192 26.9141 4.21289 26.5791 4.21289 26.1719C4.21289 25.8215 4.30759 25.5196 4.49698 25.2663C4.68874 25.013 4.95745 24.8177 5.30309 24.6804C5.6511 24.5431 6.0583 24.4744 6.52468 24.4744C7.2136 24.4744 7.75574 24.62 8.1511 24.9112C8.54883 25.2024 8.78084 25.599 8.84712 26.1009ZM11 30L9.51562 24.5455H11.0462L11.8913 28.2102H11.9411L12.8217 24.5455H14.3239L15.2188 28.1889H15.2649L16.0959 24.5455H17.6229L16.142 30H14.5405L13.603 26.5696H13.5355L12.598 30H11ZM18.4299 30V24.5455H19.9426V30H18.4299ZM19.1898 23.8423C18.9649 23.8423 18.772 23.7678 18.611 23.6186C18.4524 23.4671 18.373 23.286 18.373 23.0753C18.373 22.867 18.4524 22.6882 18.611 22.5391C18.772 22.3875 18.9649 22.3118 19.1898 22.3118C19.4147 22.3118 19.6065 22.3875 19.7651 22.5391C19.9261 22.6882 20.0066 22.867 20.0066 23.0753C20.0066 23.286 19.9261 23.4671 19.7651 23.6186C19.6065 23.7678 19.4147 23.8423 19.1898 23.8423ZM24.0877 24.5455V25.6818H20.7212V24.5455H24.0877ZM21.4918 30V24.1513C21.4918 23.7559 21.5688 23.428 21.7227 23.1676C21.8789 22.9072 22.092 22.7119 22.3619 22.5817C22.6317 22.4515 22.9383 22.3864 23.2816 22.3864C23.5136 22.3864 23.7255 22.4041 23.9173 22.4396C24.1114 22.4751 24.2558 22.5071 24.3505 22.5355L24.0806 23.6719C24.0214 23.6529 23.948 23.6352 23.8604 23.6186C23.7752 23.602 23.6876 23.5938 23.5977 23.5938C23.3751 23.5938 23.2201 23.6458 23.1325 23.75C23.0449 23.8518 23.0011 23.995 23.0011 24.1797V30H21.4918ZM27.9132 24.5455V25.6818H24.6284V24.5455H27.9132ZM25.3741 23.2386H26.8869V28.3239C26.8869 28.4635 26.9082 28.5724 26.9508 28.6506C26.9934 28.7263 27.0526 28.7796 27.1284 28.8104C27.2065 28.8411 27.2965 28.8565 27.3983 28.8565C27.4693 28.8565 27.5403 28.8506 27.6113 28.8388C27.6824 28.8246 27.7368 28.8139 27.7747 28.8068L28.0126 29.9325C27.9368 29.9562 27.8303 29.9834 27.693 30.0142C27.5557 30.0473 27.3888 30.0675 27.1923 30.0746C26.8277 30.0888 26.5081 30.0402 26.2335 29.929C25.9612 29.8177 25.7493 29.6449 25.5978 29.4105C25.4463 29.1761 25.3717 28.8802 25.3741 28.5227V23.2386Z" fill="white"/>
</svg>
