<svg width="40" height="40" viewBox="0 0 40 40" fill="none" xmlns="http://www.w3.org/2000/svg">
    <path d="M37.1132 20.1002L18.9232 1.91018C18.8457 1.8327 18.7537 1.77125 18.6525 1.72935C18.5512 1.68745 18.4427 1.66593 18.3332 1.66602H2.49984C2.27882 1.66602 2.06686 1.75381 1.91058 1.91009C1.7543 2.06637 1.6665 2.27834 1.6665 2.49935V18.3327C1.66655 18.5537 1.75438 18.7656 1.91067 18.9218L20.1015 37.1118C20.8836 37.892 21.9431 38.3301 23.0478 38.3301C24.1524 38.3301 25.212 37.892 25.994 37.1118L37.1132 25.9927C37.8946 25.2113 38.3335 24.1515 38.3335 23.0464C38.3335 21.9414 37.8946 20.8816 37.1132 20.1002ZM11.6665 14.9993C11.0072 14.9993 10.3628 14.8039 9.8146 14.4376C9.26644 14.0713 8.8392 13.5507 8.58691 12.9416C8.33461 12.3325 8.2686 11.6623 8.39722 11.0157C8.52584 10.3691 8.84331 9.77517 9.30948 9.30899C9.77566 8.84282 10.3696 8.52535 11.0162 8.39673C11.6628 8.26811 12.333 8.33413 12.9421 8.58642C13.5512 8.83871 14.0718 9.26595 14.4381 9.81412C14.8043 10.3623 14.9998 11.0067 14.9998 11.666C14.9998 12.5501 14.6486 13.3979 14.0235 14.023C13.3984 14.6482 12.5506 14.9993 11.6665 14.9993Z" fill="#F97066"/>
    <path d="M11.6667 15.8333C10.8426 15.8333 10.037 15.589 9.35179 15.1311C8.66659 14.6733 8.13254 14.0225 7.81717 13.2612C7.50181 12.4998 7.41929 11.662 7.58006 10.8538C7.74083 10.0455 8.13767 9.30311 8.72039 8.72039C9.30311 8.13767 10.0455 7.74083 10.8538 7.58006C11.662 7.41929 12.4998 7.50181 13.2612 7.81717C14.0225 8.13254 14.6733 8.66659 15.1311 9.35179C15.589 10.037 15.8333 10.8426 15.8333 11.6667C15.832 12.7713 15.3926 13.8304 14.6115 14.6115C13.8304 15.3926 12.7713 15.832 11.6667 15.8333ZM11.6667 9.16667C11.1722 9.16667 10.6889 9.31329 10.2777 9.58799C9.86662 9.8627 9.54619 10.2531 9.35697 10.71C9.16775 11.1668 9.11824 11.6694 9.21471 12.1544C9.31117 12.6393 9.54927 13.0848 9.8989 13.4344C10.2485 13.7841 10.694 14.0222 11.1789 14.1186C11.6639 14.2151 12.1666 14.1656 12.6234 13.9764C13.0802 13.7871 13.4706 13.4667 13.7453 13.0556C14.02 12.6445 14.1667 12.1611 14.1667 11.6667C14.1667 11.0036 13.9033 10.3677 13.4344 9.8989C12.9656 9.43006 12.3297 9.16667 11.6667 9.16667Z" fill="#F04438"/>
</svg>
