<svg width="20" height="20" viewBox="0 0 20 20" fill="none" xmlns="http://www.w3.org/2000/svg">
    <g clip-path="url(#clip0_6818_5861)">
        <path d="M13.3333 6.66666V4.16666L15.8333 1.66666L16.6666 3.33333L18.3333 4.16666L15.8333 6.66666H13.3333ZM13.3333 6.66666L9.99994 9.99995M18.3333 10C18.3333 14.6024 14.6023 18.3333 9.99996 18.3333C5.39759 18.3333 1.66663 14.6024 1.66663 10C1.66663 5.39762 5.39759 1.66666 9.99996 1.66666M14.1666 10C14.1666 12.3012 12.3011 14.1667 9.99996 14.1667C7.69877 14.1667 5.83329 12.3012 5.83329 10C5.83329 7.69881 7.69877 5.83333 9.99996 5.83333" stroke="#667085" stroke-width="1.66667" stroke-linecap="round" stroke-linejoin="round"/>
    </g>
    <defs>
        <clipPath id="clip0_6818_5861">
            <rect width="20" height="20" fill="white"/>
        </clipPath>
    </defs>
</svg>
