<svg width="104" height="32" fill="none" xmlns="http://www.w3.org/2000/svg">
    <path fill-rule="evenodd" clip-rule="evenodd"
          d="M55.418 6.156h1.507c.078 0 .14.023.124.14a39 39 0 01-.363 2.203l-.102.494h1.871l.614-2.078h1.324c.067 0 .122.04.091.143l-.57 1.935h1.524v1.393h-5.203c-.113.387-.234.753-.365 1.099l-.134.34h6.083v1.393h-2.088a8.013 8.013 0 002.294 2.193l.181.112v1.593c0 .08-.064.166-.317.023a11.34 11.34 0 01-1.811-1.266l-.31-.276-.064 2.708h1.932v6.706h-4.934l-.426-1.392c-.032-.085-.001-.134.051-.15l.043-.006h3.555v-3.765h-7.889a.091.091 0 01-.088-.057l-.007-.037.148-2.64h1.462c.041 0 .074.023.088.056l.007.038-.07 1.247h4.573l.049-2.086h-5.792c-.498.366-.989.66-1.45.92-.22.125-.297.075-.313.007l-.003-.03v-1.593l.28-.175a7.945 7.945 0 002.021-1.89l.176-.24h-2.462v-1.393h3.278c.166-.361.324-.743.452-1.097l.117-.342h-3.466V8.993h1.484l-.57-1.935c-.024-.082.006-.124.053-.138l.038-.005h1.324l.614 2.078h.918c.172-.714.312-1.47.443-2.317l.078-.52zm25.045.749v16.45h1.52v1.549h-3.23V15.64h-4.091v9.461h-1.71v-9.46h-3.708v-1.548h3.707V8.452h-3.235V6.905h10.747zm-12.546 4.911v10.06L70.8 19.7c.049-.037.118-.022.144.029l.01.044v1.752l-4.717 3.557-.939-1.234.919-.692v-9.639H63.92v-1.702h3.997zM50.16 25.015V6.945h-5.285v10.968l-.003.554c-.029 2.544-.257 4.522-.696 6.289-.05.175.003.222.096.222h1.559l.098-.514c.431-2.37.491-4.347.5-5.808h2.179v4.811H47.06l-.042.006c-.053.016-.084.064-.052.15l.426 1.392h2.768zm50.839-9.562v-1.702H83.697v1.702h4.8l-3.496 9.139c-.027.075.022.131.088.131h14.923l.039-.008c.045-.02.067-.075.047-.127l-2.225-5.821h-1.858l-.038.007a.095.095 0 00-.05.122l1.574 4.125h-9.895l2.889-7.568h10.504zM59.13 20.776v1.547h-8.479v-1.547h8.48zm-10.522-7.217h-2.177v3.704h2.177v-3.704zm9.22-.34h-2.77c-.284.5-.586.939-.898 1.327l-.235.281h5.09a11.3 11.3 0 01-1.188-1.609zm20.924-4.767h-4.09v5.642h4.09V8.452zm-30.144.04h-2.177v3.674h2.177V8.492zm15.557-1.929h1.87l2.357 3.583a.095.095 0 01-.036.136l-.044.01h-1.87l-2.36-3.589c-.031-.047-.005-.108.043-.131l.04-.009zm34.933 2.459V7.32h-13.5v1.702h13.5z"
          fill="#000"/>
    <path fill-rule="evenodd" clip-rule="evenodd"
          d="M33.62 14.458a8.07 8.07 0 00-5.767-2.423c-1.959 0-3.645.673-5.117 1.868-.642.52-1.315 1.144-2.162 1.964l-12.617 12.2c.639.092 1.518.119 2.302.124.735.004 14.748.003 15.335.003 1.18 0 1.949-.002 2.774-.062 1.893-.137 3.681-.829 5.127-2.244a8.057 8.057 0 00.125-11.43m-2.344 9.17c-.622.614-1.732 1.31-3.553 1.372a72.31 72.31 0 01-2.276.032H15.66l7.02-6.794a68.708 68.708 0 011.675-1.567c1.374-1.233 2.612-1.482 3.487-1.474a4.994 4.994 0 013.51 1.472c1.908 1.943 1.863 5.048-.076 6.96"
          fill="#00A3FF"/>
    <path fill-rule="evenodd" clip-rule="evenodd"
          d="M13.941 13.7c-1.433-1.07-3.038-1.667-4.858-1.665a8.07 8.07 0 00-5.767 2.423 8.056 8.056 0 00.126 11.43c1.288 1.262 2.85 1.948 4.515 2.18l3.14-3.037A67.294 67.294 0 019.214 25c-1.822-.062-2.931-.758-3.553-1.372-1.939-1.912-1.984-5.016-.077-6.959a4.994 4.994 0 013.51-1.472c.86-.003 2.026.246 3.344 1.334.63.52 2.026 1.744 2.64 2.294.03.028.068.03.104.001l2.163-2.102c.037-.037.035-.085-.002-.119-1.04-.936-2.514-2.247-3.402-2.905"
          fill="#00C8DC"/>
    <path fill-rule="evenodd" clip-rule="evenodd"
          d="M28.703 10.21A10.857 10.857 0 0018.468 3c-5.42 0-9.912 3.972-10.726 9.146a8.103 8.103 0 011.341-.112c.637 0 1.246.074 1.832.214l.034.007a7.681 7.681 0 017.52-6.089c3.069 0 5.761 1.845 6.975 4.46.02.04.052.054.085.045.913-.25 2.008-.395 3.065-.317.103.007.142-.05.11-.144"
          fill="#006EFF"/>
</svg>
