<svg width="24" height="24" viewBox="0 0 24 24" fill="none" xmlns="http://www.w3.org/2000/svg">
    <path d="M7.83332 20.3333V11.1667M3.66666 12.8333V18.6667C3.66666 19.5871 4.41285 20.3333 5.33332 20.3333H16.5219C17.7558 20.3333 18.8052 19.4331 18.9928 18.2135L19.8902 12.3801C20.1232 10.8658 18.9515 9.50001 17.4193 9.50001H14.5C14.0398 9.50001 13.6667 9.12691 13.6667 8.66667V5.72154C13.6667 4.58667 12.7467 3.66667 11.6118 3.66667C11.3411 3.66667 11.0958 3.82608 10.9859 4.07344L8.05327 10.6718C7.91952 10.9727 7.62109 11.1667 7.29176 11.1667H5.33332C4.41285 11.1667 3.66666 11.9129 3.66666 12.8333Z" stroke="#667085" stroke-width="1.66667" stroke-linecap="round" stroke-linejoin="round"/>
</svg>
