<svg width="20" height="20" viewBox="0 0 20 20" fill="none" xmlns="http://www.w3.org/2000/svg">
    <path d="M3.08675 4.41352C2.91063 4.2374 2.81169 3.99853 2.81169 3.74946C2.81169 3.50039 2.91063 3.26151 3.08675 3.08539C3.26287 2.90927 3.50174 2.81033 3.75082 2.81033C3.99989 2.81033 4.23876 2.90927 4.41488 3.08539L10 8.67211L15.5868 3.08696C15.674 2.99975 15.7775 2.93058 15.8914 2.88338C16.0054 2.83618 16.1275 2.81189 16.2508 2.81189C16.3741 2.81189 16.4963 2.83618 16.6102 2.88338C16.7241 2.93058 16.8277 2.99975 16.9149 3.08696C17.0021 3.17416 17.0713 3.27769 17.1185 3.39163C17.1657 3.50557 17.1899 3.62769 17.1899 3.75102C17.1899 3.87435 17.1657 3.99647 17.1185 4.11041C17.0713 4.22435 17.0021 4.32788 16.9149 4.41508L10.6649 10.6651C10.5778 10.7525 10.4743 10.8218 10.3603 10.8691C10.2464 10.9165 10.1242 10.9408 10.0008 10.9408C9.87743 10.9408 9.75525 10.9165 9.6413 10.8691C9.52734 10.8218 9.42385 10.7525 9.33675 10.6651L3.08675 4.41352ZM15.5868 9.33539L10 14.9221L4.41332 9.33461C4.2372 9.15849 3.99833 9.05955 3.74925 9.05955C3.50018 9.05955 3.26131 9.15849 3.08519 9.33461C2.90907 9.51073 2.81013 9.7496 2.81013 9.99867C2.81013 10.2477 2.90907 10.4866 3.08519 10.6627L9.33519 16.9127C9.42229 17.0001 9.52578 17.0695 9.63974 17.1168C9.75369 17.1641 9.87586 17.1885 9.99925 17.1885C10.1226 17.1885 10.2448 17.1641 10.3588 17.1168C10.4727 17.0695 10.5762 17.0001 10.6633 16.9127L16.9133 10.6627C17.0894 10.4866 17.1884 10.2477 17.1884 9.99867C17.1884 9.7496 17.0894 9.51073 16.9133 9.33461C16.7372 9.15849 16.4983 9.05955 16.2493 9.05955C16.0002 9.05955 15.7613 9.15849 15.5852 9.33461L15.5868 9.33539Z" fill="#175CD3"/>
</svg>
