<svg t="1729045598207" class="icon" viewBox="0 0 1024 1024" version="1.1" xmlns="http://www.w3.org/2000/svg"
     p-id="17831" width="200" height="200">
    <path d="M351.79933333 128.278l-0.004 0.002c-7.081-5.79-16.128-9.267-25.988-9.267-22.689 0-41.084 18.394-41.088 41.082l-0.177 0.08299999 0.182 703.88100001c0.086 22.618 18.445 40.928 41.083 40.928 10.762 0 20.553-4.142 27.878-10.912L765.37833333 543.84c9.838-7.507 16.192-19.348 16.192-32.678 0-12.943-5.99100001-24.481-15.344-32.01299999l0-0.01100001-414.081-350.565c-0.09-0.075-0.177-0.15099999-0.267-0.226l-0.079-0.067L351.79933333 128.278z"
          fill="#272636" p-id="17832"></path>
</svg>
