<svg width="28" height="28" viewBox="0 0 28 28" fill="none" xmlns="http://www.w3.org/2000/svg">
    <path d="M25.8125 14C25.8125 14.1937 25.8078 14.3868 25.7985 14.5793C25.7892 14.7729 25.7746 14.9654 25.7547 15.1568C25.7361 15.3504 25.7127 15.5429 25.6847 15.7343C25.6567 15.9244 25.6235 16.1146 25.585 16.3048C25.5477 16.4938 25.5057 16.6822 25.459 16.87C25.4123 17.0567 25.3604 17.2433 25.3032 17.43C25.2472 17.6143 25.1866 17.7975 25.1213 17.9795C25.0571 18.1615 24.9877 18.3423 24.913 18.522C24.8395 18.6993 24.7613 18.8755 24.6785 19.0505C24.5968 19.2255 24.5099 19.3982 24.4177 19.5685C24.3267 19.7388 24.2317 19.9068 24.1325 20.0725C24.0333 20.2382 23.9295 20.4015 23.821 20.5625C23.7137 20.7235 23.6028 20.8816 23.4885 21.0368C23.3718 21.1919 23.2528 21.3442 23.1315 21.4935C23.009 21.6428 22.8824 21.7892 22.7518 21.9328C22.6234 22.0763 22.4904 22.2162 22.3527 22.3527C22.2162 22.4893 22.0763 22.6223 21.9328 22.7518C21.7892 22.8824 21.6434 23.009 21.4953 23.1315C21.3447 23.254 21.1919 23.373 21.0368 23.4885C20.8816 23.6028 20.7241 23.7137 20.5643 23.821C20.4021 23.9283 20.2387 24.0322 20.0742 24.1325C19.9074 24.2317 19.7382 24.3267 19.5667 24.4177C19.3976 24.5088 19.2255 24.5957 19.0505 24.6785C18.8755 24.7602 18.6987 24.8383 18.5203 24.913C18.3418 24.9877 18.1615 25.0577 17.9795 25.123C17.7975 25.1872 17.6137 25.2472 17.4282 25.3032C17.2439 25.3592 17.0578 25.4112 16.87 25.459C16.6833 25.5057 16.4949 25.5477 16.3048 25.585C16.1146 25.6235 15.9238 25.6567 15.7325 25.6847C15.5423 25.7127 15.351 25.7361 15.1585 25.7547C14.966 25.7746 14.7735 25.7892 14.581 25.7985C14.3873 25.8078 14.1937 25.8125 14 25.8125C13.8063 25.8125 13.6133 25.8078 13.4208 25.7985C13.2271 25.7892 13.0346 25.7746 12.8433 25.7547C12.6496 25.7361 12.4571 25.7127 12.2657 25.6847C12.0756 25.6567 11.8854 25.6235 11.6953 25.585C11.5063 25.5477 11.3178 25.5057 11.13 25.459C10.9433 25.4123 10.7567 25.3604 10.57 25.3032C10.3857 25.2472 10.2025 25.1866 10.0205 25.1213C9.8385 25.0571 9.65767 24.9877 9.478 24.913C9.30067 24.8395 9.1245 24.7613 8.9495 24.6785C8.7745 24.5968 8.60183 24.5099 8.4315 24.4177C8.26117 24.3267 8.09317 24.2317 7.9275 24.1325C7.76183 24.0333 7.5985 23.9295 7.4375 23.821C7.2765 23.7137 7.11842 23.6028 6.96325 23.4885C6.80808 23.3718 6.65583 23.2528 6.5065 23.1315C6.35717 23.009 6.21075 22.8824 6.06725 22.7518C5.92375 22.6234 5.78375 22.4904 5.64725 22.3527C5.51075 22.2162 5.37775 22.0763 5.24825 21.9328C5.11758 21.7892 4.991 21.6434 4.8685 21.4953C4.746 21.3447 4.627 21.1919 4.5115 21.0368C4.39717 20.8816 4.28633 20.7241 4.179 20.5643C4.07167 20.4021 3.96783 20.2387 3.8675 20.0742C3.76833 19.9074 3.67325 19.7382 3.58225 19.5667C3.49125 19.3976 3.40433 19.2255 3.3215 19.0505C3.23983 18.8755 3.16167 18.6987 3.087 18.5203C3.01233 18.3418 2.94233 18.1615 2.877 17.9795C2.81283 17.7975 2.75275 17.6137 2.69675 17.4282C2.64075 17.2439 2.58883 17.0578 2.541 16.87C2.49433 16.6833 2.45233 16.4949 2.415 16.3048C2.3765 16.1146 2.34325 15.9238 2.31525 15.7325C2.28725 15.5423 2.26392 15.351 2.24525 15.1585C2.22542 14.966 2.21083 14.7735 2.2015 14.581C2.19217 14.3862 2.1875 14.1925 2.1875 14C2.1875 13.8075 2.19217 13.6144 2.2015 13.4208C2.21083 13.2271 2.22542 13.0346 2.24525 12.8433C2.26392 12.6496 2.28725 12.4571 2.31525 12.2657C2.34325 12.0756 2.3765 11.8854 2.415 11.6953C2.45233 11.5063 2.49433 11.3178 2.541 11.13C2.58767 10.9433 2.63958 10.7567 2.69675 10.57C2.75275 10.3857 2.81342 10.2025 2.87875 10.0205C2.94292 9.8385 3.01233 9.65767 3.087 9.478C3.1605 9.30067 3.23867 9.1245 3.3215 8.9495C3.40317 8.7745 3.49008 8.60183 3.58225 8.4315C3.67325 8.26117 3.76833 8.09317 3.8675 7.9275C3.96783 7.76183 4.07167 7.5985 4.179 7.4375C4.28633 7.2765 4.39717 7.11842 4.5115 6.96325C4.62817 6.80808 4.74717 6.65583 4.8685 6.5065C4.991 6.35717 5.11758 6.21075 5.24825 6.06725C5.37658 5.92375 5.50958 5.78375 5.64725 5.64725C5.78375 5.51075 5.92375 5.37775 6.06725 5.24825C6.21075 5.11758 6.35658 4.991 6.50475 4.8685C6.65525 4.746 6.80808 4.627 6.96325 4.5115C7.11842 4.39717 7.27592 4.28633 7.43575 4.179C7.59792 4.07167 7.76125 3.96783 7.92575 3.8675C8.09258 3.76833 8.26175 3.67325 8.43325 3.58225C8.60242 3.49125 8.7745 3.40433 8.9495 3.3215C9.1245 3.23983 9.30125 3.16167 9.47975 3.087C9.65825 3.01233 9.8385 2.94233 10.0205 2.877C10.2025 2.81283 10.3862 2.75275 10.5717 2.69675C10.7561 2.64075 10.9422 2.58883 11.13 2.541C11.3167 2.49433 11.5051 2.45233 11.6953 2.415C11.8854 2.3765 12.0762 2.34325 12.2675 2.31525C12.4577 2.28725 12.649 2.26392 12.8415 2.24525C13.034 2.22542 13.2265 2.21083 13.419 2.2015C13.6127 2.19217 13.8063 2.1875 14 2.1875C14.1937 2.1875 14.3868 2.19217 14.5793 2.2015C14.7729 2.21083 14.9654 2.22542 15.1568 2.24525C15.3504 2.26392 15.5429 2.28725 15.7343 2.31525C15.9244 2.34325 16.1146 2.3765 16.3048 2.415C16.4938 2.45233 16.6822 2.49433 16.87 2.541C17.0567 2.58767 17.2433 2.63958 17.43 2.69675C17.6143 2.75275 17.7975 2.81342 17.9795 2.87875C18.1615 2.94292 18.3423 3.01233 18.522 3.087C18.6993 3.1605 18.8755 3.23867 19.0505 3.3215C19.2255 3.40317 19.3982 3.49008 19.5685 3.58225C19.7388 3.67325 19.9068 3.76833 20.0725 3.8675C20.2382 3.96783 20.4015 4.07167 20.5625 4.179C20.7235 4.28633 20.8816 4.39717 21.0368 4.5115C21.1919 4.62817 21.3442 4.74717 21.4935 4.8685C21.6428 4.991 21.7892 5.11758 21.9328 5.24825C22.0763 5.37658 22.2162 5.50958 22.3527 5.64725C22.4893 5.78375 22.6223 5.92375 22.7518 6.06725C22.8824 6.21075 23.009 6.35658 23.1315 6.50475C23.254 6.65525 23.373 6.80808 23.4885 6.96325C23.6028 7.11842 23.7137 7.27592 23.821 7.43575C23.9283 7.59792 24.0322 7.76125 24.1325 7.92575C24.2317 8.09258 24.3267 8.26175 24.4177 8.43325C24.5088 8.60242 24.5957 8.7745 24.6785 8.9495C24.7602 9.1245 24.8383 9.30125 24.913 9.47975C24.9877 9.65825 25.0577 9.8385 25.123 10.0205C25.1872 10.2025 25.2472 10.3862 25.3032 10.5717C25.3592 10.7561 25.4112 10.9422 25.459 11.13C25.5057 11.3167 25.5477 11.5051 25.585 11.6953C25.6235 11.8854 25.6567 12.0762 25.6847 12.2675C25.7127 12.4577 25.7361 12.649 25.7547 12.8415C25.7746 13.034 25.7892 13.2265 25.7985 13.419C25.8078 13.6127 25.8125 13.8063 25.8125 14Z" fill="#15B79E"/>
    <path d="M8.6975 12.5117C8.30839 12.5173 7.93739 12.677 7.66602 12.9559C7.39465 13.2349 7.24511 13.6101 7.25025 13.9992C7.25025 14.82 7.89775 15.4867 8.69575 15.4867C9.08486 15.4812 9.45586 15.3214 9.72723 15.0425C9.9986 14.7636 10.1481 14.3883 10.143 13.9992C10.143 13.1767 9.4955 12.5117 8.69575 12.5117H8.6975ZM19.3025 12.5117C18.9137 12.5177 18.5431 12.6777 18.2722 12.9566C18.0012 13.2354 17.8519 13.6104 17.857 13.9992C17.857 14.82 18.5045 15.4867 19.3043 15.4867C19.6931 15.4807 20.0636 15.3207 20.3346 15.0419C20.6056 14.763 20.7549 14.388 20.7498 13.9992C20.7498 13.1767 20.1023 12.5117 19.3043 12.5117H19.3025ZM14 12.5117C13.6109 12.5173 13.2399 12.677 12.9685 12.9559C12.6972 13.2349 12.5476 13.6101 12.5528 13.9992C12.5528 14.82 13.2003 15.4867 13.9983 15.4867C14.3874 15.4812 14.7584 15.3214 15.0297 15.0425C15.3011 14.7636 15.4506 14.3883 15.4455 13.9992C15.4455 13.1767 14.798 12.5117 13.9983 12.5117H14Z" fill="white"/>
</svg>
