<svg width="40" height="40" viewBox="0 0 40 40" fill="none" xmlns="http://www.w3.org/2000/svg">
    <path d="M7.75 4C7.75 2.20508 9.20508 0.75 11 0.75H27C27.1212 0.75 27.2375 0.798159 27.3232 0.883885L38.1161 11.6768C38.2018 11.7625 38.25 11.8788 38.25 12V36C38.25 37.7949 36.7949 39.25 35 39.25H11C9.20507 39.25 7.75 37.7949 7.75 36V4Z" fill="white" stroke="#D0D5DD" stroke-width="1.5"/>
    <path d="M27 0.5V8C27 10.2091 28.7909 12 31 12H38.5" stroke="#D0D5DD" stroke-width="1.5"/>
    <rect x="0.5" y="18" width="27" height="16" rx="2" fill="#444CE7"/>
    <path d="M5.62376 22.7273L7.38157 28.2528H7.44904L9.2104 22.7273H10.915L8.40785 30H6.42631L3.91566 22.7273H5.62376ZM11.7903 30V22.7273H14.7022C15.2373 22.7273 15.6835 22.8066 16.041 22.9652C16.3985 23.1238 16.6672 23.344 16.8471 23.6257C17.027 23.9051 17.117 24.227 17.117 24.5916C17.117 24.8757 17.0602 25.1255 16.9466 25.3409C16.8329 25.554 16.6767 25.7292 16.4778 25.8665C16.2813 26.0014 16.0564 26.0973 15.8031 26.1541V26.2251C16.0801 26.237 16.3393 26.3151 16.5808 26.4595C16.8246 26.6039 17.0223 26.8063 17.1738 27.0668C17.3253 27.3248 17.4011 27.6326 17.4011 27.9901C17.4011 28.3759 17.3052 28.7204 17.1135 29.0234C16.9241 29.3241 16.6435 29.562 16.2718 29.7372C15.9002 29.9124 15.4421 30 14.8975 30H11.7903ZM13.3279 28.7429H14.5815C15.01 28.7429 15.3225 28.6612 15.519 28.4979C15.7155 28.3321 15.8137 28.112 15.8137 27.8374C15.8137 27.6361 15.7652 27.4586 15.6681 27.3047C15.5711 27.1508 15.4326 27.0301 15.2527 26.9425C15.0751 26.8549 14.8632 26.8111 14.617 26.8111H13.3279V28.7429ZM13.3279 25.7706H14.4679C14.6786 25.7706 14.8656 25.7339 15.0289 25.6605C15.1947 25.5848 15.3249 25.4782 15.4196 25.3409C15.5166 25.2036 15.5652 25.0391 15.5652 24.8473C15.5652 24.5845 15.4717 24.3726 15.2846 24.2116C15.1 24.0507 14.8372 23.9702 14.4963 23.9702H13.3279V25.7706Z" fill="white"/>
    <path d="M22.3469 24.8189C22.3185 24.5324 22.1966 24.3099 21.9812 24.1513C21.7657 23.9927 21.4734 23.9134 21.104 23.9134C20.8531 23.9134 20.6412 23.9489 20.4684 24.0199C20.2956 24.0885 20.163 24.1844 20.0707 24.3075C19.9807 24.4306 19.9357 24.5703 19.9357 24.7266C19.931 24.8568 19.9582 24.9704 20.0174 25.0675C20.079 25.1645 20.163 25.2486 20.2695 25.3196C20.3761 25.3883 20.4992 25.4486 20.6388 25.5007C20.7785 25.5504 20.9277 25.593 21.0863 25.6286L21.7397 25.7848C22.0569 25.8558 22.3481 25.9505 22.6133 26.0689C22.8784 26.1873 23.1081 26.3329 23.3022 26.5057C23.4963 26.6785 23.6467 26.8821 23.7532 27.1165C23.8621 27.3509 23.9177 27.6196 23.9201 27.9226C23.9177 28.3677 23.8041 28.7536 23.5792 29.0803C23.3567 29.4046 23.0347 29.6567 22.6133 29.8366C22.1942 30.0142 21.6888 30.103 21.0969 30.103C20.5098 30.103 19.9985 30.013 19.5629 29.8331C19.1296 29.6532 18.7911 29.3868 18.5472 29.0341C18.3058 28.679 18.1791 28.2398 18.1673 27.7166H19.6552C19.6718 27.9605 19.7416 28.1641 19.8647 28.3274C19.9902 28.4884 20.1571 28.6103 20.3654 28.6932C20.5761 28.7737 20.814 28.8139 21.0792 28.8139C21.3396 28.8139 21.5657 28.776 21.7575 28.7003C21.9516 28.6245 22.1019 28.5192 22.2085 28.3842C22.315 28.2493 22.3683 28.0942 22.3683 27.919C22.3683 27.7557 22.3197 27.6184 22.2227 27.5071C22.128 27.3958 21.9883 27.3011 21.8036 27.223C21.6213 27.1449 21.3976 27.0739 21.1325 27.0099L20.3406 26.8111C19.7274 26.6619 19.2433 26.4287 18.8881 26.1115C18.533 25.7943 18.3567 25.367 18.359 24.8295C18.3567 24.3892 18.4738 24.0045 18.7106 23.6754C18.9497 23.3464 19.2776 23.0895 19.6942 22.9048C20.1109 22.7202 20.5844 22.6278 21.1147 22.6278C21.6545 22.6278 22.1256 22.7202 22.5281 22.9048C22.9329 23.0895 23.2478 23.3464 23.4727 23.6754C23.6976 24.0045 23.8136 24.3857 23.8207 24.8189H22.3469Z" fill="#444CE7"/>
</svg>
