<svg width="20" height="20" viewBox="0 0 20 20" fill="none" xmlns="http://www.w3.org/2000/svg">
    <path d="M13.9418 0.0255469L18.586 4.66742V18.4398C18.586 19.2838 17.8835 19.9743 17.0251 19.9743H2.97491C2.11632 19.9743 1.41382 19.2837 1.41382 18.4399V1.55992C1.41382 0.715859 2.11632 0.0253906 2.97476 0.0253906H13.9418V0.0255469Z" fill="#BD68D9"/>
    <path d="M13.9028 0.0253906L18.5861 4.62898H15.4641C14.6055 4.62898 13.903 3.93836 13.903 3.09445V0.0253906H13.9028Z" fill="white" fill-opacity="0.551"/>
    <path d="M5.15625 10.7031C5.15625 11.967 5.65834 13.1792 6.55207 14.0729C7.4458 14.9667 8.65795 15.4688 9.92188 15.4688C11.1858 15.4688 12.398 14.9667 13.2917 14.0729C14.1854 13.1792 14.6875 11.967 14.6875 10.7031C14.6875 9.4392 14.1854 8.22705 13.2917 7.33332C12.398 6.43959 11.1858 5.9375 9.92188 5.9375C8.65795 5.9375 7.4458 6.43959 6.55207 7.33332C5.65834 8.22705 5.15625 9.4392 5.15625 10.7031Z" fill="white"/>
    <path d="M6.25 10.7031C6.25 11.1853 6.34498 11.6628 6.5295 12.1083C6.71403 12.5538 6.9845 12.9586 7.32547 13.2995C7.66643 13.6405 8.07122 13.911 8.51671 14.0955C8.9622 14.28 9.43968 14.375 9.92188 14.375C10.4041 14.375 10.8815 14.28 11.327 14.0955C11.7725 13.911 12.1773 13.6405 12.5183 13.2995C12.8592 12.9586 13.1297 12.5538 13.3142 12.1083C13.4988 11.6628 13.5938 11.1853 13.5938 10.7031C13.5938 10.2209 13.4988 9.74345 13.3142 9.29796C13.1297 8.85247 12.8592 8.44768 12.5183 8.10672C12.1773 7.76575 11.7725 7.49528 11.327 7.31075C10.8815 7.12623 10.4041 7.03125 9.92188 7.03125C9.43968 7.03125 8.9622 7.12623 8.51671 7.31075C8.07122 7.49528 7.66643 7.76575 7.32547 8.10672C6.9845 8.44768 6.71403 8.85247 6.5295 9.29796C6.34498 9.74345 6.25 10.2209 6.25 10.7031Z" fill="#BD68D9"/>
    <path d="M12.0227 11.177L9.36875 13.0531C9.28397 13.113 9.17894 13.137 9.07658 13.1197C8.97421 13.1025 8.88282 13.0455 8.82234 12.9611C8.77526 12.8952 8.74996 12.8162 8.75 12.7352V8.9836C8.75012 8.93226 8.76036 8.88146 8.78012 8.83408C8.79988 8.78671 8.82878 8.74369 8.86518 8.70749C8.90157 8.67129 8.94473 8.64261 8.99221 8.62309C9.03969 8.60358 9.09054 8.59361 9.14187 8.59375C9.22312 8.59375 9.3025 8.61891 9.36875 8.66578L12.0227 10.5416C12.0736 10.5774 12.1152 10.625 12.1439 10.6803C12.1727 10.7356 12.1876 10.797 12.1876 10.8593C12.1876 10.9216 12.1727 10.983 12.1439 11.0383C12.1152 11.0936 12.0736 11.1412 12.0227 11.177Z" fill="white"/>
</svg>
