<svg width="40" height="40" viewBox="0 0 40 40" fill="none" xmlns="http://www.w3.org/2000/svg">
    <path d="M7.75 4C7.75 2.20508 9.20508 0.75 11 0.75H27C27.1212 0.75 27.2375 0.798159 27.3232 0.883885L38.1161 11.6768C38.2018 11.7625 38.25 11.8788 38.25 12V36C38.25 37.7949 36.7949 39.25 35 39.25H11C9.20507 39.25 7.75 37.7949 7.75 36V4Z" fill="white" stroke="#D0D5DD" stroke-width="1.5"/>
    <path d="M27 0.5V8C27 10.2091 28.7909 12 31 12H38.5" stroke="#D0D5DD" stroke-width="1.5"/>
    <rect x="0.5" y="18" width="27" height="16" rx="2" fill="#444CE7"/>
    <path d="M5.4968 22.7273L7.25462 28.2528H7.32209L9.08345 22.7273H10.788L8.28089 30H6.29936L3.78871 22.7273H5.4968ZM16.1555 22.7273H17.6932V27.4503C17.6932 27.9806 17.5665 28.4446 17.3132 28.8423C17.0623 29.2401 16.7107 29.5502 16.2585 29.7727C15.8063 29.9929 15.2796 30.103 14.6783 30.103C14.0746 30.103 13.5466 29.9929 13.0945 29.7727C12.6423 29.5502 12.2907 29.2401 12.0398 28.8423C11.7888 28.4446 11.6634 27.9806 11.6634 27.4503V22.7273H13.201V27.3189C13.201 27.5959 13.2614 27.8421 13.3821 28.0575C13.5052 28.273 13.678 28.4422 13.9006 28.5653C14.1231 28.6884 14.3823 28.75 14.6783 28.75C14.9766 28.75 15.2358 28.6884 15.456 28.5653C15.6785 28.4422 15.8501 28.273 15.9709 28.0575C16.094 27.8421 16.1555 27.5959 16.1555 27.3189V22.7273ZM18.9583 30V22.7273H23.8588V23.995H20.4959V25.728H23.6067V26.9957H20.4959V28.7322H23.873V30H18.9583Z" fill="white"/>
</svg>
