<svg width="44" height="40" viewBox="0 0 44 40" fill="none" xmlns="http://www.w3.org/2000/svg">
    <path d="M11.75 4C11.75 2.20508 13.2051 0.75 15 0.75H31C31.1212 0.75 31.2375 0.798159 31.3232 0.883885L42.1161 11.6768C42.2018 11.7625 42.25 11.8788 42.25 12V36C42.25 37.7949 40.7949 39.25 39 39.25H15C13.2051 39.25 11.75 37.7949 11.75 36V4Z" fill="white" stroke="#D0D5DD" stroke-width="1.5"/>
    <path d="M31 0.5V8C31 10.2091 32.7909 12 35 12H42.5" stroke="#D0D5DD" stroke-width="1.5"/>
    <rect y="18" width="39" height="16" rx="2" fill="#155EEF"/>
    <path d="M5.64613 30L3.56516 22.7273H5.24485L6.44869 27.7805H6.50906L7.83718 22.7273H9.27539L10.6 27.7912H10.6639L11.8677 22.7273H13.5474L11.4664 30H9.96786L8.58292 25.245H8.5261L7.14471 30H5.64613ZM14.3704 30V22.7273H19.271V23.995H15.908V25.728H19.0188V26.9957H15.908V28.7322H19.2852V30H14.3704ZM20.4934 30V22.7273H23.4054C23.9404 22.7273 24.3867 22.8066 24.7441 22.9652C25.1016 23.1238 25.3703 23.344 25.5502 23.6257C25.7302 23.9051 25.8201 24.227 25.8201 24.5916C25.8201 24.8757 25.7633 25.1255 25.6497 25.3409C25.536 25.554 25.3798 25.7292 25.1809 25.8665C24.9844 26.0014 24.7595 26.0973 24.5062 26.1541V26.2251C24.7832 26.237 25.0424 26.3151 25.2839 26.4595C25.5278 26.6039 25.7254 26.8063 25.877 27.0668C26.0285 27.3248 26.1042 27.6326 26.1042 27.9901C26.1042 28.3759 26.0083 28.7204 25.8166 29.0234C25.6272 29.3241 25.3467 29.562 24.975 29.7372C24.6033 29.9124 24.1452 30 23.6007 30H20.4934ZM22.0311 28.7429H23.2846C23.7131 28.7429 24.0256 28.6612 24.2221 28.4979C24.4186 28.3321 24.5169 28.112 24.5169 27.8374C24.5169 27.6361 24.4683 27.4586 24.3713 27.3047C24.2742 27.1508 24.1357 27.0301 23.9558 26.9425C23.7782 26.8549 23.5663 26.8111 23.3201 26.8111H22.0311V28.7429ZM22.0311 25.7706H23.171C23.3817 25.7706 23.5687 25.7339 23.7321 25.6605C23.8978 25.5848 24.028 25.4782 24.1227 25.3409C24.2198 25.2036 24.2683 25.0391 24.2683 24.8473C24.2683 24.5845 24.1748 24.3726 23.9877 24.2116C23.8031 24.0507 23.5403 23.9702 23.1994 23.9702H22.0311V25.7706ZM27.1048 22.7273H29.0011L31.0039 27.6136H31.0891L33.092 22.7273H34.9883V30H33.4968V25.2663H33.4364L31.5543 29.9645H30.5387L28.6566 25.2486H28.5962V30H27.1048V22.7273Z" fill="white"/>
</svg>
