<svg width="44" height="40" viewBox="0 0 44 40" fill="none" xmlns="http://www.w3.org/2000/svg">
    <path d="M11.75 4C11.75 2.20508 13.2051 0.75 15 0.75H31C31.1212 0.75 31.2375 0.798159 31.3232 0.883885L42.1161 11.6768C42.2018 11.7625 42.25 11.8788 42.25 12V36C42.25 37.7949 40.7949 39.25 39 39.25H15C13.2051 39.25 11.75 37.7949 11.75 36V4Z" fill="white" stroke="#D0D5DD" stroke-width="1.5"/>
    <path d="M31 0.5V8C31 10.2091 32.7909 12 35 12H42.5" stroke="#D0D5DD" stroke-width="1.5"/>
    <rect y="18" width="36" height="16" rx="2" fill="#3E4784"/>
    <path d="M5.48402 30L3.40305 22.7273H5.08274L6.28658 27.7805H6.34695L7.67507 22.7273H9.11328L10.4379 27.7912H10.5018L11.7056 22.7273H13.3853L11.3043 30H9.80575L8.42081 25.245H8.36399L6.9826 30H5.48402ZM14.2083 30V22.7273H19.1088V23.995H15.7459V25.728H18.8567V26.9957H15.7459V28.7322H19.123V30H14.2083ZM20.3313 30V22.7273H23.2433C23.7783 22.7273 24.2246 22.8066 24.582 22.9652C24.9395 23.1238 25.2082 23.344 25.3881 23.6257C25.5681 23.9051 25.658 24.227 25.658 24.5916C25.658 24.8757 25.6012 25.1255 25.4876 25.3409C25.3739 25.554 25.2177 25.7292 25.0188 25.8665C24.8223 26.0014 24.5974 26.0973 24.3441 26.1541V26.2251C24.6211 26.237 24.8803 26.3151 25.1218 26.4595C25.3656 26.6039 25.5633 26.8063 25.7148 27.0668C25.8664 27.3248 25.9421 27.6326 25.9421 27.9901C25.9421 28.3759 25.8462 28.7204 25.6545 29.0234C25.4651 29.3241 25.1845 29.562 24.8129 29.7372C24.4412 29.9124 23.9831 30 23.4386 30H20.3313ZM21.869 28.7429H23.1225C23.551 28.7429 23.8635 28.6612 24.06 28.4979C24.2565 28.3321 24.3548 28.112 24.3548 27.8374C24.3548 27.6361 24.3062 27.4586 24.2092 27.3047C24.1121 27.1508 23.9736 27.0301 23.7937 26.9425C23.6161 26.8549 23.4042 26.8111 23.158 26.8111H21.869V28.7429ZM21.869 25.7706H23.0089C23.2196 25.7706 23.4066 25.7339 23.57 25.6605C23.7357 25.5848 23.8659 25.4782 23.9606 25.3409C24.0576 25.2036 24.1062 25.0391 24.1062 24.8473C24.1062 24.5845 24.0127 24.3726 23.8256 24.2116C23.641 24.0507 23.3782 23.9702 23.0373 23.9702H21.869V25.7706ZM26.9426 30V22.7273H29.812C30.3636 22.7273 30.8335 22.8326 31.2218 23.0433C31.61 23.2517 31.906 23.5417 32.1096 23.9134C32.3155 24.2827 32.4185 24.7088 32.4185 25.1918C32.4185 25.6747 32.3143 26.1009 32.106 26.4702C31.8977 26.8395 31.5958 27.1271 31.2005 27.3331C30.8075 27.5391 30.3316 27.642 29.7729 27.642H27.9441V26.4098H29.5243C29.8203 26.4098 30.0641 26.3589 30.2559 26.2571C30.45 26.1529 30.5944 26.0097 30.6891 25.8274C30.7862 25.6428 30.8347 25.4309 30.8347 25.1918C30.8347 24.9503 30.7862 24.7396 30.6891 24.5597C30.5944 24.3774 30.45 24.2365 30.2559 24.1371C30.0617 24.0353 29.8155 23.9844 29.5172 23.9844H28.4803V30H26.9426Z" fill="white"/>
</svg>
