<svg width="14" height="12" viewBox="0 0 14 12" fill="none" xmlns="http://www.w3.org/2000/svg">
    <path d="M8.16666 10.6663H2.04166C1.8096 10.6663 1.58704 10.5742 1.42295 10.4101C1.25885 10.246 1.16666 10.0234 1.16666 9.79134V2.20801C1.16666 1.97594 1.25885 1.75338 1.42295 1.58929C1.58704 1.42519 1.8096 1.33301 2.04166 1.33301H11.9583C12.1904 1.33301 12.413 1.42519 12.577 1.58929C12.7411 1.75338 12.8333 1.97594 12.8333 2.20801V5.72522M11.375 10.958V7.45801M11.375 7.45801L9.91666 8.91634M11.375 7.45801L12.8333 8.91634"
          stroke="#175CD3" stroke-linecap="round" stroke-linejoin="round"/>
    <path d="M1.16666 2.20801C1.16666 1.97594 1.25885 1.75338 1.42295 1.58929C1.58704 1.42519 1.8096 1.33301 2.04166 1.33301H11.9583C12.1904 1.33301 12.413 1.42519 12.577 1.58929C12.7411 1.75338 12.8333 1.97594 12.8333 2.20801V4.83301H1.16666V2.20801Z"
          stroke="#175CD3"/>
    <path d="M2.33333 3.08268C2.33333 2.76052 2.5945 2.49935 2.91667 2.49935C3.23883 2.49935 3.5 2.76052 3.5 3.08268C3.5 3.40485 3.23883 3.66602 2.91667 3.66602C2.5945 3.66602 2.33333 3.40485 2.33333 3.08268Z"
          fill="#175CD3"/>
    <path d="M4.08333 3.08268C4.08333 2.76052 4.3445 2.49935 4.66667 2.49935C4.98883 2.49935 5.25 2.76052 5.25 3.08268C5.25 3.40485 4.98883 3.66602 4.66667 3.66602C4.3445 3.66602 4.08333 3.40485 4.08333 3.08268Z"
          fill="#175CD3"/>
</svg>
