<svg width="41" height="40" viewBox="0 0 41 40" fill="none" xmlns="http://www.w3.org/2000/svg">
    <path d="M8.75 4C8.75 2.20508 10.2051 0.75 12 0.75H28C28.1212 0.75 28.2375 0.798159 28.3232 0.883885L39.1161 11.6768C39.2018 11.7625 39.25 11.8788 39.25 12V36C39.25 37.7949 37.7949 39.25 36 39.25H12C10.2051 39.25 8.75 37.7949 8.75 36V4Z" fill="white" stroke="#D0D5DD" stroke-width="1.5"/>
    <path d="M28 0.5V8C28 10.2091 29.7909 12 32 12H39.5" stroke="#D0D5DD" stroke-width="1.5"/>
    <rect y="18" width="33" height="16" rx="2" fill="#155EEF"/>
    <path d="M5.27308 30L3.19212 22.7273H4.8718L6.07564 27.7805H6.13601L7.46413 22.7273H8.90234L10.2269 27.7912H10.2908L11.4947 22.7273H13.1744L11.0934 30H9.59482L8.20987 25.245H8.15305L6.77166 30H5.27308ZM13.9973 22.7273H15.8936L17.8965 27.6136H17.9817L19.9846 22.7273H21.8809V30H20.3894V25.2663H20.329L18.4469 29.9645H17.4313L15.5492 25.2486H15.4888V30H13.9973V22.7273ZM24.4616 22.7273L26.2195 28.2528H26.2869L28.0483 22.7273H29.7528L27.2457 30H25.2642L22.7536 22.7273H24.4616Z" fill="white"/>
</svg>
