<svg width="24" height="24" viewBox="0 0 24 24" fill="none" xmlns="http://www.w3.org/2000/svg">
    <path d="M16.009 8.54754C16.2668 8.54754 16.5246 8.57135 16.7811 8.59385C16.0912 5.39212 12.6302 3 8.68768 3C4.279 3.01547 0.666504 5.99515 0.666504 9.77873C0.666504 11.96 1.8707 13.7591 3.871 15.1519L3.0636 17.5413L5.87132 16.1499C6.87721 16.3466 7.68468 16.5434 8.67777 16.5434C8.93558 16.5434 9.18074 16.5322 9.42575 16.5096C9.26653 15.9663 9.18405 15.4033 9.18071 14.8372C9.19208 11.3684 12.1982 8.54895 16.0105 8.54895L16.0091 8.54754H16.009ZM11.6939 6.39148C12.303 6.39148 12.6996 6.78499 12.6996 7.38933C12.6996 7.97967 12.303 8.38727 11.6939 8.38727C11.0974 8.38727 10.4897 7.99235 10.4897 7.38931C10.4897 6.78499 11.0974 6.39148 11.6939 6.39148ZM6.07956 8.38727C5.48462 8.38727 4.87548 7.99235 4.87548 7.38931C4.87548 6.78499 5.48462 6.39148 6.07956 6.39148C6.67604 6.39148 7.08545 6.78499 7.08545 7.38933C7.08545 7.97967 6.68879 8.38727 6.07956 8.38727ZM23.3332 14.7542C23.3332 11.575 20.1287 8.97621 16.5133 8.97621C12.7011 8.97621 9.69489 11.575 9.69489 14.7542C9.69489 17.9447 12.7011 20.5336 16.5133 20.5336C17.3095 20.5336 18.1169 20.3368 18.9231 20.1386L21.1217 21.3333L20.514 19.3487C22.129 18.1316 23.3332 16.5405 23.3332 14.7542ZM14.3033 13.7562C13.9067 13.7562 13.4958 13.3627 13.4958 12.9551C13.4958 12.5616 13.9067 12.1541 14.3033 12.1541C14.9124 12.1541 15.3092 12.549 15.3092 12.9551C15.3092 13.3627 14.9124 13.7562 14.3033 13.7562ZM18.7134 13.7562C18.3154 13.7562 17.9172 13.3627 17.9172 12.9551C17.9172 12.5616 18.3139 12.1541 18.7134 12.1541C19.3212 12.1541 19.7192 12.549 19.7192 12.9551C19.7192 13.3627 19.3212 13.7562 18.7134 13.7562Z" fill="#09BB07"/>
</svg>
