<svg width="42" height="40" viewBox="0 0 42 40" fill="none" xmlns="http://www.w3.org/2000/svg">
    <path d="M9.75 4C9.75 2.20508 11.2051 0.75 13 0.75H29C29.1212 0.75 29.2375 0.798159 29.3232 0.883885L40.1161 11.6768C40.2018 11.7625 40.25 11.8788 40.25 12V36C40.25 37.7949 38.7949 39.25 37 39.25H13C11.2051 39.25 9.75 37.7949 9.75 36V4Z" fill="white" stroke="#D0D5DD" stroke-width="1.5"/>
    <path d="M29 0.5V8C29 10.2091 30.7909 12 33 12H40.5" stroke="#D0D5DD" stroke-width="1.5"/>
    <rect x="0.5" y="18" width="33" height="16" rx="2" fill="#099250"/>
    <path d="M5.81214 22.7273L7.27876 25.206H7.33558L8.8093 22.7273H10.5458L8.32635 26.3636L10.5955 30H8.82706L7.33558 27.5178H7.27876L5.78729 30H4.02592L6.3022 26.3636L4.06854 22.7273H5.81214ZM11.5188 30V22.7273H13.0565V28.7322H16.1744V30H11.5188ZM21.138 24.8189C21.1096 24.5324 20.9876 24.3099 20.7722 24.1513C20.5568 23.9927 20.2644 23.9134 19.8951 23.9134C19.6441 23.9134 19.4322 23.9489 19.2594 24.0199C19.0866 24.0885 18.954 24.1844 18.8617 24.3075C18.7717 24.4306 18.7267 24.5703 18.7267 24.7266C18.722 24.8568 18.7492 24.9704 18.8084 25.0675C18.87 25.1645 18.954 25.2486 19.0605 25.3196C19.1671 25.3883 19.2902 25.4486 19.4299 25.5007C19.5695 25.5504 19.7187 25.593 19.8773 25.6286L20.5307 25.7848C20.848 25.8558 21.1391 25.9505 21.4043 26.0689C21.6694 26.1873 21.8991 26.3329 22.0932 26.5057C22.2873 26.6785 22.4377 26.8821 22.5442 27.1165C22.6531 27.3509 22.7087 27.6196 22.7111 27.9226C22.7087 28.3677 22.5951 28.7536 22.3702 29.0803C22.1477 29.4046 21.8257 29.6567 21.4043 29.8366C20.9853 30.0142 20.4798 30.103 19.888 30.103C19.3008 30.103 18.7895 30.013 18.3539 29.8331C17.9206 29.6532 17.5821 29.3868 17.3382 29.0341C17.0968 28.679 16.9701 28.2398 16.9583 27.7166H18.4462C18.4628 27.9605 18.5326 28.1641 18.6557 28.3274C18.7812 28.4884 18.9481 28.6103 19.1564 28.6932C19.3671 28.7737 19.6051 28.8139 19.8702 28.8139C20.1306 28.8139 20.3567 28.776 20.5485 28.7003C20.7426 28.6245 20.8929 28.5192 20.9995 28.3842C21.106 28.2493 21.1593 28.0942 21.1593 27.919C21.1593 27.7557 21.1107 27.6184 21.0137 27.5071C20.919 27.3958 20.7793 27.3011 20.5946 27.223C20.4123 27.1449 20.1886 27.0739 19.9235 27.0099L19.1316 26.8111C18.5184 26.6619 18.0343 26.4287 17.6792 26.1115C17.324 25.7943 17.1477 25.367 17.15 24.8295C17.1477 24.3892 17.2649 24.0045 17.5016 23.6754C17.7407 23.3464 18.0686 23.0895 18.4853 22.9048C18.9019 22.7202 19.3754 22.6278 19.9057 22.6278C20.4455 22.6278 20.9166 22.7202 21.3191 22.9048C21.7239 23.0895 22.0388 23.3464 22.2637 23.6754C22.4886 24.0045 22.6046 24.3857 22.6117 24.8189H21.138ZM25.1871 22.7273L26.6538 25.206H26.7106L28.1843 22.7273H29.9208L27.7013 26.3636L29.9705 30H28.2021L26.7106 27.5178H26.6538L25.1623 30H23.4009L25.6772 26.3636L23.4435 22.7273H25.1871Z" fill="white"/>
</svg>
