<svg width="185" height="25" viewBox="0 0 185 25" fill="none" xmlns="http://www.w3.org/2000/svg">
    <g clip-path="url(#clip0_6038_10634)">
        <mask id="mask0_6038_10634" style="mask-type:luminance" maskUnits="userSpaceOnUse" x="0" y="0" width="25"
              height="25">
            <path d="M19.1971 0H5.18689C2.32225 0 0 2.38091 0 5.31792V19.6821C0 22.6191 2.32225 25 5.18689 25H19.1971C22.0618 25 24.384 22.6191 24.384 19.6821V5.31792C24.384 2.38091 22.0618 0 19.1971 0Z"
                  fill="white"/>
        </mask>
        <g mask="url(#mask0_6038_10634)">
            <path d="M0 0H24.384V25H0V0Z" fill="#6C23FF"/>
        </g>
        <path d="M20.3825 12.1336C20.3825 11.597 20.1746 11.0824 19.8046 10.703C19.4345 10.3236 18.9326 10.1105 18.4092 10.1105C17.8859 10.1105 17.384 10.3236 17.0139 10.703C16.6439 11.0824 16.436 11.597 16.436 12.1336V13.9876L9.53797 5.89514C9.08995 5.3684 8.49575 4.99444 7.83484 4.82327C7.17392 4.65211 6.47779 4.69189 5.83953 4.9373C5.20126 5.18272 4.65128 5.62207 4.26314 6.1966C3.87499 6.77114 3.66718 7.45347 3.66748 8.15237V18.4125C3.66731 18.9011 3.81302 19.378 4.08503 19.7792C4.35703 20.1804 4.74229 20.4866 5.18903 20.6567C5.63577 20.8268 6.1226 20.8526 6.58407 20.7307C7.04555 20.6087 7.45956 20.3449 7.77048 19.9746L10.9545 16.1813C11.0353 16.0859 11.0799 15.9638 11.08 15.8374C11.08 15.7111 11.0356 15.5889 10.9548 15.4935C10.8741 15.398 10.7624 15.3356 10.6404 15.3178C10.5183 15.3 10.3942 15.328 10.2906 15.3966L8.42166 16.6292C8.31505 16.6997 8.19184 16.7394 8.06506 16.7441C7.93827 16.7488 7.81261 16.7183 7.70132 16.6559C7.59004 16.5934 7.49725 16.5013 7.43277 16.3893C7.36829 16.2773 7.33449 16.1495 7.33495 16.0194L7.35187 11.0324C7.34915 10.8824 7.39203 10.7353 7.47457 10.6114C7.5571 10.4876 7.6752 10.3931 7.81247 10.3411C7.94974 10.2892 8.09938 10.2824 8.24062 10.3215C8.38185 10.3607 8.50769 10.444 8.60066 10.5599L16.6558 20.1307C16.9388 20.4694 17.3168 20.7103 17.7382 20.8207C18.1596 20.9311 18.604 20.9055 19.0107 20.7475C19.4174 20.5895 19.7667 20.3067 20.0109 19.9377C20.2552 19.5687 20.3825 19.1315 20.3755 18.6856C20.3755 18.622 20.3839 18.557 20.3839 18.492L20.3825 12.1336Z"
              fill="white"/>
        <path d="M8.06361 10.2988C8.1654 10.2988 8.26599 10.3214 8.35845 10.365C8.45091 10.4087 8.53305 10.4723 8.59921 10.5517L9.18837 11.2525C8.98823 11.0097 8.78244 10.7636 8.57102 10.5141L7.30249 9.069C6.4568 8.20195 4.94161 8.10079 4.08605 8.92449C3.91628 9.08765 3.77347 9.27798 3.66321 9.48807V18.4043C3.66304 18.8929 3.80875 19.3698 4.08075 19.771C4.35275 20.1722 4.73801 20.4784 5.18476 20.6485C5.6315 20.8186 6.11832 20.8444 6.5798 20.7224C7.04127 20.6005 7.45529 20.3367 7.76621 19.9664L10.9502 16.173C11.0311 16.0777 11.0756 15.9556 11.0757 15.8292C11.0757 15.7028 11.0313 15.5807 10.9505 15.4852C10.8698 15.3898 10.7581 15.3274 10.6361 15.3096C10.5141 15.2918 10.3899 15.3198 10.2864 15.3884L8.41739 16.621C8.31077 16.6915 8.18757 16.7312 8.06079 16.7359C7.934 16.7406 7.80834 16.7101 7.69705 16.6476C7.58576 16.5852 7.49298 16.4931 7.4285 16.3811C7.36401 16.2691 7.33022 16.1413 7.33068 16.0112L7.34759 11.0242C7.34721 10.9281 7.36552 10.8329 7.40148 10.7441C7.43743 10.6553 7.49029 10.5748 7.55697 10.5073C7.62365 10.4397 7.7028 10.3865 7.7898 10.3507C7.87679 10.3149 7.96988 10.2972 8.06361 10.2988Z"
              fill="url(#paint0_linear_6038_10634)"/>
        <mask id="mask1_6038_10634" style="mask-type:luminance" maskUnits="userSpaceOnUse" x="15" y="2" width="7"
              height="8">
            <path d="M18.8222 3.24199L19.3775 4.68707C19.4043 4.75732 19.4449 4.82116 19.4968 4.87462C19.5487 4.92807 19.6108 4.96999 19.6792 4.99777L21.0886 5.56569C21.189 5.60619 21.2751 5.67672 21.3357 5.76808C21.3964 5.85945 21.4289 5.96743 21.4289 6.07797C21.4289 6.18851 21.3964 6.29649 21.3357 6.38786C21.2751 6.47922 21.189 6.54975 21.0886 6.59025L19.6792 7.15817C19.6108 7.18595 19.5487 7.22787 19.4968 7.28132C19.4449 7.33478 19.4043 7.39862 19.3775 7.46887L18.8222 8.91395C18.783 9.01693 18.7144 9.10538 18.6254 9.16774C18.5364 9.23009 18.431 9.26346 18.3232 9.26346C18.2154 9.26346 18.1101 9.23009 18.0211 9.16774C17.9321 9.10538 17.8635 9.01693 17.8243 8.91395L17.2689 7.46887C17.2419 7.39857 17.201 7.33472 17.1489 7.28128C17.0967 7.22783 17.0345 7.18593 16.9659 7.15817L15.5564 6.59025C15.4561 6.54975 15.37 6.47922 15.3093 6.38786C15.2486 6.29649 15.2162 6.18851 15.2162 6.07797C15.2162 5.96743 15.2486 5.85945 15.3093 5.76808C15.37 5.67672 15.4561 5.60619 15.5564 5.56569L16.9659 4.99632C17.0343 4.96901 17.0965 4.92742 17.1484 4.87419C17.2003 4.82095 17.2409 4.75723 17.2675 4.68707L17.8229 3.24199C17.8618 3.13855 17.9304 3.04962 18.0196 2.98691C18.1088 2.92419 18.2144 2.89062 18.3225 2.89062C18.4307 2.89062 18.5363 2.92419 18.6255 2.98691C18.7147 3.04962 18.7832 3.13855 18.8222 3.24199Z"
                  fill="white"/>
        </mask>
        <g mask="url(#mask1_6038_10634)">
            <path d="M15.2223 2.89062H21.424V9.24901H15.2223V2.89062Z" fill="#FFC561"/>
        </g>
        <path d="M18.4092 10.1094C17.8858 10.1094 17.3839 10.3225 17.0139 10.7019C16.6438 11.0813 16.4359 11.5959 16.4359 12.1325V13.9764L18.9659 16.9071C19.3197 17.3175 19.8299 17.5891 20.3825 17.1845V12.1267C20.381 11.5912 20.1724 11.078 19.8025 10.6999C19.4326 10.3217 18.9316 10.1094 18.4092 10.1094Z"
              fill="url(#paint1_linear_6038_10634)"/>
        <path d="M109.316 16.1332H109.253L105.999 5.69531H101.89V20.3673H104.455V9.3745H104.519L107.876 20.3673H110.192L113.593 9.39618H113.655V20.3673H116.575V5.69531H112.529L109.316 16.1332Z"
              fill="#252525"/>
        <path d="M123.313 9.0938C122.048 9.09125 120.786 9.19468 119.538 9.40304V11.6603C120.243 11.4464 121.207 11.1733 122.27 11.1733C124.043 11.1733 124.628 11.6386 124.628 13.0071V13.7556L122.25 14.0562C120.06 14.377 118.64 15.3178 118.64 17.4132C118.64 19.5519 120.038 20.5577 122.023 20.5577C123.379 20.5577 124.296 20.1082 124.776 19.4666H124.901C124.92 19.7112 125.027 19.9396 125.203 20.1063C125.379 20.2729 125.609 20.3655 125.848 20.3655H127.342V12.4305C127.34 10.0345 125.858 9.0938 123.313 9.0938ZM124.628 18.0533C124.294 18.3958 123.561 18.5851 122.876 18.653C121.889 18.7499 121.043 18.2195 121.043 17.1978C121.043 16.1762 121.827 15.786 122.849 15.6791L124.622 15.4869L124.628 18.0533Z"
              fill="#252525"/>
        <path d="M133.743 9.0938C132.479 9.09125 131.216 9.19468 129.968 9.40304V11.6603C130.673 11.4464 131.637 11.1733 132.7 11.1733C134.473 11.1733 135.058 11.6386 135.058 13.0071V13.7556L132.68 14.0562C130.49 14.377 129.07 15.3178 129.07 17.4132C129.07 19.5519 130.469 20.5577 132.453 20.5577C133.809 20.5577 134.727 20.1082 135.206 19.4666H135.331C135.35 19.7112 135.458 19.9396 135.633 20.1063C135.809 20.2729 136.039 20.3655 136.279 20.3655H137.773V12.4305C137.77 10.0345 136.288 9.0938 133.743 9.0938ZM135.058 18.0533C134.724 18.3958 133.991 18.5851 133.306 18.653C132.319 18.7499 131.474 18.2195 131.474 17.1978C131.474 16.1762 132.257 15.786 133.279 15.6791L135.052 15.4869L135.058 18.0533Z"
              fill="#252525"/>
        <path d="M145.697 11.6849L144.445 11.3424C143.089 10.9783 142.63 10.5303 142.63 9.50285C142.63 8.39157 143.423 7.79186 144.885 7.79186C146.49 7.79186 147.659 8.19793 148.618 8.54042V6.25285C147.784 5.81932 146.699 5.46094 144.696 5.46094C141.4 5.46094 139.794 7.19504 139.794 9.71672C139.794 12.4335 141.109 13.4595 143.176 14.0159L144.47 14.3583C145.993 14.7644 146.472 15.1922 146.472 16.3468C146.472 17.5014 145.68 18.2716 143.864 18.2716C142.449 18.2654 141.05 17.9599 139.756 17.3742V19.7052C140.756 20.2398 142.217 20.6026 144.136 20.6026C147.66 20.6026 149.392 18.8916 149.392 16.026C149.388 13.3106 148.032 12.3265 145.697 11.6849Z"
              fill="#252525"/>
        <path d="M73.7581 17.7262H78.8322V15.9068H73.7581V15.0325H79.5905V13.0571H73.7581V12.375H71.5029V13.0571H68.2315C68.2766 12.9053 68.3344 12.6785 68.402 12.375H66.1342C65.8523 13.507 65.2838 14.626 64.4287 15.7319H66.9531C67.0884 15.545 67.2416 15.3119 67.4126 15.0325H71.5001V15.9068H65.7762V17.7262H71.5226V18.81H64.6331V20.7724H79.9823V18.81H73.7581V17.7262Z"
              fill="#252525"/>
        <path d="M78.4643 5.17188H66.1511V12.0606H78.4643V5.17188ZM76.2641 10.2297H68.3513V9.40742H76.2641V10.2297ZM76.2641 7.85106H68.3513V7.01147H76.2641V7.85106Z"
              fill="#252525"/>
        <path d="M97.2077 14.8228H95.0075L94.0209 16.6061C93.5084 15.7497 93.0472 14.8622 92.6396 13.9486H97.126V11.8503H84.7578V7.46157H96.6961V5.25781H82.5688V12.2708C82.5806 13.776 82.4897 15.2801 82.2968 16.7723C82.0999 18.1482 81.78 19.5026 81.3412 20.8185H83.7965C84.3597 18.5719 84.669 16.2662 84.7183 13.9471H86.4407V20.8185H90.5169V18.583H88.6296V13.9486H90.2322C91.3076 16.3961 92.6647 18.703 94.2746 20.8199H96.9695C96.0299 19.6205 95.2565 18.5483 94.6495 17.6032H95.677L97.2077 14.8228Z"
              fill="#252525"/>
        <path d="M95.8954 8.58594H85.9008V10.6669H95.8954V8.58594Z" fill="#252525"/>
        <path d="M166.086 12.3224L167.16 8.40625H164.892L163.817 12.3224H166.086Z" fill="#252525"/>
        <path d="M161.789 7.58512H168.167V5.38281H153.192V7.58512H159.572V13.1111H152.834V15.3134H159.572V20.8221H161.789V15.3134H168.525V13.1111H161.789V7.58512Z"
              fill="#252525"/>
        <path d="M156.466 8.40625H154.199L155.273 12.3224H157.542L156.466 8.40625Z" fill="#252525"/>
        <path d="M182.783 7.27235H180.054L181.162 9.49201H175.09L178.058 5.08594H175.159L172.191 9.49201H170.691V11.7304H185L182.783 7.27235Z"
              fill="#252525"/>
        <path d="M171.373 20.5791H184.095V13.1484H171.373V20.5791ZM173.607 15.3507H181.861V18.3941H173.607V15.3507Z"
              fill="#252525"/>
        <path d="M44.9469 5.00781H35.6119V7.1003H37.3258V11.7101H35.5118V13.7939H37.3258V20.7694L39.6754 20.765V13.7939H40.975L41.9236 11.7101H39.6754V7.1003H42.5719L42.5945 20.6812L45.2443 20.6639L46.1619 18.661L44.9469 18.6523V5.00781Z"
              fill="#252525"/>
        <path d="M33.9628 5.07812H30.5801V7.10125H33.9628V5.07812Z" fill="#252525"/>
        <path d="M33.946 10.2422H30.2982V12.326H31.5963V20.6584L34.3956 20.6497L35.2864 18.6179L33.9629 18.6092L33.946 10.2422Z"
              fill="#252525"/>
        <path d="M54.9641 4.96094H47.6108V7.0014L52.0648 7.01007L48.5425 20.6445L61.6098 20.6531L62.7092 18.6806H51.4334L54.9641 4.96094Z"
              fill="#252525"/>
        <path d="M58.8543 16.7576H62.3357L57.9818 12.0625H54.4976L58.8543 16.7576Z" fill="#252525"/>
        <path d="M57.4815 10.3769L62.7022 5.30469H59.5281L53.8154 10.3856L57.4815 10.3769Z" fill="#252525"/>
    </g>
    <defs>
        <linearGradient id="paint0_linear_6038_10634" x1="6.53996" y1="20.8334" x2="7.87858" y2="8.35192"
                        gradientUnits="userSpaceOnUse">
            <stop stop-color="white"/>
            <stop offset="1" stop-color="#D1CCF2"/>
        </linearGradient>
        <linearGradient id="paint1_linear_6038_10634" x1="18.4092" y1="10.1094" x2="18.4092" y2="17.3839"
                        gradientUnits="userSpaceOnUse">
            <stop stop-color="white"/>
            <stop offset="1" stop-color="#D1CCF2"/>
        </linearGradient>
        <clipPath id="clip0_6038_10634">
            <rect width="185" height="25" fill="white"/>
        </clipPath>
    </defs>
</svg>
