<svg width="44" height="40" viewBox="0 0 44 40" fill="none" xmlns="http://www.w3.org/2000/svg">
    <path d="M11.75 4C11.75 2.20508 13.2051 0.75 15 0.75H31C31.1212 0.75 31.2375 0.798159 31.3232 0.883885L42.1161 11.6768C42.2018 11.7625 42.25 11.8788 42.25 12V36C42.25 37.7949 40.7949 39.25 39 39.25H15C13.2051 39.25 11.75 37.7949 11.75 36V4Z" fill="white" stroke="#D0D5DD" stroke-width="1.5"/>
    <path d="M31 0.5V8C31 10.2091 32.7909 12 35 12H42.5" stroke="#D0D5DD" stroke-width="1.5"/>
    <rect x="0.5" y="18" width="35" height="16" rx="2" fill="#444CE7"/>
    <path d="M3.80167 22.7273H5.52397L7.18235 25.8594H7.25337L8.91175 22.7273H10.6341L7.98136 27.429V30H6.45437V27.429L3.80167 22.7273ZM11.9853 30H10.3375L12.8482 22.7273H14.8297L17.3368 30H15.6891L13.8674 24.3892H13.8105L11.9853 30ZM11.8823 27.1413H15.7743V28.3416H11.8823V27.1413ZM18.2122 22.7273H20.1085L22.1113 27.6136H22.1966L24.1994 22.7273H26.0957V30H24.6042V25.2663H24.5439L22.6618 29.9645H21.6461L19.764 25.2486H19.7037V30H18.2122V22.7273ZM27.3626 30V22.7273H28.9002V28.7322H32.0181V30H27.3626Z" fill="white"/>
</svg>
