<svg width="41" height="40" viewBox="0 0 41 40" fill="none" xmlns="http://www.w3.org/2000/svg">
    <path d="M8.75 4C8.75 2.20508 10.2051 0.75 12 0.75H28C28.1212 0.75 28.2375 0.798159 28.3232 0.883885L39.1161 11.6768C39.2018 11.7625 39.25 11.8788 39.25 12V36C39.25 37.7949 37.7949 39.25 36 39.25H12C10.2051 39.25 8.75 37.7949 8.75 36V4Z" fill="white" stroke="#D0D5DD" stroke-width="1.5"/>
    <path d="M28 0.5V8C28 10.2091 29.7909 12 32 12H39.5" stroke="#D0D5DD" stroke-width="1.5"/>
    <rect x="0.5" y="18" width="29" height="16" rx="2" fill="#444CE7"/>
    <path d="M4.17081 22.7273H5.89311L7.55149 25.8594H7.62251L9.28089 22.7273H11.0032L8.3505 27.429V30H6.82351V27.429L4.17081 22.7273ZM11.843 22.7273H13.7393L15.7422 27.6136H15.8274L17.8303 22.7273H19.7266V30H18.2351V25.2663H18.1747L16.2926 29.9645H15.277L13.3949 25.2486H13.3345V30H11.843V22.7273ZM20.9934 30V22.7273H22.5311V28.7322H25.649V30H20.9934Z" fill="white"/>
</svg>
