<svg width="40" height="40" viewBox="0 0 40 40" fill="none" xmlns="http://www.w3.org/2000/svg">
    <path d="M7.75 4C7.75 2.20508 9.20508 0.75 11 0.75H27C27.1212 0.75 27.2375 0.798159 27.3232 0.883885L38.1161 11.6768C38.2018 11.7625 38.25 11.8788 38.25 12V36C38.25 37.7949 36.7949 39.25 35 39.25H11C9.20507 39.25 7.75 37.7949 7.75 36V4Z" fill="white" stroke="#D0D5DD" stroke-width="1.5"/>
    <path d="M27 0.5V8C27 10.2091 28.7909 12 31 12H38.5" stroke="#D0D5DD" stroke-width="1.5"/>
    <rect x="3" y="18" width="22" height="16" rx="2" fill="#BA24D5"/>
    <path d="M6.58034 30V29.0874L10.2096 23.995H6.57324V22.7273H12.1414V23.6399L8.50861 28.7322H12.1485V30H6.58034ZM14.866 22.7273V30H13.3284V22.7273H14.866ZM16.1311 30V22.7273H19.0004C19.5521 22.7273 20.022 22.8326 20.4102 23.0433C20.7985 23.2517 21.0944 23.5417 21.298 23.9134C21.504 24.2827 21.607 24.7088 21.607 25.1918C21.607 25.6747 21.5028 26.1009 21.2945 26.4702C21.0861 26.8395 20.7843 27.1271 20.3889 27.3331C19.9959 27.5391 19.5201 27.642 18.9614 27.642H17.1325V26.4098H18.7128C19.0087 26.4098 19.2526 26.3589 19.4443 26.2571C19.6385 26.1529 19.7829 26.0097 19.8776 25.8274C19.9746 25.6428 20.0232 25.4309 20.0232 25.1918C20.0232 24.9503 19.9746 24.7396 19.8776 24.5597C19.7829 24.3774 19.6385 24.2365 19.4443 24.1371C19.2502 24.0353 19.004 23.9844 18.7057 23.9844H17.6688V30H16.1311Z" fill="white"/>
</svg>
