<?xml version="1.0" encoding="utf-8" ?>
<svg xmlns="http://www.w3.org/2000/svg" xmlns:xlink="http://www.w3.org/1999/xlink" width="16" height="16" viewBox="0 0 16 16">
    <defs>
        <clipPath id="clipPath1513773741">
            <path d="M0 0L16 0L16 16L0 16L0 0Z" fill-rule="nonzero" transform="matrix(1 0 0 1 0 0)"/>
        </clipPath>
    </defs>
    <g clip-path="url(#clipPath1513773741)">
        <path d="M13.625 15L13 15L13 0.75C13 0.335781 12.6642 0 12.25 0L1.75 0C1.33578 0 1 0.335781 1 0.75L1 15L0.375 15C0.167906 15 0 15.1679 0 15.375L0 16L14 16L14 15.375C14 15.1679 13.8321 15 13.625 15ZM4 2.375C4 2.16791 4.16791 2 4.375 2L5.625 2C5.83209 2 6 2.16791 6 2.375L6 3.625C6 3.83209 5.83209 4 5.625 4L4.375 4C4.16791 4 4 3.83209 4 3.625L4 2.375ZM4 5.375C4 5.16791 4.16791 5 4.375 5L5.625 5C5.83209 5 6 5.16791 6 5.375L6 6.625C6 6.83209 5.83209 7 5.625 7L4.375 7C4.16791 7 4 6.83209 4 6.625L4 5.375ZM5.625 10L4.375 10C4.16791 10 4 9.83209 4 9.625L4 8.375C4 8.16791 4.16791 8 4.375 8L5.625 8C5.83209 8 6 8.16791 6 8.375L6 9.625C6 9.83209 5.83209 10 5.625 10ZM8 15L6 15L6 12.375C6 12.1679 6.16791 12 6.375 12L7.625 12C7.83209 12 8 12.1679 8 12.375L8 15ZM10 9.625C10 9.83209 9.83209 10 9.625 10L8.375 10C8.16791 10 8 9.83209 8 9.625L8 8.375C8 8.16791 8.16791 8 8.375 8L9.625 8C9.83209 8 10 8.16791 10 8.375L10 9.625ZM10 6.625C10 6.83209 9.83209 7 9.625 7L8.375 7C8.16791 7 8 6.83209 8 6.625L8 5.375C8 5.16791 8.16791 5 8.375 5L9.625 5C9.83209 5 10 5.16791 10 5.375L10 6.625ZM10 3.625C10 3.83209 9.83209 4 9.625 4L8.375 4C8.16791 4 8 3.83209 8 3.625L8 2.375C8 2.16791 8.16791 2 8.375 2L9.625 2C9.83209 2 10 2.16791 10 2.375L10 3.625Z" fill-rule="nonzero" transform="matrix(1 0 0 1 1 0)" fill="rgb(42, 95, 234)"/>
    </g>
</svg>
