<?xml version="1.0" encoding="utf-8" ?>
<svg xmlns="http://www.w3.org/2000/svg" xmlns:xlink="http://www.w3.org/1999/xlink" width="16" height="12.8" viewBox="0 0 16 12.8">
    <defs>
        <clipPath id="clipPath1053757189">
            <path d="M0 0L16 0L16 12.8L0 12.8L0 0Z" fill-rule="nonzero" transform="matrix(1 0 0 1 0 0)"/>
        </clipPath>
    </defs>
    <g clip-path="url(#clipPath1053757189)">
        <path d="M3.2 8.8L0.8 8.8C0.35825 8.8 0 9.15825 0 9.6L0 12C0 12.4418 0.35825 12.8 0.8 12.8L3.2 12.8C3.64175 12.8 4 12.4418 4 12L4 9.6C4 9.15825 3.64175 8.8 3.2 8.8ZM2.6 6.8L7.4 6.8L7.4 8L8.6 8L8.6 6.8L13.4 6.8L13.4 8L14.6 8L14.6 6.56025C14.6 6.031 14.1693 5.6 13.6398 5.6L8.6 5.6L8.6 4L9.6 4C10.0418 4 10.4 3.64175 10.4 3.2L10.4 0.8C10.4 0.35825 10.0418 0 9.6 0L6.4 0C5.95825 0 5.6 0.35825 5.6 0.8L5.6 3.2C5.6 3.64175 5.95825 4 6.4 4L7.4 4L7.4 5.6L2.36025 5.6C1.83075 5.6 1.4 6.03075 1.4 6.56025L1.4 8L2.6 8L2.6 6.8ZM9.2 8.8L6.8 8.8C6.35825 8.8 6 9.15825 6 9.6L6 12C6 12.4418 6.35825 12.8 6.8 12.8L9.2 12.8C9.64175 12.8 10 12.4418 10 12L10 9.6C10 9.15825 9.64175 8.8 9.2 8.8ZM15.2 8.8L12.8 8.8C12.3582 8.8 12 9.15825 12 9.6L12 12C12 12.4418 12.3582 12.8 12.8 12.8L15.2 12.8C15.6417 12.8 16 12.4418 16 12L16 9.6C16 9.15825 15.6417 8.8 15.2 8.8Z" fill-rule="nonzero" transform="matrix(1 0 0 1 0 0)" fill="rgb(24, 173, 106)"/>
    </g>
</svg>
