<?xml version="1.0" encoding="utf-8" ?>
<svg xmlns="http://www.w3.org/2000/svg" xmlns:xlink="http://www.w3.org/1999/xlink" width="16" height="16" viewBox="0 0 16 16">
    <defs>
        <clipPath id="clipPath5009331212">
            <path d="M0 0L16 0L16 16L0 16L0 0Z" fill-rule="nonzero" transform="matrix(1 0 0 1 0 0)"/>
        </clipPath>
    </defs>
    <g clip-path="url(#clipPath5009331212)">
        <path d="M7 8C9.20938 8 11 6.20937 11 4C11 1.79063 9.20938 0 7 0C4.79062 0 3 1.79063 3 4C3 6.20937 4.79063 8 7 8ZM9.8 9L9.27812 9C8.58437 9.31875 7.8125 9.5 7 9.5C6.1875 9.5 5.41875 9.31875 4.72188 9L4.2 9C1.88125 9 0 10.8813 0 13.2L0 14.5C0 15.3281 0.671875 16 1.5 16L12.5 16C13.3281 16 14 15.3281 14 14.5L14 13.2C14 10.8813 12.1187 9 9.8 9Z" fill-rule="nonzero" transform="matrix(1 0 0 1 1 0)" fill="rgb(24, 144, 255)"/>
    </g>
</svg>
