<svg width="40" height="40" viewBox="0 0 40 40" fill="none" xmlns="http://www.w3.org/2000/svg">
    <path d="M7.75 4C7.75 2.20508 9.20508 0.75 11 0.75H27C27.1212 0.75 27.2375 0.798159 27.3232 0.883885L38.1161 11.6768C38.2018 11.7625 38.25 11.8788 38.25 12V36C38.25 37.7949 36.7949 39.25 35 39.25H11C9.20507 39.25 7.75 37.7949 7.75 36V4Z" fill="white" stroke="#D0D5DD" stroke-width="1.5"/>
    <path d="M27 0.5V8C27 10.2091 28.7909 12 31 12H38.5" stroke="#D0D5DD" stroke-width="1.5"/>
    <rect x="2" y="18" width="27" height="16" rx="2" fill="#155EEF"/>
    <path d="M8.44078 30.0994C7.91048 30.0994 7.43818 30.0083 7.02388 29.826C6.61195 29.6413 6.28643 29.388 6.04732 29.0661C5.81058 28.7417 5.68865 28.3677 5.68155 27.9439H7.22985C7.23932 28.1214 7.29732 28.2777 7.40385 28.4126C7.51275 28.5452 7.65717 28.6482 7.83709 28.7216C8.01702 28.795 8.21943 28.8317 8.44434 28.8317C8.67871 28.8317 8.88586 28.7902 9.06578 28.7074C9.24571 28.6245 9.38657 28.5097 9.48837 28.3629C9.59017 28.2161 9.64107 28.0469 9.64107 27.8551C9.64107 27.661 9.58662 27.4893 9.47772 27.3402C9.37118 27.1887 9.2173 27.0703 9.01607 26.9851C8.81721 26.8999 8.58046 26.8572 8.30584 26.8572H7.62757V25.728H8.30584C8.53785 25.728 8.74263 25.6877 8.92019 25.6072C9.10011 25.5268 9.23979 25.4155 9.33922 25.2734C9.43865 25.129 9.48837 24.9609 9.48837 24.7692C9.48837 24.5869 9.44457 24.4271 9.35698 24.2898C9.27175 24.1501 9.15101 24.0412 8.99476 23.9631C8.84088 23.8849 8.66096 23.8459 8.45499 23.8459C8.24666 23.8459 8.05608 23.8838 7.88326 23.9595C7.71043 24.0329 7.57194 24.1383 7.46777 24.2756C7.36361 24.4129 7.30797 24.5739 7.30087 24.7585H5.82715C5.83425 24.3395 5.95381 23.9702 6.18581 23.6506C6.41782 23.331 6.73032 23.0812 7.12331 22.9013C7.51867 22.719 7.96493 22.6278 8.46209 22.6278C8.96399 22.6278 9.40314 22.719 9.77956 22.9013C10.156 23.0836 10.4484 23.3298 10.6567 23.6399C10.8674 23.9477 10.9716 24.2933 10.9692 24.6768C10.9716 25.084 10.8449 25.4238 10.5892 25.696C10.3359 25.9683 10.0057 26.1411 9.59846 26.2145V26.2713C10.1335 26.34 10.5407 26.5258 10.82 26.8288C11.1018 27.1295 11.2414 27.5059 11.2391 27.9581C11.2414 28.3724 11.1219 28.7405 10.8804 29.0625C10.6413 29.3845 10.3111 29.6378 9.88965 29.8224C9.46825 30.0071 8.98529 30.0994 8.44078 30.0994ZM17.2094 25.0781C17.1597 24.9053 17.0899 24.7526 16.9999 24.62C16.9099 24.4851 16.7999 24.3714 16.6697 24.2791C16.5418 24.1844 16.395 24.1122 16.2293 24.0625C16.066 24.0128 15.8849 23.9879 15.686 23.9879C15.3143 23.9879 14.9876 24.0803 14.7059 24.2649C14.4265 24.4496 14.2087 24.7183 14.0525 25.071C13.8962 25.4214 13.8181 25.8499 13.8181 26.3565C13.8181 26.8632 13.895 27.294 14.0489 27.6491C14.2028 28.0043 14.4206 28.2753 14.7023 28.4624C14.984 28.647 15.3167 28.7393 15.7002 28.7393C16.0482 28.7393 16.3453 28.6778 16.5915 28.5547C16.8401 28.4292 17.0295 28.2528 17.1597 28.0256C17.2923 27.7983 17.3586 27.5296 17.3586 27.2195L17.6711 27.2656H15.7961V26.108H18.8394V27.0241C18.8394 27.6634 18.7045 28.2126 18.4346 28.6719C18.1647 29.1288 17.793 29.4815 17.3195 29.7301C16.846 29.9763 16.3039 30.0994 15.6931 30.0994C15.0113 30.0994 14.4123 29.9491 13.8962 29.6484C13.3801 29.3454 12.9777 28.9157 12.6888 28.3594C12.4024 27.8007 12.2591 27.1378 12.2591 26.3707C12.2591 25.7812 12.3444 25.2557 12.5148 24.794C12.6876 24.33 12.9291 23.937 13.2393 23.6151C13.5494 23.2931 13.9104 23.0481 14.3224 22.88C14.7343 22.7119 15.1805 22.6278 15.6611 22.6278C16.0731 22.6278 16.4566 22.6882 16.8117 22.8089C17.1668 22.9273 17.4817 23.0954 17.7563 23.3132C18.0333 23.531 18.2594 23.7902 18.4346 24.0909C18.6098 24.3892 18.7222 24.7183 18.7719 25.0781H17.2094ZM19.9944 30V22.7273H22.8637C23.4153 22.7273 23.8853 22.8326 24.2735 23.0433C24.6618 23.2517 24.9577 23.5417 25.1613 23.9134C25.3673 24.2827 25.4703 24.7088 25.4703 25.1918C25.4703 25.6747 25.3661 26.1009 25.1578 26.4702C24.9494 26.8395 24.6476 27.1271 24.2522 27.3331C23.8592 27.5391 23.3834 27.642 22.8247 27.642H20.9958V26.4098H22.5761C22.872 26.4098 23.1159 26.3589 23.3076 26.2571C23.5017 26.1529 23.6462 26.0097 23.7409 25.8274C23.8379 25.6428 23.8865 25.4309 23.8865 25.1918C23.8865 24.9503 23.8379 24.7396 23.7409 24.5597C23.6462 24.3774 23.5017 24.2365 23.3076 24.1371C23.1135 24.0353 22.8673 23.9844 22.569 23.9844H21.532V30H19.9944Z" fill="white"/>
</svg>
