<svg t="1729060788556" class="icon" viewBox="0 0 1024 1024" version="1.1" xmlns="http://www.w3.org/2000/svg"
     p-id="18834" width="200" height="200">
    <path d="M493.540068 659.221016l0 52.66343c0 11.452843 9.509585 20.717857 20.717857 20.717857 11.225669 0 20.48966-9.265014 20.48966-20.717857l0-52.66343 52.645011 0c11.470239 0 20.979824-9.508561 20.979824-20.716834 0-11.192923-9.509585-20.718881-20.979824-20.718881l-52.645011 0 0-52.432163c0-11.470239-9.265014-20.948101-20.48966-20.948101-11.208273 0-20.717857 9.477862-20.717857 20.948101l0 52.432163-52.662407 0c-11.209296 0-20.718881 9.525957-20.718881 20.718881 0 11.208273 9.509585 20.716834 20.718881 20.716834L493.540068 659.221016 493.540068 659.221016zM926.2717 384.474558 926.2717 384.474558l-25.831318 0 0-84.850503c0-19.264762-15.359826-34.117029-34.133402-34.117029L564.959677 265.507026 446.008518 137.260154c-6.355755-8.284687-15.865339-12.663414-26.322505-12.663414L162.225243 124.596739c-19.035542 0-34.117029 15.343453-34.117029 34.590819l0 225.288023-26.127054 0-4.116761 0.245593c-19.018146 2.173502-32.18912 19.24839-30.244838 38.266535l55.129598 438.811094c0.947582 10.244318 7.042393 20.244067 16.078187 25.604144 5.849218 5.865591 14.133905 9.509585 23.397896 9.509585l704.080713 0c9.248641 0 17.547655-3.643993 23.397896-9.738805 8.546653-5.130857 14.394848-13.660114 16.095583-24.378224l54.605665-438.337303c0.24457-1.944282 0.490164-3.659343 0.490164-5.604648C960.895265 400.078954 945.290869 384.474558 926.2717 384.474558L926.2717 384.474558zM196.865181 192.829773 196.865181 192.829773l207.689203 0 120.453373 130.193201c6.797823 7.30436 15.817244 10.734482 25.343201 10.734482l281.332457 0 0 50.718125-634.818233 0L196.865181 192.829773 196.865181 192.829773zM840.964802 824.021409 840.964802 824.021409 187.567421 824.021409l-46.795792-370.806257 746.987942 0L840.964802 824.021409 840.964802 824.021409zM514.257925 791.620465 514.257925 791.620465c84.132142 0 153.117306-68.755943 153.117306-153.116283 0-84.11577-69.24713-153.117306-153.117306-153.117306-84.327594 0-153.083537 69.001537-153.083537 153.117306C361.174388 722.617905 430.142156 791.620465 514.257925 791.620465L514.257925 791.620465zM514.257925 526.350846 514.257925 526.350846c61.436234 0 112.153336 50.718125 112.153336 112.154359 0 61.664432-50.717102 112.136963-112.153336 112.136963-61.926398 0-111.663172-50.472532-111.663172-112.136963C402.594753 577.067948 452.593494 526.350846 514.257925 526.350846L514.257925 526.350846z"
          fill="#717071" p-id="18835"></path>
</svg>
