<svg width="20" height="20" viewBox="0 0 20 20" fill="none" xmlns="http://www.w3.org/2000/svg">
    <path d="M10.8332 5.83333L9.90361 3.9741C9.63607 3.439 9.50229 3.17144 9.30271 2.97597C9.12621 2.80311 8.9135 2.67164 8.67996 2.59109C8.41587 2.5 8.11674 2.5 7.51847 2.5H4.33323C3.39981 2.5 2.9331 2.5 2.57658 2.68166C2.26298 2.84144 2.00801 3.09641 1.84822 3.41002C1.66656 3.76654 1.66656 4.23325 1.66656 5.16667V5.83333M1.66656 5.83333H14.3332C15.7334 5.83333 16.4334 5.83333 16.9682 6.10582C17.4386 6.3455 17.8211 6.72795 18.0607 7.19836C18.3332 7.73314 18.3332 8.4332 18.3332 9.83333V13.5C18.3332 14.9001 18.3332 15.6002 18.0607 16.135C17.8211 16.6054 17.4386 16.9878 16.9682 17.2275C16.4334 17.5 15.7334 17.5 14.3332 17.5H5.66657C4.26643 17.5 3.56637 17.5 3.03159 17.2275C2.56118 16.9878 2.17873 16.6054 1.93905 16.135C1.66656 15.6002 1.66656 14.9001 1.66656 13.5V5.83333ZM9.9999 14.1667V9.16667M7.4999 11.6667H12.4999"
          stroke="#667085" stroke-linecap="round" stroke-linejoin="round"/>
</svg>
