<svg width="20" height="20" viewBox="0 0 20 20" fill="none" xmlns="http://www.w3.org/2000/svg">
    <path d="M12.4997 1.66699H4.99967C4.55765 1.66699 4.13372 1.84259 3.82116 2.15515C3.5086 2.46771 3.33301 2.89163 3.33301 3.33366V16.667C3.33301 17.109 3.5086 17.5329 3.82116 17.8455C4.13372 18.1581 4.55765 18.3337 4.99967 18.3337H14.9997C15.4417 18.3337 15.8656 18.1581 16.1782 17.8455C16.4907 17.5329 16.6663 17.109 16.6663 16.667V5.83366L12.4997 1.66699Z" stroke="#667085" stroke-linecap="round" stroke-linejoin="round"/>
    <path d="M11.6667 1.66699V5.00033C11.6667 5.44235 11.8423 5.86628 12.1548 6.17884C12.4674 6.4914 12.8913 6.66699 13.3333 6.66699H16.6667M10 10.0003V15.0003M10 10.0003L12.5 12.5003M10 10.0003L7.5 12.5003" stroke="#667085" stroke-linecap="round" stroke-linejoin="round"/>
</svg>
