<svg width="14" height="14" viewBox="0 0 14 14" fill="none" xmlns="http://www.w3.org/2000/svg">
    <path d="M6.99984 1.16699C8.45892 2.76436 9.28811 4.83735 9.33317 7.00033C9.28811 9.16331 8.45892 11.2363 6.99984 12.8337M6.99984 1.16699C5.54076 2.76436 4.71156 4.83735 4.6665 7.00033C4.71156 9.16331 5.54076 11.2363 6.99984 12.8337M6.99984 1.16699C3.77818 1.16699 1.1665 3.77866 1.1665 7.00033C1.1665 10.222 3.77818 12.8337 6.99984 12.8337M6.99984 1.16699C10.2215 1.16699 12.8332 3.77866 12.8332 7.00033C12.8332 10.222 10.2215 12.8337 6.99984 12.8337M1.45818 5.25033H12.5415M1.45817 8.75033H12.5415" stroke="#667085" stroke-linecap="round" stroke-linejoin="round"/>
</svg>
