<svg width="20" height="20" viewBox="0 0 20 20" fill="none" xmlns="http://www.w3.org/2000/svg">
    <path d="M11.667 16.6663H2.91699C2.58547 16.6663 2.26753 16.5346 2.03311 16.3002C1.79869 16.0658 1.66699 15.7479 1.66699 15.4163V4.58301C1.66699 4.25149 1.79869 3.93354 2.03311 3.69912C2.26753 3.4647 2.58547 3.33301 2.91699 3.33301H17.0837C17.4152 3.33301 17.7331 3.4647 17.9675 3.69912C18.202 3.93354 18.3337 4.25149 18.3337 4.58301V9.60759M16.2503 17.083V12.083M16.2503 12.083L14.167 14.1663M16.2503 12.083L18.3337 14.1663"
          stroke="#667085" stroke-linecap="round" stroke-linejoin="round"/>
    <path d="M1.66699 4.58301C1.66699 4.25149 1.79869 3.93354 2.03311 3.69912C2.26753 3.4647 2.58547 3.33301 2.91699 3.33301H17.0837C17.4152 3.33301 17.7331 3.4647 17.9675 3.69912C18.202 3.93354 18.3337 4.25149 18.3337 4.58301V8.33301H1.66699V4.58301Z"
          stroke="#667085"/>
    <path d="M3.33333 5.83268C3.33333 5.37244 3.70643 4.99935 4.16667 4.99935C4.6269 4.99935 5 5.37244 5 5.83268C5 6.29292 4.6269 6.66602 4.16667 6.66602C3.70643 6.66602 3.33333 6.29292 3.33333 5.83268Z"
          fill="#667085"/>
    <path d="M5.83333 5.83268C5.83333 5.37244 6.20643 4.99935 6.66667 4.99935C7.1269 4.99935 7.5 5.37244 7.5 5.83268C7.5 6.29292 7.1269 6.66602 6.66667 6.66602C6.20643 6.66602 5.83333 6.29292 5.83333 5.83268Z"
          fill="#667085"/>
</svg>
