<svg width="40" height="40" viewBox="0 0 40 40" fill="none" xmlns="http://www.w3.org/2000/svg">
    <path d="M7.75 4C7.75 2.20508 9.20508 0.75 11 0.75H27C27.1212 0.75 27.2375 0.798159 27.3232 0.883885L38.1161 11.6768C38.2018 11.7625 38.25 11.8788 38.25 12V36C38.25 37.7949 36.7949 39.25 35 39.25H11C9.20507 39.25 7.75 37.7949 7.75 36V4Z" fill="white" stroke="#D0D5DD" stroke-width="1.5"/>
    <path d="M27 0.5V8C27 10.2091 28.7909 12 31 12H38.5" stroke="#D0D5DD" stroke-width="1.5"/>
    <rect x="2.5" y="18" width="23" height="16" rx="2" fill="#0E9384"/>
    <path d="M7.81925 30H6.17152L8.68217 22.7273H10.6637L13.1708 30H11.5231L9.70135 24.3892H9.64453L7.81925 30ZM7.71626 27.1413H11.6083V28.3416H7.71626V27.1413ZM15.5838 22.7273V30H14.0462V22.7273H15.5838ZM16.8489 30V22.7273H21.6642V23.995H18.3865V25.728H21.3446V26.9957H18.3865V30H16.8489Z" fill="white"/>
</svg>
