<svg width="40" height="40" viewBox="0 0 40 40" fill="none" xmlns="http://www.w3.org/2000/svg">
    <path d="M7.75 4C7.75 2.20508 9.20508 0.75 11 0.75H27C27.1212 0.75 27.2375 0.798159 27.3232 0.883885L38.1161 11.6768C38.2018 11.7625 38.25 11.8788 38.25 12V36C38.25 37.7949 36.7949 39.25 35 39.25H11C9.20507 39.25 7.75 37.7949 7.75 36V4Z" fill="white" stroke="#D0D5DD" stroke-width="1.5"/>
    <path d="M27 0.5V8C27 10.2091 28.7909 12 31 12H38.5" stroke="#D0D5DD" stroke-width="1.5"/>
    <rect x="0.5" y="18" width="27" height="16" rx="2" fill="#B3B8DB"/>
    <path d="M5.46085 30H3.81312L6.32377 22.7273H8.30531L10.8124 30H9.16468L7.34295 24.3892H7.28613L5.46085 30ZM5.35787 27.1413H9.24991V28.3416H5.35787V27.1413ZM11.6878 30V22.7273H14.5571C15.1087 22.7273 15.5786 22.8326 15.9669 23.0433C16.3551 23.2517 16.6511 23.5417 16.8547 23.9134C17.0606 24.2827 17.1636 24.7088 17.1636 25.1918C17.1636 25.6747 17.0595 26.1009 16.8511 26.4702C16.6428 26.8395 16.3409 27.1271 15.9456 27.3331C15.5526 27.5391 15.0767 27.642 14.518 27.642H12.6892V26.4098H14.2694C14.5654 26.4098 14.8092 26.3589 15.001 26.2571C15.1951 26.1529 15.3395 26.0097 15.4342 25.8274C15.5313 25.6428 15.5798 25.4309 15.5798 25.1918C15.5798 24.9503 15.5313 24.7396 15.4342 24.5597C15.3395 24.3774 15.1951 24.2365 15.001 24.1371C14.8068 24.0353 14.5606 23.9844 14.2623 23.9844H13.2254V30H11.6878ZM18.1624 30V22.7273H19.7V25.9339H19.7959L22.4131 22.7273H24.2561L21.5573 25.9837L24.2881 30H22.4486L20.4564 27.0099L19.7 27.9332V30H18.1624Z" fill="white"/>
</svg>
