<svg t="1728571912065" class="icon" viewBox="0 0 1024 1024" version="1.1" xmlns="http://www.w3.org/2000/svg" p-id="5488"
     width="200" height="200">
    <path d="M384 608a32.64 32.64 0 0 1 32 32v288a32.64 32.64 0 0 1-32 32H96a32.64 32.64 0 0 1-32-32V640a32.64 32.64 0 0 1 32-32H384m0-64H96A96 96 0 0 0 0 640v288A96 96 0 0 0 96 1024H384a96 96 0 0 0 96-96V640A96 96 0 0 0 384 544z"
          fill="#666666" p-id="5489"></path>
    <path d="M544 544m96 0l288 0q96 0 96 96l0 288q0 96-96 96l-288 0q-96 0-96-96l0-288q0-96 96-96Z" fill="#666666"
          p-id="5490"></path>
    <path d="M0 0m96 0l288 0q96 0 96 96l0 288q0 96-96 96l-288 0q-96 0-96-96l0-288q0-96 96-96Z" fill="#666666"
          p-id="5491"></path>
    <path d="M544 0m96 0l288 0q96 0 96 96l0 288q0 96-96 96l-288 0q-96 0-96-96l0-288q0-96 96-96Z" fill="#666666"
          p-id="5492"></path>
    <path d="M336 752h-64v-64a32 32 0 0 0-64 0v64h-64a32 32 0 0 0 0 64h64v64a32 32 0 0 0 64 0v-64h64a32 32 0 0 0 0-64z"
          fill="#666666" p-id="5493"></path>
</svg>