<svg width="20" height="17" viewBox="0 0 20 17" fill="none" xmlns="http://www.w3.org/2000/svg">
    <path d="M13.3334 1.8898C14.5682 2.50343 15.4167 3.77762 15.4167 5.25C15.4167 6.72238 14.5682 7.99657 13.3334 8.6102M15.0001 12.972C16.2596 13.5419 17.3938 14.4708 18.3334 15.6667M1.66675 15.6667C3.28882 13.6021 5.49106 12.3333 7.91675 12.3333C10.3424 12.3333 12.5447 13.6021 14.1667 15.6667M11.6667 5.25C11.6667 7.32107 9.98782 9 7.91675 9C5.84568 9 4.16675 7.32107 4.16675 5.25C4.16675 3.17893 5.84568 1.5 7.91675 1.5C9.98782 1.5 11.6667 3.17893 11.6667 5.25Z" stroke="white" stroke-width="1.66667" stroke-linecap="round" stroke-linejoin="round"/>
</svg>
