<svg width="20" height="20" viewBox="0 0 20 20" fill="none" xmlns="http://www.w3.org/2000/svg">
    <path d="M2.66602 0C2.41602 0 2.14902 0.1 1.96602 0.3C1.78302 0.5 1.66602 0.75 1.66602 1V19C1.66602 19.25 1.76602 19.517 1.96602 19.7C2.16602 19.9 2.41602 20 2.66602 20H17.333C17.583 20 17.85 19.9 18.033 19.7C18.233 19.5 18.333 19.25 18.333 19V5.667L12.666 0H2.66602Z" fill="#187FF4"/>
    <path d="M18.3341 5.66586H13.6731C13.4231 5.66586 13.1571 5.56586 12.9741 5.36586C12.7741 5.18286 12.6741 4.91686 12.6741 4.66686V0.00585938L18.3341 5.66586Z" fill="#20ABF2"/>
    <path d="M9.81794 14.9727C9.54194 14.9727 9.31794 14.7487 9.31794 14.4727V7.47266C9.31794 7.19666 9.54194 6.97266 9.81794 6.97266C10.0939 6.97266 10.3179 7.19666 10.3179 7.47266V14.4727C10.3179 14.7487 10.0939 14.9727 9.81794 14.9727ZM7.74994 13.4727C7.47394 13.4727 7.24994 13.2487 7.24994 12.9727V8.97266C7.24994 8.69666 7.47394 8.47266 7.74994 8.47266C8.02594 8.47266 8.24994 8.69666 8.24994 8.97266V12.9727C8.24994 13.2487 8.02594 13.4727 7.74994 13.4727ZM5.63794 11.9727C5.36194 11.9727 5.13794 11.7487 5.13794 11.4727V10.4727C5.13794 10.1967 5.36194 9.97266 5.63794 9.97266C5.91394 9.97266 6.13794 10.1967 6.13794 10.4727V11.4727C6.13794 11.7487 5.91394 11.9727 5.63794 11.9727ZM11.8869 13.4727C12.1629 13.4727 12.3869 13.2487 12.3869 12.9727V8.97266C12.3869 8.69666 12.1629 8.47266 11.8869 8.47266C11.6109 8.47266 11.3869 8.69666 11.3869 8.97266V12.9727C11.3869 13.2487 11.6099 13.4727 11.8869 13.4727ZM13.9979 11.9727C14.2739 11.9727 14.4979 11.7487 14.4979 11.4727V10.4727C14.4979 10.1967 14.2739 9.97266 13.9979 9.97266C13.7219 9.97266 13.4979 10.1967 13.4979 10.4727V11.4727C13.4979 11.7487 13.7219 11.9727 13.9979 11.9727Z" fill="white"/>
</svg>
