<svg width="43" height="40" viewBox="0 0 43 40" fill="none" xmlns="http://www.w3.org/2000/svg">
<path d="M10.75 4C10.75 2.20508 12.2051 0.75 14 0.75H30C30.1212 0.75 30.2375 0.798159 30.3232 0.883885L41.1161 11.6768C41.2018 11.7625 41.25 11.8788 41.25 12V36C41.25 37.7949 39.7949 39.25 38 39.25H14C12.2051 39.25 10.75 37.7949 10.75 36V4Z" fill="white" stroke="#D0D5DD" stroke-width="1.5"/>
<path d="M30 0.5V8C30 10.2091 31.7909 12 34 12H41.5" stroke="#D0D5DD" stroke-width="1.5"/>
<rect y="18" width="34" height="16" rx="2" fill="#444CE7"/>
<path d="M3.66238 30V22.7273H6.57431C7.10935 22.7273 7.5556 22.8066 7.91309 22.9652C8.27057 23.1238 8.53927 23.344 8.71919 23.6257C8.89912 23.9051 8.98908 24.227 8.98908 24.5916C8.98908 24.8757 8.93226 25.1255 8.81863 25.3409C8.70499 25.554 8.54874 25.7292 8.34988 25.8665C8.15338 26.0014 7.92847 26.0973 7.67516 26.1541V26.2251C7.95215 26.237 8.21138 26.3151 8.45286 26.4595C8.6967 26.6039 8.89438 26.8063 9.0459 27.0668C9.19741 27.3248 9.27317 27.6326 9.27317 27.9901C9.27317 28.3759 9.17729 28.7204 8.98553 29.0234C8.79614 29.3241 8.5156 29.562 8.14391 29.7372C7.77222 29.9124 7.31413 30 6.76962 30H3.66238ZM5.20002 28.7429H6.45357C6.88207 28.7429 7.19457 28.6612 7.39107 28.4979C7.58757 28.3321 7.68581 28.112 7.68581 27.8374C7.68581 27.6361 7.63728 27.4586 7.54022 27.3047C7.44315 27.1508 7.30466 27.0301 7.12473 26.9425C6.94718 26.8549 6.73529 26.8111 6.48908 26.8111H5.20002V28.7429ZM5.20002 25.7706H6.33993C6.55063 25.7706 6.73766 25.7339 6.90101 25.6605C7.06673 25.5848 7.19694 25.4782 7.29164 25.3409C7.3887 25.2036 7.43723 25.0391 7.43723 24.8473C7.43723 24.5845 7.34372 24.3726 7.15669 24.2116C6.97203 24.0507 6.70925 23.9702 6.36834 23.9702H5.20002V25.7706ZM11.5273 30H9.87953L12.3902 22.7273H14.3717L16.8788 30H15.2311L13.4094 24.3892H13.3525L11.5273 30ZM11.4243 27.1413H15.3163V28.3416H11.4243V27.1413ZM21.5335 24.8189C21.5051 24.5324 21.3831 24.3099 21.1677 24.1513C20.9523 23.9927 20.6599 23.9134 20.2906 23.9134C20.0396 23.9134 19.8277 23.9489 19.6549 24.0199C19.4821 24.0885 19.3495 24.1844 19.2572 24.3075C19.1672 24.4306 19.1222 24.5703 19.1222 24.7266C19.1175 24.8568 19.1447 24.9704 19.2039 25.0675C19.2655 25.1645 19.3495 25.2486 19.4561 25.3196C19.5626 25.3883 19.6857 25.4486 19.8254 25.5007C19.9651 25.5504 20.1142 25.593 20.2728 25.6286L20.9262 25.7848C21.2435 25.8558 21.5347 25.9505 21.7998 26.0689C22.065 26.1873 22.2946 26.3329 22.4887 26.5057C22.6829 26.6785 22.8332 26.8821 22.9397 27.1165C23.0486 27.3509 23.1043 27.6196 23.1066 27.9226C23.1043 28.3677 22.9906 28.7536 22.7657 29.0803C22.5432 29.4046 22.2212 29.6567 21.7998 29.8366C21.3808 30.0142 20.8753 30.103 20.2835 30.103C19.6963 30.103 19.185 30.013 18.7494 29.8331C18.3161 29.6532 17.9776 29.3868 17.7338 29.0341C17.4923 28.679 17.3656 28.2398 17.3538 27.7166H18.8417C18.8583 27.9605 18.9281 28.1641 19.0512 28.3274C19.1767 28.4884 19.3436 28.6103 19.5519 28.6932C19.7626 28.7737 20.0006 28.8139 20.2657 28.8139C20.5261 28.8139 20.7522 28.776 20.944 28.7003C21.1381 28.6245 21.2884 28.5192 21.395 28.3842C21.5015 28.2493 21.5548 28.0942 21.5548 27.919C21.5548 27.7557 21.5062 27.6184 21.4092 27.5071C21.3145 27.3958 21.1748 27.3011 20.9901 27.223C20.8079 27.1449 20.5841 27.0739 20.319 27.0099L19.5271 26.8111C18.9139 26.6619 18.4298 26.4287 18.0747 26.1115C17.7195 25.7943 17.5432 25.367 17.5455 24.8295C17.5432 24.3892 17.6604 24.0045 17.8971 23.6754C18.1362 23.3464 18.4641 23.0895 18.8808 22.9048C19.2974 22.7202 19.7709 22.6278 20.3012 22.6278C20.841 22.6278 21.3121 22.7202 21.7146 22.9048C22.1194 23.0895 22.4343 23.3464 22.6592 23.6754C22.8841 24.0045 23.0001 24.3857 23.0072 24.8189H21.5335ZM24.1409 30V22.7273H25.6785V25.728H28.8V22.7273H30.3341V30H28.8V26.9957H25.6785V30H24.1409Z" fill="white"/>
</svg>
