<svg width="40" height="40" viewBox="0 0 40 40" fill="none" xmlns="http://www.w3.org/2000/svg">
    <path d="M7.75 4C7.75 2.20508 9.20508 0.75 11 0.75H27C27.1212 0.75 27.2375 0.798159 27.3232 0.883885L38.1161 11.6768C38.2018 11.7625 38.25 11.8788 38.25 12V36C38.25 37.7949 36.7949 39.25 35 39.25H11C9.20507 39.25 7.75 37.7949 7.75 36V4Z" fill="white" stroke="#D0D5DD" stroke-width="1.5"/>
    <path d="M27 0.5V8C27 10.2091 28.7909 12 31 12H38.5" stroke="#D0D5DD" stroke-width="1.5"/>
    <rect x="2.5" y="18" width="23" height="16" rx="2" fill="#B3B8DB"/>
    <path d="M6.24831 30V22.7273H9.16025C9.69528 22.7273 10.1415 22.8066 10.499 22.9652C10.8565 23.1238 11.1252 23.344 11.3051 23.6257C11.4851 23.9051 11.575 24.227 11.575 24.5916C11.575 24.8757 11.5182 25.1255 11.4046 25.3409C11.2909 25.554 11.1347 25.7292 10.9358 25.8665C10.7393 26.0014 10.5144 26.0973 10.2611 26.1541V26.2251C10.5381 26.237 10.7973 26.3151 11.0388 26.4595C11.2826 26.6039 11.4803 26.8063 11.6318 27.0668C11.7834 27.3248 11.8591 27.6326 11.8591 27.9901C11.8591 28.3759 11.7632 28.7204 11.5715 29.0234C11.3821 29.3241 11.1015 29.562 10.7298 29.7372C10.3582 29.9124 9.90007 30 9.35556 30H6.24831ZM7.78596 28.7429H9.03951C9.46801 28.7429 9.78051 28.6612 9.97701 28.4979C10.1735 28.3321 10.2718 28.112 10.2718 27.8374C10.2718 27.6361 10.2232 27.4586 10.1262 27.3047C10.0291 27.1508 9.8906 27.0301 9.71067 26.9425C9.53311 26.8549 9.32123 26.8111 9.07502 26.8111H7.78596V28.7429ZM7.78596 25.7706H8.92587C9.13657 25.7706 9.3236 25.7339 9.48695 25.6605C9.65267 25.5848 9.78288 25.4782 9.87757 25.3409C9.97464 25.2036 10.0232 25.0391 10.0232 24.8473C10.0232 24.5845 9.92966 24.3726 9.74263 24.2116C9.55797 24.0507 9.29519 23.9702 8.95428 23.9702H7.78596V25.7706ZM14.3973 22.7273V30H12.8596V22.7273H14.3973ZM21.7455 22.7273V30H20.4173L17.2533 25.4226H17.2V30H15.6624V22.7273H17.0118L20.151 27.3011H20.2149V22.7273H21.7455Z" fill="white"/>
</svg>
