<svg width="41" height="40" viewBox="0 0 41 40" fill="none" xmlns="http://www.w3.org/2000/svg">
    <path d="M8.75 4C8.75 2.20508 10.2051 0.75 12 0.75H28C28.1212 0.75 28.2375 0.798159 28.3232 0.883885L39.1161 11.6768C39.2018 11.7625 39.25 11.8788 39.25 12V36C39.25 37.7949 37.7949 39.25 36 39.25H12C10.2051 39.25 8.75 37.7949 8.75 36V4Z" fill="white" stroke="#D0D5DD" stroke-width="1.5"/>
    <path d="M28 0.5V8C28 10.2091 29.7909 12 32 12H39.5" stroke="#D0D5DD" stroke-width="1.5"/>
    <rect x="0.5" y="18" width="29" height="16" rx="2" fill="#3E4784"/>
    <path d="M4.51394 30V22.7273H7.42587C7.96091 22.7273 8.40717 22.8066 8.76465 22.9652C9.12213 23.1238 9.39083 23.344 9.57076 23.6257C9.75068 23.9051 9.84064 24.227 9.84064 24.5916C9.84064 24.8757 9.78382 25.1255 9.67019 25.3409C9.55655 25.554 9.4003 25.7292 9.20144 25.8665C9.00494 26.0014 8.78004 26.0973 8.52672 26.1541V26.2251C8.80371 26.237 9.06294 26.3151 9.30442 26.4595C9.54827 26.6039 9.74595 26.8063 9.89746 27.0668C10.049 27.3248 10.1247 27.6326 10.1247 27.9901C10.1247 28.3759 10.0289 28.7204 9.83709 29.0234C9.6477 29.3241 9.36716 29.562 8.99547 29.7372C8.62379 29.9124 8.16569 30 7.62118 30H4.51394ZM6.05158 28.7429H7.30513C7.73364 28.7429 8.04614 28.6612 8.24263 28.4979C8.43913 28.3321 8.53738 28.112 8.53738 27.8374C8.53738 27.6361 8.48884 27.4586 8.39178 27.3047C8.29471 27.1508 8.15622 27.0301 7.9763 26.9425C7.79874 26.8549 7.58685 26.8111 7.34064 26.8111H6.05158V28.7429ZM6.05158 25.7706H7.1915C7.4022 25.7706 7.58922 25.7339 7.75257 25.6605C7.91829 25.5848 8.0485 25.4782 8.1432 25.3409C8.24026 25.2036 8.2888 25.0391 8.2888 24.8473C8.2888 24.5845 8.19528 24.3726 8.00826 24.2116C7.8236 24.0507 7.56081 23.9702 7.2199 23.9702H6.05158V25.7706ZM11.1253 22.7273H13.0216L15.0244 27.6136H15.1096L17.1125 22.7273H19.0088V30H17.5173V25.2663H17.4569L15.5748 29.9645H14.5592L12.6771 25.2486H12.6167V30H11.1253V22.7273ZM20.2757 30V22.7273H23.145C23.6966 22.7273 24.1665 22.8326 24.5548 23.0433C24.943 23.2517 25.239 23.5417 25.4426 23.9134C25.6485 24.2827 25.7515 24.7088 25.7515 25.1918C25.7515 25.6747 25.6473 26.1009 25.439 26.4702C25.2307 26.8395 24.9288 27.1271 24.5335 27.3331C24.1405 27.5391 23.6646 27.642 23.1059 27.642H21.2771V26.4098H22.8573C23.1533 26.4098 23.3971 26.3589 23.5889 26.2571C23.783 26.1529 23.9274 26.0097 24.0221 25.8274C24.1192 25.6428 24.1677 25.4309 24.1677 25.1918C24.1677 24.9503 24.1192 24.7396 24.0221 24.5597C23.9274 24.3774 23.783 24.2365 23.5889 24.1371C23.3947 24.0353 23.1485 23.9844 22.8502 23.9844H21.8133V30H20.2757Z" fill="white"/>
</svg>
