<svg width="16" height="16" viewBox="0 0 16 16" fill="none" xmlns="http://www.w3.org/2000/svg">
    <g clip-path="url(#clip0_3386_36712)">
        <path d="M7.99967 14.6663C11.6816 14.6663 14.6663 11.6816 14.6663 7.99967C14.6663 4.31778 11.6816 1.33301 7.99967 1.33301C4.31778 1.33301 1.33301 4.31778 1.33301 7.99967C1.33301 11.6816 4.31778 14.6663 7.99967 14.6663Z" fill="#2E90FA"/>
        <path d="M10.6663 7.99967L7.99967 5.33301L5.33301 7.99967" fill="#2E90FA"/>
        <path d="M10.6663 7.99967L7.99967 5.33301M7.99967 5.33301L5.33301 7.99967M7.99967 5.33301V10.6663M14.6663 7.99967C14.6663 11.6816 11.6816 14.6663 7.99967 14.6663C4.31778 14.6663 1.33301 11.6816 1.33301 7.99967C1.33301 4.31778 4.31778 1.33301 7.99967 1.33301C11.6816 1.33301 14.6663 4.31778 14.6663 7.99967Z" stroke="white" stroke-linecap="round" stroke-linejoin="round"/>
    </g>
    <defs>
        <clipPath id="clip0_3386_36712">
            <rect width="16" height="16" fill="white"/>
        </clipPath>
    </defs>
</svg>
