<svg width="66" height="66" viewBox="0 0 66 66" fill="none" xmlns="http://www.w3.org/2000/svg">
    <rect x="5" y="5" width="56" height="56" rx="28" fill="#D1E9FF"/>
    <rect x="5" y="5" width="56" height="56" rx="28" stroke="#EFF8FF" stroke-width="10"/>
    <path d="M44.6666 31.933V33.0064C44.6652 35.5222 43.8505 37.9701 42.3441 39.9851C40.8378 42.0002 38.7204 43.4742 36.3078 44.1876C33.8953 44.9009 31.3167 44.8152 28.9568 43.9434C26.5969 43.0715 24.582 41.4601 23.2127 39.3496C21.8434 37.2391 21.193 34.7424 21.3585 32.2321C21.5241 29.7217 22.4967 27.3321 24.1312 25.4196C25.7658 23.5071 27.9748 22.1743 30.4288 21.6199C32.8828 21.0654 35.4502 21.3191 37.7483 22.343M44.6666 23.6663L32.9999 35.3447L29.4999 31.8447" stroke="#1570EF" stroke-width="2" stroke-linecap="round" stroke-linejoin="round"/>
</svg>
