<svg width="24" height="24" viewBox="0 0 24 24" fill="none" xmlns="http://www.w3.org/2000/svg">
    <path opacity="0.3" d="M14.9318 3.04652C15.1368 3.51176 14.8074 4.4498 14.9135 4.90748C15.0784 5.61908 15.902 5.97632 16.6281 5.89736C17.1335 5.8424 17.8649 4.89368 18.3704 4.83872C20.3504 4.62344 22.4822 7.98116 21.3057 9.58832C21.0053 9.9986 19.8454 10.5396 19.545 10.9498C19.3348 11.237 19.2214 11.5838 19.2214 11.9397C19.2214 12.2957 19.3348 12.6424 19.545 12.9296C19.8454 13.3399 20.7257 13.3216 21.026 13.7319C22.2024 15.3391 20.63 18.9764 18.6498 18.7611C18.1444 18.7062 17.1334 18.037 16.628 17.9821C16.2741 17.9436 15.9171 18.0188 15.6089 18.1968C15.3006 18.3747 15.057 18.6463 14.9134 18.972C14.7083 19.4372 15.1368 20.3677 14.9316 20.8329C14.1281 22.6554 9.86463 22.6554 9.06111 20.8329C8.85603 20.3677 9.28455 19.4372 9.07935 18.972C8.93574 18.6463 8.69215 18.3747 8.38388 18.1968C8.0756 18.0188 7.71867 17.9436 7.36479 17.9821C6.85935 18.037 6.40755 18.7062 5.90211 18.7611C3.92211 18.9764 1.51071 15.6187 2.68719 14.0115C2.98755 13.6012 4.14747 13.3399 4.44783 12.9296C4.65811 12.6424 4.77146 12.2957 4.77146 11.9397C4.77146 11.5838 4.65811 11.237 4.44783 10.9498C4.14747 10.5396 2.98755 10.2782 2.68719 9.86792C1.51071 8.26076 3.64239 4.62344 5.62251 4.83872C6.12795 4.89368 6.85935 5.8424 7.36479 5.89736C8.09103 5.97632 8.91447 5.61908 9.07935 4.90748C9.18543 4.4498 8.85591 3.51176 9.06111 3.04652C9.86475 1.22408 14.1281 1.22408 14.9318 3.04652Z" fill="#667085"/>
    <path d="M9.06055 11.9398C9.06055 12.3254 9.13649 12.7072 9.28403 13.0634C9.43157 13.4196 9.64783 13.7432 9.92046 14.0158C10.1931 14.2885 10.5167 14.5047 10.8729 14.6523C11.2291 14.7998 11.6109 14.8757 11.9965 14.8757C12.382 14.8757 12.7638 14.7998 13.12 14.6523C13.4762 14.5047 13.7999 14.2885 14.0725 14.0158C14.3451 13.7432 14.5614 13.4196 14.7089 13.0634C14.8564 12.7072 14.9324 12.3254 14.9324 11.9398C14.9324 11.1612 14.6231 10.4144 14.0725 9.86382C13.5219 9.31323 12.7751 9.00391 11.9965 9.00391C11.2178 9.00391 10.471 9.31323 9.92046 9.86382C9.36987 10.4144 9.06055 11.1612 9.06055 11.9398Z" fill="#667085"/>
</svg>
