<svg width="40" height="40" viewBox="0 0 40 40" fill="none" xmlns="http://www.w3.org/2000/svg">
    <path d="M7.75 4C7.75 2.20508 9.20508 0.75 11 0.75H27C27.1212 0.75 27.2375 0.798159 27.3232 0.883885L38.1161 11.6768C38.2018 11.7625 38.25 11.8788 38.25 12V36C38.25 37.7949 36.7949 39.25 35 39.25H11C9.20507 39.25 7.75 37.7949 7.75 36V4Z" fill="white" stroke="#D0D5DD" stroke-width="1.5"/>
    <path d="M27 0.5V8C27 10.2091 28.7909 12 31 12H38.5" stroke="#D0D5DD" stroke-width="1.5"/>
    <rect y="18" width="28" height="16" rx="2" fill="#444CE7"/>
    <path d="M10.2531 25.2734H8.69771C8.6693 25.0722 8.6113 24.8935 8.5237 24.7372C8.43611 24.5786 8.32366 24.4437 8.18635 24.3324C8.04904 24.2211 7.89042 24.1359 7.71049 24.0767C7.53294 24.0175 7.33999 23.9879 7.13166 23.9879C6.75524 23.9879 6.42735 24.0814 6.14799 24.2685C5.86864 24.4531 5.65202 24.723 5.49814 25.0781C5.34425 25.4309 5.26731 25.8594 5.26731 26.3636C5.26731 26.8821 5.34425 27.3177 5.49814 27.6705C5.65439 28.0232 5.87219 28.2895 6.15154 28.4695C6.4309 28.6494 6.75405 28.7393 7.121 28.7393C7.32697 28.7393 7.51755 28.7121 7.69274 28.6577C7.87029 28.6032 8.02773 28.5239 8.16504 28.4197C8.30235 28.3132 8.41599 28.1842 8.50595 28.0327C8.59828 27.8812 8.6622 27.7083 8.69771 27.5142L10.2531 27.5213C10.2129 27.8551 10.1122 28.1771 9.95126 28.4872C9.79264 28.795 9.57839 29.0708 9.30851 29.3146C9.04099 29.5561 8.72138 29.7479 8.3497 29.8899C7.98038 30.0296 7.56253 30.0994 7.09615 30.0994C6.44747 30.0994 5.86745 29.9527 5.35609 29.6591C4.84709 29.3655 4.44463 28.9406 4.1487 28.3842C3.85514 27.8279 3.70836 27.1544 3.70836 26.3636C3.70836 25.5705 3.85751 24.8958 4.15581 24.3395C4.4541 23.7831 4.85893 23.3594 5.37029 23.0682C5.88166 22.7746 6.45694 22.6278 7.09615 22.6278C7.51755 22.6278 7.90817 22.687 8.26802 22.8054C8.63024 22.9238 8.95102 23.0966 9.23038 23.3239C9.50974 23.5488 9.73701 23.8246 9.9122 24.1513C10.0898 24.478 10.2034 24.852 10.2531 25.2734ZM15.301 24.8189C15.2726 24.5324 15.1507 24.3099 14.9353 24.1513C14.7198 23.9927 14.4275 23.9134 14.0581 23.9134C13.8072 23.9134 13.5953 23.9489 13.4225 24.0199C13.2497 24.0885 13.1171 24.1844 13.0248 24.3075C12.9348 24.4306 12.8898 24.5703 12.8898 24.7266C12.8851 24.8568 12.9123 24.9704 12.9715 25.0675C13.0331 25.1645 13.1171 25.2486 13.2236 25.3196C13.3302 25.3883 13.4533 25.4486 13.593 25.5007C13.7326 25.5504 13.8818 25.593 14.0404 25.6286L14.6938 25.7848C15.011 25.8558 15.3022 25.9505 15.5674 26.0689C15.8325 26.1873 16.0622 26.3329 16.2563 26.5057C16.4504 26.6785 16.6008 26.8821 16.7073 27.1165C16.8162 27.3509 16.8718 27.6196 16.8742 27.9226C16.8718 28.3677 16.7582 28.7536 16.5333 29.0803C16.3108 29.4046 15.9888 29.6567 15.5674 29.8366C15.1483 30.0142 14.6429 30.103 14.051 30.103C13.4639 30.103 12.9526 30.013 12.517 29.8331C12.0837 29.6532 11.7452 29.3868 11.5013 29.0341C11.2599 28.679 11.1332 28.2398 11.1214 27.7166H12.6093C12.6259 27.9605 12.6957 28.1641 12.8188 28.3274C12.9443 28.4884 13.1112 28.6103 13.3195 28.6932C13.5302 28.7737 13.7681 28.8139 14.0333 28.8139C14.2937 28.8139 14.5198 28.776 14.7116 28.7003C14.9057 28.6245 15.056 28.5192 15.1626 28.3842C15.2691 28.2493 15.3224 28.0942 15.3224 27.919C15.3224 27.7557 15.2738 27.6184 15.1768 27.5071C15.0821 27.3958 14.9424 27.3011 14.7577 27.223C14.5754 27.1449 14.3517 27.0739 14.0866 27.0099L13.2947 26.8111C12.6815 26.6619 12.1974 26.4287 11.8422 26.1115C11.4871 25.7943 11.3108 25.367 11.3131 24.8295C11.3108 24.3892 11.4279 24.0045 11.6647 23.6754C11.9038 23.3464 12.2317 23.0895 12.6483 22.9048C13.065 22.7202 13.5385 22.6278 14.0688 22.6278C14.6086 22.6278 15.0797 22.7202 15.4822 22.9048C15.887 23.0895 16.2019 23.3464 16.4268 23.6754C16.6517 24.0045 16.7677 24.3857 16.7748 24.8189H15.301Z" fill="white"/>
    <path d="M24.3254 25.2734H22.77C22.7416 25.0722 22.6836 24.8935 22.596 24.7372C22.5084 24.5786 22.3959 24.4437 22.2586 24.3324C22.1213 24.2211 21.9627 24.1359 21.7828 24.0767C21.6052 24.0175 21.4123 23.9879 21.2039 23.9879C20.8275 23.9879 20.4996 24.0814 20.2203 24.2685C19.9409 24.4531 19.7243 24.723 19.5704 25.0781C19.4165 25.4309 19.3396 25.8594 19.3396 26.3636C19.3396 26.8821 19.4165 27.3177 19.5704 27.6705C19.7267 28.0232 19.9445 28.2895 20.2238 28.4695C20.5032 28.6494 20.8263 28.7393 21.1933 28.7393C21.3992 28.7393 21.5898 28.7121 21.765 28.6577C21.9426 28.6032 22.1 28.5239 22.2373 28.4197C22.3746 28.3132 22.4883 28.1842 22.5782 28.0327C22.6705 27.8812 22.7345 27.7083 22.77 27.5142L24.3254 27.5213C24.2851 27.8551 24.1845 28.1771 24.0235 28.4872C23.8649 28.795 23.6507 29.0708 23.3808 29.3146C23.1133 29.5561 22.7936 29.7479 22.422 29.8899C22.0526 30.0296 21.6348 30.0994 21.1684 30.0994C20.5197 30.0994 19.9397 29.9527 19.4284 29.6591C18.9194 29.3655 18.5169 28.9406 18.221 28.3842C17.9274 27.8279 17.7806 27.1544 17.7806 26.3636C17.7806 25.5705 17.9298 24.8958 18.2281 24.3395C18.5264 23.7831 18.9312 23.3594 19.4426 23.0682C19.9539 22.7746 20.5292 22.6278 21.1684 22.6278C21.5898 22.6278 21.9804 22.687 22.3403 22.8054C22.7025 22.9238 23.0233 23.0966 23.3026 23.3239C23.582 23.5488 23.8093 23.8246 23.9845 24.1513C24.162 24.478 24.2757 24.852 24.3254 25.2734Z" fill="#444CE7"/>
</svg>
