<svg width="40" height="40" viewBox="0 0 40 40" fill="none" xmlns="http://www.w3.org/2000/svg">
    <path d="M7.75 4C7.75 2.20508 9.20508 0.75 11 0.75H27C27.1212 0.75 27.2375 0.798159 27.3232 0.883885L38.1161 11.6768C38.2018 11.7625 38.25 11.8788 38.25 12V36C38.25 37.7949 36.7949 39.25 35 39.25H11C9.20507 39.25 7.75 37.7949 7.75 36V4Z" fill="white" stroke="#D0D5DD" stroke-width="1.5"/>
    <path d="M27 0.5V8C27 10.2091 28.7909 12 31 12H38.5" stroke="#D0D5DD" stroke-width="1.5"/>
    <rect x="0.5" y="18" width="27" height="16" rx="2" fill="#444CE7"/>
    <path d="M10.7365 25.2734H9.18111C9.1527 25.0722 9.0947 24.8935 9.0071 24.7372C8.91951 24.5786 8.80706 24.4437 8.66974 24.3324C8.53243 24.2211 8.37382 24.1359 8.19389 24.0767C8.01634 24.0175 7.82339 23.9879 7.61506 23.9879C7.23864 23.9879 6.91075 24.0814 6.63139 24.2685C6.35204 24.4531 6.13542 24.723 5.98153 25.0781C5.82765 25.4309 5.75071 25.8594 5.75071 26.3636C5.75071 26.8821 5.82765 27.3177 5.98153 27.6705C6.13778 28.0232 6.35559 28.2895 6.63494 28.4695C6.9143 28.6494 7.23745 28.7393 7.6044 28.7393C7.81037 28.7393 8.00095 28.7121 8.17614 28.6577C8.35369 28.6032 8.51113 28.5239 8.64844 28.4197C8.78575 28.3132 8.89938 28.1842 8.98935 28.0327C9.08168 27.8812 9.1456 27.7083 9.18111 27.5142L10.7365 27.5213C10.6963 27.8551 10.5956 28.1771 10.4347 28.4872C10.276 28.795 10.0618 29.0708 9.7919 29.3146C9.52438 29.5561 9.20478 29.7479 8.8331 29.8899C8.46378 30.0296 8.04593 30.0994 7.57955 30.0994C6.93087 30.0994 6.35085 29.9527 5.83949 29.6591C5.33049 29.3655 4.92803 28.9406 4.6321 28.3842C4.33854 27.8279 4.19176 27.1544 4.19176 26.3636C4.19176 25.5705 4.34091 24.8958 4.6392 24.3395C4.9375 23.7831 5.34233 23.3594 5.85369 23.0682C6.36506 22.7746 6.94034 22.6278 7.57955 22.6278C8.00095 22.6278 8.39157 22.687 8.75142 22.8054C9.11364 22.9238 9.43442 23.0966 9.71378 23.3239C9.99313 23.5488 10.2204 23.8246 10.3956 24.1513C10.5732 24.478 10.6868 24.852 10.7365 25.2734ZM15.7844 24.8189C15.756 24.5324 15.6341 24.3099 15.4187 24.1513C15.2032 23.9927 14.9109 23.9134 14.5415 23.9134C14.2906 23.9134 14.0787 23.9489 13.9059 24.0199C13.7331 24.0885 13.6005 24.1844 13.5082 24.3075C13.4182 24.4306 13.3732 24.5703 13.3732 24.7266C13.3685 24.8568 13.3957 24.9704 13.4549 25.0675C13.5165 25.1645 13.6005 25.2486 13.707 25.3196C13.8136 25.3883 13.9367 25.4486 14.0763 25.5007C14.216 25.5504 14.3652 25.593 14.5238 25.6286L15.1772 25.7848C15.4944 25.8558 15.7856 25.9505 16.0508 26.0689C16.3159 26.1873 16.5456 26.3329 16.7397 26.5057C16.9338 26.6785 17.0842 26.8821 17.1907 27.1165C17.2996 27.3509 17.3552 27.6196 17.3576 27.9226C17.3552 28.3677 17.2416 28.7536 17.0167 29.0803C16.7942 29.4046 16.4722 29.6567 16.0508 29.8366C15.6317 30.0142 15.1263 30.103 14.5344 30.103C13.9473 30.103 13.436 30.013 13.0004 29.8331C12.5671 29.6532 12.2286 29.3868 11.9847 29.0341C11.7433 28.679 11.6166 28.2398 11.6048 27.7166H13.0927C13.1093 27.9605 13.1791 28.1641 13.3022 28.3274C13.4277 28.4884 13.5946 28.6103 13.8029 28.6932C14.0136 28.7737 14.2515 28.8139 14.5167 28.8139C14.7771 28.8139 15.0032 28.776 15.195 28.7003C15.3891 28.6245 15.5394 28.5192 15.646 28.3842C15.7525 28.2493 15.8058 28.0942 15.8058 27.919C15.8058 27.7557 15.7572 27.6184 15.6602 27.5071C15.5655 27.3958 15.4258 27.3011 15.2411 27.223C15.0588 27.1449 14.8351 27.0739 14.57 27.0099L13.7781 26.8111C13.1649 26.6619 12.6808 26.4287 12.3256 26.1115C11.9705 25.7943 11.7942 25.367 11.7965 24.8295C11.7942 24.3892 11.9113 24.0045 12.1481 23.6754C12.3872 23.3464 12.7151 23.0895 13.1317 22.9048C13.5484 22.7202 14.0219 22.6278 14.5522 22.6278C15.092 22.6278 15.5631 22.7202 15.9656 22.9048C16.3704 23.0895 16.6853 23.3464 16.9102 23.6754C17.1351 24.0045 17.2511 24.3857 17.2582 24.8189H15.7844ZM22.3372 24.8189C22.3088 24.5324 22.1868 24.3099 21.9714 24.1513C21.756 23.9927 21.4636 23.9134 21.0943 23.9134C20.8433 23.9134 20.6315 23.9489 20.4586 24.0199C20.2858 24.0885 20.1532 24.1844 20.0609 24.3075C19.9709 24.4306 19.926 24.5703 19.926 24.7266C19.9212 24.8568 19.9484 24.9704 20.0076 25.0675C20.0692 25.1645 20.1532 25.2486 20.2598 25.3196C20.3663 25.3883 20.4894 25.4486 20.6291 25.5007C20.7688 25.5504 20.9179 25.593 21.0765 25.6286L21.7299 25.7848C22.0472 25.8558 22.3384 25.9505 22.6035 26.0689C22.8687 26.1873 23.0983 26.3329 23.2924 26.5057C23.4866 26.6785 23.6369 26.8821 23.7434 27.1165C23.8523 27.3509 23.908 27.6196 23.9103 27.9226C23.908 28.3677 23.7943 28.7536 23.5694 29.0803C23.3469 29.4046 23.0249 29.6567 22.6035 29.8366C22.1845 30.0142 21.679 30.103 21.0872 30.103C20.5001 30.103 19.9887 30.013 19.5531 29.8331C19.1199 29.6532 18.7813 29.3868 18.5375 29.0341C18.296 28.679 18.1693 28.2398 18.1575 27.7166H19.6454C19.662 27.9605 19.7318 28.1641 19.8549 28.3274C19.9804 28.4884 20.1473 28.6103 20.3556 28.6932C20.5663 28.7737 20.8043 28.8139 21.0694 28.8139C21.3298 28.8139 21.5559 28.776 21.7477 28.7003C21.9418 28.6245 22.0922 28.5192 22.1987 28.3842C22.3052 28.2493 22.3585 28.0942 22.3585 27.919C22.3585 27.7557 22.31 27.6184 22.2129 27.5071C22.1182 27.3958 21.9785 27.3011 21.7939 27.223C21.6116 27.1449 21.3878 27.0739 21.1227 27.0099L20.3308 26.8111C19.7176 26.6619 19.2335 26.4287 18.8784 26.1115C18.5233 25.7943 18.3469 25.367 18.3493 24.8295C18.3469 24.3892 18.4641 24.0045 18.7008 23.6754C18.9399 23.3464 19.2678 23.0895 19.6845 22.9048C20.1011 22.7202 20.5746 22.6278 21.1049 22.6278C21.6447 22.6278 22.1158 22.7202 22.5183 22.9048C22.9231 23.0895 23.238 23.3464 23.4629 23.6754C23.6878 24.0045 23.8038 24.3857 23.8109 24.8189H22.3372Z" fill="white"/>
</svg>
