<?xml version="1.0" standalone="no"?><!DOCTYPE svg PUBLIC "-//W3C//DTD SVG 1.1//EN" "http://www.w3.org/Graphics/SVG/1.1/DTD/svg11.dtd"><svg t="1722759947087" class="icon" viewBox="0 0 1024 1024" version="1.1" xmlns="http://www.w3.org/2000/svg" p-id="12426" xmlns:xlink="http://www.w3.org/1999/xlink" width="200" height="200"><path d="M618.671543 605.330286l-101.610057 77.180343L415.451429 605.330286S169.311086 511.356343 220.949943 227.181714C253.5424 47.864686 414.339657 1.141029 511.093029 0.585143c96.694857 0 257.550629 46.723657 289.5872 226.011428 51.638857 284.730514-182.008686 378.733714-182.008686 378.733715z" fill="#484848" p-id="12427"></path><path d="M515.978971 56.554057c4.885943 0 7.606857 0.555886 7.606858 0.555886s202.108343-28.2624 261.880685 257.550628c19.573029 2.720914 25.541486-12.4928 25.541486-12.4928s-22.820571-272.764343-287.422171-272.764342h-7.606858v27.150628z" fill="#74797D" p-id="12428"></path><path d="M796.350171 338.007771c16.296229 4.359314 21.182171 29.344914 10.8544 55.442286-10.327771 26.068114-32.592457 43.446857-48.888685 38.560914-16.296229-4.330057-21.211429-29.344914-10.883657-55.413028 10.327771-25.541486 32.065829-42.920229 48.917942-38.590172z" fill="#FFDDB8" p-id="12429"></path><path d="M235.607771 336.925257c-16.296229 4.359314-21.182171 29.9008-10.8544 55.968914 10.825143 26.097371 32.592457 44.002743 48.859429 39.1168 16.325486-4.330057 21.211429-29.871543 10.883657-55.968914-9.771886-26.068114-32.036571-44.002743-48.888686-39.1168z" fill="#F5D4B1" p-id="12430"></path><path d="M510.537143 999.804343h375.456914s-18.461257-216.239543-274.929371-249.914514c-70.100114-4.359314-100.527543-2.720914-100.527543-2.720915v252.635429z" fill="#3B5E7C" p-id="12431"></path><path d="M508.898743 999.804343H135.080229s18.490514-216.239543 274.402742-249.914514c69.544229-4.359314 99.971657-2.720914 99.971658-2.720915v252.635429h-0.555886z" fill="#283F53" p-id="12432"></path><path d="M416.533943 609.718857h197.778286v303.689143h-197.778286z" fill="#FFDDB8" p-id="12433"></path><path d="M416.533943 611.854629h197.778286v50.556342l-197.778286 98.889143v-149.445485z" fill="#E5C6A5" p-id="12434"></path><path d="M510.537143 999.277714h62.493257c8.133486-10.883657 105.940114-230.370743 105.413486-233.647543-0.555886-2.165029-128.234057 20.655543-128.234057 20.655543l-39.672686-22.820571v235.812571z" fill="#FFFFFF" p-id="12435"></path><path d="M544.241371 963.437714s2.691657 26.624 23.903086 2.135772c21.182171-24.429714-51.082971-132.564114-51.082971-132.564115l27.179885 130.399086z" fill="#3B5E7C" p-id="12436"></path><path d="M517.617371 999.277714h-62.493257c-8.162743-11.410286-105.969371-230.370743-105.413485-233.647543 0.555886-2.165029 131.4816 20.099657 131.4816 20.099658l36.425142-18.461258v232.009143z" fill="#E0ECFF" p-id="12437"></path><path d="M618.671543 708.608l67.3792 45.641143s1.609143 128.731429 0 123.845486c-1.6384-4.885943-171.710171-111.381943-171.710172-111.381943l104.330972-58.133943z" fill="#FFFFFF" p-id="12438"></path><path d="M521.4208 833.009371s-71.738514 108.1344-50.556343 132.564115c21.211429 24.458971 23.932343-2.165029 23.932343-2.165029l26.624-130.399086z" fill="#283F53" p-id="12439"></path><path d="M410.565486 708.608L343.186286 754.249143s-1.6384 128.731429 0 123.845486c1.6384-4.885943 171.710171-111.381943 171.710171-111.381943L410.565486 708.608z" fill="#FFFFFF" p-id="12440"></path><path d="M514.896457 844.419657s97.250743 69.544229 98.333257 23.903086v-78.2336s-8.133486-21.738057-44.558628 0c-51.053714 28.2624-53.774629 30.427429-53.774629 30.427428v23.903086z" fill="#3B5E7C" p-id="12441"></path><path d="M520.309029 843.863771s-97.250743 70.100114-98.333258 24.458972v-79.316114s8.162743-21.738057 44.558629 0c51.082971 28.789029 53.774629 30.427429 53.774629 30.427428v24.429714z" fill="#283F53" p-id="12442"></path><path d="M235.051886 819.960686v179.843657H131.832686c0.526629 0 10.327771-103.775086 103.2192-179.843657z m652.580571 179.843657H784.384v-179.843657c92.920686 76.068571 103.248457 179.843657 103.248457 179.843657z" fill="#E0ECFF" p-id="12443"></path><path d="M296.462629 523.849143c43.476114 73.347657 182.564571 121.153829 216.795428 122.792228V147.309714c-145.6128 0-251.582171 111.937829-251.582171 249.943772 0 46.723657 13.048686 89.088 34.786743 126.595657z" fill="#F5D4B1" p-id="12444"></path><path d="M729.4976 523.849143c-44.002743 73.347657-184.7296 121.153829-218.960457 122.792228V147.309714c147.2512 0 254.303086 111.937829 254.303086 249.943772a243.5072 243.5072 0 0 1-35.342629 126.595657z" fill="#FFDDB8" p-id="12445"></path><path d="M608.899657 126.683429s-127.707429 149.942857-343.420343 217.322057C217.673143 274.432 228.5568 202.166857 228.5568 202.166857s187.450514-132.593371 380.342857-75.541943z" fill="#484848" p-id="12446"></path><path d="M626.2784 560.800914s122.792229-49.444571 154.302171-110.855314c20.655543 3.803429 15.213714 13.575314 15.213715 13.575314s-45.641143 59.245714-161.3824 111.937829c-45.641143 10.883657-8.133486-14.657829-8.133486-14.657829z" fill="#91959B" p-id="12447"></path><path d="M805.566171 300.529371c-49.9712-5.441829-44.529371 42.920229-51.053714 98.889143-6.524343 55.968914-22.293943 99.445029 27.150629 104.8576 50.000457 5.441829 95.6416-36.395886 102.165943-92.891428 7.050971-55.968914-28.2624-105.413486-78.262858-110.855315z" fill="#484848" p-id="12448"></path><path d="M217.673143 300.529371c50.000457-5.441829 44.558629 42.920229 51.082971 98.889143 6.524343 55.968914 22.820571 99.445029-27.179885 104.8576C191.634286 509.717943 145.993143 467.880229 139.439543 411.384686c-6.524343-55.968914 28.789029-105.413486 78.2336-110.855315z" fill="#333333" p-id="12449"></path><path d="M583.358171 540.672c27.706514-4.330057 53.248 5.441829 57.578058 22.820571 4.359314 16.852114-14.657829 34.816-42.364343 39.146058-27.706514 4.330057-53.248-5.441829-57.607315-22.820572-3.803429-16.852114 15.213714-34.230857 42.3936-39.1168z" fill="#484848" p-id="12450"></path><path d="M517.617371 56.554057c-4.9152 0-7.606857 0.555886-7.606857 0.555886S307.317029 28.320914 248.100571 314.660571c-19.543771 2.720914-25.541486-12.4928-25.541485-12.4928s22.820571-272.764343 287.451428-272.764342h7.606857v27.150628z" fill="#5F6366" p-id="12451"></path></svg>