<svg width="43" height="40" viewBox="0 0 43 40" fill="none" xmlns="http://www.w3.org/2000/svg">
    <path d="M10.75 4C10.75 2.20508 12.2051 0.75 14 0.75H30C30.1212 0.75 30.2375 0.798159 30.3232 0.883885L41.1161 11.6768C41.2018 11.7625 41.25 11.8788 41.25 12V36C41.25 37.7949 39.7949 39.25 38 39.25H14C12.2051 39.25 10.75 37.7949 10.75 36V4Z" fill="white" stroke="#D0D5DD" stroke-width="1.5"/>
    <path d="M30 0.5V8C30 10.2091 31.7909 12 34 12H41.5" stroke="#D0D5DD" stroke-width="1.5"/>
    <rect y="18" width="34" height="16" rx="2" fill="#444CE7"/>
    <path d="M6.41628 30H3.83816V22.7273H6.43759C7.16912 22.7273 7.79886 22.8729 8.32679 23.1641C8.85473 23.4529 9.26074 23.8684 9.54483 24.4105C9.83129 24.9527 9.97452 25.6013 9.97452 26.3565C9.97452 27.1141 9.83129 27.7652 9.54483 28.3097C9.26074 28.8542 8.85236 29.272 8.31969 29.5632C7.78939 29.8544 7.15492 30 6.41628 30ZM5.3758 28.6825H6.35236C6.80691 28.6825 7.18925 28.602 7.49938 28.4411C7.81188 28.2777 8.04625 28.0256 8.2025 27.6847C8.36112 27.3414 8.44043 26.8987 8.44043 26.3565C8.44043 25.8191 8.36112 25.38 8.2025 25.0391C8.04625 24.6982 7.81306 24.4472 7.50293 24.2862C7.1928 24.1252 6.81046 24.0447 6.35591 24.0447H5.3758V28.6825ZM11.9569 30H10.3092L12.8199 22.7273H14.8014L17.3085 30H15.6608L13.839 24.3892H13.7822L11.9569 30ZM11.854 27.1413H15.746V28.3416H11.854V27.1413ZM18.1839 30V22.7273H21.0532C21.6024 22.7273 22.0712 22.8255 22.4594 23.022C22.8501 23.2161 23.1472 23.492 23.3508 23.8494C23.5567 24.2045 23.6597 24.6224 23.6597 25.103C23.6597 25.5859 23.5555 26.0014 23.3472 26.3494C23.1389 26.6951 22.837 26.9602 22.4417 27.1449C22.0487 27.3295 21.5728 27.4219 21.0141 27.4219H19.093V26.1861H20.7655C21.0591 26.1861 21.3029 26.1458 21.4971 26.0653C21.6912 25.9848 21.8356 25.8641 21.9303 25.7031C22.0274 25.5421 22.0759 25.3421 22.0759 25.103C22.0759 24.8615 22.0274 24.6579 21.9303 24.4922C21.8356 24.3265 21.69 24.201 21.4935 24.1158C21.2994 24.0282 21.0544 23.9844 20.7584 23.9844H19.7215V30H18.1839ZM22.1114 26.6903L23.9189 30H22.2215L20.453 26.6903H22.1114ZM24.4694 23.995V22.7273H30.4424V23.995H28.2158V30H26.6959V23.995H24.4694Z" fill="white"/>
</svg>
