<svg width="28" height="28" viewBox="0 0 28 28" fill="none" xmlns="http://www.w3.org/2000/svg">
    <g clip-path="url(#clip0_7051_86943)">
        <path d="M13.9702 11.7005C21.7122 11.7005 27.9422 9.08075 27.9422 5.88C27.9422 5.29725 27.7672 4.774 27.3595 4.249C27.1845 4.01625 27.0095 3.84125 26.8345 3.6085C26.7333 3.49505 26.616 3.39716 26.4862 3.318C26.3707 3.2025 26.1957 3.08525 26.0207 2.968C25.9052 2.91025 25.788 2.793 25.6707 2.73525C25.438 2.56025 25.1475 2.44475 24.9147 2.26975C24.3897 1.97925 23.751 1.74475 23.1105 1.456C22.4254 1.19973 21.7253 0.985829 21.014 0.8155C20.5485 0.69825 20.0252 0.58275 19.5002 0.4655C18.1355 0.214568 16.7549 0.0590251 15.3685 0C14.903 0.05775 14.4357 0.05775 13.9702 0.05775C13.5047 0.05775 13.0392 0.05775 12.516 0.11725C11.06 0.175 9.66349 0.35 8.38249 0.58275C7.85748 0.69825 7.33424 0.75775 6.86874 0.87325C6.17049 1.04825 5.47224 1.22325 4.83174 1.456C4.19124 1.68875 3.66798 1.9215 3.14298 2.15425C2.96798 2.26975 2.73523 2.387 2.56198 2.50425C1.97923 2.8525 1.51198 3.2025 1.10598 3.6085C0.815485 3.90075 0.580985 4.19125 0.405985 4.4835C0.139239 4.9003 -0.00172003 5.38515 -1.52351e-05 5.88C-1.52351e-05 9.0825 6.22998 11.7005 13.9702 11.7005Z" fill="#A0C2F9"/>
        <path d="M13.9702 14.0302C8.49975 14.0302 3.0275 12.7492 0 10.3027V14.0302C0 17.2327 6.23 19.8507 13.9702 19.8507C21.7122 19.8507 27.9422 17.231 27.9422 14.0302V10.3027C24.9147 12.7492 19.4425 14.0302 13.9702 14.0302ZM4.074 16.3577C3.76564 16.3568 3.47017 16.2339 3.25212 16.0159C3.03408 15.7978 2.91117 15.5023 2.91025 15.194C2.91025 14.5535 3.43525 14.0302 4.074 14.0302C4.7145 14.0302 5.2395 14.5535 5.2395 15.194C5.2395 15.8345 4.7145 16.3577 4.074 16.3577Z" fill="#036EFF"/>
        <path d="M13.9702 22.1787C8.49975 22.1787 3.0275 20.8977 0 18.4512V22.7597H0.05775C0.75775 25.7294 6.69375 27.9992 13.9702 27.9992C21.2467 27.9992 27.1845 25.7294 27.8827 22.7597H27.9422V18.4529C24.9147 20.8977 19.4425 22.1787 13.9702 22.1787ZM4.074 24.5062C3.76564 24.5052 3.47017 24.3823 3.25212 24.1643C3.03408 23.9463 2.91117 23.6508 2.91025 23.3424C2.91025 22.7019 3.43525 22.1787 4.074 22.1787C4.7145 22.1787 5.2395 22.7019 5.2395 23.3424C5.2395 23.9829 4.7145 24.5062 4.074 24.5062Z" fill="#036EFF"/>
    </g>
    <defs>
        <clipPath id="clip0_7051_86943">
            <rect width="28" height="28" fill="white"/>
        </clipPath>
    </defs>
</svg>
