<svg width="21" height="20" viewBox="0 0 21 20" fill="none" xmlns="http://www.w3.org/2000/svg">
    <g clip-path="url(#clip0_4960_53607)">
        <path d="M0.5 10C0.5 12.6522 1.55357 15.1957 3.42893 17.0711C5.3043 18.9464 7.84784 20 10.5 20C13.1522 20 15.6957 18.9464 17.5711 17.0711C19.4464 15.1957 20.5 12.6522 20.5 10C20.5 7.34784 19.4464 4.8043 17.5711 2.92893C15.6957 1.05357 13.1522 0 10.5 0C7.84784 0 5.3043 1.05357 3.42893 2.92893C1.55357 4.8043 0.5 7.34784 0.5 10Z" fill="white"/>
        <path d="M10.5 1.0127C5.54454 1.0127 1.51274 5.04449 1.51274 9.99996C1.51274 14.9554 5.54454 18.9872 10.5 18.9872C15.4555 18.9872 19.4873 14.9554 19.4873 9.99996C19.4873 5.04449 15.4555 1.0127 10.5 1.0127ZM2.71104 9.99996C2.71104 8.12164 3.3796 6.39656 4.49102 5.04996C4.60735 5.17978 4.70272 5.35205 4.74715 5.58072C4.84051 6.07103 4.49751 7.68025 4.9344 8.03375C5.60046 8.57299 6.63198 8.11963 7.16223 8.44566C7.69948 8.7752 9.03807 10.3125 9.56085 9.99996C10.4396 9.4757 8.93323 7.40264 8.86833 6.84195C8.77245 6.01162 9.29671 5.03799 10.2533 5.39148C10.8535 5.61367 10.9783 6.41355 11.539 6.4465C12.0997 6.47945 11.8381 4.71895 11.8356 4.43535C11.8296 3.64098 12.6125 3.07578 13.4458 2.79117C16.2838 3.95504 18.289 6.74707 18.289 9.99996C18.2899 11.2602 17.9831 12.5016 17.3952 13.6163C17.3303 12.9188 17.1606 12.1424 16.7362 11.9048C15.9118 11.4434 14.9946 11.8848 14.3296 11.1463C14.054 10.8418 14.4 9.47869 13.5716 9.15117C11.9614 8.51457 10.6568 9.82772 10.2614 10.8827C10.0961 11.3241 10.0382 11.8638 10.1166 12.3901C10.133 14.0812 9.25776 14.0827 9.58979 14.7607C9.95378 15.5037 11.2539 15.24 11.0008 16.7953C10.9654 17.0248 10.8541 17.2357 10.6848 17.3945C10.5337 17.4946 10.3799 17.5903 10.2234 17.6816C10.1361 17.7159 10.0467 17.7446 9.95577 17.7675C5.9145 17.4879 2.71104 14.1121 2.71104 9.99996Z" fill="#3576EA"/>
    </g>
    <defs>
        <clipPath id="clip0_4960_53607">
            <rect width="20" height="20" fill="white" transform="translate(0.5)"/>
        </clipPath>
    </defs>
</svg>
