<svg width="24" height="24" viewBox="0 0 24 24" fill="none" xmlns="http://www.w3.org/2000/svg">
    <path d="M15.3333 7.00008V6.33341C15.3333 5.39999 15.3333 4.93328 15.1517 4.57676C14.9919 4.26316 14.7369 4.00819 14.4233 3.8484C14.0668 3.66675 13.6001 3.66675 12.6667 3.66675H11.3333C10.3999 3.66675 9.9332 3.66675 9.57668 3.8484C9.26308 4.00819 9.00811 4.26316 8.84832 4.57676C8.66667 4.93328 8.66667 5.39999 8.66667 6.33341V7.00008M10.3333 11.5834V15.7501M13.6667 11.5834V15.7501M4.5 7.00008H19.5M17.8333 7.00008V16.3334C17.8333 17.7335 17.8333 18.4336 17.5608 18.9684C17.3212 19.4388 16.9387 19.8212 16.4683 20.0609C15.9335 20.3334 15.2335 20.3334 13.8333 20.3334H10.1667C8.76654 20.3334 8.06647 20.3334 7.53169 20.0609C7.06129 19.8212 6.67883 19.4388 6.43915 18.9684C6.16667 18.4336 6.16667 17.7335 6.16667 16.3334V7.00008" stroke="#667085" stroke-width="1.66667" stroke-linecap="round" stroke-linejoin="round"/>
</svg>