<svg width="40" height="40" viewBox="0 0 40 40" fill="none" xmlns="http://www.w3.org/2000/svg">
    <g clip-path="url(#clip0_4085_27536)">
        <path d="M20 0.078125C8.99219 0.078125 0.078125 8.99219 0.078125 20C0.078125 31.0078 8.99219 39.9219 20 39.9219C31.0078 39.9219 39.9219 31.0078 39.9219 20C39.9219 8.99219 30.9883 0.078125 20 0.078125ZM29.2148 17.3438C29.1758 17.5234 29.0742 17.7656 28.9336 18.0898L28.9141 18.1094C28.0703 19.8984 25.8945 23.4023 25.8945 23.4023L25.875 23.3828L25.2305 24.4883H28.3086L22.4336 32.2969L23.7617 26.9844H21.3477L22.1914 23.4609C21.5078 23.6211 20.7031 23.8438 19.7578 24.1641C19.7578 24.1641 18.4688 24.9102 16.0547 22.7148C16.0547 22.7148 14.4258 21.2656 15.3711 20.9258C15.7734 20.7656 17.3242 20.582 18.5508 20.4219C20.1992 20.1992 21.2266 20.0781 21.2266 20.0781C21.2266 20.0781 16.1367 20.1602 14.9297 19.957C13.7227 19.7773 12.1914 17.7422 11.8711 15.9727C11.8711 15.9727 11.3672 15.0078 12.957 15.4688C14.5273 15.9297 21.1289 17.2578 21.1289 17.2578C21.1289 17.2578 12.5547 14.6484 11.9922 14.0039C11.4297 13.3594 10.3203 10.5039 10.4609 8.75C10.4609 8.75 10.5195 8.30859 10.9648 8.42969C10.9648 8.42969 17.2852 11.3281 21.6094 12.8984C25.957 14.5078 29.7188 15.3125 29.2148 17.3438Z" fill="#3296FA"/>
    </g>
    <defs>
        <clipPath id="clip0_4085_27536">
            <rect width="40" height="40" fill="white"/>
        </clipPath>
    </defs>
</svg>
