<svg width="42" height="40" viewBox="0 0 42 40" fill="none" xmlns="http://www.w3.org/2000/svg">
    <path d="M9.75 4C9.75 2.20508 11.2051 0.75 13 0.75H29C29.1212 0.75 29.2375 0.798159 29.3232 0.883885L40.1161 11.6768C40.2018 11.7625 40.25 11.8788 40.25 12V36C40.25 37.7949 38.7949 39.25 37 39.25H13C11.2051 39.25 9.75 37.7949 9.75 36V4Z" fill="white" stroke="#D0D5DD" stroke-width="1.5"/>
    <path d="M29 0.5V8C29 10.2091 30.7909 12 33 12H40.5" stroke="#D0D5DD" stroke-width="1.5"/>
    <rect x="0.5" y="18" width="31" height="16" rx="2" fill="#B3B8DB"/>
    <path d="M7.19363 30H4.6155V22.7273H7.21493C7.94647 22.7273 8.5762 22.8729 9.10414 23.1641C9.63207 23.4529 10.0381 23.8684 10.3222 24.4105C10.6086 24.9527 10.7519 25.6013 10.7519 26.3565C10.7519 27.1141 10.6086 27.7652 10.3222 28.3097C10.0381 28.8542 9.62971 29.272 9.09703 29.5632C8.56673 29.8544 7.93226 30 7.19363 30ZM6.15314 28.6825H7.12971C7.58425 28.6825 7.96659 28.602 8.27672 28.4411C8.58922 28.2777 8.8236 28.0256 8.97985 27.6847C9.13846 27.3414 9.21777 26.8987 9.21777 26.3565C9.21777 25.8191 9.13846 25.38 8.97985 25.0391C8.8236 24.6982 8.59041 24.4472 8.28027 24.2862C7.97014 24.1252 7.5878 24.0447 7.13326 24.0447H6.15314V28.6825ZM11.8909 22.7273H13.7872L15.79 27.6136H15.8753L17.8781 22.7273H19.7744V30H18.2829V25.2663H18.2226L16.3405 29.9645H15.3248L13.4427 25.2486H13.3824V30H11.8909V22.7273ZM25.8637 25.0781C25.814 24.9053 25.7442 24.7526 25.6542 24.62C25.5642 24.4851 25.4542 24.3714 25.324 24.2791C25.1961 24.1844 25.0493 24.1122 24.8836 24.0625C24.7203 24.0128 24.5392 23.9879 24.3403 23.9879C23.9686 23.9879 23.6419 24.0803 23.3602 24.2649C23.0808 24.4496 22.863 24.7183 22.7068 25.071C22.5505 25.4214 22.4724 25.8499 22.4724 26.3565C22.4724 26.8632 22.5493 27.294 22.7032 27.6491C22.8571 28.0043 23.0749 28.2753 23.3566 28.4624C23.6383 28.647 23.971 28.7393 24.3545 28.7393C24.7025 28.7393 24.9996 28.6778 25.2458 28.5547C25.4944 28.4292 25.6838 28.2528 25.814 28.0256C25.9466 27.7983 26.0129 27.5296 26.0129 27.2195L26.3254 27.2656H24.4504V26.108H27.4937V27.0241C27.4937 27.6634 27.3588 28.2126 27.0889 28.6719C26.819 29.1288 26.4473 29.4815 25.9738 29.7301C25.5003 29.9763 24.9582 30.0994 24.3474 30.0994C23.6656 30.0994 23.0666 29.9491 22.5505 29.6484C22.0344 29.3454 21.632 28.9157 21.3431 28.3594C21.0567 27.8007 20.9134 27.1378 20.9134 26.3707C20.9134 25.7812 20.9987 25.2557 21.1691 24.794C21.3419 24.33 21.5834 23.937 21.8936 23.6151C22.2037 23.2931 22.5647 23.0481 22.9767 22.88C23.3886 22.7119 23.8348 22.6278 24.3154 22.6278C24.7274 22.6278 25.1109 22.6882 25.466 22.8089C25.8211 22.9273 26.136 23.0954 26.4106 23.3132C26.6876 23.531 26.9137 23.7902 27.0889 24.0909C27.2641 24.3892 27.3765 24.7183 27.4262 25.0781H25.8637Z" fill="white"/>
</svg>
