<svg width="18" height="18" viewBox="0 0 18 18" fill="none" xmlns="http://www.w3.org/2000/svg">
    <path d="M10.921 13.802H4.19799V11.882H10.921M13.802 9.95996H4.19799V8.03996H13.802M13.802 6.11796H4.19799V4.19796H13.802M15.723 0.355957H2.27699C1.21099 0.355957 0.356995 1.21096 0.356995 2.27596V15.723C0.356995 16.2322 0.55928 16.7205 0.91935 17.0806C1.27942 17.4407 1.76778 17.643 2.27699 17.643H15.723C15.9752 17.6431 16.225 17.5935 16.4581 17.4971C16.6911 17.4007 16.9029 17.2593 17.0813 17.081C17.2597 16.9027 17.4012 16.691 17.4977 16.4579C17.5943 16.2249 17.644 15.9752 17.644 15.723V2.27696C17.6441 2.02473 17.5946 1.77496 17.4981 1.5419C17.4017 1.30884 17.2603 1.09706 17.082 0.918666C16.9037 0.740271 16.692 0.598755 16.459 0.502204C16.226 0.405652 15.9762 0.355957 15.724 0.355957H15.723Z" fill="#7D89B0"/>
</svg>
