<svg width="42" height="40" viewBox="0 0 42 40" fill="none" xmlns="http://www.w3.org/2000/svg">
    <path d="M9.75 4C9.75 2.20508 11.2051 0.75 13 0.75H29C29.1212 0.75 29.2375 0.798159 29.3232 0.883885L40.1161 11.6768C40.2018 11.7625 40.25 11.8788 40.25 12V36C40.25 37.7949 38.7949 39.25 37 39.25H13C11.2051 39.25 9.75 37.7949 9.75 36V4Z" fill="white" stroke="#D0D5DD" stroke-width="1.5"/>
    <path d="M29 0.5V8C29 10.2091 30.7909 12 33 12H40.5" stroke="#D0D5DD" stroke-width="1.5"/>
    <rect x="0.5" y="18" width="31" height="16" rx="2" fill="#444CE7"/>
    <path d="M6.93484 30H4.35671V22.7273H6.95614C7.68768 22.7273 8.31741 22.8729 8.84535 23.1641C9.37328 23.4529 9.7793 23.8684 10.0634 24.4105C10.3498 24.9527 10.4931 25.6013 10.4931 26.3565C10.4931 27.1141 10.3498 27.7652 10.0634 28.3097C9.7793 28.8542 9.37092 29.272 8.83825 29.5632C8.30794 29.8544 7.67347 30 6.93484 30ZM5.89435 28.6825H6.87092C7.32546 28.6825 7.7078 28.602 8.01793 28.4411C8.33043 28.2777 8.56481 28.0256 8.72106 27.6847C8.87968 27.3414 8.95898 26.8987 8.95898 26.3565C8.95898 25.8191 8.87968 25.38 8.72106 25.0391C8.56481 24.6982 8.33162 24.4472 8.02148 24.2862C7.71135 24.1252 7.32901 24.0447 6.87447 24.0447H5.89435V28.6825ZM11.6321 30V22.7273H16.4474V23.995H13.1697V25.728H16.1278V26.9957H13.1697V30H11.6321ZM17.4533 30V24.5455H18.9661V30H17.4533ZM18.2132 23.8423C17.9883 23.8423 17.7954 23.7678 17.6344 23.6186C17.4758 23.4671 17.3965 23.286 17.3965 23.0753C17.3965 22.867 17.4758 22.6882 17.6344 22.5391C17.7954 22.3875 17.9883 22.3118 18.2132 22.3118C18.4382 22.3118 18.6299 22.3875 18.7885 22.5391C18.9495 22.6882 19.03 22.867 19.03 23.0753C19.03 23.286 18.9495 23.4671 18.7885 23.6186C18.6299 23.7678 18.4382 23.8423 18.2132 23.8423ZM21.6907 22.7273V30H20.1779V22.7273H21.6907ZM25.3883 30.1065C24.8272 30.1065 24.3443 29.9929 23.9395 29.7656C23.537 29.536 23.2269 29.2116 23.0091 28.7926C22.7913 28.3712 22.6824 27.8729 22.6824 27.2976C22.6824 26.7365 22.7913 26.2441 23.0091 25.8203C23.2269 25.3965 23.5334 25.0663 23.9288 24.8295C24.3265 24.5928 24.7929 24.4744 25.3279 24.4744C25.6878 24.4744 26.0228 24.5324 26.3329 24.6484C26.6454 24.7621 26.9177 24.9337 27.1497 25.1634C27.3841 25.393 27.5663 25.6818 27.6966 26.0298C27.8268 26.3755 27.8919 26.7803 27.8919 27.2443V27.6598H23.286V26.7223H26.4679C26.4679 26.5045 26.4205 26.3116 26.3258 26.1435C26.2311 25.9754 26.0997 25.844 25.9316 25.7493C25.7659 25.6522 25.573 25.6037 25.3528 25.6037C25.1232 25.6037 24.9196 25.657 24.742 25.7635C24.5668 25.8677 24.4295 26.0085 24.3301 26.1861C24.2306 26.3613 24.1797 26.5566 24.1774 26.772V27.6634C24.1774 27.9332 24.2271 28.1664 24.3265 28.3629C24.4283 28.5594 24.5716 28.7109 24.7562 28.8175C24.9409 28.924 25.1599 28.9773 25.4132 28.9773C25.5813 28.9773 25.7351 28.9536 25.8748 28.9062C26.0145 28.8589 26.1341 28.7879 26.2335 28.6932C26.3329 28.5985 26.4087 28.4825 26.4608 28.3452L27.8599 28.4375C27.7889 28.7737 27.6433 29.0672 27.4231 29.3182C27.2053 29.5668 26.9236 29.7609 26.5779 29.9006C26.2347 30.0379 25.8381 30.1065 25.3883 30.1065Z" fill="white"/>
</svg>
