<svg width="20" height="20" viewBox="0 0 20 20" fill="none" xmlns="http://www.w3.org/2000/svg">
    <path d="M18.5234 15.5378C18.428 16.5778 17.6134 17.3333 16.7462 17.2193C13.961 16.8675 11.1757 16.5156 8.39047 16.1637C7.52241 16.0495 6.91 15.2553 7.00178 14.3959C7.4102 10.572 7.44017 6.71713 7.09126 2.88732C7.01379 2.02606 7.6232 1.23159 8.47316 1.11981L16.6635 0.0851865C17.5128 -0.0265922 18.3245 0.728823 18.4339 1.76693C18.9168 6.34308 18.9467 10.9557 18.5234 15.5378Z" fill="#F8C51C"/>
    <path d="M9.23723 12.9629C10.1395 13.0276 11.0417 13.0925 11.9439 13.1574C11.9238 13.435 11.9018 13.7124 11.878 13.9898L9.17114 13.7596C9.19486 13.494 9.21691 13.2286 9.23723 12.9629Z" fill="#CCCCCC"/>
    <path d="M10.8658 19.9193C8.08631 19.5238 5.30694 19.1282 2.52749 18.7326C1.66148 18.6043 1.06196 17.7999 1.16417 16.9416C1.62006 13.1197 1.65004 9.25903 1.25358 5.43053C1.16552 4.57014 1.76196 3.76547 2.61002 3.6397L10.7832 2.47646C11.6305 2.35085 12.457 3.1114 12.5816 4.17061C13.1317 8.8378 13.1617 13.5517 12.6711 18.2255C12.5605 19.2871 11.7308 20.0476 10.8658 19.9193Z" fill="#EDEDED"/>
    <path d="M3.41127 6.28919L10.7354 5.625C10.7642 5.92808 10.7909 6.23132 10.8153 6.53472L3.47435 7.09022C3.4553 6.82306 3.43427 6.55604 3.41127 6.28919ZM3.5606 8.5971L8.93309 8.34152C8.94787 8.63543 8.96036 8.92958 8.97064 9.22366C7.1768 9.28223 5.38305 9.34081 3.58921 9.39955C3.58166 9.132 3.57212 8.8645 3.5606 8.5971ZM3.61095 10.908C6.07728 10.8965 8.54352 10.8847 11.0099 10.8731C11.0127 11.1773 11.0133 11.4814 11.0117 11.7856L3.60542 11.7107C3.60913 11.4432 3.61103 11.1755 3.61095 10.908ZM3.56249 13.2187C5.69973 13.2998 7.83696 13.3812 9.97419 13.4624C9.96392 13.7615 9.95135 14.0606 9.93664 14.3596C7.79862 14.2465 5.66052 14.1335 3.52249 14.0205C3.53791 13.7532 3.55119 13.4859 3.56249 13.2187ZM3.41538 15.5258L6.12052 15.7445C6.09759 16.0247 6.07269 16.3047 6.04566 16.5846L3.34131 16.3257C3.36787 16.0592 3.39253 15.7925 3.41538 15.5258Z" fill="#B0B0B0"/>
</svg>
