<svg width="28" height="28" viewBox="0 0 28 28" fill="none" xmlns="http://www.w3.org/2000/svg">
    <path d="M16.3333 2.64844V7.4674C16.3333 8.1208 16.3333 8.44749 16.4605 8.69706C16.5723 8.91658 16.7508 9.09506 16.9703 9.20691C17.2199 9.33407 17.5466 9.33407 18.2 9.33407H23.0189M18.6666 15.1673H9.33329M18.6666 19.834H9.33329M11.6666 10.5007H9.33329M16.3333 2.33398H10.2666C8.30644 2.33398 7.32635 2.33398 6.57766 2.71546C5.91909 3.05102 5.38366 3.58645 5.0481 4.24502C4.66663 4.99371 4.66663 5.9738 4.66663 7.93398V20.0673C4.66663 22.0275 4.66663 23.0076 5.0481 23.7563C5.38366 24.4149 5.91909 24.9503 6.57766 25.2858C7.32635 25.6673 8.30644 25.6673 10.2666 25.6673H17.7333C19.6935 25.6673 20.6736 25.6673 21.4223 25.2858C22.0808 24.9503 22.6163 24.4149 22.9518 23.7563C23.3333 23.0076 23.3333 22.0275 23.3333 20.0673V9.33398L16.3333 2.33398Z" stroke="#667085" stroke-width="1.33" stroke-linecap="round" stroke-linejoin="round"/>
</svg>
