<svg width="43" height="40" viewBox="0 0 43 40" fill="none" xmlns="http://www.w3.org/2000/svg">
    <path d="M10.75 4C10.75 2.20508 12.2051 0.75 14 0.75H30C30.1212 0.75 30.2375 0.798159 30.3232 0.883885L41.1161 11.6768C41.2018 11.7625 41.25 11.8788 41.25 12V36C41.25 37.7949 39.7949 39.25 38 39.25H14C12.2051 39.25 10.75 37.7949 10.75 36V4Z" fill="white" stroke="#D0D5DD" stroke-width="1.5"/>
    <path d="M30 0.5V8C30 10.2091 31.7909 12 34 12H41.5" stroke="#D0D5DD" stroke-width="1.5"/>
    <rect y="18" width="36" height="16" rx="2" fill="#1570EF"/>
    <path d="M6.40554 30H3.82741V22.7273H6.42685C7.15838 22.7273 7.78812 22.8729 8.31605 23.1641C8.84399 23.4529 9.25 23.8684 9.53409 24.4105C9.82055 24.9527 9.96378 25.6013 9.96378 26.3565C9.96378 27.1141 9.82055 27.7652 9.53409 28.3097C9.25 28.8542 8.84162 29.272 8.30895 29.5632C7.77865 29.8544 7.14418 30 6.40554 30ZM5.36506 28.6825H6.34162C6.79616 28.6825 7.1785 28.602 7.48864 28.4411C7.80114 28.2777 8.03551 28.0256 8.19176 27.6847C8.35038 27.3414 8.42969 26.8987 8.42969 26.3565C8.42969 25.8191 8.35038 25.38 8.19176 25.0391C8.03551 24.6982 7.80232 24.4472 7.49219 24.2862C7.18205 24.1252 6.79972 24.0447 6.34517 24.0447H5.36506V28.6825ZM17.786 26.3636C17.786 27.1567 17.6357 27.8314 17.335 28.3878C17.0368 28.9441 16.6296 29.3691 16.1135 29.6626C15.5997 29.9538 15.0221 30.0994 14.3805 30.0994C13.7342 30.0994 13.1542 29.9527 12.6404 29.6591C12.1267 29.3655 11.7207 28.9406 11.4224 28.3842C11.1241 27.8279 10.975 27.1544 10.975 26.3636C10.975 25.5705 11.1241 24.8958 11.4224 24.3395C11.7207 23.7831 12.1267 23.3594 12.6404 23.0682C13.1542 22.7746 13.7342 22.6278 14.3805 22.6278C15.0221 22.6278 15.5997 22.7746 16.1135 23.0682C16.6296 23.3594 17.0368 23.7831 17.335 24.3395C17.6357 24.8958 17.786 25.5705 17.786 26.3636ZM16.2271 26.3636C16.2271 25.8499 16.1502 25.4167 15.9963 25.0639C15.8448 24.7112 15.6305 24.4437 15.3535 24.2614C15.0765 24.0791 14.7522 23.9879 14.3805 23.9879C14.0088 23.9879 13.6845 24.0791 13.4075 24.2614C13.1305 24.4437 12.9151 24.7112 12.7612 25.0639C12.6097 25.4167 12.5339 25.8499 12.5339 26.3636C12.5339 26.8774 12.6097 27.3106 12.7612 27.6634C12.9151 28.0161 13.1305 28.2836 13.4075 28.4659C13.6845 28.6482 14.0088 28.7393 14.3805 28.7393C14.7522 28.7393 15.0765 28.6482 15.3535 28.4659C15.6305 28.2836 15.8448 28.0161 15.9963 27.6634C16.1502 27.3106 16.2271 26.8774 16.2271 26.3636ZM25.342 25.2734H23.7866C23.7582 25.0722 23.7002 24.8935 23.6126 24.7372C23.525 24.5786 23.4125 24.4437 23.2752 24.3324C23.1379 24.2211 22.9793 24.1359 22.7994 24.0767C22.6218 24.0175 22.4289 23.9879 22.2205 23.9879C21.8441 23.9879 21.5162 24.0814 21.2369 24.2685C20.9575 24.4531 20.7409 24.723 20.587 25.0781C20.4331 25.4309 20.3562 25.8594 20.3562 26.3636C20.3562 26.8821 20.4331 27.3177 20.587 27.6705C20.7433 28.0232 20.9611 28.2895 21.2404 28.4695C21.5198 28.6494 21.8429 28.7393 22.2099 28.7393C22.4158 28.7393 22.6064 28.7121 22.7816 28.6577C22.9592 28.6032 23.1166 28.5239 23.2539 28.4197C23.3912 28.3132 23.5049 28.1842 23.5948 28.0327C23.6871 27.8812 23.7511 27.7083 23.7866 27.5142L25.342 27.5213C25.3017 27.8551 25.2011 28.1771 25.0401 28.4872C24.8815 28.795 24.6673 29.0708 24.3974 29.3146C24.1299 29.5561 23.8103 29.7479 23.4386 29.8899C23.0692 30.0296 22.6514 30.0994 22.185 30.0994C21.5363 30.0994 20.9563 29.9527 20.445 29.6591C19.936 29.3655 19.5335 28.9406 19.2376 28.3842C18.944 27.8279 18.7972 27.1544 18.7972 26.3636C18.7972 25.5705 18.9464 24.8958 19.2447 24.3395C19.543 23.7831 19.9478 23.3594 20.4592 23.0682C20.9705 22.7746 21.5458 22.6278 22.185 22.6278C22.6064 22.6278 22.997 22.687 23.3569 22.8054C23.7191 22.9238 24.0399 23.0966 24.3192 23.3239C24.5986 23.5488 24.8259 23.8246 25.0011 24.1513C25.1786 24.478 25.2923 24.852 25.342 25.2734ZM27.7301 22.7273L29.1967 25.206H29.2536L30.7273 22.7273H32.4638L30.2443 26.3636L32.5135 30H30.745L29.2536 27.5178H29.1967L27.7053 30H25.9439L28.2202 26.3636L25.9865 22.7273H27.7301Z" fill="white"/>
</svg>
