<svg width="16" height="16" viewBox="0 0 16 16" fill="none" xmlns="http://www.w3.org/2000/svg">
    <path d="M7.99999 8.66634C8.36818 8.66634 8.66666 8.36786 8.66666 7.99967C8.66666 7.63148 8.36818 7.33301 7.99999 7.33301C7.6318 7.33301 7.33332 7.63148 7.33332 7.99967C7.33332 8.36786 7.6318 8.66634 7.99999 8.66634Z" stroke="#667085" stroke-width="1.33" stroke-linecap="round" stroke-linejoin="round"/>
    <path d="M12.6667 8.66634C13.0348 8.66634 13.3333 8.36786 13.3333 7.99967C13.3333 7.63148 13.0348 7.33301 12.6667 7.33301C12.2985 7.33301 12 7.63148 12 7.99967C12 8.36786 12.2985 8.66634 12.6667 8.66634Z" stroke="#667085" stroke-width="1.33" stroke-linecap="round" stroke-linejoin="round"/>
    <path d="M3.33332 8.66634C3.70151 8.66634 3.99999 8.36786 3.99999 7.99967C3.99999 7.63148 3.70151 7.33301 3.33332 7.33301C2.96513 7.33301 2.66666 7.63148 2.66666 7.99967C2.66666 8.36786 2.96513 8.66634 3.33332 8.66634Z" stroke="#667085" stroke-width="1.33" stroke-linecap="round" stroke-linejoin="round"/>
</svg>
