<svg width="16" height="16" viewBox="0 0 16 16" fill="none" xmlns="http://www.w3.org/2000/svg">
    <path d="M14 11.9989L13.3332 12.7282C12.9796 13.1149 12.5001 13.3322 12.0001 13.3322C11.5001 13.3322 11.0205 13.1149 10.6669 12.7282C10.3128 12.3423 9.83332 12.1256 9.33345 12.1256C8.83359 12.1256 8.35409 12.3423 7.99998 12.7282M2 13.3322H3.11636C3.44248 13.3322 3.60554 13.3322 3.75899 13.2953C3.89504 13.2627 4.0251 13.2088 4.1444 13.1357C4.27895 13.0532 4.39425 12.9379 4.62486 12.7073L13 4.33218C13.5523 3.7799 13.5523 2.88447 13 2.33218C12.4477 1.7799 11.5523 1.7799 11 2.33218L2.62484 10.7073C2.39424 10.9379 2.27894 11.0532 2.19648 11.1878C2.12338 11.3071 2.0695 11.4372 2.03684 11.5732C2 11.7267 2 11.8897 2 12.2158V13.3322Z" stroke="#667085" stroke-linecap="round" stroke-linejoin="round"/>
</svg>
