<svg width="32" height="32" viewBox="0 0 32 32" fill="none" xmlns="http://www.w3.org/2000/svg">
    <path d="M15.9996 3.96875C11.8304 3.96875 9.98438 6.22435 9.98438 9.98395V20.5111H22.0152V9.98395C22.0148 6.22435 19.5552 3.96875 15.9996 3.96875Z" fill="#A67C52"/>
    <path d="M17.5037 15.248H14.4957L13.7441 18.2556V28.0308H18.2553V18.2556L17.5037 15.248Z" fill="#DBB59A"/>
    <path d="M6.97666 22.0154C5.56306 23.429 5.47266 28.0306 5.47266 28.0306H15.9999L12.9923 19.0078C12.9923 19.0078 7.68306 21.3086 6.97666 22.0154ZM25.0231 22.0154C24.3159 21.3082 19.0079 19.0078 19.0079 19.0078L15.9999 28.031H26.5267C26.5267 28.031 26.4367 23.429 25.0231 22.0154Z" fill="#48A0DC"/>
    <path d="M18.2552 18.2559L15.9996 28.0311H16.7516L19.0072 22.7675L22.7668 22.0155L18.2552 18.2559ZM9.23242 22.0155L12.992 22.7675L15.2476 28.0311H15.9996L13.744 18.2559L9.23242 22.0155Z" fill="white"/>
    <path d="M18.069 8.46875C17.4806 9.76995 15.4506 10.7375 12.9922 10.7375H11.499C11.5318 12.2107 11.669 13.3539 12.2406 14.4971C12.9926 16.0011 14.527 17.5047 16.0002 17.5047C17.4734 17.5047 19.0078 16.0007 19.7598 14.4971C20.4294 13.1583 20.5026 11.8191 20.5106 9.94955C20.4662 9.10435 18.8706 8.46875 18.069 8.46875Z" fill="#F6CBAD"/>
    <path d="M22.6149 8.8707C21.9581 6.4987 19.2461 4.7207 15.9997 4.7207C12.7533 4.7207 10.0413 6.4987 9.38447 8.8707C8.88287 9.1459 8.48047 9.5427 8.48047 9.9839V11.4879C8.48047 12.3183 9.90567 12.9919 10.7361 12.9919V9.9843C10.7361 7.9079 13.0925 6.2247 15.9997 6.2247C18.9069 6.2247 21.2633 7.9079 21.2633 9.9843V11.4883C21.2633 13.0999 20.2493 14.4743 18.8249 15.0091C18.6237 14.7003 18.2753 14.4959 17.8797 14.4959H16.3757C15.7529 14.4959 15.2477 15.0011 15.2477 15.6239C15.2477 16.2467 15.7529 16.7519 16.3757 16.7519H17.8797C17.9897 16.7519 18.0957 16.7359 18.1961 16.7067C20.4145 16.4151 22.1977 14.7423 22.6537 12.5799C23.1373 12.3059 23.5193 11.9183 23.5193 11.4887V9.9847C23.5189 9.5427 23.1165 9.1459 22.6149 8.8707Z" fill="#4D4D4D"/>
</svg>
