<svg width="20" height="14" viewBox="0 0 20 14" fill="none" xmlns="http://www.w3.org/2000/svg">
    <path d="M2.01677 7.59431C1.90328 7.41461 1.84654 7.32476 1.81477 7.18617C1.79091 7.08207 1.79091 6.91791 1.81477 6.81381C1.84654 6.67522 1.90328 6.58537 2.01677 6.40567C2.95461 4.92069 5.74617 1.16666 10.0003 1.16666C14.2545 1.16666 17.0461 4.92069 17.9839 6.40567C18.0974 6.58537 18.1541 6.67522 18.1859 6.81381C18.2098 6.91791 18.2098 7.08207 18.1859 7.18617C18.1541 7.32476 18.0974 7.41461 17.9839 7.5943C17.0461 9.07929 14.2545 12.8333 10.0003 12.8333C5.74617 12.8333 2.95461 9.07929 2.01677 7.59431Z" stroke="#667085" stroke-width="1.66667" stroke-linecap="round" stroke-linejoin="round"/>
    <path d="M10.0003 9.49999C11.381 9.49999 12.5003 8.3807 12.5003 6.99999C12.5003 5.61928 11.381 4.49999 10.0003 4.49999C8.61962 4.49999 7.50034 5.61928 7.50034 6.99999C7.50034 8.3807 8.61962 9.49999 10.0003 9.49999Z" stroke="#667085" stroke-width="1.66667" stroke-linecap="round" stroke-linejoin="round"/>
</svg>
