<svg width="18" height="18" viewBox="0 0 18 18" fill="none" xmlns="http://www.w3.org/2000/svg">
    <g clip-path="url(#clip0_5569_10528)">
        <path d="M5.85769 12.4976C6.27308 12.5641 7.22154 12.6347 7.66046 12.6347C11.5097 12.6347 14.0927 9.85992 14.0927 6.59984C14.0927 3.337 10.8645 0.692383 7.66115 0.692383C3.80777 0.692383 0.692383 3.337 0.692383 6.59984C0.692383 8.48846 1.43592 10.0939 2.83646 11.2487V14.1938L5.85769 12.4976Z" fill="#0A86FB"/>
        <path d="M10.5882 5.89648C11.0292 5.89648 11.3857 6.24125 11.3857 6.66841C11.3857 7.09487 11.0292 7.44033 10.5882 7.44033C10.1478 7.44033 9.79131 7.09487 9.79131 6.66841C9.79131 6.24125 10.1478 5.89648 10.5882 5.89648ZM7.36615 5.89648C7.80646 5.89648 8.16231 6.24125 8.16231 6.66841C8.16231 7.09487 7.80646 7.44033 7.36615 7.44033C6.92515 7.44033 6.56862 7.09487 6.56862 6.66841C6.56862 6.46418 6.65308 6.26687 6.80262 6.12287C6.95215 5.97748 7.155 5.89648 7.36546 5.89648H7.36615ZM4.17185 5.89648C4.61215 5.89648 4.96869 6.24125 4.96869 6.66841C4.96869 7.09487 4.61215 7.44033 4.17185 7.44033C3.73085 7.44033 3.375 7.09487 3.375 6.66841C3.37638 6.24125 3.73292 5.89648 4.17115 5.89648H4.17185Z" fill="white"/>
        <path d="M15.1366 5.43595L15.1643 5.88319C15.1677 6.30826 15.1643 6.2688 15.1643 6.66272C15.1643 10.8027 11.7955 13.6723 7.12243 13.6723H5.51489C6.79082 14.8804 8.27582 15.6191 10.3396 15.6191C10.7688 15.617 11.1994 15.5838 11.6231 15.5153L14.6277 17.3076V14.3626C16.2554 13.2826 17.3077 11.6044 17.3077 9.71303C17.3077 8.02796 16.472 6.5118 15.1366 5.43457V5.43595Z" fill="#0AF0FB"/>
    </g>
    <defs>
        <clipPath id="clip0_5569_10528">
            <rect width="18" height="18" fill="white"/>
        </clipPath>
    </defs>
</svg>
