<svg width="24" height="24" viewBox="0 0 24 24" fill="none" xmlns="http://www.w3.org/2000/svg">
    <path d="M15.8754 1.49805H9.08961C7.90604 1.49805 6.79501 1.95897 5.96117 2.79595C5.12865 3.63159 4.67017 4.74379 4.67017 5.92762V21.7842C4.67015 21.9083 4.70353 22.0302 4.76679 22.137C4.83006 22.2439 4.92089 22.3317 5.02977 22.3914C5.13865 22.4511 5.26158 22.4804 5.38567 22.4762C5.50977 22.4721 5.63046 22.4347 5.73512 22.3678L12.4946 18.0538L19.2541 22.3678C19.3653 22.4389 19.4946 22.4766 19.6266 22.4766C19.7175 22.4766 19.8076 22.4587 19.8916 22.4239C19.9756 22.3891 20.0519 22.3381 20.1162 22.2738C20.1805 22.2095 20.2315 22.1331 20.2663 22.0491C20.3011 21.9651 20.319 21.8751 20.319 21.7841V5.92762C20.319 3.48515 18.3256 1.49805 15.8754 1.49805ZM9.13632 12.3691C9.13632 11.9867 9.44633 11.6767 9.82874 11.6767H15.472C15.8544 11.6767 16.1644 11.9867 16.1644 12.3691C16.1644 12.7516 15.8544 13.0616 15.472 13.0616H9.82874C9.44631 13.0616 9.13632 12.7516 9.13632 12.3691ZM16.1644 8.4223C16.1644 8.80473 15.8544 9.11472 15.472 9.11472H9.82874C9.44631 9.11472 9.13632 8.80471 9.13632 8.4223C9.13632 8.03987 9.44633 7.72989 9.82874 7.72989H15.472C15.8544 7.72989 16.1644 8.0399 16.1644 8.4223Z" fill="#27B43E" fill-opacity="0.9"/>
    <path d="M9.82877 7.73047C9.44634 7.73047 9.13635 8.04048 9.13635 8.42288C9.13635 8.80531 9.44636 9.1153 9.82877 9.1153H15.472C15.8545 9.1153 16.1645 8.80529 16.1645 8.42288C16.1645 8.04045 15.8545 7.73047 15.472 7.73047H9.82877ZM16.1645 12.3697C16.1645 11.9873 15.8545 11.6773 15.472 11.6773H9.82877C9.44634 11.6773 9.13635 11.9873 9.13635 12.3697C9.13635 12.7521 9.44636 13.0621 9.82877 13.0621H15.472C15.8545 13.0621 16.1645 12.7521 16.1645 12.3697Z" fill="white"/>
</svg>
