<svg width="40" height="40" viewBox="0 0 40 40" fill="none" xmlns="http://www.w3.org/2000/svg">
    <path d="M7.75 4C7.75 2.20508 9.20508 0.75 11 0.75H27C27.1212 0.75 27.2375 0.798159 27.3232 0.883885L38.1161 11.6768C38.2018 11.7625 38.25 11.8788 38.25 12V36C38.25 37.7949 36.7949 39.25 35 39.25H11C9.20507 39.25 7.75 37.7949 7.75 36V4Z" fill="white" stroke="#D0D5DD" stroke-width="1.5"/>
    <path d="M27 0.5V8C27 10.2091 28.7909 12 31 12H38.5" stroke="#D0D5DD" stroke-width="1.5"/>
    <rect x="7" y="18" width="23" height="16" rx="2" fill="#444CE7"/>
    <path d="M10.9192 22.7273H12.8155L14.8184 27.6136H14.9036L16.9064 22.7273H18.8027V30H17.3113V25.2663H17.2509L15.3688 29.9645H14.3532L12.4711 25.2486H12.4107V30H10.9192V22.7273ZM22.6477 30H20.0696V22.7273H22.669C23.4006 22.7273 24.0303 22.8729 24.5582 23.1641C25.0862 23.4529 25.4922 23.8684 25.7763 24.4105C26.0627 24.9527 26.206 25.6013 26.206 26.3565C26.206 27.1141 26.0627 27.7652 25.7763 28.3097C25.4922 28.8542 25.0838 29.272 24.5511 29.5632C24.0208 29.8544 23.3864 30 22.6477 30ZM21.6072 28.6825H22.5838C23.0384 28.6825 23.4207 28.602 23.7308 28.4411C24.0433 28.2777 24.2777 28.0256 24.4339 27.6847C24.5926 27.3414 24.6719 26.8987 24.6719 26.3565C24.6719 25.8191 24.5926 25.38 24.4339 25.0391C24.2777 24.6982 24.0445 24.4472 23.7344 24.2862C23.4242 24.1252 23.0419 24.0447 22.5874 24.0447H21.6072V28.6825Z" fill="white"/>
</svg>
