<svg width="40" height="40" viewBox="0 0 40 40" fill="none" xmlns="http://www.w3.org/2000/svg">
    <path d="M7.75 4C7.75 2.20508 9.20508 0.75 11 0.75H27C27.1212 0.75 27.2375 0.798159 27.3232 0.883885L38.1161 11.6768C38.2018 11.7625 38.25 11.8788 38.25 12V36C38.25 37.7949 36.7949 39.25 35 39.25H11C9.20507 39.25 7.75 37.7949 7.75 36V4Z" fill="white" stroke="#D0D5DD" stroke-width="1.5"/>
    <path d="M27 0.5V8C27 10.2091 28.7909 12 31 12H38.5" stroke="#D0D5DD" stroke-width="1.5"/>
    <rect x="0.5" y="18" width="36" height="16" rx="2" fill="#444CE7"/>
    <path d="M6.90554 30H4.32741V22.7273H6.92685C7.65838 22.7273 8.28812 22.8729 8.81605 23.1641C9.34399 23.4529 9.75 23.8684 10.0341 24.4105C10.3205 24.9527 10.4638 25.6013 10.4638 26.3565C10.4638 27.1141 10.3205 27.7652 10.0341 28.3097C9.75 28.8542 9.34162 29.272 8.80895 29.5632C8.27865 29.8544 7.64418 30 6.90554 30ZM5.86506 28.6825H6.84162C7.29616 28.6825 7.6785 28.602 7.98864 28.4411C8.30114 28.2777 8.53551 28.0256 8.69176 27.6847C8.85038 27.3414 8.92969 26.8987 8.92969 26.3565C8.92969 25.8191 8.85038 25.38 8.69176 25.0391C8.53551 24.6982 8.30232 24.4472 7.99219 24.2862C7.68205 24.1252 7.29972 24.0447 6.84517 24.0447H5.86506V28.6825ZM18.286 26.3636C18.286 27.1567 18.1357 27.8314 17.835 28.3878C17.5368 28.9441 17.1296 29.3691 16.6135 29.6626C16.0997 29.9538 15.5221 30.0994 14.8805 30.0994C14.2342 30.0994 13.6542 29.9527 13.1404 29.6591C12.6267 29.3655 12.2207 28.9406 11.9224 28.3842C11.6241 27.8279 11.475 27.1544 11.475 26.3636C11.475 25.5705 11.6241 24.8958 11.9224 24.3395C12.2207 23.7831 12.6267 23.3594 13.1404 23.0682C13.6542 22.7746 14.2342 22.6278 14.8805 22.6278C15.5221 22.6278 16.0997 22.7746 16.6135 23.0682C17.1296 23.3594 17.5368 23.7831 17.835 24.3395C18.1357 24.8958 18.286 25.5705 18.286 26.3636ZM16.7271 26.3636C16.7271 25.8499 16.6502 25.4167 16.4963 25.0639C16.3448 24.7112 16.1305 24.4437 15.8535 24.2614C15.5765 24.0791 15.2522 23.9879 14.8805 23.9879C14.5088 23.9879 14.1845 24.0791 13.9075 24.2614C13.6305 24.4437 13.4151 24.7112 13.2612 25.0639C13.1097 25.4167 13.0339 25.8499 13.0339 26.3636C13.0339 26.8774 13.1097 27.3106 13.2612 27.6634C13.4151 28.0161 13.6305 28.2836 13.9075 28.4659C14.1845 28.6482 14.5088 28.7393 14.8805 28.7393C15.2522 28.7393 15.5765 28.6482 15.8535 28.4659C16.1305 28.2836 16.3448 28.0161 16.4963 27.6634C16.6502 27.3106 16.7271 26.8774 16.7271 26.3636ZM25.842 25.2734H24.2866C24.2582 25.0722 24.2002 24.8935 24.1126 24.7372C24.025 24.5786 23.9125 24.4437 23.7752 24.3324C23.6379 24.2211 23.4793 24.1359 23.2994 24.0767C23.1218 24.0175 22.9289 23.9879 22.7205 23.9879C22.3441 23.9879 22.0162 24.0814 21.7369 24.2685C21.4575 24.4531 21.2409 24.723 21.087 25.0781C20.9331 25.4309 20.8562 25.8594 20.8562 26.3636C20.8562 26.8821 20.9331 27.3177 21.087 27.6705C21.2433 28.0232 21.4611 28.2895 21.7404 28.4695C22.0198 28.6494 22.3429 28.7393 22.7099 28.7393C22.9158 28.7393 23.1064 28.7121 23.2816 28.6577C23.4592 28.6032 23.6166 28.5239 23.7539 28.4197C23.8912 28.3132 24.0049 28.1842 24.0948 28.0327C24.1871 27.8812 24.2511 27.7083 24.2866 27.5142L25.842 27.5213C25.8017 27.8551 25.7011 28.1771 25.5401 28.4872C25.3815 28.795 25.1673 29.0708 24.8974 29.3146C24.6299 29.5561 24.3103 29.7479 23.9386 29.8899C23.5692 30.0296 23.1514 30.0994 22.685 30.0994C22.0363 30.0994 21.4563 29.9527 20.945 29.6591C20.436 29.3655 20.0335 28.9406 19.7376 28.3842C19.444 27.8279 19.2972 27.1544 19.2972 26.3636C19.2972 25.5705 19.4464 24.8958 19.7447 24.3395C20.043 23.7831 20.4478 23.3594 20.9592 23.0682C21.4705 22.7746 22.0458 22.6278 22.685 22.6278C23.1064 22.6278 23.497 22.687 23.8569 22.8054C24.2191 22.9238 24.5399 23.0966 24.8192 23.3239C25.0986 23.5488 25.3259 23.8246 25.5011 24.1513C25.6786 24.478 25.7923 24.852 25.842 25.2734ZM28.2301 22.7273L29.6967 25.206H29.7536L31.2273 22.7273H32.9638L30.7443 26.3636L33.0135 30H31.245L29.7536 27.5178H29.6967L28.2053 30H26.4439L28.7202 26.3636L26.4865 22.7273H28.2301Z" fill="white"/>
</svg>
