<svg width="17" height="20" viewBox="0 0 17 20" fill="none" xmlns="http://www.w3.org/2000/svg">
    <path d="M14.6667 10.4165V5.6665C14.6667 4.26637 14.6667 3.56631 14.3942 3.03153C14.1545 2.56112 13.7721 2.17867 13.3017 1.93899C12.7669 1.6665 12.0668 1.6665 10.6667 1.6665H5.33337C3.93324 1.6665 3.23318 1.6665 2.6984 1.93899C2.22799 2.17867 1.84554 2.56112 1.60586 3.03153C1.33337 3.56631 1.33337 4.26637 1.33337 5.6665V14.3332C1.33337 15.7333 1.33337 16.4334 1.60586 16.9681C1.84554 17.4386 2.22799 17.821 2.6984 18.0607C3.23318 18.3332 3.9332 18.3332 5.33326 18.3332H8.41671M9.66671 9.1665H4.66671M6.33337 12.4998H4.66671M11.3334 5.83317H4.66671M10.5 15.8332L13 18.3332M13 18.3332L15.5 15.8332M13 18.3332V13.3332" stroke="#475467" stroke-width="1.66667" stroke-linecap="round" stroke-linejoin="round"/>
</svg>
