<svg width="17" height="20" viewBox="0 0 17 20" fill="none" xmlns="http://www.w3.org/2000/svg">
    <path d="M9.41667 1.6665H11.6667C13.0668 1.6665 13.7669 1.6665 14.3016 1.93899C14.772 2.17867 15.1545 2.56112 15.3942 3.03153C15.6667 3.56631 15.6667 4.26637 15.6667 5.6665V14.3332C15.6667 15.7333 15.6667 16.4334 15.3942 16.9681C15.1545 17.4386 14.772 17.821 14.3016 18.0607C13.7669 18.3332 13.0668 18.3332 11.6667 18.3332H6.33333C4.9332 18.3332 4.23314 18.3332 3.69836 18.0607C3.22795 17.821 2.8455 17.4386 2.60582 16.9681C2.33333 16.4334 2.33333 15.7333 2.33333 14.3332V13.7498M12.3333 10.8332H8.58333M12.3333 7.49984H9.41667M12.3333 14.1665H5.66667M4 8.33317V3.74984C4 3.05948 4.55964 2.49984 5.25 2.49984C5.94036 2.49984 6.5 3.05948 6.5 3.74984V8.33317C6.5 9.71388 5.38071 10.8332 4 10.8332C2.61929 10.8332 1.5 9.71388 1.5 8.33317V4.99984" stroke="#475467" stroke-width="1.66667" stroke-linecap="round" stroke-linejoin="round"/>
</svg>
