<svg width="10" height="12" viewBox="0 0 10 12" fill="none" xmlns="http://www.w3.org/2000/svg">
    <path d="M6 1.13477V3.20004C6 3.48006 6 3.62007 6.0545 3.72703C6.10243 3.82111 6.17892 3.8976 6.273 3.94554C6.37996 4.00004 6.51997 4.00004 6.8 4.00004H8.86527M7 6.5H3M7 8.5H3M4 4.5H3M6 1H3.4C2.55992 1 2.13988 1 1.81901 1.16349C1.53677 1.3073 1.3073 1.53677 1.16349 1.81901C1 2.13988 1 2.55992 1 3.4V8.6C1 9.44008 1 9.86012 1.16349 10.181C1.3073 10.4632 1.53677 10.6927 1.81901 10.8365C2.13988 11 2.55992 11 3.4 11H6.6C7.44008 11 7.86012 11 8.18099 10.8365C8.46323 10.6927 8.6927 10.4632 8.83651 10.181C9 9.86012 9 9.44008 9 8.6V4L6 1Z" stroke="#667085" stroke-linecap="round" stroke-linejoin="round"/>
</svg>
