<svg width="40" height="40" viewBox="0 0 40 40" fill="none" xmlns="http://www.w3.org/2000/svg">
    <path d="M7.75 4C7.75 2.20508 9.20508 0.75 11 0.75H27C27.1212 0.75 27.2375 0.798159 27.3232 0.883885L38.1161 11.6768C38.2018 11.7625 38.25 11.8788 38.25 12V36C38.25 37.7949 36.7949 39.25 35 39.25H11C9.20507 39.25 7.75 37.7949 7.75 36V4Z" fill="white" stroke="#D0D5DD" stroke-width="1.5"/>
    <path d="M27 0.5V8C27 10.2091 28.7909 12 31 12H38.5" stroke="#D0D5DD" stroke-width="1.5"/>
    <rect x="3" y="18" width="25" height="16" rx="2" fill="#155EEF"/>
    <path d="M7.02077 30V22.7273H11.8361V23.995H8.55842V25.728H11.5165V26.9957H8.55842V30H7.02077ZM12.8704 30V22.7273H14.408V28.7322H17.5259V30H12.8704ZM19.0769 22.7273L20.8347 28.2528H20.9022L22.6635 22.7273H24.3681L21.861 30H19.8794L17.3688 22.7273H19.0769Z" fill="white"/>
</svg>
