<svg width="20" height="20" viewBox="0 0 20 20" fill="none" xmlns="http://www.w3.org/2000/svg">
    <path d="M4.02747 10.1464C4.41649 9.95367 4.80642 9.95367 5.13091 10.1464L8.5721 12.1396C8.89659 12.3332 9.0911 12.6541 9.0911 13.0395V17.0269C9.0911 17.4123 8.89659 17.7341 8.50666 17.8631L5.06547 19.8555C4.67645 20.0482 4.28652 20.0482 3.96203 19.8555L0.520839 17.8622C0.361965 17.7721 0.230071 17.6412 0.138819 17.483C0.0475662 17.3248 0.000274323 17.145 0.0018421 16.9624V13.0404C0.0018421 12.6541 0.196352 12.3332 0.586281 12.1405L4.02747 10.1464ZM14.9991 9.99821C15.7855 9.99813 16.5553 10.2248 17.2162 10.651C17.8771 11.0772 18.4011 11.6848 18.7255 12.4012C19.0499 13.1176 19.1609 13.9123 19.0452 14.6902C18.9294 15.468 18.592 16.196 18.0731 16.787L19.3092 18.0231C19.4748 18.1945 19.5664 18.4241 19.5644 18.6625C19.5623 18.9008 19.4667 19.1287 19.2982 19.2973C19.1296 19.4658 18.9017 19.5614 18.6634 19.5634C18.425 19.5655 18.1954 19.4739 18.024 19.3083L16.7388 18.0222C16.6873 17.9708 16.6421 17.9135 16.6043 17.8513C16.0464 18.089 15.4426 18.1996 14.8367 18.1752C14.2307 18.1508 13.6378 17.992 13.1008 17.7102C12.5638 17.4284 12.0962 17.0308 11.7318 16.546C11.3674 16.0613 11.1154 15.5016 10.994 14.9075C10.8725 14.3133 10.8847 13.6996 11.0297 13.1108C11.1746 12.5219 11.4487 11.9727 11.832 11.5028C12.2154 11.0329 12.6984 10.6541 13.2462 10.3939C13.7939 10.1337 14.3927 9.99853 14.9991 9.99821ZM14.9991 11.8161C14.3965 11.8161 13.8185 12.0555 13.3923 12.4816C12.9662 12.9077 12.7268 13.4857 12.7268 14.0884C12.7268 14.691 12.9662 15.269 13.3923 15.6951C13.8185 16.1213 14.3965 16.3607 14.9991 16.3607C15.6018 16.3607 16.1797 16.1213 16.6059 15.6951C17.032 15.269 17.2714 14.691 17.2714 14.0884C17.2714 13.4857 17.032 12.9077 16.6059 12.4816C16.1797 12.0555 15.6018 11.8161 14.9991 11.8161ZM9.48103 0.148181C9.87005 -0.044511 10.26 -0.044511 10.5845 0.148181L14.0257 2.14146C14.3501 2.33506 14.5447 2.65591 14.5447 3.04129V7.02875C14.5447 7.41413 14.3501 7.73589 13.9602 7.86496L10.519 9.85732C10.13 10.05 9.74007 10.05 9.41558 9.85732L5.97439 7.86405C5.81552 7.77395 5.68363 7.64301 5.59237 7.4848C5.50112 7.32659 5.45383 7.14685 5.4554 6.96421V3.0422C5.4554 2.65591 5.64991 2.33506 6.03983 2.14236L9.48103 0.148181Z" fill="#FE6C74"/>
</svg>
