<svg width="40" height="40" viewBox="0 0 40 40" fill="none" xmlns="http://www.w3.org/2000/svg">
    <path d="M7.75 4C7.75 2.20508 9.20508 0.75 11 0.75H27C27.1212 0.75 27.2375 0.798159 27.3232 0.883885L38.1161 11.6768C38.2018 11.7625 38.25 11.8788 38.25 12V36C38.25 37.7949 36.7949 39.25 35 39.25H11C9.20507 39.25 7.75 37.7949 7.75 36V4Z" fill="white" stroke="#D0D5DD" stroke-width="1.5"/>
    <path d="M27 0.5V8C27 10.2091 28.7909 12 31 12H38.5" stroke="#D0D5DD" stroke-width="1.5"/>
    <rect x="2.5" y="18" width="23" height="16" rx="2" fill="#3E4784"/>
    <path d="M11.3247 25.0781C11.2749 24.9053 11.2051 24.7526 11.1151 24.62C11.0252 24.4851 10.9151 24.3714 10.7849 24.2791C10.657 24.1844 10.5103 24.1122 10.3445 24.0625C10.1812 24.0128 10.0001 23.9879 9.80123 23.9879C9.42954 23.9879 9.10284 24.0803 8.82111 24.2649C8.54176 24.4496 8.32395 24.7183 8.1677 25.071C8.01145 25.4214 7.93333 25.8499 7.93333 26.3565C7.93333 26.8632 8.01027 27.294 8.16415 27.6491C8.31803 28.0043 8.53584 28.2753 8.81756 28.4624C9.09928 28.647 9.43191 28.7393 9.81543 28.7393C10.1634 28.7393 10.4606 28.6778 10.7068 28.5547C10.9553 28.4292 11.1447 28.2528 11.2749 28.0256C11.4075 27.7983 11.4738 27.5296 11.4738 27.2195L11.7863 27.2656H9.91131V26.108H12.9546V27.0241C12.9546 27.6634 12.8197 28.2126 12.5498 28.6719C12.2799 29.1288 11.9082 29.4815 11.4347 29.7301C10.9613 29.9763 10.4191 30.0994 9.80833 30.0994C9.12651 30.0994 8.52755 29.9491 8.01145 29.6484C7.49535 29.3454 7.09289 28.9157 6.80407 28.3594C6.51761 27.8007 6.37438 27.1378 6.37438 26.3707C6.37438 25.7812 6.45961 25.2557 6.63006 24.794C6.80288 24.33 7.04436 23.937 7.35449 23.6151C7.66462 23.2931 8.02566 23.0481 8.43759 22.88C8.84952 22.7119 9.29578 22.6278 9.77637 22.6278C10.1883 22.6278 10.5718 22.6882 10.9269 22.8089C11.282 22.9273 11.5969 23.0954 11.8715 23.3132C12.1485 23.531 12.3746 23.7902 12.5498 24.0909C12.725 24.3892 12.8374 24.7183 12.8872 25.0781H11.3247ZM15.6473 22.7273V30H14.1096V22.7273H15.6473ZM16.9124 30V22.7273H21.7277V23.995H18.45V25.728H21.4081V26.9957H18.45V30H16.9124Z" fill="white"/>
</svg>
