<svg width="41" height="40" viewBox="0 0 41 40" fill="none" xmlns="http://www.w3.org/2000/svg">
    <path d="M8.75 4C8.75 2.20508 10.2051 0.75 12 0.75H28C28.1212 0.75 28.2375 0.798159 28.3232 0.883885L39.1161 11.6768C39.2018 11.7625 39.25 11.8788 39.25 12V36C39.25 37.7949 37.7949 39.25 36 39.25H12C10.2051 39.25 8.75 37.7949 8.75 36V4Z" fill="white" stroke="#D0D5DD" stroke-width="1.5"/>
    <path d="M28 0.5V8C28 10.2091 29.7909 12 32 12H39.5" stroke="#D0D5DD" stroke-width="1.5"/>
    <rect x="0.5" y="18" width="29" height="16" rx="2" fill="#444CE7"/>
    <path d="M8.97994 25.0781C8.93022 24.9053 8.86038 24.7526 8.77042 24.62C8.68046 24.4851 8.57037 24.3714 8.44016 24.2791C8.31232 24.1844 8.16554 24.1122 7.99982 24.0625C7.83647 24.0128 7.65536 23.9879 7.4565 23.9879C7.08481 23.9879 6.75811 24.0803 6.47638 24.2649C6.19703 24.4496 5.97923 24.7183 5.82298 25.071C5.66673 25.4214 5.5886 25.8499 5.5886 26.3565C5.5886 26.8632 5.66554 27.294 5.81942 27.6491C5.97331 28.0043 6.19111 28.2753 6.47283 28.4624C6.75456 28.647 7.08718 28.7393 7.4707 28.7393C7.81871 28.7393 8.11583 28.6778 8.36204 28.5547C8.61062 28.4292 8.80001 28.2528 8.93022 28.0256C9.0628 27.7983 9.12908 27.5296 9.12908 27.2195L9.44158 27.2656H7.56658V26.108H10.6099V27.0241C10.6099 27.6634 10.475 28.2126 10.2051 28.6719C9.93519 29.1288 9.56351 29.4815 9.09002 29.7301C8.61654 29.9763 8.0744 30.0994 7.4636 30.0994C6.78178 30.0994 6.18282 29.9491 5.66673 29.6484C5.15063 29.3454 4.74817 28.9157 4.45934 28.3594C4.17288 27.8007 4.02965 27.1378 4.02965 26.3707C4.02965 25.7812 4.11488 25.2557 4.28533 24.794C4.45816 24.33 4.69963 23.937 5.00977 23.6151C5.3199 23.2931 5.68093 23.0481 6.09286 22.88C6.50479 22.7119 6.95105 22.6278 7.43164 22.6278C7.84357 22.6278 8.2271 22.6882 8.58221 22.8089C8.93732 22.9273 9.25219 23.0954 9.52681 23.3132C9.8038 23.531 10.0299 23.7902 10.2051 24.0909C10.3803 24.3892 10.4927 24.7183 10.5424 25.0781H8.97994ZM18.4482 26.3636C18.4482 27.1567 18.2978 27.8314 17.9972 28.3878C17.6989 28.9441 17.2917 29.3691 16.7756 29.6626C16.2618 29.9538 15.6842 30.0994 15.0426 30.0994C14.3963 30.0994 13.8163 29.9527 13.3026 29.6591C12.7888 29.3655 12.3828 28.9406 12.0845 28.3842C11.7862 27.8279 11.6371 27.1544 11.6371 26.3636C11.6371 25.5705 11.7862 24.8958 12.0845 24.3395C12.3828 23.7831 12.7888 23.3594 13.3026 23.0682C13.8163 22.7746 14.3963 22.6278 15.0426 22.6278C15.6842 22.6278 16.2618 22.7746 16.7756 23.0682C17.2917 23.3594 17.6989 23.7831 17.9972 24.3395C18.2978 24.8958 18.4482 25.5705 18.4482 26.3636ZM16.8892 26.3636C16.8892 25.8499 16.8123 25.4167 16.6584 25.0639C16.5069 24.7112 16.2926 24.4437 16.0156 24.2614C15.7386 24.0791 15.4143 23.9879 15.0426 23.9879C14.6709 23.9879 14.3466 24.0791 14.0696 24.2614C13.7926 24.4437 13.5772 24.7112 13.4233 25.0639C13.2718 25.4167 13.196 25.8499 13.196 26.3636C13.196 26.8774 13.2718 27.3106 13.4233 27.6634C13.5772 28.0161 13.7926 28.2836 14.0696 28.4659C14.3466 28.6482 14.6709 28.7393 15.0426 28.7393C15.4143 28.7393 15.7386 28.6482 16.0156 28.4659C16.2926 28.2836 16.5069 28.0161 16.6584 27.6634C16.8123 27.3106 16.8892 26.8774 16.8892 26.3636Z" fill="white"/>
    <path d="M26.0041 25.2734H24.4487C24.4203 25.0722 24.3623 24.8935 24.2747 24.7372C24.1871 24.5786 24.0746 24.4437 23.9373 24.3324C23.8 24.2211 23.6414 24.1359 23.4615 24.0767C23.2839 24.0175 23.091 23.9879 22.8826 23.9879C22.5062 23.9879 22.1783 24.0814 21.899 24.2685C21.6196 24.4531 21.403 24.723 21.2491 25.0781C21.0952 25.4309 21.0183 25.8594 21.0183 26.3636C21.0183 26.8821 21.0952 27.3177 21.2491 27.6705C21.4054 28.0232 21.6232 28.2895 21.9025 28.4695C22.1819 28.6494 22.505 28.7393 22.872 28.7393C23.0779 28.7393 23.2685 28.7121 23.4437 28.6577C23.6213 28.6032 23.7787 28.5239 23.916 28.4197C24.0533 28.3132 24.167 28.1842 24.2569 28.0327C24.3493 27.8812 24.4132 27.7083 24.4487 27.5142L26.0041 27.5213C25.9638 27.8551 25.8632 28.1771 25.7022 28.4872C25.5436 28.795 25.3294 29.0708 25.0595 29.3146C24.792 29.5561 24.4724 29.7479 24.1007 29.8899C23.7314 30.0296 23.3135 30.0994 22.8471 30.0994C22.1984 30.0994 21.6184 29.9527 21.1071 29.6591C20.5981 29.3655 20.1956 28.9406 19.8997 28.3842C19.6061 27.8279 19.4593 27.1544 19.4593 26.3636C19.4593 25.5705 19.6085 24.8958 19.9068 24.3395C20.2051 23.7831 20.6099 23.3594 21.1213 23.0682C21.6326 22.7746 22.2079 22.6278 22.8471 22.6278C23.2685 22.6278 23.6592 22.687 24.019 22.8054C24.3812 22.9238 24.702 23.0966 24.9814 23.3239C25.2607 23.5488 25.488 23.8246 25.6632 24.1513C25.8407 24.478 25.9544 24.852 26.0041 25.2734Z" fill="#444CE7"/>
</svg>
