<svg width="40" height="40" viewBox="0 0 40 40" fill="none" xmlns="http://www.w3.org/2000/svg">
    <path d="M7.75 4C7.75 2.20508 9.20508 0.75 11 0.75H27C27.1212 0.75 27.2375 0.798159 27.3232 0.883885L38.1161 11.6768C38.2018 11.7625 38.25 11.8788 38.25 12V36C38.25 37.7949 36.7949 39.25 35 39.25H11C9.20507 39.25 7.75 37.7949 7.75 36V4Z" fill="white" stroke="#D0D5DD" stroke-width="1.5"/>
    <path d="M27 0.5V8C27 10.2091 28.7909 12 31 12H38.5" stroke="#D0D5DD" stroke-width="1.5"/>
    <rect x="0.5" y="18" width="27" height="16" rx="2" fill="#BA24D5"/>
    <path d="M9.03462 25.0781C8.98491 24.9053 8.91507 24.7526 8.82511 24.62C8.73514 24.4851 8.62506 24.3714 8.49485 24.2791C8.36701 24.1844 8.22023 24.1122 8.05451 24.0625C7.89116 24.0128 7.71005 23.9879 7.51119 23.9879C7.1395 23.9879 6.8128 24.0803 6.53107 24.2649C6.25172 24.4496 6.03391 24.7183 5.87766 25.071C5.72141 25.4214 5.64329 25.8499 5.64329 26.3565C5.64329 26.8632 5.72023 27.294 5.87411 27.6491C6.02799 28.0043 6.2458 28.2753 6.52752 28.4624C6.80924 28.647 7.14187 28.7393 7.52539 28.7393C7.8734 28.7393 8.17051 28.6778 8.41673 28.5547C8.66531 28.4292 8.8547 28.2528 8.98491 28.0256C9.11748 27.7983 9.18377 27.5296 9.18377 27.2195L9.49627 27.2656H7.62127V26.108H10.6646V27.0241C10.6646 27.6634 10.5297 28.2126 10.2598 28.6719C9.98988 29.1288 9.61819 29.4815 9.14471 29.7301C8.67122 29.9763 8.12908 30.0994 7.51829 30.0994C6.83647 30.0994 6.23751 29.9491 5.72141 29.6484C5.20531 29.3454 4.80285 28.9157 4.51403 28.3594C4.22757 27.8007 4.08434 27.1378 4.08434 26.3707C4.08434 25.7812 4.16957 25.2557 4.34002 24.794C4.51284 24.33 4.75432 23.937 5.06445 23.6151C5.37459 23.2931 5.73562 23.0481 6.14755 22.88C6.55948 22.7119 7.00574 22.6278 7.48633 22.6278C7.89826 22.6278 8.28178 22.6882 8.6369 22.8089C8.99201 22.9273 9.30688 23.0954 9.5815 23.3132C9.85849 23.531 10.0846 23.7902 10.2598 24.0909C10.435 24.3892 10.5474 24.7183 10.5971 25.0781H9.03462ZM11.7415 30V29.0874L15.3707 23.995H11.7344V22.7273H17.3026V23.6399L13.6697 28.7322H17.3097V30H11.7415Z" fill="white"/>
    <path d="M18.4895 30V22.7273H21.3588C21.9081 22.7273 22.3768 22.8255 22.7651 23.022C23.1557 23.2161 23.4528 23.492 23.6564 23.8494C23.8624 24.2045 23.9654 24.6224 23.9654 25.103C23.9654 25.5859 23.8612 26.0014 23.6529 26.3494C23.4445 26.6951 23.1427 26.9602 22.7473 27.1449C22.3543 27.3295 21.8785 27.4219 21.3198 27.4219H19.3986V26.1861H21.0712C21.3648 26.1861 21.6086 26.1458 21.8027 26.0653C21.9969 25.9848 22.1413 25.8641 22.236 25.7031C22.333 25.5421 22.3816 25.3421 22.3816 25.103C22.3816 24.8615 22.333 24.6579 22.236 24.4922C22.1413 24.3265 21.9957 24.201 21.7992 24.1158C21.6051 24.0282 21.36 23.9844 21.0641 23.9844H20.0272V30H18.4895ZM22.4171 26.6903L24.2246 30H22.5272L20.7587 26.6903H22.4171Z" fill="#BA24D5"/>
</svg>
