<svg width="48" height="48" viewBox="0 0 48 48" fill="none" xmlns="http://www.w3.org/2000/svg">
    <g clip-path="url(#clip0_3565_66748)">
        <path d="M41.0699 7.12805L40.9399 7.00005C38.7168 4.77693 36.0769 3.01429 33.1714 1.81311C30.2659 0.611933 27.152 -0.00418241 24.008 6.31695e-05C20.8531 -0.00717279 17.7278 0.60731 14.8105 1.8084C11.8932 3.00949 9.24121 4.77364 7.00599 7.00005C2.672 11.396 0 17.4 0 24C0 30.666 2.668 36.662 6.99999 41C11.5232 45.483 17.6336 47.9987 24.002 48H41.9379C42.4323 48 42.9064 47.8036 43.256 47.4541C43.6056 47.1045 43.8019 46.6304 43.8019 46.136L41.076 40.408C43.8879 37.924 46.1359 33.672 46.8679 31.468C47.6219 29.048 48.0059 26.532 47.9999 24C48.0059 17.4 45.3379 11.46 41.0699 7.12805Z" fill="#6172F3"/>
        <path d="M21.384 27.318L22.938 19.498H15.8L14.24 27.318H10L13.748 8.68005H17.924L16.504 15.96H23.718L25.202 8.68005H29.442L25.696 27.32L21.384 27.316V27.318ZM34.464 28H30.08L32.908 14.194H37.288L34.464 28ZM38 10.25C38 10.934 37.72 11.61 37.22 12.158C36.7 12.658 35.974 12.908 35.238 12.838C34.604 12.838 34.036 12.638 33.614 12.226C33.19 11.818 32.974 11.204 32.974 10.594C32.9698 10.251 33.037 9.91082 33.1713 9.5951C33.3056 9.27939 33.504 8.99503 33.754 8.76005C34.258 8.27605 34.946 8.00605 35.66 8.01005C36.294 7.94205 36.862 8.21405 37.356 8.62605C37.788 9.02605 38 9.63605 38 10.25ZM34 33.54C34 36.272 29.078 42 23 42C16.922 42 12 36.272 12 33.54C12 30.808 16.922 32.544 23 32.544C29.078 32.544 34 30.812 34 33.54Z" fill="white"/>
    </g>
    <defs>
        <clipPath id="clip0_3565_66748">
            <rect width="48" height="48" fill="white"/>
        </clipPath>
    </defs>
</svg>
