<svg width="40" height="40" viewBox="0 0 40 40" fill="none" xmlns="http://www.w3.org/2000/svg">
    <path d="M7.75 4C7.75 2.20508 9.20508 0.75 11 0.75H27C27.1212 0.75 27.2375 0.798159 27.3232 0.883885L38.1161 11.6768C38.2018 11.7625 38.25 11.8788 38.25 12V36C38.25 37.7949 36.7949 39.25 35 39.25H11C9.20507 39.25 7.75 37.7949 7.75 36V4Z" fill="white" stroke="#D0D5DD" stroke-width="1.5"/>
    <path d="M27 0.5V8C27 10.2091 28.7909 12 31 12H38.5" stroke="#D0D5DD" stroke-width="1.5"/>
    <rect x="0.5" y="18" width="27" height="16" rx="2" fill="#444CE7"/>
    <path d="M4.42702 30V22.7273H5.96467V25.728H9.08612V22.7273H10.6202V30H9.08612V26.9957H5.96467V30H4.42702ZM11.888 30V22.7273H14.7573C15.3089 22.7273 15.7788 22.8326 16.1671 23.0433C16.5553 23.2517 16.8513 23.5417 17.0549 23.9134C17.2608 24.2827 17.3638 24.7088 17.3638 25.1918C17.3638 25.6747 17.2596 26.1009 17.0513 26.4702C16.843 26.8395 16.5411 27.1271 16.1458 27.3331C15.7528 27.5391 15.2769 27.642 14.7182 27.642H12.8894V26.4098H14.4696C14.7656 26.4098 15.0094 26.3589 15.2012 26.2571C15.3953 26.1529 15.5397 26.0097 15.6344 25.8274C15.7315 25.6428 15.78 25.4309 15.78 25.1918C15.78 24.9503 15.7315 24.7396 15.6344 24.5597C15.5397 24.3774 15.3953 24.2365 15.2012 24.1371C15.007 24.0353 14.7608 23.9844 14.4625 23.9844H13.4256V30H11.888ZM18.3626 30V22.7273H21.2319C21.7835 22.7273 22.2534 22.8326 22.6417 23.0433C23.0299 23.2517 23.3259 23.5417 23.5295 23.9134C23.7354 24.2827 23.8384 24.7088 23.8384 25.1918C23.8384 25.6747 23.7343 26.1009 23.5259 26.4702C23.3176 26.8395 23.0157 27.1271 22.6204 27.3331C22.2274 27.5391 21.7515 27.642 21.1928 27.642H19.364V26.4098H20.9442C21.2402 26.4098 21.484 26.3589 21.6758 26.2571C21.8699 26.1529 22.0143 26.0097 22.109 25.8274C22.2061 25.6428 22.2546 25.4309 22.2546 25.1918C22.2546 24.9503 22.2061 24.7396 22.109 24.5597C22.0143 24.3774 21.8699 24.2365 21.6758 24.1371C21.4817 24.0353 21.2354 23.9844 20.9371 23.9844H19.9002V30H18.3626Z" fill="white"/>
</svg>
