<svg width="41" height="40" viewBox="0 0 41 40" fill="none" xmlns="http://www.w3.org/2000/svg">
    <path d="M8.75 4C8.75 2.20508 10.2051 0.75 12 0.75H28C28.1212 0.75 28.2375 0.798159 28.3232 0.883885L39.1161 11.6768C39.2018 11.7625 39.25 11.8788 39.25 12V36C39.25 37.7949 37.7949 39.25 36 39.25H12C10.2051 39.25 8.75 37.7949 8.75 36V4Z"
          fill="white" stroke="#D0D5DD" stroke-width="1.5"/>
    <path d="M28 0.5V8C28 10.2091 29.7909 12 32 12H39.5" stroke="#D0D5DD" stroke-width="1.5"/>
    <rect y="18" width="30" height="16" rx="2" fill="#088AB2"/>
    <path d="M3.98659 30V22.7273H5.52424V25.728H8.64569V22.7273H10.1798V30H8.64569V26.9957H5.52424V30H3.98659ZM11.1705 23.995V22.7273H17.1436V23.995H14.917V30H13.3971V23.995H11.1705ZM18.1272 22.7273H20.0235L22.0264 27.6136H22.1116L24.1144 22.7273H26.0107V30H24.5193V25.2663H24.4589L22.5768 29.9645H21.5612L19.6791 25.2486H19.6187V30H18.1272V22.7273Z"
          fill="white"/>
</svg>
