<?xml version="1.0" encoding="utf-8" ?>
<svg xmlns="http://www.w3.org/2000/svg" xmlns:xlink="http://www.w3.org/1999/xlink" width="15.9993" height="15.9993"
	viewBox="0 0 15.9993 15.9993">
	<path transform="matrix(1 0 0 1 0 0)" d="M0 0L15.9994 0L15.9994 15.9994L0 15.9994L0 0Z" fill-rule="nonzero"
		fill="rgb(0, 0, 0)" fill-opacity="0.45" opacity="0" />
	<path transform="matrix(1 0 0 1 2.59844 2.59844)"
		d="M9.89879 8.29679e-05C9.89915 0.000192338 9.89946 0.000364206 9.9001 0.00100481L10.8015 0.902374C10.8021 0.903015 10.8023 0.903312 10.8024 0.903687C10.8025 0.904038 10.8025 0.904414 10.8024 0.904765C10.8023 0.905124 10.8021 0.905421 10.8015 0.906062L6.3063 5.40124L10.8015 9.89642C10.8021 9.89704 10.8023 9.89735 10.8024 9.89771C10.8025 9.89807 10.8025 9.89845 10.8024 9.89881C10.8023 9.89915 10.8021 9.89946 10.8015 9.9001L9.9001 10.8015C9.89946 10.8021 9.89917 10.8023 9.89879 10.8024C9.89844 10.8025 9.89806 10.8025 9.89771 10.8024C9.89735 10.8023 9.89706 10.8021 9.89642 10.8015L5.40124 6.3063L0.906062 10.8015C0.905437 10.8021 0.905124 10.8023 0.904765 10.8024C0.904409 10.8025 0.904027 10.8025 0.903671 10.8024C0.903328 10.8023 0.903015 10.8021 0.902374 10.8015L0.00100481 9.9001C0.000364206 9.89946 0.000192338 9.89917 8.29679e-05 9.89879C-2.44461e-05 9.89844 -2.44461e-05 9.89806 8.29679e-05 9.89771C0.000192338 9.89735 0.000364206 9.89706 0.00100481 9.89642L4.49617 5.40124L0.00100481 0.906062C0.000364206 0.905437 0.000192338 0.905124 8.29679e-05 0.904765C-2.7656e-05 0.904409 -2.7656e-05 0.904027 8.29679e-05 0.903671C0.000192338 0.903328 0.000364206 0.903015 0.00100481 0.902374L0.902374 0.00100481C0.903015 0.000364206 0.903312 0.000192338 0.903687 8.29679e-05C0.904038 -2.44461e-05 0.904414 -2.44461e-05 0.904765 8.29679e-05C0.905124 0.000192338 0.905421 0.000364206 0.906062 0.00100481L5.40124 4.49617L9.89642 0.00100481C9.89704 0.000364206 9.89735 0.000192338 9.89771 8.29679e-05C9.89807 -2.7656e-05 9.89845 -2.7656e-05 9.89881 8.29679e-05L9.89879 8.29679e-05Z"
		fill-rule="evenodd" fill="rgb(0, 0, 0)" fill-opacity="0.45" />
</svg>