<svg width="24" height="24" viewBox="0 0 24 24" fill="none" xmlns="http://www.w3.org/2000/svg">
    <path d="M19.4449 19.9103H4.55507C3.5265 19.9103 2.69385 19.0776 2.69385 18.049V5.95107C2.69385 4.9225 3.5265 4.08984 4.55507 4.08984H19.4449C20.4734 4.08984 21.3061 4.9225 21.3061 5.95107V18.049C21.3061 19.0776 20.4734 19.9103 19.4449 19.9103Z" fill="#D2F4FF"/>
    <path d="M21.3061 15.3794L20.3755 14.2529L14.6816 8.57124C14.2285 8.11818 13.4938 8.11818 13.0408 8.57124L9.83262 11.7672C9.7714 11.8284 9.71017 11.8406 9.67344 11.8406C9.6367 11.8406 9.56324 11.8284 9.51426 11.7672L8.63262 10.8978C8.17956 10.4447 7.44487 10.4447 6.99181 10.8978L3.62446 14.2651L2.69385 15.3916V18.061C2.69385 19.0896 3.5265 19.9223 4.55507 19.9223H19.4449C20.4734 19.9223 21.3061 19.0896 21.3061 18.061V15.3794Z" fill="#16C4AF"/>
    <path d="M5.25305 7.34686C5.25305 7.65538 5.37561 7.95126 5.59376 8.16941C5.81192 8.38757 6.1078 8.51012 6.41632 8.51012C6.72483 8.51012 7.02072 8.38757 7.23887 8.16941C7.45702 7.95126 7.57958 7.65538 7.57958 7.34686C7.57958 7.03834 7.45702 6.74246 7.23887 6.52431C7.02072 6.30615 6.72483 6.18359 6.41632 6.18359C6.1078 6.18359 5.81192 6.30615 5.59376 6.52431C5.37561 6.74246 5.25305 7.03834 5.25305 7.34686Z" fill="#E5404F"/>
    <path d="M15.098 17.9998H6.52654C6.25715 17.9998 6.03674 17.7794 6.03674 17.51C6.03674 17.2406 6.25715 17.0202 6.52654 17.0202H15.098C15.3674 17.0202 15.5878 17.2406 15.5878 17.51C15.5878 17.7794 15.3674 17.9998 15.098 17.9998ZM10.8123 15.7223H6.52654C6.25715 15.7223 6.03674 15.5019 6.03674 15.2325C6.03674 14.9631 6.25715 14.7427 6.52654 14.7427H10.8123C11.0816 14.7427 11.302 14.9631 11.302 15.2325C11.302 15.5019 11.0816 15.7223 10.8123 15.7223Z" fill="#0B9682"/>
</svg>
