<svg width="43" height="40" viewBox="0 0 43 40" fill="none" xmlns="http://www.w3.org/2000/svg">
    <path d="M10.75 4C10.75 2.20508 12.2051 0.75 14 0.75H30C30.1212 0.75 30.2375 0.798159 30.3232 0.883885L41.1161 11.6768C41.2018 11.7625 41.25 11.8788 41.25 12V36C41.25 37.7949 39.7949 39.25 38 39.25H14C12.2051 39.25 10.75 37.7949 10.75 36V4Z" fill="white" stroke="#D0D5DD" stroke-width="1.5"/>
    <path d="M30 0.5V8C30 10.2091 31.7909 12 34 12H41.5" stroke="#D0D5DD" stroke-width="1.5"/>
    <rect x="0.5" y="18" width="33" height="16" rx="2" fill="#444CE7"/>
    <path d="M7.40927 22.7273H8.92915V27.7983C8.92915 28.267 8.8238 28.6742 8.6131 29.0199C8.40477 29.3655 8.11476 29.6319 7.74308 29.8189C7.37139 30.0059 6.93933 30.0994 6.44691 30.0994C6.00894 30.0994 5.61121 30.0225 5.25373 29.8686C4.89862 29.7124 4.61689 29.4756 4.40856 29.1584C4.20022 28.8388 4.09724 28.4375 4.09961 27.9545H5.63015C5.63488 28.1463 5.67395 28.3108 5.74734 28.4482C5.82309 28.5831 5.92608 28.6873 6.05629 28.7607C6.18886 28.8317 6.34511 28.8672 6.52504 28.8672C6.71443 28.8672 6.87423 28.8269 7.00444 28.7464C7.13701 28.6636 7.23763 28.5429 7.30629 28.3842C7.37494 28.2256 7.40927 28.0303 7.40927 27.7983V22.7273ZM11.454 30H9.80629L12.3169 22.7273H14.2985L16.8056 30H15.1578L13.3361 24.3892H13.2793L11.454 30ZM11.351 27.1413H15.2431V28.3416H11.351V27.1413ZM18.0866 22.7273L19.8445 28.2528H19.9119L21.6733 22.7273H23.3778L20.8707 30H18.8892L16.3786 22.7273H18.0866ZM24.54 30H22.8922L25.4029 22.7273H27.3844L29.8915 30H28.2438L26.4221 24.3892H26.3652L24.54 30ZM24.437 27.1413H28.329V28.3416H24.437V27.1413Z" fill="white"/>
</svg>
