<svg width="42" height="40" viewBox="0 0 42 40" fill="none" xmlns="http://www.w3.org/2000/svg">
    <path d="M9.75 4C9.75 2.20508 11.2051 0.75 13 0.75H29C29.1212 0.75 29.2375 0.798159 29.3232 0.883885L40.1161 11.6768C40.2018 11.7625 40.25 11.8788 40.25 12V36C40.25 37.7949 38.7949 39.25 37 39.25H13C11.2051 39.25 9.75 37.7949 9.75 36V4Z" fill="white" stroke="#D0D5DD" stroke-width="1.5"/>
    <path d="M29 0.5V8C29 10.2091 30.7909 12 33 12H40.5" stroke="#D0D5DD" stroke-width="1.5"/>
    <rect y="18" width="32" height="16" rx="2" fill="#3E4784"/>
    <path d="M6.58993 22.7273H8.10982V27.7983C8.10982 28.267 8.00447 28.6742 7.79377 29.0199C7.58543 29.3655 7.29542 29.6319 6.92374 29.8189C6.55205 30.0059 6.12 30.0994 5.62757 30.0994C5.1896 30.0994 4.79187 30.0225 4.43439 29.8686C4.07928 29.7124 3.79756 29.4756 3.58922 29.1584C3.38089 28.8388 3.27791 28.4375 3.28027 27.9545H4.81081C4.81555 28.1463 4.85461 28.3108 4.928 28.4482C5.00376 28.5831 5.10674 28.6873 5.23695 28.7607C5.36953 28.8317 5.52578 28.8672 5.7057 28.8672C5.89509 28.8672 6.05489 28.8269 6.1851 28.7464C6.31768 28.6636 6.41829 28.5429 6.48695 28.3842C6.5556 28.2256 6.58993 28.0303 6.58993 27.7983V22.7273ZM9.38113 30V22.7273H12.2504C12.8021 22.7273 13.272 22.8326 13.6602 23.0433C14.0485 23.2517 14.3444 23.5417 14.548 23.9134C14.754 24.2827 14.857 24.7088 14.857 25.1918C14.857 25.6747 14.7528 26.1009 14.5445 26.4702C14.3361 26.8395 14.0343 27.1271 13.6389 27.3331C13.2459 27.5391 12.7701 27.642 12.2114 27.642H10.3825V26.4098H11.9628C12.2587 26.4098 12.5026 26.3589 12.6943 26.2571C12.8885 26.1529 13.0329 26.0097 13.1276 25.8274C13.2246 25.6428 13.2732 25.4309 13.2732 25.1918C13.2732 24.9503 13.2246 24.7396 13.1276 24.5597C13.0329 24.3774 12.8885 24.2365 12.6943 24.1371C12.5002 24.0353 12.254 23.9844 11.9557 23.9844H10.9188V30H9.38113ZM15.8557 30V22.7273H20.7563V23.995H17.3934V25.728H20.5042V26.9957H17.3934V28.7322H20.7705V30H15.8557ZM26.8012 25.0781C26.7515 24.9053 26.6817 24.7526 26.5917 24.62C26.5017 24.4851 26.3917 24.3714 26.2615 24.2791C26.1336 24.1844 25.9868 24.1122 25.8211 24.0625C25.6578 24.0128 25.4767 23.9879 25.2778 23.9879C24.9061 23.9879 24.5794 24.0803 24.2977 24.2649C24.0183 24.4496 23.8005 24.7183 23.6443 25.071C23.488 25.4214 23.4099 25.8499 23.4099 26.3565C23.4099 26.8632 23.4868 27.294 23.6407 27.6491C23.7946 28.0043 24.0124 28.2753 24.2941 28.4624C24.5758 28.647 24.9085 28.7393 25.292 28.7393C25.64 28.7393 25.9371 28.6778 26.1833 28.5547C26.4319 28.4292 26.6213 28.2528 26.7515 28.0256C26.8841 27.7983 26.9504 27.5296 26.9504 27.2195L27.2629 27.2656H25.3879V26.108H28.4312V27.0241C28.4312 27.6634 28.2963 28.2126 28.0264 28.6719C27.7565 29.1288 27.3848 29.4815 26.9113 29.7301C26.4378 29.9763 25.8957 30.0994 25.2849 30.0994C24.6031 30.0994 24.0041 29.9491 23.488 29.6484C22.9719 29.3454 22.5695 28.9157 22.2806 28.3594C21.9942 27.8007 21.8509 27.1378 21.8509 26.3707C21.8509 25.7812 21.9362 25.2557 22.1066 24.794C22.2794 24.33 22.5209 23.937 22.8311 23.6151C23.1412 23.2931 23.5022 23.0481 23.9142 22.88C24.3261 22.7119 24.7723 22.6278 25.2529 22.6278C25.6649 22.6278 26.0484 22.6882 26.4035 22.8089C26.7586 22.9273 27.0735 23.0954 27.3481 23.3132C27.6251 23.531 27.8512 23.7902 28.0264 24.0909C28.2016 24.3892 28.314 24.7183 28.3637 25.0781H26.8012Z" fill="white"/>
</svg>
