<svg width="36" height="36" viewBox="0 0 36 36" fill="none" xmlns="http://www.w3.org/2000/svg">
    <g style="mix-blend-mode:multiply">
        <rect x="2" y="2" width="32" height="32" rx="16" fill="#D1E9FF"/>
        <rect x="2" y="2" width="32" height="32" rx="16" stroke="#EFF8FF" stroke-width="4"/>
        <path d="M19.3332 11.5132V14.2669C19.3332 14.6402 19.3332 14.8269 19.4058 14.9695C19.4697 15.095 19.5717 15.197 19.6972 15.2609C19.8398 15.3335 20.0265 15.3335 20.3998 15.3335H23.1535M20.6665 18.6668H15.3332M20.6665 21.3335H15.3332M16.6665 16.0002H15.3332M19.3332 11.3335H15.8665C14.7464 11.3335 14.1863 11.3335 13.7585 11.5515C13.3822 11.7432 13.0762 12.0492 12.8845 12.4255C12.6665 12.8533 12.6665 13.4134 12.6665 14.5335V21.4668C12.6665 22.5869 12.6665 23.147 12.8845 23.5748C13.0762 23.9511 13.3822 24.2571 13.7585 24.4488C14.1863 24.6668 14.7464 24.6668 15.8665 24.6668H20.1332C21.2533 24.6668 21.8133 24.6668 22.2412 24.4488C22.6175 24.2571 22.9234 23.9511 23.1152 23.5748C23.3332 23.147 23.3332 22.5869 23.3332 21.4668V15.3335L19.3332 11.3335Z" stroke="#1570EF" stroke-width="1.33333" stroke-linecap="round" stroke-linejoin="round"/>
    </g>
</svg>
