<svg width="36" height="36" viewBox="0 0 36 36" fill="none" xmlns="http://www.w3.org/2000/svg">
    <g style="mix-blend-mode:multiply">
        <rect x="2" y="2" width="32" height="32" rx="16" fill="#D1E9FF"/>
        <rect x="2" y="2" width="32" height="32" rx="16" stroke="#EFF8FF" stroke-width="4"/>
        <path d="M21.8667 16.6667C22.6134 16.6667 22.9868 16.6667 23.272 16.5213C23.5229 16.3935 23.7268 16.1895 23.8547 15.9387C24 15.6534 24 15.2801 24 14.5333V14.1333C24 13.3866 24 13.0132 23.8547 12.728C23.7268 12.4771 23.5229 12.2732 23.272 12.1453C22.9868 12 22.6134 12 21.8667 12L14.1333 12C13.3866 12 13.0132 12 12.728 12.1453C12.4771 12.2732 12.2732 12.4771 12.1453 12.728C12 13.0132 12 13.3866 12 14.1333L12 14.5333C12 15.2801 12 15.6534 12.1453 15.9387C12.2732 16.1895 12.4771 16.3935 12.728 16.5213C13.0132 16.6667 13.3866 16.6667 14.1333 16.6667L21.8667 16.6667Z" stroke="#1570EF" stroke-width="1.33333" stroke-linecap="round" stroke-linejoin="round"/>
        <path d="M21.8667 24C22.6134 24 22.9868 24 23.272 23.8547C23.5229 23.7268 23.7268 23.5229 23.8547 23.272C24 22.9868 24 22.6134 24 21.8667V21.4667C24 20.7199 24 20.3466 23.8547 20.0613C23.7268 19.8105 23.5229 19.6065 23.272 19.4787C22.9868 19.3333 22.6134 19.3333 21.8667 19.3333L14.1333 19.3333C13.3866 19.3333 13.0132 19.3333 12.728 19.4787C12.4771 19.6065 12.2732 19.8105 12.1453 20.0613C12 20.3466 12 20.7199 12 21.4667L12 21.8667C12 22.6134 12 22.9868 12.1453 23.272C12.2732 23.5229 12.4771 23.7268 12.728 23.8547C13.0132 24 13.3866 24 14.1333 24H21.8667Z" stroke="#1570EF" stroke-width="1.33333" stroke-linecap="round" stroke-linejoin="round"/>
    </g>
</svg>
