<svg width="36" height="36" viewBox="0 0 36 36" fill="none" xmlns="http://www.w3.org/2000/svg">
    <g style="mix-blend-mode:multiply">
        <rect x="2" y="2" width="32" height="32" rx="16" fill="#D1E9FF"/>
        <rect x="2" y="2" width="32" height="32" rx="16" stroke="#EFF8FF" stroke-width="4"/>
        <circle cx="18" cy="18" r="7" fill="#036CB5"/>
        <path d="M17.9762 13C18.7564 13 19.4987 13.1815 20.1647 13.5062C20.2692 13.554 20.3743 13.6113 20.4785 13.6686L20.0217 14.0794L19.337 13.3631L18.1572 14.4136L17.4625 13.659L15.293 15.6171L16.682 17.1549L16.1398 17.6324L17.5101 19.1702L16.9678 19.6475L18.928 21.8349L20.0882 20.765L21.0973 21.9115C20.8973 22.0644 20.6784 22.2175 20.4408 22.351C19.7176 22.7617 18.8801 23 17.9858 23C15.2357 23 13 20.7558 13 17.9957C12.9903 15.2542 15.2264 13 17.9762 13ZM17.0626 17.6898L18.252 16.62L19.318 17.8139L18.1283 18.8836L17.0626 17.6898ZM17.9097 19.753L19.0894 18.6737L20.1647 19.8675L18.9753 20.9374L17.9097 19.753ZM16.2163 15.6555L17.4054 14.5856L18.471 15.7795L17.2816 16.8493L16.2163 15.6555ZM18.3948 15.0822L19.2798 14.2799L20.0792 15.1682L19.1942 15.98L18.3948 15.0822ZM19.9745 18.7595L20.8591 17.9572L21.6586 18.8548L20.7735 19.6576L19.9745 18.7595ZM20.7546 20.5649L21.6396 19.7625L22.4384 20.6507L21.5537 21.4624L20.7546 20.5649ZM21.1162 16.4385L21.7061 15.9036L22.2387 16.496L21.649 17.0307L21.1162 16.4385ZM20.355 14.6715L20.9449 14.1272L21.478 14.7288L20.8876 15.2637L20.355 14.6715ZM21.8678 18.2057L22.4577 17.6708L23 18.263L22.4008 18.7978L21.8678 18.2057ZM19.2132 16.878L20.0982 16.0756L20.8973 16.9638L20.0127 17.7663L19.2132 16.878Z" fill="white"/>
    </g>
</svg>
