<svg width="40" height="40" viewBox="0 0 40 40" fill="none" xmlns="http://www.w3.org/2000/svg">
    <path d="M7.75 4C7.75 2.20508 9.20508 0.75 11 0.75H27C27.1212 0.75 27.2375 0.798159 27.3232 0.883885L38.1161 11.6768C38.2018 11.7625 38.25 11.8788 38.25 12V36C38.25 37.7949 36.7949 39.25 35 39.25H11C9.20507 39.25 7.75 37.7949 7.75 36V4Z" fill="white" stroke="#D0D5DD" stroke-width="1.5"/>
    <path d="M27 0.5V8C27 10.2091 28.7909 12 31 12H38.5" stroke="#D0D5DD" stroke-width="1.5"/>
    <rect x="0.5" y="18" width="27" height="16" rx="2" fill="#444CE7"/>
    <path d="M4.25124 30V22.7273H5.78888V25.9339H5.88477L8.50195 22.7273H10.345L7.64613 25.9837L10.377 30H8.53746L6.54528 27.0099L5.78888 27.9332V30H4.25124ZM10.8688 23.995V22.7273H16.8418V23.995H14.6152V30H13.0953V23.995H10.8688Z" fill="white"/>
    <path d="M23.9103 25.2734H22.3549C22.3265 25.0722 22.2685 24.8935 22.1809 24.7372C22.0933 24.5786 21.9809 24.4437 21.8436 24.3324C21.7063 24.2211 21.5476 24.1359 21.3677 24.0767C21.1902 24.0175 20.9972 23.9879 20.7889 23.9879C20.4125 23.9879 20.0846 24.0814 19.8052 24.2685C19.5259 24.4531 19.3092 24.723 19.1554 25.0781C19.0015 25.4309 18.9245 25.8594 18.9245 26.3636C18.9245 26.8821 19.0015 27.3177 19.1554 27.6705C19.3116 28.0232 19.5294 28.2895 19.8088 28.4695C20.0881 28.6494 20.4113 28.7393 20.7782 28.7393C20.9842 28.7393 21.1748 28.7121 21.35 28.6577C21.5275 28.6032 21.685 28.5239 21.8223 28.4197C21.9596 28.3132 22.0732 28.1842 22.1632 28.0327C22.2555 27.8812 22.3194 27.7083 22.3549 27.5142L23.9103 27.5213C23.8701 27.8551 23.7695 28.1771 23.6085 28.4872C23.4499 28.795 23.2356 29.0708 22.9657 29.3146C22.6982 29.5561 22.3786 29.7479 22.0069 29.8899C21.6376 30.0296 21.2198 30.0994 20.7534 30.0994C20.1047 30.0994 19.5247 29.9527 19.0133 29.6591C18.5043 29.3655 18.1019 28.9406 17.8059 28.3842C17.5124 27.8279 17.3656 27.1544 17.3656 26.3636C17.3656 25.5705 17.5147 24.8958 17.813 24.3395C18.1113 23.7831 18.5162 23.3594 19.0275 23.0682C19.5389 22.7746 20.1142 22.6278 20.7534 22.6278C21.1748 22.6278 21.5654 22.687 21.9252 22.8054C22.2875 22.9238 22.6083 23.0966 22.8876 23.3239C23.167 23.5488 23.3942 23.8246 23.5694 24.1513C23.747 24.478 23.8606 24.852 23.9103 25.2734Z" fill="#444CE7"/>
</svg>
