<svg width="40" height="40" viewBox="0 0 40 40" fill="none" xmlns="http://www.w3.org/2000/svg">
    <path d="M7.75 4C7.75 2.20508 9.20508 0.75 11 0.75H27C27.1212 0.75 27.2375 0.798159 27.3232 0.883885L38.1161 11.6768C38.2018 11.7625 38.25 11.8788 38.25 12V36C38.25 37.7949 36.7949 39.25 35 39.25H11C9.20507 39.25 7.75 37.7949 7.75 36V4Z" fill="white" stroke="#D0D5DD" stroke-width="1.5"/>
    <path d="M27 0.5V8C27 10.2091 28.7909 12 31 12H38.5" stroke="#D0D5DD" stroke-width="1.5"/>
    <rect x="0.5" y="18" width="27" height="16" rx="2" fill="#444CE7"/>
    <path d="M4.40749 30V22.7273H5.94513V28.7322H9.06303V30H4.40749ZM14.5735 22.7273H16.1112V27.4503C16.1112 27.9806 15.9845 28.4446 15.7312 28.8423C15.4802 29.2401 15.1287 29.5502 14.6765 29.7727C14.2243 29.9929 13.6976 30.103 13.0962 30.103C12.4925 30.103 11.9646 29.9929 11.5124 29.7727C11.0603 29.5502 10.7087 29.2401 10.4577 28.8423C10.2068 28.4446 10.0813 27.9806 10.0813 27.4503V22.7273H11.619V27.3189C11.619 27.5959 11.6793 27.8421 11.8001 28.0575C11.9232 28.273 12.096 28.4422 12.3185 28.5653C12.5411 28.6884 12.8003 28.75 13.0962 28.75C13.3945 28.75 13.6538 28.6884 13.8739 28.5653C14.0965 28.4422 14.2681 28.273 14.3888 28.0575C14.512 27.8421 14.5735 27.5959 14.5735 27.3189V22.7273ZM18.6298 30H16.9821L19.4927 22.7273H21.4743L23.9814 30H22.3336L20.5119 24.3892H20.4551L18.6298 30ZM18.5268 27.1413H22.4189V28.3416H18.5268V27.1413Z" fill="white"/>
</svg>
