<svg width="28" height="28" viewBox="0 0 28 28" fill="none" xmlns="http://www.w3.org/2000/svg">
    <path d="M5.0904 17.4316L2.5704 18.8414C2.3184 18.9814 2.317 19.344 2.5662 19.4854L13.545 25.7546C13.8838 25.9478 14.2982 25.9492 14.637 25.7588L25.221 19.8396C25.4716 19.6996 25.473 19.3384 25.2238 19.1956L22.694 17.7522L15.1788 21.955C14.8448 22.1419 14.4682 22.2392 14.0855 22.2374C13.7028 22.2357 13.3271 22.1351 12.9948 21.9452L5.0904 17.4316Z" fill="#FA9722"/>
    <path d="M5.257 12.0449L2.569 13.5471C2.3184 13.6871 2.317 14.0497 2.5662 14.1911L13.545 20.4603C13.8838 20.6535 14.2982 20.6549 14.637 20.4645L25.221 14.5453C25.4716 14.4053 25.473 14.0441 25.2238 13.9013L22.5274 12.3613L15.1788 16.4717C14.8448 16.6586 14.4682 16.7558 14.0855 16.7541C13.7028 16.7524 13.3271 16.6517 12.9948 16.4619L5.257 12.0449Z" fill="#FFCF87"/>
    <path d="M2.569 8.15971L13.153 2.23911C13.32 2.14565 13.5082 2.09693 13.6996 2.09766C13.8909 2.0984 14.0788 2.14857 14.245 2.24331L25.2238 8.51251C25.2808 8.54493 25.3281 8.59191 25.3609 8.64863C25.3937 8.70536 25.4109 8.76979 25.4106 8.83533C25.4103 8.90086 25.3926 8.96514 25.3593 9.02158C25.326 9.07802 25.2782 9.12459 25.221 9.15651L14.637 15.0757C14.4699 15.169 14.2816 15.2174 14.0903 15.2165C13.8989 15.2155 13.7111 15.1651 13.545 15.0701L2.5662 8.80511C2.50925 8.77269 2.46193 8.72571 2.42912 8.66898C2.3963 8.61226 2.37915 8.54782 2.37944 8.48229C2.37972 8.41675 2.39743 8.35247 2.43074 8.29604C2.46405 8.2396 2.51177 8.19303 2.569 8.16111V8.15971Z" fill="#FA9722"/>
</svg>
