<svg width="40" height="40" viewBox="0 0 40 40" fill="none" xmlns="http://www.w3.org/2000/svg">
    <path d="M7.75 4C7.75 2.20508 9.20508 0.75 11 0.75H27C27.1212 0.75 27.2375 0.798159 27.3232 0.883885L38.1161 11.6768C38.2018 11.7625 38.25 11.8788 38.25 12V36C38.25 37.7949 36.7949 39.25 35 39.25H11C9.20507 39.25 7.75 37.7949 7.75 36V4Z" fill="white" stroke="#D0D5DD" stroke-width="1.5"/>
    <path d="M27 0.5V8C27 10.2091 28.7909 12 31 12H38.5" stroke="#D0D5DD" stroke-width="1.5"/>
    <rect x="0.5" y="18" width="30" height="16" rx="2" fill="#155EEF"/>
    <path d="M4.36941 22.7273H6.26571L8.26855 27.6136H8.35378L10.3566 22.7273H12.2529V30H10.7615V25.2663H10.7011L8.81898 29.9645H7.80336L5.92125 25.2486H5.86088V30H4.36941V22.7273ZM13.5198 30V22.7273H15.0574V25.9339H15.1533L17.7705 22.7273H19.6135L16.9147 25.9837L19.6455 30H17.806L15.8138 27.0099L15.0574 27.9332V30H13.5198ZM21.7282 22.7273L23.4861 28.2528H23.5535L25.3149 22.7273H27.0194L24.5123 30H22.5308L20.0202 22.7273H21.7282Z" fill="white"/>
</svg>
