<svg width="42" height="40" viewBox="0 0 42 40" fill="none" xmlns="http://www.w3.org/2000/svg">
    <path d="M9.75 4C9.75 2.20508 11.2051 0.75 13 0.75H29C29.1212 0.75 29.2375 0.798159 29.3232 0.883885L40.1161 11.6768C40.2018 11.7625 40.25 11.8788 40.25 12V36C40.25 37.7949 38.7949 39.25 37 39.25H13C11.2051 39.25 9.75 37.7949 9.75 36V4Z" fill="white" stroke="#D0D5DD" stroke-width="1.5"/>
    <path d="M29 0.5V8C29 10.2091 30.7909 12 33 12H40.5" stroke="#D0D5DD" stroke-width="1.5"/>
    <rect y="18" width="32" height="16" rx="2" fill="#444CE7"/>
    <path d="M3.72195 22.7273H5.61825L7.62109 27.6136H7.70632L9.70916 22.7273H11.6055V30H10.114V25.2663H10.0536L8.17152 29.9645H7.15589L5.27379 25.2486H5.21342V30H3.72195V22.7273ZM12.8723 22.7273H14.7686L16.7715 27.6136H16.8567L18.8596 22.7273H20.7559V30H19.2644V25.2663H19.204L17.3219 29.9645H16.3063L14.4242 25.2486H14.3638V30H12.8723V22.7273Z" fill="white"/>
    <path d="M28.4396 25.2734H26.8842C26.8558 25.0722 26.7978 24.8935 26.7102 24.7372C26.6226 24.5786 26.5102 24.4437 26.3729 24.3324C26.2356 24.2211 26.0769 24.1359 25.897 24.0767C25.7195 24.0175 25.5265 23.9879 25.3182 23.9879C24.9418 23.9879 24.6139 24.0814 24.3345 24.2685C24.0552 24.4531 23.8385 24.723 23.6847 25.0781C23.5308 25.4309 23.4538 25.8594 23.4538 26.3636C23.4538 26.8821 23.5308 27.3177 23.6847 27.6705C23.8409 28.0232 24.0587 28.2895 24.3381 28.4695C24.6174 28.6494 24.9406 28.7393 25.3075 28.7393C25.5135 28.7393 25.7041 28.7121 25.8793 28.6577C26.0568 28.6032 26.2143 28.5239 26.3516 28.4197C26.4889 28.3132 26.6025 28.1842 26.6925 28.0327C26.7848 27.8812 26.8487 27.7083 26.8842 27.5142L28.4396 27.5213C28.3994 27.8551 28.2988 28.1771 28.1378 28.4872C27.9792 28.795 27.7649 29.0708 27.495 29.3146C27.2275 29.5561 26.9079 29.7479 26.5362 29.8899C26.1669 30.0296 25.7491 30.0994 25.2827 30.0994C24.634 30.0994 24.054 29.9527 23.5426 29.6591C23.0336 29.3655 22.6312 28.9406 22.3352 28.3842C22.0417 27.8279 21.8949 27.1544 21.8949 26.3636C21.8949 25.5705 22.044 24.8958 22.3423 24.3395C22.6406 23.7831 23.0455 23.3594 23.5568 23.0682C24.0682 22.7746 24.6435 22.6278 25.2827 22.6278C25.7041 22.6278 26.0947 22.687 26.4545 22.8054C26.8168 22.9238 27.1375 23.0966 27.4169 23.3239C27.6963 23.5488 27.9235 23.8246 28.0987 24.1513C28.2763 24.478 28.3899 24.852 28.4396 25.2734Z" fill="#444CE7"/>
</svg>
