<svg width="41" height="40" viewBox="0 0 41 40" fill="none" xmlns="http://www.w3.org/2000/svg">
    <path d="M8.75 4C8.75 2.20508 10.2051 0.75 12 0.75H28C28.1212 0.75 28.2375 0.798159 28.3232 0.883885L39.1161 11.6768C39.2018 11.7625 39.25 11.8788 39.25 12V36C39.25 37.7949 37.7949 39.25 36 39.25H12C10.2051 39.25 8.75 37.7949 8.75 36V4Z" fill="white" stroke="#D0D5DD" stroke-width="1.5"/>
    <path d="M28 0.5V8C28 10.2091 29.7909 12 32 12H39.5" stroke="#D0D5DD" stroke-width="1.5"/>
    <rect x="0.5" y="18" width="29" height="16" rx="2" fill="#0E9384"/>
    <path d="M4.5237 22.7273H6.42001L8.42285 27.6136H8.50808L10.5109 22.7273H12.4072V30H10.9157V25.2663H10.8554L8.97328 29.9645H7.95765L6.07555 25.2486H6.01518V30H4.5237V22.7273ZM13.6741 30V22.7273H16.5434C17.095 22.7273 17.565 22.8326 17.9532 23.0433C18.3415 23.2517 18.6374 23.5417 18.841 23.9134C19.047 24.2827 19.1499 24.7088 19.1499 25.1918C19.1499 25.6747 19.0458 26.1009 18.8374 26.4702C18.6291 26.8395 18.3273 27.1271 17.9319 27.3331C17.5389 27.5391 17.0631 27.642 16.5044 27.642H14.6755V26.4098H16.2558C16.5517 26.4098 16.7955 26.3589 16.9873 26.2571C17.1814 26.1529 17.3258 26.0097 17.4205 25.8274C17.5176 25.6428 17.5661 25.4309 17.5661 25.1918C17.5661 24.9503 17.5176 24.7396 17.4205 24.5597C17.3258 24.3774 17.1814 24.2365 16.9873 24.1371C16.7932 24.0353 16.547 23.9844 16.2487 23.9844H15.2117V30H13.6741ZM22.7943 30.0994C22.264 30.0994 21.7917 30.0083 21.3774 29.826C20.9655 29.6413 20.6399 29.388 20.4008 29.0661C20.1641 28.7417 20.0422 28.3677 20.0351 27.9439H21.5834C21.5928 28.1214 21.6508 28.2777 21.7574 28.4126C21.8663 28.5452 22.0107 28.6482 22.1906 28.7216C22.3705 28.795 22.5729 28.8317 22.7979 28.8317C23.0322 28.8317 23.2394 28.7902 23.4193 28.7074C23.5992 28.6245 23.7401 28.5097 23.8419 28.3629C23.9437 28.2161 23.9946 28.0469 23.9946 27.8551C23.9946 27.661 23.9401 27.4893 23.8312 27.3402C23.7247 27.1887 23.5708 27.0703 23.3696 26.9851C23.1707 26.8999 22.934 26.8572 22.6594 26.8572H21.9811V25.728H22.6594C22.8914 25.728 23.0961 25.6877 23.2737 25.6072C23.4536 25.5268 23.5933 25.4155 23.6927 25.2734C23.7922 25.129 23.8419 24.9609 23.8419 24.7692C23.8419 24.5869 23.7981 24.4271 23.7105 24.2898C23.6253 24.1501 23.5045 24.0412 23.3483 23.9631C23.1944 23.8849 23.0145 23.8459 22.8085 23.8459C22.6002 23.8459 22.4096 23.8838 22.2368 23.9595C22.064 24.0329 21.9255 24.1383 21.8213 24.2756C21.7171 24.4129 21.6615 24.5739 21.6544 24.7585H20.1807C20.1878 24.3395 20.3073 23.9702 20.5393 23.6506C20.7713 23.331 21.0838 23.0812 21.4768 22.9013C21.8722 22.719 22.3184 22.6278 22.8156 22.6278C23.3175 22.6278 23.7567 22.719 24.1331 22.9013C24.5095 23.0836 24.8019 23.3298 25.0102 23.6399C25.2209 23.9477 25.3251 24.2933 25.3227 24.6768C25.3251 25.084 25.1984 25.4238 24.9427 25.696C24.6894 25.9683 24.3592 26.1411 23.952 26.2145V26.2713C24.487 26.34 24.8942 26.5258 25.1736 26.8288C25.4553 27.1295 25.595 27.5059 25.5926 27.9581C25.595 28.3724 25.4754 28.7405 25.2339 29.0625C24.9948 29.3845 24.6646 29.6378 24.2432 29.8224C23.8218 30.0071 23.3388 30.0994 22.7943 30.0994Z" fill="white"/>
</svg>
