<svg width="40" height="40" viewBox="0 0 40 40" fill="none" xmlns="http://www.w3.org/2000/svg">
    <path d="M7.75 4C7.75 2.20508 9.20508 0.75 11 0.75H27C27.1212 0.75 27.2375 0.798159 27.3232 0.883885L38.1161 11.6768C38.2018 11.7625 38.25 11.8788 38.25 12V36C38.25 37.7949 36.7949 39.25 35 39.25H11C9.20507 39.25 7.75 37.7949 7.75 36V4Z" fill="white" stroke="#D0D5DD" stroke-width="1.5"/>
    <path d="M27 0.5V8C27 10.2091 28.7909 12 31 12H38.5" stroke="#D0D5DD" stroke-width="1.5"/>
    <rect x="1.5" y="18" width="25" height="16" rx="2" fill="#B3B8DB"/>
    <path d="M5.37917 22.7273H7.27548L9.27832 27.6136H9.36355L11.3664 22.7273H13.2627V30H11.7712V25.2663H11.7108L9.82875 29.9645H8.81312L6.93102 25.2486H6.87065V30H5.37917V22.7273ZM18.4749 24.8189C18.4465 24.5324 18.3245 24.3099 18.1091 24.1513C17.8937 23.9927 17.6013 23.9134 17.232 23.9134C16.981 23.9134 16.7691 23.9489 16.5963 24.0199C16.4235 24.0885 16.2909 24.1844 16.1986 24.3075C16.1086 24.4306 16.0637 24.5703 16.0637 24.7266C16.0589 24.8568 16.0861 24.9704 16.1453 25.0675C16.2069 25.1645 16.2909 25.2486 16.3975 25.3196C16.504 25.3883 16.6271 25.4486 16.7668 25.5007C16.9065 25.5504 17.0556 25.593 17.2142 25.6286L17.8676 25.7848C18.1849 25.8558 18.4761 25.9505 18.7412 26.0689C19.0064 26.1873 19.236 26.3329 19.4301 26.5057C19.6243 26.6785 19.7746 26.8821 19.8811 27.1165C19.99 27.3509 20.0457 27.6196 20.048 27.9226C20.0457 28.3677 19.932 28.7536 19.7071 29.0803C19.4846 29.4046 19.1626 29.6567 18.7412 29.8366C18.3222 30.0142 17.8167 30.103 17.2249 30.103C16.6378 30.103 16.1264 30.013 15.6908 29.8331C15.2575 29.6532 14.919 29.3868 14.6752 29.0341C14.4337 28.679 14.307 28.2398 14.2952 27.7166H15.7831C15.7997 27.9605 15.8695 28.1641 15.9926 28.3274C16.1181 28.4884 16.285 28.6103 16.4933 28.6932C16.704 28.7737 16.942 28.8139 17.2071 28.8139C17.4675 28.8139 17.6936 28.776 17.8854 28.7003C18.0795 28.6245 18.2298 28.5192 18.3364 28.3842C18.4429 28.2493 18.4962 28.0942 18.4962 27.919C18.4962 27.7557 18.4477 27.6184 18.3506 27.5071C18.2559 27.3958 18.1162 27.3011 17.9316 27.223C17.7493 27.1449 17.5255 27.0739 17.2604 27.0099L16.4685 26.8111C15.8553 26.6619 15.3712 26.4287 15.0161 26.1115C14.661 25.7943 14.4846 25.367 14.4869 24.8295C14.4846 24.3892 14.6018 24.0045 14.8385 23.6754C15.0776 23.3464 15.4055 23.0895 15.8222 22.9048C16.2388 22.7202 16.7123 22.6278 17.2426 22.6278C17.7824 22.6278 18.2535 22.7202 18.656 22.9048C19.0608 23.0895 19.3757 23.3464 19.6006 23.6754C19.8255 24.0045 19.9415 24.3857 19.9486 24.8189H18.4749ZM22.6199 22.7273V30H21.0823V22.7273H22.6199Z" fill="white"/>
</svg>
