<svg width="24" height="24" viewBox="0 0 24 24" fill="none" xmlns="http://www.w3.org/2000/svg">
    <g clip-path="url(#clip0_3016_40810)">
        <path d="M10.6356 3.53158H22.9476C23.5356 3.53158 24 4.01158 24 4.58878V21.9336C24.0003 22.2132 23.8897 22.4816 23.6924 22.6798C23.4951 22.878 23.2273 22.9898 22.9476 22.9908H1.05241C0.773174 22.9898 0.505682 22.8783 0.308456 22.6806C0.111229 22.483 0.000326632 22.2152 1.09378e-05 21.936V2.64478C-0.000620674 2.50601 0.0261082 2.36847 0.0786693 2.24003C0.13123 2.11159 0.208593 1.99477 0.306333 1.89625C0.404073 1.79773 0.520274 1.71944 0.648292 1.66586C0.77631 1.61228 0.913633 1.58446 1.05241 1.58398H9.26641C9.73081 1.58398 10.1424 1.88758 10.278 2.34118L10.6356 3.53038V3.53158Z" fill="#D7904F"/>
        <path d="M21.3204 21.6929H2.67844C2.40089 21.6948 2.13391 21.5867 1.93597 21.3921C1.73803 21.1975 1.62529 20.9325 1.62244 20.6549V6.51532C1.62244 5.93572 2.10244 5.47852 2.67844 5.47852H21.3204C21.9108 5.47852 22.3788 5.95012 22.3788 6.51532V20.6561C22.3908 21.2225 21.9108 21.6941 21.3204 21.6941V21.6929Z" fill="#FDF6E6"/>
        <path d="M22.9477 22.9926H1.05246C0.915045 22.9934 0.778819 22.9671 0.651562 22.9153C0.524304 22.8634 0.408507 22.787 0.310782 22.6904C0.213057 22.5938 0.135319 22.4789 0.082005 22.3522C0.0286913 22.2256 0.000846711 22.0896 6.10352e-05 21.9522V8.46303C6.10352e-05 7.88223 0.478861 7.42383 1.05246 7.42383H22.9477C23.5357 7.42383 24.0001 7.89663 24.0001 8.46303V21.9534C23.9978 22.2305 23.8858 22.4954 23.6885 22.69C23.4912 22.8846 23.2248 22.993 22.9477 22.9914V22.9926Z" fill="#F0B828"/>
        <path d="M8.54161 11.3842H2.49961C2.20081 11.3842 1.94641 11.1574 1.94641 10.8646C1.94641 10.5838 2.18641 10.3438 2.49841 10.3438H8.52721C8.82601 10.3438 9.08161 10.5718 9.08161 10.8646C9.07784 11.0048 9.01914 11.138 8.91814 11.2354C8.81714 11.3328 8.68192 11.3867 8.54161 11.3854V11.3842ZM8.54161 14.8834H2.49961C2.20081 14.8834 1.94641 14.6566 1.94641 14.3626C1.94641 14.0686 2.18641 13.8417 2.49841 13.8417H8.52721C8.82601 13.8417 9.08161 14.0698 9.08161 14.3626C9.08084 14.4323 9.0662 14.5013 9.03855 14.5654C9.0109 14.6295 8.97079 14.6874 8.92055 14.7359C8.8703 14.7844 8.81093 14.8223 8.74588 14.8477C8.68083 14.873 8.61139 14.8851 8.54161 14.8834Z" fill="#FFF8E1"/>
    </g>
    <defs>
        <clipPath id="clip0_3016_40810">
            <rect width="24" height="24" fill="white"/>
        </clipPath>
    </defs>
</svg>
