<svg width="20" height="20" viewBox="0 0 20 20" fill="none" xmlns="http://www.w3.org/2000/svg">
    <g clip-path="url(#clip0_4039_50697)">
        <path d="M14.348 9.23457C14.294 9.07543 14.1803 8.948 14.028 8.876C13.876 8.80457 13.7063 8.79743 13.5494 8.85543C13.2346 8.97286 13.0732 9.31371 13.1817 9.63143C13.5337 10.6626 13.6854 11.6949 13.6083 12.5374C13.5383 13.298 13.2826 13.8337 12.9237 13.9706L12.9137 13.9743C12.5534 14.1023 12.0097 13.8714 11.4586 13.3566C10.8332 12.7731 10.2549 11.892 9.83173 10.8794C9.82601 10.8649 9.81944 10.8506 9.81115 10.8357C9.69258 10.5237 9.35287 10.3646 9.03515 10.4731C8.87658 10.5277 8.74973 10.6414 8.6783 10.7937C8.60687 10.9457 8.60001 11.1163 8.65944 11.2731C8.74515 11.5014 8.8503 11.7163 8.95201 11.9237L9.10773 12.2383L9.16344 12.336L9.1663 12.3349C10.1512 14.13 11.5023 15.2406 12.7094 15.2406C12.924 15.2406 13.1326 15.2049 13.33 15.134L13.362 15.1223C14.1949 14.8049 14.7177 13.9269 14.8349 12.6503C14.9277 11.6397 14.7549 10.4269 14.348 9.23457Z" fill="url(#paint0_linear_4039_50697)"/>
        <path d="M9.90346 15.2552C8.62631 14.2923 7.78574 12.5094 7.48374 11.788C7.35689 11.4852 7.01546 11.3352 6.7066 11.4469C6.54603 11.5043 6.41974 11.6214 6.35089 11.7769C6.28174 11.9323 6.27974 12.1046 6.34489 12.2623C6.68032 13.0723 7.62631 15.0814 9.16031 16.2383C9.26631 16.3183 9.39831 16.3626 9.53174 16.3626C9.56774 16.3626 9.60403 16.3594 9.63889 16.3532C9.80717 16.3234 9.9566 16.224 10.0492 16.0806C10.2232 15.8106 10.1592 15.448 9.90346 15.2552Z" fill="url(#paint1_linear_4039_50697)"/>
        <path d="M6.75602 10.322C6.40374 9.29028 6.25259 8.25799 6.32973 7.4157C6.39945 6.65542 6.65488 6.1197 7.01202 5.9837L7.02459 5.97913C7.38373 5.84999 7.92716 6.08113 8.47916 6.59685C9.10488 7.18085 9.68374 8.06313 10.1089 9.08113C10.1146 9.09513 10.1212 9.10799 10.1255 9.11513C10.2435 9.42913 10.584 9.58942 10.9026 9.48028C11.0615 9.42542 11.188 9.3117 11.2592 9.1597C11.3306 9.00742 11.3372 8.83713 11.278 8.68028C11.1923 8.45256 11.0874 8.23828 10.9857 8.03113L10.8914 7.83885L10.8632 7.79113C9.69602 5.56142 7.94659 4.33913 6.60745 4.8197L6.57516 4.83142C5.74259 5.14885 5.21945 6.02656 5.10231 7.30342C5.00945 8.31342 5.18259 9.52656 5.58916 10.7191C5.64316 10.8783 5.75688 11.0054 5.90916 11.078C5.99259 11.1174 6.08145 11.1374 6.17259 11.1374C6.24573 11.1374 6.31802 11.1243 6.38774 11.0986C6.70288 10.9806 6.86459 10.6397 6.75602 10.322Z" fill="url(#paint2_linear_4039_50697)"/>
        <path d="M10.0343 4.69799C11.3114 5.66113 12.152 7.4437 12.4543 8.16513C12.55 8.39456 12.7728 8.54285 13.022 8.54285C13.0928 8.54285 13.1631 8.53056 13.2317 8.50627C13.3917 8.44856 13.5177 8.33142 13.5868 8.17599C13.656 8.02027 13.658 7.84828 13.5928 7.69085C13.2571 6.88056 12.3106 4.87085 10.7774 3.71485C10.6406 3.61142 10.466 3.56942 10.2988 3.60028C10.1308 3.62999 9.98113 3.72942 9.88827 3.87285C9.71484 4.14256 9.77884 4.50513 10.0343 4.69799Z" fill="url(#paint3_linear_4039_50697)"/>
        <path d="M9.99913 19.9846C4.49428 19.9846 0.0159912 15.5063 0.0159912 10.0014C0.0159912 4.49656 4.49428 0.01828 9.99913 0.01828C15.504 0.01828 19.9823 4.49656 19.9823 10.0014C19.9823 15.5063 15.5037 19.9846 9.99913 19.9846ZM9.99913 1.08371C5.08199 1.08371 1.08142 5.08399 1.08142 10.0014C1.08142 14.9189 5.0817 18.9191 9.99913 18.9191C14.9166 18.9191 18.9168 14.9189 18.9168 10.0014C18.9168 5.08399 14.9163 1.08371 9.99913 1.08371Z" fill="url(#paint4_linear_4039_50697)"/>
    </g>
    <defs>
        <linearGradient id="paint0_linear_4039_50697" x1="8.61913" y1="12.0283" x2="14.8594" y2="12.0283" gradientUnits="userSpaceOnUse">
            <stop offset="0.00558659" stop-color="#C4F5F7"/>
            <stop offset="0.2703" stop-color="#9CECEE"/>
            <stop offset="0.5958" stop-color="#71E2E4"/>
            <stop offset="0.8501" stop-color="#56DCDE"/>
            <stop offset="1" stop-color="#4CDADC"/>
        </linearGradient>
        <linearGradient id="paint1_linear_4039_50697" x1="6.29739" y1="13.8861" x2="10.1469" y2="13.8861" gradientUnits="userSpaceOnUse">
            <stop stop-color="#20ABF2"/>
            <stop offset="0.1204" stop-color="#1E9FF3"/>
            <stop offset="0.3381" stop-color="#187FF4"/>
            <stop offset="0.6281" stop-color="#0F4CF7"/>
            <stop offset="0.9762" stop-color="#0305FB"/>
            <stop offset="1" stop-color="#0200FB"/>
        </linearGradient>
        <linearGradient id="paint2_linear_4039_50697" x1="5.07817" y1="7.92604" x2="11.3184" y2="7.92604" gradientUnits="userSpaceOnUse">
            <stop stop-color="#20ABF2"/>
            <stop offset="0.1204" stop-color="#1E9FF3"/>
            <stop offset="0.3381" stop-color="#187FF4"/>
            <stop offset="0.6281" stop-color="#0F4CF7"/>
            <stop offset="0.9762" stop-color="#0305FB"/>
            <stop offset="1" stop-color="#0200FB"/>
        </linearGradient>
        <linearGradient id="paint3_linear_4039_50697" x1="9.79089" y1="6.0667" x2="13.6403" y2="6.0667" gradientUnits="userSpaceOnUse">
            <stop offset="0.00558659" stop-color="#C4F5F7"/>
            <stop offset="0.2703" stop-color="#9CECEE"/>
            <stop offset="0.5958" stop-color="#71E2E4"/>
            <stop offset="0.8501" stop-color="#56DCDE"/>
            <stop offset="1" stop-color="#4CDADC"/>
        </linearGradient>
        <linearGradient id="paint4_linear_4039_50697" x1="0.0158141" y1="10.0014" x2="19.9822" y2="10.0014" gradientUnits="userSpaceOnUse">
            <stop stop-color="#20ABF2"/>
            <stop offset="0.1204" stop-color="#1E9FF3"/>
            <stop offset="0.3381" stop-color="#187FF4"/>
            <stop offset="0.6281" stop-color="#0F4CF7"/>
            <stop offset="0.9762" stop-color="#0305FB"/>
            <stop offset="1" stop-color="#0200FB"/>
        </linearGradient>
        <clipPath id="clip0_4039_50697">
            <rect width="20" height="20" fill="white"/>
        </clipPath>
    </defs>
</svg>
