<svg width="20" height="20" viewBox="0 0 20 20" fill="none" xmlns="http://www.w3.org/2000/svg">
    <path d="M4.99984 4.99935L8.74984 8.74935M4.99984 4.99935H2.49984L1.6665 2.49935L2.49984 1.66602L4.99984 2.49935V4.99935ZM16.049 2.28353L13.8593 4.47321C13.5293 4.80322 13.3643 4.96823 13.3025 5.1585C13.2481 5.32587 13.2481 5.50616 13.3025 5.67353C13.3643 5.8638 13.5293 6.02881 13.8593 6.35882L14.057 6.55654C14.387 6.88655 14.552 7.05156 14.7423 7.11338C14.9097 7.16777 15.09 7.16777 15.2574 7.11338C15.4476 7.05156 15.6126 6.88655 15.9426 6.55654L17.9909 4.50828C18.2115 5.04509 18.3332 5.63301 18.3332 6.24935C18.3332 8.78065 16.2811 10.8327 13.7498 10.8327C13.4447 10.8327 13.1465 10.8029 12.858 10.746C12.4528 10.6661 12.2503 10.6261 12.1275 10.6384C11.9969 10.6514 11.9326 10.6709 11.8169 10.7328C11.7081 10.7911 11.599 10.9002 11.3807 11.1185L5.4165 17.0827C4.72615 17.773 3.60686 17.773 2.91651 17.0827C2.22615 16.3923 2.22615 15.273 2.91651 14.5827L8.88069 8.61849C9.09898 8.4002 9.20813 8.29106 9.26635 8.18226C9.32825 8.06658 9.34783 8.00224 9.36084 7.87169C9.37307 7.74889 9.33312 7.54633 9.25323 7.14122C9.19633 6.85273 9.1665 6.55452 9.1665 6.24935C9.1665 3.71804 11.2185 1.66602 13.7498 1.66602C14.5878 1.66602 15.3732 1.89087 16.049 2.28353ZM9.99988 12.4993L14.5832 17.0826C15.2735 17.7729 16.3928 17.7729 17.0832 17.0826C17.7735 16.3922 17.7735 15.2729 17.0832 14.5826L13.3126 10.8121C13.0457 10.7868 12.7854 10.7387 12.5338 10.6696C12.2096 10.5806 11.854 10.6452 11.6162 10.883L9.99988 12.4993Z" stroke="#175CD3" stroke-width="1.66667" stroke-linecap="round" stroke-linejoin="round"/>
</svg>
