<svg width="24" height="24" viewBox="0 0 24 24" fill="none" xmlns="http://www.w3.org/2000/svg">
    <g clip-path="url(#clip0_1331_19772)">
        <path d="M13.2484 22.3715C12.726 22.3715 12.114 22.1805 11.6558 22.0238C11.4344 21.9659 11.2223 21.8769 11.0259 21.7596C10.7274 21.5775 10.6647 21.564 10.5617 21.1789C11.0767 21.058 12.4738 20.1968 12.9962 19.8818C16.4859 17.7922 15.7859 19.637 15.7859 11.3276C16.1382 11.4112 17.7263 12.0873 17.7263 12.6709C17.7263 15.7905 18.2084 19.0893 16.4934 20.9894C15.959 21.5864 14.341 22.3715 13.2499 22.3715H13.2484ZM3.09855 15.3562C9.16012 18.5638 7.41971 19.037 11.4826 16.5772C12.5275 15.9398 13.6022 15.4219 14.5903 14.7591V17.1473C12.3514 17.6683 8.20782 22.4686 4.7688 19.5072L4.16279 18.9176C3.28811 17.8877 3.10004 17.2205 3.10004 15.3577L3.09855 15.3562ZM11.9051 14.9084C11.4379 14.5964 10.0423 13.7053 9.51686 13.565V10.4305C10.335 10.0232 11.1321 9.57484 11.9051 9.08714C12.935 9.32596 13.5619 10.1902 14.5918 10.4305V13.4158C14.1739 13.6994 12.3454 14.792 11.9051 14.9099V14.9084ZM1.90444 10.729C1.90444 9.2364 1.80444 8.61248 2.81495 7.3124C3.37618 6.58848 3.92845 6.38399 4.73895 5.95411V12.0739C5.77334 12.6217 6.70474 13.2232 7.77048 13.8188L10.8587 15.6562C9.46312 16.0294 9.3661 17.0936 8.28991 16.4473C5.83603 14.9771 1.90594 13.4158 1.90594 10.7305L1.90444 10.729ZM22.2042 13.7143C22.2042 15.5786 21.0892 17.4921 19.3682 17.8937V14.0128C19.3682 12.0724 19.5966 12.0306 18.2219 11.2798L13.2484 8.49307C13.6186 7.93931 13.7783 8.04528 14.3769 7.6766C15.3545 7.07955 15.2918 7.29897 17.1203 8.35127C19.3279 9.6215 22.2027 10.7081 22.2027 13.7158L22.2042 13.7143ZM9.51686 9.08714V6.84819C10.5423 6.30488 11.6424 5.65409 12.6424 5.04808C14.5679 3.88682 14.8814 3.56441 16.9785 3.56441C18.1144 3.56441 19.3816 4.42566 19.9235 5.09734C20.9131 6.3213 20.8593 7.26912 20.8593 8.63935C20.1309 8.25276 16.3501 5.80335 15.6351 5.80335C14.9202 5.80335 10.2527 8.69607 9.51536 9.08714H9.51686ZM8.32275 12.8187C7.93915 12.562 6.84356 11.8813 6.38233 11.7739C6.38233 7.82885 5.58825 4.40028 7.97497 2.62107C9.28848 1.64339 10.6274 1.3598 12.226 1.90162C12.823 2.10462 13.0589 2.3912 13.547 2.52106C13.2708 2.8972 11.6558 3.70024 11.1498 4.00473C7.52718 6.18994 8.32275 4.17937 8.32275 12.8187ZM1.45666 15.6547C1.45666 19.6191 4.15533 22.2372 7.88541 22.073C9.28699 22.0103 8.51381 21.8924 9.51238 22.6701C11.8051 24.4687 14.8754 24.3985 17.0039 22.6939C17.4789 22.3245 17.8947 21.8845 18.2368 21.3894C19.6011 19.3908 17.9801 20.3207 20.1578 19.4296C23.2102 18.1817 24.8312 14.3352 23.1729 11.0992C22.5296 9.8439 22.2296 10.423 22.5102 8.64532C22.949 5.86604 21.0295 3.25394 18.8159 2.32254C16.4979 1.34785 15.7904 2.62107 14.6231 1.44189C14.3266 1.13083 13.9793 0.872407 13.5962 0.677664C11.1095 -0.650777 7.76451 0.0358331 6.05694 2.19567C4.15085 4.60925 6.27934 3.47784 3.89113 4.50775C0.355095 6.03173 -0.779304 10.2932 0.974536 13.1501C2.30596 15.3204 1.45666 13.2665 1.45666 15.6532V15.6547Z" fill="#10A37F"/>
    </g>
    <defs>
        <clipPath id="clip0_1331_19772">
            <rect width="24" height="24" fill="white"/>
        </clipPath>
    </defs>
</svg>
