<svg width="42" height="40" viewBox="0 0 42 40" fill="none" xmlns="http://www.w3.org/2000/svg">
    <path d="M9.75 4C9.75 2.20508 11.2051 0.75 13 0.75H29C29.1212 0.75 29.2375 0.798159 29.3232 0.883885L40.1161 11.6768C40.2018 11.7625 40.25 11.8788 40.25 12V36C40.25 37.7949 38.7949 39.25 37 39.25H13C11.2051 39.25 9.75 37.7949 9.75 36V4Z" fill="white" stroke="#D0D5DD" stroke-width="1.5"/>
    <path d="M29 0.5V8C29 10.2091 30.7909 12 33 12H40.5" stroke="#D0D5DD" stroke-width="1.5"/>
    <rect x="0.5" y="18" width="31" height="16" rx="2" fill="#444CE7"/>
    <path d="M4.21511 30V22.7273H7.08443C7.63604 22.7273 8.10597 22.8326 8.49423 23.0433C8.88249 23.2517 9.17842 23.5417 9.38201 23.9134C9.58798 24.2827 9.69096 24.7088 9.69096 25.1918C9.69096 25.6747 9.5868 26.1009 9.37846 26.4702C9.17013 26.8395 8.86828 27.1271 8.47292 27.3331C8.07993 27.5391 7.60408 27.642 7.04537 27.642H5.21653V26.4098H6.79679C7.09271 26.4098 7.33656 26.3589 7.52832 26.2571C7.72245 26.1529 7.86686 26.0097 7.96156 25.8274C8.05862 25.6428 8.10716 25.4309 8.10716 25.1918C8.10716 24.9503 8.05862 24.7396 7.96156 24.5597C7.86686 24.3774 7.72245 24.2365 7.52832 24.1371C7.33419 24.0353 7.08798 23.9844 6.78968 23.9844H5.75275V30H4.21511ZM10.6897 30V22.7273H15.5903V23.995H12.2274V25.728H15.3382V26.9957H12.2274V28.7322H15.6045V30H10.6897ZM16.8128 30V22.7273H19.6821C20.2313 22.7273 20.7001 22.8255 21.0883 23.022C21.479 23.2161 21.7761 23.492 21.9797 23.8494C22.1856 24.2045 22.2886 24.6224 22.2886 25.103C22.2886 25.5859 22.1845 26.0014 21.9761 26.3494C21.7678 26.6951 21.4659 26.9602 21.0706 27.1449C20.6776 27.3295 20.2017 27.4219 19.643 27.4219H17.7219V26.1861H19.3944C19.688 26.1861 19.9318 26.1458 20.126 26.0653C20.3201 25.9848 20.4645 25.8641 20.5592 25.7031C20.6563 25.5421 20.7048 25.3421 20.7048 25.103C20.7048 24.8615 20.6563 24.6579 20.5592 24.4922C20.4645 24.3265 20.3189 24.201 20.1224 24.1158C19.9283 24.0282 19.6833 23.9844 19.3873 23.9844H18.3504V30H16.8128ZM20.7403 26.6903L22.5479 30H20.8504L19.0819 26.6903H20.7403ZM23.3753 30V22.7273H24.9129V28.7322H28.0308V30H23.3753Z" fill="white"/>
</svg>
