<svg width="24" height="24" viewBox="0 0 24 24" fill="none" xmlns="http://www.w3.org/2000/svg">
    <path d="M16.392 21.6613H7.70037C5.60757 21.6613 3.91077 19.9645 3.91077 17.8717V6.21245C3.91077 4.11965 5.60757 2.42285 7.70037 2.42285H16.392C18.4848 2.42285 20.1816 4.11965 20.1816 6.21245V17.8729C20.1816 19.9645 18.4848 21.6613 16.392 21.6613Z" fill="#FF5D50"/>
    <path d="M16.0548 15.6001H8.03639C7.04519 15.6001 6.23999 14.7961 6.23999 13.8037V6.70326C6.23999 5.71086 7.04399 4.90686 8.03639 4.90686H16.0548C17.0472 4.90686 17.8512 5.71086 17.8512 6.70326V13.8037C17.8512 14.7961 17.0472 15.6001 16.0548 15.6001Z" fill="#FFDF99"/>
    <path d="M10.4543 18.5424C10.4543 18.9644 10.622 19.3691 10.9204 19.6675C11.2188 19.9659 11.6235 20.1336 12.0455 20.1336C12.4676 20.1336 12.8723 19.9659 13.1707 19.6675C13.4691 19.3691 13.6367 18.9644 13.6367 18.5424C13.6367 18.3334 13.5956 18.1265 13.5156 17.9334C13.4357 17.7404 13.3184 17.565 13.1707 17.4172C13.0229 17.2695 12.8475 17.1523 12.6545 17.0723C12.4614 16.9923 12.2545 16.9512 12.0455 16.9512C11.8366 16.9512 11.6297 16.9923 11.4366 17.0723C11.2436 17.1523 11.0682 17.2695 10.9204 17.4172C10.7726 17.565 10.6554 17.7404 10.5755 17.9334C10.4955 18.1265 10.4543 18.3334 10.4543 18.5424Z" fill="#FFDF99"/>
</svg>
