<svg width="40" height="40" viewBox="0 0 40 40" fill="none" xmlns="http://www.w3.org/2000/svg">
    <path d="M7.75 4C7.75 2.20508 9.20508 0.75 11 0.75H27C27.1212 0.75 27.2375 0.798159 27.3232 0.883885L38.1161 11.6768C38.2018 11.7625 38.25 11.8788 38.25 12V36C38.25 37.7949 36.7949 39.25 35 39.25H11C9.20507 39.25 7.75 37.7949 7.75 36V4Z" fill="white" stroke="#D0D5DD" stroke-width="1.5"/>
    <path d="M27 0.5V8C27 10.2091 28.7909 12 31 12H38.5" stroke="#D0D5DD" stroke-width="1.5"/>
    <rect x="0.5" y="18" width="27" height="16" rx="2" fill="#444CE7"/>
    <path d="M4.42702 30V22.7273H7.29634C7.84795 22.7273 8.31789 22.8326 8.70614 23.0433C9.0944 23.2517 9.39033 23.5417 9.59393 23.9134C9.79989 24.2827 9.90288 24.7088 9.90288 25.1918C9.90288 25.6747 9.79871 26.1009 9.59038 26.4702C9.38204 26.8395 9.0802 27.1271 8.68484 27.3331C8.29184 27.5391 7.81599 27.642 7.25728 27.642H5.42844V26.4098H7.0087C7.30463 26.4098 7.54847 26.3589 7.74023 26.2571C7.93436 26.1529 8.07878 26.0097 8.17347 25.8274C8.27054 25.6428 8.31907 25.4309 8.31907 25.1918C8.31907 24.9503 8.27054 24.7396 8.17347 24.5597C8.07878 24.3774 7.93436 24.2365 7.74023 24.1371C7.54611 24.0353 7.29989 23.9844 7.0016 23.9844H5.96467V30H4.42702ZM10.9016 30V22.7273H12.4393V25.728H15.5607V22.7273H17.0948V30H15.5607V26.9957H12.4393V30H10.9016ZM18.3626 30V22.7273H21.2319C21.7835 22.7273 22.2534 22.8326 22.6417 23.0433C23.0299 23.2517 23.3259 23.5417 23.5295 23.9134C23.7354 24.2827 23.8384 24.7088 23.8384 25.1918C23.8384 25.6747 23.7343 26.1009 23.5259 26.4702C23.3176 26.8395 23.0157 27.1271 22.6204 27.3331C22.2274 27.5391 21.7515 27.642 21.1928 27.642H19.364V26.4098H20.9442C21.2402 26.4098 21.484 26.3589 21.6758 26.2571C21.8699 26.1529 22.0143 26.0097 22.109 25.8274C22.2061 25.6428 22.2546 25.4309 22.2546 25.1918C22.2546 24.9503 22.2061 24.7396 22.109 24.5597C22.0143 24.3774 21.8699 24.2365 21.6758 24.1371C21.4817 24.0353 21.2354 23.9844 20.9371 23.9844H19.9002V30H18.3626Z" fill="white"/>
</svg>
