<svg width="13" height="13" viewBox="0 0 13 13" fill="none" xmlns="http://www.w3.org/2000/svg">
    <path d="M8.33333 2.91699L10.0833 1.16699M10.0833 1.16699L11.8333 2.91699M10.0833 1.16699V4.66699M6.29167 1.75033H3.55C2.56991 1.75033 2.07986 1.75033 1.70552 1.94106C1.37623 2.10884 1.10852 2.37656 0.940739 2.70584C0.75 3.08019 0.75 3.57023 0.75 4.55033V9.45033C0.75 10.4304 0.75 10.9205 0.940739 11.2948C1.10852 11.6241 1.37623 11.8918 1.70552 12.0596C2.07986 12.2503 2.56991 12.2503 3.55 12.2503H8.91667C9.45915 12.2503 9.73039 12.2503 9.95293 12.1907C10.5568 12.0289 11.0286 11.5572 11.1904 10.9533C11.25 10.7307 11.25 10.4595 11.25 9.91699M5.125 4.95866C5.125 5.60299 4.60267 6.12533 3.95833 6.12533C3.314 6.12533 2.79167 5.60299 2.79167 4.95866C2.79167 4.31433 3.314 3.79199 3.95833 3.79199C4.60267 3.79199 5.125 4.31433 5.125 4.95866ZM7.74419 6.95258L2.80984 11.4384C2.53229 11.6907 2.39352 11.8168 2.38125 11.9261C2.37061 12.0208 2.40693 12.1148 2.47852 12.1777C2.56112 12.2503 2.74866 12.2503 3.12375 12.2503H8.59932C9.43883 12.2503 9.85859 12.2503 10.1883 12.1093C10.6022 11.9322 10.9319 11.6025 11.109 11.1886C11.25 10.8589 11.25 10.4392 11.25 9.59965C11.25 9.31718 11.25 9.17595 11.2191 9.04441C11.1803 8.87912 11.1059 8.72428 11.0011 8.59072C10.9176 8.48444 10.8074 8.39621 10.5868 8.21976L8.95507 6.91438C8.73431 6.73777 8.62393 6.64947 8.50238 6.61831C8.39524 6.59084 8.2825 6.5944 8.17731 6.62856C8.05797 6.66732 7.95337 6.76241 7.74419 6.95258Z"
          stroke="#175CD3" stroke-linecap="round" stroke-linejoin="round"/>
</svg>
