<svg width="20" height="20" viewBox="0 0 20 20" fill="none" xmlns="http://www.w3.org/2000/svg">
    <path d="M16.2041 16.5919H3.79589C2.93875 16.5919 2.24487 15.898 2.24487 15.0409V4.95922C2.24487 4.10208 2.93875 3.4082 3.79589 3.4082H16.2041C17.0612 3.4082 17.7551 4.10208 17.7551 4.95922V15.0409C17.7551 15.898 17.0612 16.5919 16.2041 16.5919Z" fill="#D2F4FF"/>
    <path d="M17.7551 12.816L16.9796 11.8772L12.2347 7.14254C11.8571 6.76499 11.2449 6.76499 10.8673 7.14254L8.19385 9.8058C8.14283 9.85682 8.09181 9.86703 8.0612 9.86703C8.03059 9.86703 7.96936 9.85682 7.92855 9.8058L7.19385 9.08131C6.8163 8.70376 6.20406 8.70376 5.82651 9.08131L3.02038 11.8874L2.24487 12.8262V15.0507C2.24487 15.9078 2.93875 16.6017 3.79589 16.6017H16.2041C17.0612 16.6017 17.7551 15.9078 17.7551 15.0507V12.816Z" fill="#16C4AF"/>
    <path d="M4.37744 6.12173C4.37744 6.37883 4.47957 6.6254 4.66137 6.80719C4.84316 6.98899 5.08973 7.09112 5.34683 7.09112C5.60393 7.09112 5.85049 6.98899 6.03229 6.80719C6.21409 6.6254 6.31622 6.37883 6.31622 6.12173C6.31622 5.86463 6.21409 5.61807 6.03229 5.43627C5.85049 5.25448 5.60393 5.15234 5.34683 5.15234C5.08973 5.15234 4.84316 5.25448 4.66137 5.43627C4.47957 5.61807 4.37744 5.86463 4.37744 6.12173Z" fill="#E5404F"/>
    <path d="M12.5815 14.9994H5.43868C5.21419 14.9994 5.03052 14.8158 5.03052 14.5913C5.03052 14.3668 5.21419 14.1831 5.43868 14.1831H12.5815C12.806 14.1831 12.9897 14.3668 12.9897 14.5913C12.9897 14.8158 12.806 14.9994 12.5815 14.9994ZM9.01011 13.1015H5.43868C5.21419 13.1015 5.03052 12.9178 5.03052 12.6933C5.03052 12.4688 5.21419 12.2852 5.43868 12.2852H9.01011C9.2346 12.2852 9.41827 12.4688 9.41827 12.6933C9.41827 12.9178 9.2346 13.1015 9.01011 13.1015Z" fill="#0B9682"/>
</svg>
