<svg width="40" height="40" viewBox="0 0 40 40" fill="none" xmlns="http://www.w3.org/2000/svg">
    <path d="M7.75 4C7.75 2.20508 9.20508 0.75 11 0.75H27C27.1212 0.75 27.2375 0.798159 27.3232 0.883885L38.1161 11.6768C38.2018 11.7625 38.25 11.8788 38.25 12V36C38.25 37.7949 36.7949 39.25 35 39.25H11C9.20507 39.25 7.75 37.7949 7.75 36V4Z" fill="white" stroke="#D0D5DD" stroke-width="1.5"/>
    <path d="M27 0.5V8C27 10.2091 28.7909 12 31 12H38.5" stroke="#D0D5DD" stroke-width="1.5"/>
    <rect x="1" y="18" width="26" height="16" rx="2" fill="#444CE7"/>
    <path d="M4.93972 30V22.7273H7.80904C8.36065 22.7273 8.83058 22.8326 9.21884 23.0433C9.6071 23.2517 9.90302 23.5417 10.1066 23.9134C10.3126 24.2827 10.4156 24.7088 10.4156 25.1918C10.4156 25.6747 10.3114 26.1009 10.1031 26.4702C9.89474 26.8395 9.59289 27.1271 9.19753 27.3331C8.80454 27.5391 8.32869 27.642 7.76998 27.642H5.94114V26.4098H7.5214C7.81732 26.4098 8.06117 26.3589 8.25293 26.2571C8.44706 26.1529 8.59147 26.0097 8.68617 25.8274C8.78323 25.6428 8.83176 25.4309 8.83176 25.1918C8.83176 24.9503 8.78323 24.7396 8.68617 24.5597C8.59147 24.3774 8.44706 24.2365 8.25293 24.1371C8.0588 24.0353 7.81259 23.9844 7.51429 23.9844H6.47736V30H4.93972ZM11.4143 30V22.7273H12.952V28.7322H16.0699V30H11.4143Z" fill="white"/>
    <path d="M23.2219 25.2734H21.6665C21.6381 25.0722 21.58 24.8935 21.4925 24.7372C21.4049 24.5786 21.2924 24.4437 21.1551 24.3324C21.0178 24.2211 20.8592 24.1359 20.6792 24.0767C20.5017 24.0175 20.3087 23.9879 20.1004 23.9879C19.724 23.9879 19.3961 24.0814 19.1167 24.2685C18.8374 24.4531 18.6208 24.723 18.4669 25.0781C18.313 25.4309 18.2361 25.8594 18.2361 26.3636C18.2361 26.8821 18.313 27.3177 18.4669 27.6705C18.6231 28.0232 18.8409 28.2895 19.1203 28.4695C19.3997 28.6494 19.7228 28.7393 20.0898 28.7393C20.2957 28.7393 20.4863 28.7121 20.6615 28.6577C20.839 28.6032 20.9965 28.5239 21.1338 28.4197C21.2711 28.3132 21.3847 28.1842 21.4747 28.0327C21.567 27.8812 21.6309 27.7083 21.6665 27.5142L23.2219 27.5213C23.1816 27.8551 23.081 28.1771 22.92 28.4872C22.7614 28.795 22.5471 29.0708 22.2773 29.3146C22.0097 29.5561 21.6901 29.7479 21.3184 29.8899C20.9491 30.0296 20.5313 30.0994 20.0649 30.0994C19.4162 30.0994 18.8362 29.9527 18.3248 29.6591C17.8158 29.3655 17.4134 28.9406 17.1175 28.3842C16.8239 27.8279 16.6771 27.1544 16.6771 26.3636C16.6771 25.5705 16.8263 24.8958 17.1246 24.3395C17.4229 23.7831 17.8277 23.3594 18.339 23.0682C18.8504 22.7746 19.4257 22.6278 20.0649 22.6278C20.4863 22.6278 20.8769 22.687 21.2368 22.8054C21.599 22.9238 21.9198 23.0966 22.1991 23.3239C22.4785 23.5488 22.7058 23.8246 22.8809 24.1513C23.0585 24.478 23.1721 24.852 23.2219 25.2734Z" fill="#444CE7"/>
</svg>
