<svg width="41" height="40" viewBox="0 0 41 40" fill="none" xmlns="http://www.w3.org/2000/svg">
    <path d="M8.75 4C8.75 2.20508 10.2051 0.75 12 0.75H28C28.1212 0.75 28.2375 0.798159 28.3232 0.883885L39.1161 11.6768C39.2018 11.7625 39.25 11.8788 39.25 12V36C39.25 37.7949 37.7949 39.25 36 39.25H12C10.2051 39.25 8.75 37.7949 8.75 36V4Z" fill="white" stroke="#D0D5DD" stroke-width="1.5"/>
    <path d="M28 0.5V8C28 10.2091 29.7909 12 32 12H39.5" stroke="#D0D5DD" stroke-width="1.5"/>
    <rect y="18" width="30" height="16" rx="2" fill="#444CE7"/>
    <path d="M3.74334 32.0455V24.5455H5.23482V25.4616H5.30229C5.36858 25.3149 5.46446 25.1657 5.58993 25.0142C5.71777 24.8603 5.88349 24.7325 6.08709 24.6307C6.29306 24.5265 6.54874 24.4744 6.85414 24.4744C7.25186 24.4744 7.61882 24.5786 7.95499 24.7869C8.29116 24.9929 8.55987 25.3042 8.7611 25.7209C8.96233 26.1352 9.06294 26.6548 9.06294 27.2798C9.06294 27.8883 8.9647 28.402 8.7682 28.821C8.57407 29.2377 8.30892 29.5537 7.97275 29.7692C7.63894 29.9822 7.26489 30.0888 6.85059 30.0888C6.55703 30.0888 6.30726 30.0402 6.1013 29.9432C5.8977 29.8461 5.73079 29.7242 5.60059 29.5774C5.47038 29.4283 5.37095 29.2779 5.30229 29.1264H5.25613V32.0455H3.74334ZM5.22417 27.2727C5.22417 27.5971 5.26915 27.88 5.35911 28.1214C5.44907 28.3629 5.57928 28.5511 5.74973 28.6861C5.92019 28.8187 6.12734 28.8849 6.37118 28.8849C6.61739 28.8849 6.82573 28.8175 6.99618 28.6825C7.16664 28.5452 7.29566 28.3558 7.38326 28.1143C7.47322 27.8705 7.5182 27.59 7.5182 27.2727C7.5182 26.9579 7.4744 26.6809 7.38681 26.4418C7.29921 26.2027 7.17019 26.0156 6.99973 25.8807C6.82928 25.7457 6.61976 25.6783 6.37118 25.6783C6.12497 25.6783 5.91664 25.7434 5.74618 25.8736C5.5781 26.0038 5.44907 26.1884 5.35911 26.4276C5.26915 26.6667 5.22417 26.9484 5.22417 27.2727ZM11.5843 22.7273V30H10.0715V22.7273H11.5843ZM17.3344 26.1009L15.9495 26.1861C15.9258 26.0677 15.8749 25.9612 15.7968 25.8665C15.7187 25.7694 15.6157 25.6925 15.4878 25.6357C15.3624 25.5765 15.212 25.5469 15.0368 25.5469C14.8025 25.5469 14.6048 25.5966 14.4438 25.696C14.2828 25.7931 14.2023 25.9233 14.2023 26.0866C14.2023 26.2169 14.2544 26.3269 14.3586 26.4169C14.4627 26.5069 14.6415 26.5791 14.8948 26.6335L15.882 26.8324C16.4123 26.9413 16.8077 27.1165 17.0681 27.358C17.3285 27.5994 17.4587 27.9167 17.4587 28.3097C17.4587 28.6671 17.3534 28.9808 17.1427 29.2507C16.9343 29.5206 16.6479 29.7313 16.2833 29.8828C15.9211 30.032 15.5032 30.1065 15.0297 30.1065C14.3077 30.1065 13.7324 29.9562 13.3039 29.6555C12.8778 29.3525 12.628 28.9406 12.5546 28.4197L14.0425 28.3416C14.0875 28.5618 14.1964 28.7299 14.3692 28.8459C14.5421 28.9595 14.7634 29.0163 15.0333 29.0163C15.2984 29.0163 15.5115 28.9654 15.6725 28.8636C15.8358 28.7595 15.9187 28.6257 15.9211 28.4624C15.9187 28.325 15.8607 28.2126 15.7471 28.125C15.6334 28.035 15.4582 27.9664 15.2215 27.919L14.2769 27.7308C13.7442 27.6243 13.3477 27.4396 13.0873 27.1768C12.8292 26.9141 12.7002 26.5791 12.7002 26.1719C12.7002 25.8215 12.7949 25.5196 12.9843 25.2663C13.176 25.013 13.4448 24.8177 13.7904 24.6804C14.1384 24.5431 14.5456 24.4744 15.012 24.4744C15.7009 24.4744 16.243 24.62 16.6384 24.9112C17.0361 25.2024 17.2681 25.599 17.3344 26.1009ZM22.0157 32.0455V29.1264H21.9695C21.8985 29.2779 21.7979 29.4283 21.6677 29.5774C21.5399 29.7242 21.373 29.8461 21.167 29.9432C20.9634 30.0402 20.7148 30.0888 20.4213 30.0888C20.007 30.0888 19.6317 29.9822 19.2955 29.7692C18.9617 29.5537 18.6966 29.2377 18.5001 28.821C18.306 28.402 18.2089 27.8883 18.2089 27.2798C18.2089 26.6548 18.3095 26.1352 18.5107 25.7209C18.712 25.3042 18.9795 24.9929 19.3133 24.7869C19.6495 24.5786 20.0176 24.4744 20.4177 24.4744C20.7231 24.4744 20.9776 24.5265 21.1812 24.6307C21.3872 24.7325 21.5529 24.8603 21.6784 25.0142C21.8062 25.1657 21.9033 25.3149 21.9695 25.4616H22.0335V24.5455H23.5249V32.0455H22.0157ZM20.9007 28.8849C21.1445 28.8849 21.3505 28.8187 21.5186 28.6861C21.689 28.5511 21.8192 28.3629 21.9092 28.1214C22.0015 27.88 22.0477 27.5971 22.0477 27.2727C22.0477 26.9484 22.0027 26.6667 21.9127 26.4276C21.8228 26.1884 21.6926 26.0038 21.5221 25.8736C21.3517 25.7434 21.1445 25.6783 20.9007 25.6783C20.6521 25.6783 20.4426 25.7457 20.2721 25.8807C20.1017 26.0156 19.9726 26.2027 19.885 26.4418C19.7974 26.6809 19.7536 26.9579 19.7536 27.2727C19.7536 27.59 19.7974 27.8705 19.885 28.1143C19.975 28.3558 20.104 28.5452 20.2721 28.6825C20.4426 28.8175 20.6521 28.8849 20.9007 28.8849ZM26.2522 22.7273V30H24.7394V22.7273H26.2522Z" fill="white"/>
</svg>
