<svg width="41" height="40" viewBox="0 0 41 40" fill="none" xmlns="http://www.w3.org/2000/svg">
    <path d="M8.75 4C8.75 2.20508 10.2051 0.75 12 0.75H28C28.1212 0.75 28.2375 0.798159 28.3232 0.883885L39.1161 11.6768C39.2018 11.7625 39.25 11.8788 39.25 12V36C39.25 37.7949 37.7949 39.25 36 39.25H12C10.2051 39.25 8.75 37.7949 8.75 36V4Z" fill="white" stroke="#D0D5DD" stroke-width="1.5"/>
    <path d="M28 0.5V8C28 10.2091 29.7909 12 32 12H39.5" stroke="#D0D5DD" stroke-width="1.5"/>
    <rect y="18" width="30" height="16" rx="2" fill="#444CE7"/>
    <path d="M3.90847 30V22.7273H6.77779C7.3294 22.7273 7.79933 22.8326 8.18759 23.0433C8.57585 23.2517 8.87177 23.5417 9.07537 23.9134C9.28134 24.2827 9.38432 24.7088 9.38432 25.1918C9.38432 25.6747 9.28016 26.1009 9.07182 26.4702C8.86349 26.8395 8.56164 27.1271 8.16628 27.3331C7.77329 27.5391 7.29744 27.642 6.73873 27.642H4.90989V26.4098H6.49015C6.78607 26.4098 7.02992 26.3589 7.22168 26.2571C7.41581 26.1529 7.56022 26.0097 7.65492 25.8274C7.75198 25.6428 7.80051 25.4309 7.80051 25.1918C7.80051 24.9503 7.75198 24.7396 7.65492 24.5597C7.56022 24.3774 7.41581 24.2365 7.22168 24.1371C7.02755 24.0353 6.78134 23.9844 6.48304 23.9844H5.44611V30H3.90847ZM10.3831 22.7273H12.2794L14.2822 27.6136H14.3675L16.3703 22.7273H18.2666V30H16.7751V25.2663H16.7148L14.8327 29.9645H13.817L11.9349 25.2486H11.8746V30H10.3831V22.7273Z" fill="white"/>
    <path d="M26.2167 26.3636C26.2167 27.1567 26.0664 27.8314 25.7657 28.3878C25.4674 28.9441 25.0602 29.3691 24.5441 29.6626C24.0304 29.9538 23.4527 30.0994 22.8112 30.0994C22.1649 30.0994 21.5848 29.9527 21.0711 29.6591C20.5574 29.3655 20.1514 28.9406 19.8531 28.3842C19.5548 27.8279 19.4056 27.1544 19.4056 26.3636C19.4056 25.5705 19.5548 24.8958 19.8531 24.3395C20.1514 23.7831 20.5574 23.3594 21.0711 23.0682C21.5848 22.7746 22.1649 22.6278 22.8112 22.6278C23.4527 22.6278 24.0304 22.7746 24.5441 23.0682C25.0602 23.3594 25.4674 23.7831 25.7657 24.3395C26.0664 24.8958 26.2167 25.5705 26.2167 26.3636ZM24.6578 26.3636C24.6578 25.8499 24.5808 25.4167 24.4269 25.0639C24.2754 24.7112 24.0612 24.4437 23.7842 24.2614C23.5072 24.0791 23.1829 23.9879 22.8112 23.9879C22.4395 23.9879 22.1151 24.0791 21.8382 24.2614C21.5612 24.4437 21.3457 24.7112 21.1919 25.0639C21.0403 25.4167 20.9646 25.8499 20.9646 26.3636C20.9646 26.8774 21.0403 27.3106 21.1919 27.6634C21.3457 28.0161 21.5612 28.2836 21.8382 28.4659C22.1151 28.6482 22.4395 28.7393 22.8112 28.7393C23.1829 28.7393 23.5072 28.6482 23.7842 28.4659C24.0612 28.2836 24.2754 28.0161 24.4269 27.6634C24.5808 27.3106 24.6578 26.8774 24.6578 26.3636Z" fill="#444CE7"/>
</svg>
