<svg width="43" height="40" viewBox="0 0 43 40" fill="none" xmlns="http://www.w3.org/2000/svg">
    <path d="M10.75 4C10.75 2.20508 12.2051 0.75 14 0.75H30C30.1212 0.75 30.2375 0.798159 30.3232 0.883885L41.1161 11.6768C41.2018 11.7625 41.25 11.8788 41.25 12V36C41.25 37.7949 39.7949 39.25 38 39.25H14C12.2051 39.25 10.75 37.7949 10.75 36V4Z" fill="white" stroke="#D0D5DD" stroke-width="1.5"/>
    <path d="M30 0.5V8C30 10.2091 31.7909 12 34 12H41.5" stroke="#D0D5DD" stroke-width="1.5"/>
    <rect x="0.5" y="18" width="33" height="16" rx="2" fill="#DC6803"/>
    <path d="M4.24343 30V22.7273H7.11275C7.66436 22.7273 8.13429 22.8326 8.52255 23.0433C8.91081 23.2517 9.20674 23.5417 9.41033 23.9134C9.6163 24.2827 9.71928 24.7088 9.71928 25.1918C9.71928 25.6747 9.61512 26.1009 9.40678 26.4702C9.19845 26.8395 8.8966 27.1271 8.50124 27.3331C8.10825 27.5391 7.6324 27.642 7.07369 27.642H5.24485V26.4098H6.82511C7.12103 26.4098 7.36488 26.3589 7.55664 26.2571C7.75077 26.1529 7.89518 26.0097 7.98988 25.8274C8.08694 25.6428 8.13548 25.4309 8.13548 25.1918C8.13548 24.9503 8.08694 24.7396 7.98988 24.5597C7.89518 24.3774 7.75077 24.2365 7.55664 24.1371C7.36251 24.0353 7.1163 23.9844 6.818 23.9844H5.78107V30H4.24343ZM10.718 30V22.7273H13.5874C14.139 22.7273 14.6089 22.8326 14.9972 23.0433C15.3854 23.2517 15.6813 23.5417 15.8849 23.9134C16.0909 24.2827 16.1939 24.7088 16.1939 25.1918C16.1939 25.6747 16.0897 26.1009 15.8814 26.4702C15.6731 26.8395 15.3712 27.1271 14.9759 27.3331C14.5829 27.5391 14.107 27.642 13.5483 27.642H11.7195V26.4098H13.2997C13.5956 26.4098 13.8395 26.3589 14.0312 26.2571C14.2254 26.1529 14.3698 26.0097 14.4645 25.8274C14.5616 25.6428 14.6101 25.4309 14.6101 25.1918C14.6101 24.9503 14.5616 24.7396 14.4645 24.5597C14.3698 24.3774 14.2254 24.2365 14.0312 24.1371C13.8371 24.0353 13.5909 23.9844 13.2926 23.9844H12.2557V30H10.718ZM16.9157 23.995V22.7273H22.8887V23.995H20.6621V30H19.1422V23.995H16.9157ZM25.3141 22.7273L26.7807 25.206H26.8375L28.3113 22.7273H30.0478L27.8283 26.3636L30.0975 30H28.329L26.8375 27.5178H26.7807L25.2892 30H23.5279L25.8042 26.3636L23.5705 22.7273H25.3141Z" fill="white"/>
</svg>
