<svg width="40" height="40" viewBox="0 0 40 40" fill="none" xmlns="http://www.w3.org/2000/svg">
    <path d="M7.75 4C7.75 2.20508 9.20508 0.75 11 0.75H27C27.1212 0.75 27.2375 0.798159 27.3232 0.883885L38.1161 11.6768C38.2018 11.7625 38.25 11.8788 38.25 12V36C38.25 37.7949 36.7949 39.25 35 39.25H11C9.20507 39.25 7.75 37.7949 7.75 36V4Z" fill="white" stroke="#D0D5DD" stroke-width="1.5"/>
    <path d="M27 0.5V8C27 10.2091 28.7909 12 31 12H38.5" stroke="#D0D5DD" stroke-width="1.5"/>
    <rect x="2" y="18" width="24" height="16" rx="2" fill="#444CE7"/>
    <path d="M5.67214 30V22.7273H8.54146C9.09307 22.7273 9.563 22.8326 9.95126 23.0433C10.3395 23.2517 10.6354 23.5417 10.839 23.9134C11.045 24.2827 11.148 24.7088 11.148 25.1918C11.148 25.6747 11.0438 26.1009 10.8355 26.4702C10.6272 26.8395 10.3253 27.1271 9.92995 27.3331C9.53696 27.5391 9.06111 27.642 8.5024 27.642H6.67356V26.4098H8.25382C8.54975 26.4098 8.79359 26.3589 8.98535 26.2571C9.17948 26.1529 9.32389 26.0097 9.41859 25.8274C9.51565 25.6428 9.56419 25.4309 9.56419 25.1918C9.56419 24.9503 9.51565 24.7396 9.41859 24.5597C9.32389 24.3774 9.17948 24.2365 8.98535 24.1371C8.79122 24.0353 8.54501 23.9844 8.24672 23.9844H7.20978V30H5.67214ZM16.0921 24.8189C16.0637 24.5324 15.9417 24.3099 15.7263 24.1513C15.5109 23.9927 15.2185 23.9134 14.8492 23.9134C14.5982 23.9134 14.3863 23.9489 14.2135 24.0199C14.0407 24.0885 13.9081 24.1844 13.8158 24.3075C13.7258 24.4306 13.6808 24.5703 13.6808 24.7266C13.6761 24.8568 13.7033 24.9704 13.7625 25.0675C13.8241 25.1645 13.9081 25.2486 14.0146 25.3196C14.1212 25.3883 14.2443 25.4486 14.384 25.5007C14.5236 25.5504 14.6728 25.593 14.8314 25.6286L15.4848 25.7848C15.8021 25.8558 16.0932 25.9505 16.3584 26.0689C16.6236 26.1873 16.8532 26.3329 17.0473 26.5057C17.2414 26.6785 17.3918 26.8821 17.4983 27.1165C17.6072 27.3509 17.6628 27.6196 17.6652 27.9226C17.6628 28.3677 17.5492 28.7536 17.3243 29.0803C17.1018 29.4046 16.7798 29.6567 16.3584 29.8366C15.9394 30.0142 15.4339 30.103 14.8421 30.103C14.2549 30.103 13.7436 30.013 13.308 29.8331C12.8747 29.6532 12.5362 29.3868 12.2923 29.0341C12.0509 28.679 11.9242 28.2398 11.9124 27.7166H13.4003C13.4169 27.9605 13.4867 28.1641 13.6098 28.3274C13.7353 28.4884 13.9022 28.6103 14.1105 28.6932C14.3212 28.7737 14.5592 28.8139 14.8243 28.8139C15.0847 28.8139 15.3108 28.776 15.5026 28.7003C15.6967 28.6245 15.847 28.5192 15.9536 28.3842C16.0601 28.2493 16.1134 28.0942 16.1134 27.919C16.1134 27.7557 16.0648 27.6184 15.9678 27.5071C15.8731 27.3958 15.7334 27.3011 15.5487 27.223C15.3664 27.1449 15.1427 27.0739 14.8776 27.0099L14.0857 26.8111C13.4725 26.6619 12.9884 26.4287 12.6333 26.1115C12.2781 25.7943 12.1018 25.367 12.1041 24.8295C12.1018 24.3892 12.219 24.0045 12.4557 23.6754C12.6948 23.3464 13.0227 23.0895 13.4394 22.9048C13.856 22.7202 14.3295 22.6278 14.8598 22.6278C15.3996 22.6278 15.8707 22.7202 16.2732 22.9048C16.678 23.0895 16.9929 23.3464 17.2178 23.6754C17.4427 24.0045 17.5587 24.3857 17.5658 24.8189H16.0921ZM21.8209 22.7273V30H20.2833V24.1868H20.2407L18.5752 25.2308V23.8672L20.3756 22.7273H21.8209Z" fill="white"/>
</svg>
