<svg width="40" height="40" viewBox="0 0 40 40" fill="none" xmlns="http://www.w3.org/2000/svg">
    <path d="M7.75 4C7.75 2.20508 9.20508 0.75 11 0.75H27C27.1212 0.75 27.2375 0.798159 27.3232 0.883885L38.1161 11.6768C38.2018 11.7625 38.25 11.8788 38.25 12V36C38.25 37.7949 36.7949 39.25 35 39.25H11C9.20507 39.25 7.75 37.7949 7.75 36V4Z" fill="white" stroke="#D0D5DD" stroke-width="1.5"/>
    <path d="M27 0.5V8C27 10.2091 28.7909 12 31 12H38.5" stroke="#D0D5DD" stroke-width="1.5"/>
    <rect x="0.5" y="18" width="27" height="16" rx="2" fill="#444CE7"/>
    <path d="M4.23171 30V22.7273H7.10103C7.65264 22.7273 8.12257 22.8326 8.51083 23.0433C8.89909 23.2517 9.19502 23.5417 9.39862 23.9134C9.60458 24.2827 9.70756 24.7088 9.70756 25.1918C9.70756 25.6747 9.6034 26.1009 9.39506 26.4702C9.18673 26.8395 8.88488 27.1271 8.48952 27.3331C8.09653 27.5391 7.62068 27.642 7.06197 27.642H5.23313V26.4098H6.81339C7.10932 26.4098 7.35316 26.3589 7.54492 26.2571C7.73905 26.1529 7.88346 26.0097 7.97816 25.8274C8.07522 25.6428 8.12376 25.4309 8.12376 25.1918C8.12376 24.9503 8.07522 24.7396 7.97816 24.5597C7.88346 24.3774 7.73905 24.2365 7.54492 24.1371C7.35079 24.0353 7.10458 23.9844 6.80629 23.9844H5.76935V30H4.23171ZM10.2802 22.7273H12.0025L13.6609 25.8594H13.7319L15.3903 22.7273H17.1126L14.4599 27.429V30H12.9329V27.429L10.2802 22.7273Z" fill="white"/>
    <path d="M23.9299 25.2734H22.3745C22.3461 25.0722 22.2881 24.8935 22.2005 24.7372C22.1129 24.5786 22.0004 24.4437 21.8631 24.3324C21.7258 24.2211 21.5672 24.1359 21.3873 24.0767C21.2097 24.0175 21.0167 23.9879 20.8084 23.9879C20.432 23.9879 20.1041 24.0814 19.8248 24.2685C19.5454 24.4531 19.3288 24.723 19.1749 25.0781C19.021 25.4309 18.9441 25.8594 18.9441 26.3636C18.9441 26.8821 19.021 27.3177 19.1749 27.6705C19.3311 28.0232 19.5489 28.2895 19.8283 28.4695C20.1077 28.6494 20.4308 28.7393 20.7978 28.7393C21.0037 28.7393 21.1943 28.7121 21.3695 28.6577C21.5471 28.6032 21.7045 28.5239 21.8418 28.4197C21.9791 28.3132 22.0927 28.1842 22.1827 28.0327C22.275 27.8812 22.339 27.7083 22.3745 27.5142L23.9299 27.5213C23.8896 27.8551 23.789 28.1771 23.628 28.4872C23.4694 28.795 23.2551 29.0708 22.9853 29.3146C22.7177 29.5561 22.3981 29.7479 22.0265 29.8899C21.6571 30.0296 21.2393 30.0994 20.7729 30.0994C20.1242 30.0994 19.5442 29.9527 19.0328 29.6591C18.5239 29.3655 18.1214 28.9406 17.8255 28.3842C17.5319 27.8279 17.3851 27.1544 17.3851 26.3636C17.3851 25.5705 17.5343 24.8958 17.8326 24.3395C18.1309 23.7831 18.5357 23.3594 19.0471 23.0682C19.5584 22.7746 20.1337 22.6278 20.7729 22.6278C21.1943 22.6278 21.5849 22.687 21.9448 22.8054C22.307 22.9238 22.6278 23.0966 22.9071 23.3239C23.1865 23.5488 23.4138 23.8246 23.589 24.1513C23.7665 24.478 23.8801 24.852 23.9299 25.2734Z" fill="#444CE7"/>
</svg>
