<svg width="10" height="12" viewBox="0 0 10 12" fill="none" xmlns="http://www.w3.org/2000/svg">
    <path d="M9.24998 3.63867L4.99998 5.99978M4.99998 5.99978L0.749984 3.63867M4.99998 5.99978L5 10.7498M9.5 8.02908V3.97052C9.5 3.7992 9.5 3.71354 9.47476 3.63714C9.45243 3.56955 9.41592 3.50751 9.36768 3.45517C9.31316 3.396 9.23828 3.3544 9.08852 3.27119L5.38852 1.21564C5.24671 1.13686 5.17581 1.09747 5.10073 1.08203C5.03427 1.06836 4.96573 1.06836 4.89928 1.08203C4.82419 1.09747 4.75329 1.13686 4.61149 1.21564L0.911486 3.2712C0.761724 3.3544 0.686843 3.396 0.632317 3.45517C0.584079 3.50751 0.547574 3.56955 0.525242 3.63714C0.5 3.71354 0.5 3.7992 0.5 3.97052V8.02908C0.5 8.2004 0.5 8.28606 0.525242 8.36246C0.547574 8.43005 0.584079 8.49209 0.632317 8.54443C0.686843 8.6036 0.761724 8.6452 0.911486 8.7284L4.61149 10.784C4.75329 10.8627 4.82419 10.9021 4.89928 10.9176C4.96573 10.9312 5.03427 10.9312 5.10073 10.9176C5.17581 10.9021 5.24671 10.8627 5.38851 10.784L9.08852 8.7284C9.23828 8.6452 9.31316 8.6036 9.36768 8.54443C9.41592 8.49209 9.45243 8.43005 9.47476 8.36246C9.5 8.28606 9.5 8.2004 9.5 8.02908Z" stroke="#667085" stroke-linecap="round" stroke-linejoin="round"/>
</svg>
