<svg width="40" height="40" viewBox="0 0 40 40" fill="none" xmlns="http://www.w3.org/2000/svg">
    <path d="M7.75 4C7.75 2.20508 9.20508 0.75 11 0.75H27C27.1212 0.75 27.2375 0.798159 27.3232 0.883885L38.1161 11.6768C38.2018 11.7625 38.25 11.8788 38.25 12V36C38.25 37.7949 36.7949 39.25 35 39.25H11C9.20507 39.25 7.75 37.7949 7.75 36V4Z" fill="white" stroke="#D0D5DD" stroke-width="1.5"/>
    <path d="M27 0.5V8C27 10.2091 28.7909 12 31 12H38.5" stroke="#D0D5DD" stroke-width="1.5"/>
    <rect y="18" width="28" height="16" rx="2" fill="#0E9384"/>
    <path d="M3.87038 30V22.7273H6.7397C7.28894 22.7273 7.75769 22.8255 8.14595 23.022C8.53658 23.2161 8.83369 23.492 9.03729 23.8494C9.24325 24.2045 9.34624 24.6224 9.34624 25.103C9.34624 25.5859 9.24207 26.0014 9.03374 26.3494C8.8254 26.6951 8.52356 26.9602 8.1282 27.1449C7.7352 27.3295 7.25935 27.4219 6.70064 27.4219H4.77947V26.1861H6.45206C6.74562 26.1861 6.98946 26.1458 7.18359 26.0653C7.37772 25.9848 7.52214 25.8641 7.61683 25.7031C7.7139 25.5421 7.76243 25.3421 7.76243 25.103C7.76243 24.8615 7.7139 24.6579 7.61683 24.4922C7.52214 24.3265 7.37654 24.201 7.18004 24.1158C6.98591 24.0282 6.74089 23.9844 6.44496 23.9844H5.40803V30H3.87038ZM7.79794 26.6903L9.60547 30H7.90803L6.13956 26.6903H7.79794ZM11.6864 30H10.0387L12.5494 22.7273H14.5309L17.038 30H15.3903L13.5685 24.3892H13.5117L11.6864 30ZM11.5835 27.1413H15.4755V28.3416H11.5835V27.1413Z" fill="white"/>
    <path d="M19.1669 30H17.5192L20.0298 22.7273H22.0114L24.5185 30H22.8707L21.049 24.3892H20.9922L19.1669 30ZM19.0639 27.1413H22.956V28.3416H19.0639V27.1413Z" fill="#0E9384"/>
</svg>
