<svg width="40" height="40" viewBox="0 0 40 40" fill="none" xmlns="http://www.w3.org/2000/svg">
    <path d="M7.75 4C7.75 2.20508 9.20508 0.75 11 0.75H27C27.1212 0.75 27.2375 0.798159 27.3232 0.883885L38.1161 11.6768C38.2018 11.7625 38.25 11.8788 38.25 12V36C38.25 37.7949 36.7949 39.25 35 39.25H11C9.20507 39.25 7.75 37.7949 7.75 36V4Z" fill="white" stroke="#D0D5DD" stroke-width="1.5"/>
    <path d="M27 0.5V8C27 10.2091 28.7909 12 31 12H38.5" stroke="#D0D5DD" stroke-width="1.5"/>
    <rect x="0.5" y="18" width="27" height="16" rx="2" fill="#444CE7"/>
    <path d="M4.28542 30V22.7273H7.15474C7.70398 22.7273 8.17273 22.8255 8.56099 23.022C8.95162 23.2161 9.24873 23.492 9.45233 23.8494C9.65829 24.2045 9.76128 24.6224 9.76128 25.103C9.76128 25.5859 9.65711 26.0014 9.44878 26.3494C9.24044 26.6951 8.9386 26.9602 8.54324 27.1449C8.15024 27.3295 7.67439 27.4219 7.11568 27.4219H5.19451V26.1861H6.8671C7.16066 26.1861 7.4045 26.1458 7.59863 26.0653C7.79276 25.9848 7.93717 25.8641 8.03187 25.7031C8.12894 25.5421 8.17747 25.3421 8.17747 25.103C8.17747 24.8615 8.12894 24.6579 8.03187 24.4922C7.93717 24.3265 7.79158 24.201 7.59508 24.1158C7.40095 24.0282 7.15592 23.9844 6.86 23.9844H5.82306V30H4.28542ZM8.21298 26.6903L10.0205 30H8.32306L6.5546 26.6903H8.21298ZM10.8479 30V22.7273H13.7599C14.2949 22.7273 14.7412 22.8066 15.0986 22.9652C15.4561 23.1238 15.7248 23.344 15.9047 23.6257C16.0847 23.9051 16.1746 24.227 16.1746 24.5916C16.1746 24.8757 16.1178 25.1255 16.0042 25.3409C15.8905 25.554 15.7343 25.7292 15.5354 25.8665C15.3389 26.0014 15.114 26.0973 14.8607 26.1541V26.2251C15.1377 26.237 15.3969 26.3151 15.6384 26.4595C15.8823 26.6039 16.0799 26.8063 16.2314 27.0668C16.383 27.3248 16.4587 27.6326 16.4587 27.9901C16.4587 28.3759 16.3628 28.7204 16.1711 29.0234C15.9817 29.3241 15.7011 29.562 15.3295 29.7372C14.9578 29.9124 14.4997 30 13.9552 30H10.8479ZM12.3856 28.7429H13.6391C14.0676 28.7429 14.3801 28.6612 14.5766 28.4979C14.7731 28.3321 14.8714 28.112 14.8714 27.8374C14.8714 27.6361 14.8228 27.4586 14.7258 27.3047C14.6287 27.1508 14.4902 27.0301 14.3103 26.9425C14.1327 26.8549 13.9208 26.8111 13.6746 26.8111H12.3856V28.7429ZM12.3856 25.7706H13.5255C13.7362 25.7706 13.9232 25.7339 14.0866 25.6605C14.2523 25.5848 14.3825 25.4782 14.4772 25.3409C14.5742 25.2036 14.6228 25.0391 14.6228 24.8473C14.6228 24.5845 14.5293 24.3726 14.3422 24.2116C14.1576 24.0507 13.8948 23.9702 13.5539 23.9702H12.3856V25.7706Z" fill="white"/>
    <path d="M23.8762 25.2734H22.3208C22.2923 25.0722 22.2343 24.8935 22.1468 24.7372C22.0592 24.5786 21.9467 24.4437 21.8094 24.3324C21.6721 24.2211 21.5135 24.1359 21.3335 24.0767C21.156 24.0175 20.963 23.9879 20.7547 23.9879C20.3783 23.9879 20.0504 24.0814 19.771 24.2685C19.4917 24.4531 19.2751 24.723 19.1212 25.0781C18.9673 25.4309 18.8904 25.8594 18.8904 26.3636C18.8904 26.8821 18.9673 27.3177 19.1212 27.6705C19.2774 28.0232 19.4952 28.2895 19.7746 28.4695C20.0539 28.6494 20.3771 28.7393 20.7441 28.7393C20.95 28.7393 21.1406 28.7121 21.3158 28.6577C21.4933 28.6032 21.6508 28.5239 21.7881 28.4197C21.9254 28.3132 22.039 28.1842 22.129 28.0327C22.2213 27.8812 22.2852 27.7083 22.3208 27.5142L23.8762 27.5213C23.8359 27.8551 23.7353 28.1771 23.5743 28.4872C23.4157 28.795 23.2014 29.0708 22.9316 29.3146C22.664 29.5561 22.3444 29.7479 21.9727 29.8899C21.6034 30.0296 21.1856 30.0994 20.7192 30.0994C20.0705 30.0994 19.4905 29.9527 18.9791 29.6591C18.4701 29.3655 18.0677 28.9406 17.7718 28.3842C17.4782 27.8279 17.3314 27.1544 17.3314 26.3636C17.3314 25.5705 17.4806 24.8958 17.7789 24.3395C18.0771 23.7831 18.482 23.3594 18.9933 23.0682C19.5047 22.7746 20.08 22.6278 20.7192 22.6278C21.1406 22.6278 21.5312 22.687 21.8911 22.8054C22.2533 22.9238 22.5741 23.0966 22.8534 23.3239C23.1328 23.5488 23.3601 23.8246 23.5352 24.1513C23.7128 24.478 23.8264 24.852 23.8762 25.2734Z" fill="#444CE7"/>
</svg>
