<svg width="20" height="20" viewBox="0 0 20 20" fill="none" xmlns="http://www.w3.org/2000/svg">
    <path d="M10.2624 1.25625C8.0268 1.25956 5.8839 2.14997 4.30427 3.73195C2.72463 5.31393 1.8374 7.45815 1.8374 9.69375V11.8188C1.8374 12.1503 1.9691 12.4682 2.20352 12.7026C2.43794 12.9371 2.75588 13.0688 3.0874 13.0688H8.1749C8.50642 13.0688 8.82436 13.2004 9.05878 13.4349C9.29321 13.6693 9.4249 13.9872 9.4249 14.3188V17.2812C9.4249 17.7437 9.7999 18.1187 10.2624 18.1187C11.3969 18.1624 12.5286 17.9767 13.5896 17.5727C14.6507 17.1687 15.6193 16.5547 16.4374 15.7674C17.2555 14.9802 17.9063 14.036 18.3509 12.9913C18.7955 11.9465 19.0246 10.8229 19.0246 9.6875C19.0246 8.55214 18.7955 7.42845 18.3509 6.38375C17.9063 5.33904 17.2555 4.3948 16.4374 3.60757C15.6193 2.82035 14.6507 2.20634 13.5896 1.80231C12.5286 1.39829 11.3969 1.21256 10.2624 1.25625ZM13.3374 8.08125C13.1834 8.23092 12.9771 8.31464 12.7624 8.31464C12.5477 8.31464 12.3414 8.23092 12.1874 8.08125L11.0749 6.96875V11.2563C11.0749 11.4717 10.9893 11.6784 10.8369 11.8308C10.6846 11.9831 10.4779 12.0687 10.2624 12.0687C10.0469 12.0687 9.84025 11.9831 9.68788 11.8308C9.5355 11.6784 9.4499 11.4717 9.4499 11.2563V6.96875L8.3374 8.08125C8.1849 8.23375 7.97807 8.31942 7.7624 8.31942C7.54674 8.31942 7.3399 8.23375 7.1874 8.08125C7.0349 7.92875 6.94923 7.72192 6.94923 7.50625C6.94923 7.29058 7.0349 7.08375 7.1874 6.93125L9.2499 4.86875C9.3824 4.73496 9.5401 4.62876 9.71389 4.55628C9.88768 4.4838 10.0741 4.44648 10.2624 4.44648C10.4507 4.44648 10.6371 4.4838 10.8109 4.55628C10.9847 4.62876 11.1424 4.73496 11.2749 4.86875L13.3374 6.93125C13.4871 7.08524 13.5708 7.29151 13.5708 7.50625C13.5708 7.72099 13.4871 7.92726 13.3374 8.08125Z" fill="#FFD54F"/>
    <path d="M6.8875 17.5059H1.8875C1.80438 17.5042 1.72176 17.5191 1.64448 17.5498C1.56721 17.5805 1.49682 17.6262 1.43746 17.6844C1.37809 17.7426 1.33093 17.8121 1.29874 17.8888C1.26655 17.9654 1.24998 18.0477 1.25 18.1309C1.25 18.4834 1.535 18.7684 1.8875 18.7684H6.8875C7.05658 18.7684 7.21873 18.7012 7.33828 18.5816C7.45784 18.4621 7.525 18.2999 7.525 18.1309C7.52502 18.0477 7.50845 17.9654 7.47626 17.8888C7.44407 17.8121 7.39691 17.7426 7.33754 17.6844C7.27818 17.6262 7.2078 17.5805 7.13052 17.5498C7.05324 17.5191 6.97062 17.5042 6.8875 17.5059ZM1.8375 16.2559H5.2625C5.40688 16.2268 5.53676 16.1487 5.63008 16.0348C5.72339 15.9209 5.77438 15.7781 5.77438 15.6309C5.77438 15.4836 5.72339 15.3409 5.63008 15.2269C5.53676 15.113 5.40688 15.0349 5.2625 15.0059H1.8375C1.69312 15.0349 1.56324 15.113 1.46992 15.2269C1.37661 15.3409 1.32562 15.4836 1.32562 15.6309C1.32562 15.7781 1.37661 15.9209 1.46992 16.0348C1.56324 16.1487 1.69312 16.2268 1.8375 16.2559Z" fill="#FF802C"/>
</svg>
