<svg width="20" height="20" viewBox="0 0 20 20" fill="none" xmlns="http://www.w3.org/2000/svg">
    <path d="M15.4999 17.084H3.66659C2.79159 17.084 2.08325 16.3757 2.08325 15.5007V3.66732C2.08325 2.79232 2.79159 2.08398 3.66659 2.08398H15.4999C16.3749 2.08398 17.0833 2.79232 17.0833 3.66732V15.5007C17.0833 16.3757 16.3749 17.084 15.4999 17.084Z" fill="#FDBF76"/>
    <path d="M10.4167 14.166C10.4167 15.1606 10.8118 16.1144 11.5151 16.8177C12.2184 17.5209 13.1722 17.916 14.1667 17.916C15.1613 17.916 16.1151 17.5209 16.8184 16.8177C17.5217 16.1144 17.9167 15.1606 17.9167 14.166C17.9167 13.1715 17.5217 12.2176 16.8184 11.5144C16.1151 10.8111 15.1613 10.416 14.1667 10.416C13.1722 10.416 12.2184 10.8111 11.5151 11.5144C10.8118 12.2176 10.4167 13.1715 10.4167 14.166Z" fill="white"/>
    <path d="M14.2084 14.584H14.1667C13.9584 14.584 13.7917 14.4173 13.7917 14.209V12.084C13.7917 11.8757 13.9584 11.709 14.1667 11.709H14.2084C14.4167 11.709 14.5834 11.8757 14.5834 12.084V14.209C14.5834 14.4173 14.4167 14.584 14.2084 14.584Z" fill="#293A4E"/>
    <path d="M13.75 14.2077V14.166C13.75 13.9577 13.9167 13.791 14.125 13.791H16.25C16.4583 13.791 16.625 13.9577 16.625 14.166V14.2077C16.625 14.416 16.4583 14.5827 16.25 14.5827H14.125C13.9167 14.5827 13.75 14.416 13.75 14.2077Z" fill="#293A4E"/>
    <path d="M15.3333 5.91602H3.83325C3.58325 5.91602 3.33325 5.70768 3.33325 5.41602C3.33325 5.12435 3.58325 4.91602 3.83325 4.91602H15.2916C15.5833 4.91602 15.7916 5.16602 15.7916 5.41602C15.8333 5.70768 15.5833 5.91602 15.3333 5.91602ZM11.1666 10.0827H3.83325C3.58325 10.0827 3.33325 9.87435 3.33325 9.58268C3.33325 9.29102 3.58325 9.08268 3.83325 9.08268H11.1249C11.4166 9.08268 11.6249 9.33268 11.6249 9.58268C11.6666 9.87435 11.4166 10.0827 11.1666 10.0827ZM8.66658 14.2493H3.83325C3.58325 14.2493 3.33325 14.041 3.33325 13.7493C3.33325 13.4577 3.58325 13.2493 3.83325 13.2493H8.62492C8.91659 13.2493 9.12492 13.4993 9.12492 13.7493C9.16658 14.041 8.91658 14.2493 8.66658 14.2493Z" fill="white"/>
</svg>
