<svg t="1736652862560" class="icon" viewBox="0 0 1024 1024" version="1.1" xmlns="http://www.w3.org/2000/svg" p-id="50783" width="32" height="32"><path d="M938.829 802.811H384.27c-11.226 0-20.48-9.176-20.48-20.481 0-11.223 9.254-20.48 20.48-20.48h554.559c11.305 0 20.48 9.176 20.48 20.48 0 11.224-9.257 20.481-20.48 20.481M938.829 598.01H466.188c-11.222 0-20.48 9.258-20.48 20.48 0 11.305 9.258 20.482 20.48 20.482h472.641c11.305 0 20.48-9.177 20.48-20.482 0-11.304-9.175-20.48-20.48-20.48zM527.63 454.651c0 11.305 9.254 20.48 20.48 20.48h390.719c11.305 0 20.48-9.176 20.48-20.48 0-11.222-9.176-20.48-20.48-20.48H548.11c-11.226 0-20.48 9.175-20.48 20.48z m78.07-303.348c-4.426-15.157-14.418-28.02-28.184-36.211l-69.957-41.696c-13.848-8.191-29.984-10.816-45.223-7.539-15.973 3.442-29.16 12.864-37.274 26.461l-38.746 65.047-0.246 0.242c-0.082 0.082-0.082 0.246-0.082 0.328L94.024 647.654c-1.39 2.375-2.293 4.996-2.703 7.781L63.962 860.483c-1.067 8.109 2.785 16.137 9.828 20.316 3.277 1.884 6.883 2.867 10.488 2.867 4.258 0 8.52-1.312 12.043-3.934l167.36-121.648a21.959 21.959 0 0 0 5.574-6.062l330.871-555.336c8.113-13.597 10.078-29.739 5.574-45.383zM236.157 727.444L110.903 818.46l20.477-153.438 279.347-468.746 104.778 62.422-279.348 468.746z m328.746-551.73l-28.426 47.761L431.7 161.049l28.426-47.758c2.211-3.77 6.062-6.391 10.73-7.375 5.164-1.145 10.734-0.163 15.566 2.703l69.961 41.699c4.832 2.867 8.355 7.289 9.828 12.453 1.477 4.587 0.985 9.173-1.308 12.943z m0 0" p-id="50784" fill="#1296db"></path></svg>