<svg width="40" height="40" viewBox="0 0 40 40" fill="none" xmlns="http://www.w3.org/2000/svg">
    <path d="M7.75 4C7.75 2.20508 9.20508 0.75 11 0.75H27C27.1212 0.75 27.2375 0.798159 27.3232 0.883885L38.1161 11.6768C38.2018 11.7625 38.25 11.8788 38.25 12V36C38.25 37.7949 36.7949 39.25 35 39.25H11C9.20507 39.25 7.75 37.7949 7.75 36V4Z" fill="white" stroke="#D0D5DD" stroke-width="1.5"/>
    <path d="M27 0.5V8C27 10.2091 28.7909 12 31 12H38.5" stroke="#D0D5DD" stroke-width="1.5"/>
    <rect x="0.5" y="18" width="27" height="16" rx="2" fill="#444CE7"/>
    <path d="M4.31472 30V22.7273H7.18404C7.73328 22.7273 8.20203 22.8255 8.59029 23.022C8.98091 23.2161 9.27802 23.492 9.48162 23.8494C9.68759 24.2045 9.79057 24.6224 9.79057 25.103C9.79057 25.5859 9.68641 26.0014 9.47807 26.3494C9.26974 26.6951 8.96789 26.9602 8.57253 27.1449C8.17954 27.3295 7.70369 27.4219 7.14498 27.4219H5.22381V26.1861H6.8964C7.18996 26.1861 7.4338 26.1458 7.62793 26.0653C7.82206 25.9848 7.96647 25.8641 8.06117 25.7031C8.15823 25.5421 8.20676 25.3421 8.20676 25.103C8.20676 24.8615 8.15823 24.6579 8.06117 24.4922C7.96647 24.3265 7.82087 24.201 7.62438 24.1158C7.43025 24.0282 7.18522 23.9844 6.88929 23.9844H5.85236V30H4.31472ZM8.24228 26.6903L10.0498 30H8.35236L6.5839 26.6903H8.24228ZM14.8225 24.8189C14.7941 24.5324 14.6722 24.3099 14.4568 24.1513C14.2413 23.9927 13.949 23.9134 13.5796 23.9134C13.3287 23.9134 13.1168 23.9489 12.944 24.0199C12.7712 24.0885 12.6386 24.1844 12.5463 24.3075C12.4563 24.4306 12.4113 24.5703 12.4113 24.7266C12.4066 24.8568 12.4338 24.9704 12.493 25.0675C12.5545 25.1645 12.6386 25.2486 12.7451 25.3196C12.8517 25.3883 12.9748 25.4486 13.1144 25.5007C13.2541 25.5504 13.4033 25.593 13.5619 25.6286L14.2153 25.7848C14.5325 25.8558 14.8237 25.9505 15.0889 26.0689C15.354 26.1873 15.5837 26.3329 15.7778 26.5057C15.9719 26.6785 16.1222 26.8821 16.2288 27.1165C16.3377 27.3509 16.3933 27.6196 16.3957 27.9226C16.3933 28.3677 16.2797 28.7536 16.0548 29.0803C15.8322 29.4046 15.5103 29.6567 15.0889 29.8366C14.6698 30.0142 14.1644 30.103 13.5725 30.103C12.9854 30.103 12.474 30.013 12.0384 29.8331C11.6052 29.6532 11.2667 29.3868 11.0228 29.0341C10.7813 28.679 10.6547 28.2398 10.6428 27.7166H12.1308C12.1473 27.9605 12.2172 28.1641 12.3403 28.3274C12.4658 28.4884 12.6327 28.6103 12.841 28.6932C13.0517 28.7737 13.2896 28.8139 13.5548 28.8139C13.8152 28.8139 14.0413 28.776 14.233 28.7003C14.4272 28.6245 14.5775 28.5192 14.684 28.3842C14.7906 28.2493 14.8438 28.0942 14.8438 27.919C14.8438 27.7557 14.7953 27.6184 14.6982 27.5071C14.6035 27.3958 14.4639 27.3011 14.2792 27.223C14.0969 27.1449 13.8732 27.0739 13.608 27.0099L12.8161 26.8111C12.203 26.6619 11.7188 26.4287 11.3637 26.1115C11.0086 25.7943 10.8322 25.367 10.8346 24.8295C10.8322 24.3892 10.9494 24.0045 11.1862 23.6754C11.4253 23.3464 11.7532 23.0895 12.1698 22.9048C12.5865 22.7202 13.06 22.6278 13.5903 22.6278C14.1301 22.6278 14.6012 22.7202 15.0036 22.9048C15.4085 23.0895 15.7233 23.3464 15.9482 23.6754C16.1731 24.0045 16.2892 24.3857 16.2963 24.8189H14.8225Z" fill="white"/>
    <path d="M23.8469 25.2734H22.2915C22.2631 25.0722 22.205 24.8935 22.1175 24.7372C22.0299 24.5786 21.9174 24.4437 21.7801 24.3324C21.6428 24.2211 21.4842 24.1359 21.3042 24.0767C21.1267 24.0175 20.9337 23.9879 20.7254 23.9879C20.349 23.9879 20.0211 24.0814 19.7417 24.2685C19.4624 24.4531 19.2458 24.723 19.0919 25.0781C18.938 25.4309 18.8611 25.8594 18.8611 26.3636C18.8611 26.8821 18.938 27.3177 19.0919 27.6705C19.2481 28.0232 19.4659 28.2895 19.7453 28.4695C20.0247 28.6494 20.3478 28.7393 20.7148 28.7393C20.9207 28.7393 21.1113 28.7121 21.2865 28.6577C21.464 28.6032 21.6215 28.5239 21.7588 28.4197C21.8961 28.3132 22.0097 28.1842 22.0997 28.0327C22.192 27.8812 22.2559 27.7083 22.2915 27.5142L23.8469 27.5213C23.8066 27.8551 23.706 28.1771 23.545 28.4872C23.3864 28.795 23.1721 29.0708 22.9023 29.3146C22.6347 29.5561 22.3151 29.7479 21.9434 29.8899C21.5741 30.0296 21.1563 30.0994 20.6899 30.0994C20.0412 30.0994 19.4612 29.9527 18.9498 29.6591C18.4408 29.3655 18.0384 28.9406 17.7425 28.3842C17.4489 27.8279 17.3021 27.1544 17.3021 26.3636C17.3021 25.5705 17.4513 24.8958 17.7496 24.3395C18.0479 23.7831 18.4527 23.3594 18.964 23.0682C19.4754 22.7746 20.0507 22.6278 20.6899 22.6278C21.1113 22.6278 21.5019 22.687 21.8618 22.8054C22.224 22.9238 22.5448 23.0966 22.8241 23.3239C23.1035 23.5488 23.3308 23.8246 23.5059 24.1513C23.6835 24.478 23.7971 24.852 23.8469 25.2734Z" fill="#444CE7"/>
</svg>
