<svg width="42" height="40" viewBox="0 0 42 40" fill="none" xmlns="http://www.w3.org/2000/svg">
    <path d="M9.75 4C9.75 2.20508 11.2051 0.75 13 0.75H29C29.1212 0.75 29.2375 0.798159 29.3232 0.883885L40.1161 11.6768C40.2018 11.7625 40.25 11.8788 40.25 12V36C40.25 37.7949 38.7949 39.25 37 39.25H13C11.2051 39.25 9.75 37.7949 9.75 36V4Z" fill="white" stroke="#D0D5DD" stroke-width="1.5"/>
    <path d="M29 0.5V8C29 10.2091 30.7909 12 33 12H40.5" stroke="#D0D5DD" stroke-width="1.5"/>
    <rect y="18" width="32" height="16" rx="2" fill="#444CE7"/>
    <path d="M8.23677 26.1009L6.85183 26.1861C6.82815 26.0677 6.77725 25.9612 6.69913 25.8665C6.621 25.7694 6.51802 25.6925 6.39018 25.6357C6.26471 25.5765 6.11438 25.5469 5.93919 25.5469C5.70481 25.5469 5.50713 25.5966 5.34615 25.696C5.18516 25.7931 5.10467 25.9233 5.10467 26.0866C5.10467 26.2169 5.15675 26.3269 5.26092 26.4169C5.36509 26.5069 5.54383 26.5791 5.79714 26.6335L6.78436 26.8324C7.31466 26.9413 7.71002 27.1165 7.97044 27.358C8.23085 27.5994 8.36106 27.9167 8.36106 28.3097C8.36106 28.6671 8.25571 28.9808 8.04501 29.2507C7.83668 29.5206 7.55022 29.7313 7.18564 29.8828C6.82342 30.032 6.40557 30.1065 5.93208 30.1065C5.21002 30.1065 4.63474 29.9562 4.20623 29.6555C3.7801 29.3525 3.53033 28.9406 3.45694 28.4197L4.94487 28.3416C4.98985 28.5618 5.09875 28.7299 5.27157 28.8459C5.4444 28.9595 5.66575 29.0163 5.93564 29.0163C6.20079 29.0163 6.41386 28.9654 6.57484 28.8636C6.73819 28.7595 6.82105 28.6257 6.82342 28.4624C6.82105 28.325 6.76305 28.2126 6.64941 28.125C6.53578 28.035 6.36059 27.9664 6.12385 27.919L5.17924 27.7308C4.64657 27.6243 4.25003 27.4396 3.98961 27.1768C3.73156 26.9141 3.60254 26.5791 3.60254 26.1719C3.60254 25.8215 3.69724 25.5196 3.88663 25.2663C4.07839 25.013 4.34709 24.8177 4.69274 24.6804C5.04075 24.5431 5.44795 24.4744 5.91433 24.4744C6.60325 24.4744 7.14539 24.62 7.54075 24.9112C7.93848 25.2024 8.17048 25.599 8.23677 26.1009ZM11.7781 30.1065C11.2194 30.1065 10.7388 29.9882 10.3364 29.7514C9.93629 29.5123 9.62852 29.1809 9.41309 28.7571C9.20002 28.3333 9.09348 27.8456 9.09348 27.294C9.09348 26.7353 9.2012 26.2453 9.41664 25.8239C9.63444 25.4001 9.94339 25.0698 10.3435 24.8331C10.7436 24.594 11.2194 24.4744 11.771 24.4744C12.2469 24.4744 12.6636 24.5608 13.021 24.7337C13.3785 24.9065 13.6614 25.1491 13.8698 25.4616C14.0781 25.7741 14.1929 26.1411 14.2142 26.5625H12.7867C12.7464 26.2902 12.6399 26.0713 12.4671 25.9055C12.2966 25.7375 12.0729 25.6534 11.7959 25.6534C11.5615 25.6534 11.3567 25.7173 11.1816 25.8452C11.0087 25.9706 10.8738 26.1541 10.7767 26.3956C10.6797 26.6371 10.6311 26.9295 10.6311 27.2727C10.6311 27.6207 10.6785 27.9167 10.7732 28.1605C10.8702 28.4044 11.0064 28.5902 11.1816 28.718C11.3567 28.8459 11.5615 28.9098 11.7959 28.9098C11.9687 28.9098 12.1238 28.8743 12.2611 28.8033C12.4008 28.7322 12.5156 28.6293 12.6056 28.4943C12.6979 28.357 12.7583 28.1925 12.7867 28.0007H14.2142C14.1905 28.4174 14.0769 28.7843 13.8733 29.1016C13.6721 29.4164 13.3939 29.6626 13.0388 29.8402C12.6837 30.0178 12.2635 30.1065 11.7781 30.1065ZM16.7382 30.103C16.3902 30.103 16.08 30.0426 15.8078 29.9219C15.5355 29.7988 15.3201 29.6177 15.1615 29.3786C15.0052 29.1371 14.9271 28.8364 14.9271 28.4766C14.9271 28.1735 14.9827 27.919 15.094 27.7131C15.2053 27.5071 15.3568 27.3414 15.5486 27.2159C15.7403 27.0904 15.9581 26.9957 16.202 26.9318C16.4482 26.8679 16.7062 26.8229 16.9761 26.7969C17.2934 26.7637 17.549 26.733 17.7432 26.7045C17.9373 26.6738 18.0782 26.6288 18.1657 26.5696C18.2533 26.5104 18.2971 26.4228 18.2971 26.3068V26.2855C18.2971 26.0606 18.2261 25.8866 18.0841 25.7635C17.9444 25.6404 17.7455 25.5788 17.4875 25.5788C17.2152 25.5788 16.9986 25.6392 16.8376 25.7599C16.6766 25.8783 16.5701 26.0275 16.518 26.2074L15.1189 26.0938C15.1899 25.7623 15.3296 25.4759 15.5379 25.2344C15.7462 24.9905 16.0149 24.8035 16.344 24.6733C16.6755 24.5407 17.059 24.4744 17.4946 24.4744C17.7976 24.4744 18.0876 24.5099 18.3646 24.581C18.644 24.652 18.8914 24.7621 19.1068 24.9112C19.3246 25.0604 19.4962 25.2521 19.6217 25.4865C19.7472 25.7185 19.8099 25.9967 19.8099 26.321V30H18.3753V29.2436H18.3327C18.2451 29.4141 18.1279 29.5644 17.9811 29.6946C17.8343 29.8224 17.6579 29.9231 17.452 29.9964C17.246 30.0675 17.0081 30.103 16.7382 30.103ZM17.1714 29.0589C17.394 29.0589 17.5905 29.0152 17.7609 28.9276C17.9314 28.8376 18.0651 28.7169 18.1622 28.5653C18.2593 28.4138 18.3078 28.2422 18.3078 28.0504V27.4716C18.2604 27.5024 18.1953 27.5308 18.1125 27.5568C18.032 27.5805 17.9408 27.603 17.839 27.6243C17.7372 27.6432 17.6354 27.661 17.5336 27.6776C17.4318 27.6918 17.3395 27.7048 17.2567 27.7166C17.0791 27.7427 16.924 27.7841 16.7915 27.8409C16.6589 27.8977 16.5559 27.9747 16.4825 28.0717C16.4091 28.1664 16.3724 28.2848 16.3724 28.4268C16.3724 28.6328 16.447 28.7902 16.5961 28.8991C16.7477 29.0057 16.9394 29.0589 17.1714 29.0589ZM22.4964 22.7273V30H20.9836V22.7273H22.4964ZM25.2636 30.103C24.9156 30.103 24.6054 30.0426 24.3332 29.9219C24.0609 29.7988 23.8455 29.6177 23.6869 29.3786C23.5306 29.1371 23.4525 28.8364 23.4525 28.4766C23.4525 28.1735 23.5081 27.919 23.6194 27.7131C23.7307 27.5071 23.8822 27.3414 24.074 27.2159C24.2657 27.0904 24.4835 26.9957 24.7274 26.9318C24.9736 26.8679 25.2316 26.8229 25.5015 26.7969C25.8187 26.7637 26.0744 26.733 26.2686 26.7045C26.4627 26.6738 26.6035 26.6288 26.6911 26.5696C26.7787 26.5104 26.8225 26.4228 26.8225 26.3068V26.2855C26.8225 26.0606 26.7515 25.8866 26.6095 25.7635C26.4698 25.6404 26.2709 25.5788 26.0129 25.5788C25.7406 25.5788 25.524 25.6392 25.363 25.7599C25.202 25.8783 25.0955 26.0275 25.0434 26.2074L23.6443 26.0938C23.7153 25.7623 23.855 25.4759 24.0633 25.2344C24.2716 24.9905 24.5403 24.8035 24.8694 24.6733C25.2008 24.5407 25.5844 24.4744 26.02 24.4744C26.323 24.4744 26.613 24.5099 26.89 24.581C27.1694 24.652 27.4168 24.7621 27.6322 24.9112C27.85 25.0604 28.0216 25.2521 28.1471 25.4865C28.2726 25.7185 28.3353 25.9967 28.3353 26.321V30H26.9007V29.2436H26.858C26.7704 29.4141 26.6533 29.5644 26.5065 29.6946C26.3597 29.8224 26.1833 29.9231 25.9774 29.9964C25.7714 30.0675 25.5335 30.103 25.2636 30.103ZM25.6968 29.0589C25.9194 29.0589 26.1159 29.0152 26.2863 28.9276C26.4568 28.8376 26.5905 28.7169 26.6876 28.5653C26.7847 28.4138 26.8332 28.2422 26.8332 28.0504V27.4716C26.7858 27.5024 26.7207 27.5308 26.6379 27.5568C26.5574 27.5805 26.4662 27.603 26.3644 27.6243C26.2626 27.6432 26.1608 27.661 26.059 27.6776C25.9572 27.6918 25.8649 27.7048 25.782 27.7166C25.6045 27.7427 25.4494 27.7841 25.3169 27.8409C25.1843 27.8977 25.0813 27.9747 25.0079 28.0717C24.9345 28.1664 24.8978 28.2848 24.8978 28.4268C24.8978 28.6328 24.9724 28.7902 25.1215 28.8991C25.2731 29.0057 25.4648 29.0589 25.6968 29.0589Z" fill="white"/>
</svg>
