<svg width="18" height="18" viewBox="0 0 18 18" fill="none" xmlns="http://www.w3.org/2000/svg">
    <path d="M16.95 7.39C16.514 3.803 13.477 1 9.774 1C5.804 1 2.567 4.238 2.567 8.207V8.291C2.068 8.81 1 9.993 1 10.811C1 11.727 1.867 12.078 2.485 12.095L3.185 12.245L3.318 15.715C3.32195 16.0575 3.46093 16.3846 3.70474 16.6253C3.94854 16.8659 4.27746 17.0005 4.62 17H7.272C7.40922 16.9995 7.54067 16.9447 7.6377 16.8477C7.73473 16.7507 7.78947 16.6192 7.79 16.482C7.78921 16.345 7.73435 16.2138 7.63735 16.1169C7.54035 16.0201 7.40905 15.9655 7.272 15.965H4.637C4.56692 15.963 4.50028 15.9342 4.4508 15.8845C4.40132 15.8348 4.37276 15.7681 4.371 15.698L4.204 11.411L2.669 11.077L2.619 11.06H2.569C2.44968 11.0549 2.33176 11.0323 2.219 10.993C2.051 10.927 2.051 10.86 2.051 10.81C2.051 10.51 2.702 9.61 3.453 8.875C3.51774 8.80751 3.56406 8.72453 3.58753 8.634C3.61099 8.54347 3.61081 8.44844 3.587 8.358C3.6 8.308 3.607 8.258 3.604 8.208C3.60585 6.57156 4.25668 5.00266 5.41372 3.84543C6.57077 2.6882 8.13956 2.03712 9.776 2.035C10.9724 2.03554 12.1428 2.3845 13.1442 3.03925C14.1456 3.694 14.9347 4.6262 15.415 5.722C15.949 7.057 16.815 10.41 13.696 13.663C13.696 13.663 13.496 14.563 14.531 14.297C14.531 14.297 17.417 11.927 16.949 7.39H16.95Z" fill="#344054"/>
    <path d="M8.15898 4.68018C8.53316 4.6799 8.89793 4.79741 9.20159 5.01605C9.50524 5.2347 9.73237 5.54338 9.85076 5.89834C9.96915 6.2533 9.97281 6.63652 9.8612 6.99367C9.7496 7.35082 9.52841 7.66378 9.22898 7.88818L10.321 10.0722L10.896 9.11218C10.7386 8.86391 10.6455 8.5804 10.625 8.28718L10.62 8.16018C10.6202 7.77602 10.7447 7.40223 10.9747 7.09454C11.2047 6.78684 11.5279 6.5617 11.8963 6.45269C12.2647 6.34368 12.6584 6.35662 13.0188 6.4896C13.3792 6.62257 13.687 6.86845 13.8963 7.19059C14.1056 7.51273 14.2052 7.89388 14.1802 8.27722C14.1553 8.66057 14.0071 9.02559 13.7578 9.31786C13.5085 9.61014 13.1714 9.81404 12.7968 9.89915C12.4222 9.98426 12.0301 9.94604 11.679 9.79018L10.789 11.2702V13.6762H9.77198V11.2502L8.26598 8.24018L8.15898 8.24418C7.70824 8.24458 7.2741 8.07417 6.94399 7.76726C6.61389 7.46035 6.41235 7.03975 6.37998 6.59018L6.37598 6.46318C6.37598 5.47818 7.17298 4.68018 8.15798 4.68018H8.15898ZM12.402 7.39618C12.2994 7.39246 12.1971 7.40946 12.1012 7.44616C12.0054 7.48286 11.9179 7.5385 11.844 7.60976C11.7701 7.68103 11.7113 7.76645 11.6712 7.86093C11.631 7.95542 11.6103 8.05702 11.6103 8.15968C11.6103 8.26233 11.631 8.36394 11.6712 8.45842C11.7113 8.5529 11.7701 8.63833 11.844 8.70959C11.9179 8.78085 12.0054 8.8365 12.1012 8.87319C12.1971 8.90989 12.2994 8.92689 12.402 8.92318C12.5997 8.91602 12.7869 8.83245 12.9243 8.69005C13.0616 8.54764 13.1383 8.35752 13.1383 8.15968C13.1383 7.96184 13.0616 7.77171 12.9243 7.62931C12.7869 7.48691 12.5997 7.40333 12.402 7.39618ZM8.15898 5.69918C8.05639 5.69546 7.9541 5.71246 7.85823 5.74916C7.76236 5.78586 7.67486 5.8415 7.60097 5.91276C7.52708 5.98403 7.46831 6.06945 7.42817 6.16393C7.38803 6.25842 7.36734 6.36002 7.36734 6.46268C7.36734 6.56533 7.38803 6.66694 7.42817 6.76142C7.46831 6.8559 7.52708 6.94133 7.60097 7.01259C7.67486 7.08385 7.76236 7.1395 7.85823 7.17619C7.9541 7.21289 8.05639 7.22989 8.15898 7.22618C8.35669 7.21902 8.54391 7.13545 8.68125 6.99305C8.8186 6.85064 8.89534 6.66052 8.89534 6.46268C8.89534 6.26484 8.8186 6.07471 8.68125 5.93231C8.54391 5.78991 8.35669 5.70633 8.15898 5.69918Z" fill="#344054"/>
</svg>
