<svg width="25" height="24" viewBox="0 0 25 24" fill="none" xmlns="http://www.w3.org/2000/svg">
    <path d="M16.3367 1.50183H4.07812V22.4897H21.1704V6.00966L16.3367 1.50183ZM16.7452 22.4292C15.3721 22.4292 14.1452 21.8249 13.3337 20.8767H5.74781V3.11485H14.957V7.51756H19.5007V14.8112C20.5176 15.5944 21.1695 16.8011 21.1695 18.1551C21.1695 20.5156 19.1887 22.4292 16.7452 22.4292Z" fill="#1296DB"/>
    <path d="M7.75098 9.80603H17.823V11.3787H7.75098V9.80603ZM7.75098 13.557H12.8136V15.1297H7.75098V13.557ZM7.75098 17.308H10.9351V18.8807H7.75098V17.308Z" fill="#1296DB"/>
    <path d="M19.5001 14.8112C18.7442 14.229 17.7865 13.8809 16.7446 13.8809C14.3011 13.8809 12.3203 15.7944 12.3203 18.155C12.3203 19.1891 12.7005 20.1373 13.3331 20.8766C14.1446 21.8248 15.3715 22.4291 16.7446 22.4291C19.1881 22.4291 21.1689 20.5155 21.1689 18.155C21.1689 16.801 20.517 15.5943 19.5001 14.8112ZM16.6471 21.2344L15.7616 20.379L15.7828 20.3585L14.191 18.8208L15.0765 17.9654L16.1185 18.972V15.2721H17.3707V18.8245L18.4127 17.8178L19.2982 18.6733L16.6471 21.2344Z" fill="#1296DB"/>
    <path d="M19.2987 18.6733L18.4132 17.8179L17.3712 18.8245V15.2721H16.1189V18.972L15.0769 17.9654L14.1914 18.8208L15.7832 20.3585L15.762 20.379L16.6475 21.2344L19.2987 18.6733Z" fill="white"/>
</svg>
