<svg width="237" height="16" viewBox="0 0 237 16" fill="none" xmlns="http://www.w3.org/2000/svg">
    <path d="M1.03 5.544H2.108V12.6C2.108 13.482 2.416 13.692 3.956 13.692C4.698 13.692 8.352 13.692 9.29 13.692C10.83 13.692 11.068 13.216 11.25 10.948C11.544 11.144 12.006 11.326 12.328 11.382C12.048 13.972 11.6 14.728 9.29 14.728C8.716 14.728 4.544 14.728 4.026 14.728C1.744 14.728 1.03 14.322 1.03 12.572V5.544ZM1.618 7.84H9.878V8.89H1.618V7.84ZM0.302 3.122H10.536V9.576H9.458V4.158H0.302V3.122ZM15.38 7.49H18.866V8.47H15.38V7.49ZM18.446 7.49H19.468C19.468 7.49 19.468 7.798 19.468 7.938C19.398 11.102 19.314 12.278 19.02 12.67C18.796 12.922 18.572 13.02 18.18 13.062C17.816 13.104 17.186 13.09 16.5 13.062C16.472 12.754 16.36 12.348 16.206 12.082C16.836 12.138 17.452 12.138 17.69 12.138C17.886 12.138 18.026 12.124 18.124 11.998C18.334 11.746 18.404 10.696 18.446 7.672V7.49ZM22.394 2.954L23.024 2.296C23.892 2.744 24.998 3.416 25.544 3.906L24.886 4.62C24.354 4.13 23.276 3.416 22.394 2.954ZM24.396 6.748L25.446 7C24.256 10.654 22.17 13.356 19.3 15.05C19.146 14.84 18.754 14.406 18.53 14.196C21.372 12.684 23.346 10.122 24.396 6.748ZM15.464 4.62H26.3V5.656H15.464V4.62ZM14.792 4.62H15.884V8.568C15.884 10.556 15.66 13.384 14.386 15.218C14.204 15.008 13.756 14.644 13.504 14.518C14.666 12.796 14.792 10.388 14.792 8.554V4.62ZM20.602 2.268H21.694C21.666 8.708 23.038 13.958 24.858 13.958C25.25 13.958 25.432 13.23 25.516 11.368C25.754 11.606 26.146 11.844 26.426 11.942C26.23 14.336 25.838 15.022 24.774 15.022C21.918 15.022 20.658 8.974 20.602 2.268ZM27.714 3.906H32.852V4.9H27.714V3.906ZM32.964 5.446H39.614V6.454H32.964V5.446ZM29.786 4.298H30.808V11.312H29.786V4.298ZM39.124 5.446H40.16C40.16 5.446 40.16 5.824 40.146 5.978C39.922 11.76 39.726 13.79 39.194 14.42C38.886 14.812 38.592 14.924 38.116 14.98C37.654 15.022 36.842 15.008 36.044 14.952C36.016 14.658 35.904 14.21 35.722 13.916C36.576 14 37.374 14 37.682 14C37.962 14 38.116 13.958 38.27 13.79C38.704 13.314 38.928 11.242 39.124 5.67V5.446ZM27.518 11.466C28.904 11.144 31.032 10.57 33.062 10.024L33.202 11.018C31.298 11.564 29.268 12.138 27.784 12.544L27.518 11.466ZM35.344 2.478H36.408C36.38 7.882 36.338 12.726 32.054 15.134C31.9 14.882 31.55 14.504 31.298 14.308C35.4 12.124 35.316 7.588 35.344 2.478ZM47.65 6.454V8.26H52.858V6.454H47.65ZM47.65 3.808V5.586H52.858V3.808H47.65ZM46.698 2.898H53.866V9.17H46.698V2.898ZM46.516 10.808H54.062V11.774H46.516V10.808ZM45.438 13.706H54.524V14.658H45.438V13.706ZM41.63 3.192H45.998V4.186H41.63V3.192ZM41.784 7.238H45.802V8.232H41.784V7.238ZM41.49 12.6C42.624 12.292 44.304 11.746 45.928 11.2L46.11 12.208C44.584 12.726 42.988 13.258 41.742 13.678L41.49 12.6ZM43.38 3.584H44.388V12.264L43.38 12.46V3.584ZM49.792 3.332H50.716V8.722H50.786V14.14H49.722V8.722H49.792V3.332ZM56.932 5.796H60.978V6.622H56.932V5.796ZM56.932 8.176H60.978V8.974H56.932V8.176ZM56.932 10.612H60.978V11.438H56.932V10.612ZM62.896 8.876H68.23V9.786H62.896V8.876ZM57.66 3.5H59.984V4.326H57.66V3.5ZM62 2.954H67.474V3.85H62V2.954ZM61.832 11.494H68.468V12.432H61.832V11.494ZM64.786 7.434H65.794V15.064H64.786V7.434ZM58.668 6.202H59.424V10.962H58.668V6.202ZM67.138 2.954H68.09C68.09 2.954 68.09 3.22 68.076 3.346C67.978 5.684 67.838 6.594 67.544 6.916C67.348 7.154 67.138 7.238 66.774 7.266C66.494 7.294 65.906 7.294 65.318 7.266C65.304 6.986 65.206 6.622 65.08 6.384C65.64 6.44 66.144 6.44 66.34 6.44C66.536 6.454 66.662 6.426 66.746 6.314C66.928 6.104 67.04 5.292 67.138 3.094V2.954ZM62.952 7.56L63.862 7.742C63.582 9.044 63.092 10.318 62.504 11.158C62.322 11.032 61.902 10.822 61.678 10.71C62.28 9.926 62.714 8.75 62.952 7.56ZM57.632 2.24L58.598 2.45C58.08 4.34 57.226 6.146 56.232 7.336C56.064 7.168 55.658 6.846 55.434 6.706C56.428 5.628 57.212 3.962 57.632 2.24ZM56.526 5.796H57.394V9.52C57.394 11.228 57.226 13.594 56.232 15.148C56.078 15.008 55.686 14.77 55.476 14.672C56.428 13.188 56.526 11.102 56.526 9.52V5.796ZM60.698 5.796H61.58V13.972C61.58 14.49 61.468 14.784 61.104 14.938C60.754 15.092 60.18 15.106 59.214 15.106C59.172 14.868 59.018 14.462 58.892 14.21C59.606 14.238 60.236 14.238 60.432 14.224C60.614 14.21 60.698 14.154 60.698 13.972V5.796ZM63.988 3.248H64.954C64.716 5.18 64.114 6.776 62.154 7.658C62.028 7.434 61.776 7.098 61.566 6.944C63.288 6.216 63.792 4.83 63.988 3.248ZM59.732 3.5H59.942L60.082 3.444L60.698 3.85C60.404 4.718 59.872 5.754 59.452 6.412C59.284 6.272 58.976 6.09 58.78 6.006C59.13 5.376 59.522 4.368 59.732 3.668V3.5ZM70.288 5.404H71.324V15.134H70.288V5.404ZM70.442 2.926L71.212 2.436C71.912 3.122 72.864 4.116 73.326 4.704L72.528 5.278C72.066 4.676 71.156 3.668 70.442 2.926ZM73.97 3.038H81.362V4.018H73.97V3.038ZM80.648 3.038H81.698V13.664C81.698 14.336 81.53 14.658 81.096 14.84C80.648 15.008 79.892 15.036 78.744 15.022C78.702 14.728 78.534 14.252 78.394 13.958C79.234 14 80.088 13.986 80.312 13.986C80.564 13.972 80.648 13.888 80.648 13.65V3.038ZM74.026 6.496H78.422V11.648H74.026V10.696H77.4V7.448H74.026V6.496ZM73.494 6.496H74.46V12.558H73.494V6.496ZM85.45 5.39V6.454H88.32V5.39H85.45ZM85.45 3.598V4.648H88.32V3.598H85.45ZM84.512 2.842H89.3V7.238H84.512V2.842ZM83.672 8.274H90.014V9.086H83.672V8.274ZM89.986 2.884H96.37V3.752H89.986V2.884ZM86.514 8.54H87.424V13.874L86.514 13.328V8.54ZM86.934 10.598H89.748V11.396H86.934V10.598ZM92.66 3.178L93.724 3.388C93.444 4.116 93.15 4.9 92.898 5.432L92.058 5.222C92.268 4.648 92.534 3.78 92.66 3.178ZM85.338 11.228C86.318 13.636 88.488 13.944 91.596 13.944C92.226 13.944 95.67 13.944 96.482 13.916C96.328 14.14 96.146 14.546 96.104 14.826H91.582C88.068 14.826 85.828 14.364 84.694 11.466L85.338 11.228ZM90.546 5.096H95.684V10.948H94.76V5.894H91.442V10.99H90.546V5.096ZM84.722 9.786L85.618 9.842C85.52 12.096 85.17 13.874 84.218 15.092C84.064 14.966 83.672 14.7 83.462 14.574C84.4 13.482 84.652 11.802 84.722 9.786ZM92.716 6.58H93.612C93.514 10.528 93.108 12.572 89.916 13.622C89.818 13.426 89.594 13.09 89.398 12.936C92.338 11.998 92.632 10.22 92.716 6.58ZM93.206 11.41L93.822 10.85C94.69 11.438 95.796 12.32 96.342 12.908L95.712 13.552C95.166 12.964 94.088 12.04 93.206 11.41ZM100.598 10.402H107.458V9.45H100.598V10.402ZM100.598 8.75H107.458V7.826H100.598V8.75ZM108.508 7.098V11.116H99.59V7.098H108.508ZM107.346 4.144C107.038 4.732 106.73 5.278 106.464 5.698L105.526 5.446C105.778 5.012 106.1 4.354 106.268 3.906L107.346 4.144ZM101.704 3.92C101.998 4.396 102.278 5.026 102.376 5.432L101.382 5.698C101.284 5.25 101.032 4.62 100.752 4.144L101.704 3.92ZM104.504 2.24V3.766H103.44V2.24H104.504ZM110.048 5.544V6.398H98.008V5.544H110.048ZM109.32 3.178V4.032H98.638V3.178H109.32ZM100.444 12.152C100.052 13.16 99.436 14.196 98.4 14.812L97.588 14.252C98.554 13.706 99.212 12.754 99.576 11.816L100.444 12.152ZM107.934 11.704C108.886 12.404 109.964 13.426 110.44 14.182L109.586 14.714C109.124 13.972 108.088 12.908 107.136 12.18L107.934 11.704ZM103.23 11.102C104.014 11.508 105.022 12.124 105.54 12.572L104.924 13.202C104.42 12.754 103.44 12.096 102.642 11.662L103.23 11.102ZM102.18 13.734C102.18 14.056 102.306 14.112 103.034 14.112C103.37 14.112 105.064 14.112 105.512 14.112C106.114 14.112 106.198 13.944 106.268 12.712C106.492 12.852 106.912 12.992 107.178 13.062C107.066 14.63 106.744 15.008 105.61 15.008C105.302 15.008 103.258 15.008 102.964 15.008C101.522 15.008 101.158 14.742 101.158 13.734V11.928H102.18V13.734ZM112.162 2.856H123.824V15.134H122.774V3.822H113.184V15.134H112.162V2.856ZM112.764 13.594H123.39V14.532H112.764V13.594ZM116.236 10.108L116.684 9.464C117.804 9.688 119.232 10.15 120.016 10.514L119.568 11.214C118.798 10.836 117.37 10.346 116.236 10.108ZM116.796 4.102L117.664 4.396C116.866 5.684 115.592 6.888 114.416 7.672C114.262 7.504 113.898 7.196 113.688 7.042C114.878 6.328 116.082 5.236 116.796 4.102ZM120.534 5.208H120.716L120.884 5.166L121.472 5.53C120.03 7.84 116.768 9.366 113.926 10.024C113.828 9.772 113.618 9.352 113.436 9.156C116.18 8.624 119.33 7.238 120.534 5.362V5.208ZM116.18 5.978C117.412 7.462 119.974 8.596 122.522 9.058C122.326 9.254 122.06 9.604 121.934 9.856C119.372 9.31 116.782 8.022 115.396 6.342L116.18 5.978ZM116.474 5.208H120.842V6.034H115.914L116.474 5.208ZM114.85 11.886L115.34 11.158C117.23 11.382 119.638 11.914 121.01 12.376L120.534 13.16C119.204 12.684 116.782 12.124 114.85 11.886ZM127.198 15.498L126.876 14.77C128.024 14.294 128.654 13.58 128.654 12.53L128.388 11.34L129.144 12.404C128.948 12.656 128.668 12.726 128.402 12.726C127.828 12.726 127.352 12.39 127.352 11.718C127.352 11.06 127.856 10.71 128.416 10.71C129.2 10.71 129.62 11.354 129.62 12.334C129.62 13.846 128.668 14.994 127.198 15.498ZM140.246 3.276H151.838V4.298H140.246V3.276ZM146.308 8.036H151.278V9.072H146.308V8.036ZM139.714 13.482H152.3V14.504H139.714V13.482ZM145.804 3.654H146.896V13.986H145.804V3.654ZM141.632 6.874H142.71V14.028H141.632V6.874ZM153.868 4.41H166.132V5.432H153.868V4.41ZM158.208 8.848H165.586V9.828H158.208V8.848ZM157.662 13.804H166.132V14.798H157.662V13.804ZM161.372 6.146H162.422V14.336H161.372V6.146ZM158.474 2.24L159.552 2.506C158.572 5.712 156.864 8.974 154.078 10.976C153.966 10.696 153.7 10.248 153.532 10.01C156.052 8.232 157.69 5.124 158.474 2.24ZM155.702 8.008H156.752V15.078H155.702V8.008ZM167.686 4.9H171.928V5.88H167.686V4.9ZM169.492 2.24H170.458V15.106H169.492V2.24ZM169.464 5.53L170.108 5.754C169.716 7.952 168.89 10.682 167.994 12.068C167.882 11.774 167.63 11.312 167.448 11.06C168.288 9.842 169.128 7.448 169.464 5.53ZM170.416 6.412C170.71 6.804 171.816 8.582 172.04 9.002L171.41 9.758C171.13 9.058 170.248 7.364 169.898 6.804L170.416 6.412ZM176.17 2.702C177.094 4.144 178.97 5.838 180.524 6.748C180.314 6.986 180.09 7.42 179.978 7.7C178.34 6.608 176.436 4.774 175.4 3.206L176.17 2.702ZM175.722 2.142L176.646 2.478C175.568 4.648 173.79 6.594 171.97 7.84C171.858 7.63 171.536 7.182 171.354 6.986C173.118 5.894 174.784 4.13 175.722 2.142ZM173.552 6.58H178.298V7.504H173.552V6.58ZM172.544 9.03L173.37 8.82C173.79 9.884 174.182 11.27 174.322 12.18L173.454 12.418C173.328 11.508 172.95 10.108 172.544 9.03ZM175.26 8.652L176.086 8.526C176.366 9.604 176.618 10.962 176.702 11.872L175.82 12.012C175.764 11.102 175.512 9.716 175.26 8.652ZM178.788 8.54L179.712 8.778C179.04 10.458 178.102 12.614 177.318 13.93L176.562 13.678C177.318 12.348 178.27 10.094 178.788 8.54ZM171.788 13.51H180.132V14.462H171.788V13.51ZM187.44 11.27H188.49V15.148H187.44V11.27ZM187.44 2.24H188.476V6.16H187.44V2.24ZM186.922 6.412L187.902 6.888C187.09 7.644 186.096 8.456 185.284 9.016L184.514 8.582C185.298 8.008 186.348 7.084 186.922 6.412ZM189.946 7.322L190.898 7.84C189.316 9.128 187.16 10.612 185.452 11.564L184.71 11.06C186.418 10.094 188.63 8.512 189.946 7.322ZM183.436 8.54L184.136 7.938C185.186 8.456 186.516 9.254 187.202 9.842L186.474 10.514C185.83 9.926 184.514 9.086 183.436 8.54ZM189.792 9.646L190.492 9.086C191.724 9.814 193.278 10.892 194.062 11.634L193.32 12.278C192.578 11.536 191.038 10.388 189.792 9.646ZM189.834 12.642L190.632 12.096C191.836 12.684 193.376 13.622 194.174 14.308L193.306 14.938C192.578 14.252 191.066 13.272 189.834 12.642ZM181.91 10.836C184.472 10.836 188.7 10.78 192.69 10.696L192.634 11.536C188.756 11.648 184.626 11.774 181.966 11.802L181.91 10.836ZM185.046 12.082L186.04 12.446C185.102 13.412 183.66 14.378 182.442 14.98C182.26 14.784 181.868 14.42 181.616 14.238C182.862 13.72 184.206 12.908 185.046 12.082ZM182.064 3.486H193.894V4.41H182.064V3.486ZM182.022 5.754H194.02V8.386H192.984V6.664H183.016V8.386H182.022V5.754ZM199.97 2.758H207.936V3.696H199.97V2.758ZM199.48 8.092H208.398V9.058H199.48V8.092ZM200.642 10.206H207.46V15.078H206.424V11.144H201.636V15.12H200.642V10.206ZM201.132 13.65H206.844V14.574H201.132V13.65ZM202.896 3.122L203.96 3.234C203.624 4.984 203.092 7.294 202.742 8.638H201.65C202.07 7.224 202.602 4.844 202.896 3.122ZM200.46 5.264H206.27V6.188H200.46V5.264ZM206.032 5.264H206.13L206.298 5.208L207.026 5.278C206.956 6.342 206.816 7.616 206.69 8.596L205.696 8.526C205.836 7.518 205.976 6.132 206.032 5.39V5.264ZM196.358 3.276L197.044 2.632C197.786 3.248 198.752 4.144 199.186 4.718L198.486 5.46C198.038 4.858 197.114 3.934 196.358 3.276ZM195.616 6.636H198.122V7.644H195.616V6.636ZM197.604 14.7L197.436 13.734L197.744 13.3L200.222 11.648C200.278 11.928 200.418 12.334 200.516 12.544C198.178 14.168 197.8 14.448 197.604 14.7ZM197.604 14.7C197.506 14.448 197.24 13.986 197.058 13.762C197.268 13.622 197.562 13.314 197.562 12.74V6.636H198.556V13.664C198.556 13.664 197.604 14.322 197.604 14.7ZM211.912 2.296H212.892V15.106H211.912V2.296ZM209.658 6.944H215.188V7.938H209.658V6.944ZM211.758 7.462L212.388 7.742C211.898 9.646 210.904 12.068 209.966 13.342C209.854 13.034 209.602 12.586 209.434 12.306C210.33 11.228 211.31 9.1 211.758 7.462ZM212.864 8.12C213.256 8.54 214.684 10.444 215.006 10.906L214.306 11.746C213.956 10.99 212.808 9.156 212.346 8.554L212.864 8.12ZM209.756 3.332L210.526 3.136C210.918 4.116 211.24 5.39 211.338 6.23L210.512 6.454C210.442 5.614 210.12 4.312 209.756 3.332ZM214.278 3.08L215.202 3.318C214.838 4.382 214.404 5.698 214.026 6.482L213.354 6.272C213.662 5.432 214.082 4.032 214.278 3.08ZM219.71 2.254H220.704V15.12H219.71V2.254ZM215.16 11.158L222.356 9.87L222.524 10.836L215.328 12.138L215.16 11.158ZM216.21 3.962L216.756 3.248C217.568 3.724 218.534 4.438 218.996 4.956L218.436 5.768C217.988 5.222 217.022 4.466 216.21 3.962ZM215.496 7.49L215.986 6.748C216.826 7.182 217.862 7.84 218.366 8.344L217.834 9.17C217.344 8.666 216.336 7.952 215.496 7.49ZM223 14.98H237V0.98H223V14.98Z" fill="#475467"/>
</svg>
