<svg width="18" height="18" viewBox="0 0 18 18" fill="none" xmlns="http://www.w3.org/2000/svg">
    <path d="M17.1823 12.0281C16.4456 12.0281 14.7266 12.0281 13.1721 12.2724C12.4367 12.3546 11.6177 12.5179 11.0456 12.6825C10.8 12.7635 10.4721 12.9268 10.2279 13.0914C9.98228 13.2546 9.81771 13.5825 9.81771 13.9091C9.81771 14.1546 9.89999 14.4002 10.0633 14.5648C10.2279 14.7281 10.3911 14.8914 10.5544 14.9724C10.8823 15.1369 11.2101 15.2179 11.4544 15.2179H11.5367C11.8633 15.3002 12.1089 15.3002 12.2721 15.4635C12.3544 15.4635 12.3544 15.5458 12.3544 15.5458V15.6281L12.2721 15.7091C12.1911 15.7914 12.0279 15.8724 11.7 16.0369C11.1279 16.2812 10.3089 16.4458 9.40885 16.5268C7.67458 16.7699 5.92155 16.8521 4.17214 16.7724C4.25442 16.3635 4.41771 16.0369 4.49999 15.6281C4.58228 15.6281 4.58228 15.6281 4.66328 15.5458C4.74557 15.4635 4.90885 15.3825 4.99114 15.3002C5.23542 15.1369 5.39999 15.0559 5.64557 15.0559C6.12099 14.927 6.58602 14.7624 7.03671 14.5635C7.52785 14.4002 8.26328 13.9914 8.99999 13.5002C10.2279 12.6825 11.7823 11.2914 12.3557 9.32807C12.4367 9.0825 12.3557 8.83693 12.2721 8.67236V8.59136C12.8456 7.93565 13.4177 7.11793 13.8279 6.3825C14.1544 5.72679 14.4823 5.15465 14.5633 4.6635C14.7266 4.17236 14.7266 3.7635 14.5633 3.35465C14.7549 3.19779 15.0544 2.70022 15.1367 2.45465C15.3 1.9635 15.3 1.63693 15.2177 1.22807C15.1367 0.736931 14.8089 0.328074 14.2367 0.163502C13.8266 0.000216559 13.3367 0.0825023 12.681 0.245788C12.2721 0.328074 11.781 0.572359 11.2911 0.817931C10.8823 0.982502 10.5544 1.22807 10.3089 1.39136C10.2279 1.30907 10.1456 1.30907 10.0646 1.30907C9.89999 1.22807 9.65442 1.22807 9.40885 1.30907H9.32785C8.34557 1.71793 7.36328 2.45465 6.46328 3.43693C6.21899 3.68122 6.05442 4.00907 5.89114 4.17236H5.80885C5.64557 4.17236 5.48228 4.17236 5.39999 4.25464C5.23671 4.33693 5.15571 4.41793 5.07214 4.50022C2.86328 7.20022 2.61771 9.49136 2.86328 10.9635C2.94557 11.6192 3.19114 12.2724 3.51899 12.9281C3.59999 13.1724 3.68228 13.5002 3.76328 13.9091V14.3179C3.43671 15.2179 3.19114 16.2002 2.94557 17.1825C2.86328 17.5091 3.02785 17.7546 3.35442 17.8369C3.43671 17.8369 3.51771 17.9179 3.51771 17.9179C5.23671 18.0002 7.69114 18.0002 9.65442 17.6736C10.6367 17.5091 11.5367 17.3458 12.1911 17.1002C12.5177 16.9369 12.8456 16.8559 13.0911 16.6091C13.2394 16.5096 13.3614 16.3759 13.4469 16.2192C13.5324 16.0625 13.5788 15.8875 13.5823 15.7091C13.5823 15.4648 13.5 15.2179 13.4177 14.9724C13.2544 14.7281 13.0911 14.6458 12.9279 14.4825C12.6 14.3179 12.1911 14.2369 11.8633 14.1546C11.5367 14.0724 11.2911 14.0724 11.1279 13.9914H11.0443C11.1266 13.9091 11.2886 13.8281 11.4531 13.7458C11.9443 13.5825 12.5987 13.5002 13.3354 13.4179C14.8076 13.2546 16.4443 13.2546 17.1797 13.2546C17.2554 13.2566 17.3308 13.2431 17.4011 13.2151C17.4715 13.187 17.5354 13.145 17.589 13.0915C17.6427 13.038 17.6849 12.9741 17.7131 12.9038C17.7413 12.8335 17.7549 12.7582 17.7531 12.6825C17.7531 12.3546 17.5089 12.0268 17.181 12.0268L17.1823 12.0281ZM4.49999 12.3546C4.25172 11.8671 4.08577 11.3419 4.00885 10.8002C3.68228 9.00022 4.33671 7.20022 5.80885 5.31793C6.00021 5.32318 6.18992 5.28123 6.36123 5.1958C6.53255 5.11037 6.68019 4.98408 6.79114 4.82807C6.95442 4.6635 7.11771 4.41793 7.36328 4.17236C7.85442 3.60022 8.67214 2.7825 9.73671 2.37236C10.1456 2.61793 10.5544 2.61793 10.9633 2.37236C11.2089 2.20907 11.5367 2.04579 11.8633 1.80022C12.2197 1.58262 12.6055 1.41723 13.0089 1.30907C13.3367 1.22807 13.6646 1.14579 13.9089 1.22807C14.0721 1.30907 14.0721 1.30907 14.0721 1.39136C14.0721 1.47236 14.0721 1.63565 13.9911 2.04579C13.9089 2.29007 13.8279 2.53693 13.6633 2.7825L13.5823 2.8635C13.4177 3.10907 13.4177 3.43693 13.5 3.7635C13.5 3.84579 13.5823 4.00907 13.5 4.41922C13.4177 4.82807 13.1721 5.31922 12.8443 5.89136C12.4852 6.61332 12.0168 7.27554 11.4557 7.85465C11.1279 8.1825 11.0443 8.75465 11.2911 9.0825C10.8 10.7179 9.49114 11.8635 8.42785 12.6002C7.86143 12.9857 7.25854 13.3147 6.62785 13.5825C6.05442 13.8268 5.64557 13.9091 5.48228 13.9914C5.33025 13.9941 5.18443 14.0521 5.07214 14.1546C6.95571 8.91793 9.65571 5.64579 10.8823 4.41793C11.1266 4.17365 11.1266 3.84579 10.8823 3.60022C10.6367 3.35593 10.3089 3.35593 10.0633 3.60022C8.83671 4.82807 6.46328 7.77236 4.49999 12.3546Z" fill="#344054"/>
</svg>
