<svg width="21" height="21" viewBox="0 0 21 21" fill="none" xmlns="http://www.w3.org/2000/svg">
    <path d="M11.82 12H7.66C7.56 11.34 7.5 10.68 7.5 10C7.5 9.32 7.56 8.65 7.66 8H12.34C12.43 8.65 12.5 9.32 12.5 10C12.5 10.5 12.46 11 12.4 11.46C13 10.96 13.72 10.57 14.5 10.32V10C14.5 9.32 14.44 8.66 14.36 8H17.74C17.9 8.64 18 9.31 18 10V10.18C18.7 10.35 19.35 10.63 19.95 11C20 10.68 20 10.34 20 10C20 4.5 15.5 0 10 0C4.47 0 0 4.5 0 10C0 15.5 4.5 20 10 20C10.34 20 10.68 20 11 19.95C10.59 19.29 10.29 18.55 10.13 17.75C10.09 17.82 10.05 17.89 10 17.96C9.17 16.76 8.5 15.43 8.09 14H10.5C10.81 13.25 11.26 12.58 11.82 12ZM16.92 6H13.97C13.65 4.75 13.19 3.55 12.59 2.44C14.43 3.07 15.96 4.34 16.92 6ZM10 2.03C10.83 3.23 11.5 4.57 11.91 6H8.09C8.5 4.57 9.17 3.23 10 2.03ZM2.26 12C2.1 11.36 2 10.69 2 10C2 9.31 2.1 8.64 2.26 8H5.64C5.56 8.66 5.5 9.32 5.5 10C5.5 10.68 5.56 11.34 5.64 12H2.26ZM3.08 14H6C6.35 15.25 6.8 16.45 7.4 17.56C5.57849 16.9319 4.04464 15.6679 3.08 14ZM6 6H3.08C4.0385 4.32691 5.57457 3.06108 7.4 2.44C6.8 3.55 6.35 4.75 6 6ZM16.5 12C14 12 12 14 12 16.5C12 19 14 21 16.5 21C19 21 21 19 21 16.5C21 14 19 12 16.5 12ZM16.5 19.5C14.84 19.5 13.5 18.16 13.5 16.5C13.5 15.94 13.65 15.42 13.92 15L18 19.08C17.58 19.35 17.06 19.5 16.5 19.5ZM19.08 18L15 13.92C15.42 13.65 15.94 13.5 16.5 13.5C18.16 13.5 19.5 14.84 19.5 16.5C19.5 17.06 19.35 17.58 19.08 18Z" fill="#2E90FA"/>
</svg>
