<svg width="24" height="24" viewBox="0 0 24 24" fill="none" xmlns="http://www.w3.org/2000/svg">
    <path d="M16.5746 1.87268H5.5918C5.31992 1.87268 5.09961 2.09299 5.09961 2.36487V21.6328C5.09961 21.9047 5.31992 22.125 5.5918 22.125H22.1129V7.41331L16.5746 1.87268Z" fill="white"/>
    <path d="M22.1152 22.5H5.5918C5.11367 22.5 4.72461 22.111 4.72461 21.6328V2.36487C4.72461 1.88674 5.11367 1.49768 5.5918 1.49768H16.5746C16.673 1.49768 16.7691 1.53752 16.8395 1.60784L22.3801 7.14846C22.4504 7.21877 22.4902 7.31487 22.4902 7.41331V22.125C22.4902 22.3336 22.3215 22.5 22.1152 22.5ZM5.5918 2.24768C5.52852 2.24768 5.47461 2.29924 5.47461 2.36487V21.6328C5.47461 21.6961 5.52617 21.75 5.5918 21.75H21.7402V7.57034L16.4199 2.25002H5.5918V2.24768Z" fill="#00365B"/>
    <path d="M22.1158 7.41331H16.5752V1.87268L22.1158 7.41331Z" fill="white"/>
    <path d="M22.1158 7.78831H16.5752C16.3689 7.78831 16.2002 7.61955 16.2002 7.4133V1.87268C16.2002 1.72034 16.2916 1.5844 16.4322 1.52581C16.5729 1.46721 16.7346 1.50002 16.84 1.60784L22.3807 7.14846C22.4885 7.25627 22.5189 7.41799 22.4627 7.55627C22.4041 7.6969 22.2682 7.78831 22.1158 7.78831ZM16.9502 7.0383H21.2111L16.9502 2.77971V7.0383Z" fill="#00365B"/>
    <path d="M2.45353 9.70776H18.8316C19.3566 9.70776 19.7832 10.1718 19.7832 10.746V17.8101C19.7832 18.3843 19.3566 18.8484 18.8316 18.8484H2.45353C1.92853 18.8484 1.50196 18.3843 1.50196 17.8101V10.746C1.49962 10.1718 1.92618 9.70776 2.45353 9.70776Z" fill="#B56FE1"/>
    <path d="M5.65273 17.25C5.7582 17.25 5.86133 17.2125 5.96211 17.1351C6.06289 17.0578 6.11211 16.9265 6.11211 16.7367C6.11211 16.5539 6.06523 16.4226 5.97148 16.3429C5.87773 16.2632 5.76992 16.2234 5.65273 16.2234H3.91836V11.4445C3.91836 11.3039 3.86445 11.1914 3.75898 11.1117C3.65352 11.032 3.51523 10.9921 3.34414 10.9921C3.18477 10.9921 3.04883 11.032 2.93633 11.1117C2.82383 11.1914 2.76758 11.3015 2.76758 11.4445V16.6125C2.76758 16.7906 2.82383 16.9406 2.93633 17.0648C3.04883 17.189 3.20117 17.25 3.3957 17.25H5.65273ZM9.46836 17.4257C9.94648 17.4257 10.3613 17.3414 10.7105 17.1726C11.0621 17.0039 11.3527 16.7742 11.5824 16.4812C11.8121 16.1882 11.9832 15.8437 12.0957 15.4453C12.2082 15.0468 12.2645 14.6179 12.2645 14.1585C12.2645 13.6992 12.2082 13.2703 12.0957 12.8765C11.9832 12.4804 11.8121 12.1382 11.5824 11.8453C11.3527 11.5546 11.0621 11.325 10.7105 11.1562C10.359 10.9875 9.94414 10.9031 9.46836 10.9031C8.97383 10.9031 8.54961 10.9875 8.19805 11.1562C7.84648 11.325 7.5582 11.5546 7.33086 11.8476C7.10352 12.1406 6.93711 12.4851 6.83164 12.8835C6.72617 13.282 6.67227 13.7085 6.67227 14.1632C6.67227 14.6343 6.73086 15.0726 6.85039 15.4734C6.96758 15.8742 7.1457 16.2187 7.38242 16.5093C7.61914 16.7976 7.90977 17.025 8.25898 17.1867C8.6082 17.3484 9.00664 17.4257 9.46836 17.4257ZM9.46836 16.4179C9.15664 16.4179 8.89414 16.3523 8.68555 16.2234C8.47695 16.0945 8.30586 15.9234 8.17695 15.7101C8.04805 15.4968 7.95664 15.2554 7.90273 14.9835C7.84883 14.7117 7.82305 14.4375 7.82305 14.1609C7.82305 13.8539 7.85352 13.5656 7.91211 13.2937C7.9707 13.0218 8.06445 12.7851 8.1957 12.5812C8.32461 12.3773 8.4957 12.2156 8.7043 12.0937C8.91289 11.9718 9.16836 11.9132 9.4707 11.9132C9.77305 11.9132 10.0262 11.9718 10.2371 12.0914C10.4457 12.2085 10.6168 12.3726 10.7457 12.5789C10.8746 12.7851 10.9707 13.0265 11.0293 13.3054C11.0879 13.582 11.1184 13.8773 11.1184 14.1914C11.1184 14.5031 11.0926 14.796 11.0387 15.0679C10.9848 15.3398 10.8934 15.5742 10.7645 15.7757C10.6355 15.9773 10.4645 16.1343 10.2559 16.2492C10.0402 16.3593 9.78008 16.4179 9.46836 16.4179ZM15.9887 17.4257C16.4668 17.4257 16.8699 17.3507 17.2004 17.2007C17.5309 17.0507 17.8004 16.8468 18.009 16.589C18.2176 16.3335 18.3699 16.0359 18.4613 15.7007C18.5527 15.3656 18.5996 15.0093 18.5996 14.639C18.5996 14.332 18.5574 14.1164 18.4754 13.9921C18.3934 13.8679 18.2316 13.807 17.9879 13.807H16.509C16.3027 13.807 16.148 13.8492 16.0496 13.9312C15.9488 14.0132 15.8996 14.1492 15.8996 14.339C15.8996 14.5289 15.9465 14.6601 16.0402 14.7328C16.134 14.8054 16.2887 14.8429 16.4996 14.8429H17.4465C17.4465 15.0726 17.409 15.2835 17.3316 15.4757C17.2543 15.6679 17.1512 15.832 17.0176 15.9703C16.884 16.1085 16.7316 16.2187 16.5582 16.2984C16.3848 16.3781 16.1973 16.4179 15.9957 16.4179C15.7191 16.4179 15.4637 16.364 15.234 16.2585C15.0043 16.1531 14.8074 16.0031 14.641 15.8062C14.477 15.6117 14.348 15.375 14.2566 15.0984C14.1652 14.8218 14.1184 14.5078 14.1184 14.1609C14.1184 13.8187 14.1652 13.5093 14.259 13.2328C14.3527 12.9562 14.4793 12.7195 14.6387 12.525C14.798 12.3304 14.9879 12.1804 15.2059 12.0726C15.4238 11.9671 15.6582 11.9132 15.9043 11.9132C16.1879 11.9132 16.434 11.9601 16.6426 12.0515C16.8512 12.1429 17.0738 12.3164 17.3105 12.5695C17.3809 12.6398 17.4582 12.6867 17.5402 12.7101C17.6223 12.7335 17.7043 12.7429 17.7887 12.7359C17.8707 12.7289 17.9504 12.7101 18.023 12.675C18.0957 12.6398 18.1613 12.5976 18.2129 12.5507C18.3184 12.4734 18.3676 12.382 18.3582 12.2718C18.3488 12.1617 18.3043 12.0515 18.2199 11.9367C18.1379 11.8218 18.0277 11.707 17.8918 11.5921C17.7559 11.4773 17.6082 11.3695 17.4488 11.2687C17.184 11.1164 16.9332 11.0156 16.6965 10.9734C16.4598 10.9289 16.2066 10.9078 15.9348 10.9078C15.4637 10.9078 15.0418 10.9921 14.6738 11.1632C14.3059 11.3343 13.9941 11.5664 13.741 11.8617C13.4879 12.157 13.2934 12.5039 13.1621 12.907C13.0285 13.3078 12.9629 13.7414 12.9629 14.2078C12.9629 14.6976 13.0332 15.1406 13.1715 15.5343C13.3098 15.9304 13.5113 16.2679 13.7738 16.5468C14.0363 16.8281 14.3527 17.0437 14.7254 17.1984C15.1051 17.3507 15.5223 17.4257 15.9887 17.4257Z" fill="white"/>
</svg>
