<svg width="25" height="22" viewBox="0 0 25 22" fill="none" xmlns="http://www.w3.org/2000/svg">
    <path d="M23.9009 13.0712V0.429565H0.762695V21.0175H23.9036L23.9009 13.0712Z" fill="white"/>
    <path d="M23.9035 21.447H0.762538C0.526296 21.447 0.333008 21.2537 0.333008 21.0174V0.42953C0.333008 0.193289 0.526296 0 0.762538 0H23.9008C24.137 0 24.3303 0.193289 24.3303 0.42953V13.0711L24.333 21.0148C24.333 21.1275 24.2874 21.2376 24.2068 21.3181C24.1263 21.4013 24.0189 21.447 23.9035 21.447ZM1.19207 20.5879H23.4739L23.4713 13.0738V0.85906H1.19207V20.5879Z" fill="#00365B"/>
    <path d="M0.762695 0.429565H23.9009V3.51413H0.762695V0.429565Z" fill="#E88F5F"/>
    <path d="M23.9008 3.94362H0.762538C0.526296 3.94362 0.333008 3.75034 0.333008 3.51409V0.42953C0.333008 0.193289 0.526296 0 0.762538 0H23.9008C24.137 0 24.3303 0.193289 24.3303 0.42953V3.51409C24.3303 3.75034 24.1397 3.94362 23.9008 3.94362ZM1.19207 3.08456H23.4713V0.85906H1.19207V3.08456Z" fill="#00365B"/>
    <path d="M2.22559 1.97311C2.22559 2.08703 2.27084 2.19628 2.35139 2.27683C2.43195 2.35739 2.5412 2.40264 2.65512 2.40264C2.76903 2.40264 2.87829 2.35739 2.95884 2.27683C3.03939 2.19628 3.08465 2.08703 3.08465 1.97311C3.08465 1.85919 3.03939 1.74994 2.95884 1.66939C2.87829 1.58883 2.76903 1.54358 2.65512 1.54358C2.5412 1.54358 2.43195 1.58883 2.35139 1.66939C2.27084 1.74994 2.22559 1.85919 2.22559 1.97311Z" fill="white"/>
    <path d="M3.87695 1.97311C3.87695 2.08703 3.92221 2.19628 4.00276 2.27683C4.08331 2.35739 4.19256 2.40264 4.30648 2.40264C4.4204 2.40264 4.52965 2.35739 4.61021 2.27683C4.69076 2.19628 4.73601 2.08703 4.73601 1.97311C4.73601 1.85919 4.69076 1.74994 4.61021 1.66939C4.52965 1.58883 4.4204 1.54358 4.30648 1.54358C4.19256 1.54358 4.08331 1.58883 4.00276 1.66939C3.92221 1.74994 3.87695 1.85919 3.87695 1.97311Z" fill="white"/>
    <path d="M5.53027 1.97311C5.53027 2.08703 5.57553 2.19628 5.65608 2.27683C5.73663 2.35739 5.84589 2.40264 5.9598 2.40264C6.07372 2.40264 6.18298 2.35739 6.26353 2.27683C6.34408 2.19628 6.38933 2.08703 6.38933 1.97311C6.38933 1.85919 6.34408 1.74994 6.26353 1.66939C6.18298 1.58883 6.07372 1.54358 5.9598 1.54358C5.84589 1.54358 5.73663 1.58883 5.65608 1.66939C5.57553 1.74994 5.53027 1.85919 5.53027 1.97311Z" fill="white"/>
    <path d="M10.8811 16.2845H17.3993V18.0026H10.8811V16.2845ZM10.4865 13.9758C10.4865 12.7758 9.82074 12.0268 8.65832 11.5999L7.65698 11.1865C6.78987 10.867 6.29591 10.7194 6.29591 10.3194C6.29591 9.9194 6.64222 9.73148 7.1496 9.73148C7.97644 9.73148 8.4704 9.94624 9.09859 10.3597L10.2449 8.91806C9.67577 8.38383 8.98852 8.0402 8.28517 7.87645V6.49121H6.56705V7.8147C4.99121 8.06973 3.97376 9.15967 3.97376 10.4536C3.97376 11.7073 4.80061 12.4939 5.80195 12.8697L6.88383 13.3234C7.68383 13.6563 8.13752 13.7637 8.13752 14.2711C8.13752 14.5503 7.87175 14.7785 7.17644 14.7785C6.38987 14.7785 5.61671 14.4322 4.96168 13.9382L3.6543 15.5113C4.50262 16.2415 5.56034 16.6415 6.56973 16.7328V18.0053H8.28785V16.5932C9.71873 16.1959 10.4865 15.1355 10.4865 13.9758Z" fill="#00365B"/>
</svg>
