<svg width="24" height="24" viewBox="0 0 24 24" fill="none" xmlns="http://www.w3.org/2000/svg">
    <g clip-path="url(#clip0_9222_30521)">
        <path d="M17.592 10.128C18.9176 10.1017 20.1801 9.55655 21.1083 8.60973C22.0364 7.66292 22.5564 6.38989 22.5564 5.064C22.5564 3.73811 22.0364 2.46508 21.1083 1.51827C20.1801 0.57145 18.9176 0.0263459 17.592 0C16.2497 0.00237931 14.963 0.53667 14.0138 1.48584C13.0647 2.43501 12.5304 3.72167 12.528 5.064C12.5304 6.40632 13.0647 7.69299 14.0138 8.64216C14.963 9.59133 16.2497 10.1256 17.592 10.128ZM17.592 8.424C16.7042 8.42347 15.8529 8.07056 15.2252 7.44281C14.5974 6.81505 14.2445 5.96378 14.244 5.076C14.2445 4.18822 14.5974 3.33695 15.2252 2.70919C15.8529 2.08143 16.7042 1.72853 17.592 1.728C18.4798 1.72853 19.331 2.08143 19.9588 2.70919C20.5866 3.33695 20.9395 4.18822 20.94 5.076C20.9395 5.96378 20.5866 6.81505 19.9588 7.44281C19.331 8.07056 18.4798 8.42347 17.592 8.424ZM5.064 0.012C2.268 0.012 0 2.28 0 5.064C0.0263459 6.38963 0.57145 7.65207 1.51827 8.58026C2.46508 9.50844 3.73811 10.0284 5.064 10.0284C6.38989 10.0284 7.66292 9.50844 8.60973 8.58026C9.55655 7.65207 10.1017 6.38963 10.128 5.064C10.116 2.28 7.848 0.012 5.064 0.012ZM8.412 5.064C8.41147 5.95178 8.05856 6.80305 7.43081 7.43081C6.80305 8.05856 5.95178 8.41147 5.064 8.412C4.17495 8.412 3.32213 8.05965 2.69235 7.43212C2.06258 6.8046 1.70718 5.95305 1.704 5.064C1.70453 4.17622 2.05743 3.32495 2.68519 2.69719C3.31295 2.06943 4.16422 1.71653 5.052 1.716C5.94105 1.71599 6.79387 2.06835 7.42365 2.69587C8.05342 3.3234 8.40882 4.17495 8.412 5.064ZM5.064 12.216C3.73837 12.2423 2.47592 12.7874 1.54774 13.7343C0.619554 14.6811 0.0996433 15.9541 0.0996433 17.28C0.0996433 18.6059 0.619554 19.8789 1.54774 20.8257C2.47592 21.7725 3.73837 22.3177 5.064 22.344C6.40697 22.3437 7.69487 21.8101 8.6445 20.8605C9.59412 19.9109 10.1277 18.623 10.128 17.28C10.1256 15.9377 9.59133 14.651 8.64216 13.7018C7.69299 12.7527 6.40632 12.2184 5.064 12.216ZM8.412 17.28C8.41147 18.1678 8.05856 19.019 7.43081 19.6468C6.80305 20.2746 5.95178 20.6275 5.064 20.628C4.17495 20.628 3.32213 20.2757 2.69235 19.6481C2.06258 19.0206 1.70718 18.169 1.704 17.28C1.70453 16.3922 2.05743 15.5409 2.68519 14.9132C3.31295 14.2854 4.16422 13.9325 5.052 13.932C5.94105 13.932 6.79387 14.2843 7.42365 14.9119C8.05342 15.5394 8.40882 16.391 8.412 17.28Z" fill="#4E5BA6"/>
        <path d="M17.592 12.216C18.524 12.2163 19.4379 12.4738 20.233 12.9602C21.0281 13.4465 21.6736 14.1428 22.0985 14.9724C22.5233 15.802 22.711 16.7327 22.6409 17.6621C22.5707 18.5915 22.2455 19.4835 21.701 20.24L23.748 22.296C23.83 22.372 23.894 22.4652 23.9355 22.569C23.977 22.6728 23.995 22.7845 23.988 22.896C23.9865 23.1214 23.8959 23.3371 23.736 23.496C23.659 23.5774 23.5658 23.6418 23.4625 23.6852C23.3592 23.7286 23.248 23.75 23.136 23.748C23.024 23.75 22.9128 23.7286 22.8095 23.6852C22.7062 23.6418 22.613 23.5774 22.536 23.496L20.479 21.441C19.8262 21.8944 19.0758 22.1879 18.2885 22.2976C17.5012 22.4072 16.6992 22.3301 15.9473 22.0724C15.1954 21.8146 14.5147 21.3835 13.9602 20.814C13.4058 20.2444 12.9932 19.5523 12.7558 18.7938C12.5184 18.0352 12.4628 17.2314 12.5937 16.4473C12.7245 15.6633 13.038 14.9211 13.5089 14.2807C13.9797 13.6403 14.5947 13.1197 15.304 12.761C16.0133 12.4023 16.7971 12.2156 17.592 12.216ZM17.592 13.932C16.7042 13.9325 15.8529 14.2854 15.2252 14.9132C14.5974 15.541 14.2445 16.3922 14.244 17.28C14.2445 18.1678 14.5974 19.0191 15.2252 19.6468C15.8529 20.2746 16.7042 20.6275 17.592 20.628C18.4798 20.6275 19.331 20.2746 19.9588 19.6468C20.5866 19.0191 20.9395 18.1678 20.94 17.28C20.9395 16.3922 20.5866 15.541 19.9588 14.9132C19.331 14.2854 18.4798 13.9325 17.592 13.932Z" fill="#47CD89"/>
    </g>
    <defs>
        <clipPath id="clip0_9222_30521">
            <rect width="24" height="24" fill="white"/>
        </clipPath>
    </defs>
</svg>
