<svg width="18" height="18" viewBox="0 0 18 18" fill="none" xmlns="http://www.w3.org/2000/svg">
    <path d="M16.6827 15.9873L14.0472 13.3472C15.1736 12.0544 15.8546 10.3725 15.8546 8.52293C15.8546 4.46713 12.5682 1.17773 8.51607 1.17773C4.46396 1.17773 1.17773 4.46924 1.17773 8.52504C1.17773 12.5808 4.46414 15.8683 8.51607 15.8683C10.3699 15.8683 12.0604 15.1785 13.3499 14.043L15.9855 16.6811C16.0803 16.7759 16.2051 16.8223 16.3301 16.8223C16.4551 16.8223 16.5799 16.7759 16.6746 16.6811C16.8701 16.4874 16.8701 16.1829 16.6827 15.9873ZM8.51607 14.991C7.64156 14.991 6.79939 14.8236 6.00539 14.4828C5.23371 14.156 4.54254 13.6881 3.9542 13.0992C3.36586 12.5104 2.89635 11.8104 2.57203 11.0461C2.23752 10.2514 2.0642 9.40852 2.0642 8.53312C2.0642 7.65773 2.23137 6.81486 2.57203 6.02016C2.89846 5.24777 3.36586 4.5559 3.9542 3.96703C4.54254 3.37816 5.2418 2.90813 6.00539 2.58346C6.79922 2.24859 7.64156 2.07527 8.51607 2.07527C9.39059 2.07527 10.2328 2.24262 11.0268 2.58346C11.7984 2.91023 12.4896 3.37816 13.0779 3.96703C13.6663 4.5559 14.1358 5.25586 14.4601 6.02016C14.7946 6.81486 14.9599 7.65773 14.9599 8.53312C14.9599 9.40852 14.7927 10.2514 14.452 11.0461C14.1256 11.8185 13.6582 12.5104 13.0699 13.0992C12.4815 13.6881 11.7823 14.1581 11.0187 14.4828C10.241 14.8155 9.39059 14.991 8.51607 14.991ZM11.0187 6.08678C10.5754 6.08678 10.2106 6.44572 10.2106 6.89555C10.2106 7.05076 10.253 7.19613 10.3294 7.31496L9.44895 8.78326H9.40254C9.31799 8.78326 9.23537 8.79539 9.16277 8.81965L8.55826 8.21461C8.58252 8.13604 8.59447 8.05939 8.59447 7.97467C8.59447 7.531 8.23588 7.1659 7.78641 7.1659C7.33711 7.1659 6.97834 7.52484 6.97834 7.97467C6.97834 8.12988 7.0207 8.27525 7.09717 8.39408L6.21861 9.85623H6.17027C5.72695 9.85623 5.36221 10.2152 5.36221 10.665C5.36221 11.1148 5.7208 11.4738 6.17027 11.4738C6.61957 11.4738 6.97834 11.1148 6.97834 10.665C6.97834 10.5098 6.93598 10.3644 6.85951 10.2456L7.74 8.77729H7.78834C7.87289 8.77729 7.95551 8.76516 8.02811 8.7409L8.63262 9.34594C8.60836 9.42451 8.59641 9.50115 8.59641 9.58588C8.59641 10.0296 8.955 10.3946 9.40447 10.3946C9.85377 10.3946 10.2125 10.0357 10.2125 9.58588C10.2125 9.43066 10.1702 9.28529 10.0937 9.16646L10.9742 7.70432H11.0225C11.4659 7.70432 11.8306 7.34537 11.8306 6.89555C11.8267 6.44572 11.462 6.08678 11.0187 6.08678Z" fill="#344054"/>
</svg>
