<svg width="24" height="24" viewBox="0 0 24 24" fill="none" xmlns="http://www.w3.org/2000/svg">
    <path d="M12.5176 4.8593C13.434 3.9429 14.634 3.48586 15.834 3.48586C16.7527 3.48586 17.6715 3.75305 18.4613 4.28977L20.2449 2.50618C20.2824 2.47102 20.3293 2.45227 20.3785 2.45227C20.4277 2.45227 20.4746 2.46868 20.5121 2.50618L21.5059 3.49993C21.5785 3.57258 21.5785 3.69211 21.5059 3.76711L19.7223 5.55071C20.9574 7.37415 20.7676 9.87493 19.1527 11.4921L16.7645 13.8804C16.727 13.9156 16.6777 13.9343 16.6309 13.9343C16.5816 13.9343 16.5348 13.9179 16.4973 13.8804L10.1293 7.51243C10.0566 7.43977 10.0566 7.32024 10.1293 7.24758L12.5176 4.8593ZM7.23008 10.1445C7.26758 10.1093 7.3168 10.0906 7.36367 10.0906C7.39077 10.0906 7.41716 10.0955 7.44165 10.1063L7.44092 10.1071L13.9101 16.5763C13.9351 16.643 13.9209 16.7216 13.8676 16.7749L11.4793 19.1632C10.5629 20.0796 9.36289 20.5366 8.16289 20.5366C7.24414 20.5366 6.32539 20.2695 5.53555 19.7327L3.75195 21.5163C3.71445 21.5515 3.66758 21.5702 3.61836 21.5702C3.56914 21.5702 3.52227 21.5538 3.48477 21.5163L2.49102 20.5226C2.41836 20.4499 2.41836 20.3304 2.49102 20.2577L4.27461 18.4741C3.03945 16.6507 3.2293 14.1499 4.84414 12.5327L7.23008 10.1445ZM13.6449 5.98665L12.2527 7.37883L16.6309 11.757L18.023 10.3648C18.6066 9.77883 18.9301 9.00305 18.9301 8.17571C18.9301 7.34836 18.6066 6.57024 18.023 5.98665C17.4371 5.40071 16.6613 5.07961 15.834 5.07961C15.0066 5.07961 14.2285 5.40305 13.6449 5.98665ZM7.36367 12.2679L5.97148 13.6601C5.38555 14.246 5.06445 15.0218 5.06445 15.8491C5.06445 16.6765 5.38789 17.4546 5.97148 18.0382C6.55742 18.6241 7.3332 18.9452 8.16055 18.9452C8.98789 18.9452 9.76602 18.6218 10.3496 18.0382L11.7418 16.646L7.36367 12.2679Z" fill="#1C6EFF"/>
    <path d="M13.308 12.8581C13.3255 12.8407 13.3461 12.8269 13.3689 12.8175C13.3916 12.808 13.416 12.8032 13.4406 12.8032C13.4653 12.8032 13.4896 12.808 13.5124 12.8175C13.5351 12.8269 13.5558 12.8407 13.5732 12.8581L14.3687 13.6536C14.3861 13.671 14.3999 13.6917 14.4094 13.7144C14.4188 13.7372 14.4236 13.7616 14.4236 13.7862C14.4236 13.8108 14.4188 13.8352 14.4094 13.8579C14.3999 13.8807 14.3861 13.9014 14.3687 13.9188L12.8109 15.4766L11.7502 14.416L13.308 12.8581ZM10.0598 9.60984C10.095 9.57468 10.1427 9.55493 10.1924 9.55493C10.2421 9.55493 10.2898 9.57468 10.325 9.60984L11.1205 10.4054C11.1556 10.4405 11.1754 10.4882 11.1754 10.5379C11.1754 10.5877 11.1556 10.6353 11.1205 10.6705L9.56262 12.2283L8.50195 11.1677L10.0598 9.60984Z" fill="#44D7B6"/>
</svg>
