<svg width="20" height="20" viewBox="0 0 20 20" fill="none" xmlns="http://www.w3.org/2000/svg">
    <path d="M13.0578 1.25146H2.84229V18.7413H17.0859V5.00799L13.0578 1.25146ZM13.3982 18.6909C12.254 18.6909 11.2315 18.1874 10.5553 17.3971H4.23369V2.59564H11.908V6.26457H15.6945V12.3426C16.5419 12.9952 17.0851 14.0008 17.0851 15.1292C17.0851 17.0963 15.4344 18.6909 13.3982 18.6909Z" fill="#1296DB"/>
    <path d="M5.90332 8.17163H14.2966V9.4822H5.90332V8.17163ZM5.90332 11.2975H10.1221V12.608H5.90332V11.2975ZM5.90332 14.4233H8.55672V15.7338H5.90332V14.4233Z" fill="#1296DB"/>
    <path d="M15.6946 12.3426C15.0646 11.8575 14.2666 11.5674 13.3983 11.5674C11.3621 11.5674 9.71143 13.162 9.71143 15.1291C9.71143 15.9909 10.0282 16.7811 10.5554 17.3971C11.2317 18.1874 12.2541 18.6909 13.3983 18.6909C15.4346 18.6909 17.0853 17.0963 17.0853 15.1292C17.0853 14.0008 16.542 12.9952 15.6946 12.3426ZM13.3171 17.6954L12.5792 16.9825L12.5968 16.9654L11.2703 15.684L12.0082 14.9711L12.8766 15.81V12.7267H13.9201V15.6871L14.7885 14.8482L15.5264 15.5611L13.3171 17.6954Z" fill="#1296DB"/>
    <path d="M15.5266 15.5611L14.7887 14.8483L13.9203 15.6871V12.7268H12.8768V15.8101L12.0084 14.9712L11.2705 15.6841L12.597 16.9655L12.5794 16.9826L13.3173 17.6954L15.5266 15.5611Z" fill="white"/>
</svg>
