<svg width="25" height="24" viewBox="0 0 25 24" fill="none" xmlns="http://www.w3.org/2000/svg">
    <g clip-path="url(#clip0_729_10092)">
        <path opacity="0.4" d="M2.63379 13.1497H20.9571V14.5149H2.63379V13.1497Z" fill="#005CFF"/>
        <path d="M12.5498 19.3293C12.5498 19.4426 12.5721 19.5547 12.6154 19.6593C12.6588 19.7639 12.7223 19.859 12.8024 19.939C12.8824 20.0191 12.9775 20.0826 13.0821 20.126C13.1867 20.1693 13.2988 20.1916 13.4121 20.1916C13.5253 20.1916 13.6374 20.1693 13.7421 20.126C13.8467 20.0826 13.9417 20.0191 14.0218 19.939C14.1019 19.859 14.1654 19.7639 14.2087 19.6593C14.2521 19.5547 14.2744 19.4426 14.2744 19.3293C14.2744 19.2161 14.2521 19.104 14.2087 18.9993C14.1654 18.8947 14.1019 18.7997 14.0218 18.7196C13.9417 18.6395 13.8467 18.576 13.7421 18.5327C13.6374 18.4893 13.5253 18.467 13.4121 18.467C13.2988 18.467 13.1867 18.4893 13.0821 18.5327C12.9775 18.576 12.8824 18.6395 12.8024 18.7196C12.7223 18.7997 12.6588 18.8947 12.6154 18.9993C12.5721 19.104 12.5498 19.2161 12.5498 19.3293Z" fill="#2488FF"/>
        <path d="M15.209 19.3293C15.209 19.558 15.2998 19.7773 15.4615 19.939C15.6232 20.1007 15.8426 20.1916 16.0713 20.1916C16.2999 20.1916 16.5193 20.1007 16.681 19.939C16.8427 19.7773 16.9335 19.558 16.9335 19.3293C16.9335 19.1006 16.8427 18.8813 16.681 18.7196C16.5193 18.5579 16.2999 18.467 16.0713 18.467C15.8426 18.467 15.6232 18.5579 15.4615 18.7196C15.2998 18.8813 15.209 19.1006 15.209 19.3293Z" fill="#2488FF"/>
        <path d="M17.8672 19.3293C17.8672 19.558 17.958 19.7773 18.1197 19.939C18.2815 20.1007 18.5008 20.1916 18.7295 20.1916C18.9582 20.1916 19.1775 20.1007 19.3392 19.939C19.5009 19.7773 19.5917 19.558 19.5917 19.3293C19.5917 19.1006 19.5009 18.8813 19.3392 18.7196C19.1775 18.5579 18.9582 18.467 18.7295 18.467C18.5008 18.467 18.2815 18.5579 18.1197 18.7196C17.958 18.8813 17.8672 19.1006 17.8672 19.3293Z" fill="#2488FF"/>
        <path d="M20.9574 17.3174L19.8077 12.2156C19.7359 11.8563 19.2329 11.5689 18.7299 11.5689H5.00533C4.50234 11.5689 3.99935 11.8563 3.92749 12.2156L2.77779 17.3893L1.48438 17.03L2.63408 11.8563C2.84964 10.8504 3.85563 10.0599 5.07719 10.0599H18.8017C19.9514 10.0599 21.0293 10.7785 21.2449 11.8563L22.3946 17.03L20.9574 17.3174Z" fill="#2488FF"/>
        <path d="M19.3764 22.994H4.4303C2.41832 22.994 0.765625 21.3414 0.765625 19.3294V19.1857C0.765625 17.1737 2.41832 15.521 4.4303 15.521H19.3764C21.3884 15.521 23.0411 17.1737 23.0411 19.1857V19.3294C23.0411 21.3414 21.3884 22.994 19.3764 22.994ZM4.4303 16.9581C3.20874 16.9581 2.13089 17.9641 2.13089 19.2575V19.4012C2.13089 20.6228 3.13688 21.7006 4.4303 21.7006H19.3764C20.598 21.7006 21.6758 20.6946 21.6758 19.4012V19.2575C21.6758 18.036 20.6698 16.9581 19.3764 16.9581H4.4303Z" fill="#424242"/>
        <path d="M9.10069 19.9761H5.72345C5.36416 19.9761 5.00488 19.6886 5.00488 19.2575C5.00488 18.8982 5.29231 18.5389 5.72345 18.5389H9.17255C9.53183 18.5389 9.89111 18.8264 9.89111 19.2575C9.81925 19.6886 9.53183 19.9761 9.10069 19.9761Z" fill="#5CB6FF"/>
        <path d="M22.4666 8.47904H1.34082L2.63423 1.94012C2.8498 0.790419 3.85579 0 5.00549 0H18.73C19.9516 0 20.9576 0.790419 21.1732 1.94012L22.4666 8.47904ZM2.99351 7.11377H20.8139L19.8079 2.15569C19.736 1.72455 19.3049 1.36527 18.73 1.36527H5.00549C4.5025 1.36527 4.07136 1.72455 3.9995 2.15569L2.99351 7.11377Z" fill="#424242"/>
        <path d="M19.3047 12.9341H4.50234C2.77779 12.9341 1.48438 11.5689 1.48438 9.91616C1.48438 8.26346 2.84964 6.89819 4.50234 6.89819H19.3766C21.0293 6.89819 22.3946 8.26346 22.3946 9.91616C22.3227 11.5689 21.0293 12.9341 19.3047 12.9341Z" fill="white"/>
        <path d="M19.3764 13.6527H4.4303C2.41832 13.6527 0.765625 12 0.765625 9.98807V9.84436C0.765625 7.83238 2.41832 6.17969 4.4303 6.17969H19.3764C21.3884 6.17969 23.0411 7.83238 23.0411 9.84436V9.98807C23.0411 12 21.3884 13.6527 19.3764 13.6527ZM4.4303 7.61681C3.20874 7.61681 2.13089 8.6228 2.13089 9.91621V10.0599C2.13089 11.2815 3.13688 12.3593 4.4303 12.3593H19.3764C20.598 12.3593 21.6758 11.3533 21.6758 10.0599V9.91621C21.6758 8.69466 20.6698 7.61681 19.3764 7.61681H4.4303Z" fill="#424242"/>
        <path d="M12.5498 10.0599C12.5498 10.1731 12.5721 10.2853 12.6154 10.3899C12.6588 10.4945 12.7223 10.5896 12.8024 10.6696C12.8824 10.7497 12.9775 10.8132 13.0821 10.8565C13.1867 10.8999 13.2988 10.9222 13.4121 10.9222C13.5253 10.9222 13.6374 10.8999 13.7421 10.8565C13.8467 10.8132 13.9417 10.7497 14.0218 10.6696C14.1019 10.5896 14.1654 10.4945 14.2087 10.3899C14.2521 10.2853 14.2744 10.1731 14.2744 10.0599C14.2744 9.94667 14.2521 9.83455 14.2087 9.72993C14.1654 9.62531 14.1019 9.53026 14.0218 9.45019C13.9417 9.37012 13.8467 9.3066 13.7421 9.26327C13.6374 9.21994 13.5253 9.19763 13.4121 9.19763C13.2988 9.19763 13.1867 9.21994 13.0821 9.26327C12.9775 9.3066 12.8824 9.37012 12.8024 9.45019C12.7223 9.53026 12.6588 9.62531 12.6154 9.72993C12.5721 9.83455 12.5498 9.94667 12.5498 10.0599Z" fill="#2488FF"/>
        <path d="M15.0654 10.0599C15.0654 10.2886 15.1563 10.5079 15.318 10.6696C15.4797 10.8313 15.699 10.9222 15.9277 10.9222C16.1564 10.9222 16.3757 10.8313 16.5374 10.6696C16.6991 10.5079 16.79 10.2886 16.79 10.0599C16.79 9.83122 16.6991 9.61189 16.5374 9.45019C16.3757 9.28848 16.1564 9.19763 15.9277 9.19763C15.699 9.19763 15.4797 9.28848 15.318 9.45019C15.1563 9.61189 15.0654 9.83122 15.0654 10.0599Z" fill="#2488FF"/>
        <path d="M17.5801 9.98796C17.5801 10.2357 17.6709 10.4733 17.8326 10.6485C17.9943 10.8237 18.2137 10.9221 18.4424 10.9221C18.671 10.9221 18.8904 10.8237 19.0521 10.6485C19.2138 10.4733 19.3046 10.2357 19.3046 9.98796C19.3046 9.74022 19.2138 9.50262 19.0521 9.32743C18.8904 9.15225 18.671 9.05383 18.4424 9.05383C18.2137 9.05383 17.9943 9.15225 17.8326 9.32743C17.6709 9.50262 17.5801 9.74022 17.5801 9.98796Z" fill="#2488FF"/>
        <path d="M12.4062 17.5329C12.4062 18.2878 12.5549 19.0353 12.8438 19.7328C13.1327 20.4302 13.5561 21.0639 14.0899 21.5977C14.6237 22.1315 15.2575 22.555 15.9549 22.8439C16.6523 23.1327 17.3998 23.2814 18.1548 23.2814C18.9097 23.2814 19.6572 23.1327 20.3546 22.8439C21.052 22.555 21.6858 22.1315 22.2196 21.5977C22.7534 21.0639 23.1768 20.4302 23.4657 19.7328C23.7546 19.0353 23.9033 18.2878 23.9033 17.5329C23.9033 16.0083 23.2976 14.5462 22.2196 13.4681C21.1415 12.3901 19.6794 11.7844 18.1548 11.7844C16.6302 11.7844 15.168 12.3901 14.0899 13.4681C13.0119 14.5462 12.4063 16.0083 12.4062 17.5329Z" fill="#EA421B"/>
        <path d="M18.155 24C16.5023 24 14.8496 23.3533 13.5561 22.1317C11.0412 19.6168 11.0412 15.5209 13.5561 13.006C16.0711 10.491 20.1669 10.491 22.6819 13.006C25.1969 15.5209 25.1969 19.6168 22.6819 22.1317C21.4603 23.3533 19.8076 24 18.155 24ZM18.155 12.503C16.8615 12.503 15.5681 13.006 14.634 13.9401C12.6939 15.8802 12.6939 19.1138 14.634 21.0539C16.5741 22.994 19.8076 22.994 21.7478 21.0539C23.6879 19.1138 23.6879 15.8802 21.7478 13.9401C20.6699 13.006 19.3765 12.503 18.155 12.503Z" fill="white"/>
        <path d="M20.2389 18.2515H15.9275C15.4964 18.2515 15.209 17.964 15.209 17.5329C15.209 17.1018 15.4964 16.8143 15.9275 16.8143H20.2389C20.6701 16.8143 20.9575 17.1018 20.9575 17.5329C20.9575 17.964 20.5982 18.2515 20.2389 18.2515Z" fill="white"/>
    </g>
    <defs>
        <clipPath id="clip0_729_10092">
            <rect width="24" height="24" fill="white" transform="translate(0.666992)"/>
        </clipPath>
    </defs>
</svg>
