<svg width="24" height="24" viewBox="0 0 24 24" fill="none" xmlns="http://www.w3.org/2000/svg">
    <path d="M9.83899 19.2476C9.95337 19.3343 10.0267 19.4585 10.1146 19.5668C10.3816 19.8954 10.6884 20.1822 11.0125 20.4499C11.4538 20.8144 11.9364 21.1181 12.456 21.3595C13.0452 21.6333 13.6586 21.8273 14.3015 21.9337C14.7986 22.016 15.2981 22.0469 15.7989 22.0242C16.2051 22.0057 16.6082 21.9483 17.0064 21.8583C17.5898 21.7263 18.1476 21.5257 18.6784 21.2515C19.1652 21.0002 19.615 20.6948 20.0303 20.3358C20.5537 19.8832 21.0074 19.3722 21.3803 18.7901C21.8723 18.022 22.2039 17.19 22.3673 16.2921C22.412 16.0465 22.4526 15.8001 22.4664 15.5501C22.4674 15.532 22.4814 15.5144 22.4896 15.4969V16.2522C22.4139 16.4358 22.3975 16.634 22.3466 16.8241C22.1596 17.5216 21.8732 18.1744 21.4916 18.7872C21.16 19.3197 20.7653 19.8002 20.3055 20.2242C19.8705 20.6252 19.3926 20.9695 18.872 21.2552C18.3365 21.5491 17.7728 21.768 17.1813 21.915C16.8487 21.9975 16.5109 22.049 16.1685 22.0816C15.9269 22.1046 15.6829 22.1215 15.4436 22.1187C14.4285 22.1062 13.4472 21.9225 12.5174 21.4922C11.8769 21.1957 11.2938 20.8186 10.7629 20.3552C10.4233 20.0585 10.116 19.7332 9.83594 19.3802C9.80407 19.3399 9.79587 19.2926 9.76985 19.2522C9.79165 19.2274 9.81508 19.2323 9.83899 19.2476ZM6.16235 17.8872C6.49844 18.164 6.86173 18.3998 7.24024 18.6136C7.15305 18.6588 7.07735 18.6497 7.01641 18.5674C7.00915 18.5578 7.00352 18.5416 6.99438 18.5395C6.87462 18.5105 6.80102 18.4054 6.70235 18.3541C6.52634 18.2622 6.37446 18.1411 6.21204 18.0323C6.15391 17.9934 6.14712 17.9465 6.16235 17.8872ZM2.94157 18.2015C2.77282 18.4697 2.77352 18.7378 2.94157 19.0057C2.8061 18.9715 2.7168 18.7849 2.78102 18.6619C2.79977 18.626 2.80469 18.5953 2.7904 18.5597C2.74985 18.4601 2.79837 18.2735 2.88344 18.2126C2.89821 18.2025 2.92188 18.2051 2.94157 18.2015ZM4.36634 15.2264C4.43618 15.4059 4.50602 15.5854 4.57563 15.765C4.52665 15.7664 4.47532 15.7685 4.45587 15.7101C4.41016 15.5735 4.3668 15.4359 4.32251 15.2988C4.30938 15.2576 4.33587 15.2409 4.36634 15.2264ZM7.38227 18.6912C7.56204 18.7467 7.73008 18.8313 7.90282 18.904C7.84751 18.9351 7.7936 18.9363 7.73149 18.9159C7.64571 18.8876 7.57305 18.8306 7.48001 18.8165C7.42118 18.8076 7.40313 18.7427 7.38227 18.6912ZM3.62969 19.2272C3.78602 19.1742 3.9018 19.064 4.01805 18.9541C4.00962 19.1187 3.89782 19.2012 3.76634 19.2633C3.71759 19.2862 3.66251 19.2865 3.62969 19.2272ZM4.14274 14.3006C4.18118 14.4797 4.21962 14.6587 4.25782 14.838C4.11555 14.7302 4.06587 14.4982 4.14274 14.3006ZM4.06798 12.8667C4.10501 12.8883 4.0893 12.9246 4.0893 12.9541C4.09024 13.2087 4.0893 13.4634 4.08884 13.7179C3.98946 13.6915 3.95337 13.5926 4.02579 13.5143C4.06493 13.4721 4.06798 13.4322 4.06798 13.3847V12.8667ZM4.60587 15.8372L4.7929 16.2035C4.63165 16.2007 4.62626 16.0533 4.56813 15.9569C4.54048 15.9108 4.55079 15.8637 4.60587 15.8372ZM4.26438 14.8835C4.29462 14.9819 4.32485 15.0804 4.35509 15.179C4.20415 15.0921 4.1943 15.0605 4.26438 14.8835ZM7.94243 18.914L8.19415 19.0019C8.06032 19.0856 7.97805 19.057 7.94243 18.914ZM3.16634 19.1812C3.23149 19.203 3.29688 19.2248 3.36204 19.2466C3.35126 19.3153 3.30813 19.312 3.25469 19.2996C3.18954 19.2841 3.15649 19.2501 3.16634 19.1812ZM5.9929 17.744C6.05829 17.7804 6.10891 17.834 6.16094 17.8861C6.02173 17.9198 5.99759 17.8994 5.9929 17.744ZM8.23469 19.0104C8.30852 19.0326 8.38235 19.0549 8.45641 19.0772C8.28391 19.1346 8.2654 19.129 8.23469 19.0104ZM8.79532 19.1512C8.88883 19.1573 8.98118 19.17 9.07094 19.1983C9.0086 19.2382 8.93829 19.219 8.87149 19.2237C8.82321 19.2269 8.79813 19.199 8.79532 19.1512Z" fill="#FEFEFE"/>
    <path d="M8.45501 19.0761C8.53095 19.0805 8.60337 19.0983 8.67345 19.1276C8.60618 19.2022 8.56142 19.1916 8.45501 19.0761ZM9.33134 19.227C9.39954 19.2265 9.46868 19.2165 9.53384 19.2469C9.46447 19.261 9.38196 19.4061 9.33134 19.227ZM4.0947 13.8814C4.12564 13.9463 4.11462 14.0154 4.11579 14.0836C3.94845 14.0328 4.07665 13.9515 4.0947 13.8814ZM4.12001 14.1261C4.14954 14.1816 4.1397 14.2423 4.14392 14.3014C4.03329 14.2524 4.02978 14.2264 4.12001 14.1261ZM1.89907 12.7981L2.10298 12.8621C2.06806 12.871 2.03361 12.882 1.99821 12.8881C1.92861 12.9 1.88876 12.8759 1.89907 12.7981ZM3.01986 19.0857C3.06111 19.1145 3.10236 19.1436 3.14337 19.1724C3.12064 19.2043 3.09298 19.2235 3.05314 19.2029C3.00134 19.1759 3.02642 19.1262 3.01986 19.0857ZM9.11197 19.2022C9.15415 19.201 9.19681 19.1947 9.23525 19.2195C9.23173 19.2694 9.19868 19.2762 9.15814 19.2729C9.1122 19.2692 9.11314 19.2352 9.11197 19.2022Z" fill="#FEFEFE"/>
    <path d="M9.83966 19.2476C9.81669 19.249 9.79373 19.2502 9.77052 19.2516C9.69177 19.25 9.61302 19.2483 9.53451 19.2469C9.46841 19.2254 9.39412 19.2884 9.33201 19.227L9.23591 19.2193C9.19185 19.234 9.15013 19.2338 9.11263 19.2019C9.0988 19.2008 9.08521 19.1993 9.07138 19.1982C8.97974 19.1818 8.87896 19.2172 8.79576 19.1511C8.75521 19.1433 8.71443 19.1354 8.67388 19.1276C8.59044 19.1555 8.52459 19.1089 8.45544 19.0761L8.45685 19.0772C8.37974 19.0655 8.29513 19.0791 8.23513 19.0104L8.19435 19.002C8.10154 18.9978 8.0099 18.991 7.94263 18.9141C7.92951 18.9108 7.91638 18.9075 7.90326 18.904C7.71248 18.8752 7.54396 18.792 7.38271 18.6912C7.33537 18.6654 7.28802 18.6394 7.24068 18.6136C7.08412 18.5778 6.95591 18.4843 6.8263 18.3992C6.64162 18.2785 6.45318 18.1625 6.28349 18.0193C6.23685 17.9799 6.19091 17.9424 6.16279 17.8873L6.16138 17.8861C6.0824 17.8662 6.03224 17.8118 5.99334 17.7441C5.88669 17.6396 5.77771 17.5369 5.67412 17.4293C5.63193 17.3855 5.60943 17.3705 5.55341 17.4204C5.38115 17.5742 5.22388 17.7422 5.06076 17.9049C4.71154 18.2527 4.3656 18.6043 4.01849 18.9542C3.92849 19.1014 3.81482 19.2148 3.63013 19.2272C3.54177 19.2455 3.45224 19.2479 3.36248 19.2467C3.28584 19.2589 3.2181 19.2448 3.16677 19.1813C3.15927 19.1783 3.15177 19.1754 3.14404 19.1724C3.07724 19.1799 3.05287 19.1269 3.02052 19.0857L2.94224 19.006C2.83162 18.9129 2.78193 18.7976 2.81146 18.6525C2.82974 18.5625 2.7763 18.473 2.82154 18.3786C2.85365 18.3115 2.88271 18.248 2.94224 18.2018C3.54857 17.5939 4.15373 16.9847 4.76263 16.3793C4.82146 16.321 4.84021 16.2727 4.7938 16.2038C4.70287 16.0962 4.62365 15.9828 4.60677 15.8375L4.57654 15.765C4.53177 15.7388 4.50951 15.6957 4.49638 15.6486C4.45677 15.5068 4.36045 15.3823 4.36724 15.2265L4.35599 15.1791C4.28779 15.0922 4.26834 14.9904 4.26529 14.8836C4.26318 14.8683 4.26107 14.8531 4.25873 14.8379C4.15982 14.6717 4.14904 14.4868 4.14365 14.3004L4.14482 14.3011C4.08599 14.2496 4.12841 14.1844 4.12091 14.1258L4.11669 14.0834C4.05365 14.0218 4.1174 13.947 4.0956 13.8811C4.09349 13.8268 4.09162 13.7722 4.08951 13.7178C4.04685 13.6601 4.05505 13.5964 4.06419 13.531C4.09466 13.3097 4.08716 13.0882 4.06865 12.8665C3.66834 12.8642 3.26826 12.8609 2.86794 12.8597C2.61318 12.859 2.35865 12.8611 2.10388 12.8621C2.03334 12.8492 1.9499 12.8766 1.89998 12.7981C1.89201 12.7953 1.88404 12.7927 1.8763 12.7899C1.57513 12.5693 1.47271 12.3132 1.56716 12.0183C1.65154 11.7551 1.89412 11.5747 2.17279 11.574C2.77373 11.5723 3.3749 11.5709 3.97584 11.5756C4.07404 11.5763 4.0956 11.5472 4.09537 11.4537C4.09209 10.5521 4.09209 9.65067 4.09513 8.74903C4.09537 8.66091 4.06982 8.59739 4.01099 8.53317C3.54224 8.02106 3.07607 7.50637 2.61084 6.99122C2.36451 6.71841 2.37552 6.32606 2.6324 6.08302C2.88763 5.84161 3.28091 5.85122 3.54201 6.10997C3.94007 6.50448 4.33609 6.90105 4.73005 7.29966C4.78584 7.35614 4.84162 7.37934 4.92107 7.37934C8.68162 7.37747 12.4424 7.3777 16.2029 7.37934C16.2819 7.37934 16.3382 7.35755 16.3944 7.30083C16.7882 6.90192 17.1845 6.50583 17.5815 6.1102C17.8614 5.8313 18.2561 5.81981 18.5146 6.08044C18.7705 6.33872 18.7579 6.73716 18.4818 7.01606C18.0965 7.40559 17.7093 7.79348 17.323 8.18208C17.278 8.22637 17.2293 8.19427 17.1861 8.18325C16.5489 8.02341 15.902 7.94841 15.2458 7.97184C13.7952 8.02317 12.4804 8.47387 11.3043 9.32653C11.2726 9.3495 11.2471 9.38466 11.1897 9.387V8.36817C11.1897 8.16239 11.1897 8.16239 10.9858 8.16239C10.6731 8.16239 10.3604 8.16684 10.0478 8.15981C9.94349 8.15747 9.91068 8.18044 9.91162 8.29177C9.91724 9.05114 9.91373 9.81028 9.91584 10.5697C9.91607 10.6425 9.89709 10.699 9.85255 10.7581C9.13912 11.7015 8.67951 12.7575 8.51029 13.9271C8.23443 15.8318 8.65677 17.5749 9.77779 19.1445C9.80052 19.1773 9.81904 19.2134 9.83966 19.2476Z" fill="#FE5F5F"/>
    <path d="M10.4898 6.45278C8.83302 6.45278 7.17599 6.45208 5.51919 6.45466C5.41489 6.45489 5.37013 6.44036 5.37903 6.31802C5.4763 4.97927 6.01091 3.8463 6.98169 2.9238C7.75396 2.18974 8.67552 1.73716 9.72903 1.59185C11.3188 1.37271 12.7295 1.79505 13.9255 2.87224C14.8712 3.72396 15.4037 4.79786 15.5654 6.05786C15.5697 6.08997 15.572 6.12255 15.5722 6.15513C15.5722 6.25075 15.639 6.37146 15.5725 6.43427C15.5101 6.49333 15.3864 6.45185 15.2898 6.45185C13.6897 6.45325 12.0899 6.45278 10.4898 6.45278ZM15.46 9.24935C12.276 9.24841 9.70724 11.83 9.70653 14.9965C9.70583 18.1718 12.2622 20.7438 15.4597 20.7476C18.651 20.7492 21.2017 18.1474 21.2052 15.0086C21.2087 11.808 18.5908 9.25005 15.46 9.24935ZM15.8528 18.6724C15.4797 18.6698 15.1065 18.6696 14.7336 18.6724C14.6624 18.6729 14.6453 18.6457 14.6458 18.5796C14.6481 18.2065 14.6479 17.8333 14.646 17.4604C14.6458 17.3988 14.6636 17.3749 14.7287 17.3754C15.1058 17.3779 15.4829 17.3779 15.8601 17.3756C15.9257 17.3751 15.943 17.4011 15.9421 17.4618C15.9395 17.6484 15.9411 17.835 15.9411 18.0215C15.9411 18.2081 15.9388 18.3947 15.9423 18.5812C15.9435 18.6485 15.9222 18.6729 15.8528 18.6724ZM17.5363 14.572C17.3249 14.9041 17.0516 15.1797 16.7605 15.4411C16.5215 15.6553 16.2854 15.8737 16.1704 16.1875C16.1167 16.3336 16.0822 16.4829 16.0834 16.6383C16.0839 16.7111 16.0611 16.7379 15.9857 16.7358C15.8071 16.7311 15.6285 16.7341 15.4497 16.7341C15.2751 16.7341 15.1004 16.7346 14.9258 16.7336C14.8869 16.7334 14.8424 16.744 14.8398 16.679C14.8204 16.2222 14.8513 15.7781 15.1307 15.3879C15.2814 15.1772 15.4658 15.003 15.6768 14.8551C15.8795 14.7131 16.0839 14.5739 16.2808 14.4234C16.6574 14.1358 16.7104 13.6795 16.6037 13.3029C16.5252 13.0258 16.3049 12.8751 16.0438 12.7886C15.6594 12.6614 15.2692 12.6337 14.8918 12.8048C14.5002 12.9822 14.2935 13.3038 14.2536 13.7278C14.2438 13.8335 14.214 13.8633 14.109 13.86C13.7886 13.8499 13.4678 13.8478 13.1472 13.8501C13.0567 13.8508 13.0286 13.8272 13.0325 13.7343C13.0698 12.8536 13.4767 12.2097 14.2799 11.8453C14.9434 11.5443 15.6468 11.4506 16.3583 11.6294C17.0882 11.8127 17.6422 12.2339 17.8375 12.9923C17.9814 13.552 17.8464 14.085 17.5363 14.572Z" fill="#FE5F5F"/>
</svg>
