<svg width="25" height="24" viewBox="0 0 25 24" fill="none" xmlns="http://www.w3.org/2000/svg">
    <path d="M13.8615 0.392948L22.0545 4.92745C22.5132 5.17485 22.8971 5.54091 23.1659 5.98736C23.4348 6.43382 23.5788 6.9443 23.583 7.46545V16.5344C23.5788 17.0556 23.4348 17.5661 23.1659 18.0125C22.8971 18.459 22.5132 18.825 22.0545 19.0725L13.863 23.6069C13.3947 23.8646 12.869 23.9997 12.3345 23.9997C11.8001 23.9997 11.2743 23.8646 10.806 23.6069L2.61301 19.0725C2.15402 18.8252 1.76988 18.4593 1.50073 18.0128C1.23158 17.5663 1.08731 17.0558 1.08301 16.5344V7.46545C1.08717 6.9443 1.23121 6.43382 1.50008 5.98736C1.76896 5.54091 2.1528 5.17485 2.61151 4.92745L10.803 0.392948C11.2713 0.135329 11.7971 0.000244141 12.3315 0.000244141C12.866 0.000244141 13.3917 0.135329 13.86 0.392948H13.8615Z" fill="#12B01C"/>
    <path d="M17.8306 7.99498C18.0855 7.8686 18.3789 7.84352 18.6516 7.9248C18.9243 8.00608 19.156 8.18767 19.3002 8.43299C19.4443 8.67832 19.4902 8.96916 19.4285 9.24693C19.3668 9.52471 19.2021 9.76877 18.9676 9.92998L18.8356 10.005L12.8356 13.005C12.5807 13.1314 12.2873 13.1564 12.0146 13.0752C11.7419 12.9939 11.5101 12.8123 11.366 12.567C11.2218 12.3216 11.176 12.0308 11.2377 11.753C11.2994 11.4752 11.4641 11.2312 11.6986 11.07L11.8306 10.995L17.8306 7.99498Z" fill="white"/>
    <path d="M6.83559 7.99498C6.58065 7.8686 6.28729 7.84352 6.0146 7.9248C5.74191 8.00608 5.51015 8.18767 5.36599 8.43299C5.22184 8.67832 5.176 8.96916 5.23772 9.24693C5.29944 9.52471 5.46412 9.76877 5.69859 9.92998L5.83059 10.005L11.8306 13.005C12.0855 13.1314 12.3789 13.1564 12.6516 13.0752C12.9243 12.9939 13.156 12.8123 13.3002 12.567C13.4443 12.3216 13.4902 12.0308 13.4285 11.753C13.3667 11.4752 13.2021 11.2312 12.9676 11.07L12.8356 10.995L6.83559 7.99498Z" fill="white"/>
    <path d="M12.333 10.875C12.6049 10.875 12.8675 10.9735 13.0724 11.1522C13.2773 11.3308 13.4105 11.5777 13.4475 11.847L13.458 12V18C13.4579 18.285 13.3496 18.5594 13.155 18.7677C12.9605 18.976 12.6941 19.1026 12.4097 19.122C12.1253 19.1415 11.8442 19.0522 11.6231 18.8724C11.4019 18.6925 11.2574 18.4354 11.2185 18.153L11.208 18V12C11.208 11.7016 11.3265 11.4155 11.5375 11.2045C11.7485 10.9935 12.0346 10.875 12.333 10.875Z" fill="white"/>
</svg>
