<svg width="40" height="40" viewBox="0 0 40 40" fill="none" xmlns="http://www.w3.org/2000/svg">
    <path d="M7.75 4C7.75 2.20508 9.20508 0.75 11 0.75H27C27.1212 0.75 27.2375 0.798159 27.3232 0.883885L38.1161 11.6768C38.2018 11.7625 38.25 11.8788 38.25 12V36C38.25 37.7949 36.7949 39.25 35 39.25H11C9.20507 39.25 7.75 37.7949 7.75 36V4Z" fill="white" stroke="#D0D5DD" stroke-width="1.5"/>
    <path d="M27 0.5V8C27 10.2091 28.7909 12 31 12H38.5" stroke="#D0D5DD" stroke-width="1.5"/>
    <rect y="18" width="28" height="16" rx="2" fill="#444CE7"/>
    <path d="M7.81081 24.8189C7.7824 24.5324 7.66048 24.3099 7.44505 24.1513C7.22961 23.9927 6.93723 23.9134 6.56792 23.9134C6.31697 23.9134 6.10508 23.9489 5.93226 24.0199C5.75944 24.0885 5.62686 24.1844 5.53453 24.3075C5.44457 24.4306 5.39959 24.5703 5.39959 24.7266C5.39486 24.8568 5.42208 24.9704 5.48127 25.0675C5.54282 25.1645 5.62686 25.2486 5.7334 25.3196C5.83993 25.3883 5.96304 25.4486 6.10272 25.5007C6.24239 25.5504 6.39154 25.593 6.55016 25.6286L7.20357 25.7848C7.5208 25.8558 7.812 25.9505 8.07715 26.0689C8.3423 26.1873 8.57194 26.3329 8.76607 26.5057C8.9602 26.6785 9.11053 26.8821 9.21706 27.1165C9.32597 27.3509 9.3816 27.6196 9.38397 27.9226C9.3816 28.3677 9.26796 28.7536 9.04306 29.0803C8.82052 29.4046 8.49855 29.6567 8.07715 29.8366C7.65811 30.0142 7.15267 30.103 6.56081 30.103C5.97369 30.103 5.46233 30.013 5.02672 29.8331C4.59348 29.6532 4.25494 29.3868 4.0111 29.0341C3.76962 28.679 3.64296 28.2398 3.63113 27.7166H5.11905C5.13562 27.9605 5.20546 28.1641 5.32857 28.3274C5.45404 28.4884 5.62095 28.6103 5.82928 28.6932C6.03998 28.7737 6.27791 28.8139 6.54306 28.8139C6.80347 28.8139 7.02956 28.776 7.22132 28.7003C7.41545 28.6245 7.56578 28.5192 7.67232 28.3842C7.77885 28.2493 7.83212 28.0942 7.83212 27.919C7.83212 27.7557 7.78359 27.6184 7.68652 27.5071C7.59183 27.3958 7.45215 27.3011 7.26749 27.223C7.0852 27.1449 6.86148 27.0739 6.59632 27.0099L5.80442 26.8111C5.19126 26.6619 4.70712 26.4287 4.35201 26.1115C3.99689 25.7943 3.82052 25.367 3.82289 24.8295C3.82052 24.3892 3.93771 24.0045 4.17445 23.6754C4.41356 23.3464 4.74145 23.0895 5.15811 22.9048C5.57478 22.7202 6.04827 22.6278 6.57857 22.6278C7.11834 22.6278 7.58946 22.7202 7.99192 22.9048C8.39675 23.0895 8.71162 23.3464 8.93652 23.6754C9.16143 24.0045 9.27743 24.3857 9.28453 24.8189H7.81081ZM10.4182 30V22.7273H11.9559V25.728H15.0773V22.7273H16.6114V30H15.0773V26.9957H11.9559V30H10.4182Z" fill="white"/>
    <path d="M24.2961 25.2734H22.7407C22.7123 25.0722 22.6543 24.8935 22.5667 24.7372C22.4791 24.5786 22.3666 24.4437 22.2293 24.3324C22.092 24.2211 21.9334 24.1359 21.7535 24.0767C21.5759 24.0175 21.383 23.9879 21.1746 23.9879C20.7982 23.9879 20.4703 24.0814 20.191 24.2685C19.9116 24.4531 19.695 24.723 19.5411 25.0781C19.3872 25.4309 19.3103 25.8594 19.3103 26.3636C19.3103 26.8821 19.3872 27.3177 19.5411 27.6705C19.6974 28.0232 19.9152 28.2895 20.1945 28.4695C20.4739 28.6494 20.797 28.7393 21.164 28.7393C21.3699 28.7393 21.5605 28.7121 21.7357 28.6577C21.9133 28.6032 22.0707 28.5239 22.208 28.4197C22.3453 28.3132 22.459 28.1842 22.5489 28.0327C22.6412 27.8812 22.7052 27.7083 22.7407 27.5142L24.2961 27.5213C24.2558 27.8551 24.1552 28.1771 23.9942 28.4872C23.8356 28.795 23.6214 29.0708 23.3515 29.3146C23.084 29.5561 22.7644 29.7479 22.3927 29.8899C22.0233 30.0296 21.6055 30.0994 21.1391 30.0994C20.4904 30.0994 19.9104 29.9527 19.3991 29.6591C18.8901 29.3655 18.4876 28.9406 18.1917 28.3842C17.8981 27.8279 17.7513 27.1544 17.7513 26.3636C17.7513 25.5705 17.9005 24.8958 18.1988 24.3395C18.4971 23.7831 18.9019 23.3594 19.4133 23.0682C19.9246 22.7746 20.4999 22.6278 21.1391 22.6278C21.5605 22.6278 21.9511 22.687 22.311 22.8054C22.6732 22.9238 22.994 23.0966 23.2733 23.3239C23.5527 23.5488 23.78 23.8246 23.9552 24.1513C24.1327 24.478 24.2464 24.852 24.2961 25.2734Z" fill="#444CE7"/>
</svg>
