<svg width="44" height="40" viewBox="0 0 44 40" fill="none" xmlns="http://www.w3.org/2000/svg">
    <path d="M11.75 4C11.75 2.20508 13.2051 0.75 15 0.75H31C31.1212 0.75 31.2375 0.798159 31.3232 0.883885L42.1161 11.6768C42.2018 11.7625 42.25 11.8788 42.25 12V36C42.25 37.7949 40.7949 39.25 39 39.25H15C13.2051 39.25 11.75 37.7949 11.75 36V4Z" fill="white" stroke="#D0D5DD" stroke-width="1.5"/>
    <path d="M31 0.5V8C31 10.2091 32.7909 12 35 12H42.5" stroke="#D0D5DD" stroke-width="1.5"/>
    <rect y="18" width="36" height="16" rx="2" fill="#444CE7"/>
    <path d="M8.2397 26.1009L6.85476 26.1861C6.83108 26.0677 6.78018 25.9612 6.70206 25.8665C6.62393 25.7694 6.52095 25.6925 6.39311 25.6357C6.26764 25.5765 6.11731 25.5469 5.94212 25.5469C5.70774 25.5469 5.51006 25.5966 5.34908 25.696C5.18809 25.7931 5.1076 25.9233 5.1076 26.0866C5.1076 26.2169 5.15968 26.3269 5.26385 26.4169C5.36802 26.5069 5.54676 26.5791 5.80007 26.6335L6.78729 26.8324C7.31759 26.9413 7.71295 27.1165 7.97337 27.358C8.23378 27.5994 8.36399 27.9167 8.36399 28.3097C8.36399 28.6671 8.25864 28.9808 8.04794 29.2507C7.83961 29.5206 7.55315 29.7313 7.18857 29.8828C6.82635 30.032 6.4085 30.1065 5.93501 30.1065C5.21295 30.1065 4.63767 29.9562 4.20916 29.6555C3.78303 29.3525 3.53326 28.9406 3.45987 28.4197L4.9478 28.3416C4.99278 28.5618 5.10168 28.7299 5.2745 28.8459C5.44732 28.9595 5.66868 29.0163 5.93857 29.0163C6.20372 29.0163 6.41679 28.9654 6.57777 28.8636C6.74112 28.7595 6.82398 28.6257 6.82635 28.4624C6.82398 28.325 6.76598 28.2126 6.65234 28.125C6.53871 28.035 6.36352 27.9664 6.12678 27.919L5.18217 27.7308C4.6495 27.6243 4.25296 27.4396 3.99254 27.1768C3.73449 26.9141 3.60547 26.5791 3.60547 26.1719C3.60547 25.8215 3.70017 25.5196 3.88956 25.2663C4.08132 25.013 4.35002 24.8177 4.69567 24.6804C5.04368 24.5431 5.45088 24.4744 5.91726 24.4744C6.60618 24.4744 7.14832 24.62 7.54368 24.9112C7.94141 25.2024 8.17341 25.599 8.2397 26.1009ZM14.4018 24.5455L12.4949 30H10.7903L8.88335 24.5455H10.4814L11.6142 28.4482H11.671L12.8002 24.5455H14.4018ZM17.486 30.1065C16.9249 30.1065 16.4419 29.9929 16.0371 29.7656C15.6346 29.536 15.3245 29.2116 15.1067 28.7926C14.8889 28.3712 14.78 27.8729 14.78 27.2976C14.78 26.7365 14.8889 26.2441 15.1067 25.8203C15.3245 25.3965 15.6311 25.0663 16.0265 24.8295C16.4242 24.5928 16.8906 24.4744 17.4256 24.4744C17.7855 24.4744 18.1204 24.5324 18.4306 24.6484C18.7431 24.7621 19.0153 24.9337 19.2473 25.1634C19.4817 25.393 19.664 25.6818 19.7942 26.0298C19.9244 26.3755 19.9895 26.7803 19.9895 27.2443V27.6598H15.3837V26.7223H18.5655C18.5655 26.5045 18.5182 26.3116 18.4235 26.1435C18.3288 25.9754 18.1974 25.844 18.0293 25.7493C17.8636 25.6522 17.6706 25.6037 17.4505 25.6037C17.2208 25.6037 17.0172 25.657 16.8397 25.7635C16.6645 25.8677 16.5272 26.0085 16.4277 26.1861C16.3283 26.3613 16.2774 26.5566 16.275 26.772V27.6634C16.275 27.9332 16.3248 28.1664 16.4242 28.3629C16.526 28.5594 16.6692 28.7109 16.8539 28.8175C17.0385 28.924 17.2575 28.9773 17.5108 28.9773C17.6789 28.9773 17.8328 28.9536 17.9725 28.9062C18.1122 28.8589 18.2317 28.7879 18.3311 28.6932C18.4306 28.5985 18.5063 28.4825 18.5584 28.3452L19.9576 28.4375C19.8865 28.7737 19.7409 29.0672 19.5208 29.3182C19.303 29.5668 19.0212 29.7609 18.6756 29.9006C18.3323 30.0379 17.9358 30.1065 17.486 30.1065ZM22.4895 22.7273V30H20.9767V22.7273H22.4895ZM26.6026 24.5455V25.6818H23.3178V24.5455H26.6026ZM24.0636 23.2386H25.5763V28.3239C25.5763 28.4635 25.5977 28.5724 25.6403 28.6506C25.6829 28.7263 25.7421 28.7796 25.8178 28.8104C25.896 28.8411 25.9859 28.8565 26.0877 28.8565C26.1587 28.8565 26.2298 28.8506 26.3008 28.8388C26.3718 28.8246 26.4263 28.8139 26.4641 28.8068L26.7021 29.9325C26.6263 29.9562 26.5198 29.9834 26.3825 30.0142C26.2451 30.0473 26.0782 30.0675 25.8817 30.0746C25.5172 30.0888 25.1976 30.0402 24.9229 29.929C24.6507 29.8177 24.4388 29.6449 24.2873 29.4105C24.1358 29.1761 24.0612 28.8802 24.0636 28.5227V23.2386ZM30.0153 30.1065C29.4542 30.1065 28.9712 29.9929 28.5664 29.7656C28.1639 29.536 27.8538 29.2116 27.636 28.7926C27.4182 28.3712 27.3093 27.8729 27.3093 27.2976C27.3093 26.7365 27.4182 26.2441 27.636 25.8203C27.8538 25.3965 28.1604 25.0663 28.5558 24.8295C28.9535 24.5928 29.4199 24.4744 29.9549 24.4744C30.3147 24.4744 30.6497 24.5324 30.9599 24.6484C31.2724 24.7621 31.5446 24.9337 31.7766 25.1634C32.011 25.393 32.1933 25.6818 32.3235 26.0298C32.4537 26.3755 32.5188 26.7803 32.5188 27.2443V27.6598H27.913V26.7223H31.0948C31.0948 26.5045 31.0475 26.3116 30.9528 26.1435C30.8581 25.9754 30.7267 25.844 30.5586 25.7493C30.3929 25.6522 30.1999 25.6037 29.9798 25.6037C29.7501 25.6037 29.5465 25.657 29.369 25.7635C29.1938 25.8677 29.0565 26.0085 28.957 26.1861C28.8576 26.3613 28.8067 26.5566 28.8043 26.772V27.6634C28.8043 27.9332 28.854 28.1664 28.9535 28.3629C29.0553 28.5594 29.1985 28.7109 29.3832 28.8175C29.5678 28.924 29.7868 28.9773 30.0401 28.9773C30.2082 28.9773 30.3621 28.9536 30.5018 28.9062C30.6415 28.8589 30.761 28.7879 30.8604 28.6932C30.9599 28.5985 31.0356 28.4825 31.0877 28.3452L32.4869 28.4375C32.4158 28.7737 32.2702 29.0672 32.0501 29.3182C31.8323 29.5668 31.5505 29.7609 31.2049 29.9006C30.8616 30.0379 30.4651 30.1065 30.0153 30.1065Z" fill="white"/>
</svg>
