<svg width="20" height="20" viewBox="0 0 20 20" fill="none" xmlns="http://www.w3.org/2000/svg">
    <path d="M14.5832 9.16667H10.4165M14.5832 12.5H10.4165M14.5832 5.83333H10.4165M7.49988 2.5L7.49988 17.5M6.49988 2.5H13.4999C14.9 2.5 15.6001 2.5 16.1349 2.77248C16.6053 3.01217 16.9877 3.39462 17.2274 3.86502C17.4999 4.3998 17.4999 5.09987 17.4999 6.5V13.5C17.4999 14.9001 17.4999 15.6002 17.2274 16.135C16.9877 16.6054 16.6053 16.9878 16.1349 17.2275C15.6001 17.5 14.9 17.5 13.4999 17.5H6.49988C5.09975 17.5 4.39968 17.5 3.8649 17.2275C3.3945 16.9878 3.01205 16.6054 2.77236 16.135C2.49988 15.6002 2.49988 14.9001 2.49988 13.5V6.5C2.49988 5.09987 2.49988 4.3998 2.77236 3.86502C3.01205 3.39462 3.3945 3.01217 3.8649 2.77248C4.39968 2.5 5.09975 2.5 6.49988 2.5Z"
          stroke="#2E90FA" stroke-linecap="round" stroke-linejoin="round"/>
</svg>
