<svg width="40" height="40" viewBox="0 0 40 40" fill="none" xmlns="http://www.w3.org/2000/svg">
    <path d="M7.75 4C7.75 2.20508 9.20508 0.75 11 0.75H27C27.1212 0.75 27.2375 0.798159 27.3232 0.883885L38.1161 11.6768C38.2018 11.7625 38.25 11.8788 38.25 12V36C38.25 37.7949 36.7949 39.25 35 39.25H11C9.20507 39.25 7.75 37.7949 7.75 36V4Z" fill="white" stroke="#D0D5DD" stroke-width="1.5"/>
    <path d="M27 0.5V8C27 10.2091 28.7909 12 31 12H38.5" stroke="#D0D5DD" stroke-width="1.5"/>
    <rect x="1" y="18" width="26" height="16" rx="2" fill="#BA24D5"/>
    <path d="M4.43812 23.995V22.7273H10.4111V23.995H8.18457V30H6.66468V23.995H4.43812ZM11.7597 30H10.1119L12.6226 22.7273H14.6041L17.1112 30H15.4635L13.6418 24.3892H13.585L11.7597 30ZM11.6567 27.1413H15.5487V28.3416H11.6567V27.1413ZM17.9866 30V22.7273H20.8559C21.4052 22.7273 21.8739 22.8255 22.2622 23.022C22.6528 23.2161 22.9499 23.492 23.1535 23.8494C23.3595 24.2045 23.4624 24.6224 23.4624 25.103C23.4624 25.5859 23.3583 26.0014 23.1499 26.3494C22.9416 26.6951 22.6398 26.9602 22.2444 27.1449C21.8514 27.3295 21.3756 27.4219 20.8169 27.4219H18.8957V26.1861H20.5683C20.8618 26.1861 21.1057 26.1458 21.2998 26.0653C21.4939 25.9848 21.6383 25.8641 21.733 25.7031C21.8301 25.5421 21.8786 25.3421 21.8786 25.103C21.8786 24.8615 21.8301 24.6579 21.733 24.4922C21.6383 24.3265 21.4927 24.201 21.2963 24.1158C21.1021 24.0282 20.8571 23.9844 20.5612 23.9844H19.5242V30H17.9866ZM21.9142 26.6903L23.7217 30H22.0242L20.2558 26.6903H21.9142Z" fill="white"/>
</svg>
