<svg width="24" height="24" viewBox="0 0 24 24" fill="none" xmlns="http://www.w3.org/2000/svg">
    <path d="M4.69999 10.2H9.64999L6.44999 6.99999C6.54999 6.89999 6.59999 6.79999 6.59999 6.64999C6.59999 6.34999 6.34999 6.14999 6.09999 6.14999C5.99999 6.14999 5.89999 6.19999 5.79999 6.24999C5.89999 6.44999 5.99999 6.59999 6.14999 6.74999C5.99999 6.59999 5.84999 6.49999 5.64999 6.39999C5.39999 6.29999 5.09999 6.19999 4.79999 6.19999H4.69999C3.64999 6.24999 2.79999 7.14999 2.79999 8.19999C2.79999 9.29999 3.64999 10.15 4.69999 10.2Z" fill="#1E1E1E"/>
    <path d="M6.09999 7.20001C6.24999 7.20001 6.39999 7.15001 6.44999 7.05001C6.54999 6.95001 6.59999 6.85001 6.59999 6.70001C6.59999 6.40001 6.34999 6.20001 6.09999 6.20001C5.99999 6.20001 5.89999 6.25001 5.79999 6.30001C5.74999 6.30001 5.74999 6.35001 5.69999 6.35001C5.64999 6.40001 5.64999 6.40001 5.64999 6.45001C5.59999 6.55001 5.54999 6.60001 5.54999 6.75001C5.54999 6.95001 5.79999 7.20001 6.09999 7.20001Z" fill="#1E1E1E"/>
    <path d="M4.69999 10.2H9.64999L6.44999 6.99999C6.54999 6.89999 6.59999 6.79999 6.59999 6.64999C6.59999 6.34999 6.34999 6.14999 6.09999 6.14999C5.99999 6.14999 5.89999 6.19999 5.79999 6.24999C5.89999 6.44999 5.99999 6.59999 6.14999 6.74999C5.99999 6.59999 5.84999 6.49999 5.64999 6.39999C5.39999 6.29999 5.09999 6.19999 4.79999 6.19999H4.69999C3.64999 6.24999 2.79999 7.14999 2.79999 8.19999C2.79999 9.29999 3.64999 10.15 4.69999 10.2Z" fill="#83C5ED"/>
    <path d="M6.09999 7.20001C6.24999 7.20001 6.39999 7.15001 6.44999 7.05001C6.54999 6.95001 6.59999 6.85001 6.59999 6.70001C6.59999 6.40001 6.34999 6.20001 6.09999 6.20001C5.99999 6.20001 5.89999 6.25001 5.79999 6.30001C5.74999 6.30001 5.74999 6.35001 5.69999 6.35001C5.64999 6.40001 5.64999 6.40001 5.64999 6.45001C5.59999 6.55001 5.54999 6.60001 5.54999 6.75001C5.54999 6.95001 5.79999 7.20001 6.09999 7.20001Z" fill="#83C5ED"/>
    <path d="M9.64999 5.45001V10.3H4.69999C3.64999 10.25 2.79999 9.35001 2.79999 8.30001C2.79999 7.25001 3.64999 6.35001 4.69999 6.30001H4.79999C5.29999 6.30001 5.79999 6.50001 6.14999 6.80001C5.84999 6.45001 5.64999 6.00001 5.64999 5.45001V5.35001C5.69999 4.30001 6.59999 3.45001 7.64999 3.45001C8.69999 3.45001 9.59999 4.30001 9.64999 5.35001V5.45001Z" fill="#17B26A"/>
    <path d="M10.15 10.8H4.64999C3.34999 10.7 2.29999 9.65001 2.29999 8.30001C2.29999 6.95001 3.34999 5.90001 4.64999 5.80001H5.14999V5.45001V5.30001C5.24999 4.00001 6.29999 2.95001 7.64999 2.95001C8.99999 2.95001 10.1 4.00001 10.15 5.30001V10.8ZM4.79999 6.80001H4.69999C3.89999 6.85001 3.29999 7.50001 3.29999 8.30001C3.29999 9.10001 3.89999 9.75001 4.69999 9.80001H9.14999V5.45001V5.35001C9.09999 4.55001 8.44999 3.95001 7.64999 3.95001C6.84999 3.95001 6.19999 4.55001 6.14999 5.35001V5.45001C6.14999 5.80001 6.29999 6.20001 6.54999 6.45001L5.84999 7.15001C5.54999 6.90001 5.14999 6.80001 4.79999 6.80001Z" fill="#17B26A"/>
    <path d="M14.35 18.55V13.7H19.3C20.35 13.75 21.2 14.65 21.2 15.7C21.2 16.75 20.35 17.65 19.3 17.7H19.2C18.7 17.7 18.2 17.5 17.85 17.2C18.15 17.55 18.35 18 18.35 18.55V18.65C18.3 19.7 17.4 20.55 16.35 20.55C15.3 20.55 14.4 19.7 14.35 18.65V18.55Z" fill="#17B26A"/>
    <path d="M16.35 21.05C15 21.05 13.9 20 13.85 18.7V13.2H19.35C20.65 13.3 21.7 14.35 21.7 15.7C21.7 17.05 20.65 18.1 19.35 18.2H18.85V18.7C18.8 20 17.7 21.05 16.35 21.05ZM14.85 14.2V18.65C14.9 19.45 15.55 20.05 16.35 20.05C17.15 20.05 17.8 19.45 17.85 18.65V18.55C17.85 18.2 17.7 17.8 17.45 17.55L18.15 16.85C18.45 17.1 18.85 17.25 19.25 17.25C20.05 17.2 20.65 16.55 20.65 15.75C20.65 14.95 20.05 14.3 19.25 14.25H14.85V14.2Z" fill="#17B26A"/>
    <path d="M9.64999 18.55V13.7H4.69999C3.64999 13.75 2.79999 14.65 2.79999 15.7C2.79999 16.75 3.64999 17.65 4.69999 17.7H4.79999C5.29999 17.7 5.79999 17.5 6.14999 17.2C5.84999 17.55 5.64999 18 5.64999 18.55V18.65C5.69999 19.7 6.59999 20.55 7.64999 20.55C8.69999 20.55 9.59999 19.7 9.64999 18.65V18.55Z" fill="#17B26A"/>
    <path d="M7.64999 21.05C6.29999 21.05 5.24999 20 5.14999 18.7V18.55V18.2C4.99999 18.2 4.79999 18.25 4.64999 18.2C3.34999 18.1 2.29999 17.05 2.29999 15.7C2.29999 14.35 3.34999 13.25 4.64999 13.2H10.15V18.7C10.05 20 8.94999 21.05 7.64999 21.05ZM5.79999 16.85L6.49999 17.55C6.24999 17.85 6.09999 18.2 6.09999 18.55V18.65C6.14999 19.45 6.79999 20.05 7.59999 20.05C8.39999 20.05 9.04999 19.45 9.09999 18.65V14.2H4.69999C3.89999 14.25 3.29999 14.9 3.29999 15.7C3.29999 16.5 3.89999 17.15 4.69999 17.2H4.79999C5.14999 17.2 5.54999 17.1 5.79999 16.85Z" fill="#17B26A"/>
    <path d="M14.35 5.45001V10.3H19.3C20.35 10.25 21.2 9.35001 21.2 8.30001C21.2 7.25001 20.35 6.35001 19.3 6.30001H19.2C18.7 6.30001 18.2 6.50001 17.85 6.80001C18.15 6.45001 18.35 6.00001 18.35 5.45001V5.35001C18.3 4.30001 17.4 3.45001 16.35 3.45001C15.3 3.45001 14.4 4.30001 14.35 5.35001V5.45001Z" fill="#17B26A"/>
    <path d="M19.2 10.8H13.85V5.45001V5.30001C13.95 4.00001 15 2.95001 16.35 2.95001C17.7 2.95001 18.75 4.00001 18.85 5.30001V5.80001C19 5.80001 19.2 5.75001 19.35 5.80001C20.65 5.90001 21.7 6.95001 21.7 8.30001C21.7 9.65001 20.65 10.7 19.35 10.8H19.2ZM14.85 9.80001H19.3C20.1 9.75001 20.7 9.10001 20.7 8.30001C20.7 7.50001 20.1 6.85001 19.3 6.80001H19.2C18.85 6.80001 18.45 6.95001 18.2 7.20001L17.5 6.45001C17.75 6.15001 17.9 5.80001 17.9 5.45001V5.35001C17.85 4.55001 17.2 3.95001 16.4 3.95001C15.6 3.95001 14.95 4.55001 14.9 5.35001V9.80001H14.85Z" fill="#17B26A"/>
</svg>
