<svg width="24" height="24" viewBox="0 0 24 24" fill="none" xmlns="http://www.w3.org/2000/svg">
    <path d="M13.857 1C14.477 1 15.011 1.424 15.159 2.015L15.185 2.144L15.549 4.588L13.571 4.883L13.29 3H9.70899L9.42899 4.883L7.45099 4.588L7.81499 2.144C7.85902 1.84816 8.00062 1.57551 8.2173 1.36934C8.43398 1.16316 8.71333 1.03528 9.01099 1.006L9.14299 1H13.857Z" fill="#ADC6FF"/>
    <path d="M20 3.73438C20.2549 3.73466 20.5 3.83225 20.6854 4.00722C20.8707 4.18219 20.9822 4.42133 20.9972 4.67577C21.0121 4.93021 20.9293 5.18075 20.7657 5.37621C20.6021 5.57166 20.3701 5.69727 20.117 5.72738L20 5.73437H2.99999C2.74511 5.73409 2.49996 5.6365 2.31462 5.46153C2.12929 5.28656 2.01776 5.04742 2.00282 4.79298C1.98788 4.53854 2.07067 4.288 2.23426 4.09254C2.39785 3.89709 2.62989 3.77148 2.88299 3.74137L2.99999 3.73438H20ZM19.205 6.96937H3.79499L4.79999 20.8034C4.84345 21.4001 5.11118 21.9583 5.54936 22.3656C5.98754 22.773 6.56369 22.9994 7.16199 22.9994H15.838C17.079 22.9994 18.11 22.0414 18.2 20.8034L19.205 6.96937Z" fill="#ADC6FF"/>
    <path d="M5.94501 8.9707H17.054L16.204 20.6607C16.197 20.753 16.1554 20.8393 16.0875 20.9023C16.0197 20.9653 15.9306 21.0005 15.838 21.0007H7.16201L7.09201 20.9937C7.01271 20.9783 6.94067 20.9373 6.88699 20.877C6.83332 20.8166 6.801 20.7403 6.79501 20.6597L5.94501 8.9707Z" fill="#ADC6FF"/>
    <path d="M8.12 12.8563C8.12028 12.6014 8.21787 12.3563 8.39284 12.1709C8.56781 11.9856 8.80695 11.8741 9.06139 11.8591C9.31583 11.8442 9.56637 11.927 9.76183 12.0906C9.95728 12.2542 10.0829 12.4862 10.113 12.7393L10.12 12.8563V17.9563C10.1197 18.2112 10.0221 18.4563 9.84715 18.6417C9.67218 18.827 9.43304 18.9385 9.1786 18.9535C8.92416 18.9684 8.67362 18.8856 8.47816 18.722C8.28271 18.5585 8.1571 18.3264 8.127 18.0733L8.12 17.9563V12.8563ZM12.88 12.8563C12.8803 12.6014 12.9779 12.3563 13.1528 12.1709C13.3278 11.9856 13.5669 11.8741 13.8214 11.8591C14.0758 11.8442 14.3264 11.927 14.5218 12.0906C14.7173 12.2542 14.8429 12.4862 14.873 12.7393L14.88 12.8563V17.9563C14.8797 18.2112 14.7821 18.4563 14.6071 18.6417C14.4322 18.827 14.193 18.9385 13.9386 18.9535C13.6842 18.9684 13.4336 18.8856 13.2382 18.722C13.0427 18.5585 12.9171 18.3264 12.887 18.0733L12.88 17.9563V12.8563Z" fill="#2F54EB"/>
</svg>
