<svg width="40" height="40" viewBox="0 0 40 40" fill="none" xmlns="http://www.w3.org/2000/svg">
    <path d="M7.75 4C7.75 2.20508 9.20508 0.75 11 0.75H27C27.1212 0.75 27.2375 0.798159 27.3232 0.883885L38.1161 11.6768C38.2018 11.7625 38.25 11.8788 38.25 12V36C38.25 37.7949 36.7949 39.25 35 39.25H11C9.20507 39.25 7.75 37.7949 7.75 36V4Z" fill="white" stroke="#D0D5DD" stroke-width="1.5"/>
    <path d="M27 0.5V8C27 10.2091 28.7909 12 31 12H38.5" stroke="#D0D5DD" stroke-width="1.5"/>
    <rect x="0.5" y="18" width="27" height="16" rx="2" fill="#444CE7"/>
    <path d="M3.97914 23.995V22.7273H9.95215V23.995H7.72559V30H6.2057V23.995H3.97914ZM14.8811 24.8189C14.8527 24.5324 14.7308 24.3099 14.5154 24.1513C14.2999 23.9927 14.0075 23.9134 13.6382 23.9134C13.3873 23.9134 13.1754 23.9489 13.0026 24.0199C12.8298 24.0885 12.6972 24.1844 12.6048 24.3075C12.5149 24.4306 12.4699 24.5703 12.4699 24.7266C12.4652 24.8568 12.4924 24.9704 12.5516 25.0675C12.6131 25.1645 12.6972 25.2486 12.8037 25.3196C12.9102 25.3883 13.0334 25.4486 13.173 25.5007C13.3127 25.5504 13.4619 25.593 13.6205 25.6286L14.2739 25.7848C14.5911 25.8558 14.8823 25.9505 15.1475 26.0689C15.4126 26.1873 15.6423 26.3329 15.8364 26.5057C16.0305 26.6785 16.1808 26.8821 16.2874 27.1165C16.3963 27.3509 16.4519 27.6196 16.4543 27.9226C16.4519 28.3677 16.3383 28.7536 16.1134 29.0803C15.8908 29.4046 15.5689 29.6567 15.1475 29.8366C14.7284 30.0142 14.223 30.103 13.6311 30.103C13.044 30.103 12.5326 30.013 12.097 29.8331C11.6638 29.6532 11.3253 29.3868 11.0814 29.0341C10.8399 28.679 10.7133 28.2398 10.7014 27.7166H12.1894C12.2059 27.9605 12.2758 28.1641 12.3989 28.3274C12.5244 28.4884 12.6913 28.6103 12.8996 28.6932C13.1103 28.7737 13.3482 28.8139 13.6134 28.8139C13.8738 28.8139 14.0999 28.776 14.2916 28.7003C14.4858 28.6245 14.6361 28.5192 14.7426 28.3842C14.8492 28.2493 14.9024 28.0942 14.9024 27.919C14.9024 27.7557 14.8539 27.6184 14.7568 27.5071C14.6621 27.3958 14.5225 27.3011 14.3378 27.223C14.1555 27.1449 13.9318 27.0739 13.6666 27.0099L12.8747 26.8111C12.2616 26.6619 11.7774 26.4287 11.4223 26.1115C11.0672 25.7943 10.8908 25.367 10.8932 24.8295C10.8908 24.3892 11.008 24.0045 11.2448 23.6754C11.4839 23.3464 11.8118 23.0895 12.2284 22.9048C12.6451 22.7202 13.1186 22.6278 13.6489 22.6278C14.1887 22.6278 14.6598 22.7202 15.0622 22.9048C15.4671 23.0895 15.7819 23.3464 16.0068 23.6754C16.2317 24.0045 16.3477 24.3857 16.3548 24.8189H14.8811Z" fill="white"/>
    <path d="M23.9055 25.2734H22.3501C22.3216 25.0722 22.2636 24.8935 22.176 24.7372C22.0885 24.5786 21.976 24.4437 21.8387 24.3324C21.7014 24.2211 21.5428 24.1359 21.3628 24.0767C21.1853 24.0175 20.9923 23.9879 20.784 23.9879C20.4076 23.9879 20.0797 24.0814 19.8003 24.2685C19.521 24.4531 19.3044 24.723 19.1505 25.0781C18.9966 25.4309 18.9197 25.8594 18.9197 26.3636C18.9197 26.8821 18.9966 27.3177 19.1505 27.6705C19.3067 28.0232 19.5245 28.2895 19.8039 28.4695C20.0832 28.6494 20.4064 28.7393 20.7733 28.7393C20.9793 28.7393 21.1699 28.7121 21.3451 28.6577C21.5226 28.6032 21.6801 28.5239 21.8174 28.4197C21.9547 28.3132 22.0683 28.1842 22.1583 28.0327C22.2506 27.8812 22.3145 27.7083 22.3501 27.5142L23.9055 27.5213C23.8652 27.8551 23.7646 28.1771 23.6036 28.4872C23.445 28.795 23.2307 29.0708 22.9608 29.3146C22.6933 29.5561 22.3737 29.7479 22.002 29.8899C21.6327 30.0296 21.2149 30.0994 20.7485 30.0994C20.0998 30.0994 19.5198 29.9527 19.0084 29.6591C18.4994 29.3655 18.097 28.9406 17.801 28.3842C17.5075 27.8279 17.3607 27.1544 17.3607 26.3636C17.3607 25.5705 17.5099 24.8958 17.8081 24.3395C18.1064 23.7831 18.5113 23.3594 19.0226 23.0682C19.534 22.7746 20.1093 22.6278 20.7485 22.6278C21.1699 22.6278 21.5605 22.687 21.9204 22.8054C22.2826 22.9238 22.6034 23.0966 22.8827 23.3239C23.1621 23.5488 23.3894 23.8246 23.5645 24.1513C23.7421 24.478 23.8557 24.852 23.9055 25.2734Z" fill="#444CE7"/>
</svg>
