<svg width="20" height="20" viewBox="0 0 20 20" fill="none" xmlns="http://www.w3.org/2000/svg">
    <path d="M9.99996 1.66602C12.0844 3.94798 13.2689 6.90938 13.3333 9.99935C13.2689 13.0893 12.0844 16.0507 9.99996 18.3327M9.99996 1.66602C7.91556 3.94798 6.731 6.90938 6.66663 9.99935C6.731 13.0893 7.91556 16.0507 9.99996 18.3327M9.99996 1.66602C5.39759 1.66602 1.66663 5.39698 1.66663 9.99935C1.66663 14.6017 5.39759 18.3327 9.99996 18.3327M9.99996 1.66602C14.6023 1.66602 18.3333 5.39698 18.3333 9.99935C18.3333 14.6017 14.6023 18.3327 9.99996 18.3327M2.08331 7.49935H17.9166M2.08329 12.4993H17.9166" stroke="#667085" stroke-width="1.33" stroke-linecap="round" stroke-linejoin="round"/>
</svg>
