<svg width="23" height="24" viewBox="0 0 23 24" fill="none" xmlns="http://www.w3.org/2000/svg">
    <path d="M2.56642 8.82831C2.56642 8.82831 4.19829 3.82649 9.79898 2.88124C9.79898 2.88124 8.93994 4.11283 8.12093 6.07569C8.12093 6.07569 6.40593 5.88941 6.00258 7.6352C6.00258 7.6352 4.17058 7.96773 2.56642 8.82523V8.82831ZM6.04568 8.64203C6.04568 8.64203 3.68102 9.14083 2.16153 10.26C2.16153 10.26 1.37331 13.5838 3.27921 16.6905C3.27921 16.6905 5.24053 17.1185 7.21724 16.9184C7.21724 16.9184 7.20185 15.6868 8.007 15.071C8.007 15.071 7.0325 12.5647 7.2742 9.90134C7.2742 9.90134 6.27353 9.6581 6.04261 8.64203H6.04568ZM4.06897 17.8498C4.06897 17.8498 6.57527 21.717 12.3884 21.1874C12.3884 21.1874 10.3239 19.2276 9.89905 18.5949C9.89905 18.5949 8.27796 18.9967 7.72066 17.8513C7.71912 17.8513 5.62694 18.1654 4.06897 17.8513V17.8498ZM10.7134 17.9945C10.7134 17.9945 11.1137 17.8205 11.263 16.846C11.263 16.846 14.4929 15.716 16.4835 12.6801C16.4835 12.6801 17.1147 12.7232 17.558 12.3799C17.558 12.3799 19.0637 13.7809 19.7795 15.616C19.7795 15.616 18.374 19.6263 13.8217 20.9134C13.8201 20.9134 11.7726 19.5832 10.7119 17.9945H10.7134ZM18.9759 6.97938C18.9759 6.97938 21.3206 9.67042 20.2645 14.2396C20.2645 14.2396 18.9605 12.1398 18.3139 11.6533C18.3139 11.6533 18.8943 10.5264 18.2262 9.69659C18.2262 9.69659 18.8466 8.48347 18.9759 6.97938ZM9.08003 6.38359C9.08003 6.38359 9.76819 6.93781 9.7959 7.44431C9.7959 7.44431 12.7055 7.62289 15.2288 9.20857C15.2288 9.20857 16.3557 8.28333 17.4457 8.96995C17.4457 8.96995 18.0461 7.86305 18.1692 5.82937C18.1692 5.82937 15.9169 2.86892 11.2199 2.7627C11.2199 2.7627 9.38485 5.25514 9.08003 6.38359ZM8.27796 9.96292C8.27796 9.96292 9.63271 10.0476 9.8621 8.44498C9.8621 8.44498 12.5439 8.69284 14.6838 9.96292C14.6838 9.96292 14.1696 11.5856 15.4951 12.3799C15.4951 12.3799 14.1558 14.3921 11.1122 15.8346C11.1122 15.8346 10.5118 14.4413 8.93532 14.6984C8.93686 14.6984 8.29643 13.4684 8.27796 9.96292Z" fill="#528BFF"/>
</svg>
