<svg width="41" height="40" viewBox="0 0 41 40" fill="none" xmlns="http://www.w3.org/2000/svg">
    <path d="M8.75 4C8.75 2.20508 10.2051 0.75 12 0.75H28C28.1212 0.75 28.2375 0.798159 28.3232 0.883885L39.1161 11.6768C39.2018 11.7625 39.25 11.8788 39.25 12V36C39.25 37.7949 37.7949 39.25 36 39.25H12C10.2051 39.25 8.75 37.7949 8.75 36V4Z" fill="white" stroke="#D0D5DD" stroke-width="1.5"/>
    <path d="M28 0.5V8C28 10.2091 29.7909 12 32 12H39.5" stroke="#D0D5DD" stroke-width="1.5"/>
    <rect y="18" width="30" height="16" rx="2" fill="#0E9384"/>
    <path d="M5.42836 30L3.34739 22.7273H5.02708L6.23091 27.7805H6.29128L7.61941 22.7273H9.05762L10.3822 27.7912H10.4461L11.6499 22.7273H13.3296L11.2487 30H9.75009L8.36515 25.245H8.30833L6.92694 30H5.42836ZM14.6737 30H13.026L15.5367 22.7273H17.5182L20.0253 30H18.3776L16.5558 24.3892H16.499L14.6737 30ZM14.5708 27.1413H18.4628V28.3416H14.5708V27.1413ZM21.3064 22.7273L23.0642 28.2528H23.1317L24.893 22.7273H26.5976L24.0905 30H22.1089L19.5983 22.7273H21.3064Z" fill="white"/>
</svg>
