<svg width="40" height="40" viewBox="0 0 40 40" fill="none" xmlns="http://www.w3.org/2000/svg">
    <g clip-path="url(#clip0_4081_27426)">
        <path d="M0 19.9999C0 27.1428 3.85714 33.7142 10 37.2856C16.1429 40.8571 23.8571 40.8571 30 37.2856C36.1429 33.7142 40 27.1428 40 19.9999C40 12.8571 36.1429 6.28564 30 2.71422C23.8571 -0.857213 16.1429 -0.857213 10 2.71422C3.85714 6.28564 0 12.8571 0 19.9999Z" fill="white"/>
        <path d="M10.143 17.4286L4.42871 7.57143C8.00014 3 13.7144 0 20.0001 0C27.2859 0 33.7144 4 37.143 9.71428H20.0001C15.2859 9.85714 11.2859 13 10.143 17.4286Z" fill="#DD4E41"/>
        <path d="M27.1428 12.7144H38.5714C39.4285 15.0001 39.9999 17.4286 39.9999 20.0001C39.9999 31.0001 31.1428 39.8572 20.2856 40.0001L28.4285 25.8572C29.5714 24.2858 30.2856 22.1429 30.2856 20.0001C30.2856 17.1429 28.9999 14.5715 27.1428 12.7144Z" fill="#FFCD41"/>
        <path d="M12.7144 20.0001C12.7144 16.0001 16.0001 12.7144 20.0001 12.7144C24.0001 12.7144 27.2858 16.0001 27.2858 20.0001C27.2858 24.0001 24.0001 27.2858 20.0001 27.2858C16.0001 27.2858 12.7144 24.0001 12.7144 20.0001Z" fill="#4C8BF5"/>
        <path d="M22.7143 29.8571L17 39.8571C7.42857 38.4285 0 29.9999 0 19.9999C0 16.4285 1 13.1428 2.57143 10.2856L10.7143 24.2856C12.4286 27.7142 15.8571 30.1428 20 30.1428C21 30.2856 21.8571 30.1428 22.7143 29.8571Z" fill="#1DA362"/>
    </g>
    <defs>
        <clipPath id="clip0_4081_27426">
            <rect width="40" height="40" fill="white"/>
        </clipPath>
    </defs>
</svg>
