<svg width="16" height="16" viewBox="0 0 16 16" fill="none" xmlns="http://www.w3.org/2000/svg">
    <circle cx="8" cy="8" r="7" fill="#036CB5"/>
    <path d="M7.97621 3C8.75638 3 9.49865 3.1815 10.1647 3.50618C10.2692 3.55403 10.3743 3.61131 10.4785 3.66864L10.0217 4.07945L9.33705 3.36306L8.15725 4.41365L7.46249 3.65897L5.29302 5.61712L6.68199 7.15495L6.13975 7.63241L7.51011 9.17023L6.96782 9.64749L8.92803 11.8349L10.0882 10.765L11.0973 11.9115C10.8973 12.0644 10.6784 12.2175 10.4408 12.351C9.71757 12.7617 8.88012 13 7.98582 13C5.23573 13 3.00003 10.7558 3.00003 7.99571C2.99032 5.25421 5.22641 3 7.97621 3ZM7.06262 7.68983L8.25204 6.62L9.31795 7.81391L8.12829 8.88364L7.06262 7.68983ZM7.9097 9.75303L9.08944 8.67372L10.1647 9.86753L8.97526 10.9374L7.9097 9.75303ZM6.21628 5.65546L7.40535 4.58563L8.47103 5.77953L7.28155 6.84931L6.21628 5.65546ZM8.39479 5.08218L9.27976 4.2799L10.0792 5.16823L9.19425 5.97999L8.39479 5.08218ZM9.97446 8.75951L10.8591 7.95718L11.6586 8.85478L10.7735 9.65761L9.97446 8.75951ZM10.7546 10.5649L11.6396 9.76245L12.4384 10.6507L11.5537 11.4624L10.7546 10.5649ZM11.1162 6.4385L11.7061 5.90356L12.2387 6.49598L11.649 7.03072L11.1162 6.4385ZM10.355 4.67147L10.9449 4.12715L11.478 4.7288L10.8876 5.26369L10.355 4.67147ZM11.8678 8.20568L12.4577 7.67079L13 8.26301L12.4008 8.79775L11.8678 8.20568ZM9.21319 6.87798L10.0982 6.07564L10.8973 6.96377L10.0127 7.76626L9.21319 6.87798Z" fill="white"/>
</svg>
