<svg width="20" height="20" viewBox="0 0 20 20" fill="none" xmlns="http://www.w3.org/2000/svg">
    <path d="M1.25 17.6562V2.34375C1.25 1.73965 1.73965 1.25 2.34375 1.25H17.6562C18.2604 1.25 18.75 1.73965 18.75 2.34375V17.6562C18.75 18.2604 18.2604 18.75 17.6562 18.75H2.34375C1.73965 18.75 1.25 18.2604 1.25 17.6562Z" fill="#E1F5FF"/>
    <path d="M18.75 5.07812H1.25V2.34375C1.25 1.73965 1.73965 1.25 2.34375 1.25H17.6562C18.2604 1.25 18.75 1.73965 18.75 2.34375V5.07812Z" fill="#8C9EFF"/>
    <path d="M2.89062 3.16406C2.89062 3.3091 2.94824 3.4482 3.0508 3.55076C3.15336 3.65332 3.29246 3.71094 3.4375 3.71094C3.58254 3.71094 3.72164 3.65332 3.8242 3.55076C3.92676 3.4482 3.98438 3.3091 3.98438 3.16406C3.98438 3.01902 3.92676 2.87992 3.8242 2.77736C3.72164 2.6748 3.58254 2.61719 3.4375 2.61719C3.29246 2.61719 3.15336 2.6748 3.0508 2.77736C2.94824 2.87992 2.89062 3.01902 2.89062 3.16406Z" fill="#FF4343"/>
    <path d="M4.53125 3.16406C4.53125 3.3091 4.58887 3.4482 4.69143 3.55076C4.79398 3.65332 4.93308 3.71094 5.07812 3.71094C5.22317 3.71094 5.36226 3.65332 5.46482 3.55076C5.56738 3.4482 5.625 3.3091 5.625 3.16406C5.625 3.01902 5.56738 2.87992 5.46482 2.77736C5.36226 2.6748 5.22317 2.61719 5.07812 2.61719C4.93308 2.61719 4.79398 2.6748 4.69143 2.77736C4.58887 2.87992 4.53125 3.01902 4.53125 3.16406Z" fill="#FFD600"/>
    <path d="M6.17188 3.16406C6.17188 3.3091 6.22949 3.4482 6.33205 3.55076C6.43461 3.65332 6.57371 3.71094 6.71875 3.71094C6.86379 3.71094 7.00289 3.65332 7.10545 3.55076C7.20801 3.4482 7.26562 3.3091 7.26562 3.16406C7.26562 3.01902 7.20801 2.87992 7.10545 2.77736C7.00289 2.6748 6.86379 2.61719 6.71875 2.61719C6.57371 2.61719 6.43461 2.6748 6.33205 2.77736C6.22949 2.87992 6.17188 3.01902 6.17188 3.16406Z" fill="#65FF40"/>
    <path d="M11.3672 8.81445H5.35156C4.89844 8.81445 4.53125 9.18164 4.53125 9.63477C4.53125 10.0879 4.89844 10.4551 5.35156 10.4551H11.3672C11.8203 10.4551 12.1875 10.0879 12.1875 9.63477C12.1875 9.18184 11.8203 8.81445 11.3672 8.81445ZM14.6484 13.3719H5.35156C4.89844 13.3719 4.53125 13.7391 4.53125 14.1922C4.53125 14.6453 4.89844 15.0125 5.35156 15.0125H14.6484C15.1016 15.0125 15.4688 14.6453 15.4688 14.1922C15.4688 13.7391 15.1016 13.3719 14.6484 13.3719Z" fill="#313FA0"/>
</svg>
