<svg t="1749608571775" class="icon" viewBox="0 0 1024 1024" version="1.1" xmlns="http://www.w3.org/2000/svg" p-id="4359"
     width="200" height="200">
    <path d="M876.090932 152.182988l-2.845-2.846A509.27996 509.27996 0 0 0 551.622957 1.51Q532.022958 0.01 512.03396 0C371.199971 0 241.782981 56.890996 149.336988 149.336988 56.890996 243.176981 0 371.176971 0 511.99996c0 142.228989 56.890996 270.228979 149.336988 362.673972C243.199981 967.119924 371.199971 1023.99992 511.99996 1023.99992h382.58297a39.736997 39.736997 0 0 0 39.816997-39.816997V803.609937c28.445998-41.233997 49.782996-85.324993 65.427995-132.261989A532.993958 532.993958 0 0 0 1023.99992 512.05696c0-140.879989-56.879996-267.427979-147.908988-359.873972zM459.382964 706.845945l31.290998-163.554987H347.050973l-31.313998 163.554987H230.399982l75.428994-389.71497h83.907994l-28.490998 152.205988H506.31996l29.862998-152.182988h85.336993L546.090957 706.869945z m263.10798 14.227999H634.31995l56.879996-288.719978h88.182993z m71.108994-371.199971c0 14.216999-5.714 28.445998-15.645999 39.816997a49.542996 49.542996 0 0 1-39.816997 14.228998c-12.799999 0-24.182998-4.274-32.707997-12.799999s-12.799999-21.336998-12.799999-34.136997a53.428996 53.428996 0 0 1 54.044996-54.045996c12.799999-1.417 24.171998 4.263 34.125997 12.799999 8.536999 8.582999 12.799999 21.336998 12.799999 34.136998z"
          p-id="4360"></path>
</svg>
