<svg width="43" height="40" viewBox="0 0 43 40" fill="none" xmlns="http://www.w3.org/2000/svg">
    <path d="M10.75 4C10.75 2.20508 12.2051 0.75 14 0.75H30C30.1212 0.75 30.2375 0.798159 30.3232 0.883885L41.1161 11.6768C41.2018 11.7625 41.25 11.8788 41.25 12V36C41.25 37.7949 39.7949 39.25 38 39.25H14C12.2051 39.25 10.75 37.7949 10.75 36V4Z" fill="white" stroke="#D0D5DD" stroke-width="1.5"/>
    <path d="M30 0.5V8C30 10.2091 31.7909 12 34 12H41.5" stroke="#D0D5DD" stroke-width="1.5"/>
    <rect x="0.5" y="18" width="33" height="16" rx="2" fill="#0E9384"/>
    <path d="M5.77308 30L3.69212 22.7273H5.3718L6.57564 27.7805H6.63601L7.96413 22.7273H9.40234L10.7269 27.7912H10.7908L11.9947 22.7273H13.6744L11.5934 30H10.0948L8.70987 25.245H8.65305L7.27166 30H5.77308ZM14.4973 22.7273H16.3936L18.3965 27.6136H18.4817L20.4846 22.7273H22.3809V30H20.8894V25.2663H20.829L18.9469 29.9645H17.9313L16.0492 25.2486H15.9888V30H14.4973V22.7273ZM24.9013 30H23.2536L25.7642 22.7273H27.7457L30.2528 30H28.6051L26.7834 24.3892H26.7266L24.9013 30ZM24.7983 27.1413H28.6903V28.3416H24.7983V27.1413Z" fill="white"/>
</svg>
