<svg width="24" height="24" viewBox="0 0 24 24" fill="none" xmlns="http://www.w3.org/2000/svg">
    <path d="M1.5 3.768C1.5 3.16649 1.73895 2.58961 2.16428 2.16428C2.58961 1.73895 3.16649 1.5 3.768 1.5H20.232C20.8335 1.5 21.4104 1.73895 21.8357 2.16428C22.261 2.58961 22.5 3.16649 22.5 3.768V20.232C22.5 20.8335 22.261 21.4104 21.8357 21.8357C21.4104 22.261 20.8335 22.5 20.232 22.5H3.768C3.16649 22.5 2.58961 22.261 2.16428 21.8357C1.73895 21.4104 1.5 20.8335 1.5 20.232V3.768Z" fill="#558AAD"/>
    <path d="M9.249 8.83105C9.01501 9.17493 8.66351 9.42154 8.26053 9.52456C7.85755 9.62759 7.43082 9.57993 7.0605 9.39055L9.32325 11.6533C9.40784 11.3373 9.58129 11.0523 9.823 10.8319C10.0647 10.6115 10.3646 10.4651 10.687 10.41C11.0094 10.3549 11.3409 10.3934 11.6421 10.521C11.9432 10.6486 12.2015 10.8599 12.3862 11.1298H17.0017C17.2572 11.1298 17.5021 11.2313 17.6827 11.4119C17.8633 11.5925 17.9647 11.8374 17.9647 12.0928C17.9647 12.3482 17.8633 12.5931 17.6827 12.7737C17.5021 12.9543 17.2572 13.0558 17.0017 13.0558H12.3862C12.1588 13.3898 11.8202 13.6323 11.4307 13.7401C11.0412 13.8479 10.6261 13.8141 10.2592 13.6445L11.9692 15.3545H17.0017C17.2572 15.3545 17.5021 15.456 17.6827 15.6366C17.8633 15.8172 17.9647 16.0621 17.9647 16.3175C17.9647 16.573 17.8633 16.8179 17.6827 16.9985C17.5021 17.1791 17.2572 17.2805 17.0017 17.2805H9.249C9.01246 17.6284 8.65583 17.8766 8.24751 17.9777C7.8392 18.0787 7.40795 18.0254 7.0365 17.828L11.8852 22.4998H20.2327C20.8341 22.4996 21.4108 22.2606 21.836 21.8352C22.2612 21.4099 22.5 20.8332 22.5 20.2318V11.9998L17.592 7.0918L17.5747 7.09405C17.7376 7.21461 17.8583 7.38348 17.9196 7.57661C17.9809 7.76974 17.9798 7.9773 17.9163 8.16973C17.8528 8.36216 17.7303 8.52967 17.5661 8.64841C17.4019 8.76714 17.2044 8.83105 17.0017 8.83105H9.249Z" fill="#4C7B9B"/>
    <path d="M7.68224 15.3545H17.0017C17.6437 15.3545 17.9647 15.6755 17.9647 16.3175C17.9647 16.9595 17.6437 17.2805 17.0017 17.2805H7.68224C7.04024 17.2805 6.71924 16.9595 6.71924 16.3175C6.71924 15.6755 7.04024 15.3545 7.68224 15.3545Z" fill="#A1BED2"/>
    <path d="M10.509 11.1299H17.0017C17.6437 11.1299 17.9647 11.4509 17.9647 12.0929C17.9647 12.7349 17.6437 13.0559 17.0017 13.0559H10.509C9.86699 13.0559 9.54599 12.7349 9.54599 12.0929C9.54599 11.4509 9.86699 11.1299 10.509 11.1299Z" fill="#A1BED2"/>
    <path d="M7.68224 6.90527H17.0017C17.6437 6.90527 17.9647 7.22627 17.9647 7.86827C17.9647 8.51027 17.6437 8.83127 17.0017 8.83127H7.68224C7.04024 8.83127 6.71924 8.51027 6.71924 7.86827C6.71924 7.22627 7.04024 6.90527 7.68224 6.90527Z" fill="#A1BED2"/>
    <path d="M9.24899 8.83081C9.43649 8.55631 9.54599 8.22481 9.54599 7.86781C9.54599 7.52806 9.44699 7.21156 9.27599 6.94531L11.223 8.83081H9.24899ZM12.3862 13.0556C12.5737 12.7818 12.6832 12.4496 12.6832 12.0926C12.6832 11.7836 12.6007 11.4941 12.4582 11.2436L14.3295 13.0556H12.387H12.3862ZM9.24899 17.2803C9.43649 17.0066 9.54599 16.6751 9.54599 16.3173C9.54599 15.9783 9.44699 15.6618 9.27599 15.3956L11.223 17.2811H9.24899V17.2803Z" fill="#98B3C6"/>
    <path d="M6.129 7.86866C6.129 8.09302 6.17319 8.31519 6.25905 8.52247C6.34491 8.72976 6.47076 8.9181 6.62941 9.07675C6.78805 9.2354 6.9764 9.36124 7.18368 9.4471C7.39097 9.53296 7.61313 9.57716 7.8375 9.57716C8.06186 9.57716 8.28403 9.53296 8.49131 9.4471C8.6986 9.36124 8.88694 9.2354 9.04559 9.07675C9.20424 8.9181 9.33009 8.72976 9.41595 8.52247C9.50181 8.31519 9.546 8.09302 9.546 7.86866C9.546 7.41553 9.366 6.98097 9.04559 6.66056C8.72518 6.34016 8.29062 6.16016 7.8375 6.16016C7.38438 6.16016 6.94981 6.34016 6.62941 6.66056C6.309 6.98097 6.129 7.41553 6.129 7.86866Z" fill="white"/>
    <path d="M9.26624 12.0933C9.26624 12.5464 9.44624 12.981 9.76664 13.3014C10.087 13.6218 10.5216 13.8018 10.9747 13.8018C11.4279 13.8018 11.8624 13.6218 12.1828 13.3014C12.5032 12.981 12.6832 12.5464 12.6832 12.0933C12.6832 11.6401 12.5032 11.2056 12.1828 10.8852C11.8624 10.5648 11.4279 10.3848 10.9747 10.3848C10.5216 10.3848 10.087 10.5648 9.76664 10.8852C9.44624 11.2056 9.26624 11.6401 9.26624 12.0933Z" fill="white"/>
    <path d="M6.129 16.3179C6.129 16.5422 6.17319 16.7644 6.25905 16.9717C6.34491 17.179 6.47076 17.3673 6.62941 17.526C6.78805 17.6846 6.9764 17.8105 7.18368 17.8963C7.39097 17.9822 7.61313 18.0264 7.8375 18.0264C8.06186 18.0264 8.28403 17.9822 8.49131 17.8963C8.6986 17.8105 8.88694 17.6846 9.04559 17.526C9.20424 17.3673 9.33009 17.179 9.41595 16.9717C9.50181 16.7644 9.546 16.5422 9.546 16.3179C9.546 15.8648 9.366 15.4302 9.04559 15.1098C8.72518 14.7894 8.29062 14.6094 7.8375 14.6094C7.38438 14.6094 6.94981 14.7894 6.62941 15.1098C6.309 15.4302 6.129 15.8648 6.129 16.3179Z" fill="white"/>
</svg>
