<svg width="24" height="24" viewBox="0 0 24 24" fill="none" xmlns="http://www.w3.org/2000/svg">
    <path d="M16.0091 8.54754C16.267 8.54754 16.5248 8.57135 16.7812 8.59385C16.0913 5.39212 12.6303 3 8.68781 3C4.27912 3.01547 0.666626 5.99515 0.666626 9.77873C0.666626 11.96 1.87082 13.7591 3.87112 15.1519L3.06372 17.5413L5.87144 16.1499C6.87733 16.3466 7.6848 16.5434 8.67789 16.5434C8.9357 16.5434 9.18086 16.5322 9.42588 16.5096C9.26665 15.9663 9.18417 15.4033 9.18084 14.8372C9.1922 11.3684 12.1983 8.54895 16.0106 8.54895L16.0092 8.54754H16.0091ZM11.694 6.39148C12.3031 6.39148 12.6998 6.78499 12.6998 7.38933C12.6998 7.97967 12.3031 8.38727 11.694 8.38727C11.0975 8.38727 10.4898 7.99235 10.4898 7.38931C10.4898 6.78499 11.0975 6.39148 11.694 6.39148ZM6.07968 8.38727C5.48474 8.38727 4.8756 7.99235 4.8756 7.38931C4.8756 6.78499 5.48474 6.39148 6.07968 6.39148C6.67616 6.39148 7.08557 6.78499 7.08557 7.38933C7.08557 7.97967 6.68891 8.38727 6.07968 8.38727ZM23.3333 14.7542C23.3333 11.575 20.1288 8.97621 16.5134 8.97621C12.7012 8.97621 9.69501 11.575 9.69501 14.7542C9.69501 17.9447 12.7012 20.5336 16.5134 20.5336C17.3096 20.5336 18.1171 20.3368 18.9232 20.1386L21.1218 21.3333L20.5141 19.3487C22.1291 18.1316 23.3333 16.5405 23.3333 14.7542ZM14.3034 13.7562C13.9068 13.7562 13.496 13.3627 13.496 12.9551C13.496 12.5616 13.9068 12.1541 14.3034 12.1541C14.9126 12.1541 15.3093 12.549 15.3093 12.9551C15.3093 13.3627 14.9126 13.7562 14.3034 13.7562ZM18.7135 13.7562C18.3155 13.7562 17.9173 13.3627 17.9173 12.9551C17.9173 12.5616 18.3141 12.1541 18.7135 12.1541C19.3213 12.1541 19.7193 12.549 19.7193 12.9551C19.7193 13.3627 19.3213 13.7562 18.7135 13.7562Z" fill="#09BB07"/>
</svg>
