<svg width="40" height="40" viewBox="0 0 40 40" fill="none" xmlns="http://www.w3.org/2000/svg">
    <path d="M7.75 4C7.75 2.20508 9.20508 0.75 11 0.75H27C27.1212 0.75 27.2375 0.798159 27.3232 0.883885L38.1161 11.6768C38.2018 11.7625 38.25 11.8788 38.25 12V36C38.25 37.7949 36.7949 39.25 35 39.25H11C9.20507 39.25 7.75 37.7949 7.75 36V4Z" fill="white" stroke="#D0D5DD" stroke-width="1.5"/>
    <path d="M27 0.5V8C27 10.2091 28.7909 12 31 12H38.5" stroke="#D0D5DD" stroke-width="1.5"/>
    <rect y="18" width="28" height="16" rx="2" fill="#444CE7"/>
    <path d="M5.08754 22.7273L6.55415 25.206H6.61097L8.08469 22.7273H9.8212L7.60174 26.3636L9.87092 30H8.10245L6.61097 27.5178H6.55415L5.06268 30H3.30131L5.57759 26.3636L3.34393 22.7273H5.08754ZM10.7942 22.7273H12.6905L14.6934 27.6136H14.7786L16.7814 22.7273H18.6777V30H17.1863V25.2663H17.1259L15.2438 29.9645H14.2282L12.3461 25.2486H12.2857V30H10.7942V22.7273ZM19.9446 30V22.7273H21.4822V28.7322H24.6001V30H19.9446Z" fill="white"/>
</svg>
