<svg width="267" height="36" viewBox="0 0 267 36" fill="none" xmlns="http://www.w3.org/2000/svg">
    <path d="M22.4029 24.7498C22.4029 25.7568 22.4164 26.6258 22.4435 27.3648C22.3595 27.2348 22.2729 27.0968 22.1809 26.956L6.10692 1.8489H0V35.4532H5.24068V12.046C5.24068 11.1636 5.23256 10.4002 5.21632 9.75054C5.24881 9.80197 5.28129 9.8534 5.31378 9.90484L21.829 35.4532H27.6408V1.84619H22.4001V24.7498H22.4029Z" fill="#101828"/>
    <path d="M43.9449 10.6033C40.7317 10.6033 38.0085 11.8295 35.8457 14.2468C33.699 16.6479 32.6108 19.7285 32.6108 23.4045C32.6108 27.3025 33.607 30.4047 35.5696 32.6244C37.5511 34.8631 40.3311 35.9973 43.8393 35.9973C47.3097 35.9973 50.1493 35.2367 52.277 33.737L52.507 33.5746V28.5207L51.6354 29.1893C49.5727 30.7729 47.2745 31.5768 44.8057 31.5768C42.6618 31.5768 40.9781 30.9515 39.8005 29.7172C38.7096 28.5748 38.087 26.9507 37.9409 24.8907H54.1637V22.2703C54.1637 18.6403 53.2569 15.76 51.4676 13.7163C49.662 11.6509 47.1283 10.6033 43.9449 10.6033ZM38.0248 20.5135C38.3659 18.9597 39.0345 17.6685 40.0171 16.6669C41.1188 15.5462 42.383 15.0021 43.8827 15.0021C45.5068 15.0021 46.7277 15.5029 47.6074 16.5342C48.4141 17.479 48.8662 18.8162 48.9528 20.5135H38.0248Z" fill="#101828"/>
    <path d="M63.5189 11.1472H57.4255L73.5591 35.4531H79.6633L63.5189 11.1472Z" fill="#101828"/>
    <path d="M93.3551 4.06311L88.1794 5.70895V11.15H84.1893V15.6327H88.1794V28.507C88.1794 33.3796 90.5236 35.9566 94.9577 35.9566C96.5683 35.9566 97.8785 35.6859 98.8503 35.1553L99.1318 35.001V30.1691L98.2628 30.8242C97.6673 31.2735 96.9852 31.4928 96.1758 31.4928C95.1526 31.4928 94.4271 31.2302 94.0183 30.7132C93.5798 30.1556 93.3578 29.1675 93.3578 27.7734V15.6327H99.1318V11.15H93.3578V4.06311H93.3551Z" fill="#101828"/>
    <path d="M120.59 1.30212C115.633 1.30212 111.484 2.96691 108.257 6.25046C105.033 9.5313 103.398 13.9112 103.398 19.2683C103.398 24.2599 104.854 28.3366 107.724 31.3874C110.601 34.4462 114.494 35.9973 119.288 35.9973C122.972 35.9973 126.088 35.3395 128.548 34.0456L128.838 33.894V28.5694L128.015 29.0729C125.733 30.4697 123.005 31.1762 119.9 31.1762C116.63 31.1762 113.95 30.0799 111.941 27.917C109.919 25.7433 108.896 22.7467 108.896 19.0165C108.896 15.0779 109.998 11.9134 112.171 9.61522C114.337 7.32512 117.185 6.16383 120.639 6.16383C123.319 6.16383 125.806 6.79185 128.039 8.02623L128.843 8.47288V2.8099L128.519 2.66914C126.423 1.76231 123.757 1.30212 120.59 1.30212Z" fill="#101828"/>
    <path d="M144.652 10.6033C140.849 10.6033 137.787 11.7781 135.549 14.0953C133.315 16.407 132.184 19.5904 132.184 23.5507C132.184 27.2457 133.28 30.2748 135.44 32.5541C137.609 34.8388 140.538 35.9973 144.146 35.9973C147.841 35.9973 150.835 34.8036 153.044 32.4458C155.245 30.0988 156.36 26.9858 156.36 23.1934C156.36 19.3062 155.312 16.204 153.244 13.9762C151.168 11.7375 148.277 10.6033 144.652 10.6033ZM149.354 29.4546C148.22 30.8406 146.598 31.5146 144.398 31.5146C142.259 31.5146 140.611 30.8189 139.357 29.3896C138.101 27.9576 137.465 25.9518 137.465 23.4262C137.465 20.8139 138.096 18.7404 139.341 17.2678C140.581 15.8006 142.235 15.086 144.398 15.086C146.598 15.086 148.22 15.7628 149.351 17.1541C150.496 18.5591 151.078 20.6353 151.078 23.3206C151.081 25.9924 150.502 28.0578 149.354 29.4546Z" fill="#101828"/>
    <path d="M173.438 10.6033C170.463 10.6033 168.062 11.7212 166.273 13.9274V11.1474H161.075V35.4505H166.273V21.6612C166.273 19.7474 166.814 18.1503 167.883 16.9132C168.947 15.6842 170.268 15.086 171.925 15.086C175.078 15.086 176.611 17.2516 176.611 21.7045V35.4532H181.786V20.7192C181.786 17.4844 181.074 14.9723 179.669 13.248C178.24 11.4939 176.142 10.6033 173.438 10.6033Z" fill="#101828"/>
    <path d="M196.082 21.2444C193.619 20.2671 192.655 19.6716 192.279 19.3441C191.805 18.9299 191.572 18.356 191.572 17.59C191.572 16.8347 191.902 16.2365 192.579 15.7682C193.31 15.262 194.284 15.0048 195.484 15.0048C197.565 15.0048 199.452 15.5408 201.09 16.5992L201.924 17.1379V11.8106L201.585 11.6725C199.834 10.9633 197.915 10.6033 195.882 10.6033C193.231 10.6033 190.96 11.2611 189.133 12.5604C187.246 13.9004 186.291 15.714 186.291 17.9473C186.291 19.5038 186.716 20.8519 187.555 21.959C188.391 23.0634 190.108 24.1273 192.815 25.2155C194.888 25.987 196.269 26.6529 196.921 27.1916C197.495 27.668 197.776 28.2581 197.776 28.989C197.776 30.1097 197.335 31.5958 193.51 31.5958C191.245 31.5958 189.098 30.873 187.13 29.4519L186.272 28.832V34.4246L186.567 34.5762C188.427 35.5209 190.627 36 193.11 36C195.982 36 198.367 35.3476 200.194 34.0645C202.081 32.7381 203.039 30.8974 203.039 28.5938C203.039 26.9398 202.535 25.5268 201.539 24.3953C200.559 23.2773 198.77 22.2459 196.082 21.2444Z" fill="#101828"/>
    <path d="M218.39 10.6033C214.587 10.6033 211.525 11.7781 209.286 14.0953C207.053 16.407 205.922 19.5904 205.922 23.5507C205.922 27.2457 207.018 30.2748 209.178 32.5541C211.346 34.8388 214.275 35.9973 217.884 35.9973C221.579 35.9973 224.573 34.8036 226.782 32.4458C228.982 30.0988 230.098 26.9858 230.098 23.1934C230.098 19.3062 229.05 16.204 226.982 13.9762C224.906 11.7375 222.015 10.6033 218.39 10.6033ZM223.092 29.4546C221.958 30.8406 220.336 31.5146 218.135 31.5146C215.997 31.5146 214.348 30.8189 213.095 29.3896C211.839 27.9576 211.203 25.9518 211.203 23.4262C211.203 20.8139 211.834 18.7404 213.079 17.2678C214.319 15.8006 215.973 15.086 218.135 15.086C220.336 15.086 221.958 15.7628 223.089 17.1541C224.234 18.5591 224.816 20.6353 224.816 23.3206C224.819 25.9924 224.237 28.0578 223.092 29.4546Z" fill="#101828"/>
    <path d="M239.989 0H234.792V35.4531H239.989V0Z" fill="#101828"/>
    <path d="M266.255 22.2703C266.255 18.6375 265.348 15.76 263.558 13.7163C261.753 11.6509 259.219 10.6033 256.033 10.6033C252.82 10.6033 250.097 11.8295 247.934 14.2468C245.787 16.6479 244.699 19.7285 244.699 23.4045C244.699 27.3025 245.695 30.4047 247.658 32.6244C249.639 34.8631 252.419 35.9973 255.925 35.9973C259.395 35.9973 262.235 35.2367 264.362 33.737L264.592 33.5746V28.5207L263.721 29.1893C261.658 30.7729 259.36 31.5768 256.891 31.5768C254.747 31.5768 253.064 30.9515 251.886 29.7172C250.795 28.5748 250.172 26.9507 250.026 24.8907H266.255V22.2703ZM250.116 20.5135C250.457 18.9597 251.125 17.6685 252.108 16.6669C253.21 15.5462 254.474 15.0021 255.973 15.0021C257.598 15.0021 258.819 15.5029 259.698 16.5342C260.505 17.479 260.957 18.8162 261.044 20.5135H250.116Z" fill="#101828"/>
    <path d="M54.8513 35.4532H60.8635L68.9275 26.9316H62.8369L54.8513 35.4532Z" fill="#0220BB"/>
    <path d="M68.2751 19.6687L74.2873 19.6715L82.3514 11.1472H76.258L68.2751 19.6687Z" fill="#00E5E5"/>
</svg>
